G04 EAGLE Gerber RS-274X export*
G75*
%MOMM*%
%FSLAX34Y34*%
%LPD*%
%INBoard Outline*%
%IPPOS*%
%AMOC8*
5,1,8,0,0,1.08239X$1,22.5*%
G01*
G04 Define Apertures*
%ADD10C,0.000000*%
%ADD11C,0.254000*%
D10*
X-151500Y-125250D02*
X-151497Y-124980D01*
X-151487Y-124710D01*
X-151470Y-124441D01*
X-151447Y-124172D01*
X-151417Y-123903D01*
X-151381Y-123636D01*
X-151338Y-123369D01*
X-151289Y-123104D01*
X-151233Y-122840D01*
X-151170Y-122577D01*
X-151102Y-122316D01*
X-151026Y-122057D01*
X-150945Y-121800D01*
X-150857Y-121544D01*
X-150763Y-121291D01*
X-150663Y-121040D01*
X-150556Y-120792D01*
X-150444Y-120547D01*
X-150325Y-120304D01*
X-150201Y-120065D01*
X-150071Y-119828D01*
X-149935Y-119595D01*
X-149793Y-119365D01*
X-149646Y-119139D01*
X-149493Y-118916D01*
X-149335Y-118697D01*
X-149172Y-118482D01*
X-149003Y-118272D01*
X-148829Y-118065D01*
X-148650Y-117863D01*
X-148467Y-117665D01*
X-148278Y-117472D01*
X-148085Y-117283D01*
X-147887Y-117100D01*
X-147685Y-116921D01*
X-147478Y-116747D01*
X-147268Y-116578D01*
X-147053Y-116415D01*
X-146834Y-116257D01*
X-146611Y-116104D01*
X-146385Y-115957D01*
X-146155Y-115815D01*
X-145922Y-115679D01*
X-145685Y-115549D01*
X-145446Y-115425D01*
X-145203Y-115306D01*
X-144958Y-115194D01*
X-144710Y-115087D01*
X-144459Y-114987D01*
X-144206Y-114893D01*
X-143950Y-114805D01*
X-143693Y-114724D01*
X-143434Y-114648D01*
X-143173Y-114580D01*
X-142910Y-114517D01*
X-142646Y-114461D01*
X-142381Y-114412D01*
X-142114Y-114369D01*
X-141847Y-114333D01*
X-141578Y-114303D01*
X-141309Y-114280D01*
X-141040Y-114263D01*
X-140770Y-114253D01*
X-140500Y-114250D01*
X-140230Y-114253D01*
X-139960Y-114263D01*
X-139691Y-114280D01*
X-139422Y-114303D01*
X-139153Y-114333D01*
X-138886Y-114369D01*
X-138619Y-114412D01*
X-138354Y-114461D01*
X-138090Y-114517D01*
X-137827Y-114580D01*
X-137566Y-114648D01*
X-137307Y-114724D01*
X-137050Y-114805D01*
X-136794Y-114893D01*
X-136541Y-114987D01*
X-136290Y-115087D01*
X-136042Y-115194D01*
X-135797Y-115306D01*
X-135554Y-115425D01*
X-135315Y-115549D01*
X-135078Y-115679D01*
X-134845Y-115815D01*
X-134615Y-115957D01*
X-134389Y-116104D01*
X-134166Y-116257D01*
X-133947Y-116415D01*
X-133732Y-116578D01*
X-133522Y-116747D01*
X-133315Y-116921D01*
X-133113Y-117100D01*
X-132915Y-117283D01*
X-132722Y-117472D01*
X-132533Y-117665D01*
X-132350Y-117863D01*
X-132171Y-118065D01*
X-131997Y-118272D01*
X-131828Y-118482D01*
X-131665Y-118697D01*
X-131507Y-118916D01*
X-131354Y-119139D01*
X-131207Y-119365D01*
X-131065Y-119595D01*
X-130929Y-119828D01*
X-130799Y-120065D01*
X-130675Y-120304D01*
X-130556Y-120547D01*
X-130444Y-120792D01*
X-130337Y-121040D01*
X-130237Y-121291D01*
X-130143Y-121544D01*
X-130055Y-121800D01*
X-129974Y-122057D01*
X-129898Y-122316D01*
X-129830Y-122577D01*
X-129767Y-122840D01*
X-129711Y-123104D01*
X-129662Y-123369D01*
X-129619Y-123636D01*
X-129583Y-123903D01*
X-129553Y-124172D01*
X-129530Y-124441D01*
X-129513Y-124710D01*
X-129503Y-124980D01*
X-129500Y-125250D01*
X-129503Y-125520D01*
X-129513Y-125790D01*
X-129530Y-126059D01*
X-129553Y-126328D01*
X-129583Y-126597D01*
X-129619Y-126864D01*
X-129662Y-127131D01*
X-129711Y-127396D01*
X-129767Y-127660D01*
X-129830Y-127923D01*
X-129898Y-128184D01*
X-129974Y-128443D01*
X-130055Y-128700D01*
X-130143Y-128956D01*
X-130237Y-129209D01*
X-130337Y-129460D01*
X-130444Y-129708D01*
X-130556Y-129953D01*
X-130675Y-130196D01*
X-130799Y-130435D01*
X-130929Y-130672D01*
X-131065Y-130905D01*
X-131207Y-131135D01*
X-131354Y-131361D01*
X-131507Y-131584D01*
X-131665Y-131803D01*
X-131828Y-132018D01*
X-131997Y-132228D01*
X-132171Y-132435D01*
X-132350Y-132637D01*
X-132533Y-132835D01*
X-132722Y-133028D01*
X-132915Y-133217D01*
X-133113Y-133400D01*
X-133315Y-133579D01*
X-133522Y-133753D01*
X-133732Y-133922D01*
X-133947Y-134085D01*
X-134166Y-134243D01*
X-134389Y-134396D01*
X-134615Y-134543D01*
X-134845Y-134685D01*
X-135078Y-134821D01*
X-135315Y-134951D01*
X-135554Y-135075D01*
X-135797Y-135194D01*
X-136042Y-135306D01*
X-136290Y-135413D01*
X-136541Y-135513D01*
X-136794Y-135607D01*
X-137050Y-135695D01*
X-137307Y-135776D01*
X-137566Y-135852D01*
X-137827Y-135920D01*
X-138090Y-135983D01*
X-138354Y-136039D01*
X-138619Y-136088D01*
X-138886Y-136131D01*
X-139153Y-136167D01*
X-139422Y-136197D01*
X-139691Y-136220D01*
X-139960Y-136237D01*
X-140230Y-136247D01*
X-140500Y-136250D01*
X-140770Y-136247D01*
X-141040Y-136237D01*
X-141309Y-136220D01*
X-141578Y-136197D01*
X-141847Y-136167D01*
X-142114Y-136131D01*
X-142381Y-136088D01*
X-142646Y-136039D01*
X-142910Y-135983D01*
X-143173Y-135920D01*
X-143434Y-135852D01*
X-143693Y-135776D01*
X-143950Y-135695D01*
X-144206Y-135607D01*
X-144459Y-135513D01*
X-144710Y-135413D01*
X-144958Y-135306D01*
X-145203Y-135194D01*
X-145446Y-135075D01*
X-145685Y-134951D01*
X-145922Y-134821D01*
X-146155Y-134685D01*
X-146385Y-134543D01*
X-146611Y-134396D01*
X-146834Y-134243D01*
X-147053Y-134085D01*
X-147268Y-133922D01*
X-147478Y-133753D01*
X-147685Y-133579D01*
X-147887Y-133400D01*
X-148085Y-133217D01*
X-148278Y-133028D01*
X-148467Y-132835D01*
X-148650Y-132637D01*
X-148829Y-132435D01*
X-149003Y-132228D01*
X-149172Y-132018D01*
X-149335Y-131803D01*
X-149493Y-131584D01*
X-149646Y-131361D01*
X-149793Y-131135D01*
X-149935Y-130905D01*
X-150071Y-130672D01*
X-150201Y-130435D01*
X-150325Y-130196D01*
X-150444Y-129953D01*
X-150556Y-129708D01*
X-150663Y-129460D01*
X-150763Y-129209D01*
X-150857Y-128956D01*
X-150945Y-128700D01*
X-151026Y-128443D01*
X-151102Y-128184D01*
X-151170Y-127923D01*
X-151233Y-127660D01*
X-151289Y-127396D01*
X-151338Y-127131D01*
X-151381Y-126864D01*
X-151417Y-126597D01*
X-151447Y-126328D01*
X-151470Y-126059D01*
X-151487Y-125790D01*
X-151497Y-125520D01*
X-151500Y-125250D01*
X129500Y-125250D02*
X129503Y-124980D01*
X129513Y-124710D01*
X129530Y-124441D01*
X129553Y-124172D01*
X129583Y-123903D01*
X129619Y-123636D01*
X129662Y-123369D01*
X129711Y-123104D01*
X129767Y-122840D01*
X129830Y-122577D01*
X129898Y-122316D01*
X129974Y-122057D01*
X130055Y-121800D01*
X130143Y-121544D01*
X130237Y-121291D01*
X130337Y-121040D01*
X130444Y-120792D01*
X130556Y-120547D01*
X130675Y-120304D01*
X130799Y-120065D01*
X130929Y-119828D01*
X131065Y-119595D01*
X131207Y-119365D01*
X131354Y-119139D01*
X131507Y-118916D01*
X131665Y-118697D01*
X131828Y-118482D01*
X131997Y-118272D01*
X132171Y-118065D01*
X132350Y-117863D01*
X132533Y-117665D01*
X132722Y-117472D01*
X132915Y-117283D01*
X133113Y-117100D01*
X133315Y-116921D01*
X133522Y-116747D01*
X133732Y-116578D01*
X133947Y-116415D01*
X134166Y-116257D01*
X134389Y-116104D01*
X134615Y-115957D01*
X134845Y-115815D01*
X135078Y-115679D01*
X135315Y-115549D01*
X135554Y-115425D01*
X135797Y-115306D01*
X136042Y-115194D01*
X136290Y-115087D01*
X136541Y-114987D01*
X136794Y-114893D01*
X137050Y-114805D01*
X137307Y-114724D01*
X137566Y-114648D01*
X137827Y-114580D01*
X138090Y-114517D01*
X138354Y-114461D01*
X138619Y-114412D01*
X138886Y-114369D01*
X139153Y-114333D01*
X139422Y-114303D01*
X139691Y-114280D01*
X139960Y-114263D01*
X140230Y-114253D01*
X140500Y-114250D01*
X140770Y-114253D01*
X141040Y-114263D01*
X141309Y-114280D01*
X141578Y-114303D01*
X141847Y-114333D01*
X142114Y-114369D01*
X142381Y-114412D01*
X142646Y-114461D01*
X142910Y-114517D01*
X143173Y-114580D01*
X143434Y-114648D01*
X143693Y-114724D01*
X143950Y-114805D01*
X144206Y-114893D01*
X144459Y-114987D01*
X144710Y-115087D01*
X144958Y-115194D01*
X145203Y-115306D01*
X145446Y-115425D01*
X145685Y-115549D01*
X145922Y-115679D01*
X146155Y-115815D01*
X146385Y-115957D01*
X146611Y-116104D01*
X146834Y-116257D01*
X147053Y-116415D01*
X147268Y-116578D01*
X147478Y-116747D01*
X147685Y-116921D01*
X147887Y-117100D01*
X148085Y-117283D01*
X148278Y-117472D01*
X148467Y-117665D01*
X148650Y-117863D01*
X148829Y-118065D01*
X149003Y-118272D01*
X149172Y-118482D01*
X149335Y-118697D01*
X149493Y-118916D01*
X149646Y-119139D01*
X149793Y-119365D01*
X149935Y-119595D01*
X150071Y-119828D01*
X150201Y-120065D01*
X150325Y-120304D01*
X150444Y-120547D01*
X150556Y-120792D01*
X150663Y-121040D01*
X150763Y-121291D01*
X150857Y-121544D01*
X150945Y-121800D01*
X151026Y-122057D01*
X151102Y-122316D01*
X151170Y-122577D01*
X151233Y-122840D01*
X151289Y-123104D01*
X151338Y-123369D01*
X151381Y-123636D01*
X151417Y-123903D01*
X151447Y-124172D01*
X151470Y-124441D01*
X151487Y-124710D01*
X151497Y-124980D01*
X151500Y-125250D01*
X151497Y-125520D01*
X151487Y-125790D01*
X151470Y-126059D01*
X151447Y-126328D01*
X151417Y-126597D01*
X151381Y-126864D01*
X151338Y-127131D01*
X151289Y-127396D01*
X151233Y-127660D01*
X151170Y-127923D01*
X151102Y-128184D01*
X151026Y-128443D01*
X150945Y-128700D01*
X150857Y-128956D01*
X150763Y-129209D01*
X150663Y-129460D01*
X150556Y-129708D01*
X150444Y-129953D01*
X150325Y-130196D01*
X150201Y-130435D01*
X150071Y-130672D01*
X149935Y-130905D01*
X149793Y-131135D01*
X149646Y-131361D01*
X149493Y-131584D01*
X149335Y-131803D01*
X149172Y-132018D01*
X149003Y-132228D01*
X148829Y-132435D01*
X148650Y-132637D01*
X148467Y-132835D01*
X148278Y-133028D01*
X148085Y-133217D01*
X147887Y-133400D01*
X147685Y-133579D01*
X147478Y-133753D01*
X147268Y-133922D01*
X147053Y-134085D01*
X146834Y-134243D01*
X146611Y-134396D01*
X146385Y-134543D01*
X146155Y-134685D01*
X145922Y-134821D01*
X145685Y-134951D01*
X145446Y-135075D01*
X145203Y-135194D01*
X144958Y-135306D01*
X144710Y-135413D01*
X144459Y-135513D01*
X144206Y-135607D01*
X143950Y-135695D01*
X143693Y-135776D01*
X143434Y-135852D01*
X143173Y-135920D01*
X142910Y-135983D01*
X142646Y-136039D01*
X142381Y-136088D01*
X142114Y-136131D01*
X141847Y-136167D01*
X141578Y-136197D01*
X141309Y-136220D01*
X141040Y-136237D01*
X140770Y-136247D01*
X140500Y-136250D01*
X140230Y-136247D01*
X139960Y-136237D01*
X139691Y-136220D01*
X139422Y-136197D01*
X139153Y-136167D01*
X138886Y-136131D01*
X138619Y-136088D01*
X138354Y-136039D01*
X138090Y-135983D01*
X137827Y-135920D01*
X137566Y-135852D01*
X137307Y-135776D01*
X137050Y-135695D01*
X136794Y-135607D01*
X136541Y-135513D01*
X136290Y-135413D01*
X136042Y-135306D01*
X135797Y-135194D01*
X135554Y-135075D01*
X135315Y-134951D01*
X135078Y-134821D01*
X134845Y-134685D01*
X134615Y-134543D01*
X134389Y-134396D01*
X134166Y-134243D01*
X133947Y-134085D01*
X133732Y-133922D01*
X133522Y-133753D01*
X133315Y-133579D01*
X133113Y-133400D01*
X132915Y-133217D01*
X132722Y-133028D01*
X132533Y-132835D01*
X132350Y-132637D01*
X132171Y-132435D01*
X131997Y-132228D01*
X131828Y-132018D01*
X131665Y-131803D01*
X131507Y-131584D01*
X131354Y-131361D01*
X131207Y-131135D01*
X131065Y-130905D01*
X130929Y-130672D01*
X130799Y-130435D01*
X130675Y-130196D01*
X130556Y-129953D01*
X130444Y-129708D01*
X130337Y-129460D01*
X130237Y-129209D01*
X130143Y-128956D01*
X130055Y-128700D01*
X129974Y-128443D01*
X129898Y-128184D01*
X129830Y-127923D01*
X129767Y-127660D01*
X129711Y-127396D01*
X129662Y-127131D01*
X129619Y-126864D01*
X129583Y-126597D01*
X129553Y-126328D01*
X129530Y-126059D01*
X129513Y-125790D01*
X129503Y-125520D01*
X129500Y-125250D01*
X-140500Y95250D02*
X-141708Y95235D01*
X-142916Y95192D01*
X-144122Y95119D01*
X-145326Y95017D01*
X-146527Y94885D01*
X-147724Y94725D01*
X-148918Y94536D01*
X-150106Y94319D01*
X-151289Y94072D01*
X-152466Y93797D01*
X-153635Y93494D01*
X-154797Y93162D01*
X-155951Y92803D01*
X-157095Y92416D01*
X-158230Y92001D01*
X-159355Y91559D01*
X-160468Y91090D01*
X-161570Y90594D01*
X-162660Y90071D01*
X-163736Y89523D01*
X-164799Y88948D01*
X-165848Y88348D01*
X-166882Y87723D01*
X-167901Y87074D01*
X-168903Y86399D01*
X-169889Y85701D01*
X-170858Y84979D01*
X-171809Y84234D01*
X-172742Y83466D01*
X-173656Y82676D01*
X-174551Y81863D01*
X-175426Y81030D01*
X-176280Y80176D01*
X-177113Y79301D01*
X-177926Y78406D01*
X-178716Y77492D01*
X-179484Y76559D01*
X-180229Y75608D01*
X-180951Y74639D01*
X-181649Y73653D01*
X-182324Y72651D01*
X-182973Y71632D01*
X-183598Y70598D01*
X-184198Y69549D01*
X-184773Y68486D01*
X-185321Y67410D01*
X-185844Y66320D01*
X-186340Y65218D01*
X-186809Y64105D01*
X-187251Y62980D01*
X-187666Y61845D01*
X-188053Y60701D01*
X-188412Y59547D01*
X-188744Y58385D01*
X-189047Y57216D01*
X-189322Y56039D01*
X-189569Y54856D01*
X-189786Y53668D01*
X-189975Y52474D01*
X-190135Y51277D01*
X-190267Y50076D01*
X-190369Y48872D01*
X-190442Y47666D01*
X-190485Y46458D01*
X-190500Y45250D01*
X-190500Y-125250D01*
X-190485Y-126458D01*
X-190442Y-127666D01*
X-190369Y-128872D01*
X-190267Y-130076D01*
X-190135Y-131277D01*
X-189975Y-132474D01*
X-189786Y-133668D01*
X-189569Y-134856D01*
X-189322Y-136039D01*
X-189047Y-137216D01*
X-188744Y-138385D01*
X-188412Y-139547D01*
X-188053Y-140701D01*
X-187666Y-141845D01*
X-187251Y-142980D01*
X-186809Y-144105D01*
X-186340Y-145218D01*
X-185844Y-146320D01*
X-185321Y-147410D01*
X-184773Y-148486D01*
X-184198Y-149549D01*
X-183598Y-150598D01*
X-182973Y-151632D01*
X-182324Y-152651D01*
X-181649Y-153653D01*
X-180951Y-154639D01*
X-180229Y-155608D01*
X-179484Y-156559D01*
X-178716Y-157492D01*
X-177926Y-158406D01*
X-177113Y-159301D01*
X-176280Y-160176D01*
X-175426Y-161030D01*
X-174551Y-161863D01*
X-173656Y-162676D01*
X-172742Y-163466D01*
X-171809Y-164234D01*
X-170858Y-164979D01*
X-169889Y-165701D01*
X-168903Y-166399D01*
X-167901Y-167074D01*
X-166882Y-167723D01*
X-165848Y-168348D01*
X-164799Y-168948D01*
X-163736Y-169523D01*
X-162660Y-170071D01*
X-161570Y-170594D01*
X-160468Y-171090D01*
X-159355Y-171559D01*
X-158230Y-172001D01*
X-157095Y-172416D01*
X-155951Y-172803D01*
X-154797Y-173162D01*
X-153635Y-173494D01*
X-152466Y-173797D01*
X-151289Y-174072D01*
X-150106Y-174319D01*
X-148918Y-174536D01*
X-147724Y-174725D01*
X-146527Y-174885D01*
X-145326Y-175017D01*
X-144122Y-175119D01*
X-142916Y-175192D01*
X-141708Y-175235D01*
X-140500Y-175250D01*
X140500Y-175250D01*
X141708Y-175235D01*
X142916Y-175192D01*
X144122Y-175119D01*
X145326Y-175017D01*
X146527Y-174885D01*
X147724Y-174725D01*
X148918Y-174536D01*
X150106Y-174319D01*
X151289Y-174072D01*
X152466Y-173797D01*
X153635Y-173494D01*
X154797Y-173162D01*
X155951Y-172803D01*
X157095Y-172416D01*
X158230Y-172001D01*
X159355Y-171559D01*
X160468Y-171090D01*
X161570Y-170594D01*
X162660Y-170071D01*
X163736Y-169523D01*
X164799Y-168948D01*
X165848Y-168348D01*
X166882Y-167723D01*
X167901Y-167074D01*
X168903Y-166399D01*
X169889Y-165701D01*
X170858Y-164979D01*
X171809Y-164234D01*
X172742Y-163466D01*
X173656Y-162676D01*
X174551Y-161863D01*
X175426Y-161030D01*
X176280Y-160176D01*
X177113Y-159301D01*
X177926Y-158406D01*
X178716Y-157492D01*
X179484Y-156559D01*
X180229Y-155608D01*
X180951Y-154639D01*
X181649Y-153653D01*
X182324Y-152651D01*
X182973Y-151632D01*
X183598Y-150598D01*
X184198Y-149549D01*
X184773Y-148486D01*
X185321Y-147410D01*
X185844Y-146320D01*
X186340Y-145218D01*
X186809Y-144105D01*
X187251Y-142980D01*
X187666Y-141845D01*
X188053Y-140701D01*
X188412Y-139547D01*
X188744Y-138385D01*
X189047Y-137216D01*
X189322Y-136039D01*
X189569Y-134856D01*
X189786Y-133668D01*
X189975Y-132474D01*
X190135Y-131277D01*
X190267Y-130076D01*
X190369Y-128872D01*
X190442Y-127666D01*
X190485Y-126458D01*
X190500Y-125250D01*
X190500Y45250D01*
X190485Y46458D01*
X190442Y47666D01*
X190369Y48872D01*
X190267Y50076D01*
X190135Y51277D01*
X189975Y52474D01*
X189786Y53668D01*
X189569Y54856D01*
X189322Y56039D01*
X189047Y57216D01*
X188744Y58385D01*
X188412Y59547D01*
X188053Y60701D01*
X187666Y61845D01*
X187251Y62980D01*
X186809Y64105D01*
X186340Y65218D01*
X185844Y66320D01*
X185321Y67410D01*
X184773Y68486D01*
X184198Y69549D01*
X183598Y70598D01*
X182973Y71632D01*
X182324Y72651D01*
X181649Y73653D01*
X180951Y74639D01*
X180229Y75608D01*
X179484Y76559D01*
X178716Y77492D01*
X177926Y78406D01*
X177113Y79301D01*
X176280Y80176D01*
X175426Y81030D01*
X174551Y81863D01*
X173656Y82676D01*
X172742Y83466D01*
X171809Y84234D01*
X170858Y84979D01*
X169889Y85701D01*
X168903Y86399D01*
X167901Y87074D01*
X166882Y87723D01*
X165848Y88348D01*
X164799Y88948D01*
X163736Y89523D01*
X162660Y90071D01*
X161570Y90594D01*
X160468Y91090D01*
X159355Y91559D01*
X158230Y92001D01*
X157095Y92416D01*
X155951Y92803D01*
X154797Y93162D01*
X153635Y93494D01*
X152466Y93797D01*
X151289Y94072D01*
X150106Y94319D01*
X148918Y94536D01*
X147724Y94725D01*
X146527Y94885D01*
X145326Y95017D01*
X144122Y95119D01*
X142916Y95192D01*
X141708Y95235D01*
X140500Y95250D01*
X-140500Y95250D01*
X-112250Y-32000D02*
X-78250Y-32000D01*
X-112250Y-32000D02*
X-112250Y-62000D01*
X-78250Y-62000D01*
X-78250Y-32000D01*
X78250Y-62000D02*
X112250Y-62000D01*
X78250Y-62000D02*
X78250Y-92000D01*
X112250Y-92000D01*
X112250Y-62000D01*
X-112250Y0D02*
X-112245Y417D01*
X-112230Y834D01*
X-112204Y1251D01*
X-112168Y1666D01*
X-112122Y2081D01*
X-112066Y2494D01*
X-112000Y2906D01*
X-111923Y3317D01*
X-111837Y3725D01*
X-111741Y4131D01*
X-111634Y4534D01*
X-111518Y4935D01*
X-111392Y5333D01*
X-111256Y5727D01*
X-111111Y6118D01*
X-110956Y6506D01*
X-110792Y6889D01*
X-110618Y7268D01*
X-110435Y7643D01*
X-110243Y8014D01*
X-110041Y8379D01*
X-109831Y8740D01*
X-109613Y9095D01*
X-109385Y9445D01*
X-109149Y9789D01*
X-108905Y10127D01*
X-108652Y10459D01*
X-108391Y10785D01*
X-108123Y11104D01*
X-107846Y11417D01*
X-107562Y11722D01*
X-107271Y12021D01*
X-106972Y12312D01*
X-106667Y12596D01*
X-106354Y12873D01*
X-106035Y13141D01*
X-105709Y13402D01*
X-105377Y13655D01*
X-105039Y13899D01*
X-104695Y14135D01*
X-104345Y14363D01*
X-103990Y14581D01*
X-103629Y14791D01*
X-103264Y14993D01*
X-102893Y15185D01*
X-102518Y15368D01*
X-102139Y15542D01*
X-101756Y15706D01*
X-101368Y15861D01*
X-100977Y16006D01*
X-100583Y16142D01*
X-100185Y16268D01*
X-99784Y16384D01*
X-99381Y16491D01*
X-98975Y16587D01*
X-98567Y16673D01*
X-98156Y16750D01*
X-97744Y16816D01*
X-97331Y16872D01*
X-96916Y16918D01*
X-96501Y16954D01*
X-96084Y16980D01*
X-95667Y16995D01*
X-95250Y17000D01*
X-94833Y16995D01*
X-94416Y16980D01*
X-93999Y16954D01*
X-93584Y16918D01*
X-93169Y16872D01*
X-92756Y16816D01*
X-92344Y16750D01*
X-91933Y16673D01*
X-91525Y16587D01*
X-91119Y16491D01*
X-90716Y16384D01*
X-90315Y16268D01*
X-89917Y16142D01*
X-89523Y16006D01*
X-89132Y15861D01*
X-88744Y15706D01*
X-88361Y15542D01*
X-87982Y15368D01*
X-87607Y15185D01*
X-87236Y14993D01*
X-86871Y14791D01*
X-86510Y14581D01*
X-86155Y14363D01*
X-85805Y14135D01*
X-85461Y13899D01*
X-85123Y13655D01*
X-84791Y13402D01*
X-84465Y13141D01*
X-84146Y12873D01*
X-83833Y12596D01*
X-83528Y12312D01*
X-83229Y12021D01*
X-82938Y11722D01*
X-82654Y11417D01*
X-82377Y11104D01*
X-82109Y10785D01*
X-81848Y10459D01*
X-81595Y10127D01*
X-81351Y9789D01*
X-81115Y9445D01*
X-80887Y9095D01*
X-80669Y8740D01*
X-80459Y8379D01*
X-80257Y8014D01*
X-80065Y7643D01*
X-79882Y7268D01*
X-79708Y6889D01*
X-79544Y6506D01*
X-79389Y6118D01*
X-79244Y5727D01*
X-79108Y5333D01*
X-78982Y4935D01*
X-78866Y4534D01*
X-78759Y4131D01*
X-78663Y3725D01*
X-78577Y3317D01*
X-78500Y2906D01*
X-78434Y2494D01*
X-78378Y2081D01*
X-78332Y1666D01*
X-78296Y1251D01*
X-78270Y834D01*
X-78255Y417D01*
X-78250Y0D01*
X-78255Y-417D01*
X-78270Y-834D01*
X-78296Y-1251D01*
X-78332Y-1666D01*
X-78378Y-2081D01*
X-78434Y-2494D01*
X-78500Y-2906D01*
X-78577Y-3317D01*
X-78663Y-3725D01*
X-78759Y-4131D01*
X-78866Y-4534D01*
X-78982Y-4935D01*
X-79108Y-5333D01*
X-79244Y-5727D01*
X-79389Y-6118D01*
X-79544Y-6506D01*
X-79708Y-6889D01*
X-79882Y-7268D01*
X-80065Y-7643D01*
X-80257Y-8014D01*
X-80459Y-8379D01*
X-80669Y-8740D01*
X-80887Y-9095D01*
X-81115Y-9445D01*
X-81351Y-9789D01*
X-81595Y-10127D01*
X-81848Y-10459D01*
X-82109Y-10785D01*
X-82377Y-11104D01*
X-82654Y-11417D01*
X-82938Y-11722D01*
X-83229Y-12021D01*
X-83528Y-12312D01*
X-83833Y-12596D01*
X-84146Y-12873D01*
X-84465Y-13141D01*
X-84791Y-13402D01*
X-85123Y-13655D01*
X-85461Y-13899D01*
X-85805Y-14135D01*
X-86155Y-14363D01*
X-86510Y-14581D01*
X-86871Y-14791D01*
X-87236Y-14993D01*
X-87607Y-15185D01*
X-87982Y-15368D01*
X-88361Y-15542D01*
X-88744Y-15706D01*
X-89132Y-15861D01*
X-89523Y-16006D01*
X-89917Y-16142D01*
X-90315Y-16268D01*
X-90716Y-16384D01*
X-91119Y-16491D01*
X-91525Y-16587D01*
X-91933Y-16673D01*
X-92344Y-16750D01*
X-92756Y-16816D01*
X-93169Y-16872D01*
X-93584Y-16918D01*
X-93999Y-16954D01*
X-94416Y-16980D01*
X-94833Y-16995D01*
X-95250Y-17000D01*
X-95667Y-16995D01*
X-96084Y-16980D01*
X-96501Y-16954D01*
X-96916Y-16918D01*
X-97331Y-16872D01*
X-97744Y-16816D01*
X-98156Y-16750D01*
X-98567Y-16673D01*
X-98975Y-16587D01*
X-99381Y-16491D01*
X-99784Y-16384D01*
X-100185Y-16268D01*
X-100583Y-16142D01*
X-100977Y-16006D01*
X-101368Y-15861D01*
X-101756Y-15706D01*
X-102139Y-15542D01*
X-102518Y-15368D01*
X-102893Y-15185D01*
X-103264Y-14993D01*
X-103629Y-14791D01*
X-103990Y-14581D01*
X-104345Y-14363D01*
X-104695Y-14135D01*
X-105039Y-13899D01*
X-105377Y-13655D01*
X-105709Y-13402D01*
X-106035Y-13141D01*
X-106354Y-12873D01*
X-106667Y-12596D01*
X-106972Y-12312D01*
X-107271Y-12021D01*
X-107562Y-11722D01*
X-107846Y-11417D01*
X-108123Y-11104D01*
X-108391Y-10785D01*
X-108652Y-10459D01*
X-108905Y-10127D01*
X-109149Y-9789D01*
X-109385Y-9445D01*
X-109613Y-9095D01*
X-109831Y-8740D01*
X-110041Y-8379D01*
X-110243Y-8014D01*
X-110435Y-7643D01*
X-110618Y-7268D01*
X-110792Y-6889D01*
X-110956Y-6506D01*
X-111111Y-6118D01*
X-111256Y-5727D01*
X-111392Y-5333D01*
X-111518Y-4935D01*
X-111634Y-4534D01*
X-111741Y-4131D01*
X-111837Y-3725D01*
X-111923Y-3317D01*
X-112000Y-2906D01*
X-112066Y-2494D01*
X-112122Y-2081D01*
X-112168Y-1666D01*
X-112204Y-1251D01*
X-112230Y-834D01*
X-112245Y-417D01*
X-112250Y0D01*
X-158750Y0D02*
X-158747Y209D01*
X-158740Y417D01*
X-158727Y625D01*
X-158709Y833D01*
X-158686Y1040D01*
X-158658Y1247D01*
X-158625Y1453D01*
X-158587Y1658D01*
X-158543Y1862D01*
X-158495Y2065D01*
X-158442Y2267D01*
X-158384Y2467D01*
X-158321Y2666D01*
X-158253Y2864D01*
X-158180Y3059D01*
X-158103Y3253D01*
X-158021Y3445D01*
X-157934Y3634D01*
X-157842Y3822D01*
X-157746Y4007D01*
X-157646Y4190D01*
X-157541Y4370D01*
X-157431Y4547D01*
X-157317Y4722D01*
X-157199Y4894D01*
X-157077Y5063D01*
X-156951Y5229D01*
X-156821Y5392D01*
X-156686Y5552D01*
X-156548Y5708D01*
X-156406Y5861D01*
X-156260Y6010D01*
X-156111Y6156D01*
X-155958Y6298D01*
X-155802Y6436D01*
X-155642Y6571D01*
X-155479Y6701D01*
X-155313Y6827D01*
X-155144Y6949D01*
X-154972Y7067D01*
X-154797Y7181D01*
X-154620Y7291D01*
X-154440Y7396D01*
X-154257Y7496D01*
X-154072Y7592D01*
X-153884Y7684D01*
X-153695Y7771D01*
X-153503Y7853D01*
X-153309Y7930D01*
X-153114Y8003D01*
X-152916Y8071D01*
X-152717Y8134D01*
X-152517Y8192D01*
X-152315Y8245D01*
X-152112Y8293D01*
X-151908Y8337D01*
X-151703Y8375D01*
X-151497Y8408D01*
X-151290Y8436D01*
X-151083Y8459D01*
X-150875Y8477D01*
X-150667Y8490D01*
X-150459Y8497D01*
X-150250Y8500D01*
X-150041Y8497D01*
X-149833Y8490D01*
X-149625Y8477D01*
X-149417Y8459D01*
X-149210Y8436D01*
X-149003Y8408D01*
X-148797Y8375D01*
X-148592Y8337D01*
X-148388Y8293D01*
X-148185Y8245D01*
X-147983Y8192D01*
X-147783Y8134D01*
X-147584Y8071D01*
X-147386Y8003D01*
X-147191Y7930D01*
X-146997Y7853D01*
X-146805Y7771D01*
X-146616Y7684D01*
X-146428Y7592D01*
X-146243Y7496D01*
X-146060Y7396D01*
X-145880Y7291D01*
X-145703Y7181D01*
X-145528Y7067D01*
X-145356Y6949D01*
X-145187Y6827D01*
X-145021Y6701D01*
X-144858Y6571D01*
X-144698Y6436D01*
X-144542Y6298D01*
X-144389Y6156D01*
X-144240Y6010D01*
X-144094Y5861D01*
X-143952Y5708D01*
X-143814Y5552D01*
X-143679Y5392D01*
X-143549Y5229D01*
X-143423Y5063D01*
X-143301Y4894D01*
X-143183Y4722D01*
X-143069Y4547D01*
X-142959Y4370D01*
X-142854Y4190D01*
X-142754Y4007D01*
X-142658Y3822D01*
X-142566Y3634D01*
X-142479Y3445D01*
X-142397Y3253D01*
X-142320Y3059D01*
X-142247Y2864D01*
X-142179Y2666D01*
X-142116Y2467D01*
X-142058Y2267D01*
X-142005Y2065D01*
X-141957Y1862D01*
X-141913Y1658D01*
X-141875Y1453D01*
X-141842Y1247D01*
X-141814Y1040D01*
X-141791Y833D01*
X-141773Y625D01*
X-141760Y417D01*
X-141753Y209D01*
X-141750Y0D01*
X-141753Y-209D01*
X-141760Y-417D01*
X-141773Y-625D01*
X-141791Y-833D01*
X-141814Y-1040D01*
X-141842Y-1247D01*
X-141875Y-1453D01*
X-141913Y-1658D01*
X-141957Y-1862D01*
X-142005Y-2065D01*
X-142058Y-2267D01*
X-142116Y-2467D01*
X-142179Y-2666D01*
X-142247Y-2864D01*
X-142320Y-3059D01*
X-142397Y-3253D01*
X-142479Y-3445D01*
X-142566Y-3634D01*
X-142658Y-3822D01*
X-142754Y-4007D01*
X-142854Y-4190D01*
X-142959Y-4370D01*
X-143069Y-4547D01*
X-143183Y-4722D01*
X-143301Y-4894D01*
X-143423Y-5063D01*
X-143549Y-5229D01*
X-143679Y-5392D01*
X-143814Y-5552D01*
X-143952Y-5708D01*
X-144094Y-5861D01*
X-144240Y-6010D01*
X-144389Y-6156D01*
X-144542Y-6298D01*
X-144698Y-6436D01*
X-144858Y-6571D01*
X-145021Y-6701D01*
X-145187Y-6827D01*
X-145356Y-6949D01*
X-145528Y-7067D01*
X-145703Y-7181D01*
X-145880Y-7291D01*
X-146060Y-7396D01*
X-146243Y-7496D01*
X-146428Y-7592D01*
X-146616Y-7684D01*
X-146805Y-7771D01*
X-146997Y-7853D01*
X-147191Y-7930D01*
X-147386Y-8003D01*
X-147584Y-8071D01*
X-147783Y-8134D01*
X-147983Y-8192D01*
X-148185Y-8245D01*
X-148388Y-8293D01*
X-148592Y-8337D01*
X-148797Y-8375D01*
X-149003Y-8408D01*
X-149210Y-8436D01*
X-149417Y-8459D01*
X-149625Y-8477D01*
X-149833Y-8490D01*
X-150041Y-8497D01*
X-150250Y-8500D01*
X-150459Y-8497D01*
X-150667Y-8490D01*
X-150875Y-8477D01*
X-151083Y-8459D01*
X-151290Y-8436D01*
X-151497Y-8408D01*
X-151703Y-8375D01*
X-151908Y-8337D01*
X-152112Y-8293D01*
X-152315Y-8245D01*
X-152517Y-8192D01*
X-152717Y-8134D01*
X-152916Y-8071D01*
X-153114Y-8003D01*
X-153309Y-7930D01*
X-153503Y-7853D01*
X-153695Y-7771D01*
X-153884Y-7684D01*
X-154072Y-7592D01*
X-154257Y-7496D01*
X-154440Y-7396D01*
X-154620Y-7291D01*
X-154797Y-7181D01*
X-154972Y-7067D01*
X-155144Y-6949D01*
X-155313Y-6827D01*
X-155479Y-6701D01*
X-155642Y-6571D01*
X-155802Y-6436D01*
X-155958Y-6298D01*
X-156111Y-6156D01*
X-156260Y-6010D01*
X-156406Y-5861D01*
X-156548Y-5708D01*
X-156686Y-5552D01*
X-156821Y-5392D01*
X-156951Y-5229D01*
X-157077Y-5063D01*
X-157199Y-4894D01*
X-157317Y-4722D01*
X-157431Y-4547D01*
X-157541Y-4370D01*
X-157646Y-4190D01*
X-157746Y-4007D01*
X-157842Y-3822D01*
X-157934Y-3634D01*
X-158021Y-3445D01*
X-158103Y-3253D01*
X-158180Y-3059D01*
X-158253Y-2864D01*
X-158321Y-2666D01*
X-158384Y-2467D01*
X-158442Y-2267D01*
X-158495Y-2065D01*
X-158543Y-1862D01*
X-158587Y-1658D01*
X-158625Y-1453D01*
X-158658Y-1247D01*
X-158686Y-1040D01*
X-158709Y-833D01*
X-158727Y-625D01*
X-158740Y-417D01*
X-158747Y-209D01*
X-158750Y0D01*
X-48750Y0D02*
X-48747Y209D01*
X-48740Y417D01*
X-48727Y625D01*
X-48709Y833D01*
X-48686Y1040D01*
X-48658Y1247D01*
X-48625Y1453D01*
X-48587Y1658D01*
X-48543Y1862D01*
X-48495Y2065D01*
X-48442Y2267D01*
X-48384Y2467D01*
X-48321Y2666D01*
X-48253Y2864D01*
X-48180Y3059D01*
X-48103Y3253D01*
X-48021Y3445D01*
X-47934Y3634D01*
X-47842Y3822D01*
X-47746Y4007D01*
X-47646Y4190D01*
X-47541Y4370D01*
X-47431Y4547D01*
X-47317Y4722D01*
X-47199Y4894D01*
X-47077Y5063D01*
X-46951Y5229D01*
X-46821Y5392D01*
X-46686Y5552D01*
X-46548Y5708D01*
X-46406Y5861D01*
X-46260Y6010D01*
X-46111Y6156D01*
X-45958Y6298D01*
X-45802Y6436D01*
X-45642Y6571D01*
X-45479Y6701D01*
X-45313Y6827D01*
X-45144Y6949D01*
X-44972Y7067D01*
X-44797Y7181D01*
X-44620Y7291D01*
X-44440Y7396D01*
X-44257Y7496D01*
X-44072Y7592D01*
X-43884Y7684D01*
X-43695Y7771D01*
X-43503Y7853D01*
X-43309Y7930D01*
X-43114Y8003D01*
X-42916Y8071D01*
X-42717Y8134D01*
X-42517Y8192D01*
X-42315Y8245D01*
X-42112Y8293D01*
X-41908Y8337D01*
X-41703Y8375D01*
X-41497Y8408D01*
X-41290Y8436D01*
X-41083Y8459D01*
X-40875Y8477D01*
X-40667Y8490D01*
X-40459Y8497D01*
X-40250Y8500D01*
X-40041Y8497D01*
X-39833Y8490D01*
X-39625Y8477D01*
X-39417Y8459D01*
X-39210Y8436D01*
X-39003Y8408D01*
X-38797Y8375D01*
X-38592Y8337D01*
X-38388Y8293D01*
X-38185Y8245D01*
X-37983Y8192D01*
X-37783Y8134D01*
X-37584Y8071D01*
X-37386Y8003D01*
X-37191Y7930D01*
X-36997Y7853D01*
X-36805Y7771D01*
X-36616Y7684D01*
X-36428Y7592D01*
X-36243Y7496D01*
X-36060Y7396D01*
X-35880Y7291D01*
X-35703Y7181D01*
X-35528Y7067D01*
X-35356Y6949D01*
X-35187Y6827D01*
X-35021Y6701D01*
X-34858Y6571D01*
X-34698Y6436D01*
X-34542Y6298D01*
X-34389Y6156D01*
X-34240Y6010D01*
X-34094Y5861D01*
X-33952Y5708D01*
X-33814Y5552D01*
X-33679Y5392D01*
X-33549Y5229D01*
X-33423Y5063D01*
X-33301Y4894D01*
X-33183Y4722D01*
X-33069Y4547D01*
X-32959Y4370D01*
X-32854Y4190D01*
X-32754Y4007D01*
X-32658Y3822D01*
X-32566Y3634D01*
X-32479Y3445D01*
X-32397Y3253D01*
X-32320Y3059D01*
X-32247Y2864D01*
X-32179Y2666D01*
X-32116Y2467D01*
X-32058Y2267D01*
X-32005Y2065D01*
X-31957Y1862D01*
X-31913Y1658D01*
X-31875Y1453D01*
X-31842Y1247D01*
X-31814Y1040D01*
X-31791Y833D01*
X-31773Y625D01*
X-31760Y417D01*
X-31753Y209D01*
X-31750Y0D01*
X-31753Y-209D01*
X-31760Y-417D01*
X-31773Y-625D01*
X-31791Y-833D01*
X-31814Y-1040D01*
X-31842Y-1247D01*
X-31875Y-1453D01*
X-31913Y-1658D01*
X-31957Y-1862D01*
X-32005Y-2065D01*
X-32058Y-2267D01*
X-32116Y-2467D01*
X-32179Y-2666D01*
X-32247Y-2864D01*
X-32320Y-3059D01*
X-32397Y-3253D01*
X-32479Y-3445D01*
X-32566Y-3634D01*
X-32658Y-3822D01*
X-32754Y-4007D01*
X-32854Y-4190D01*
X-32959Y-4370D01*
X-33069Y-4547D01*
X-33183Y-4722D01*
X-33301Y-4894D01*
X-33423Y-5063D01*
X-33549Y-5229D01*
X-33679Y-5392D01*
X-33814Y-5552D01*
X-33952Y-5708D01*
X-34094Y-5861D01*
X-34240Y-6010D01*
X-34389Y-6156D01*
X-34542Y-6298D01*
X-34698Y-6436D01*
X-34858Y-6571D01*
X-35021Y-6701D01*
X-35187Y-6827D01*
X-35356Y-6949D01*
X-35528Y-7067D01*
X-35703Y-7181D01*
X-35880Y-7291D01*
X-36060Y-7396D01*
X-36243Y-7496D01*
X-36428Y-7592D01*
X-36616Y-7684D01*
X-36805Y-7771D01*
X-36997Y-7853D01*
X-37191Y-7930D01*
X-37386Y-8003D01*
X-37584Y-8071D01*
X-37783Y-8134D01*
X-37983Y-8192D01*
X-38185Y-8245D01*
X-38388Y-8293D01*
X-38592Y-8337D01*
X-38797Y-8375D01*
X-39003Y-8408D01*
X-39210Y-8436D01*
X-39417Y-8459D01*
X-39625Y-8477D01*
X-39833Y-8490D01*
X-40041Y-8497D01*
X-40250Y-8500D01*
X-40459Y-8497D01*
X-40667Y-8490D01*
X-40875Y-8477D01*
X-41083Y-8459D01*
X-41290Y-8436D01*
X-41497Y-8408D01*
X-41703Y-8375D01*
X-41908Y-8337D01*
X-42112Y-8293D01*
X-42315Y-8245D01*
X-42517Y-8192D01*
X-42717Y-8134D01*
X-42916Y-8071D01*
X-43114Y-8003D01*
X-43309Y-7930D01*
X-43503Y-7853D01*
X-43695Y-7771D01*
X-43884Y-7684D01*
X-44072Y-7592D01*
X-44257Y-7496D01*
X-44440Y-7396D01*
X-44620Y-7291D01*
X-44797Y-7181D01*
X-44972Y-7067D01*
X-45144Y-6949D01*
X-45313Y-6827D01*
X-45479Y-6701D01*
X-45642Y-6571D01*
X-45802Y-6436D01*
X-45958Y-6298D01*
X-46111Y-6156D01*
X-46260Y-6010D01*
X-46406Y-5861D01*
X-46548Y-5708D01*
X-46686Y-5552D01*
X-46821Y-5392D01*
X-46951Y-5229D01*
X-47077Y-5063D01*
X-47199Y-4894D01*
X-47317Y-4722D01*
X-47431Y-4547D01*
X-47541Y-4370D01*
X-47646Y-4190D01*
X-47746Y-4007D01*
X-47842Y-3822D01*
X-47934Y-3634D01*
X-48021Y-3445D01*
X-48103Y-3253D01*
X-48180Y-3059D01*
X-48253Y-2864D01*
X-48321Y-2666D01*
X-48384Y-2467D01*
X-48442Y-2267D01*
X-48495Y-2065D01*
X-48543Y-1862D01*
X-48587Y-1658D01*
X-48625Y-1453D01*
X-48658Y-1247D01*
X-48686Y-1040D01*
X-48709Y-833D01*
X-48727Y-625D01*
X-48740Y-417D01*
X-48747Y-209D01*
X-48750Y0D01*
X-60250Y37000D02*
X-60245Y37368D01*
X-60232Y37736D01*
X-60209Y38103D01*
X-60178Y38470D01*
X-60137Y38836D01*
X-60088Y39201D01*
X-60029Y39564D01*
X-59962Y39926D01*
X-59886Y40287D01*
X-59800Y40645D01*
X-59707Y41001D01*
X-59604Y41354D01*
X-59493Y41705D01*
X-59373Y42053D01*
X-59245Y42398D01*
X-59108Y42740D01*
X-58963Y43079D01*
X-58810Y43413D01*
X-58648Y43744D01*
X-58479Y44071D01*
X-58301Y44393D01*
X-58116Y44712D01*
X-57923Y45025D01*
X-57722Y45334D01*
X-57514Y45637D01*
X-57298Y45935D01*
X-57075Y46228D01*
X-56845Y46516D01*
X-56608Y46798D01*
X-56364Y47073D01*
X-56114Y47343D01*
X-55857Y47607D01*
X-55593Y47864D01*
X-55323Y48114D01*
X-55048Y48358D01*
X-54766Y48595D01*
X-54478Y48825D01*
X-54185Y49048D01*
X-53887Y49264D01*
X-53584Y49472D01*
X-53275Y49673D01*
X-52962Y49866D01*
X-52643Y50051D01*
X-52321Y50229D01*
X-51994Y50398D01*
X-51663Y50560D01*
X-51329Y50713D01*
X-50990Y50858D01*
X-50648Y50995D01*
X-50303Y51123D01*
X-49955Y51243D01*
X-49604Y51354D01*
X-49251Y51457D01*
X-48895Y51550D01*
X-48537Y51636D01*
X-48176Y51712D01*
X-47814Y51779D01*
X-47451Y51838D01*
X-47086Y51887D01*
X-46720Y51928D01*
X-46353Y51959D01*
X-45986Y51982D01*
X-45618Y51995D01*
X-45250Y52000D01*
X-44882Y51995D01*
X-44514Y51982D01*
X-44147Y51959D01*
X-43780Y51928D01*
X-43414Y51887D01*
X-43049Y51838D01*
X-42686Y51779D01*
X-42324Y51712D01*
X-41963Y51636D01*
X-41605Y51550D01*
X-41249Y51457D01*
X-40896Y51354D01*
X-40545Y51243D01*
X-40197Y51123D01*
X-39852Y50995D01*
X-39510Y50858D01*
X-39171Y50713D01*
X-38837Y50560D01*
X-38506Y50398D01*
X-38179Y50229D01*
X-37857Y50051D01*
X-37538Y49866D01*
X-37225Y49673D01*
X-36916Y49472D01*
X-36613Y49264D01*
X-36315Y49048D01*
X-36022Y48825D01*
X-35734Y48595D01*
X-35452Y48358D01*
X-35177Y48114D01*
X-34907Y47864D01*
X-34643Y47607D01*
X-34386Y47343D01*
X-34136Y47073D01*
X-33892Y46798D01*
X-33655Y46516D01*
X-33425Y46228D01*
X-33202Y45935D01*
X-32986Y45637D01*
X-32778Y45334D01*
X-32577Y45025D01*
X-32384Y44712D01*
X-32199Y44393D01*
X-32021Y44071D01*
X-31852Y43744D01*
X-31690Y43413D01*
X-31537Y43079D01*
X-31392Y42740D01*
X-31255Y42398D01*
X-31127Y42053D01*
X-31007Y41705D01*
X-30896Y41354D01*
X-30793Y41001D01*
X-30700Y40645D01*
X-30614Y40287D01*
X-30538Y39926D01*
X-30471Y39564D01*
X-30412Y39201D01*
X-30363Y38836D01*
X-30322Y38470D01*
X-30291Y38103D01*
X-30268Y37736D01*
X-30255Y37368D01*
X-30250Y37000D01*
X-30255Y36632D01*
X-30268Y36264D01*
X-30291Y35897D01*
X-30322Y35530D01*
X-30363Y35164D01*
X-30412Y34799D01*
X-30471Y34436D01*
X-30538Y34074D01*
X-30614Y33713D01*
X-30700Y33355D01*
X-30793Y32999D01*
X-30896Y32646D01*
X-31007Y32295D01*
X-31127Y31947D01*
X-31255Y31602D01*
X-31392Y31260D01*
X-31537Y30921D01*
X-31690Y30587D01*
X-31852Y30256D01*
X-32021Y29929D01*
X-32199Y29607D01*
X-32384Y29288D01*
X-32577Y28975D01*
X-32778Y28666D01*
X-32986Y28363D01*
X-33202Y28065D01*
X-33425Y27772D01*
X-33655Y27484D01*
X-33892Y27202D01*
X-34136Y26927D01*
X-34386Y26657D01*
X-34643Y26393D01*
X-34907Y26136D01*
X-35177Y25886D01*
X-35452Y25642D01*
X-35734Y25405D01*
X-36022Y25175D01*
X-36315Y24952D01*
X-36613Y24736D01*
X-36916Y24528D01*
X-37225Y24327D01*
X-37538Y24134D01*
X-37857Y23949D01*
X-38179Y23771D01*
X-38506Y23602D01*
X-38837Y23440D01*
X-39171Y23287D01*
X-39510Y23142D01*
X-39852Y23005D01*
X-40197Y22877D01*
X-40545Y22757D01*
X-40896Y22646D01*
X-41249Y22543D01*
X-41605Y22450D01*
X-41963Y22364D01*
X-42324Y22288D01*
X-42686Y22221D01*
X-43049Y22162D01*
X-43414Y22113D01*
X-43780Y22072D01*
X-44147Y22041D01*
X-44514Y22018D01*
X-44882Y22005D01*
X-45250Y22000D01*
X-45618Y22005D01*
X-45986Y22018D01*
X-46353Y22041D01*
X-46720Y22072D01*
X-47086Y22113D01*
X-47451Y22162D01*
X-47814Y22221D01*
X-48176Y22288D01*
X-48537Y22364D01*
X-48895Y22450D01*
X-49251Y22543D01*
X-49604Y22646D01*
X-49955Y22757D01*
X-50303Y22877D01*
X-50648Y23005D01*
X-50990Y23142D01*
X-51329Y23287D01*
X-51663Y23440D01*
X-51994Y23602D01*
X-52321Y23771D01*
X-52643Y23949D01*
X-52962Y24134D01*
X-53275Y24327D01*
X-53584Y24528D01*
X-53887Y24736D01*
X-54185Y24952D01*
X-54478Y25175D01*
X-54766Y25405D01*
X-55048Y25642D01*
X-55323Y25886D01*
X-55593Y26136D01*
X-55857Y26393D01*
X-56114Y26657D01*
X-56364Y26927D01*
X-56608Y27202D01*
X-56845Y27484D01*
X-57075Y27772D01*
X-57298Y28065D01*
X-57514Y28363D01*
X-57722Y28666D01*
X-57923Y28975D01*
X-58116Y29288D01*
X-58301Y29607D01*
X-58479Y29929D01*
X-58648Y30256D01*
X-58810Y30587D01*
X-58963Y30921D01*
X-59108Y31260D01*
X-59245Y31602D01*
X-59373Y31947D01*
X-59493Y32295D01*
X-59604Y32646D01*
X-59707Y32999D01*
X-59800Y33355D01*
X-59886Y33713D01*
X-59962Y34074D01*
X-60029Y34436D01*
X-60088Y34799D01*
X-60137Y35164D01*
X-60178Y35530D01*
X-60209Y35897D01*
X-60232Y36264D01*
X-60245Y36632D01*
X-60250Y37000D01*
X-110250Y59000D02*
X-110245Y59368D01*
X-110232Y59736D01*
X-110209Y60103D01*
X-110178Y60470D01*
X-110137Y60836D01*
X-110088Y61201D01*
X-110029Y61564D01*
X-109962Y61926D01*
X-109886Y62287D01*
X-109800Y62645D01*
X-109707Y63001D01*
X-109604Y63354D01*
X-109493Y63705D01*
X-109373Y64053D01*
X-109245Y64398D01*
X-109108Y64740D01*
X-108963Y65079D01*
X-108810Y65413D01*
X-108648Y65744D01*
X-108479Y66071D01*
X-108301Y66393D01*
X-108116Y66712D01*
X-107923Y67025D01*
X-107722Y67334D01*
X-107514Y67637D01*
X-107298Y67935D01*
X-107075Y68228D01*
X-106845Y68516D01*
X-106608Y68798D01*
X-106364Y69073D01*
X-106114Y69343D01*
X-105857Y69607D01*
X-105593Y69864D01*
X-105323Y70114D01*
X-105048Y70358D01*
X-104766Y70595D01*
X-104478Y70825D01*
X-104185Y71048D01*
X-103887Y71264D01*
X-103584Y71472D01*
X-103275Y71673D01*
X-102962Y71866D01*
X-102643Y72051D01*
X-102321Y72229D01*
X-101994Y72398D01*
X-101663Y72560D01*
X-101329Y72713D01*
X-100990Y72858D01*
X-100648Y72995D01*
X-100303Y73123D01*
X-99955Y73243D01*
X-99604Y73354D01*
X-99251Y73457D01*
X-98895Y73550D01*
X-98537Y73636D01*
X-98176Y73712D01*
X-97814Y73779D01*
X-97451Y73838D01*
X-97086Y73887D01*
X-96720Y73928D01*
X-96353Y73959D01*
X-95986Y73982D01*
X-95618Y73995D01*
X-95250Y74000D01*
X-94882Y73995D01*
X-94514Y73982D01*
X-94147Y73959D01*
X-93780Y73928D01*
X-93414Y73887D01*
X-93049Y73838D01*
X-92686Y73779D01*
X-92324Y73712D01*
X-91963Y73636D01*
X-91605Y73550D01*
X-91249Y73457D01*
X-90896Y73354D01*
X-90545Y73243D01*
X-90197Y73123D01*
X-89852Y72995D01*
X-89510Y72858D01*
X-89171Y72713D01*
X-88837Y72560D01*
X-88506Y72398D01*
X-88179Y72229D01*
X-87857Y72051D01*
X-87538Y71866D01*
X-87225Y71673D01*
X-86916Y71472D01*
X-86613Y71264D01*
X-86315Y71048D01*
X-86022Y70825D01*
X-85734Y70595D01*
X-85452Y70358D01*
X-85177Y70114D01*
X-84907Y69864D01*
X-84643Y69607D01*
X-84386Y69343D01*
X-84136Y69073D01*
X-83892Y68798D01*
X-83655Y68516D01*
X-83425Y68228D01*
X-83202Y67935D01*
X-82986Y67637D01*
X-82778Y67334D01*
X-82577Y67025D01*
X-82384Y66712D01*
X-82199Y66393D01*
X-82021Y66071D01*
X-81852Y65744D01*
X-81690Y65413D01*
X-81537Y65079D01*
X-81392Y64740D01*
X-81255Y64398D01*
X-81127Y64053D01*
X-81007Y63705D01*
X-80896Y63354D01*
X-80793Y63001D01*
X-80700Y62645D01*
X-80614Y62287D01*
X-80538Y61926D01*
X-80471Y61564D01*
X-80412Y61201D01*
X-80363Y60836D01*
X-80322Y60470D01*
X-80291Y60103D01*
X-80268Y59736D01*
X-80255Y59368D01*
X-80250Y59000D01*
X-80255Y58632D01*
X-80268Y58264D01*
X-80291Y57897D01*
X-80322Y57530D01*
X-80363Y57164D01*
X-80412Y56799D01*
X-80471Y56436D01*
X-80538Y56074D01*
X-80614Y55713D01*
X-80700Y55355D01*
X-80793Y54999D01*
X-80896Y54646D01*
X-81007Y54295D01*
X-81127Y53947D01*
X-81255Y53602D01*
X-81392Y53260D01*
X-81537Y52921D01*
X-81690Y52587D01*
X-81852Y52256D01*
X-82021Y51929D01*
X-82199Y51607D01*
X-82384Y51288D01*
X-82577Y50975D01*
X-82778Y50666D01*
X-82986Y50363D01*
X-83202Y50065D01*
X-83425Y49772D01*
X-83655Y49484D01*
X-83892Y49202D01*
X-84136Y48927D01*
X-84386Y48657D01*
X-84643Y48393D01*
X-84907Y48136D01*
X-85177Y47886D01*
X-85452Y47642D01*
X-85734Y47405D01*
X-86022Y47175D01*
X-86315Y46952D01*
X-86613Y46736D01*
X-86916Y46528D01*
X-87225Y46327D01*
X-87538Y46134D01*
X-87857Y45949D01*
X-88179Y45771D01*
X-88506Y45602D01*
X-88837Y45440D01*
X-89171Y45287D01*
X-89510Y45142D01*
X-89852Y45005D01*
X-90197Y44877D01*
X-90545Y44757D01*
X-90896Y44646D01*
X-91249Y44543D01*
X-91605Y44450D01*
X-91963Y44364D01*
X-92324Y44288D01*
X-92686Y44221D01*
X-93049Y44162D01*
X-93414Y44113D01*
X-93780Y44072D01*
X-94147Y44041D01*
X-94514Y44018D01*
X-94882Y44005D01*
X-95250Y44000D01*
X-95618Y44005D01*
X-95986Y44018D01*
X-96353Y44041D01*
X-96720Y44072D01*
X-97086Y44113D01*
X-97451Y44162D01*
X-97814Y44221D01*
X-98176Y44288D01*
X-98537Y44364D01*
X-98895Y44450D01*
X-99251Y44543D01*
X-99604Y44646D01*
X-99955Y44757D01*
X-100303Y44877D01*
X-100648Y45005D01*
X-100990Y45142D01*
X-101329Y45287D01*
X-101663Y45440D01*
X-101994Y45602D01*
X-102321Y45771D01*
X-102643Y45949D01*
X-102962Y46134D01*
X-103275Y46327D01*
X-103584Y46528D01*
X-103887Y46736D01*
X-104185Y46952D01*
X-104478Y47175D01*
X-104766Y47405D01*
X-105048Y47642D01*
X-105323Y47886D01*
X-105593Y48136D01*
X-105857Y48393D01*
X-106114Y48657D01*
X-106364Y48927D01*
X-106608Y49202D01*
X-106845Y49484D01*
X-107075Y49772D01*
X-107298Y50065D01*
X-107514Y50363D01*
X-107722Y50666D01*
X-107923Y50975D01*
X-108116Y51288D01*
X-108301Y51607D01*
X-108479Y51929D01*
X-108648Y52256D01*
X-108810Y52587D01*
X-108963Y52921D01*
X-109108Y53260D01*
X-109245Y53602D01*
X-109373Y53947D01*
X-109493Y54295D01*
X-109604Y54646D01*
X-109707Y54999D01*
X-109800Y55355D01*
X-109886Y55713D01*
X-109962Y56074D01*
X-110029Y56436D01*
X-110088Y56799D01*
X-110137Y57164D01*
X-110178Y57530D01*
X-110209Y57897D01*
X-110232Y58264D01*
X-110245Y58632D01*
X-110250Y59000D01*
X78250Y-30000D02*
X78255Y-29583D01*
X78270Y-29166D01*
X78296Y-28749D01*
X78332Y-28334D01*
X78378Y-27919D01*
X78434Y-27506D01*
X78500Y-27094D01*
X78577Y-26683D01*
X78663Y-26275D01*
X78759Y-25869D01*
X78866Y-25466D01*
X78982Y-25065D01*
X79108Y-24667D01*
X79244Y-24273D01*
X79389Y-23882D01*
X79544Y-23494D01*
X79708Y-23111D01*
X79882Y-22732D01*
X80065Y-22357D01*
X80257Y-21986D01*
X80459Y-21621D01*
X80669Y-21260D01*
X80887Y-20905D01*
X81115Y-20555D01*
X81351Y-20211D01*
X81595Y-19873D01*
X81848Y-19541D01*
X82109Y-19215D01*
X82377Y-18896D01*
X82654Y-18583D01*
X82938Y-18278D01*
X83229Y-17979D01*
X83528Y-17688D01*
X83833Y-17404D01*
X84146Y-17127D01*
X84465Y-16859D01*
X84791Y-16598D01*
X85123Y-16345D01*
X85461Y-16101D01*
X85805Y-15865D01*
X86155Y-15637D01*
X86510Y-15419D01*
X86871Y-15209D01*
X87236Y-15007D01*
X87607Y-14815D01*
X87982Y-14632D01*
X88361Y-14458D01*
X88744Y-14294D01*
X89132Y-14139D01*
X89523Y-13994D01*
X89917Y-13858D01*
X90315Y-13732D01*
X90716Y-13616D01*
X91119Y-13509D01*
X91525Y-13413D01*
X91933Y-13327D01*
X92344Y-13250D01*
X92756Y-13184D01*
X93169Y-13128D01*
X93584Y-13082D01*
X93999Y-13046D01*
X94416Y-13020D01*
X94833Y-13005D01*
X95250Y-13000D01*
X95667Y-13005D01*
X96084Y-13020D01*
X96501Y-13046D01*
X96916Y-13082D01*
X97331Y-13128D01*
X97744Y-13184D01*
X98156Y-13250D01*
X98567Y-13327D01*
X98975Y-13413D01*
X99381Y-13509D01*
X99784Y-13616D01*
X100185Y-13732D01*
X100583Y-13858D01*
X100977Y-13994D01*
X101368Y-14139D01*
X101756Y-14294D01*
X102139Y-14458D01*
X102518Y-14632D01*
X102893Y-14815D01*
X103264Y-15007D01*
X103629Y-15209D01*
X103990Y-15419D01*
X104345Y-15637D01*
X104695Y-15865D01*
X105039Y-16101D01*
X105377Y-16345D01*
X105709Y-16598D01*
X106035Y-16859D01*
X106354Y-17127D01*
X106667Y-17404D01*
X106972Y-17688D01*
X107271Y-17979D01*
X107562Y-18278D01*
X107846Y-18583D01*
X108123Y-18896D01*
X108391Y-19215D01*
X108652Y-19541D01*
X108905Y-19873D01*
X109149Y-20211D01*
X109385Y-20555D01*
X109613Y-20905D01*
X109831Y-21260D01*
X110041Y-21621D01*
X110243Y-21986D01*
X110435Y-22357D01*
X110618Y-22732D01*
X110792Y-23111D01*
X110956Y-23494D01*
X111111Y-23882D01*
X111256Y-24273D01*
X111392Y-24667D01*
X111518Y-25065D01*
X111634Y-25466D01*
X111741Y-25869D01*
X111837Y-26275D01*
X111923Y-26683D01*
X112000Y-27094D01*
X112066Y-27506D01*
X112122Y-27919D01*
X112168Y-28334D01*
X112204Y-28749D01*
X112230Y-29166D01*
X112245Y-29583D01*
X112250Y-30000D01*
X112245Y-30417D01*
X112230Y-30834D01*
X112204Y-31251D01*
X112168Y-31666D01*
X112122Y-32081D01*
X112066Y-32494D01*
X112000Y-32906D01*
X111923Y-33317D01*
X111837Y-33725D01*
X111741Y-34131D01*
X111634Y-34534D01*
X111518Y-34935D01*
X111392Y-35333D01*
X111256Y-35727D01*
X111111Y-36118D01*
X110956Y-36506D01*
X110792Y-36889D01*
X110618Y-37268D01*
X110435Y-37643D01*
X110243Y-38014D01*
X110041Y-38379D01*
X109831Y-38740D01*
X109613Y-39095D01*
X109385Y-39445D01*
X109149Y-39789D01*
X108905Y-40127D01*
X108652Y-40459D01*
X108391Y-40785D01*
X108123Y-41104D01*
X107846Y-41417D01*
X107562Y-41722D01*
X107271Y-42021D01*
X106972Y-42312D01*
X106667Y-42596D01*
X106354Y-42873D01*
X106035Y-43141D01*
X105709Y-43402D01*
X105377Y-43655D01*
X105039Y-43899D01*
X104695Y-44135D01*
X104345Y-44363D01*
X103990Y-44581D01*
X103629Y-44791D01*
X103264Y-44993D01*
X102893Y-45185D01*
X102518Y-45368D01*
X102139Y-45542D01*
X101756Y-45706D01*
X101368Y-45861D01*
X100977Y-46006D01*
X100583Y-46142D01*
X100185Y-46268D01*
X99784Y-46384D01*
X99381Y-46491D01*
X98975Y-46587D01*
X98567Y-46673D01*
X98156Y-46750D01*
X97744Y-46816D01*
X97331Y-46872D01*
X96916Y-46918D01*
X96501Y-46954D01*
X96084Y-46980D01*
X95667Y-46995D01*
X95250Y-47000D01*
X94833Y-46995D01*
X94416Y-46980D01*
X93999Y-46954D01*
X93584Y-46918D01*
X93169Y-46872D01*
X92756Y-46816D01*
X92344Y-46750D01*
X91933Y-46673D01*
X91525Y-46587D01*
X91119Y-46491D01*
X90716Y-46384D01*
X90315Y-46268D01*
X89917Y-46142D01*
X89523Y-46006D01*
X89132Y-45861D01*
X88744Y-45706D01*
X88361Y-45542D01*
X87982Y-45368D01*
X87607Y-45185D01*
X87236Y-44993D01*
X86871Y-44791D01*
X86510Y-44581D01*
X86155Y-44363D01*
X85805Y-44135D01*
X85461Y-43899D01*
X85123Y-43655D01*
X84791Y-43402D01*
X84465Y-43141D01*
X84146Y-42873D01*
X83833Y-42596D01*
X83528Y-42312D01*
X83229Y-42021D01*
X82938Y-41722D01*
X82654Y-41417D01*
X82377Y-41104D01*
X82109Y-40785D01*
X81848Y-40459D01*
X81595Y-40127D01*
X81351Y-39789D01*
X81115Y-39445D01*
X80887Y-39095D01*
X80669Y-38740D01*
X80459Y-38379D01*
X80257Y-38014D01*
X80065Y-37643D01*
X79882Y-37268D01*
X79708Y-36889D01*
X79544Y-36506D01*
X79389Y-36118D01*
X79244Y-35727D01*
X79108Y-35333D01*
X78982Y-34935D01*
X78866Y-34534D01*
X78759Y-34131D01*
X78663Y-33725D01*
X78577Y-33317D01*
X78500Y-32906D01*
X78434Y-32494D01*
X78378Y-32081D01*
X78332Y-31666D01*
X78296Y-31251D01*
X78270Y-30834D01*
X78255Y-30417D01*
X78250Y-30000D01*
X31750Y-30000D02*
X31753Y-29791D01*
X31760Y-29583D01*
X31773Y-29375D01*
X31791Y-29167D01*
X31814Y-28960D01*
X31842Y-28753D01*
X31875Y-28547D01*
X31913Y-28342D01*
X31957Y-28138D01*
X32005Y-27935D01*
X32058Y-27733D01*
X32116Y-27533D01*
X32179Y-27334D01*
X32247Y-27136D01*
X32320Y-26941D01*
X32397Y-26747D01*
X32479Y-26555D01*
X32566Y-26366D01*
X32658Y-26178D01*
X32754Y-25993D01*
X32854Y-25810D01*
X32959Y-25630D01*
X33069Y-25453D01*
X33183Y-25278D01*
X33301Y-25106D01*
X33423Y-24937D01*
X33549Y-24771D01*
X33679Y-24608D01*
X33814Y-24448D01*
X33952Y-24292D01*
X34094Y-24139D01*
X34240Y-23990D01*
X34389Y-23844D01*
X34542Y-23702D01*
X34698Y-23564D01*
X34858Y-23429D01*
X35021Y-23299D01*
X35187Y-23173D01*
X35356Y-23051D01*
X35528Y-22933D01*
X35703Y-22819D01*
X35880Y-22709D01*
X36060Y-22604D01*
X36243Y-22504D01*
X36428Y-22408D01*
X36616Y-22316D01*
X36805Y-22229D01*
X36997Y-22147D01*
X37191Y-22070D01*
X37386Y-21997D01*
X37584Y-21929D01*
X37783Y-21866D01*
X37983Y-21808D01*
X38185Y-21755D01*
X38388Y-21707D01*
X38592Y-21663D01*
X38797Y-21625D01*
X39003Y-21592D01*
X39210Y-21564D01*
X39417Y-21541D01*
X39625Y-21523D01*
X39833Y-21510D01*
X40041Y-21503D01*
X40250Y-21500D01*
X40459Y-21503D01*
X40667Y-21510D01*
X40875Y-21523D01*
X41083Y-21541D01*
X41290Y-21564D01*
X41497Y-21592D01*
X41703Y-21625D01*
X41908Y-21663D01*
X42112Y-21707D01*
X42315Y-21755D01*
X42517Y-21808D01*
X42717Y-21866D01*
X42916Y-21929D01*
X43114Y-21997D01*
X43309Y-22070D01*
X43503Y-22147D01*
X43695Y-22229D01*
X43884Y-22316D01*
X44072Y-22408D01*
X44257Y-22504D01*
X44440Y-22604D01*
X44620Y-22709D01*
X44797Y-22819D01*
X44972Y-22933D01*
X45144Y-23051D01*
X45313Y-23173D01*
X45479Y-23299D01*
X45642Y-23429D01*
X45802Y-23564D01*
X45958Y-23702D01*
X46111Y-23844D01*
X46260Y-23990D01*
X46406Y-24139D01*
X46548Y-24292D01*
X46686Y-24448D01*
X46821Y-24608D01*
X46951Y-24771D01*
X47077Y-24937D01*
X47199Y-25106D01*
X47317Y-25278D01*
X47431Y-25453D01*
X47541Y-25630D01*
X47646Y-25810D01*
X47746Y-25993D01*
X47842Y-26178D01*
X47934Y-26366D01*
X48021Y-26555D01*
X48103Y-26747D01*
X48180Y-26941D01*
X48253Y-27136D01*
X48321Y-27334D01*
X48384Y-27533D01*
X48442Y-27733D01*
X48495Y-27935D01*
X48543Y-28138D01*
X48587Y-28342D01*
X48625Y-28547D01*
X48658Y-28753D01*
X48686Y-28960D01*
X48709Y-29167D01*
X48727Y-29375D01*
X48740Y-29583D01*
X48747Y-29791D01*
X48750Y-30000D01*
X48747Y-30209D01*
X48740Y-30417D01*
X48727Y-30625D01*
X48709Y-30833D01*
X48686Y-31040D01*
X48658Y-31247D01*
X48625Y-31453D01*
X48587Y-31658D01*
X48543Y-31862D01*
X48495Y-32065D01*
X48442Y-32267D01*
X48384Y-32467D01*
X48321Y-32666D01*
X48253Y-32864D01*
X48180Y-33059D01*
X48103Y-33253D01*
X48021Y-33445D01*
X47934Y-33634D01*
X47842Y-33822D01*
X47746Y-34007D01*
X47646Y-34190D01*
X47541Y-34370D01*
X47431Y-34547D01*
X47317Y-34722D01*
X47199Y-34894D01*
X47077Y-35063D01*
X46951Y-35229D01*
X46821Y-35392D01*
X46686Y-35552D01*
X46548Y-35708D01*
X46406Y-35861D01*
X46260Y-36010D01*
X46111Y-36156D01*
X45958Y-36298D01*
X45802Y-36436D01*
X45642Y-36571D01*
X45479Y-36701D01*
X45313Y-36827D01*
X45144Y-36949D01*
X44972Y-37067D01*
X44797Y-37181D01*
X44620Y-37291D01*
X44440Y-37396D01*
X44257Y-37496D01*
X44072Y-37592D01*
X43884Y-37684D01*
X43695Y-37771D01*
X43503Y-37853D01*
X43309Y-37930D01*
X43114Y-38003D01*
X42916Y-38071D01*
X42717Y-38134D01*
X42517Y-38192D01*
X42315Y-38245D01*
X42112Y-38293D01*
X41908Y-38337D01*
X41703Y-38375D01*
X41497Y-38408D01*
X41290Y-38436D01*
X41083Y-38459D01*
X40875Y-38477D01*
X40667Y-38490D01*
X40459Y-38497D01*
X40250Y-38500D01*
X40041Y-38497D01*
X39833Y-38490D01*
X39625Y-38477D01*
X39417Y-38459D01*
X39210Y-38436D01*
X39003Y-38408D01*
X38797Y-38375D01*
X38592Y-38337D01*
X38388Y-38293D01*
X38185Y-38245D01*
X37983Y-38192D01*
X37783Y-38134D01*
X37584Y-38071D01*
X37386Y-38003D01*
X37191Y-37930D01*
X36997Y-37853D01*
X36805Y-37771D01*
X36616Y-37684D01*
X36428Y-37592D01*
X36243Y-37496D01*
X36060Y-37396D01*
X35880Y-37291D01*
X35703Y-37181D01*
X35528Y-37067D01*
X35356Y-36949D01*
X35187Y-36827D01*
X35021Y-36701D01*
X34858Y-36571D01*
X34698Y-36436D01*
X34542Y-36298D01*
X34389Y-36156D01*
X34240Y-36010D01*
X34094Y-35861D01*
X33952Y-35708D01*
X33814Y-35552D01*
X33679Y-35392D01*
X33549Y-35229D01*
X33423Y-35063D01*
X33301Y-34894D01*
X33183Y-34722D01*
X33069Y-34547D01*
X32959Y-34370D01*
X32854Y-34190D01*
X32754Y-34007D01*
X32658Y-33822D01*
X32566Y-33634D01*
X32479Y-33445D01*
X32397Y-33253D01*
X32320Y-33059D01*
X32247Y-32864D01*
X32179Y-32666D01*
X32116Y-32467D01*
X32058Y-32267D01*
X32005Y-32065D01*
X31957Y-31862D01*
X31913Y-31658D01*
X31875Y-31453D01*
X31842Y-31247D01*
X31814Y-31040D01*
X31791Y-30833D01*
X31773Y-30625D01*
X31760Y-30417D01*
X31753Y-30209D01*
X31750Y-30000D01*
X141750Y-30000D02*
X141753Y-29791D01*
X141760Y-29583D01*
X141773Y-29375D01*
X141791Y-29167D01*
X141814Y-28960D01*
X141842Y-28753D01*
X141875Y-28547D01*
X141913Y-28342D01*
X141957Y-28138D01*
X142005Y-27935D01*
X142058Y-27733D01*
X142116Y-27533D01*
X142179Y-27334D01*
X142247Y-27136D01*
X142320Y-26941D01*
X142397Y-26747D01*
X142479Y-26555D01*
X142566Y-26366D01*
X142658Y-26178D01*
X142754Y-25993D01*
X142854Y-25810D01*
X142959Y-25630D01*
X143069Y-25453D01*
X143183Y-25278D01*
X143301Y-25106D01*
X143423Y-24937D01*
X143549Y-24771D01*
X143679Y-24608D01*
X143814Y-24448D01*
X143952Y-24292D01*
X144094Y-24139D01*
X144240Y-23990D01*
X144389Y-23844D01*
X144542Y-23702D01*
X144698Y-23564D01*
X144858Y-23429D01*
X145021Y-23299D01*
X145187Y-23173D01*
X145356Y-23051D01*
X145528Y-22933D01*
X145703Y-22819D01*
X145880Y-22709D01*
X146060Y-22604D01*
X146243Y-22504D01*
X146428Y-22408D01*
X146616Y-22316D01*
X146805Y-22229D01*
X146997Y-22147D01*
X147191Y-22070D01*
X147386Y-21997D01*
X147584Y-21929D01*
X147783Y-21866D01*
X147983Y-21808D01*
X148185Y-21755D01*
X148388Y-21707D01*
X148592Y-21663D01*
X148797Y-21625D01*
X149003Y-21592D01*
X149210Y-21564D01*
X149417Y-21541D01*
X149625Y-21523D01*
X149833Y-21510D01*
X150041Y-21503D01*
X150250Y-21500D01*
X150459Y-21503D01*
X150667Y-21510D01*
X150875Y-21523D01*
X151083Y-21541D01*
X151290Y-21564D01*
X151497Y-21592D01*
X151703Y-21625D01*
X151908Y-21663D01*
X152112Y-21707D01*
X152315Y-21755D01*
X152517Y-21808D01*
X152717Y-21866D01*
X152916Y-21929D01*
X153114Y-21997D01*
X153309Y-22070D01*
X153503Y-22147D01*
X153695Y-22229D01*
X153884Y-22316D01*
X154072Y-22408D01*
X154257Y-22504D01*
X154440Y-22604D01*
X154620Y-22709D01*
X154797Y-22819D01*
X154972Y-22933D01*
X155144Y-23051D01*
X155313Y-23173D01*
X155479Y-23299D01*
X155642Y-23429D01*
X155802Y-23564D01*
X155958Y-23702D01*
X156111Y-23844D01*
X156260Y-23990D01*
X156406Y-24139D01*
X156548Y-24292D01*
X156686Y-24448D01*
X156821Y-24608D01*
X156951Y-24771D01*
X157077Y-24937D01*
X157199Y-25106D01*
X157317Y-25278D01*
X157431Y-25453D01*
X157541Y-25630D01*
X157646Y-25810D01*
X157746Y-25993D01*
X157842Y-26178D01*
X157934Y-26366D01*
X158021Y-26555D01*
X158103Y-26747D01*
X158180Y-26941D01*
X158253Y-27136D01*
X158321Y-27334D01*
X158384Y-27533D01*
X158442Y-27733D01*
X158495Y-27935D01*
X158543Y-28138D01*
X158587Y-28342D01*
X158625Y-28547D01*
X158658Y-28753D01*
X158686Y-28960D01*
X158709Y-29167D01*
X158727Y-29375D01*
X158740Y-29583D01*
X158747Y-29791D01*
X158750Y-30000D01*
X158747Y-30209D01*
X158740Y-30417D01*
X158727Y-30625D01*
X158709Y-30833D01*
X158686Y-31040D01*
X158658Y-31247D01*
X158625Y-31453D01*
X158587Y-31658D01*
X158543Y-31862D01*
X158495Y-32065D01*
X158442Y-32267D01*
X158384Y-32467D01*
X158321Y-32666D01*
X158253Y-32864D01*
X158180Y-33059D01*
X158103Y-33253D01*
X158021Y-33445D01*
X157934Y-33634D01*
X157842Y-33822D01*
X157746Y-34007D01*
X157646Y-34190D01*
X157541Y-34370D01*
X157431Y-34547D01*
X157317Y-34722D01*
X157199Y-34894D01*
X157077Y-35063D01*
X156951Y-35229D01*
X156821Y-35392D01*
X156686Y-35552D01*
X156548Y-35708D01*
X156406Y-35861D01*
X156260Y-36010D01*
X156111Y-36156D01*
X155958Y-36298D01*
X155802Y-36436D01*
X155642Y-36571D01*
X155479Y-36701D01*
X155313Y-36827D01*
X155144Y-36949D01*
X154972Y-37067D01*
X154797Y-37181D01*
X154620Y-37291D01*
X154440Y-37396D01*
X154257Y-37496D01*
X154072Y-37592D01*
X153884Y-37684D01*
X153695Y-37771D01*
X153503Y-37853D01*
X153309Y-37930D01*
X153114Y-38003D01*
X152916Y-38071D01*
X152717Y-38134D01*
X152517Y-38192D01*
X152315Y-38245D01*
X152112Y-38293D01*
X151908Y-38337D01*
X151703Y-38375D01*
X151497Y-38408D01*
X151290Y-38436D01*
X151083Y-38459D01*
X150875Y-38477D01*
X150667Y-38490D01*
X150459Y-38497D01*
X150250Y-38500D01*
X150041Y-38497D01*
X149833Y-38490D01*
X149625Y-38477D01*
X149417Y-38459D01*
X149210Y-38436D01*
X149003Y-38408D01*
X148797Y-38375D01*
X148592Y-38337D01*
X148388Y-38293D01*
X148185Y-38245D01*
X147983Y-38192D01*
X147783Y-38134D01*
X147584Y-38071D01*
X147386Y-38003D01*
X147191Y-37930D01*
X146997Y-37853D01*
X146805Y-37771D01*
X146616Y-37684D01*
X146428Y-37592D01*
X146243Y-37496D01*
X146060Y-37396D01*
X145880Y-37291D01*
X145703Y-37181D01*
X145528Y-37067D01*
X145356Y-36949D01*
X145187Y-36827D01*
X145021Y-36701D01*
X144858Y-36571D01*
X144698Y-36436D01*
X144542Y-36298D01*
X144389Y-36156D01*
X144240Y-36010D01*
X144094Y-35861D01*
X143952Y-35708D01*
X143814Y-35552D01*
X143679Y-35392D01*
X143549Y-35229D01*
X143423Y-35063D01*
X143301Y-34894D01*
X143183Y-34722D01*
X143069Y-34547D01*
X142959Y-34370D01*
X142854Y-34190D01*
X142754Y-34007D01*
X142658Y-33822D01*
X142566Y-33634D01*
X142479Y-33445D01*
X142397Y-33253D01*
X142320Y-33059D01*
X142247Y-32864D01*
X142179Y-32666D01*
X142116Y-32467D01*
X142058Y-32267D01*
X142005Y-32065D01*
X141957Y-31862D01*
X141913Y-31658D01*
X141875Y-31453D01*
X141842Y-31247D01*
X141814Y-31040D01*
X141791Y-30833D01*
X141773Y-30625D01*
X141760Y-30417D01*
X141753Y-30209D01*
X141750Y-30000D01*
X130250Y7000D02*
X130255Y7368D01*
X130268Y7736D01*
X130291Y8103D01*
X130322Y8470D01*
X130363Y8836D01*
X130412Y9201D01*
X130471Y9564D01*
X130538Y9926D01*
X130614Y10287D01*
X130700Y10645D01*
X130793Y11001D01*
X130896Y11354D01*
X131007Y11705D01*
X131127Y12053D01*
X131255Y12398D01*
X131392Y12740D01*
X131537Y13079D01*
X131690Y13413D01*
X131852Y13744D01*
X132021Y14071D01*
X132199Y14393D01*
X132384Y14712D01*
X132577Y15025D01*
X132778Y15334D01*
X132986Y15637D01*
X133202Y15935D01*
X133425Y16228D01*
X133655Y16516D01*
X133892Y16798D01*
X134136Y17073D01*
X134386Y17343D01*
X134643Y17607D01*
X134907Y17864D01*
X135177Y18114D01*
X135452Y18358D01*
X135734Y18595D01*
X136022Y18825D01*
X136315Y19048D01*
X136613Y19264D01*
X136916Y19472D01*
X137225Y19673D01*
X137538Y19866D01*
X137857Y20051D01*
X138179Y20229D01*
X138506Y20398D01*
X138837Y20560D01*
X139171Y20713D01*
X139510Y20858D01*
X139852Y20995D01*
X140197Y21123D01*
X140545Y21243D01*
X140896Y21354D01*
X141249Y21457D01*
X141605Y21550D01*
X141963Y21636D01*
X142324Y21712D01*
X142686Y21779D01*
X143049Y21838D01*
X143414Y21887D01*
X143780Y21928D01*
X144147Y21959D01*
X144514Y21982D01*
X144882Y21995D01*
X145250Y22000D01*
X145618Y21995D01*
X145986Y21982D01*
X146353Y21959D01*
X146720Y21928D01*
X147086Y21887D01*
X147451Y21838D01*
X147814Y21779D01*
X148176Y21712D01*
X148537Y21636D01*
X148895Y21550D01*
X149251Y21457D01*
X149604Y21354D01*
X149955Y21243D01*
X150303Y21123D01*
X150648Y20995D01*
X150990Y20858D01*
X151329Y20713D01*
X151663Y20560D01*
X151994Y20398D01*
X152321Y20229D01*
X152643Y20051D01*
X152962Y19866D01*
X153275Y19673D01*
X153584Y19472D01*
X153887Y19264D01*
X154185Y19048D01*
X154478Y18825D01*
X154766Y18595D01*
X155048Y18358D01*
X155323Y18114D01*
X155593Y17864D01*
X155857Y17607D01*
X156114Y17343D01*
X156364Y17073D01*
X156608Y16798D01*
X156845Y16516D01*
X157075Y16228D01*
X157298Y15935D01*
X157514Y15637D01*
X157722Y15334D01*
X157923Y15025D01*
X158116Y14712D01*
X158301Y14393D01*
X158479Y14071D01*
X158648Y13744D01*
X158810Y13413D01*
X158963Y13079D01*
X159108Y12740D01*
X159245Y12398D01*
X159373Y12053D01*
X159493Y11705D01*
X159604Y11354D01*
X159707Y11001D01*
X159800Y10645D01*
X159886Y10287D01*
X159962Y9926D01*
X160029Y9564D01*
X160088Y9201D01*
X160137Y8836D01*
X160178Y8470D01*
X160209Y8103D01*
X160232Y7736D01*
X160245Y7368D01*
X160250Y7000D01*
X160245Y6632D01*
X160232Y6264D01*
X160209Y5897D01*
X160178Y5530D01*
X160137Y5164D01*
X160088Y4799D01*
X160029Y4436D01*
X159962Y4074D01*
X159886Y3713D01*
X159800Y3355D01*
X159707Y2999D01*
X159604Y2646D01*
X159493Y2295D01*
X159373Y1947D01*
X159245Y1602D01*
X159108Y1260D01*
X158963Y921D01*
X158810Y587D01*
X158648Y256D01*
X158479Y-71D01*
X158301Y-393D01*
X158116Y-712D01*
X157923Y-1025D01*
X157722Y-1334D01*
X157514Y-1637D01*
X157298Y-1935D01*
X157075Y-2228D01*
X156845Y-2516D01*
X156608Y-2798D01*
X156364Y-3073D01*
X156114Y-3343D01*
X155857Y-3607D01*
X155593Y-3864D01*
X155323Y-4114D01*
X155048Y-4358D01*
X154766Y-4595D01*
X154478Y-4825D01*
X154185Y-5048D01*
X153887Y-5264D01*
X153584Y-5472D01*
X153275Y-5673D01*
X152962Y-5866D01*
X152643Y-6051D01*
X152321Y-6229D01*
X151994Y-6398D01*
X151663Y-6560D01*
X151329Y-6713D01*
X150990Y-6858D01*
X150648Y-6995D01*
X150303Y-7123D01*
X149955Y-7243D01*
X149604Y-7354D01*
X149251Y-7457D01*
X148895Y-7550D01*
X148537Y-7636D01*
X148176Y-7712D01*
X147814Y-7779D01*
X147451Y-7838D01*
X147086Y-7887D01*
X146720Y-7928D01*
X146353Y-7959D01*
X145986Y-7982D01*
X145618Y-7995D01*
X145250Y-8000D01*
X144882Y-7995D01*
X144514Y-7982D01*
X144147Y-7959D01*
X143780Y-7928D01*
X143414Y-7887D01*
X143049Y-7838D01*
X142686Y-7779D01*
X142324Y-7712D01*
X141963Y-7636D01*
X141605Y-7550D01*
X141249Y-7457D01*
X140896Y-7354D01*
X140545Y-7243D01*
X140197Y-7123D01*
X139852Y-6995D01*
X139510Y-6858D01*
X139171Y-6713D01*
X138837Y-6560D01*
X138506Y-6398D01*
X138179Y-6229D01*
X137857Y-6051D01*
X137538Y-5866D01*
X137225Y-5673D01*
X136916Y-5472D01*
X136613Y-5264D01*
X136315Y-5048D01*
X136022Y-4825D01*
X135734Y-4595D01*
X135452Y-4358D01*
X135177Y-4114D01*
X134907Y-3864D01*
X134643Y-3607D01*
X134386Y-3343D01*
X134136Y-3073D01*
X133892Y-2798D01*
X133655Y-2516D01*
X133425Y-2228D01*
X133202Y-1935D01*
X132986Y-1637D01*
X132778Y-1334D01*
X132577Y-1025D01*
X132384Y-712D01*
X132199Y-393D01*
X132021Y-71D01*
X131852Y256D01*
X131690Y587D01*
X131537Y921D01*
X131392Y1260D01*
X131255Y1602D01*
X131127Y1947D01*
X131007Y2295D01*
X130896Y2646D01*
X130793Y2999D01*
X130700Y3355D01*
X130614Y3713D01*
X130538Y4074D01*
X130471Y4436D01*
X130412Y4799D01*
X130363Y5164D01*
X130322Y5530D01*
X130291Y5897D01*
X130268Y6264D01*
X130255Y6632D01*
X130250Y7000D01*
X80250Y29000D02*
X80255Y29368D01*
X80268Y29736D01*
X80291Y30103D01*
X80322Y30470D01*
X80363Y30836D01*
X80412Y31201D01*
X80471Y31564D01*
X80538Y31926D01*
X80614Y32287D01*
X80700Y32645D01*
X80793Y33001D01*
X80896Y33354D01*
X81007Y33705D01*
X81127Y34053D01*
X81255Y34398D01*
X81392Y34740D01*
X81537Y35079D01*
X81690Y35413D01*
X81852Y35744D01*
X82021Y36071D01*
X82199Y36393D01*
X82384Y36712D01*
X82577Y37025D01*
X82778Y37334D01*
X82986Y37637D01*
X83202Y37935D01*
X83425Y38228D01*
X83655Y38516D01*
X83892Y38798D01*
X84136Y39073D01*
X84386Y39343D01*
X84643Y39607D01*
X84907Y39864D01*
X85177Y40114D01*
X85452Y40358D01*
X85734Y40595D01*
X86022Y40825D01*
X86315Y41048D01*
X86613Y41264D01*
X86916Y41472D01*
X87225Y41673D01*
X87538Y41866D01*
X87857Y42051D01*
X88179Y42229D01*
X88506Y42398D01*
X88837Y42560D01*
X89171Y42713D01*
X89510Y42858D01*
X89852Y42995D01*
X90197Y43123D01*
X90545Y43243D01*
X90896Y43354D01*
X91249Y43457D01*
X91605Y43550D01*
X91963Y43636D01*
X92324Y43712D01*
X92686Y43779D01*
X93049Y43838D01*
X93414Y43887D01*
X93780Y43928D01*
X94147Y43959D01*
X94514Y43982D01*
X94882Y43995D01*
X95250Y44000D01*
X95618Y43995D01*
X95986Y43982D01*
X96353Y43959D01*
X96720Y43928D01*
X97086Y43887D01*
X97451Y43838D01*
X97814Y43779D01*
X98176Y43712D01*
X98537Y43636D01*
X98895Y43550D01*
X99251Y43457D01*
X99604Y43354D01*
X99955Y43243D01*
X100303Y43123D01*
X100648Y42995D01*
X100990Y42858D01*
X101329Y42713D01*
X101663Y42560D01*
X101994Y42398D01*
X102321Y42229D01*
X102643Y42051D01*
X102962Y41866D01*
X103275Y41673D01*
X103584Y41472D01*
X103887Y41264D01*
X104185Y41048D01*
X104478Y40825D01*
X104766Y40595D01*
X105048Y40358D01*
X105323Y40114D01*
X105593Y39864D01*
X105857Y39607D01*
X106114Y39343D01*
X106364Y39073D01*
X106608Y38798D01*
X106845Y38516D01*
X107075Y38228D01*
X107298Y37935D01*
X107514Y37637D01*
X107722Y37334D01*
X107923Y37025D01*
X108116Y36712D01*
X108301Y36393D01*
X108479Y36071D01*
X108648Y35744D01*
X108810Y35413D01*
X108963Y35079D01*
X109108Y34740D01*
X109245Y34398D01*
X109373Y34053D01*
X109493Y33705D01*
X109604Y33354D01*
X109707Y33001D01*
X109800Y32645D01*
X109886Y32287D01*
X109962Y31926D01*
X110029Y31564D01*
X110088Y31201D01*
X110137Y30836D01*
X110178Y30470D01*
X110209Y30103D01*
X110232Y29736D01*
X110245Y29368D01*
X110250Y29000D01*
X110245Y28632D01*
X110232Y28264D01*
X110209Y27897D01*
X110178Y27530D01*
X110137Y27164D01*
X110088Y26799D01*
X110029Y26436D01*
X109962Y26074D01*
X109886Y25713D01*
X109800Y25355D01*
X109707Y24999D01*
X109604Y24646D01*
X109493Y24295D01*
X109373Y23947D01*
X109245Y23602D01*
X109108Y23260D01*
X108963Y22921D01*
X108810Y22587D01*
X108648Y22256D01*
X108479Y21929D01*
X108301Y21607D01*
X108116Y21288D01*
X107923Y20975D01*
X107722Y20666D01*
X107514Y20363D01*
X107298Y20065D01*
X107075Y19772D01*
X106845Y19484D01*
X106608Y19202D01*
X106364Y18927D01*
X106114Y18657D01*
X105857Y18393D01*
X105593Y18136D01*
X105323Y17886D01*
X105048Y17642D01*
X104766Y17405D01*
X104478Y17175D01*
X104185Y16952D01*
X103887Y16736D01*
X103584Y16528D01*
X103275Y16327D01*
X102962Y16134D01*
X102643Y15949D01*
X102321Y15771D01*
X101994Y15602D01*
X101663Y15440D01*
X101329Y15287D01*
X100990Y15142D01*
X100648Y15005D01*
X100303Y14877D01*
X99955Y14757D01*
X99604Y14646D01*
X99251Y14543D01*
X98895Y14450D01*
X98537Y14364D01*
X98176Y14288D01*
X97814Y14221D01*
X97451Y14162D01*
X97086Y14113D01*
X96720Y14072D01*
X96353Y14041D01*
X95986Y14018D01*
X95618Y14005D01*
X95250Y14000D01*
X94882Y14005D01*
X94514Y14018D01*
X94147Y14041D01*
X93780Y14072D01*
X93414Y14113D01*
X93049Y14162D01*
X92686Y14221D01*
X92324Y14288D01*
X91963Y14364D01*
X91605Y14450D01*
X91249Y14543D01*
X90896Y14646D01*
X90545Y14757D01*
X90197Y14877D01*
X89852Y15005D01*
X89510Y15142D01*
X89171Y15287D01*
X88837Y15440D01*
X88506Y15602D01*
X88179Y15771D01*
X87857Y15949D01*
X87538Y16134D01*
X87225Y16327D01*
X86916Y16528D01*
X86613Y16736D01*
X86315Y16952D01*
X86022Y17175D01*
X85734Y17405D01*
X85452Y17642D01*
X85177Y17886D01*
X84907Y18136D01*
X84643Y18393D01*
X84386Y18657D01*
X84136Y18927D01*
X83892Y19202D01*
X83655Y19484D01*
X83425Y19772D01*
X83202Y20065D01*
X82986Y20363D01*
X82778Y20666D01*
X82577Y20975D01*
X82384Y21288D01*
X82199Y21607D01*
X82021Y21929D01*
X81852Y22256D01*
X81690Y22587D01*
X81537Y22921D01*
X81392Y23260D01*
X81255Y23602D01*
X81127Y23947D01*
X81007Y24295D01*
X80896Y24646D01*
X80793Y24999D01*
X80700Y25355D01*
X80614Y25713D01*
X80538Y26074D01*
X80471Y26436D01*
X80412Y26799D01*
X80363Y27164D01*
X80322Y27530D01*
X80291Y27897D01*
X80268Y28264D01*
X80255Y28632D01*
X80250Y29000D01*
D11*
X-190500Y-125250D02*
X-190310Y-129608D01*
X-189740Y-133932D01*
X-188796Y-138191D01*
X-187485Y-142351D01*
X-185815Y-146381D01*
X-183801Y-150250D01*
X-181458Y-153929D01*
X-178802Y-157389D01*
X-175855Y-160605D01*
X-172639Y-163552D01*
X-169179Y-166208D01*
X-165500Y-168551D01*
X-161631Y-170565D01*
X-157601Y-172235D01*
X-153441Y-173546D01*
X-149182Y-174490D01*
X-144858Y-175060D01*
X-140500Y-175250D01*
X140500Y-175250D01*
X144858Y-175060D01*
X149182Y-174490D01*
X153441Y-173546D01*
X157601Y-172235D01*
X161631Y-170565D01*
X165500Y-168551D01*
X169179Y-166208D01*
X172639Y-163552D01*
X175855Y-160605D01*
X178802Y-157389D01*
X181458Y-153929D01*
X183801Y-150250D01*
X185815Y-146381D01*
X187485Y-142351D01*
X188796Y-138191D01*
X189740Y-133932D01*
X190310Y-129608D01*
X190500Y-125250D01*
X190500Y45250D01*
X190310Y49608D01*
X189740Y53932D01*
X188796Y58191D01*
X187485Y62351D01*
X185815Y66381D01*
X183801Y70250D01*
X181458Y73929D01*
X178802Y77389D01*
X175855Y80605D01*
X172639Y83552D01*
X169179Y86208D01*
X165500Y88551D01*
X161631Y90565D01*
X157601Y92235D01*
X153441Y93546D01*
X149182Y94490D01*
X144858Y95060D01*
X140500Y95250D01*
X-140500Y95250D01*
X-144858Y95060D01*
X-149182Y94490D01*
X-153441Y93546D01*
X-157601Y92235D01*
X-161631Y90565D01*
X-165500Y88551D01*
X-169179Y86208D01*
X-172639Y83552D01*
X-175855Y80605D01*
X-178802Y77389D01*
X-181458Y73929D01*
X-183801Y70250D01*
X-185815Y66381D01*
X-187485Y62351D01*
X-188796Y58191D01*
X-189740Y53932D01*
X-190310Y49608D01*
X-190500Y45250D01*
X-190500Y-125250D01*
X78250Y-92000D02*
X112250Y-92000D01*
X112250Y-62000D01*
X78250Y-62000D01*
X78250Y-92000D01*
X-112250Y-62000D02*
X-78250Y-62000D01*
X-78250Y-32000D01*
X-112250Y-32000D01*
X-112250Y-62000D01*
M02*
