M48
;GenerationSoftware,Autodesk,EAGLE,9.7.0*%
;CreationDate,2025-09-15T20:36:34Z*%
FMAT,2
ICI,OFF
METRIC,TZ,000.000
T6C0.350
T5C0.800
T4C1.700
T3C2.200
T2C3.000
T1C3.400
%
G90
M71
T1
X-9525Y0
X9525Y-3000
T2
X-4525Y3700
X-9525Y5900
X14525Y700
X9525Y2900
T3
X-14050Y-12525
X14050Y-12525
T4
X-15025Y0
X-4025Y0
X4025Y-3000
X15025Y-3000
T5
X-7620Y-11090
X-5620Y-11090
X-3620Y-11090
X-1620Y-11090
X380Y-11090
X2380Y-11090
T6
X1880Y-540
X210Y-3290
X9240Y-10050
X1190Y-5100
X-5210Y-4740
X-2390Y-4740
X-11780Y-6920
X6710Y-9770
X3240Y-7140
X15880Y-15190
X-15550Y-15190
X-17180Y3250
X13510Y4600
X1900Y-2420
M30