M48
;GenerationSoftware,Autodesk,EAGLE,9.7.0*%
;CreationDate,2025-02-19T19:35:34Z*%
FMAT,2
ICI,OFF
METRIC,TZ,000.000
T6C0.350
T5C0.800
T4C1.700
T3C2.200
T2C3.000
T1C3.400
%
G90
M71
T1
X-9525Y0
X9525Y-3000
T2
X-4525Y3700
X-9525Y5900
X14525Y700
X9525Y2900
T3
X14050Y-12525
X-14050Y-12525
X6000Y7000
T4
X-15025Y0
X-4025Y0
X4025Y-3000
X15025Y-3000
T5
X-8000Y-14360
X-6000Y-14360
X-4000Y-14360
X-2000Y-14360
X0Y-14360
X2000Y-14360
T6
X-17070Y-12330
X17130Y-14920
X13520Y8120
X-17220Y4410
X-6210Y-1710
X6340Y-1510
X4860Y4930
X580Y5570
X8210Y-11388
X15650Y-14340
X-10980Y-11020
X11040Y-10910
M30