G04 EAGLE Gerber RS-274X export*
G75*
%MOMM*%
%FSLAX34Y34*%
%LPD*%
%INTop Copper*%
%IPPOS*%
%AMOC8*
5,1,8,0,0,1.08239X$1,22.5*%
G01*
G04 Define Apertures*
%ADD10C,1.440000*%
%ADD11R,1.050000X0.650000*%
%ADD12R,1.440000X1.440000*%
%ADD13R,1.440000X1.440000*%
%ADD14C,1.108000*%
%ADD15C,1.300000*%
%ADD16R,1.800000X1.800000*%
%ADD17C,1.800000*%
%ADD18C,0.502400*%
%ADD19C,0.254000*%
%ADD20C,0.152400*%
%ADD21C,0.127000*%
G36*
X116150Y-197984D02*
X115996Y-198000D01*
X-200000Y-198000D01*
X-200149Y-197985D01*
X-204392Y-197141D01*
X-204756Y-196958D01*
X-204935Y-196713D01*
X-205005Y-196418D01*
X-204954Y-196119D01*
X-204790Y-195864D01*
X-204540Y-195692D01*
X-204243Y-195632D01*
X-80158Y-195632D01*
X-71832Y-187305D01*
X-71590Y-187142D01*
X-71293Y-187082D01*
X-69133Y-187082D01*
X-66918Y-184867D01*
X-66918Y-181733D01*
X-69133Y-179518D01*
X-72267Y-179518D01*
X-74482Y-181733D01*
X-74482Y-183893D01*
X-74538Y-184179D01*
X-74705Y-184432D01*
X-81619Y-191345D01*
X-81860Y-191508D01*
X-82157Y-191568D01*
X-205543Y-191568D01*
X-205829Y-191512D01*
X-206082Y-191345D01*
X-211445Y-185982D01*
X-211608Y-185740D01*
X-211668Y-185443D01*
X-211668Y-158645D01*
X-211621Y-158382D01*
X-211462Y-158124D01*
X-211214Y-157949D01*
X-210918Y-157883D01*
X-210620Y-157939D01*
X-210367Y-158107D01*
X-202342Y-166132D01*
X-77058Y-166132D01*
X-65668Y-154742D01*
X-65668Y-142432D01*
X-65612Y-142146D01*
X-65445Y-141893D01*
X-63918Y-140367D01*
X-63918Y-137233D01*
X-66133Y-135018D01*
X-69267Y-135018D01*
X-71482Y-137233D01*
X-71482Y-140367D01*
X-69955Y-141893D01*
X-69792Y-142135D01*
X-69732Y-142432D01*
X-69732Y-152743D01*
X-69788Y-153029D01*
X-69955Y-153282D01*
X-78519Y-161845D01*
X-78760Y-162008D01*
X-79057Y-162068D01*
X-200343Y-162068D01*
X-200629Y-162012D01*
X-200882Y-161845D01*
X-208651Y-154076D01*
X-208814Y-153834D01*
X-208874Y-153537D01*
X-208874Y-142944D01*
X-208827Y-142681D01*
X-208668Y-142423D01*
X-208420Y-142247D01*
X-208124Y-142182D01*
X-207826Y-142238D01*
X-207573Y-142405D01*
X-205298Y-144681D01*
X-202185Y-145970D01*
X-198815Y-145970D01*
X-195702Y-144681D01*
X-193320Y-142298D01*
X-192030Y-139185D01*
X-192030Y-135815D01*
X-192770Y-134028D01*
X-192828Y-133748D01*
X-192773Y-133450D01*
X-192605Y-133197D01*
X-171071Y-111663D01*
X-170830Y-111500D01*
X-170532Y-111440D01*
X52152Y-111440D01*
X85740Y-77852D01*
X85740Y-32248D01*
X65552Y-12060D01*
X61472Y-12060D01*
X61208Y-12013D01*
X60950Y-11854D01*
X60775Y-11606D01*
X60710Y-11310D01*
X60765Y-11012D01*
X60933Y-10759D01*
X62029Y-9663D01*
X62271Y-9500D01*
X62568Y-9440D01*
X102852Y-9440D01*
X108887Y-3405D01*
X109129Y-3242D01*
X109426Y-3182D01*
X110867Y-3182D01*
X113082Y-967D01*
X113082Y2167D01*
X110867Y4382D01*
X107733Y4382D01*
X105518Y2167D01*
X105518Y726D01*
X105462Y440D01*
X105295Y187D01*
X100971Y-4137D01*
X100730Y-4300D01*
X100432Y-4360D01*
X60148Y-4360D01*
X57267Y-7241D01*
X57031Y-7401D01*
X56734Y-7464D01*
X56437Y-7406D01*
X55046Y-6830D01*
X51954Y-6830D01*
X49099Y-8013D01*
X46913Y-10199D01*
X46551Y-11072D01*
X46411Y-11293D01*
X46166Y-11473D01*
X45871Y-11542D01*
X45572Y-11492D01*
X45317Y-11328D01*
X45145Y-11078D01*
X45085Y-10781D01*
X45085Y-619D01*
X45130Y-362D01*
X45287Y-102D01*
X45533Y75D01*
X45829Y143D01*
X46127Y89D01*
X46382Y-76D01*
X46551Y-328D01*
X46913Y-1201D01*
X49099Y-3387D01*
X51954Y-4570D01*
X55046Y-4570D01*
X57901Y-3387D01*
X60087Y-1201D01*
X61270Y1654D01*
X61270Y4746D01*
X60483Y6645D01*
X60426Y6924D01*
X60481Y7222D01*
X60649Y7475D01*
X67882Y14708D01*
X67882Y74218D01*
X67938Y74504D01*
X68105Y74757D01*
X69632Y76283D01*
X69632Y79417D01*
X67417Y81632D01*
X64283Y81632D01*
X62068Y79417D01*
X62068Y76283D01*
X63595Y74757D01*
X63758Y74515D01*
X63818Y74218D01*
X63818Y16707D01*
X63762Y16421D01*
X63595Y16169D01*
X57775Y10349D01*
X57539Y10188D01*
X57242Y10125D01*
X56945Y10183D01*
X55046Y10970D01*
X51954Y10970D01*
X49099Y9787D01*
X46913Y7601D01*
X46551Y6728D01*
X46411Y6507D01*
X46166Y6327D01*
X45871Y6258D01*
X45572Y6308D01*
X45317Y6472D01*
X45145Y6722D01*
X45085Y7019D01*
X45085Y17181D01*
X45130Y17438D01*
X45287Y17698D01*
X45533Y17875D01*
X45829Y17943D01*
X46127Y17889D01*
X46382Y17724D01*
X46551Y17472D01*
X46913Y16599D01*
X49099Y14413D01*
X51954Y13230D01*
X55046Y13230D01*
X57901Y14413D01*
X60087Y16599D01*
X61270Y19454D01*
X61270Y22546D01*
X60087Y25401D01*
X57901Y27587D01*
X55046Y28770D01*
X51954Y28770D01*
X49099Y27587D01*
X46913Y25401D01*
X46551Y24528D01*
X46411Y24307D01*
X46166Y24127D01*
X45871Y24058D01*
X45572Y24108D01*
X45317Y24272D01*
X45145Y24522D01*
X45085Y24819D01*
X45085Y34981D01*
X45130Y35238D01*
X45287Y35498D01*
X45533Y35675D01*
X45829Y35743D01*
X46127Y35689D01*
X46382Y35524D01*
X46551Y35272D01*
X46913Y34399D01*
X49099Y32213D01*
X51954Y31030D01*
X55046Y31030D01*
X57901Y32213D01*
X60087Y34399D01*
X61270Y37254D01*
X61270Y40346D01*
X60087Y43201D01*
X57901Y45387D01*
X55046Y46570D01*
X51954Y46570D01*
X49099Y45387D01*
X46913Y43201D01*
X46551Y42328D01*
X46411Y42107D01*
X46166Y41927D01*
X45871Y41858D01*
X45572Y41908D01*
X45317Y42072D01*
X45145Y42322D01*
X45085Y42619D01*
X45085Y52781D01*
X45130Y53038D01*
X45287Y53298D01*
X45533Y53475D01*
X45829Y53543D01*
X46127Y53489D01*
X46382Y53324D01*
X46551Y53072D01*
X46913Y52199D01*
X49099Y50013D01*
X51954Y48830D01*
X55046Y48830D01*
X57901Y50013D01*
X60087Y52199D01*
X61270Y55054D01*
X61270Y58146D01*
X60087Y61001D01*
X57901Y63187D01*
X55046Y64370D01*
X51954Y64370D01*
X49099Y63187D01*
X46913Y61001D01*
X46551Y60128D01*
X46411Y59907D01*
X46166Y59727D01*
X45871Y59658D01*
X45572Y59708D01*
X45317Y59872D01*
X45145Y60122D01*
X45085Y60419D01*
X45085Y82498D01*
X45076Y82553D01*
X45073Y82554D01*
X45033Y82560D01*
X44450Y82560D01*
X44175Y82611D01*
X44133Y82638D01*
X-44127Y82638D01*
X-44153Y82620D01*
X-44450Y82560D01*
X-45023Y82560D01*
X-45078Y82551D01*
X-45079Y82548D01*
X-45085Y82508D01*
X-45085Y51519D01*
X-45130Y51262D01*
X-45287Y51002D01*
X-45533Y50825D01*
X-45829Y50757D01*
X-46127Y50811D01*
X-46382Y50976D01*
X-46551Y51228D01*
X-46913Y52101D01*
X-49099Y54287D01*
X-51954Y55470D01*
X-55046Y55470D01*
X-57901Y54287D01*
X-60087Y52101D01*
X-61270Y49246D01*
X-61270Y46154D01*
X-60087Y43299D01*
X-57901Y41113D01*
X-55046Y39930D01*
X-51954Y39930D01*
X-49099Y41113D01*
X-46913Y43299D01*
X-46551Y44172D01*
X-46411Y44393D01*
X-46166Y44573D01*
X-45871Y44642D01*
X-45572Y44592D01*
X-45317Y44428D01*
X-45145Y44178D01*
X-45085Y43881D01*
X-45085Y33719D01*
X-45130Y33462D01*
X-45287Y33202D01*
X-45533Y33025D01*
X-45829Y32957D01*
X-46127Y33011D01*
X-46382Y33176D01*
X-46551Y33428D01*
X-46913Y34301D01*
X-49099Y36487D01*
X-51954Y37670D01*
X-55046Y37670D01*
X-57901Y36487D01*
X-60087Y34301D01*
X-61270Y31446D01*
X-61270Y28354D01*
X-60087Y25499D01*
X-57901Y23313D01*
X-55046Y22130D01*
X-51954Y22130D01*
X-49099Y23313D01*
X-46913Y25499D01*
X-46551Y26372D01*
X-46411Y26593D01*
X-46166Y26773D01*
X-45871Y26842D01*
X-45572Y26792D01*
X-45317Y26628D01*
X-45145Y26378D01*
X-45085Y26081D01*
X-45085Y15919D01*
X-45130Y15662D01*
X-45287Y15402D01*
X-45533Y15225D01*
X-45829Y15157D01*
X-46127Y15211D01*
X-46382Y15376D01*
X-46551Y15628D01*
X-46913Y16501D01*
X-49099Y18687D01*
X-51954Y19870D01*
X-55046Y19870D01*
X-57901Y18687D01*
X-60087Y16501D01*
X-61270Y13646D01*
X-61270Y10554D01*
X-60087Y7699D01*
X-57901Y5513D01*
X-55046Y4330D01*
X-51954Y4330D01*
X-49099Y5513D01*
X-46913Y7699D01*
X-46551Y8572D01*
X-46411Y8793D01*
X-46166Y8973D01*
X-45871Y9042D01*
X-45572Y8992D01*
X-45317Y8828D01*
X-45145Y8578D01*
X-45085Y8281D01*
X-45085Y-1881D01*
X-45130Y-2138D01*
X-45287Y-2398D01*
X-45533Y-2575D01*
X-45829Y-2643D01*
X-46127Y-2589D01*
X-46382Y-2424D01*
X-46551Y-2172D01*
X-46913Y-1299D01*
X-49099Y887D01*
X-51954Y2070D01*
X-55046Y2070D01*
X-57901Y887D01*
X-60087Y-1299D01*
X-60874Y-3198D01*
X-61030Y-3436D01*
X-61280Y-3608D01*
X-61578Y-3668D01*
X-100543Y-3668D01*
X-100829Y-3612D01*
X-101082Y-3445D01*
X-107045Y2519D01*
X-107208Y2760D01*
X-107268Y3057D01*
X-107268Y92643D01*
X-107212Y92929D01*
X-107045Y93182D01*
X-101482Y98745D01*
X-101240Y98908D01*
X-100943Y98968D01*
X-86020Y98968D01*
X-85757Y98921D01*
X-85499Y98762D01*
X-85323Y98514D01*
X-85258Y98218D01*
X-85314Y97920D01*
X-85481Y97667D01*
X-87882Y95267D01*
X-87882Y92133D01*
X-86863Y91115D01*
X-86700Y90873D01*
X-86640Y90576D01*
X-86640Y83848D01*
X-86305Y83513D01*
X-86142Y83272D01*
X-86082Y82974D01*
X-86082Y80467D01*
X-83867Y78252D01*
X-80733Y78252D01*
X-78518Y80467D01*
X-78518Y83600D01*
X-80733Y85816D01*
X-80798Y85816D01*
X-81073Y85867D01*
X-81328Y86030D01*
X-81500Y86280D01*
X-81560Y86578D01*
X-81560Y90576D01*
X-81504Y90862D01*
X-81337Y91115D01*
X-80318Y92133D01*
X-80318Y95267D01*
X-82719Y97667D01*
X-82872Y97887D01*
X-82941Y98182D01*
X-82891Y98481D01*
X-82727Y98736D01*
X-82477Y98908D01*
X-82180Y98968D01*
X52068Y98968D01*
X52354Y98912D01*
X52607Y98745D01*
X54133Y97218D01*
X57267Y97218D01*
X59482Y99433D01*
X59482Y102567D01*
X57267Y104782D01*
X54133Y104782D01*
X52607Y103255D01*
X52365Y103092D01*
X52068Y103032D01*
X-36795Y103032D01*
X-37058Y103079D01*
X-37316Y103238D01*
X-37492Y103486D01*
X-37557Y103782D01*
X-37501Y104080D01*
X-37334Y104333D01*
X-18888Y122778D01*
X-18652Y122938D01*
X-18356Y123001D01*
X-18058Y122943D01*
X-14743Y121570D01*
X-10657Y121570D01*
X-6883Y123134D01*
X-3994Y126023D01*
X-2430Y129797D01*
X-2430Y133883D01*
X-3994Y137658D01*
X-6883Y140546D01*
X-10657Y142110D01*
X-14743Y142110D01*
X-18518Y140546D01*
X-21406Y137658D01*
X-22970Y133883D01*
X-22970Y129797D01*
X-21597Y126482D01*
X-21539Y126203D01*
X-21595Y125905D01*
X-21762Y125652D01*
X-40759Y106655D01*
X-41000Y106492D01*
X-41297Y106432D01*
X-79456Y106432D01*
X-79731Y106483D01*
X-79986Y106647D01*
X-80158Y106897D01*
X-80218Y107194D01*
X-80218Y110567D01*
X-82433Y112782D01*
X-83874Y112782D01*
X-84160Y112838D01*
X-84413Y113005D01*
X-84837Y113429D01*
X-85000Y113671D01*
X-85060Y113968D01*
X-85060Y182427D01*
X-159620Y256987D01*
X-159783Y257229D01*
X-159843Y257526D01*
X-159843Y258967D01*
X-162058Y261182D01*
X-165192Y261182D01*
X-167407Y258967D01*
X-167407Y255833D01*
X-165192Y253618D01*
X-163751Y253618D01*
X-163465Y253562D01*
X-163212Y253395D01*
X-90363Y180546D01*
X-90200Y180305D01*
X-90140Y180007D01*
X-90140Y111548D01*
X-88005Y109413D01*
X-87842Y109172D01*
X-87782Y108874D01*
X-87782Y107194D01*
X-87833Y106919D01*
X-87997Y106664D01*
X-88247Y106492D01*
X-88544Y106432D01*
X-112655Y106432D01*
X-120332Y98755D01*
X-120332Y-8868D01*
X-120388Y-9154D01*
X-120555Y-9407D01*
X-122082Y-10933D01*
X-122082Y-14067D01*
X-119867Y-16282D01*
X-116550Y-16282D01*
X-116275Y-16333D01*
X-116020Y-16497D01*
X-115848Y-16747D01*
X-115788Y-17044D01*
X-115788Y-20524D01*
X-115844Y-20810D01*
X-116011Y-21063D01*
X-117195Y-22247D01*
X-117195Y-25473D01*
X-117242Y-25736D01*
X-117401Y-25995D01*
X-117649Y-26170D01*
X-117945Y-26235D01*
X-118243Y-26179D01*
X-118496Y-26012D01*
X-125037Y-19471D01*
X-125200Y-19230D01*
X-125260Y-18932D01*
X-125260Y189752D01*
X-141295Y205787D01*
X-141458Y206029D01*
X-141518Y206326D01*
X-141518Y207767D01*
X-143733Y209982D01*
X-146867Y209982D01*
X-149082Y207767D01*
X-149082Y204633D01*
X-146867Y202418D01*
X-145426Y202418D01*
X-145140Y202362D01*
X-144887Y202195D01*
X-130563Y187871D01*
X-130400Y187630D01*
X-130340Y187332D01*
X-130340Y-21352D01*
X-118052Y-33640D01*
X-94672Y-33640D01*
X-94408Y-33687D01*
X-94150Y-33846D01*
X-93975Y-34094D01*
X-93910Y-34390D01*
X-93965Y-34688D01*
X-94133Y-34941D01*
X-150729Y-91537D01*
X-150971Y-91700D01*
X-151268Y-91760D01*
X-177852Y-91760D01*
X-203040Y-116948D01*
X-203040Y-128875D01*
X-203093Y-129155D01*
X-203259Y-129410D01*
X-203510Y-129579D01*
X-205298Y-130320D01*
X-207573Y-132595D01*
X-207793Y-132748D01*
X-208088Y-132818D01*
X-208387Y-132767D01*
X-208642Y-132603D01*
X-208814Y-132353D01*
X-208874Y-132056D01*
X-208874Y71437D01*
X-208818Y71723D01*
X-208651Y71976D01*
X-165168Y115458D01*
X-165168Y122368D01*
X-187626Y144826D01*
X-190637Y144826D01*
X-190923Y144882D01*
X-191176Y145049D01*
X-201316Y155189D01*
X-201476Y155425D01*
X-201539Y155722D01*
X-201481Y156020D01*
X-200530Y158315D01*
X-200530Y161685D01*
X-201820Y164798D01*
X-204202Y167181D01*
X-207315Y168470D01*
X-210685Y168470D01*
X-213798Y167181D01*
X-216181Y164798D01*
X-216534Y163944D01*
X-216674Y163724D01*
X-216919Y163544D01*
X-217214Y163474D01*
X-217513Y163525D01*
X-217768Y163689D01*
X-217940Y163939D01*
X-218000Y164236D01*
X-218000Y175764D01*
X-217955Y176022D01*
X-217798Y176281D01*
X-217552Y176458D01*
X-217256Y176526D01*
X-216958Y176473D01*
X-216704Y176307D01*
X-216534Y176056D01*
X-216181Y175202D01*
X-213798Y172820D01*
X-210685Y171530D01*
X-207315Y171530D01*
X-204202Y172820D01*
X-201820Y175202D01*
X-200530Y178315D01*
X-200530Y181685D01*
X-201820Y184798D01*
X-204202Y187181D01*
X-207315Y188470D01*
X-210685Y188470D01*
X-213798Y187181D01*
X-216181Y184798D01*
X-216534Y183944D01*
X-216674Y183724D01*
X-216919Y183544D01*
X-217214Y183474D01*
X-217513Y183525D01*
X-217768Y183689D01*
X-217940Y183939D01*
X-218000Y184236D01*
X-218000Y193386D01*
X-217953Y193649D01*
X-217794Y193907D01*
X-217546Y194083D01*
X-217250Y194148D01*
X-216952Y194092D01*
X-216699Y193925D01*
X-214517Y191743D01*
X-210937Y190260D01*
X-209762Y190260D01*
X-209762Y209740D01*
X-210937Y209740D01*
X-214517Y208257D01*
X-216699Y206075D01*
X-216919Y205922D01*
X-217214Y205852D01*
X-217513Y205903D01*
X-217768Y206067D01*
X-217940Y206317D01*
X-218000Y206614D01*
X-218000Y215764D01*
X-217955Y216022D01*
X-217798Y216281D01*
X-217552Y216458D01*
X-217256Y216526D01*
X-216958Y216473D01*
X-216704Y216307D01*
X-216534Y216056D01*
X-216181Y215202D01*
X-213798Y212820D01*
X-210685Y211530D01*
X-207315Y211530D01*
X-204202Y212820D01*
X-201820Y215202D01*
X-200530Y218315D01*
X-200530Y221685D01*
X-201820Y224798D01*
X-204202Y227181D01*
X-207315Y228470D01*
X-210685Y228470D01*
X-213798Y227181D01*
X-216181Y224798D01*
X-216534Y223944D01*
X-216674Y223724D01*
X-216919Y223544D01*
X-217214Y223474D01*
X-217513Y223525D01*
X-217768Y223689D01*
X-217940Y223939D01*
X-218000Y224236D01*
X-218000Y235764D01*
X-217955Y236022D01*
X-217798Y236281D01*
X-217552Y236458D01*
X-217256Y236526D01*
X-216958Y236473D01*
X-216704Y236307D01*
X-216534Y236056D01*
X-216181Y235202D01*
X-213798Y232820D01*
X-210685Y231530D01*
X-207315Y231530D01*
X-204202Y232820D01*
X-201820Y235202D01*
X-200530Y238315D01*
X-200530Y241685D01*
X-201820Y244798D01*
X-204202Y247181D01*
X-207315Y248470D01*
X-210685Y248470D01*
X-213798Y247181D01*
X-216181Y244798D01*
X-216534Y243944D01*
X-216674Y243724D01*
X-216919Y243544D01*
X-217214Y243474D01*
X-217513Y243525D01*
X-217768Y243689D01*
X-217940Y243939D01*
X-218000Y244236D01*
X-218000Y330000D01*
X-217985Y330149D01*
X-216673Y336745D01*
X-216559Y337020D01*
X-212823Y342612D01*
X-212612Y342823D01*
X-207020Y346559D01*
X-206745Y346673D01*
X-200149Y347985D01*
X-200000Y348000D01*
X190000Y348000D01*
X190149Y347985D01*
X196745Y346673D01*
X197020Y346559D01*
X202612Y342823D01*
X202823Y342612D01*
X206559Y337020D01*
X206673Y336745D01*
X207985Y330149D01*
X208000Y330000D01*
X208000Y280636D01*
X207953Y280372D01*
X207794Y280114D01*
X207546Y279939D01*
X207250Y279874D01*
X206952Y279929D01*
X206699Y280097D01*
X206526Y280270D01*
X203544Y280270D01*
X203269Y280321D01*
X203014Y280485D01*
X202842Y280735D01*
X202782Y281032D01*
X202782Y302392D01*
X199305Y305869D01*
X199142Y306110D01*
X199082Y306407D01*
X199082Y308567D01*
X196867Y310782D01*
X193733Y310782D01*
X191518Y308567D01*
X191518Y305433D01*
X193733Y303218D01*
X195893Y303218D01*
X196179Y303162D01*
X196432Y302995D01*
X198495Y300932D01*
X198658Y300690D01*
X198718Y300393D01*
X198718Y281032D01*
X198667Y280757D01*
X198503Y280502D01*
X198253Y280330D01*
X197956Y280270D01*
X194974Y280270D01*
X194230Y279526D01*
X194230Y278544D01*
X194179Y278269D01*
X194015Y278014D01*
X193765Y277842D01*
X193468Y277782D01*
X166532Y277782D01*
X166257Y277833D01*
X166002Y277997D01*
X165830Y278247D01*
X165770Y278544D01*
X165770Y279526D01*
X165026Y280270D01*
X153474Y280270D01*
X152730Y279526D01*
X152730Y271974D01*
X153474Y271230D01*
X165026Y271230D01*
X165770Y271974D01*
X165770Y272956D01*
X165821Y273231D01*
X165985Y273486D01*
X166235Y273658D01*
X166532Y273718D01*
X193468Y273718D01*
X193743Y273667D01*
X193998Y273503D01*
X194170Y273253D01*
X194230Y272956D01*
X194230Y271974D01*
X194974Y271230D01*
X206526Y271230D01*
X206699Y271403D01*
X206919Y271556D01*
X207214Y271626D01*
X207513Y271575D01*
X207768Y271412D01*
X207940Y271162D01*
X208000Y270864D01*
X208000Y260802D01*
X207949Y260527D01*
X207785Y260272D01*
X207535Y260100D01*
X207238Y260040D01*
X201512Y260040D01*
X201512Y248460D01*
X207238Y248460D01*
X207513Y248409D01*
X207768Y248245D01*
X207940Y247995D01*
X208000Y247698D01*
X208000Y240636D01*
X207953Y240372D01*
X207794Y240114D01*
X207546Y239939D01*
X207250Y239874D01*
X206952Y239929D01*
X206699Y240097D01*
X206526Y240270D01*
X194974Y240270D01*
X194230Y239526D01*
X194230Y238544D01*
X194179Y238269D01*
X194015Y238014D01*
X193765Y237842D01*
X193468Y237782D01*
X166532Y237782D01*
X166257Y237833D01*
X166002Y237997D01*
X165830Y238247D01*
X165770Y238544D01*
X165770Y239526D01*
X165026Y240270D01*
X153540Y240270D01*
X153254Y240326D01*
X153001Y240493D01*
X146984Y246510D01*
X145275Y246510D01*
X144989Y246566D01*
X144736Y246733D01*
X139928Y251541D01*
X139765Y251783D01*
X139705Y252080D01*
X139705Y276969D01*
X139761Y277255D01*
X139928Y277508D01*
X146965Y284545D01*
X147207Y284708D01*
X147504Y284768D01*
X179730Y284768D01*
X180016Y284712D01*
X180269Y284545D01*
X181733Y283080D01*
X184867Y283080D01*
X187082Y285295D01*
X187082Y288429D01*
X184867Y290644D01*
X181733Y290644D01*
X180145Y289055D01*
X179903Y288892D01*
X179606Y288832D01*
X145685Y288832D01*
X144461Y287609D01*
X144439Y287492D01*
X144271Y287239D01*
X135895Y278863D01*
X135895Y250186D01*
X143381Y242700D01*
X145090Y242700D01*
X145376Y242644D01*
X145629Y242477D01*
X152507Y235599D01*
X152670Y235358D01*
X152730Y235060D01*
X152730Y233617D01*
X152679Y233342D01*
X152515Y233087D01*
X152265Y232915D01*
X151968Y232855D01*
X151261Y232855D01*
X144990Y226584D01*
X144990Y213363D01*
X157497Y200856D01*
X157660Y200614D01*
X157720Y200317D01*
X157720Y197765D01*
X157664Y197479D01*
X157593Y197372D01*
X157593Y190692D01*
X157546Y190429D01*
X157387Y190171D01*
X157139Y189996D01*
X156843Y189931D01*
X156545Y189986D01*
X156292Y190154D01*
X141789Y204657D01*
X141368Y204657D01*
X118443Y181732D01*
X118443Y181311D01*
X145611Y154143D01*
X146032Y154143D01*
X161600Y169711D01*
X161819Y169864D01*
X162114Y169934D01*
X162413Y169883D01*
X162669Y169720D01*
X162840Y169469D01*
X162901Y169172D01*
X162901Y167632D01*
X162845Y167346D01*
X162677Y167093D01*
X161151Y165567D01*
X161151Y162433D01*
X161843Y161741D01*
X162001Y161510D01*
X162066Y161214D01*
X162011Y160916D01*
X161843Y160663D01*
X160387Y159207D01*
X160387Y156074D01*
X160555Y155906D01*
X160713Y155676D01*
X160778Y155380D01*
X160722Y155081D01*
X160555Y154829D01*
X146882Y141155D01*
X146640Y140992D01*
X146343Y140932D01*
X142232Y140932D01*
X141946Y140988D01*
X141693Y141155D01*
X140167Y142682D01*
X137033Y142682D01*
X136201Y141850D01*
X135971Y141692D01*
X135675Y141627D01*
X135377Y141682D01*
X135124Y141850D01*
X134405Y142569D01*
X134242Y142810D01*
X134182Y143107D01*
X134182Y145267D01*
X131967Y147482D01*
X128833Y147482D01*
X126618Y145267D01*
X126618Y142133D01*
X128833Y139918D01*
X130993Y139918D01*
X131279Y139862D01*
X131532Y139695D01*
X131801Y139426D01*
X131964Y139184D01*
X132024Y138887D01*
X132024Y136176D01*
X136532Y131668D01*
X147542Y131668D01*
X162361Y146488D01*
X162581Y146641D01*
X162876Y146710D01*
X163175Y146659D01*
X163430Y146496D01*
X163602Y146246D01*
X163662Y145949D01*
X163662Y142545D01*
X165189Y141018D01*
X165352Y140777D01*
X165412Y140479D01*
X165412Y92601D01*
X165356Y92315D01*
X165189Y92063D01*
X125232Y52105D01*
X124990Y51942D01*
X124693Y51882D01*
X122533Y51882D01*
X120318Y49667D01*
X120318Y46533D01*
X122533Y44318D01*
X125667Y44318D01*
X127882Y46533D01*
X127882Y48693D01*
X127938Y48979D01*
X128105Y49232D01*
X169476Y90602D01*
X169476Y140479D01*
X169532Y140765D01*
X169699Y141018D01*
X171226Y142545D01*
X171226Y145678D01*
X170937Y145967D01*
X170784Y146187D01*
X170714Y146482D01*
X170765Y146781D01*
X170928Y147036D01*
X171179Y147208D01*
X171476Y147268D01*
X172691Y147268D01*
X172977Y147212D01*
X173230Y147045D01*
X200306Y119969D01*
X200469Y119728D01*
X200529Y119430D01*
X200529Y97730D01*
X200478Y97455D01*
X200314Y97200D01*
X200064Y97028D01*
X199767Y96968D01*
X185603Y96968D01*
X184859Y96224D01*
X184859Y80772D01*
X185603Y80028D01*
X199767Y80028D01*
X200042Y79977D01*
X200297Y79813D01*
X200469Y79563D01*
X200529Y79266D01*
X200529Y78887D01*
X200473Y78601D01*
X200306Y78349D01*
X198140Y76182D01*
X197904Y76022D01*
X197607Y75959D01*
X197309Y76017D01*
X195014Y76968D01*
X191644Y76968D01*
X188531Y75679D01*
X186149Y73296D01*
X184859Y70183D01*
X184859Y66813D01*
X186149Y63700D01*
X188531Y61318D01*
X191644Y60028D01*
X195014Y60028D01*
X198127Y61318D01*
X200510Y63700D01*
X201799Y66813D01*
X201799Y70183D01*
X200848Y72478D01*
X200790Y72758D01*
X200846Y73056D01*
X201013Y73309D01*
X203867Y76163D01*
X204087Y76316D01*
X204382Y76385D01*
X204681Y76334D01*
X204936Y76171D01*
X205108Y75921D01*
X205168Y75624D01*
X205168Y63457D01*
X205112Y63171D01*
X204945Y62919D01*
X198188Y56162D01*
X197952Y56002D01*
X197656Y55939D01*
X197358Y55997D01*
X195014Y56968D01*
X191644Y56968D01*
X188531Y55679D01*
X186149Y53296D01*
X184859Y50183D01*
X184859Y46813D01*
X186149Y43700D01*
X188531Y41318D01*
X191644Y40028D01*
X195014Y40028D01*
X198127Y41318D01*
X200510Y43700D01*
X201799Y46813D01*
X201799Y50183D01*
X200868Y52429D01*
X200810Y52709D01*
X200866Y53007D01*
X201034Y53260D01*
X206699Y58926D01*
X206919Y59079D01*
X207214Y59148D01*
X207513Y59097D01*
X207768Y58934D01*
X207940Y58684D01*
X208000Y58387D01*
X208000Y-35000D01*
X207974Y-35197D01*
X207674Y-36316D01*
X207477Y-36658D01*
X206658Y-37477D01*
X206316Y-37674D01*
X205197Y-37974D01*
X205000Y-38000D01*
X188722Y-38000D01*
X188462Y-37954D01*
X188141Y-37837D01*
X187945Y-37929D01*
X187623Y-38000D01*
X187407Y-38000D01*
X187165Y-38241D01*
X186949Y-38393D01*
X186639Y-38538D01*
X186565Y-38741D01*
X186388Y-39019D01*
X186235Y-39172D01*
X186235Y-39513D01*
X186189Y-39774D01*
X169310Y-86149D01*
X169158Y-86401D01*
X168913Y-86580D01*
X168618Y-86650D01*
X168319Y-86599D01*
X168064Y-86436D01*
X167892Y-86185D01*
X167832Y-85888D01*
X167832Y-44132D01*
X167888Y-43846D01*
X168055Y-43593D01*
X169582Y-42067D01*
X169582Y-38933D01*
X167367Y-36718D01*
X164233Y-36718D01*
X162018Y-38933D01*
X162018Y-42067D01*
X163545Y-43593D01*
X163708Y-43835D01*
X163768Y-44132D01*
X163768Y-91643D01*
X163712Y-91929D01*
X163545Y-92182D01*
X140268Y-115458D01*
X140268Y-130168D01*
X140212Y-130454D01*
X140045Y-130707D01*
X138518Y-132233D01*
X138518Y-135367D01*
X140733Y-137582D01*
X143867Y-137582D01*
X146082Y-135367D01*
X146082Y-132233D01*
X144555Y-130707D01*
X144392Y-130465D01*
X144332Y-130168D01*
X144332Y-117457D01*
X144388Y-117171D01*
X144555Y-116919D01*
X163438Y-98036D01*
X163622Y-97901D01*
X163913Y-97816D01*
X164214Y-97851D01*
X164478Y-98001D01*
X164662Y-98242D01*
X164737Y-98536D01*
X164692Y-98836D01*
X132910Y-186156D01*
X132843Y-186296D01*
X129183Y-192229D01*
X128971Y-192454D01*
X123261Y-196452D01*
X122978Y-196574D01*
X116150Y-197984D01*
G37*
%LPC*%
G36*
X35170Y329662D02*
X42488Y329662D01*
X42488Y339921D01*
X41996Y339865D01*
X41358Y339720D01*
X40477Y339411D01*
X39888Y339128D01*
X39098Y338631D01*
X38587Y338223D01*
X37927Y337563D01*
X37519Y337052D01*
X37022Y336262D01*
X36739Y335673D01*
X36430Y334792D01*
X36285Y334154D01*
X36178Y333208D01*
X36168Y333029D01*
X36111Y332780D01*
X35170Y330507D01*
X35170Y329662D01*
G37*
G36*
X44012Y329662D02*
X51330Y329662D01*
X51330Y330507D01*
X50389Y332780D01*
X50332Y333029D01*
X50322Y333208D01*
X50215Y334154D01*
X50070Y334792D01*
X49761Y335673D01*
X49478Y336262D01*
X48981Y337052D01*
X48573Y337563D01*
X47913Y338223D01*
X47402Y338631D01*
X46612Y339128D01*
X46023Y339411D01*
X45142Y339720D01*
X44504Y339865D01*
X44012Y339921D01*
X44012Y329662D01*
G37*
G36*
X-42488Y329662D02*
X-35170Y329662D01*
X-35170Y330507D01*
X-36111Y332780D01*
X-36168Y333029D01*
X-36178Y333208D01*
X-36285Y334154D01*
X-36430Y334792D01*
X-36739Y335673D01*
X-37022Y336262D01*
X-37519Y337052D01*
X-37927Y337563D01*
X-38587Y338223D01*
X-39098Y338631D01*
X-39888Y339128D01*
X-40477Y339411D01*
X-41358Y339720D01*
X-41996Y339865D01*
X-42488Y339921D01*
X-42488Y329662D01*
G37*
G36*
X-51330Y329662D02*
X-44012Y329662D01*
X-44012Y339921D01*
X-44504Y339865D01*
X-45142Y339720D01*
X-46023Y339411D01*
X-46612Y339128D01*
X-47402Y338631D01*
X-47913Y338223D01*
X-48573Y337563D01*
X-48981Y337052D01*
X-49478Y336262D01*
X-49761Y335673D01*
X-50070Y334792D01*
X-50215Y334154D01*
X-50322Y333208D01*
X-50332Y333029D01*
X-50389Y332780D01*
X-51330Y330507D01*
X-51330Y329662D01*
G37*
G36*
X44012Y328138D02*
X44012Y317879D01*
X44504Y317935D01*
X45142Y318080D01*
X46023Y318389D01*
X46612Y318672D01*
X47402Y319169D01*
X47913Y319577D01*
X48573Y320237D01*
X48981Y320748D01*
X49478Y321538D01*
X49761Y322127D01*
X50070Y323008D01*
X50215Y323646D01*
X50322Y324592D01*
X50332Y324771D01*
X50389Y325020D01*
X51330Y327293D01*
X51330Y328138D01*
X44012Y328138D01*
G37*
G36*
X41996Y317935D02*
X42488Y317879D01*
X42488Y328138D01*
X35170Y328138D01*
X35170Y327293D01*
X36111Y325020D01*
X36168Y324771D01*
X36178Y324592D01*
X36285Y323646D01*
X36430Y323008D01*
X36739Y322127D01*
X37022Y321538D01*
X37519Y320748D01*
X37927Y320237D01*
X38587Y319577D01*
X39098Y319169D01*
X39888Y318672D01*
X40477Y318389D01*
X41358Y318080D01*
X41996Y317935D01*
G37*
G36*
X-44504Y317935D02*
X-44012Y317879D01*
X-44012Y328138D01*
X-51330Y328138D01*
X-51330Y327293D01*
X-50389Y325020D01*
X-50332Y324771D01*
X-50322Y324592D01*
X-50215Y323646D01*
X-50070Y323008D01*
X-49761Y322127D01*
X-49478Y321538D01*
X-48981Y320748D01*
X-48573Y320237D01*
X-47913Y319577D01*
X-47402Y319169D01*
X-46612Y318672D01*
X-46023Y318389D01*
X-45142Y318080D01*
X-44504Y317935D01*
G37*
G36*
X-42488Y328138D02*
X-42488Y317879D01*
X-41996Y317935D01*
X-41358Y318080D01*
X-40477Y318389D01*
X-39888Y318672D01*
X-39098Y319169D01*
X-38587Y319577D01*
X-37927Y320237D01*
X-37519Y320748D01*
X-37022Y321538D01*
X-36739Y322127D01*
X-36430Y323008D01*
X-36285Y323646D01*
X-36178Y324592D01*
X-36168Y324771D01*
X-36111Y325020D01*
X-35170Y327293D01*
X-35170Y328138D01*
X-42488Y328138D01*
G37*
G36*
X79633Y267718D02*
X82767Y267718D01*
X84982Y269933D01*
X84982Y273067D01*
X82767Y275282D01*
X81326Y275282D01*
X81040Y275338D01*
X80787Y275505D01*
X71763Y284529D01*
X71600Y284771D01*
X71540Y285068D01*
X71540Y318776D01*
X71596Y319062D01*
X71763Y319315D01*
X72782Y320333D01*
X72782Y323467D01*
X70567Y325682D01*
X67433Y325682D01*
X65218Y323467D01*
X65218Y320333D01*
X66237Y319315D01*
X66400Y319073D01*
X66460Y318776D01*
X66460Y282648D01*
X77195Y271913D01*
X77358Y271672D01*
X77418Y271374D01*
X77418Y269933D01*
X79633Y267718D01*
G37*
G36*
X11533Y287318D02*
X14667Y287318D01*
X16882Y289533D01*
X16882Y292667D01*
X15355Y294193D01*
X15192Y294435D01*
X15132Y294732D01*
X15132Y295743D01*
X15188Y296029D01*
X15355Y296282D01*
X26719Y307645D01*
X26960Y307808D01*
X27257Y307868D01*
X29417Y307868D01*
X31632Y310083D01*
X31632Y313217D01*
X29417Y315432D01*
X26283Y315432D01*
X24068Y313217D01*
X24068Y311057D01*
X24012Y310771D01*
X23845Y310519D01*
X11068Y297742D01*
X11068Y294732D01*
X11012Y294446D01*
X10845Y294193D01*
X9318Y292667D01*
X9318Y289533D01*
X11533Y287318D01*
G37*
G36*
X-42488Y287962D02*
X-35170Y287962D01*
X-35170Y288807D01*
X-36102Y291057D01*
X-36160Y291349D01*
X-36160Y292681D01*
X-36178Y293008D01*
X-36285Y293954D01*
X-36430Y294592D01*
X-36739Y295473D01*
X-37022Y296062D01*
X-37519Y296852D01*
X-37927Y297363D01*
X-38587Y298023D01*
X-39098Y298431D01*
X-39888Y298928D01*
X-40477Y299211D01*
X-41358Y299520D01*
X-41996Y299665D01*
X-42488Y299721D01*
X-42488Y287962D01*
G37*
G36*
X35170Y287962D02*
X42488Y287962D01*
X42488Y299721D01*
X41996Y299665D01*
X41358Y299520D01*
X40477Y299211D01*
X39888Y298928D01*
X39098Y298431D01*
X38587Y298023D01*
X37927Y297363D01*
X37519Y296852D01*
X37022Y296062D01*
X36739Y295473D01*
X36430Y294592D01*
X36285Y293954D01*
X36178Y293008D01*
X36160Y292681D01*
X36160Y291349D01*
X36102Y291057D01*
X35170Y288807D01*
X35170Y287962D01*
G37*
G36*
X44012Y287962D02*
X51330Y287962D01*
X51330Y288807D01*
X50398Y291057D01*
X50340Y291349D01*
X50340Y292681D01*
X50322Y293008D01*
X50215Y293954D01*
X50070Y294592D01*
X49761Y295473D01*
X49478Y296062D01*
X48981Y296852D01*
X48573Y297363D01*
X47913Y298023D01*
X47402Y298431D01*
X46612Y298928D01*
X46023Y299211D01*
X45142Y299520D01*
X44504Y299665D01*
X44012Y299721D01*
X44012Y287962D01*
G37*
G36*
X-51330Y287962D02*
X-44012Y287962D01*
X-44012Y299721D01*
X-44504Y299665D01*
X-45142Y299520D01*
X-46023Y299211D01*
X-46612Y298928D01*
X-47402Y298431D01*
X-47913Y298023D01*
X-48573Y297363D01*
X-48981Y296852D01*
X-49478Y296062D01*
X-49761Y295473D01*
X-50070Y294592D01*
X-50215Y293954D01*
X-50322Y293008D01*
X-50340Y292681D01*
X-50340Y291349D01*
X-50398Y291057D01*
X-51330Y288807D01*
X-51330Y287962D01*
G37*
G36*
X26829Y287100D02*
X30971Y287100D01*
X33900Y290029D01*
X33900Y294171D01*
X30971Y297100D01*
X26829Y297100D01*
X23900Y294171D01*
X23900Y290029D01*
X26829Y287100D01*
G37*
G36*
X-30971Y287100D02*
X-26829Y287100D01*
X-23900Y290029D01*
X-23900Y294171D01*
X-26829Y297100D01*
X-30971Y297100D01*
X-33900Y294171D01*
X-33900Y290029D01*
X-30971Y287100D01*
G37*
G36*
X41996Y274735D02*
X42488Y274679D01*
X42488Y286438D01*
X35170Y286438D01*
X35170Y285593D01*
X36102Y283343D01*
X36160Y283051D01*
X36160Y281719D01*
X36178Y281392D01*
X36285Y280446D01*
X36430Y279808D01*
X36739Y278927D01*
X37022Y278338D01*
X37519Y277548D01*
X37927Y277037D01*
X38587Y276377D01*
X39098Y275969D01*
X39888Y275472D01*
X40477Y275189D01*
X41358Y274880D01*
X41996Y274735D01*
G37*
G36*
X44012Y286438D02*
X44012Y274679D01*
X44504Y274735D01*
X45142Y274880D01*
X46023Y275189D01*
X46612Y275472D01*
X47402Y275969D01*
X47913Y276377D01*
X48573Y277037D01*
X48981Y277548D01*
X49478Y278338D01*
X49761Y278927D01*
X50070Y279808D01*
X50215Y280446D01*
X50322Y281392D01*
X50340Y281719D01*
X50340Y283051D01*
X50398Y283343D01*
X51330Y285593D01*
X51330Y286438D01*
X44012Y286438D01*
G37*
G36*
X-42488Y286438D02*
X-42488Y274679D01*
X-41996Y274735D01*
X-41358Y274880D01*
X-40477Y275189D01*
X-39888Y275472D01*
X-39098Y275969D01*
X-38587Y276377D01*
X-37927Y277037D01*
X-37519Y277548D01*
X-37022Y278338D01*
X-36739Y278927D01*
X-36430Y279808D01*
X-36285Y280446D01*
X-36178Y281392D01*
X-36160Y281719D01*
X-36160Y283051D01*
X-36102Y283343D01*
X-35170Y285593D01*
X-35170Y286438D01*
X-42488Y286438D01*
G37*
G36*
X-44504Y274735D02*
X-44012Y274679D01*
X-44012Y286438D01*
X-51330Y286438D01*
X-51330Y285593D01*
X-50398Y283343D01*
X-50340Y283051D01*
X-50340Y281719D01*
X-50322Y281392D01*
X-50215Y280446D01*
X-50070Y279808D01*
X-49761Y278927D01*
X-49478Y278338D01*
X-48981Y277548D01*
X-48573Y277037D01*
X-47913Y276377D01*
X-47402Y275969D01*
X-46612Y275472D01*
X-46023Y275189D01*
X-45142Y274880D01*
X-44504Y274735D01*
G37*
G36*
X151460Y255012D02*
X158488Y255012D01*
X158488Y260040D01*
X152948Y260040D01*
X151460Y258552D01*
X151460Y255012D01*
G37*
G36*
X160012Y255012D02*
X167040Y255012D01*
X167040Y258552D01*
X165552Y260040D01*
X160012Y260040D01*
X160012Y255012D01*
G37*
G36*
X192960Y255012D02*
X199988Y255012D01*
X199988Y260040D01*
X194448Y260040D01*
X192960Y258552D01*
X192960Y255012D01*
G37*
G36*
X194448Y248460D02*
X199988Y248460D01*
X199988Y253488D01*
X192960Y253488D01*
X192960Y249948D01*
X194448Y248460D01*
G37*
G36*
X160012Y248460D02*
X165552Y248460D01*
X167040Y249948D01*
X167040Y253488D01*
X160012Y253488D01*
X160012Y248460D01*
G37*
G36*
X152948Y248460D02*
X158488Y248460D01*
X158488Y253488D01*
X151460Y253488D01*
X151460Y249948D01*
X152948Y248460D01*
G37*
G36*
X47156Y212340D02*
X50289Y212340D01*
X52504Y214556D01*
X52504Y216894D01*
X52560Y217180D01*
X52727Y217433D01*
X62505Y227211D01*
X62505Y234389D01*
X51328Y245566D01*
X51165Y245808D01*
X51105Y246105D01*
X51105Y246141D01*
X51161Y246427D01*
X51328Y246680D01*
X52182Y247533D01*
X52182Y250667D01*
X49967Y252882D01*
X46833Y252882D01*
X44618Y250667D01*
X44618Y247533D01*
X47021Y245130D01*
X47063Y245103D01*
X47235Y244853D01*
X47295Y244556D01*
X47295Y244211D01*
X58472Y233034D01*
X58635Y232793D01*
X58695Y232495D01*
X58695Y229105D01*
X58639Y228819D01*
X58472Y228566D01*
X50033Y220127D01*
X49792Y219964D01*
X49494Y219904D01*
X47156Y219904D01*
X44940Y217689D01*
X44940Y214556D01*
X47156Y212340D01*
G37*
G36*
X-144067Y175718D02*
X-140933Y175718D01*
X-138718Y177933D01*
X-138718Y181067D01*
X-140933Y183282D01*
X-143093Y183282D01*
X-143379Y183338D01*
X-143632Y183505D01*
X-177958Y217832D01*
X-183968Y217832D01*
X-184254Y217888D01*
X-184507Y218055D01*
X-186033Y219582D01*
X-189167Y219582D01*
X-191382Y217367D01*
X-191382Y214233D01*
X-189167Y212018D01*
X-186033Y212018D01*
X-184507Y213545D01*
X-184265Y213708D01*
X-183968Y213768D01*
X-179957Y213768D01*
X-179671Y213712D01*
X-179419Y213545D01*
X-146505Y180632D01*
X-146342Y180390D01*
X-146282Y180093D01*
X-146282Y177933D01*
X-144067Y175718D01*
G37*
G36*
X-208238Y200762D02*
X-199260Y200762D01*
X-199260Y201937D01*
X-200743Y205517D01*
X-203483Y208257D01*
X-207063Y209740D01*
X-208238Y209740D01*
X-208238Y200762D01*
G37*
G36*
X104470Y171255D02*
X107603Y171255D01*
X109819Y173470D01*
X109819Y176603D01*
X108292Y178130D01*
X108129Y178372D01*
X108069Y178669D01*
X108069Y179405D01*
X92105Y195369D01*
X91942Y195610D01*
X91882Y195907D01*
X91882Y198067D01*
X89667Y200282D01*
X86533Y200282D01*
X84318Y198067D01*
X84318Y194933D01*
X86533Y192718D01*
X88693Y192718D01*
X88979Y192662D01*
X89232Y192495D01*
X103150Y178576D01*
X103308Y178346D01*
X103373Y178050D01*
X103318Y177751D01*
X103150Y177499D01*
X102255Y176603D01*
X102255Y173470D01*
X104470Y171255D01*
G37*
G36*
X-208238Y190260D02*
X-207063Y190260D01*
X-203483Y191743D01*
X-200743Y194483D01*
X-199260Y198063D01*
X-199260Y199238D01*
X-208238Y199238D01*
X-208238Y190260D01*
G37*
G36*
X-10367Y168220D02*
X-7233Y168220D01*
X-5707Y169747D01*
X-5465Y169910D01*
X-5168Y169970D01*
X33568Y169970D01*
X33854Y169914D01*
X34107Y169747D01*
X35633Y168220D01*
X38767Y168220D01*
X40982Y170435D01*
X40982Y173569D01*
X38767Y175784D01*
X35633Y175784D01*
X34107Y174257D01*
X33865Y174094D01*
X33568Y174034D01*
X-5168Y174034D01*
X-5454Y174090D01*
X-5707Y174257D01*
X-7233Y175784D01*
X-10367Y175784D01*
X-12582Y173569D01*
X-12582Y170435D01*
X-10367Y168220D01*
G37*
G36*
X-162586Y137000D02*
X-157414Y137000D01*
X-152636Y138979D01*
X-148979Y142636D01*
X-147000Y147414D01*
X-147000Y152586D01*
X-148979Y157364D01*
X-152636Y161021D01*
X-157414Y163000D01*
X-162586Y163000D01*
X-167364Y161021D01*
X-171021Y157364D01*
X-173000Y152586D01*
X-173000Y147414D01*
X-171021Y142636D01*
X-167364Y138979D01*
X-162586Y137000D01*
G37*
G36*
X-75040Y132602D02*
X-64262Y132602D01*
X-64262Y143380D01*
X-73552Y143380D01*
X-75040Y141892D01*
X-75040Y132602D01*
G37*
G36*
X-62738Y132602D02*
X-51960Y132602D01*
X-51960Y141892D01*
X-53448Y143380D01*
X-62738Y143380D01*
X-62738Y132602D01*
G37*
G36*
X-40143Y121570D02*
X-36057Y121570D01*
X-32283Y123134D01*
X-29394Y126023D01*
X-27830Y129797D01*
X-27830Y133883D01*
X-29394Y137658D01*
X-32283Y140546D01*
X-36057Y142110D01*
X-40143Y142110D01*
X-43918Y140546D01*
X-46806Y137658D01*
X-48370Y133883D01*
X-48370Y129797D01*
X-46806Y126023D01*
X-43918Y123134D01*
X-40143Y121570D01*
G37*
G36*
X10657Y121570D02*
X14743Y121570D01*
X18518Y123134D01*
X21406Y126023D01*
X22970Y129797D01*
X22970Y133883D01*
X21406Y137658D01*
X18518Y140546D01*
X14743Y142110D01*
X10657Y142110D01*
X6883Y140546D01*
X3994Y137658D01*
X2430Y133883D01*
X2430Y129797D01*
X3994Y126023D01*
X6883Y123134D01*
X10657Y121570D01*
G37*
G36*
X93789Y68061D02*
X96923Y68061D01*
X99138Y70276D01*
X99138Y73409D01*
X96923Y75625D01*
X94813Y75625D01*
X94527Y75681D01*
X94274Y75848D01*
X84555Y85567D01*
X84392Y85809D01*
X84332Y86106D01*
X84332Y106239D01*
X84388Y106525D01*
X84555Y106778D01*
X86082Y108305D01*
X86082Y111438D01*
X84737Y112783D01*
X84584Y113002D01*
X84515Y113297D01*
X84565Y113596D01*
X84729Y113852D01*
X84979Y114023D01*
X85276Y114083D01*
X90976Y114083D01*
X91262Y114028D01*
X91515Y113860D01*
X94521Y110854D01*
X94674Y110635D01*
X94744Y110340D01*
X94693Y110041D01*
X94529Y109785D01*
X94279Y109614D01*
X93985Y109554D01*
X91769Y107338D01*
X91769Y104205D01*
X93296Y102678D01*
X93459Y102436D01*
X93519Y102139D01*
X93519Y88507D01*
X99695Y82332D01*
X99858Y82090D01*
X99918Y81793D01*
X99918Y79233D01*
X102133Y77018D01*
X105267Y77018D01*
X107482Y79233D01*
X107482Y82367D01*
X105267Y84582D01*
X103507Y84582D01*
X103221Y84638D01*
X102969Y84805D01*
X97806Y89968D01*
X97643Y90209D01*
X97583Y90506D01*
X97583Y102139D01*
X97639Y102425D01*
X97806Y102678D01*
X99334Y104205D01*
X99380Y104466D01*
X99539Y104724D01*
X99787Y104899D01*
X100083Y104964D01*
X100381Y104909D01*
X100634Y104741D01*
X113037Y92338D01*
X113200Y92097D01*
X113260Y91799D01*
X113260Y82024D01*
X113204Y81738D01*
X113037Y81485D01*
X112018Y80467D01*
X112018Y77333D01*
X114233Y75118D01*
X117367Y75118D01*
X119582Y77333D01*
X119582Y80467D01*
X118563Y81485D01*
X118400Y81727D01*
X118340Y82024D01*
X118340Y94219D01*
X93396Y119163D01*
X82844Y119163D01*
X82558Y119219D01*
X82306Y119387D01*
X73581Y128111D01*
X73420Y128347D01*
X73358Y128644D01*
X73416Y128942D01*
X73770Y129797D01*
X73770Y133883D01*
X72206Y137658D01*
X69318Y140546D01*
X65543Y142110D01*
X61457Y142110D01*
X57683Y140546D01*
X54794Y137658D01*
X53230Y133883D01*
X53230Y129797D01*
X54794Y126023D01*
X57683Y123134D01*
X61457Y121570D01*
X65543Y121570D01*
X69318Y123134D01*
X69807Y123623D01*
X70038Y123781D01*
X70334Y123846D01*
X70632Y123791D01*
X70885Y123623D01*
X80255Y114253D01*
X80413Y114022D01*
X80478Y113726D01*
X80423Y113428D01*
X80255Y113175D01*
X78518Y111438D01*
X78518Y108305D01*
X80045Y106778D01*
X80208Y106536D01*
X80268Y106239D01*
X80268Y84107D01*
X91351Y73024D01*
X91514Y72783D01*
X91574Y72485D01*
X91574Y70276D01*
X93789Y68061D01*
G37*
G36*
X36057Y121570D02*
X40143Y121570D01*
X43918Y123134D01*
X46806Y126023D01*
X48370Y129797D01*
X48370Y133883D01*
X46806Y137658D01*
X43918Y140546D01*
X40143Y142110D01*
X36057Y142110D01*
X32283Y140546D01*
X29394Y137658D01*
X27830Y133883D01*
X27830Y129797D01*
X29394Y126023D01*
X32283Y123134D01*
X36057Y121570D01*
G37*
G36*
X-62738Y120300D02*
X-53448Y120300D01*
X-51960Y121788D01*
X-51960Y131078D01*
X-62738Y131078D01*
X-62738Y120300D01*
G37*
G36*
X-73552Y120300D02*
X-64262Y120300D01*
X-64262Y131078D01*
X-75040Y131078D01*
X-75040Y121788D01*
X-73552Y120300D01*
G37*
G36*
X-159185Y61530D02*
X-155815Y61530D01*
X-152702Y62820D01*
X-150320Y65202D01*
X-149030Y68315D01*
X-149030Y71685D01*
X-150320Y74798D01*
X-152702Y77181D01*
X-155815Y78470D01*
X-159185Y78470D01*
X-162298Y77181D01*
X-164681Y74798D01*
X-165970Y71685D01*
X-165970Y68315D01*
X-164681Y65202D01*
X-162298Y62820D01*
X-159185Y61530D01*
G37*
G36*
X-159185Y41530D02*
X-155815Y41530D01*
X-152702Y42820D01*
X-150320Y45202D01*
X-149030Y48315D01*
X-149030Y51685D01*
X-150320Y54798D01*
X-152702Y57181D01*
X-155815Y58470D01*
X-159185Y58470D01*
X-162298Y57181D01*
X-164681Y54798D01*
X-165970Y51685D01*
X-165970Y48315D01*
X-164681Y45202D01*
X-162298Y42820D01*
X-159185Y41530D01*
G37*
G36*
X-159185Y21530D02*
X-155815Y21530D01*
X-152702Y22820D01*
X-150320Y25202D01*
X-149030Y28315D01*
X-149030Y31685D01*
X-150320Y34798D01*
X-152702Y37181D01*
X-155815Y38470D01*
X-159185Y38470D01*
X-162298Y37181D01*
X-164681Y34798D01*
X-165970Y31685D01*
X-165970Y28315D01*
X-164681Y25202D01*
X-162298Y22820D01*
X-159185Y21530D01*
G37*
G36*
X191644Y20028D02*
X195014Y20028D01*
X198127Y21318D01*
X200510Y23700D01*
X201799Y26813D01*
X201799Y30183D01*
X200510Y33296D01*
X198127Y35679D01*
X195014Y36968D01*
X191644Y36968D01*
X188531Y35679D01*
X186149Y33296D01*
X184859Y30183D01*
X184859Y26813D01*
X186149Y23700D01*
X188531Y21318D01*
X191644Y20028D01*
G37*
G36*
X-159185Y1530D02*
X-155815Y1530D01*
X-152702Y2820D01*
X-150320Y5202D01*
X-149030Y8315D01*
X-149030Y11685D01*
X-150320Y14798D01*
X-152702Y17181D01*
X-155815Y18470D01*
X-159185Y18470D01*
X-162298Y17181D01*
X-164681Y14798D01*
X-165970Y11685D01*
X-165970Y8315D01*
X-164681Y5202D01*
X-162298Y2820D01*
X-159185Y1530D01*
G37*
G36*
X191644Y28D02*
X195014Y28D01*
X198127Y1318D01*
X200510Y3700D01*
X201799Y6813D01*
X201799Y10183D01*
X200510Y13296D01*
X198127Y15679D01*
X195014Y16968D01*
X191644Y16968D01*
X188531Y15679D01*
X186149Y13296D01*
X184859Y10183D01*
X184859Y6813D01*
X186149Y3700D01*
X188531Y1318D01*
X191644Y28D01*
G37*
G36*
X-159185Y-18470D02*
X-155815Y-18470D01*
X-152702Y-17181D01*
X-150320Y-14798D01*
X-149030Y-11685D01*
X-149030Y-8315D01*
X-150320Y-5202D01*
X-152702Y-2820D01*
X-155815Y-1530D01*
X-159185Y-1530D01*
X-162298Y-2820D01*
X-164681Y-5202D01*
X-165970Y-8315D01*
X-165970Y-11685D01*
X-164681Y-14798D01*
X-162298Y-17181D01*
X-159185Y-18470D01*
G37*
G36*
X183589Y-10740D02*
X192567Y-10740D01*
X192567Y-1762D01*
X191392Y-1762D01*
X187812Y-3245D01*
X185072Y-5985D01*
X183589Y-9565D01*
X183589Y-10740D01*
G37*
G36*
X194091Y-10740D02*
X203069Y-10740D01*
X203069Y-9565D01*
X201586Y-5985D01*
X198846Y-3245D01*
X195266Y-1762D01*
X194091Y-1762D01*
X194091Y-10740D01*
G37*
G36*
X191392Y-21242D02*
X192567Y-21242D01*
X192567Y-12264D01*
X183589Y-12264D01*
X183589Y-13439D01*
X185072Y-17019D01*
X187812Y-19759D01*
X191392Y-21242D01*
G37*
G36*
X194091Y-21242D02*
X195266Y-21242D01*
X198846Y-19759D01*
X201586Y-17019D01*
X203069Y-13439D01*
X203069Y-12264D01*
X194091Y-12264D01*
X194091Y-21242D01*
G37*
G36*
X-159185Y-38470D02*
X-155815Y-38470D01*
X-152702Y-37181D01*
X-150320Y-34798D01*
X-149030Y-31685D01*
X-149030Y-28315D01*
X-150320Y-25202D01*
X-152702Y-22820D01*
X-155815Y-21530D01*
X-159185Y-21530D01*
X-162298Y-22820D01*
X-164681Y-25202D01*
X-165970Y-28315D01*
X-165970Y-31685D01*
X-164681Y-34798D01*
X-162298Y-37181D01*
X-159185Y-38470D01*
G37*
G36*
X-159185Y-58470D02*
X-155815Y-58470D01*
X-152702Y-57181D01*
X-150320Y-54798D01*
X-149030Y-51685D01*
X-149030Y-48315D01*
X-150320Y-45202D01*
X-152702Y-42820D01*
X-155815Y-41530D01*
X-159185Y-41530D01*
X-162298Y-42820D01*
X-164681Y-45202D01*
X-165970Y-48315D01*
X-165970Y-51685D01*
X-164681Y-54798D01*
X-162298Y-57181D01*
X-159185Y-58470D01*
G37*
G36*
X139192Y-70291D02*
X153712Y-75576D01*
X154666Y-75131D01*
X159951Y-60611D01*
X159506Y-59658D01*
X144986Y-54373D01*
X144032Y-54817D01*
X138747Y-69338D01*
X139192Y-70291D01*
G37*
G36*
X-165226Y-78470D02*
X-149774Y-78470D01*
X-149030Y-77726D01*
X-149030Y-62274D01*
X-149774Y-61530D01*
X-165226Y-61530D01*
X-165970Y-62274D01*
X-165970Y-77726D01*
X-165226Y-78470D01*
G37*
G36*
X140824Y-92238D02*
X144193Y-92238D01*
X147307Y-90949D01*
X149689Y-88566D01*
X150979Y-85453D01*
X150979Y-82083D01*
X149689Y-78970D01*
X147307Y-76588D01*
X144193Y-75298D01*
X140824Y-75298D01*
X137711Y-76588D01*
X135328Y-78970D01*
X134039Y-82083D01*
X134039Y-85453D01*
X135328Y-88566D01*
X137711Y-90949D01*
X140824Y-92238D01*
G37*
G36*
X133983Y-111032D02*
X137353Y-111032D01*
X140466Y-109743D01*
X142849Y-107360D01*
X144138Y-104247D01*
X144138Y-100877D01*
X142849Y-97764D01*
X140466Y-95382D01*
X137353Y-94092D01*
X133983Y-94092D01*
X130870Y-95382D01*
X128488Y-97764D01*
X127198Y-100877D01*
X127198Y-104247D01*
X128488Y-107360D01*
X130870Y-109743D01*
X133983Y-111032D01*
G37*
G36*
X127143Y-129826D02*
X130513Y-129826D01*
X133626Y-128536D01*
X136008Y-126154D01*
X137298Y-123041D01*
X137298Y-119671D01*
X136008Y-116558D01*
X133626Y-114175D01*
X130513Y-112886D01*
X127143Y-112886D01*
X124030Y-114175D01*
X121647Y-116558D01*
X120358Y-119671D01*
X120358Y-123041D01*
X121647Y-126154D01*
X124030Y-128536D01*
X127143Y-129826D01*
G37*
G36*
X-2586Y-153000D02*
X2586Y-153000D01*
X7364Y-151021D01*
X11021Y-147364D01*
X13000Y-142586D01*
X13000Y-137414D01*
X11021Y-132636D01*
X7364Y-128979D01*
X2586Y-127000D01*
X-2586Y-127000D01*
X-7364Y-128979D01*
X-11021Y-132636D01*
X-13000Y-137414D01*
X-13000Y-142586D01*
X-11021Y-147364D01*
X-7364Y-151021D01*
X-2586Y-153000D01*
G37*
G36*
X-150240Y-136738D02*
X-141262Y-136738D01*
X-141262Y-127760D01*
X-142437Y-127760D01*
X-146017Y-129243D01*
X-148757Y-131983D01*
X-150240Y-135563D01*
X-150240Y-136738D01*
G37*
G36*
X-139738Y-136738D02*
X-130760Y-136738D01*
X-130760Y-135563D01*
X-132243Y-131983D01*
X-134983Y-129243D01*
X-138563Y-127760D01*
X-139738Y-127760D01*
X-139738Y-136738D01*
G37*
G36*
X-162185Y-145970D02*
X-158815Y-145970D01*
X-155702Y-144681D01*
X-153320Y-142298D01*
X-152030Y-139185D01*
X-152030Y-135815D01*
X-153320Y-132702D01*
X-155702Y-130320D01*
X-158815Y-129030D01*
X-162185Y-129030D01*
X-165298Y-130320D01*
X-167681Y-132702D01*
X-168970Y-135815D01*
X-168970Y-139185D01*
X-167681Y-142298D01*
X-165298Y-144681D01*
X-162185Y-145970D01*
G37*
G36*
X-182185Y-145970D02*
X-178815Y-145970D01*
X-175702Y-144681D01*
X-173320Y-142298D01*
X-172030Y-139185D01*
X-172030Y-135815D01*
X-173320Y-132702D01*
X-175702Y-130320D01*
X-178815Y-129030D01*
X-182185Y-129030D01*
X-185298Y-130320D01*
X-187681Y-132702D01*
X-188970Y-135815D01*
X-188970Y-139185D01*
X-187681Y-142298D01*
X-185298Y-144681D01*
X-182185Y-145970D01*
G37*
G36*
X-108226Y-145970D02*
X-92774Y-145970D01*
X-92030Y-145226D01*
X-92030Y-129774D01*
X-92774Y-129030D01*
X-108226Y-129030D01*
X-108970Y-129774D01*
X-108970Y-145226D01*
X-108226Y-145970D01*
G37*
G36*
X-122185Y-145970D02*
X-118815Y-145970D01*
X-115702Y-144681D01*
X-113320Y-142298D01*
X-112030Y-139185D01*
X-112030Y-135815D01*
X-113320Y-132702D01*
X-115702Y-130320D01*
X-118815Y-129030D01*
X-122185Y-129030D01*
X-125298Y-130320D01*
X-127681Y-132702D01*
X-128970Y-135815D01*
X-128970Y-139185D01*
X-127681Y-142298D01*
X-125298Y-144681D01*
X-122185Y-145970D01*
G37*
G36*
X120303Y-148620D02*
X123672Y-148620D01*
X126785Y-147330D01*
X129168Y-144948D01*
X130457Y-141835D01*
X130457Y-138465D01*
X129168Y-135352D01*
X126785Y-132969D01*
X123672Y-131680D01*
X120303Y-131680D01*
X117190Y-132969D01*
X114807Y-135352D01*
X113517Y-138465D01*
X113517Y-141835D01*
X114807Y-144948D01*
X117190Y-147330D01*
X120303Y-148620D01*
G37*
G36*
X-139738Y-147240D02*
X-138563Y-147240D01*
X-134983Y-145757D01*
X-132243Y-143017D01*
X-130760Y-139437D01*
X-130760Y-138262D01*
X-139738Y-138262D01*
X-139738Y-147240D01*
G37*
G36*
X-142437Y-147240D02*
X-141262Y-147240D01*
X-141262Y-138262D01*
X-150240Y-138262D01*
X-150240Y-139437D01*
X-148757Y-143017D01*
X-146017Y-145757D01*
X-142437Y-147240D01*
G37*
G36*
X57414Y-173000D02*
X62586Y-173000D01*
X67364Y-171021D01*
X71021Y-167364D01*
X73000Y-162586D01*
X73000Y-157414D01*
X71021Y-152636D01*
X67364Y-148979D01*
X62586Y-147000D01*
X57414Y-147000D01*
X52636Y-148979D01*
X48979Y-152636D01*
X47000Y-157414D01*
X47000Y-162586D01*
X48979Y-167364D01*
X52636Y-171021D01*
X57414Y-173000D01*
G37*
G36*
X106278Y-154905D02*
X114692Y-157967D01*
X117777Y-149490D01*
X117084Y-149204D01*
X113210Y-149204D01*
X109630Y-150686D01*
X106890Y-153426D01*
X106278Y-154905D01*
G37*
G36*
X116124Y-158488D02*
X124600Y-161573D01*
X124887Y-160881D01*
X124887Y-157006D01*
X123404Y-153426D01*
X120664Y-150686D01*
X119186Y-150074D01*
X116124Y-158488D01*
G37*
G36*
X109630Y-167201D02*
X111108Y-167813D01*
X114170Y-159399D01*
X105694Y-156314D01*
X105407Y-157006D01*
X105407Y-160881D01*
X106890Y-164461D01*
X109630Y-167201D01*
G37*
G36*
X113210Y-168684D02*
X117084Y-168684D01*
X120664Y-167201D01*
X123404Y-164461D01*
X124016Y-162983D01*
X115602Y-159920D01*
X112517Y-168397D01*
X113210Y-168684D01*
G37*
%LPD*%
G36*
X207546Y123117D02*
X207250Y123051D01*
X206952Y123107D01*
X206699Y123275D01*
X175086Y154888D01*
X172430Y154888D01*
X172166Y154935D01*
X171908Y155094D01*
X171733Y155341D01*
X171668Y155637D01*
X171723Y155936D01*
X171891Y156188D01*
X177451Y161749D01*
X177451Y184492D01*
X169111Y192832D01*
X167801Y192832D01*
X167515Y192888D01*
X167263Y193055D01*
X165736Y194582D01*
X162419Y194582D01*
X162144Y194633D01*
X161889Y194797D01*
X161717Y195047D01*
X161657Y195344D01*
X161657Y197369D01*
X161590Y197468D01*
X161530Y197765D01*
X161530Y202211D01*
X156582Y207159D01*
X156429Y207379D01*
X156359Y207674D01*
X156410Y207973D01*
X156573Y208228D01*
X156823Y208400D01*
X157120Y208460D01*
X158488Y208460D01*
X158488Y213488D01*
X151097Y213488D01*
X151006Y213424D01*
X150710Y213358D01*
X150412Y213414D01*
X150159Y213582D01*
X149023Y214718D01*
X148860Y214959D01*
X148800Y215256D01*
X148800Y224690D01*
X148856Y224976D01*
X149023Y225229D01*
X152616Y228822D01*
X152858Y228985D01*
X153155Y229045D01*
X157966Y229045D01*
X158252Y228989D01*
X158359Y228918D01*
X160092Y228918D01*
X161282Y230108D01*
X161282Y230468D01*
X161333Y230743D01*
X161497Y230998D01*
X161747Y231170D01*
X162044Y231230D01*
X165026Y231230D01*
X165770Y231974D01*
X165770Y232956D01*
X165821Y233231D01*
X165985Y233486D01*
X166235Y233658D01*
X166532Y233718D01*
X193468Y233718D01*
X193743Y233667D01*
X193998Y233503D01*
X194170Y233253D01*
X194230Y232956D01*
X194230Y231974D01*
X194974Y231230D01*
X206526Y231230D01*
X206699Y231403D01*
X206919Y231556D01*
X207214Y231626D01*
X207513Y231575D01*
X207768Y231412D01*
X207940Y231162D01*
X208000Y230864D01*
X208000Y220802D01*
X207949Y220527D01*
X207785Y220272D01*
X207535Y220100D01*
X207238Y220040D01*
X201512Y220040D01*
X201512Y208460D01*
X207238Y208460D01*
X207513Y208409D01*
X207768Y208245D01*
X207940Y207995D01*
X208000Y207698D01*
X208000Y123813D01*
X207953Y123550D01*
X207794Y123292D01*
X207546Y123117D01*
G37*
%LPC*%
G36*
X192960Y215012D02*
X199988Y215012D01*
X199988Y220040D01*
X194448Y220040D01*
X192960Y218552D01*
X192960Y215012D01*
G37*
G36*
X160012Y215012D02*
X167040Y215012D01*
X167040Y218552D01*
X165552Y220040D01*
X160012Y220040D01*
X160012Y215012D01*
G37*
G36*
X151460Y215012D02*
X158488Y215012D01*
X158488Y220040D01*
X152948Y220040D01*
X151460Y218552D01*
X151460Y215012D01*
G37*
G36*
X160012Y208460D02*
X165552Y208460D01*
X167040Y209948D01*
X167040Y213488D01*
X160012Y213488D01*
X160012Y208460D01*
G37*
G36*
X194448Y208460D02*
X199988Y208460D01*
X199988Y213488D01*
X192960Y213488D01*
X192960Y209948D01*
X194448Y208460D01*
G37*
%LPD*%
G36*
X-196433Y-129766D02*
X-196730Y-129828D01*
X-197028Y-129770D01*
X-197490Y-129579D01*
X-197728Y-129422D01*
X-197900Y-129172D01*
X-197960Y-128875D01*
X-197960Y-119368D01*
X-197904Y-119082D01*
X-197737Y-118829D01*
X-175971Y-97063D01*
X-175730Y-96900D01*
X-175432Y-96840D01*
X-148848Y-96840D01*
X-87113Y-35105D01*
X-86872Y-34942D01*
X-86574Y-34882D01*
X-85133Y-34882D01*
X-82918Y-32667D01*
X-82918Y-29533D01*
X-85133Y-27318D01*
X-88267Y-27318D01*
X-89285Y-28337D01*
X-89527Y-28500D01*
X-89824Y-28560D01*
X-110972Y-28560D01*
X-111235Y-28513D01*
X-111493Y-28354D01*
X-111669Y-28106D01*
X-111734Y-27810D01*
X-111678Y-27512D01*
X-111511Y-27259D01*
X-109631Y-25380D01*
X-109631Y-22247D01*
X-111501Y-20377D01*
X-111664Y-20135D01*
X-111724Y-19838D01*
X-111724Y-6032D01*
X-111668Y-5746D01*
X-111501Y-5493D01*
X-109974Y-3967D01*
X-109974Y-2139D01*
X-109927Y-1876D01*
X-109768Y-1618D01*
X-109520Y-1443D01*
X-109224Y-1377D01*
X-108926Y-1433D01*
X-108673Y-1601D01*
X-102542Y-7732D01*
X-61578Y-7732D01*
X-61297Y-7785D01*
X-61043Y-7951D01*
X-60874Y-8202D01*
X-60087Y-10101D01*
X-57901Y-12287D01*
X-55046Y-13470D01*
X-51954Y-13470D01*
X-49099Y-12287D01*
X-46913Y-10101D01*
X-46551Y-9228D01*
X-46411Y-9007D01*
X-46166Y-8827D01*
X-45871Y-8758D01*
X-45572Y-8808D01*
X-45317Y-8972D01*
X-45145Y-9222D01*
X-45085Y-9519D01*
X-45085Y-19681D01*
X-45130Y-19938D01*
X-45287Y-20198D01*
X-45533Y-20375D01*
X-45829Y-20443D01*
X-46127Y-20389D01*
X-46382Y-20224D01*
X-46551Y-19972D01*
X-46913Y-19099D01*
X-49099Y-16913D01*
X-51954Y-15730D01*
X-55046Y-15730D01*
X-57901Y-16913D01*
X-60087Y-19099D01*
X-61270Y-21954D01*
X-61270Y-25046D01*
X-60087Y-27901D01*
X-57901Y-30087D01*
X-55046Y-31270D01*
X-51954Y-31270D01*
X-49099Y-30087D01*
X-46913Y-27901D01*
X-46551Y-27028D01*
X-46411Y-26807D01*
X-46166Y-26627D01*
X-45871Y-26558D01*
X-45572Y-26608D01*
X-45317Y-26772D01*
X-45145Y-27022D01*
X-45085Y-27319D01*
X-45085Y-37481D01*
X-45130Y-37738D01*
X-45287Y-37998D01*
X-45533Y-38175D01*
X-45829Y-38243D01*
X-46127Y-38189D01*
X-46382Y-38024D01*
X-46551Y-37772D01*
X-46913Y-36899D01*
X-49099Y-34713D01*
X-51954Y-33530D01*
X-55046Y-33530D01*
X-57901Y-34713D01*
X-60087Y-36899D01*
X-61270Y-39754D01*
X-61270Y-42846D01*
X-60087Y-45701D01*
X-57901Y-47887D01*
X-55046Y-49070D01*
X-51954Y-49070D01*
X-49099Y-47887D01*
X-46913Y-45701D01*
X-46551Y-44828D01*
X-46411Y-44607D01*
X-46166Y-44427D01*
X-45871Y-44358D01*
X-45572Y-44408D01*
X-45317Y-44572D01*
X-45145Y-44822D01*
X-45085Y-45119D01*
X-45085Y-55281D01*
X-45130Y-55538D01*
X-45287Y-55798D01*
X-45533Y-55975D01*
X-45829Y-56043D01*
X-46127Y-55989D01*
X-46382Y-55824D01*
X-46551Y-55572D01*
X-46913Y-54699D01*
X-49099Y-52513D01*
X-51954Y-51330D01*
X-55046Y-51330D01*
X-57901Y-52513D01*
X-60087Y-54699D01*
X-61270Y-57554D01*
X-61270Y-60646D01*
X-60087Y-63501D01*
X-57901Y-65687D01*
X-55046Y-66870D01*
X-51954Y-66870D01*
X-49099Y-65687D01*
X-46913Y-63501D01*
X-46551Y-62628D01*
X-46411Y-62407D01*
X-46166Y-62227D01*
X-45871Y-62158D01*
X-45572Y-62208D01*
X-45317Y-62372D01*
X-45145Y-62622D01*
X-45085Y-62919D01*
X-45085Y-73081D01*
X-45130Y-73338D01*
X-45287Y-73598D01*
X-45533Y-73775D01*
X-45829Y-73843D01*
X-46127Y-73789D01*
X-46382Y-73624D01*
X-46551Y-73372D01*
X-46913Y-72499D01*
X-49099Y-70313D01*
X-51954Y-69130D01*
X-55046Y-69130D01*
X-57901Y-70313D01*
X-60087Y-72499D01*
X-61270Y-75354D01*
X-61270Y-78446D01*
X-60087Y-81301D01*
X-57901Y-83487D01*
X-55046Y-84670D01*
X-51954Y-84670D01*
X-49099Y-83487D01*
X-46913Y-81301D01*
X-46551Y-80428D01*
X-46411Y-80207D01*
X-46166Y-80027D01*
X-45871Y-79958D01*
X-45572Y-80008D01*
X-45317Y-80172D01*
X-45145Y-80422D01*
X-45085Y-80719D01*
X-45085Y-90098D01*
X-45076Y-90153D01*
X-45073Y-90154D01*
X-45033Y-90160D01*
X45023Y-90160D01*
X45078Y-90151D01*
X45079Y-90148D01*
X45085Y-90108D01*
X45085Y-74209D01*
X45132Y-73946D01*
X45291Y-73688D01*
X45539Y-73512D01*
X45835Y-73447D01*
X46133Y-73503D01*
X46386Y-73670D01*
X48379Y-75664D01*
X51702Y-77040D01*
X52738Y-77040D01*
X52738Y-67238D01*
X62540Y-67238D01*
X62540Y-66202D01*
X61164Y-62879D01*
X58621Y-60336D01*
X55676Y-59117D01*
X55451Y-58973D01*
X55274Y-58727D01*
X55206Y-58431D01*
X55259Y-58132D01*
X55425Y-57878D01*
X55676Y-57709D01*
X57901Y-56787D01*
X60087Y-54601D01*
X61270Y-51746D01*
X61270Y-48654D01*
X60087Y-45799D01*
X57901Y-43613D01*
X55046Y-42430D01*
X51954Y-42430D01*
X49099Y-43613D01*
X46913Y-45799D01*
X46551Y-46672D01*
X46411Y-46893D01*
X46166Y-47073D01*
X45871Y-47142D01*
X45572Y-47092D01*
X45317Y-46928D01*
X45145Y-46678D01*
X45085Y-46381D01*
X45085Y-36219D01*
X45130Y-35962D01*
X45287Y-35702D01*
X45533Y-35525D01*
X45829Y-35457D01*
X46127Y-35511D01*
X46382Y-35676D01*
X46551Y-35928D01*
X46913Y-36801D01*
X49099Y-38987D01*
X51954Y-40170D01*
X55046Y-40170D01*
X57901Y-38987D01*
X60087Y-36801D01*
X61270Y-33946D01*
X61270Y-30854D01*
X60087Y-27999D01*
X57901Y-25813D01*
X55046Y-24630D01*
X51954Y-24630D01*
X49099Y-25813D01*
X46913Y-27999D01*
X46551Y-28872D01*
X46411Y-29093D01*
X46166Y-29273D01*
X45871Y-29342D01*
X45572Y-29292D01*
X45317Y-29128D01*
X45145Y-28878D01*
X45085Y-28581D01*
X45085Y-18419D01*
X45130Y-18162D01*
X45287Y-17902D01*
X45533Y-17725D01*
X45829Y-17657D01*
X46127Y-17711D01*
X46382Y-17876D01*
X46551Y-18128D01*
X46913Y-19001D01*
X49099Y-21187D01*
X51954Y-22370D01*
X55046Y-22370D01*
X57901Y-21187D01*
X60087Y-19001D01*
X60663Y-17610D01*
X60820Y-17372D01*
X61070Y-17200D01*
X61367Y-17140D01*
X63132Y-17140D01*
X63418Y-17196D01*
X63671Y-17363D01*
X80437Y-34129D01*
X80600Y-34371D01*
X80660Y-34668D01*
X80660Y-75432D01*
X80604Y-75718D01*
X80437Y-75971D01*
X50271Y-106137D01*
X50030Y-106300D01*
X49732Y-106360D01*
X-172952Y-106360D01*
X-196197Y-129605D01*
X-196433Y-129766D01*
G37*
%LPC*%
G36*
X54262Y-77040D02*
X55298Y-77040D01*
X58621Y-75664D01*
X61164Y-73121D01*
X62540Y-69798D01*
X62540Y-68762D01*
X54262Y-68762D01*
X54262Y-77040D01*
G37*
%LPD*%
G36*
X-42237Y337336D02*
X-41276Y337000D01*
X-40413Y336458D01*
X-39692Y335737D01*
X-39150Y334874D01*
X-38814Y333913D01*
X-38700Y332903D01*
X-38700Y324897D01*
X-38814Y323887D01*
X-39150Y322926D01*
X-39692Y322063D01*
X-40413Y321342D01*
X-41276Y320800D01*
X-42237Y320464D01*
X-43250Y320350D01*
X-44263Y320464D01*
X-45224Y320800D01*
X-46087Y321342D01*
X-46808Y322063D01*
X-47350Y322926D01*
X-47686Y323887D01*
X-47800Y324897D01*
X-47800Y332903D01*
X-47686Y333913D01*
X-47350Y334874D01*
X-46808Y335737D01*
X-46087Y336458D01*
X-45224Y337000D01*
X-44263Y337336D01*
X-43250Y337450D01*
X-42237Y337336D01*
G37*
G36*
X-42237Y337336D02*
X-41276Y337000D01*
X-40413Y336458D01*
X-39692Y335737D01*
X-39150Y334874D01*
X-38814Y333913D01*
X-38700Y332903D01*
X-38700Y324897D01*
X-38814Y323887D01*
X-39150Y322926D01*
X-39692Y322063D01*
X-40413Y321342D01*
X-41276Y320800D01*
X-42237Y320464D01*
X-43250Y320350D01*
X-44263Y320464D01*
X-45224Y320800D01*
X-46087Y321342D01*
X-46808Y322063D01*
X-47350Y322926D01*
X-47686Y323887D01*
X-47800Y324897D01*
X-47800Y332903D01*
X-47686Y333913D01*
X-47350Y334874D01*
X-46808Y335737D01*
X-46087Y336458D01*
X-45224Y337000D01*
X-44263Y337336D01*
X-43250Y337450D01*
X-42237Y337336D01*
G37*
G36*
X44263Y337336D02*
X45224Y337000D01*
X46087Y336458D01*
X46808Y335737D01*
X47350Y334874D01*
X47686Y333913D01*
X47800Y332903D01*
X47800Y324897D01*
X47686Y323887D01*
X47350Y322926D01*
X46808Y322063D01*
X46087Y321342D01*
X45224Y320800D01*
X44263Y320464D01*
X43250Y320350D01*
X42237Y320464D01*
X41276Y320800D01*
X40413Y321342D01*
X39692Y322063D01*
X39150Y322926D01*
X38814Y323887D01*
X38700Y324897D01*
X38700Y332903D01*
X38814Y333913D01*
X39150Y334874D01*
X39692Y335737D01*
X40413Y336458D01*
X41276Y337000D01*
X42237Y337336D01*
X43250Y337450D01*
X44263Y337336D01*
G37*
G36*
X44263Y337336D02*
X45224Y337000D01*
X46087Y336458D01*
X46808Y335737D01*
X47350Y334874D01*
X47686Y333913D01*
X47800Y332903D01*
X47800Y324897D01*
X47686Y323887D01*
X47350Y322926D01*
X46808Y322063D01*
X46087Y321342D01*
X45224Y320800D01*
X44263Y320464D01*
X43250Y320350D01*
X42237Y320464D01*
X41276Y320800D01*
X40413Y321342D01*
X39692Y322063D01*
X39150Y322926D01*
X38814Y323887D01*
X38700Y324897D01*
X38700Y332903D01*
X38814Y333913D01*
X39150Y334874D01*
X39692Y335737D01*
X40413Y336458D01*
X41276Y337000D01*
X42237Y337336D01*
X43250Y337450D01*
X44263Y337336D01*
G37*
G36*
X-42237Y297136D02*
X-41276Y296800D01*
X-40413Y296258D01*
X-39692Y295537D01*
X-39150Y294674D01*
X-38814Y293713D01*
X-38700Y292703D01*
X-38700Y281697D01*
X-38814Y280687D01*
X-39150Y279726D01*
X-39692Y278863D01*
X-40413Y278142D01*
X-41276Y277600D01*
X-42237Y277264D01*
X-43250Y277150D01*
X-44263Y277264D01*
X-45224Y277600D01*
X-46087Y278142D01*
X-46808Y278863D01*
X-47350Y279726D01*
X-47686Y280687D01*
X-47800Y281697D01*
X-47800Y292703D01*
X-47686Y293713D01*
X-47350Y294674D01*
X-46808Y295537D01*
X-46087Y296258D01*
X-45224Y296800D01*
X-44263Y297136D01*
X-43250Y297250D01*
X-42237Y297136D01*
G37*
G36*
X-42237Y297136D02*
X-41276Y296800D01*
X-40413Y296258D01*
X-39692Y295537D01*
X-39150Y294674D01*
X-38814Y293713D01*
X-38700Y292703D01*
X-38700Y281697D01*
X-38814Y280687D01*
X-39150Y279726D01*
X-39692Y278863D01*
X-40413Y278142D01*
X-41276Y277600D01*
X-42237Y277264D01*
X-43250Y277150D01*
X-44263Y277264D01*
X-45224Y277600D01*
X-46087Y278142D01*
X-46808Y278863D01*
X-47350Y279726D01*
X-47686Y280687D01*
X-47800Y281697D01*
X-47800Y292703D01*
X-47686Y293713D01*
X-47350Y294674D01*
X-46808Y295537D01*
X-46087Y296258D01*
X-45224Y296800D01*
X-44263Y297136D01*
X-43250Y297250D01*
X-42237Y297136D01*
G37*
G36*
X44263Y297136D02*
X45224Y296800D01*
X46087Y296258D01*
X46808Y295537D01*
X47350Y294674D01*
X47686Y293713D01*
X47800Y292703D01*
X47800Y281697D01*
X47686Y280687D01*
X47350Y279726D01*
X46808Y278863D01*
X46087Y278142D01*
X45224Y277600D01*
X44263Y277264D01*
X43250Y277150D01*
X42237Y277264D01*
X41276Y277600D01*
X40413Y278142D01*
X39692Y278863D01*
X39150Y279726D01*
X38814Y280687D01*
X38700Y281697D01*
X38700Y292703D01*
X38814Y293713D01*
X39150Y294674D01*
X39692Y295537D01*
X40413Y296258D01*
X41276Y296800D01*
X42237Y297136D01*
X43250Y297250D01*
X44263Y297136D01*
G37*
G36*
X44263Y297136D02*
X45224Y296800D01*
X46087Y296258D01*
X46808Y295537D01*
X47350Y294674D01*
X47686Y293713D01*
X47800Y292703D01*
X47800Y281697D01*
X47686Y280687D01*
X47350Y279726D01*
X46808Y278863D01*
X46087Y278142D01*
X45224Y277600D01*
X44263Y277264D01*
X43250Y277150D01*
X42237Y277264D01*
X41276Y277600D01*
X40413Y278142D01*
X39692Y278863D01*
X39150Y279726D01*
X38814Y280687D01*
X38700Y281697D01*
X38700Y292703D01*
X38814Y293713D01*
X39150Y294674D01*
X39692Y295537D01*
X40413Y296258D01*
X41276Y296800D01*
X42237Y297136D01*
X43250Y297250D01*
X44263Y297136D01*
G37*
D10*
X-209000Y240000D03*
D11*
X159250Y275750D03*
X200750Y275750D03*
X159250Y254250D03*
X200750Y254250D03*
D12*
X-157500Y-70000D03*
D10*
X-157500Y-50000D03*
X-157500Y-30000D03*
X-157500Y-10000D03*
X-157500Y10000D03*
X-157500Y30000D03*
X-157500Y50000D03*
X-157500Y70000D03*
D12*
X193329Y88498D03*
D10*
X193329Y68498D03*
X193329Y48498D03*
X193329Y28498D03*
X193329Y8498D03*
X193329Y-11502D03*
D13*
G36*
X145046Y-55746D02*
X158577Y-60671D01*
X153652Y-74202D01*
X140121Y-69277D01*
X145046Y-55746D01*
G37*
D10*
X142509Y-83768D03*
X135668Y-102562D03*
X128828Y-121356D03*
X121987Y-140150D03*
X115147Y-158944D03*
D12*
X-100500Y-137500D03*
D10*
X-120500Y-137500D03*
X-140500Y-137500D03*
X-160500Y-137500D03*
X-180500Y-137500D03*
X-200500Y-137500D03*
X-209000Y200000D03*
D14*
X-43250Y287200D03*
X43250Y287200D03*
X-43250Y328900D03*
X43250Y328900D03*
D10*
X-209000Y220000D03*
X-209000Y180000D03*
X-209000Y160000D03*
X-209000Y140000D03*
X-209000Y120000D03*
D11*
X159250Y235750D03*
X200750Y235750D03*
X159250Y214250D03*
X200750Y214250D03*
D15*
X53500Y56600D03*
X53500Y38800D03*
X53500Y21000D03*
X53500Y3200D03*
X53500Y-14600D03*
X53500Y-32400D03*
X53500Y-50200D03*
X53500Y-68000D03*
X-53500Y-76900D03*
X-53500Y-59100D03*
X-53500Y-41300D03*
X-53500Y-23500D03*
X-53500Y-5700D03*
X-53500Y12100D03*
X-53500Y29900D03*
X-53500Y47700D03*
D16*
X-63500Y131840D03*
D17*
X-38100Y131840D03*
X-12700Y131840D03*
X12700Y131840D03*
X38100Y131840D03*
X63500Y131840D03*
D18*
X-145300Y206200D03*
D19*
X-127800Y188700D01*
X-127800Y-20300D01*
X-117000Y-31100D01*
X-86700Y-31100D01*
D18*
X-86700Y-31100D03*
D19*
X-149900Y-94300D01*
X-176800Y-94300D01*
X-200500Y-118000D01*
X-200500Y-137500D01*
X-171900Y-108900D01*
X51100Y-108900D01*
X83200Y-76800D01*
X83200Y-33300D01*
X64500Y-14600D01*
X53500Y-14600D01*
X61200Y-6900D01*
X96100Y-6900D01*
X101800Y-6900D01*
X109300Y600D01*
D18*
X109300Y600D03*
X115800Y78900D03*
D19*
X81477Y116623D02*
X68300Y129800D01*
X81477Y116623D02*
X92344Y116623D01*
X115800Y93167D02*
X115800Y78900D01*
X115800Y93167D02*
X92344Y116623D01*
X68300Y129800D02*
X66260Y131840D01*
X63500Y131840D01*
D18*
X81200Y271500D03*
D19*
X69000Y283700D01*
X69000Y321900D01*
D18*
X69000Y321900D03*
X195000Y294100D03*
X195100Y284100D03*
X170521Y248468D03*
X150200Y249022D03*
X139000Y231444D03*
X137349Y219844D03*
X154400Y200400D03*
X198017Y117600D03*
X168200Y83800D03*
X165700Y66000D03*
X188800Y-27100D03*
X130900Y-2400D03*
X108400Y-12900D03*
X111200Y-39200D03*
X154700Y-52600D03*
X137500Y-25000D03*
X137200Y48200D03*
X147400Y83600D03*
X122100Y61000D03*
X70600Y84200D03*
X73500Y42500D03*
X91419Y100D03*
X78100Y-16700D03*
X89000Y-45100D03*
X90900Y-17700D03*
X68700Y-30000D03*
X71300Y-62100D03*
X51300Y-85900D03*
X-21713Y-120287D03*
X-80100Y-129300D03*
X-88300Y-184500D03*
X-101687Y-125113D03*
X-90100Y-119700D03*
X-143378Y-113952D03*
X-159700Y-125200D03*
X-129900Y-45100D03*
X-145100Y-46300D03*
X-132852Y-18926D03*
X-145437Y-24363D03*
X-165100Y-19800D03*
X-137026Y16900D03*
X-145587Y15487D03*
X-139820Y40863D03*
X-145000Y30900D03*
X-142614Y51700D03*
X-194800Y80200D03*
X-100600Y164900D03*
X-158800Y177100D03*
X-182000Y148600D03*
X-190790Y163990D03*
X-176240Y178540D03*
X-200187Y168587D03*
X-183866Y183766D03*
X-195813Y185813D03*
X23800Y206700D03*
X59300Y213900D03*
X67400Y220800D03*
X76400Y228700D03*
X68700Y206200D03*
X76500Y213600D03*
X85300Y220300D03*
X76000Y196700D03*
X84500Y205800D03*
X91700Y212400D03*
X99200Y334700D03*
X142700Y299300D03*
X102600Y298600D03*
X140400Y335256D03*
X-25700Y332900D03*
X45200Y303700D03*
X13000Y252100D03*
X-47600Y254000D03*
X-71300Y273700D03*
X-61600Y313200D03*
X-55000Y290800D03*
X-203500Y339500D03*
X-211100Y287100D03*
X-156500Y289800D03*
X-124100Y341400D03*
X-189400Y272600D03*
X-169900Y273200D03*
X-178700Y258800D03*
X-195000Y249500D03*
X-134300Y254800D03*
X-150800Y232700D03*
X-115900Y161200D03*
X-155000Y87100D03*
X-75400Y94200D03*
X-7900Y91900D03*
X-97400Y82034D03*
X-87200Y37100D03*
X-66300Y40400D03*
X-49900Y78600D03*
X-104756Y31100D03*
X-86600Y18000D03*
X-103800Y-10300D03*
X-72900Y-15800D03*
X-63800Y-31200D03*
X-67600Y-52000D03*
X-76800Y-49900D03*
X-12800Y114200D03*
X14900Y95400D03*
X12083Y114583D03*
X29000Y107600D03*
X38900Y114300D03*
X52000Y109400D03*
X71200Y107900D03*
X50900Y143356D03*
X108100Y136300D03*
X96156Y140300D03*
X88600Y140100D03*
X96156Y132700D03*
X90492Y152612D03*
X74000Y164800D03*
X84000Y162600D03*
X-104400Y312500D03*
X-115500Y291800D03*
D20*
X200750Y254250D02*
X207100Y247900D01*
X207100Y246600D01*
X207100Y241000D01*
X207000Y240900D01*
D18*
X151312Y221756D03*
X156900Y221400D03*
X167600Y227300D03*
X125100Y255100D03*
X132300Y260200D03*
X84000Y279100D03*
X105529Y280568D03*
X114356Y190856D03*
X122100Y194600D03*
X-203800Y60800D03*
X-165300Y59900D03*
X-203400Y40000D03*
X-203500Y20000D03*
X-203600Y-100D03*
X-203600Y-20200D03*
X-203800Y-40100D03*
X-203500Y-60000D03*
X-118300Y-12500D03*
D20*
X-118300Y97914D01*
X-111814Y104400D01*
X-71400Y104400D01*
X-40140Y104400D01*
X-12700Y131840D01*
D18*
X55700Y101000D03*
D20*
X-102100Y101000D01*
X-109300Y93800D01*
X-109300Y1900D01*
X-102400Y-5000D01*
X-101700Y-5700D01*
X-53500Y-5700D01*
D18*
X-113756Y-2400D03*
D20*
X-113756Y-22244D01*
D18*
X-113413Y-23813D03*
D20*
X-113413Y-22587D02*
X-113756Y-22244D01*
X-113413Y-22587D02*
X-113413Y-23813D01*
D18*
X13100Y291100D03*
D20*
X13100Y296900D01*
X27850Y311650D01*
D18*
X27850Y311650D03*
D20*
X159250Y275750D02*
X200750Y275750D01*
X200750Y290600D01*
X200750Y301550D01*
X195300Y307000D01*
D18*
X195300Y307000D03*
D20*
X200750Y235750D02*
X159250Y235750D01*
D18*
X183300Y286862D03*
X164933Y164000D03*
D20*
X164933Y171966D01*
X169719Y176752D01*
X169719Y178824D01*
X183238Y286800D02*
X183300Y286862D01*
X183238Y286800D02*
X146526Y286800D01*
X159250Y235750D02*
X159250Y230950D01*
X159625Y188918D02*
X169719Y178824D01*
X159625Y188918D02*
X159625Y196481D01*
D21*
X146895Y225795D02*
X152050Y230950D01*
X159250Y230950D01*
X146895Y225795D02*
X146895Y214152D01*
X159625Y201422D02*
X159625Y196481D01*
X159625Y201422D02*
X146895Y214152D01*
X137800Y278074D02*
X146526Y286800D01*
X155050Y235750D02*
X159250Y235750D01*
X155050Y235750D02*
X146195Y244605D01*
X144170Y244605D01*
X137800Y250975D01*
X137800Y278074D01*
D18*
X65850Y77850D03*
D20*
X65850Y15550D01*
X53500Y3200D01*
D18*
X88100Y196500D03*
X106037Y175037D03*
D20*
X106037Y178563D02*
X88100Y196500D01*
X106037Y178563D02*
X106037Y175037D01*
D18*
X48722Y216122D03*
D21*
X60600Y228000D01*
X60600Y233000D01*
X60600Y233600D01*
X49200Y245000D01*
D18*
X48400Y249100D03*
D21*
X49200Y248300D01*
X49200Y245000D01*
D18*
X-163625Y257400D03*
D19*
X-87600Y181375D01*
X-87600Y138600D01*
X-87600Y112600D01*
X-84000Y109000D01*
D18*
X-84000Y109000D03*
X-84100Y93700D03*
D19*
X-84100Y84900D01*
X-82300Y83100D01*
D18*
X-82300Y82034D03*
D19*
X-82300Y83100D01*
D18*
X130400Y143700D03*
D20*
X134056Y140044D01*
X134056Y137018D01*
X137374Y133700D01*
X140800Y133700D01*
X146700Y133700D01*
X162300Y149300D01*
X173849Y149300D01*
X202561Y77730D02*
X193329Y68498D01*
X202561Y77730D02*
X202561Y120588D01*
X173849Y149300D01*
D18*
X138600Y138900D03*
D20*
X147500Y138900D01*
X161456Y152856D01*
X174244Y152856D01*
X207200Y119900D01*
X207200Y62300D01*
X193398Y48498D01*
X193329Y48498D01*
D18*
X164169Y190800D03*
X164169Y157641D03*
D20*
X175419Y183650D02*
X168269Y190800D01*
X164169Y190800D01*
X175419Y183650D02*
X175419Y162590D01*
X170469Y157641D01*
X164169Y157641D01*
D18*
X95551Y105771D03*
X103700Y80800D03*
D20*
X103700Y81200D01*
X95551Y89349D01*
X95551Y105771D01*
D18*
X82300Y109871D03*
X95356Y71843D03*
D20*
X95356Y71893D01*
X82300Y84949D01*
X82300Y109871D01*
D18*
X37200Y172002D03*
X-8800Y172002D03*
D20*
X37200Y172002D01*
X-191794Y142794D02*
X-209000Y160000D01*
X-191794Y142794D02*
X-188468Y142794D01*
X-167200Y121526D01*
X-167200Y117800D01*
X-167200Y116300D01*
X-210906Y72594D01*
X-210906Y72200D01*
X-210906Y-154694D01*
X-201500Y-164100D01*
X-78500Y-164100D01*
X-77900Y-164100D01*
X-67700Y-153900D01*
X-67700Y-138800D01*
D18*
X-67700Y-138800D03*
X-173700Y121600D03*
D20*
X-192100Y140000D01*
X-209000Y140000D01*
D18*
X-213700Y85600D03*
D20*
X-213700Y-186600D01*
X-206700Y-193600D01*
X-81000Y-193600D01*
X-70700Y-183300D01*
D18*
X-70700Y-183300D03*
X167444Y144112D03*
D20*
X167444Y91444D01*
X124100Y48100D01*
D18*
X124100Y48100D03*
X142300Y-133800D03*
D20*
X142300Y-116300D01*
X162300Y-96300D01*
X165800Y-92800D01*
X165800Y-40500D01*
D18*
X165800Y-40500D03*
X-142500Y179500D03*
D20*
X-178800Y215800D01*
X-187600Y215800D01*
D18*
X-187600Y215800D03*
M02*
