M48
;GenerationSoftware,Autodesk,EAGLE,9.7.0*%
;CreationDate,2025-09-16T08:33:21Z*%
FMAT,2
ICI,OFF
METRIC,TZ,000.000
T6C0.350
T5C0.600
T4C0.700
T3C0.800
T2C1.000
T1C2.200
%
G90
M71
T1
X-16000Y15000
X0Y-14000
X6000Y-16000
T2
X6350Y13184
X-3810Y13184
X-6350Y13184
X-1270Y13184
X1270Y13184
X3810Y13184
T3
X-15750Y-3000
X-15750Y-1000
X-15750Y1000
X-15750Y3000
X-15750Y5000
X-15750Y7000
X19333Y8850
X19333Y6850
X19333Y4850
X19333Y2850
X19333Y850
X19333Y-1150
X14935Y-6497
X14251Y-8377
X13567Y-10256
X12883Y-12136
X12199Y-14015
X11515Y-15894
X-10050Y-13750
X-12050Y-13750
X-14050Y-13750
X-16050Y-13750
X-18050Y-13750
X-20050Y-13750
X-20900Y20000
X-20900Y22000
X-20900Y18000
X-20900Y16000
X-20900Y14000
X-20900Y12000
X-20900Y24000
X-15750Y-7000
X-15750Y-5000
T4
X5350Y5660
X5350Y3880
X5350Y2100
X5350Y320
X5350Y-1460
X5350Y-3240
X5350Y-5020
X5350Y-6800
X-5350Y-7690
X-5350Y-5910
X-5350Y-4130
X-5350Y-2350
X-5350Y-570
X-5350Y1210
X-5350Y2990
X-5350Y4770
T5
X2890Y29210
X-2890Y29210
X4325Y32890
X4325Y28720
X-4325Y32890
X-4325Y28720
T6
X6870Y20620
X7650Y21360
X8530Y22030
X7600Y19670
X8450Y20580
X9170Y21240
X9920Y33470
X14270Y29930
X10260Y29860
X14040Y33526
X-2570Y33290
X4520Y30370
X1300Y25210
X-4760Y25400
X-7130Y27370
X-6160Y31320
X-5500Y29080
X-20350Y33950
X-21110Y28710
X-15650Y28980
X-12410Y34140
X-18940Y27260
X-16990Y27320
X-17870Y25880
X-19500Y24950
X-13430Y25480
X-15080Y23270
X-11590Y16120
X-15500Y8710
X-7540Y9420
X-790Y9190
X-9740Y8203
X-8720Y3710
X-6630Y4040
X-4990Y7860
X-10476Y3110
X-8660Y1800
X-10380Y-1030
X-7290Y-1580
X-6380Y-3120
X-6760Y-5200
X-7680Y-4990
X-1280Y11420
X1490Y9540
X1208Y11458
X2900Y10760
X3890Y11430
X5200Y10940
X7120Y10790
X5090Y14336
X10810Y13630
X9616Y14030
X8860Y14010
X9616Y13270
X9049Y15261
X7400Y16480
X8400Y16260
X9090Y-1770
X-11550Y29180
X15131Y22176
X15690Y22140
X16760Y22730
X12510Y25510
X13230Y26020
X8400Y27910
X10553Y28057
X11436Y19086
X12210Y19460
X-20380Y6080
X-16530Y5990
X-20340Y4000
X-20350Y2000
X-20360Y-10
X-20360Y-2020
X-20380Y-4010
X-20350Y-6000
X-11830Y-1250
X5570Y10100
X-11376Y-240
X-11341Y-2381
X1310Y29110
X2785Y31165
X19530Y30700
X18330Y28686
X16493Y16400
X6585Y7785
X8810Y19650
X10604Y17504
X4872Y21612
X4840Y24910
X-16362Y25740
X-8400Y10900
X-8410Y9370
X-8230Y8203
X13040Y14370
X13860Y13890
X16417Y19080
X16417Y15764
X9555Y10577
X10370Y8080
X8230Y10987
X9536Y7184
X3720Y17200
X-880Y17200
X-6770Y-13880
X-17370Y12160
X-21370Y8560
X-7070Y-18330
X16744Y14411
X12410Y4810
X14230Y-13380
X16580Y-4050
X-14250Y17950
X-18760Y21580
X-14530Y20620
X-8670Y-3110
X10930Y60
X11580Y7890
X8120Y27150
X6900Y32190
X19500Y29410
X19510Y28410
X17052Y24847
X15020Y24902
X13900Y23144
X13735Y21984
X15440Y20040
X19802Y11760
X16820Y8380
X16570Y6600
X18880Y-2710
X13090Y-240
X10840Y-1290
X11120Y-3920
X15470Y-5260
X13750Y-2500
X13720Y4820
X14740Y8360
X12210Y6100
X7060Y8420
X7350Y4250
X9142Y10
X7810Y-1670
X8900Y-4510
X6870Y-3000
X7130Y-6210
X5130Y-8590
X-10440Y31250
X-2171Y-12029
X-8010Y-12930
X-8830Y-18450
X-10169Y-12511
X-9010Y-11970
X-14338Y-11395
X-15970Y-12520
X-12990Y-4510
X-14510Y-4630
X-13285Y-1893
X-14544Y-2436
X-16510Y-1980
X-13703Y1690
X-14559Y1549
X-13982Y4086
X-14500Y3090
X-14261Y5170
X-19480Y8020
X-10060Y16490
X-15880Y17710
X-18200Y14860
X-19079Y16399
X-17624Y17854
X-20019Y16859
X-18387Y18377
X-19581Y18581
X2380Y20670
X5930Y21390
X6740Y22080
X7640Y22870
M30