G04 EAGLE Gerber RS-274X export*
G75*
%MOMM*%
%FSLAX34Y34*%
%LPD*%
%INSoldermask Top*%
%IPPOS*%
%AMOC8*
5,1,8,0,0,1.08239X$1,22.5*%
G01*
G04 Define Apertures*
%ADD10C,2.403200*%
%ADD11C,1.643200*%
%ADD12R,1.253200X0.853200*%
%ADD13R,1.643200X1.643200*%
%ADD14R,1.643200X1.643200*%
%ADD15C,0.803200*%
%ADD16C,1.503200*%
%ADD17R,2.003200X2.003200*%
%ADD18C,2.003200*%
%ADD19C,0.705600*%
G36*
X-42126Y337824D02*
X-41059Y337450D01*
X-40101Y336849D01*
X-39302Y336049D01*
X-38700Y335091D01*
X-38326Y334024D01*
X-38200Y332903D01*
X-38200Y324897D01*
X-38326Y323776D01*
X-38700Y322709D01*
X-39302Y321751D01*
X-40101Y320952D01*
X-41059Y320350D01*
X-42126Y319976D01*
X-43250Y319850D01*
X-44374Y319976D01*
X-45441Y320350D01*
X-46399Y320952D01*
X-47199Y321751D01*
X-47800Y322709D01*
X-48174Y323776D01*
X-48300Y324897D01*
X-48300Y332903D01*
X-48174Y334024D01*
X-47800Y335091D01*
X-47199Y336049D01*
X-46399Y336849D01*
X-45441Y337450D01*
X-44374Y337824D01*
X-43250Y337950D01*
X-42126Y337824D01*
G37*
G36*
X44374Y337824D02*
X45441Y337450D01*
X46399Y336849D01*
X47199Y336049D01*
X47800Y335091D01*
X48174Y334024D01*
X48300Y332903D01*
X48300Y324897D01*
X48174Y323776D01*
X47800Y322709D01*
X47199Y321751D01*
X46399Y320952D01*
X45441Y320350D01*
X44374Y319976D01*
X43250Y319850D01*
X42126Y319976D01*
X41059Y320350D01*
X40101Y320952D01*
X39302Y321751D01*
X38700Y322709D01*
X38326Y323776D01*
X38200Y324897D01*
X38200Y332903D01*
X38326Y334024D01*
X38700Y335091D01*
X39302Y336049D01*
X40101Y336849D01*
X41059Y337450D01*
X42126Y337824D01*
X43250Y337950D01*
X44374Y337824D01*
G37*
G36*
X-42126Y297624D02*
X-41059Y297250D01*
X-40101Y296649D01*
X-39302Y295849D01*
X-38700Y294891D01*
X-38326Y293824D01*
X-38200Y292703D01*
X-38200Y281697D01*
X-38326Y280576D01*
X-38700Y279509D01*
X-39302Y278551D01*
X-40101Y277752D01*
X-41059Y277150D01*
X-42126Y276776D01*
X-43250Y276650D01*
X-44374Y276776D01*
X-45441Y277150D01*
X-46399Y277752D01*
X-47199Y278551D01*
X-47800Y279509D01*
X-48174Y280576D01*
X-48300Y281697D01*
X-48300Y292703D01*
X-48174Y293824D01*
X-47800Y294891D01*
X-47199Y295849D01*
X-46399Y296649D01*
X-45441Y297250D01*
X-44374Y297624D01*
X-43250Y297750D01*
X-42126Y297624D01*
G37*
G36*
X44374Y297624D02*
X45441Y297250D01*
X46399Y296649D01*
X47199Y295849D01*
X47800Y294891D01*
X48174Y293824D01*
X48300Y292703D01*
X48300Y281697D01*
X48174Y280576D01*
X47800Y279509D01*
X47199Y278551D01*
X46399Y277752D01*
X45441Y277150D01*
X44374Y276776D01*
X43250Y276650D01*
X42137Y276764D01*
X41076Y277123D01*
X40122Y277709D01*
X39322Y278493D01*
X38717Y279435D01*
X38336Y280488D01*
X38200Y281597D01*
X38200Y292603D01*
X38316Y293736D01*
X38683Y294817D01*
X39281Y295791D01*
X40081Y296606D01*
X41042Y297223D01*
X42116Y297611D01*
X43250Y297750D01*
X44374Y297624D01*
G37*
D10*
X-160000Y150000D03*
X0Y-140000D03*
X60000Y-160000D03*
D11*
X-209000Y240000D03*
D12*
X159250Y275750D03*
X200750Y275750D03*
X159250Y254250D03*
X200750Y254250D03*
D13*
X-157500Y-70000D03*
D11*
X-157500Y-50000D03*
X-157500Y-30000D03*
X-157500Y-10000D03*
X-157500Y10000D03*
X-157500Y30000D03*
X-157500Y50000D03*
X-157500Y70000D03*
D13*
X193329Y88498D03*
D11*
X193329Y68498D03*
X193329Y48498D03*
X193329Y28498D03*
X193329Y8498D03*
X193329Y-11502D03*
D14*
G36*
X144439Y-54444D02*
X159879Y-60064D01*
X154259Y-75504D01*
X138819Y-69884D01*
X144439Y-54444D01*
G37*
D11*
X142509Y-83768D03*
X135668Y-102562D03*
X128828Y-121356D03*
X121987Y-140150D03*
X115147Y-158944D03*
D13*
X-100500Y-137500D03*
D11*
X-120500Y-137500D03*
X-140500Y-137500D03*
X-160500Y-137500D03*
X-180500Y-137500D03*
X-200500Y-137500D03*
X-209000Y200000D03*
D15*
X-28900Y292100D03*
X28900Y292100D03*
D11*
X-209000Y220000D03*
X-209000Y180000D03*
X-209000Y160000D03*
X-209000Y140000D03*
X-209000Y120000D03*
D12*
X159250Y235750D03*
X200750Y235750D03*
X159250Y214250D03*
X200750Y214250D03*
D16*
X53500Y56600D03*
X53500Y38800D03*
X53500Y21000D03*
X53500Y3200D03*
X53500Y-14600D03*
X53500Y-32400D03*
X53500Y-50200D03*
X53500Y-68000D03*
X-53500Y-76900D03*
X-53500Y-59100D03*
X-53500Y-41300D03*
X-53500Y-23500D03*
X-53500Y-5700D03*
X-53500Y12100D03*
X-53500Y29900D03*
X-53500Y47700D03*
D17*
X-63500Y131840D03*
D18*
X-38100Y131840D03*
X-12700Y131840D03*
X12700Y131840D03*
X38100Y131840D03*
X63500Y131840D03*
D19*
X-145300Y206200D03*
X-86700Y-31100D03*
X109300Y600D03*
X115800Y78900D03*
X81200Y271500D03*
X69000Y321900D03*
X195000Y294100D03*
X195100Y284100D03*
X170521Y248468D03*
X150200Y249022D03*
X139000Y231444D03*
X137349Y219844D03*
X154400Y200400D03*
X198017Y117600D03*
X168200Y83800D03*
X165700Y66000D03*
X188800Y-27100D03*
X130900Y-2400D03*
X108400Y-12900D03*
X111200Y-39200D03*
X154700Y-52600D03*
X137500Y-25000D03*
X137200Y48200D03*
X147400Y83600D03*
X122100Y61000D03*
X70600Y84200D03*
X73500Y42500D03*
X91419Y100D03*
X78100Y-16700D03*
X89000Y-45100D03*
X90900Y-17700D03*
X68700Y-30000D03*
X71300Y-62100D03*
X51300Y-85900D03*
X-21713Y-120287D03*
X-80100Y-129300D03*
X-88300Y-184500D03*
X-101687Y-125113D03*
X-90100Y-119700D03*
X-143378Y-113952D03*
X-159700Y-125200D03*
X-129900Y-45100D03*
X-145100Y-46300D03*
X-132852Y-18926D03*
X-145437Y-24363D03*
X-165100Y-19800D03*
X-137026Y16900D03*
X-145587Y15487D03*
X-139820Y40863D03*
X-145000Y30900D03*
X-142614Y51700D03*
X-194800Y80200D03*
X-100600Y164900D03*
X-158800Y177100D03*
X-182000Y148600D03*
X-190790Y163990D03*
X-176240Y178540D03*
X-200187Y168587D03*
X-183866Y183766D03*
X-195813Y185813D03*
X23800Y206700D03*
X59300Y213900D03*
X67400Y220800D03*
X76400Y228700D03*
X68700Y206200D03*
X76500Y213600D03*
X85300Y220300D03*
X76000Y196700D03*
X84500Y205800D03*
X91700Y212400D03*
X99200Y334700D03*
X142700Y299300D03*
X102600Y298600D03*
X140400Y335256D03*
X-25700Y332900D03*
X45200Y303700D03*
X13000Y252100D03*
X-47600Y254000D03*
X-71300Y273700D03*
X-61600Y313200D03*
X-55000Y290800D03*
X-203500Y339500D03*
X-211100Y287100D03*
X-156500Y289800D03*
X-124100Y341400D03*
X-189400Y272600D03*
X-169900Y273200D03*
X-178700Y258800D03*
X-195000Y249500D03*
X-134300Y254800D03*
X-150800Y232700D03*
X-115900Y161200D03*
X-155000Y87100D03*
X-75400Y94200D03*
X-7900Y91900D03*
X-97400Y82034D03*
X-87200Y37100D03*
X-66300Y40400D03*
X-49900Y78600D03*
X-104756Y31100D03*
X-86600Y18000D03*
X-103800Y-10300D03*
X-72900Y-15800D03*
X-63800Y-31200D03*
X-67600Y-52000D03*
X-76800Y-49900D03*
X-12800Y114200D03*
X14900Y95400D03*
X12083Y114583D03*
X29000Y107600D03*
X38900Y114300D03*
X52000Y109400D03*
X71200Y107900D03*
X50900Y143356D03*
X108100Y136300D03*
X96156Y140300D03*
X88600Y140100D03*
X96156Y132700D03*
X90492Y152612D03*
X74000Y164800D03*
X84000Y162600D03*
X-104400Y312500D03*
X-115500Y291800D03*
X151312Y221756D03*
X156900Y221400D03*
X167600Y227300D03*
X125100Y255100D03*
X132300Y260200D03*
X84000Y279100D03*
X105529Y280568D03*
X114356Y190856D03*
X122100Y194600D03*
X-203800Y60800D03*
X-165300Y59900D03*
X-203400Y40000D03*
X-203500Y20000D03*
X-203600Y-100D03*
X-203600Y-20200D03*
X-203800Y-40100D03*
X-203500Y-60000D03*
X-118300Y-12500D03*
X55700Y101000D03*
X-113756Y-2400D03*
X-113413Y-23813D03*
X13100Y291100D03*
X27850Y311650D03*
X195300Y307000D03*
X183300Y286862D03*
X164933Y164000D03*
X65850Y77850D03*
X88100Y196500D03*
X106037Y175037D03*
X48722Y216122D03*
X48400Y249100D03*
X-163625Y257400D03*
X-84000Y109000D03*
X-84100Y93700D03*
X-82300Y82034D03*
X130400Y143700D03*
X138600Y138900D03*
X164169Y190800D03*
X164169Y157641D03*
X95551Y105771D03*
X103700Y80800D03*
X82300Y109871D03*
X95356Y71843D03*
X37200Y172002D03*
X-8800Y172002D03*
X-67700Y-138800D03*
X-173700Y121600D03*
X-213700Y85600D03*
X-70700Y-183300D03*
X167444Y144112D03*
X124100Y48100D03*
X142300Y-133800D03*
X165800Y-40500D03*
X-142500Y179500D03*
X-187600Y215800D03*
M02*
