G04 EAGLE Gerber RS-274X export*
G75*
%MOMM*%
%FSLAX34Y34*%
%LPD*%
%INSolderpaste Bottom*%
%IPPOS*%
%AMOC8*
5,1,8,0,0,1.08239X$1,22.5*%
G01*
G04 Define Apertures*
%ADD10R,0.629100X0.560000*%
%ADD11R,0.560000X0.629100*%
%ADD12R,4.000000X1.000000*%
%ADD13R,1.000000X4.000000*%
%ADD14R,1.220000X0.910000*%
%ADD15R,0.600000X1.140000*%
%ADD16R,0.300000X1.140000*%
%ADD17R,0.611800X0.911800*%
%ADD18C,0.150000*%
%ADD19R,0.644000X0.535100*%
%ADD20R,0.535100X0.644000*%
%ADD21R,1.200000X0.700000*%
%ADD22R,0.558800X1.422400*%
%ADD23R,1.960000X1.960000*%
%ADD24C,0.050000*%
%ADD25C,0.139500*%
%ADD26C,0.196500*%
%ADD27C,0.145000*%
%ADD28R,1.200000X1.400000*%
D10*
X75900Y21054D03*
X75900Y30746D03*
D11*
G36*
X46816Y265223D02*
X50776Y261263D01*
X46330Y256817D01*
X42370Y260777D01*
X46816Y265223D01*
G37*
G36*
X39962Y272077D02*
X43922Y268117D01*
X39476Y263671D01*
X35516Y267631D01*
X39962Y272077D01*
G37*
G36*
X114317Y153246D02*
X110357Y157206D01*
X114803Y161652D01*
X118763Y157692D01*
X114317Y153246D01*
G37*
G36*
X121170Y146393D02*
X117210Y150353D01*
X121656Y154799D01*
X125616Y150839D01*
X121170Y146393D01*
G37*
G36*
X97559Y269048D02*
X93599Y265088D01*
X89153Y269534D01*
X93113Y273494D01*
X97559Y269048D01*
G37*
G36*
X104412Y275901D02*
X100452Y271941D01*
X96006Y276387D01*
X99966Y280347D01*
X104412Y275901D01*
G37*
G36*
X117776Y240230D02*
X113816Y236270D01*
X109370Y240716D01*
X113330Y244676D01*
X117776Y240230D01*
G37*
G36*
X124630Y247084D02*
X120670Y243124D01*
X116224Y247570D01*
X120184Y251530D01*
X124630Y247084D01*
G37*
G36*
X115331Y162925D02*
X111371Y166885D01*
X115817Y171331D01*
X119777Y167371D01*
X115331Y162925D01*
G37*
G36*
X122185Y156071D02*
X118225Y160031D01*
X122671Y164477D01*
X126631Y160517D01*
X122185Y156071D01*
G37*
X26546Y174323D03*
X16854Y174323D03*
X14446Y211000D03*
X4754Y211000D03*
G36*
X43570Y257676D02*
X47530Y253716D01*
X43084Y249270D01*
X39124Y253230D01*
X43570Y257676D01*
G37*
G36*
X36716Y264530D02*
X40676Y260570D01*
X36230Y256124D01*
X32270Y260084D01*
X36716Y264530D01*
G37*
X14646Y221900D03*
X4954Y221900D03*
G36*
X143670Y154376D02*
X147630Y150416D01*
X143184Y145970D01*
X139224Y149930D01*
X143670Y154376D01*
G37*
G36*
X136816Y161230D02*
X140776Y157270D01*
X136330Y152824D01*
X132370Y156784D01*
X136816Y161230D01*
G37*
D10*
X75800Y9646D03*
X75800Y-46D03*
D11*
G36*
X132224Y205370D02*
X136184Y209330D01*
X140630Y204884D01*
X136670Y200924D01*
X132224Y205370D01*
G37*
G36*
X125370Y198516D02*
X129330Y202476D01*
X133776Y198030D01*
X129816Y194070D01*
X125370Y198516D01*
G37*
G36*
X26870Y241876D02*
X30830Y237916D01*
X26384Y233470D01*
X22424Y237430D01*
X26870Y241876D01*
G37*
G36*
X20016Y248730D02*
X23976Y244770D01*
X19530Y240324D01*
X15570Y244284D01*
X20016Y248730D01*
G37*
X-207846Y265400D03*
X-198154Y265400D03*
G36*
X69045Y-102601D02*
X70960Y-97340D01*
X76869Y-99491D01*
X74954Y-104752D01*
X69045Y-102601D01*
G37*
G36*
X65731Y-111709D02*
X67646Y-106448D01*
X73555Y-108599D01*
X71640Y-113860D01*
X65731Y-111709D01*
G37*
X70946Y332700D03*
X61254Y332700D03*
X-75246Y82400D03*
X-65554Y82400D03*
D10*
X-95700Y31146D03*
X-95700Y21454D03*
D11*
X-99346Y326200D03*
X-89654Y326200D03*
X-97646Y285700D03*
X-87954Y285700D03*
G36*
X21570Y236476D02*
X25530Y232516D01*
X21084Y228070D01*
X17124Y232030D01*
X21570Y236476D01*
G37*
G36*
X14716Y243330D02*
X18676Y239370D01*
X14230Y234924D01*
X10270Y238884D01*
X14716Y243330D01*
G37*
D12*
X-187500Y-70000D03*
X-187500Y-50000D03*
X-187500Y-30000D03*
X-187500Y-10000D03*
X-187500Y10000D03*
X-187500Y30000D03*
X-187500Y50000D03*
X-187500Y70000D03*
G36*
X104075Y-43176D02*
X141661Y-56855D01*
X138241Y-66252D01*
X100655Y-52573D01*
X104075Y-43176D01*
G37*
G36*
X97235Y-61970D02*
X134821Y-75649D01*
X131401Y-85046D01*
X93815Y-71367D01*
X97235Y-61970D01*
G37*
G36*
X90394Y-80763D02*
X127980Y-94442D01*
X124560Y-103839D01*
X86974Y-90160D01*
X90394Y-80763D01*
G37*
G36*
X83554Y-99557D02*
X121140Y-113236D01*
X117720Y-122633D01*
X80134Y-108954D01*
X83554Y-99557D01*
G37*
G36*
X76714Y-118351D02*
X114300Y-132030D01*
X110880Y-141427D01*
X73294Y-127748D01*
X76714Y-118351D01*
G37*
G36*
X69873Y-137145D02*
X107459Y-150824D01*
X104039Y-160221D01*
X66453Y-146542D01*
X69873Y-137145D01*
G37*
D13*
X-100500Y-167500D03*
X-120500Y-167500D03*
X-140500Y-167500D03*
X-160500Y-167500D03*
X-180500Y-167500D03*
X-200500Y-167500D03*
D14*
X-67300Y-154150D03*
X-67300Y-121450D03*
D15*
X-32000Y281400D03*
X-24000Y281400D03*
D16*
X-2500Y281400D03*
X-7500Y281400D03*
X-12500Y281400D03*
X-17500Y281400D03*
X2500Y281400D03*
X7500Y281400D03*
X12500Y281400D03*
X17500Y281400D03*
D15*
X24000Y281400D03*
X32000Y281400D03*
D17*
X-76800Y339800D03*
X-61800Y339800D03*
D18*
X107050Y22800D02*
X107050Y12000D01*
X107050Y22800D02*
X111550Y22800D01*
X111550Y12000D01*
X107050Y12000D01*
X107050Y13425D02*
X111550Y13425D01*
X111550Y14850D02*
X107050Y14850D01*
X107050Y16275D02*
X111550Y16275D01*
X111550Y17700D02*
X107050Y17700D01*
X107050Y19125D02*
X111550Y19125D01*
X111550Y20550D02*
X107050Y20550D01*
X107050Y21975D02*
X111550Y21975D01*
X116550Y1600D02*
X116550Y-9200D01*
X116550Y1600D02*
X121050Y1600D01*
X121050Y-9200D01*
X116550Y-9200D01*
X116550Y-7775D02*
X121050Y-7775D01*
X121050Y-6350D02*
X116550Y-6350D01*
X116550Y-4925D02*
X121050Y-4925D01*
X121050Y-3500D02*
X116550Y-3500D01*
X116550Y-2075D02*
X121050Y-2075D01*
X121050Y-650D02*
X116550Y-650D01*
X116550Y775D02*
X121050Y775D01*
X126050Y12000D02*
X126050Y22800D01*
X130550Y22800D01*
X130550Y12000D01*
X126050Y12000D01*
X126050Y13425D02*
X130550Y13425D01*
X130550Y14850D02*
X126050Y14850D01*
X126050Y16275D02*
X130550Y16275D01*
X130550Y17700D02*
X126050Y17700D01*
X126050Y19125D02*
X130550Y19125D01*
X130550Y20550D02*
X126050Y20550D01*
X126050Y21975D02*
X130550Y21975D01*
X-157550Y208800D02*
X-157550Y219600D01*
X-157550Y208800D02*
X-162050Y208800D01*
X-162050Y219600D01*
X-157550Y219600D01*
X-157550Y210225D02*
X-162050Y210225D01*
X-162050Y211650D02*
X-157550Y211650D01*
X-157550Y213075D02*
X-162050Y213075D01*
X-162050Y214500D02*
X-157550Y214500D01*
X-157550Y215925D02*
X-162050Y215925D01*
X-162050Y217350D02*
X-157550Y217350D01*
X-157550Y218775D02*
X-162050Y218775D01*
X-167050Y230000D02*
X-167050Y240800D01*
X-167050Y230000D02*
X-171550Y230000D01*
X-171550Y240800D01*
X-167050Y240800D01*
X-167050Y231425D02*
X-171550Y231425D01*
X-171550Y232850D02*
X-167050Y232850D01*
X-167050Y234275D02*
X-171550Y234275D01*
X-171550Y235700D02*
X-167050Y235700D01*
X-167050Y237125D02*
X-171550Y237125D01*
X-171550Y238550D02*
X-167050Y238550D01*
X-167050Y239975D02*
X-171550Y239975D01*
X-176550Y219600D02*
X-176550Y208800D01*
X-181050Y208800D01*
X-181050Y219600D01*
X-176550Y219600D01*
X-176550Y210225D02*
X-181050Y210225D01*
X-181050Y211650D02*
X-176550Y211650D01*
X-176550Y213075D02*
X-181050Y213075D01*
X-181050Y214500D02*
X-176550Y214500D01*
X-176550Y215925D02*
X-181050Y215925D01*
X-181050Y217350D02*
X-176550Y217350D01*
X-176550Y218775D02*
X-181050Y218775D01*
D19*
X-77600Y30275D03*
X-77600Y20125D03*
D20*
G36*
X120426Y168521D02*
X116643Y172304D01*
X121196Y176857D01*
X124979Y173074D01*
X120426Y168521D01*
G37*
G36*
X127604Y161343D02*
X123821Y165126D01*
X128374Y169679D01*
X132157Y165896D01*
X127604Y161343D01*
G37*
X123875Y33500D03*
X113725Y33500D03*
D19*
X141100Y-14375D03*
X141100Y-4225D03*
D20*
X-173575Y200300D03*
X-163425Y200300D03*
X-173775Y248700D03*
X-163625Y248700D03*
D19*
X185300Y293525D03*
X185300Y303675D03*
X-74800Y-41975D03*
X-74800Y-31825D03*
D20*
X-33625Y268100D03*
X-43775Y268100D03*
D19*
X57000Y311625D03*
X57000Y321775D03*
X185500Y312725D03*
X185500Y322875D03*
X176400Y322625D03*
X176400Y332775D03*
D20*
G36*
X37974Y252579D02*
X41757Y248796D01*
X37204Y244243D01*
X33421Y248026D01*
X37974Y252579D01*
G37*
G36*
X30796Y259757D02*
X34579Y255974D01*
X30026Y251421D01*
X26243Y255204D01*
X30796Y259757D01*
G37*
G36*
X32574Y247079D02*
X36357Y243296D01*
X31804Y238743D01*
X28021Y242526D01*
X32574Y247079D01*
G37*
G36*
X25396Y254257D02*
X29179Y250474D01*
X24626Y245921D01*
X20843Y249704D01*
X25396Y254257D01*
G37*
X-67425Y324500D03*
X-77575Y324500D03*
D21*
X-95700Y302000D03*
X-58700Y302000D03*
D22*
X-95400Y68044D03*
X-85900Y68044D03*
X-76400Y68044D03*
X-76400Y45156D03*
X-95400Y45156D03*
D23*
G36*
X62541Y213900D02*
X76400Y227759D01*
X90259Y213900D01*
X76400Y200041D01*
X62541Y213900D01*
G37*
D24*
X115751Y210258D02*
X116812Y211319D01*
X122397Y205734D01*
X121336Y204673D01*
X115751Y210258D01*
X120861Y205148D02*
X121811Y205148D01*
X122286Y205623D02*
X120386Y205623D01*
X119911Y206098D02*
X122033Y206098D01*
X121558Y206573D02*
X119436Y206573D01*
X118961Y207048D02*
X121083Y207048D01*
X120608Y207523D02*
X118486Y207523D01*
X118011Y207998D02*
X120133Y207998D01*
X119658Y208473D02*
X117536Y208473D01*
X117061Y208948D02*
X119183Y208948D01*
X118708Y209423D02*
X116586Y209423D01*
X116111Y209898D02*
X118233Y209898D01*
X117758Y210373D02*
X115866Y210373D01*
X116341Y210848D02*
X117283Y210848D01*
X113983Y208490D02*
X112922Y207429D01*
X113983Y208490D02*
X119568Y202905D01*
X118507Y201844D01*
X112922Y207429D01*
X118032Y202319D02*
X118982Y202319D01*
X119457Y202794D02*
X117557Y202794D01*
X117082Y203269D02*
X119204Y203269D01*
X118729Y203744D02*
X116607Y203744D01*
X116132Y204219D02*
X118254Y204219D01*
X117779Y204694D02*
X115657Y204694D01*
X115182Y205169D02*
X117304Y205169D01*
X116829Y205644D02*
X114707Y205644D01*
X114232Y206119D02*
X116354Y206119D01*
X115879Y206594D02*
X113757Y206594D01*
X113282Y207069D02*
X115404Y207069D01*
X114929Y207544D02*
X113037Y207544D01*
X113512Y208019D02*
X114454Y208019D01*
X111155Y205662D02*
X110094Y204601D01*
X111155Y205662D02*
X116740Y200077D01*
X115679Y199016D01*
X110094Y204601D01*
X115204Y199491D02*
X116154Y199491D01*
X116629Y199966D02*
X114729Y199966D01*
X114254Y200441D02*
X116376Y200441D01*
X115901Y200916D02*
X113779Y200916D01*
X113304Y201391D02*
X115426Y201391D01*
X114951Y201866D02*
X112829Y201866D01*
X112354Y202341D02*
X114476Y202341D01*
X114001Y202816D02*
X111879Y202816D01*
X111404Y203291D02*
X113526Y203291D01*
X113051Y203766D02*
X110929Y203766D01*
X110454Y204241D02*
X112576Y204241D01*
X112101Y204716D02*
X110209Y204716D01*
X110684Y205191D02*
X111626Y205191D01*
X108327Y202833D02*
X107266Y201772D01*
X108327Y202833D02*
X113912Y197248D01*
X112851Y196187D01*
X107266Y201772D01*
X112376Y196662D02*
X113326Y196662D01*
X113801Y197137D02*
X111901Y197137D01*
X111426Y197612D02*
X113548Y197612D01*
X113073Y198087D02*
X110951Y198087D01*
X110476Y198562D02*
X112598Y198562D01*
X112123Y199037D02*
X110001Y199037D01*
X109526Y199512D02*
X111648Y199512D01*
X111173Y199987D02*
X109051Y199987D01*
X108576Y200462D02*
X110698Y200462D01*
X110223Y200937D02*
X108101Y200937D01*
X107626Y201412D02*
X109748Y201412D01*
X109273Y201887D02*
X107381Y201887D01*
X107856Y202362D02*
X108798Y202362D01*
X105498Y200005D02*
X104437Y198944D01*
X105498Y200005D02*
X111083Y194420D01*
X110022Y193359D01*
X104437Y198944D01*
X109547Y193834D02*
X110497Y193834D01*
X110972Y194309D02*
X109072Y194309D01*
X108597Y194784D02*
X110719Y194784D01*
X110244Y195259D02*
X108122Y195259D01*
X107647Y195734D02*
X109769Y195734D01*
X109294Y196209D02*
X107172Y196209D01*
X106697Y196684D02*
X108819Y196684D01*
X108344Y197159D02*
X106222Y197159D01*
X105747Y197634D02*
X107869Y197634D01*
X107394Y198109D02*
X105272Y198109D01*
X104797Y198584D02*
X106919Y198584D01*
X106444Y199059D02*
X104552Y199059D01*
X105027Y199534D02*
X105969Y199534D01*
X102670Y197177D02*
X101609Y196116D01*
X102670Y197177D02*
X108255Y191592D01*
X107194Y190531D01*
X101609Y196116D01*
X106719Y191006D02*
X107669Y191006D01*
X108144Y191481D02*
X106244Y191481D01*
X105769Y191956D02*
X107891Y191956D01*
X107416Y192431D02*
X105294Y192431D01*
X104819Y192906D02*
X106941Y192906D01*
X106466Y193381D02*
X104344Y193381D01*
X103869Y193856D02*
X105991Y193856D01*
X105516Y194331D02*
X103394Y194331D01*
X102919Y194806D02*
X105041Y194806D01*
X104566Y195281D02*
X102444Y195281D01*
X101969Y195756D02*
X104091Y195756D01*
X103616Y196231D02*
X101724Y196231D01*
X102199Y196706D02*
X103141Y196706D01*
X99841Y194348D02*
X98780Y193287D01*
X99841Y194348D02*
X105426Y188763D01*
X104365Y187702D01*
X98780Y193287D01*
X103890Y188177D02*
X104840Y188177D01*
X105315Y188652D02*
X103415Y188652D01*
X102940Y189127D02*
X105062Y189127D01*
X104587Y189602D02*
X102465Y189602D01*
X101990Y190077D02*
X104112Y190077D01*
X103637Y190552D02*
X101515Y190552D01*
X101040Y191027D02*
X103162Y191027D01*
X102687Y191502D02*
X100565Y191502D01*
X100090Y191977D02*
X102212Y191977D01*
X101737Y192452D02*
X99615Y192452D01*
X99140Y192927D02*
X101262Y192927D01*
X100787Y193402D02*
X98895Y193402D01*
X99370Y193877D02*
X100312Y193877D01*
X97013Y191520D02*
X95952Y190459D01*
X97013Y191520D02*
X102598Y185935D01*
X101537Y184874D01*
X95952Y190459D01*
X101062Y185349D02*
X102012Y185349D01*
X102487Y185824D02*
X100587Y185824D01*
X100112Y186299D02*
X102234Y186299D01*
X101759Y186774D02*
X99637Y186774D01*
X99162Y187249D02*
X101284Y187249D01*
X100809Y187724D02*
X98687Y187724D01*
X98212Y188199D02*
X100334Y188199D01*
X99859Y188674D02*
X97737Y188674D01*
X97262Y189149D02*
X99384Y189149D01*
X98909Y189624D02*
X96787Y189624D01*
X96312Y190099D02*
X98434Y190099D01*
X97959Y190574D02*
X96067Y190574D01*
X96542Y191049D02*
X97484Y191049D01*
X94185Y188691D02*
X93124Y187630D01*
X94185Y188691D02*
X99770Y183106D01*
X98709Y182045D01*
X93124Y187630D01*
X98234Y182520D02*
X99184Y182520D01*
X99659Y182995D02*
X97759Y182995D01*
X97284Y183470D02*
X99406Y183470D01*
X98931Y183945D02*
X96809Y183945D01*
X96334Y184420D02*
X98456Y184420D01*
X97981Y184895D02*
X95859Y184895D01*
X95384Y185370D02*
X97506Y185370D01*
X97031Y185845D02*
X94909Y185845D01*
X94434Y186320D02*
X96556Y186320D01*
X96081Y186795D02*
X93959Y186795D01*
X93484Y187270D02*
X95606Y187270D01*
X95131Y187745D02*
X93239Y187745D01*
X93714Y188220D02*
X94656Y188220D01*
X91356Y185863D02*
X90295Y184802D01*
X91356Y185863D02*
X96941Y180278D01*
X95880Y179217D01*
X90295Y184802D01*
X95405Y179692D02*
X96355Y179692D01*
X96830Y180167D02*
X94930Y180167D01*
X94455Y180642D02*
X96577Y180642D01*
X96102Y181117D02*
X93980Y181117D01*
X93505Y181592D02*
X95627Y181592D01*
X95152Y182067D02*
X93030Y182067D01*
X92555Y182542D02*
X94677Y182542D01*
X94202Y183017D02*
X92080Y183017D01*
X91605Y183492D02*
X93727Y183492D01*
X93252Y183967D02*
X91130Y183967D01*
X90655Y184442D02*
X92777Y184442D01*
X92302Y184917D02*
X90410Y184917D01*
X90885Y185392D02*
X91827Y185392D01*
X88528Y183034D02*
X87467Y181973D01*
X88528Y183034D02*
X94113Y177449D01*
X93052Y176388D01*
X87467Y181973D01*
X92577Y176863D02*
X93527Y176863D01*
X94002Y177338D02*
X92102Y177338D01*
X91627Y177813D02*
X93749Y177813D01*
X93274Y178288D02*
X91152Y178288D01*
X90677Y178763D02*
X92799Y178763D01*
X92324Y179238D02*
X90202Y179238D01*
X89727Y179713D02*
X91849Y179713D01*
X91374Y180188D02*
X89252Y180188D01*
X88777Y180663D02*
X90899Y180663D01*
X90424Y181138D02*
X88302Y181138D01*
X87827Y181613D02*
X89949Y181613D01*
X89474Y182088D02*
X87582Y182088D01*
X88057Y182563D02*
X88999Y182563D01*
X85699Y180206D02*
X84638Y179145D01*
X85699Y180206D02*
X91284Y174621D01*
X90223Y173560D01*
X84638Y179145D01*
X89748Y174035D02*
X90698Y174035D01*
X91173Y174510D02*
X89273Y174510D01*
X88798Y174985D02*
X90920Y174985D01*
X90445Y175460D02*
X88323Y175460D01*
X87848Y175935D02*
X89970Y175935D01*
X89495Y176410D02*
X87373Y176410D01*
X86898Y176885D02*
X89020Y176885D01*
X88545Y177360D02*
X86423Y177360D01*
X85948Y177835D02*
X88070Y177835D01*
X87595Y178310D02*
X85473Y178310D01*
X84998Y178785D02*
X87120Y178785D01*
X86645Y179260D02*
X84753Y179260D01*
X85228Y179735D02*
X86170Y179735D01*
X82871Y177378D02*
X81810Y176317D01*
X82871Y177378D02*
X88456Y171793D01*
X87395Y170732D01*
X81810Y176317D01*
X86920Y171207D02*
X87870Y171207D01*
X88345Y171682D02*
X86445Y171682D01*
X85970Y172157D02*
X88092Y172157D01*
X87617Y172632D02*
X85495Y172632D01*
X85020Y173107D02*
X87142Y173107D01*
X86667Y173582D02*
X84545Y173582D01*
X84070Y174057D02*
X86192Y174057D01*
X85717Y174532D02*
X83595Y174532D01*
X83120Y175007D02*
X85242Y175007D01*
X84767Y175482D02*
X82645Y175482D01*
X82170Y175957D02*
X84292Y175957D01*
X83817Y176432D02*
X81925Y176432D01*
X82400Y176907D02*
X83342Y176907D01*
X80042Y174549D02*
X78981Y173488D01*
X80042Y174549D02*
X85627Y168964D01*
X84566Y167903D01*
X78981Y173488D01*
X84091Y168378D02*
X85041Y168378D01*
X85516Y168853D02*
X83616Y168853D01*
X83141Y169328D02*
X85263Y169328D01*
X84788Y169803D02*
X82666Y169803D01*
X82191Y170278D02*
X84313Y170278D01*
X83838Y170753D02*
X81716Y170753D01*
X81241Y171228D02*
X83363Y171228D01*
X82888Y171703D02*
X80766Y171703D01*
X80291Y172178D02*
X82413Y172178D01*
X81938Y172653D02*
X79816Y172653D01*
X79341Y173128D02*
X81463Y173128D01*
X80988Y173603D02*
X79096Y173603D01*
X79571Y174078D02*
X80513Y174078D01*
X31464Y223127D02*
X30403Y222066D01*
X31464Y223127D02*
X37049Y217542D01*
X35988Y216481D01*
X30403Y222066D01*
X35513Y216956D02*
X36463Y216956D01*
X36938Y217431D02*
X35038Y217431D01*
X34563Y217906D02*
X36685Y217906D01*
X36210Y218381D02*
X34088Y218381D01*
X33613Y218856D02*
X35735Y218856D01*
X35260Y219331D02*
X33138Y219331D01*
X32663Y219806D02*
X34785Y219806D01*
X34310Y220281D02*
X32188Y220281D01*
X31713Y220756D02*
X33835Y220756D01*
X33360Y221231D02*
X31238Y221231D01*
X30763Y221706D02*
X32885Y221706D01*
X32410Y222181D02*
X30518Y222181D01*
X30993Y222656D02*
X31935Y222656D01*
X33232Y224895D02*
X34293Y225956D01*
X39878Y220371D01*
X38817Y219310D01*
X33232Y224895D01*
X38342Y219785D02*
X39292Y219785D01*
X39767Y220260D02*
X37867Y220260D01*
X37392Y220735D02*
X39514Y220735D01*
X39039Y221210D02*
X36917Y221210D01*
X36442Y221685D02*
X38564Y221685D01*
X38089Y222160D02*
X35967Y222160D01*
X35492Y222635D02*
X37614Y222635D01*
X37139Y223110D02*
X35017Y223110D01*
X34542Y223585D02*
X36664Y223585D01*
X36189Y224060D02*
X34067Y224060D01*
X33592Y224535D02*
X35714Y224535D01*
X35239Y225010D02*
X33347Y225010D01*
X33822Y225485D02*
X34764Y225485D01*
X36060Y227723D02*
X37121Y228784D01*
X42706Y223199D01*
X41645Y222138D01*
X36060Y227723D01*
X41170Y222613D02*
X42120Y222613D01*
X42595Y223088D02*
X40695Y223088D01*
X40220Y223563D02*
X42342Y223563D01*
X41867Y224038D02*
X39745Y224038D01*
X39270Y224513D02*
X41392Y224513D01*
X40917Y224988D02*
X38795Y224988D01*
X38320Y225463D02*
X40442Y225463D01*
X39967Y225938D02*
X37845Y225938D01*
X37370Y226413D02*
X39492Y226413D01*
X39017Y226888D02*
X36895Y226888D01*
X36420Y227363D02*
X38542Y227363D01*
X38067Y227838D02*
X36175Y227838D01*
X36650Y228313D02*
X37592Y228313D01*
X38888Y230552D02*
X39949Y231613D01*
X45534Y226028D01*
X44473Y224967D01*
X38888Y230552D01*
X43998Y225442D02*
X44948Y225442D01*
X45423Y225917D02*
X43523Y225917D01*
X43048Y226392D02*
X45170Y226392D01*
X44695Y226867D02*
X42573Y226867D01*
X42098Y227342D02*
X44220Y227342D01*
X43745Y227817D02*
X41623Y227817D01*
X41148Y228292D02*
X43270Y228292D01*
X42795Y228767D02*
X40673Y228767D01*
X40198Y229242D02*
X42320Y229242D01*
X41845Y229717D02*
X39723Y229717D01*
X39248Y230192D02*
X41370Y230192D01*
X40895Y230667D02*
X39003Y230667D01*
X39478Y231142D02*
X40420Y231142D01*
X41717Y233380D02*
X42778Y234441D01*
X48363Y228856D01*
X47302Y227795D01*
X41717Y233380D01*
X46827Y228270D02*
X47777Y228270D01*
X48252Y228745D02*
X46352Y228745D01*
X45877Y229220D02*
X47999Y229220D01*
X47524Y229695D02*
X45402Y229695D01*
X44927Y230170D02*
X47049Y230170D01*
X46574Y230645D02*
X44452Y230645D01*
X43977Y231120D02*
X46099Y231120D01*
X45624Y231595D02*
X43502Y231595D01*
X43027Y232070D02*
X45149Y232070D01*
X44674Y232545D02*
X42552Y232545D01*
X42077Y233020D02*
X44199Y233020D01*
X43724Y233495D02*
X41832Y233495D01*
X42307Y233970D02*
X43249Y233970D01*
X44545Y236208D02*
X45606Y237269D01*
X51191Y231684D01*
X50130Y230623D01*
X44545Y236208D01*
X49655Y231098D02*
X50605Y231098D01*
X51080Y231573D02*
X49180Y231573D01*
X48705Y232048D02*
X50827Y232048D01*
X50352Y232523D02*
X48230Y232523D01*
X47755Y232998D02*
X49877Y232998D01*
X49402Y233473D02*
X47280Y233473D01*
X46805Y233948D02*
X48927Y233948D01*
X48452Y234423D02*
X46330Y234423D01*
X45855Y234898D02*
X47977Y234898D01*
X47502Y235373D02*
X45380Y235373D01*
X44905Y235848D02*
X47027Y235848D01*
X46552Y236323D02*
X44660Y236323D01*
X45135Y236798D02*
X46077Y236798D01*
X47374Y239037D02*
X48435Y240098D01*
X54020Y234513D01*
X52959Y233452D01*
X47374Y239037D01*
X52484Y233927D02*
X53434Y233927D01*
X53909Y234402D02*
X52009Y234402D01*
X51534Y234877D02*
X53656Y234877D01*
X53181Y235352D02*
X51059Y235352D01*
X50584Y235827D02*
X52706Y235827D01*
X52231Y236302D02*
X50109Y236302D01*
X49634Y236777D02*
X51756Y236777D01*
X51281Y237252D02*
X49159Y237252D01*
X48684Y237727D02*
X50806Y237727D01*
X50331Y238202D02*
X48209Y238202D01*
X47734Y238677D02*
X49856Y238677D01*
X49381Y239152D02*
X47489Y239152D01*
X47964Y239627D02*
X48906Y239627D01*
X50202Y241865D02*
X51263Y242926D01*
X56848Y237341D01*
X55787Y236280D01*
X50202Y241865D01*
X55312Y236755D02*
X56262Y236755D01*
X56737Y237230D02*
X54837Y237230D01*
X54362Y237705D02*
X56484Y237705D01*
X56009Y238180D02*
X53887Y238180D01*
X53412Y238655D02*
X55534Y238655D01*
X55059Y239130D02*
X52937Y239130D01*
X52462Y239605D02*
X54584Y239605D01*
X54109Y240080D02*
X51987Y240080D01*
X51512Y240555D02*
X53634Y240555D01*
X53159Y241030D02*
X51037Y241030D01*
X50562Y241505D02*
X52684Y241505D01*
X52209Y241980D02*
X50317Y241980D01*
X50792Y242455D02*
X51734Y242455D01*
X53031Y244694D02*
X54092Y245755D01*
X59677Y240170D01*
X58616Y239109D01*
X53031Y244694D01*
X58141Y239584D02*
X59091Y239584D01*
X59566Y240059D02*
X57666Y240059D01*
X57191Y240534D02*
X59313Y240534D01*
X58838Y241009D02*
X56716Y241009D01*
X56241Y241484D02*
X58363Y241484D01*
X57888Y241959D02*
X55766Y241959D01*
X55291Y242434D02*
X57413Y242434D01*
X56938Y242909D02*
X54816Y242909D01*
X54341Y243384D02*
X56463Y243384D01*
X55988Y243859D02*
X53866Y243859D01*
X53391Y244334D02*
X55513Y244334D01*
X55038Y244809D02*
X53146Y244809D01*
X53621Y245284D02*
X54563Y245284D01*
X55859Y247522D02*
X56920Y248583D01*
X62505Y242998D01*
X61444Y241937D01*
X55859Y247522D01*
X60969Y242412D02*
X61919Y242412D01*
X62394Y242887D02*
X60494Y242887D01*
X60019Y243362D02*
X62141Y243362D01*
X61666Y243837D02*
X59544Y243837D01*
X59069Y244312D02*
X61191Y244312D01*
X60716Y244787D02*
X58594Y244787D01*
X58119Y245262D02*
X60241Y245262D01*
X59766Y245737D02*
X57644Y245737D01*
X57169Y246212D02*
X59291Y246212D01*
X58816Y246687D02*
X56694Y246687D01*
X56219Y247162D02*
X58341Y247162D01*
X57866Y247637D02*
X55974Y247637D01*
X56449Y248112D02*
X57391Y248112D01*
X58687Y250351D02*
X59748Y251412D01*
X65333Y245827D01*
X64272Y244766D01*
X58687Y250351D01*
X63797Y245241D02*
X64747Y245241D01*
X65222Y245716D02*
X63322Y245716D01*
X62847Y246191D02*
X64969Y246191D01*
X64494Y246666D02*
X62372Y246666D01*
X61897Y247141D02*
X64019Y247141D01*
X63544Y247616D02*
X61422Y247616D01*
X60947Y248091D02*
X63069Y248091D01*
X62594Y248566D02*
X60472Y248566D01*
X59997Y249041D02*
X62119Y249041D01*
X61644Y249516D02*
X59522Y249516D01*
X59047Y249991D02*
X61169Y249991D01*
X60694Y250466D02*
X58802Y250466D01*
X59277Y250941D02*
X60219Y250941D01*
X61516Y253179D02*
X62577Y254240D01*
X68162Y248655D01*
X67101Y247594D01*
X61516Y253179D01*
X66626Y248069D02*
X67576Y248069D01*
X68051Y248544D02*
X66151Y248544D01*
X65676Y249019D02*
X67798Y249019D01*
X67323Y249494D02*
X65201Y249494D01*
X64726Y249969D02*
X66848Y249969D01*
X66373Y250444D02*
X64251Y250444D01*
X63776Y250919D02*
X65898Y250919D01*
X65423Y251394D02*
X63301Y251394D01*
X62826Y251869D02*
X64948Y251869D01*
X64473Y252344D02*
X62351Y252344D01*
X61876Y252819D02*
X63998Y252819D01*
X63523Y253294D02*
X61631Y253294D01*
X62106Y253769D02*
X63048Y253769D01*
X64344Y256007D02*
X65405Y257068D01*
X70990Y251483D01*
X69929Y250422D01*
X64344Y256007D01*
X69454Y250897D02*
X70404Y250897D01*
X70879Y251372D02*
X68979Y251372D01*
X68504Y251847D02*
X70626Y251847D01*
X70151Y252322D02*
X68029Y252322D01*
X67554Y252797D02*
X69676Y252797D01*
X69201Y253272D02*
X67079Y253272D01*
X66604Y253747D02*
X68726Y253747D01*
X68251Y254222D02*
X66129Y254222D01*
X65654Y254697D02*
X67776Y254697D01*
X67301Y255172D02*
X65179Y255172D01*
X64704Y255647D02*
X66826Y255647D01*
X66351Y256122D02*
X64459Y256122D01*
X64934Y256597D02*
X65876Y256597D01*
X67173Y258836D02*
X68234Y259897D01*
X73819Y254312D01*
X72758Y253251D01*
X67173Y258836D01*
X72283Y253726D02*
X73233Y253726D01*
X73708Y254201D02*
X71808Y254201D01*
X71333Y254676D02*
X73455Y254676D01*
X72980Y255151D02*
X70858Y255151D01*
X70383Y255626D02*
X72505Y255626D01*
X72030Y256101D02*
X69908Y256101D01*
X69433Y256576D02*
X71555Y256576D01*
X71080Y257051D02*
X68958Y257051D01*
X68483Y257526D02*
X70605Y257526D01*
X70130Y258001D02*
X68008Y258001D01*
X67533Y258476D02*
X69655Y258476D01*
X69180Y258951D02*
X67288Y258951D01*
X67763Y259426D02*
X68705Y259426D01*
X78981Y254312D02*
X84566Y259897D01*
X85627Y258836D01*
X80042Y253251D01*
X78981Y254312D01*
X79567Y253726D02*
X80517Y253726D01*
X80992Y254201D02*
X79092Y254201D01*
X79345Y254676D02*
X81467Y254676D01*
X81942Y255151D02*
X79820Y255151D01*
X80295Y255626D02*
X82417Y255626D01*
X82892Y256101D02*
X80770Y256101D01*
X81245Y256576D02*
X83367Y256576D01*
X83842Y257051D02*
X81720Y257051D01*
X82195Y257526D02*
X84317Y257526D01*
X84792Y258001D02*
X82670Y258001D01*
X83145Y258476D02*
X85267Y258476D01*
X85512Y258951D02*
X83620Y258951D01*
X84095Y259426D02*
X85037Y259426D01*
X87395Y257068D02*
X81810Y251483D01*
X87395Y257068D02*
X88456Y256007D01*
X82871Y250422D01*
X81810Y251483D01*
X82396Y250897D02*
X83346Y250897D01*
X83821Y251372D02*
X81921Y251372D01*
X82174Y251847D02*
X84296Y251847D01*
X84771Y252322D02*
X82649Y252322D01*
X83124Y252797D02*
X85246Y252797D01*
X85721Y253272D02*
X83599Y253272D01*
X84074Y253747D02*
X86196Y253747D01*
X86671Y254222D02*
X84549Y254222D01*
X85024Y254697D02*
X87146Y254697D01*
X87621Y255172D02*
X85499Y255172D01*
X85974Y255647D02*
X88096Y255647D01*
X88341Y256122D02*
X86449Y256122D01*
X86924Y256597D02*
X87866Y256597D01*
X90223Y254240D02*
X84638Y248655D01*
X90223Y254240D02*
X91284Y253179D01*
X85699Y247594D01*
X84638Y248655D01*
X85224Y248069D02*
X86174Y248069D01*
X86649Y248544D02*
X84749Y248544D01*
X85002Y249019D02*
X87124Y249019D01*
X87599Y249494D02*
X85477Y249494D01*
X85952Y249969D02*
X88074Y249969D01*
X88549Y250444D02*
X86427Y250444D01*
X86902Y250919D02*
X89024Y250919D01*
X89499Y251394D02*
X87377Y251394D01*
X87852Y251869D02*
X89974Y251869D01*
X90449Y252344D02*
X88327Y252344D01*
X88802Y252819D02*
X90924Y252819D01*
X91169Y253294D02*
X89277Y253294D01*
X89752Y253769D02*
X90694Y253769D01*
X93052Y251412D02*
X87467Y245827D01*
X93052Y251412D02*
X94113Y250351D01*
X88528Y244766D01*
X87467Y245827D01*
X88053Y245241D02*
X89003Y245241D01*
X89478Y245716D02*
X87578Y245716D01*
X87831Y246191D02*
X89953Y246191D01*
X90428Y246666D02*
X88306Y246666D01*
X88781Y247141D02*
X90903Y247141D01*
X91378Y247616D02*
X89256Y247616D01*
X89731Y248091D02*
X91853Y248091D01*
X92328Y248566D02*
X90206Y248566D01*
X90681Y249041D02*
X92803Y249041D01*
X93278Y249516D02*
X91156Y249516D01*
X91631Y249991D02*
X93753Y249991D01*
X93998Y250466D02*
X92106Y250466D01*
X92581Y250941D02*
X93523Y250941D01*
X95880Y248583D02*
X90295Y242998D01*
X95880Y248583D02*
X96941Y247522D01*
X91356Y241937D01*
X90295Y242998D01*
X90881Y242412D02*
X91831Y242412D01*
X92306Y242887D02*
X90406Y242887D01*
X90659Y243362D02*
X92781Y243362D01*
X93256Y243837D02*
X91134Y243837D01*
X91609Y244312D02*
X93731Y244312D01*
X94206Y244787D02*
X92084Y244787D01*
X92559Y245262D02*
X94681Y245262D01*
X95156Y245737D02*
X93034Y245737D01*
X93509Y246212D02*
X95631Y246212D01*
X96106Y246687D02*
X93984Y246687D01*
X94459Y247162D02*
X96581Y247162D01*
X96826Y247637D02*
X94934Y247637D01*
X95409Y248112D02*
X96351Y248112D01*
X98709Y245755D02*
X93124Y240170D01*
X98709Y245755D02*
X99770Y244694D01*
X94185Y239109D01*
X93124Y240170D01*
X93710Y239584D02*
X94660Y239584D01*
X95135Y240059D02*
X93235Y240059D01*
X93488Y240534D02*
X95610Y240534D01*
X96085Y241009D02*
X93963Y241009D01*
X94438Y241484D02*
X96560Y241484D01*
X97035Y241959D02*
X94913Y241959D01*
X95388Y242434D02*
X97510Y242434D01*
X97985Y242909D02*
X95863Y242909D01*
X96338Y243384D02*
X98460Y243384D01*
X98935Y243859D02*
X96813Y243859D01*
X97288Y244334D02*
X99410Y244334D01*
X99655Y244809D02*
X97763Y244809D01*
X98238Y245284D02*
X99180Y245284D01*
X101537Y242926D02*
X95952Y237341D01*
X101537Y242926D02*
X102598Y241865D01*
X97013Y236280D01*
X95952Y237341D01*
X96538Y236755D02*
X97488Y236755D01*
X97963Y237230D02*
X96063Y237230D01*
X96316Y237705D02*
X98438Y237705D01*
X98913Y238180D02*
X96791Y238180D01*
X97266Y238655D02*
X99388Y238655D01*
X99863Y239130D02*
X97741Y239130D01*
X98216Y239605D02*
X100338Y239605D01*
X100813Y240080D02*
X98691Y240080D01*
X99166Y240555D02*
X101288Y240555D01*
X101763Y241030D02*
X99641Y241030D01*
X100116Y241505D02*
X102238Y241505D01*
X102483Y241980D02*
X100591Y241980D01*
X101066Y242455D02*
X102008Y242455D01*
X104365Y240098D02*
X98780Y234513D01*
X104365Y240098D02*
X105426Y239037D01*
X99841Y233452D01*
X98780Y234513D01*
X99366Y233927D02*
X100316Y233927D01*
X100791Y234402D02*
X98891Y234402D01*
X99144Y234877D02*
X101266Y234877D01*
X101741Y235352D02*
X99619Y235352D01*
X100094Y235827D02*
X102216Y235827D01*
X102691Y236302D02*
X100569Y236302D01*
X101044Y236777D02*
X103166Y236777D01*
X103641Y237252D02*
X101519Y237252D01*
X101994Y237727D02*
X104116Y237727D01*
X104591Y238202D02*
X102469Y238202D01*
X102944Y238677D02*
X105066Y238677D01*
X105311Y239152D02*
X103419Y239152D01*
X103894Y239627D02*
X104836Y239627D01*
X107194Y237269D02*
X101609Y231684D01*
X107194Y237269D02*
X108255Y236208D01*
X102670Y230623D01*
X101609Y231684D01*
X102195Y231098D02*
X103145Y231098D01*
X103620Y231573D02*
X101720Y231573D01*
X101973Y232048D02*
X104095Y232048D01*
X104570Y232523D02*
X102448Y232523D01*
X102923Y232998D02*
X105045Y232998D01*
X105520Y233473D02*
X103398Y233473D01*
X103873Y233948D02*
X105995Y233948D01*
X106470Y234423D02*
X104348Y234423D01*
X104823Y234898D02*
X106945Y234898D01*
X107420Y235373D02*
X105298Y235373D01*
X105773Y235848D02*
X107895Y235848D01*
X108140Y236323D02*
X106248Y236323D01*
X106723Y236798D02*
X107665Y236798D01*
X110022Y234441D02*
X104437Y228856D01*
X110022Y234441D02*
X111083Y233380D01*
X105498Y227795D01*
X104437Y228856D01*
X105023Y228270D02*
X105973Y228270D01*
X106448Y228745D02*
X104548Y228745D01*
X104801Y229220D02*
X106923Y229220D01*
X107398Y229695D02*
X105276Y229695D01*
X105751Y230170D02*
X107873Y230170D01*
X108348Y230645D02*
X106226Y230645D01*
X106701Y231120D02*
X108823Y231120D01*
X109298Y231595D02*
X107176Y231595D01*
X107651Y232070D02*
X109773Y232070D01*
X110248Y232545D02*
X108126Y232545D01*
X108601Y233020D02*
X110723Y233020D01*
X110968Y233495D02*
X109076Y233495D01*
X109551Y233970D02*
X110493Y233970D01*
X112851Y231613D02*
X107266Y226028D01*
X112851Y231613D02*
X113912Y230552D01*
X108327Y224967D01*
X107266Y226028D01*
X107852Y225442D02*
X108802Y225442D01*
X109277Y225917D02*
X107377Y225917D01*
X107630Y226392D02*
X109752Y226392D01*
X110227Y226867D02*
X108105Y226867D01*
X108580Y227342D02*
X110702Y227342D01*
X111177Y227817D02*
X109055Y227817D01*
X109530Y228292D02*
X111652Y228292D01*
X112127Y228767D02*
X110005Y228767D01*
X110480Y229242D02*
X112602Y229242D01*
X113077Y229717D02*
X110955Y229717D01*
X111430Y230192D02*
X113552Y230192D01*
X113797Y230667D02*
X111905Y230667D01*
X112380Y231142D02*
X113322Y231142D01*
X115679Y228784D02*
X110094Y223199D01*
X115679Y228784D02*
X116740Y227723D01*
X111155Y222138D01*
X110094Y223199D01*
X110680Y222613D02*
X111630Y222613D01*
X112105Y223088D02*
X110205Y223088D01*
X110458Y223563D02*
X112580Y223563D01*
X113055Y224038D02*
X110933Y224038D01*
X111408Y224513D02*
X113530Y224513D01*
X114005Y224988D02*
X111883Y224988D01*
X112358Y225463D02*
X114480Y225463D01*
X114955Y225938D02*
X112833Y225938D01*
X113308Y226413D02*
X115430Y226413D01*
X115905Y226888D02*
X113783Y226888D01*
X114258Y227363D02*
X116380Y227363D01*
X116625Y227838D02*
X114733Y227838D01*
X115208Y228313D02*
X116150Y228313D01*
X118507Y225956D02*
X112922Y220371D01*
X118507Y225956D02*
X119568Y224895D01*
X113983Y219310D01*
X112922Y220371D01*
X113508Y219785D02*
X114458Y219785D01*
X114933Y220260D02*
X113033Y220260D01*
X113286Y220735D02*
X115408Y220735D01*
X115883Y221210D02*
X113761Y221210D01*
X114236Y221685D02*
X116358Y221685D01*
X116833Y222160D02*
X114711Y222160D01*
X115186Y222635D02*
X117308Y222635D01*
X117783Y223110D02*
X115661Y223110D01*
X116136Y223585D02*
X118258Y223585D01*
X118733Y224060D02*
X116611Y224060D01*
X117086Y224535D02*
X119208Y224535D01*
X119453Y225010D02*
X117561Y225010D01*
X118036Y225485D02*
X118978Y225485D01*
X121336Y223127D02*
X115751Y217542D01*
X121336Y223127D02*
X122397Y222066D01*
X116812Y216481D01*
X115751Y217542D01*
X116337Y216956D02*
X117287Y216956D01*
X117762Y217431D02*
X115862Y217431D01*
X116115Y217906D02*
X118237Y217906D01*
X118712Y218381D02*
X116590Y218381D01*
X117065Y218856D02*
X119187Y218856D01*
X119662Y219331D02*
X117540Y219331D01*
X118015Y219806D02*
X120137Y219806D01*
X120612Y220281D02*
X118490Y220281D01*
X118965Y220756D02*
X121087Y220756D01*
X121562Y221231D02*
X119440Y221231D01*
X119915Y221706D02*
X122037Y221706D01*
X122282Y222181D02*
X120390Y222181D01*
X120865Y222656D02*
X121807Y222656D01*
X72758Y174549D02*
X67173Y168964D01*
X72758Y174549D02*
X73819Y173488D01*
X68234Y167903D01*
X67173Y168964D01*
X67759Y168378D02*
X68709Y168378D01*
X69184Y168853D02*
X67284Y168853D01*
X67537Y169328D02*
X69659Y169328D01*
X70134Y169803D02*
X68012Y169803D01*
X68487Y170278D02*
X70609Y170278D01*
X71084Y170753D02*
X68962Y170753D01*
X69437Y171228D02*
X71559Y171228D01*
X72034Y171703D02*
X69912Y171703D01*
X70387Y172178D02*
X72509Y172178D01*
X72984Y172653D02*
X70862Y172653D01*
X71337Y173128D02*
X73459Y173128D01*
X73704Y173603D02*
X71812Y173603D01*
X72287Y174078D02*
X73229Y174078D01*
X69929Y177378D02*
X64344Y171793D01*
X69929Y177378D02*
X70990Y176317D01*
X65405Y170732D01*
X64344Y171793D01*
X64930Y171207D02*
X65880Y171207D01*
X66355Y171682D02*
X64455Y171682D01*
X64708Y172157D02*
X66830Y172157D01*
X67305Y172632D02*
X65183Y172632D01*
X65658Y173107D02*
X67780Y173107D01*
X68255Y173582D02*
X66133Y173582D01*
X66608Y174057D02*
X68730Y174057D01*
X69205Y174532D02*
X67083Y174532D01*
X67558Y175007D02*
X69680Y175007D01*
X70155Y175482D02*
X68033Y175482D01*
X68508Y175957D02*
X70630Y175957D01*
X70875Y176432D02*
X68983Y176432D01*
X69458Y176907D02*
X70400Y176907D01*
X67101Y180206D02*
X61516Y174621D01*
X67101Y180206D02*
X68162Y179145D01*
X62577Y173560D01*
X61516Y174621D01*
X62102Y174035D02*
X63052Y174035D01*
X63527Y174510D02*
X61627Y174510D01*
X61880Y174985D02*
X64002Y174985D01*
X64477Y175460D02*
X62355Y175460D01*
X62830Y175935D02*
X64952Y175935D01*
X65427Y176410D02*
X63305Y176410D01*
X63780Y176885D02*
X65902Y176885D01*
X66377Y177360D02*
X64255Y177360D01*
X64730Y177835D02*
X66852Y177835D01*
X67327Y178310D02*
X65205Y178310D01*
X65680Y178785D02*
X67802Y178785D01*
X68047Y179260D02*
X66155Y179260D01*
X66630Y179735D02*
X67572Y179735D01*
X64272Y183034D02*
X58687Y177449D01*
X64272Y183034D02*
X65333Y181973D01*
X59748Y176388D01*
X58687Y177449D01*
X59273Y176863D02*
X60223Y176863D01*
X60698Y177338D02*
X58798Y177338D01*
X59051Y177813D02*
X61173Y177813D01*
X61648Y178288D02*
X59526Y178288D01*
X60001Y178763D02*
X62123Y178763D01*
X62598Y179238D02*
X60476Y179238D01*
X60951Y179713D02*
X63073Y179713D01*
X63548Y180188D02*
X61426Y180188D01*
X61901Y180663D02*
X64023Y180663D01*
X64498Y181138D02*
X62376Y181138D01*
X62851Y181613D02*
X64973Y181613D01*
X65218Y182088D02*
X63326Y182088D01*
X63801Y182563D02*
X64743Y182563D01*
X61444Y185863D02*
X55859Y180278D01*
X61444Y185863D02*
X62505Y184802D01*
X56920Y179217D01*
X55859Y180278D01*
X56445Y179692D02*
X57395Y179692D01*
X57870Y180167D02*
X55970Y180167D01*
X56223Y180642D02*
X58345Y180642D01*
X58820Y181117D02*
X56698Y181117D01*
X57173Y181592D02*
X59295Y181592D01*
X59770Y182067D02*
X57648Y182067D01*
X58123Y182542D02*
X60245Y182542D01*
X60720Y183017D02*
X58598Y183017D01*
X59073Y183492D02*
X61195Y183492D01*
X61670Y183967D02*
X59548Y183967D01*
X60023Y184442D02*
X62145Y184442D01*
X62390Y184917D02*
X60498Y184917D01*
X60973Y185392D02*
X61915Y185392D01*
X58616Y188691D02*
X53031Y183106D01*
X58616Y188691D02*
X59677Y187630D01*
X54092Y182045D01*
X53031Y183106D01*
X53617Y182520D02*
X54567Y182520D01*
X55042Y182995D02*
X53142Y182995D01*
X53395Y183470D02*
X55517Y183470D01*
X55992Y183945D02*
X53870Y183945D01*
X54345Y184420D02*
X56467Y184420D01*
X56942Y184895D02*
X54820Y184895D01*
X55295Y185370D02*
X57417Y185370D01*
X57892Y185845D02*
X55770Y185845D01*
X56245Y186320D02*
X58367Y186320D01*
X58842Y186795D02*
X56720Y186795D01*
X57195Y187270D02*
X59317Y187270D01*
X59562Y187745D02*
X57670Y187745D01*
X58145Y188220D02*
X59087Y188220D01*
X55787Y191520D02*
X50202Y185935D01*
X55787Y191520D02*
X56848Y190459D01*
X51263Y184874D01*
X50202Y185935D01*
X50788Y185349D02*
X51738Y185349D01*
X52213Y185824D02*
X50313Y185824D01*
X50566Y186299D02*
X52688Y186299D01*
X53163Y186774D02*
X51041Y186774D01*
X51516Y187249D02*
X53638Y187249D01*
X54113Y187724D02*
X51991Y187724D01*
X52466Y188199D02*
X54588Y188199D01*
X55063Y188674D02*
X52941Y188674D01*
X53416Y189149D02*
X55538Y189149D01*
X56013Y189624D02*
X53891Y189624D01*
X54366Y190099D02*
X56488Y190099D01*
X56733Y190574D02*
X54841Y190574D01*
X55316Y191049D02*
X56258Y191049D01*
X52959Y194348D02*
X47374Y188763D01*
X52959Y194348D02*
X54020Y193287D01*
X48435Y187702D01*
X47374Y188763D01*
X47960Y188177D02*
X48910Y188177D01*
X49385Y188652D02*
X47485Y188652D01*
X47738Y189127D02*
X49860Y189127D01*
X50335Y189602D02*
X48213Y189602D01*
X48688Y190077D02*
X50810Y190077D01*
X51285Y190552D02*
X49163Y190552D01*
X49638Y191027D02*
X51760Y191027D01*
X52235Y191502D02*
X50113Y191502D01*
X50588Y191977D02*
X52710Y191977D01*
X53185Y192452D02*
X51063Y192452D01*
X51538Y192927D02*
X53660Y192927D01*
X53905Y193402D02*
X52013Y193402D01*
X52488Y193877D02*
X53430Y193877D01*
X50130Y197177D02*
X44545Y191592D01*
X50130Y197177D02*
X51191Y196116D01*
X45606Y190531D01*
X44545Y191592D01*
X45131Y191006D02*
X46081Y191006D01*
X46556Y191481D02*
X44656Y191481D01*
X44909Y191956D02*
X47031Y191956D01*
X47506Y192431D02*
X45384Y192431D01*
X45859Y192906D02*
X47981Y192906D01*
X48456Y193381D02*
X46334Y193381D01*
X46809Y193856D02*
X48931Y193856D01*
X49406Y194331D02*
X47284Y194331D01*
X47759Y194806D02*
X49881Y194806D01*
X50356Y195281D02*
X48234Y195281D01*
X48709Y195756D02*
X50831Y195756D01*
X51076Y196231D02*
X49184Y196231D01*
X49659Y196706D02*
X50601Y196706D01*
X47302Y200005D02*
X41717Y194420D01*
X47302Y200005D02*
X48363Y198944D01*
X42778Y193359D01*
X41717Y194420D01*
X42303Y193834D02*
X43253Y193834D01*
X43728Y194309D02*
X41828Y194309D01*
X42081Y194784D02*
X44203Y194784D01*
X44678Y195259D02*
X42556Y195259D01*
X43031Y195734D02*
X45153Y195734D01*
X45628Y196209D02*
X43506Y196209D01*
X43981Y196684D02*
X46103Y196684D01*
X46578Y197159D02*
X44456Y197159D01*
X44931Y197634D02*
X47053Y197634D01*
X47528Y198109D02*
X45406Y198109D01*
X45881Y198584D02*
X48003Y198584D01*
X48248Y199059D02*
X46356Y199059D01*
X46831Y199534D02*
X47773Y199534D01*
X44473Y202833D02*
X38888Y197248D01*
X44473Y202833D02*
X45534Y201772D01*
X39949Y196187D01*
X38888Y197248D01*
X39474Y196662D02*
X40424Y196662D01*
X40899Y197137D02*
X38999Y197137D01*
X39252Y197612D02*
X41374Y197612D01*
X41849Y198087D02*
X39727Y198087D01*
X40202Y198562D02*
X42324Y198562D01*
X42799Y199037D02*
X40677Y199037D01*
X41152Y199512D02*
X43274Y199512D01*
X43749Y199987D02*
X41627Y199987D01*
X42102Y200462D02*
X44224Y200462D01*
X44699Y200937D02*
X42577Y200937D01*
X43052Y201412D02*
X45174Y201412D01*
X45419Y201887D02*
X43527Y201887D01*
X44002Y202362D02*
X44944Y202362D01*
X41645Y205662D02*
X36060Y200077D01*
X41645Y205662D02*
X42706Y204601D01*
X37121Y199016D01*
X36060Y200077D01*
X36646Y199491D02*
X37596Y199491D01*
X38071Y199966D02*
X36171Y199966D01*
X36424Y200441D02*
X38546Y200441D01*
X39021Y200916D02*
X36899Y200916D01*
X37374Y201391D02*
X39496Y201391D01*
X39971Y201866D02*
X37849Y201866D01*
X38324Y202341D02*
X40446Y202341D01*
X40921Y202816D02*
X38799Y202816D01*
X39274Y203291D02*
X41396Y203291D01*
X41871Y203766D02*
X39749Y203766D01*
X40224Y204241D02*
X42346Y204241D01*
X42591Y204716D02*
X40699Y204716D01*
X41174Y205191D02*
X42116Y205191D01*
X38817Y208490D02*
X33232Y202905D01*
X38817Y208490D02*
X39878Y207429D01*
X34293Y201844D01*
X33232Y202905D01*
X33818Y202319D02*
X34768Y202319D01*
X35243Y202794D02*
X33343Y202794D01*
X33596Y203269D02*
X35718Y203269D01*
X36193Y203744D02*
X34071Y203744D01*
X34546Y204219D02*
X36668Y204219D01*
X37143Y204694D02*
X35021Y204694D01*
X35496Y205169D02*
X37618Y205169D01*
X38093Y205644D02*
X35971Y205644D01*
X36446Y206119D02*
X38568Y206119D01*
X39043Y206594D02*
X36921Y206594D01*
X37396Y207069D02*
X39518Y207069D01*
X39763Y207544D02*
X37871Y207544D01*
X38346Y208019D02*
X39288Y208019D01*
X35988Y211319D02*
X30403Y205734D01*
X35988Y211319D02*
X37049Y210258D01*
X31464Y204673D01*
X30403Y205734D01*
X30989Y205148D02*
X31939Y205148D01*
X32414Y205623D02*
X30514Y205623D01*
X30767Y206098D02*
X32889Y206098D01*
X33364Y206573D02*
X31242Y206573D01*
X31717Y207048D02*
X33839Y207048D01*
X34314Y207523D02*
X32192Y207523D01*
X32667Y207998D02*
X34789Y207998D01*
X35264Y208473D02*
X33142Y208473D01*
X33617Y208948D02*
X35739Y208948D01*
X36214Y209423D02*
X34092Y209423D01*
X34567Y209898D02*
X36689Y209898D01*
X36934Y210373D02*
X35042Y210373D01*
X35517Y210848D02*
X36459Y210848D01*
D25*
X-107897Y329553D02*
X-119603Y329553D01*
X-107897Y329553D02*
X-107897Y321647D01*
X-119603Y321647D01*
X-119603Y329553D01*
X-119603Y322972D02*
X-107897Y322972D01*
X-107897Y324297D02*
X-119603Y324297D01*
X-119603Y325622D02*
X-107897Y325622D01*
X-107897Y326947D02*
X-119603Y326947D01*
X-119603Y328272D02*
X-107897Y328272D01*
X-107897Y306653D02*
X-119603Y306653D01*
X-107897Y306653D02*
X-107897Y298747D01*
X-119603Y298747D01*
X-119603Y306653D01*
X-119603Y300072D02*
X-107897Y300072D01*
X-107897Y301397D02*
X-119603Y301397D01*
X-119603Y302722D02*
X-107897Y302722D01*
X-107897Y304047D02*
X-119603Y304047D01*
X-119603Y305372D02*
X-107897Y305372D01*
X-107897Y283753D02*
X-119603Y283753D01*
X-107897Y283753D02*
X-107897Y275847D01*
X-119603Y275847D01*
X-119603Y283753D01*
X-119603Y277172D02*
X-107897Y277172D01*
X-107897Y278497D02*
X-119603Y278497D01*
X-119603Y279822D02*
X-107897Y279822D01*
X-107897Y281147D02*
X-119603Y281147D01*
X-119603Y282472D02*
X-107897Y282472D01*
D26*
X-175082Y317918D02*
X-186218Y317918D01*
X-175082Y317918D02*
X-175082Y287482D01*
X-186218Y287482D01*
X-186218Y317918D01*
X-186218Y289349D02*
X-175082Y289349D01*
X-175082Y291216D02*
X-186218Y291216D01*
X-186218Y293083D02*
X-175082Y293083D01*
X-175082Y294950D02*
X-186218Y294950D01*
X-186218Y296817D02*
X-175082Y296817D01*
X-175082Y298684D02*
X-186218Y298684D01*
X-186218Y300551D02*
X-175082Y300551D01*
X-175082Y302418D02*
X-186218Y302418D01*
X-186218Y304285D02*
X-175082Y304285D01*
X-175082Y306152D02*
X-186218Y306152D01*
X-186218Y308019D02*
X-175082Y308019D01*
X-175082Y309886D02*
X-186218Y309886D01*
X-186218Y311753D02*
X-175082Y311753D01*
X-175082Y313620D02*
X-186218Y313620D01*
X-186218Y315487D02*
X-175082Y315487D01*
X-175082Y317354D02*
X-186218Y317354D01*
D27*
X150225Y336107D02*
X164875Y336107D01*
X164875Y331757D01*
X150225Y331757D01*
X150225Y336107D01*
X150225Y333134D02*
X164875Y333134D01*
X164875Y334511D02*
X150225Y334511D01*
X150225Y335888D02*
X164875Y335888D01*
X164875Y323407D02*
X150225Y323407D01*
X164875Y323407D02*
X164875Y319057D01*
X150225Y319057D01*
X150225Y323407D01*
X150225Y320434D02*
X164875Y320434D01*
X164875Y321811D02*
X150225Y321811D01*
X150225Y323188D02*
X164875Y323188D01*
X164875Y310707D02*
X150225Y310707D01*
X164875Y310707D02*
X164875Y306357D01*
X150225Y306357D01*
X150225Y310707D01*
X150225Y307734D02*
X164875Y307734D01*
X164875Y309111D02*
X150225Y309111D01*
X150225Y310488D02*
X164875Y310488D01*
X164875Y298007D02*
X150225Y298007D01*
X164875Y298007D02*
X164875Y293657D01*
X150225Y293657D01*
X150225Y298007D01*
X150225Y295034D02*
X164875Y295034D01*
X164875Y296411D02*
X150225Y296411D01*
X150225Y297788D02*
X164875Y297788D01*
X92775Y298007D02*
X78125Y298007D01*
X92775Y298007D02*
X92775Y293657D01*
X78125Y293657D01*
X78125Y298007D01*
X78125Y295034D02*
X92775Y295034D01*
X92775Y296411D02*
X78125Y296411D01*
X78125Y297788D02*
X92775Y297788D01*
X92775Y310707D02*
X78125Y310707D01*
X92775Y310707D02*
X92775Y306357D01*
X78125Y306357D01*
X78125Y310707D01*
X78125Y307734D02*
X92775Y307734D01*
X92775Y309111D02*
X78125Y309111D01*
X78125Y310488D02*
X92775Y310488D01*
X92775Y323407D02*
X78125Y323407D01*
X92775Y323407D02*
X92775Y319057D01*
X78125Y319057D01*
X78125Y323407D01*
X78125Y320434D02*
X92775Y320434D01*
X92775Y321811D02*
X78125Y321811D01*
X78125Y323188D02*
X92775Y323188D01*
X92775Y336107D02*
X78125Y336107D01*
X92775Y336107D02*
X92775Y331757D01*
X78125Y331757D01*
X78125Y336107D01*
X78125Y333134D02*
X92775Y333134D01*
X92775Y334511D02*
X78125Y334511D01*
X78125Y335888D02*
X92775Y335888D01*
D28*
G36*
X132740Y193895D02*
X141225Y202380D01*
X151124Y192481D01*
X142639Y183996D01*
X132740Y193895D01*
G37*
G36*
X148297Y178339D02*
X156782Y186824D01*
X166681Y176925D01*
X158196Y168440D01*
X148297Y178339D01*
G37*
G36*
X136276Y166318D02*
X144761Y174803D01*
X154660Y164904D01*
X146175Y156419D01*
X136276Y166318D01*
G37*
G36*
X120720Y181875D02*
X129205Y190360D01*
X139104Y180461D01*
X130619Y171976D01*
X120720Y181875D01*
G37*
M02*
