G04 EAGLE Gerber RS-274X export*
G75*
%MOMM*%
%FSLAX34Y34*%
%LPD*%
%INSilkscreen Bottom*%
%IPPOS*%
%AMOC8*
5,1,8,0,0,1.08239X$1,22.5*%
G01*
G04 Define Apertures*
%ADD10C,0.127000*%
%ADD11C,0.152400*%
G36*
X-45166Y-166516D02*
X-45428Y-166510D01*
X-45682Y-166491D01*
X-45928Y-166459D01*
X-46165Y-166414D01*
X-46616Y-166287D01*
X-47035Y-166109D01*
X-47421Y-165880D01*
X-47775Y-165600D01*
X-48096Y-165269D01*
X-48385Y-164887D01*
X-48640Y-164457D01*
X-48862Y-163981D01*
X-49049Y-163460D01*
X-49203Y-162892D01*
X-49322Y-162279D01*
X-49407Y-161621D01*
X-49458Y-160916D01*
X-49475Y-160166D01*
X-49459Y-159404D01*
X-49410Y-158690D01*
X-49329Y-158025D01*
X-49216Y-157407D01*
X-49070Y-156838D01*
X-48891Y-156317D01*
X-48681Y-155844D01*
X-48437Y-155419D01*
X-48160Y-155043D01*
X-47847Y-154718D01*
X-47498Y-154442D01*
X-47114Y-154217D01*
X-46694Y-154042D01*
X-46470Y-153973D01*
X-46238Y-153916D01*
X-45996Y-153873D01*
X-45746Y-153841D01*
X-45487Y-153823D01*
X-45219Y-153816D01*
X-44943Y-153823D01*
X-44677Y-153841D01*
X-44420Y-153872D01*
X-44173Y-153915D01*
X-43935Y-153971D01*
X-43706Y-154039D01*
X-43278Y-154213D01*
X-42886Y-154436D01*
X-42533Y-154708D01*
X-42217Y-155030D01*
X-41939Y-155402D01*
X-41695Y-155823D01*
X-41484Y-156294D01*
X-41306Y-156815D01*
X-41160Y-157385D01*
X-41047Y-158006D01*
X-40966Y-158676D01*
X-40917Y-159396D01*
X-40901Y-160166D01*
X-40917Y-160920D01*
X-40967Y-161628D01*
X-41051Y-162289D01*
X-41168Y-162903D01*
X-41318Y-163471D01*
X-41502Y-163993D01*
X-41719Y-164468D01*
X-41969Y-164896D01*
X-42253Y-165276D01*
X-42570Y-165605D01*
X-42920Y-165883D01*
X-43303Y-166111D01*
X-43719Y-166288D01*
X-44168Y-166415D01*
X-44405Y-166459D01*
X-44651Y-166491D01*
X-44904Y-166510D01*
X-45166Y-166516D01*
G37*
%LPC*%
G36*
X-45184Y-165229D02*
X-44845Y-165210D01*
X-44530Y-165153D01*
X-44239Y-165057D01*
X-43972Y-164924D01*
X-43728Y-164753D01*
X-43508Y-164544D01*
X-43311Y-164297D01*
X-43138Y-164011D01*
X-42988Y-163685D01*
X-42857Y-163314D01*
X-42746Y-162900D01*
X-42656Y-162441D01*
X-42585Y-161939D01*
X-42535Y-161392D01*
X-42505Y-160801D01*
X-42495Y-160166D01*
X-42505Y-159513D01*
X-42534Y-158908D01*
X-42584Y-158351D01*
X-42653Y-157841D01*
X-42743Y-157379D01*
X-42852Y-156964D01*
X-42981Y-156597D01*
X-43130Y-156277D01*
X-43301Y-156000D01*
X-43498Y-155760D01*
X-43721Y-155557D01*
X-43969Y-155391D01*
X-44243Y-155261D01*
X-44543Y-155169D01*
X-44868Y-155114D01*
X-45219Y-155095D01*
X-45561Y-155114D01*
X-45878Y-155170D01*
X-46170Y-155264D01*
X-46437Y-155395D01*
X-46679Y-155564D01*
X-46896Y-155770D01*
X-47088Y-156014D01*
X-47255Y-156295D01*
X-47400Y-156618D01*
X-47525Y-156987D01*
X-47631Y-157402D01*
X-47718Y-157863D01*
X-47786Y-158370D01*
X-47834Y-158923D01*
X-47863Y-159521D01*
X-47872Y-160166D01*
X-47862Y-160789D01*
X-47832Y-161371D01*
X-47781Y-161910D01*
X-47710Y-162408D01*
X-47619Y-162865D01*
X-47508Y-163280D01*
X-47376Y-163653D01*
X-47224Y-163985D01*
X-47051Y-164276D01*
X-46854Y-164529D01*
X-46634Y-164743D01*
X-46390Y-164918D01*
X-46123Y-165054D01*
X-45833Y-165151D01*
X-45520Y-165209D01*
X-45184Y-165229D01*
G37*
%LPD*%
G36*
X-35197Y-166516D02*
X-35459Y-166510D01*
X-35713Y-166491D01*
X-35959Y-166459D01*
X-36197Y-166414D01*
X-36648Y-166287D01*
X-37066Y-166109D01*
X-37452Y-165880D01*
X-37806Y-165600D01*
X-38127Y-165269D01*
X-38416Y-164887D01*
X-38672Y-164457D01*
X-38893Y-163981D01*
X-39081Y-163460D01*
X-39234Y-162892D01*
X-39353Y-162279D01*
X-39438Y-161621D01*
X-39490Y-160916D01*
X-39507Y-160166D01*
X-39490Y-159404D01*
X-39442Y-158690D01*
X-39361Y-158025D01*
X-39247Y-157407D01*
X-39101Y-156838D01*
X-38923Y-156317D01*
X-38712Y-155844D01*
X-38469Y-155419D01*
X-38191Y-155043D01*
X-37878Y-154718D01*
X-37530Y-154442D01*
X-37145Y-154217D01*
X-36725Y-154042D01*
X-36501Y-153973D01*
X-36269Y-153916D01*
X-36028Y-153873D01*
X-35777Y-153841D01*
X-35518Y-153823D01*
X-35250Y-153816D01*
X-34974Y-153823D01*
X-34708Y-153841D01*
X-34451Y-153872D01*
X-34204Y-153915D01*
X-33966Y-153971D01*
X-33738Y-154039D01*
X-33309Y-154213D01*
X-32918Y-154436D01*
X-32564Y-154708D01*
X-32248Y-155030D01*
X-31970Y-155402D01*
X-31727Y-155823D01*
X-31516Y-156294D01*
X-31337Y-156815D01*
X-31191Y-157385D01*
X-31078Y-158006D01*
X-30997Y-158676D01*
X-30948Y-159396D01*
X-30932Y-160166D01*
X-30949Y-160920D01*
X-30999Y-161628D01*
X-31082Y-162289D01*
X-31199Y-162903D01*
X-31349Y-163471D01*
X-31533Y-163993D01*
X-31750Y-164468D01*
X-32000Y-164896D01*
X-32284Y-165276D01*
X-32601Y-165605D01*
X-32951Y-165883D01*
X-33334Y-166111D01*
X-33750Y-166288D01*
X-34199Y-166415D01*
X-34436Y-166459D01*
X-34682Y-166491D01*
X-34935Y-166510D01*
X-35197Y-166516D01*
G37*
%LPC*%
G36*
X-35215Y-165229D02*
X-34876Y-165210D01*
X-34562Y-165153D01*
X-34270Y-165057D01*
X-34003Y-164924D01*
X-33759Y-164753D01*
X-33539Y-164544D01*
X-33343Y-164297D01*
X-33170Y-164011D01*
X-33019Y-163685D01*
X-32888Y-163314D01*
X-32777Y-162900D01*
X-32687Y-162441D01*
X-32617Y-161939D01*
X-32566Y-161392D01*
X-32536Y-160801D01*
X-32526Y-160166D01*
X-32536Y-159513D01*
X-32566Y-158908D01*
X-32615Y-158351D01*
X-32685Y-157841D01*
X-32774Y-157379D01*
X-32883Y-156964D01*
X-33012Y-156597D01*
X-33161Y-156277D01*
X-33333Y-156000D01*
X-33530Y-155760D01*
X-33752Y-155557D01*
X-34001Y-155391D01*
X-34275Y-155261D01*
X-34574Y-155169D01*
X-34899Y-155114D01*
X-35250Y-155095D01*
X-35592Y-155114D01*
X-35909Y-155170D01*
X-36201Y-155264D01*
X-36468Y-155395D01*
X-36710Y-155564D01*
X-36927Y-155770D01*
X-37119Y-156014D01*
X-37286Y-156295D01*
X-37431Y-156618D01*
X-37556Y-156987D01*
X-37663Y-157402D01*
X-37749Y-157863D01*
X-37817Y-158370D01*
X-37865Y-158923D01*
X-37894Y-159521D01*
X-37904Y-160166D01*
X-37894Y-160789D01*
X-37863Y-161371D01*
X-37813Y-161910D01*
X-37742Y-162408D01*
X-37651Y-162865D01*
X-37539Y-163280D01*
X-37408Y-163653D01*
X-37256Y-163985D01*
X-37082Y-164276D01*
X-36885Y-164529D01*
X-36665Y-164743D01*
X-36421Y-164918D01*
X-36155Y-165054D01*
X-35865Y-165151D01*
X-35551Y-165209D01*
X-35215Y-165229D01*
G37*
%LPD*%
G36*
X-57395Y-166341D02*
X-58980Y-166341D01*
X-58980Y-160026D01*
X-58969Y-159595D01*
X-58935Y-159196D01*
X-58878Y-158828D01*
X-58799Y-158492D01*
X-58698Y-158188D01*
X-58573Y-157915D01*
X-58427Y-157674D01*
X-58257Y-157464D01*
X-58064Y-157283D01*
X-57844Y-157125D01*
X-57598Y-156992D01*
X-57326Y-156883D01*
X-57027Y-156798D01*
X-56703Y-156738D01*
X-56352Y-156701D01*
X-55976Y-156689D01*
X-55716Y-156695D01*
X-55467Y-156715D01*
X-55229Y-156746D01*
X-55002Y-156791D01*
X-54786Y-156848D01*
X-54581Y-156918D01*
X-54386Y-157001D01*
X-54202Y-157096D01*
X-54026Y-157207D01*
X-53856Y-157336D01*
X-53691Y-157483D01*
X-53531Y-157647D01*
X-53227Y-158030D01*
X-52945Y-158485D01*
X-52919Y-158485D01*
X-52888Y-157543D01*
X-52866Y-157101D01*
X-52849Y-156864D01*
X-51360Y-156864D01*
X-51383Y-157129D01*
X-51399Y-157554D01*
X-51412Y-158888D01*
X-51412Y-166341D01*
X-52989Y-166341D01*
X-52989Y-160849D01*
X-52999Y-160513D01*
X-53030Y-160195D01*
X-53081Y-159897D01*
X-53153Y-159617D01*
X-53246Y-159356D01*
X-53359Y-159114D01*
X-53492Y-158890D01*
X-53646Y-158686D01*
X-53818Y-158503D01*
X-54004Y-158345D01*
X-54206Y-158211D01*
X-54423Y-158101D01*
X-54655Y-158016D01*
X-54902Y-157955D01*
X-55164Y-157919D01*
X-55441Y-157907D01*
X-55808Y-157921D01*
X-56127Y-157963D01*
X-56399Y-158035D01*
X-56624Y-158134D01*
X-56812Y-158266D01*
X-56972Y-158434D01*
X-57105Y-158638D01*
X-57211Y-158879D01*
X-57291Y-159163D01*
X-57349Y-159501D01*
X-57383Y-159890D01*
X-57395Y-160333D01*
X-57395Y-166341D01*
G37*
G36*
X-21629Y-166341D02*
X-29363Y-166341D01*
X-29363Y-165001D01*
X-26358Y-165001D01*
X-26358Y-154000D01*
X-24905Y-154000D01*
X-21988Y-156006D01*
X-21988Y-157495D01*
X-24773Y-155507D01*
X-24773Y-165001D01*
X-21629Y-165001D01*
X-21629Y-166341D01*
G37*
G36*
X30731Y-126034D02*
X30471Y-126028D01*
X30223Y-126009D01*
X29985Y-125977D01*
X29758Y-125932D01*
X29541Y-125875D01*
X29336Y-125805D01*
X29141Y-125722D01*
X28957Y-125627D01*
X28782Y-125516D01*
X28611Y-125387D01*
X28446Y-125241D01*
X28286Y-125076D01*
X27983Y-124693D01*
X27701Y-124239D01*
X27674Y-124239D01*
X27644Y-125180D01*
X27622Y-125623D01*
X27604Y-125859D01*
X26115Y-125859D01*
X26138Y-125595D01*
X26155Y-125169D01*
X26168Y-123836D01*
X26168Y-116382D01*
X27744Y-116382D01*
X27744Y-121874D01*
X27755Y-122210D01*
X27785Y-122528D01*
X27837Y-122827D01*
X27909Y-123107D01*
X28001Y-123368D01*
X28114Y-123610D01*
X28247Y-123833D01*
X28401Y-124037D01*
X28573Y-124220D01*
X28760Y-124378D01*
X28962Y-124512D01*
X29179Y-124622D01*
X29410Y-124707D01*
X29657Y-124768D01*
X29920Y-124805D01*
X30197Y-124817D01*
X30563Y-124803D01*
X30882Y-124760D01*
X31154Y-124689D01*
X31379Y-124589D01*
X31567Y-124457D01*
X31727Y-124289D01*
X31860Y-124085D01*
X31966Y-123845D01*
X32046Y-123560D01*
X32104Y-123223D01*
X32138Y-122833D01*
X32150Y-122391D01*
X32150Y-116382D01*
X33735Y-116382D01*
X33735Y-122697D01*
X33724Y-123128D01*
X33690Y-123527D01*
X33634Y-123895D01*
X33554Y-124231D01*
X33453Y-124535D01*
X33329Y-124808D01*
X33182Y-125049D01*
X33013Y-125259D01*
X32819Y-125441D01*
X32599Y-125598D01*
X32353Y-125731D01*
X32081Y-125840D01*
X31783Y-125925D01*
X31458Y-125986D01*
X31108Y-126022D01*
X30731Y-126034D01*
G37*
G36*
X43502Y-125859D02*
X35769Y-125859D01*
X35769Y-124519D01*
X38773Y-124519D01*
X38773Y-113518D01*
X40227Y-113518D01*
X43143Y-115524D01*
X43143Y-117013D01*
X40358Y-115025D01*
X40358Y-124519D01*
X43502Y-124519D01*
X43502Y-125859D01*
G37*
G36*
X-14741Y-123800D02*
X-14984Y-123788D01*
X-15210Y-123754D01*
X-15420Y-123697D01*
X-15613Y-123617D01*
X-15788Y-123515D01*
X-15941Y-123393D01*
X-16074Y-123251D01*
X-16186Y-123088D01*
X-16274Y-122906D01*
X-16338Y-122709D01*
X-16376Y-122495D01*
X-16388Y-122264D01*
X-16388Y-119810D01*
X-15858Y-119810D01*
X-15858Y-122233D01*
X-15839Y-122495D01*
X-15784Y-122722D01*
X-15692Y-122917D01*
X-15563Y-123078D01*
X-15401Y-123204D01*
X-15209Y-123295D01*
X-14988Y-123349D01*
X-14738Y-123367D01*
X-14495Y-123350D01*
X-14282Y-123297D01*
X-14100Y-123210D01*
X-13948Y-123088D01*
X-13828Y-122932D01*
X-13742Y-122744D01*
X-13691Y-122523D01*
X-13674Y-122270D01*
X-13674Y-119810D01*
X-13141Y-119810D01*
X-13141Y-122314D01*
X-13153Y-122538D01*
X-13190Y-122746D01*
X-13252Y-122937D01*
X-13339Y-123113D01*
X-13448Y-123271D01*
X-13578Y-123408D01*
X-13727Y-123526D01*
X-13897Y-123624D01*
X-14085Y-123701D01*
X-14288Y-123756D01*
X-14507Y-123789D01*
X-14741Y-123800D01*
G37*
G36*
X-17112Y-123744D02*
X-19717Y-123744D01*
X-19717Y-123317D01*
X-17665Y-123317D01*
X-17775Y-123117D01*
X-17939Y-122911D01*
X-18161Y-122687D01*
X-18450Y-122437D01*
X-18939Y-122025D01*
X-19240Y-121736D01*
X-19421Y-121510D01*
X-19551Y-121284D01*
X-19630Y-121057D01*
X-19649Y-120943D01*
X-19656Y-120829D01*
X-19636Y-120585D01*
X-19576Y-120371D01*
X-19476Y-120187D01*
X-19336Y-120032D01*
X-19159Y-119909D01*
X-18948Y-119821D01*
X-18702Y-119768D01*
X-18422Y-119751D01*
X-18163Y-119768D01*
X-17929Y-119821D01*
X-17720Y-119908D01*
X-17535Y-120030D01*
X-17381Y-120182D01*
X-17263Y-120358D01*
X-17180Y-120557D01*
X-17134Y-120781D01*
X-17648Y-120829D01*
X-17677Y-120680D01*
X-17727Y-120549D01*
X-17799Y-120435D01*
X-17893Y-120339D01*
X-18004Y-120262D01*
X-18129Y-120208D01*
X-18268Y-120175D01*
X-18422Y-120164D01*
X-18581Y-120175D01*
X-18723Y-120209D01*
X-18845Y-120265D01*
X-18949Y-120343D01*
X-19033Y-120441D01*
X-19092Y-120558D01*
X-19127Y-120693D01*
X-19139Y-120846D01*
X-19132Y-120962D01*
X-19112Y-121073D01*
X-19029Y-121276D01*
X-18902Y-121461D01*
X-18740Y-121639D01*
X-18339Y-121985D01*
X-17891Y-122360D01*
X-17670Y-122575D01*
X-17460Y-122813D01*
X-17270Y-123082D01*
X-17112Y-123389D01*
X-17112Y-123744D01*
G37*
D10*
X34500Y65014D02*
X23500Y65014D01*
X23500Y77586D02*
X34500Y77586D01*
X52900Y64914D02*
X63900Y64914D01*
X63900Y77486D02*
X52900Y77486D01*
X-34700Y-133014D02*
X-45700Y-133014D01*
X-45700Y-145586D02*
X-34700Y-145586D01*
X29400Y-146486D02*
X40400Y-146486D01*
X40400Y-133914D02*
X29400Y-133914D01*
X100Y64640D02*
X-10900Y64640D01*
X-10900Y77360D02*
X100Y77360D01*
X-22100Y65740D02*
X-33100Y65740D01*
X-33100Y78460D02*
X-22100Y78460D01*
D11*
X-9271Y-124252D02*
X9271Y-124252D01*
X9271Y-155748D02*
X-9271Y-155748D01*
M02*
