M48
;GenerationSoftware,Autodesk,EAGLE,9.7.0*%
;CreationDate,2025-02-19T19:40:41Z*%
FMAT,2
ICI,OFF
METRIC,TZ,000.000
T3C0.350
T2C0.700
T1C0.800
%
G90
M71
T1
X3000Y-10750
X-1000Y-10750
X1000Y-10750
X5000Y-10750
X-5000Y-10750
X-3000Y-10750
T2
X320Y5350
X-1460Y5350
X-3240Y5350
X-5020Y5350
X-6800Y5350
X-7690Y-5350
X-5910Y-5350
X-4130Y-5350
X-2350Y-5350
X-570Y-5350
X1210Y-5350
X2990Y-5350
X4770Y-5350
X5660Y5350
X3880Y5350
X2100Y5350
T3
X3460Y-7680
X-7190Y-6810
X1320Y7260
X4520Y7440
X7700Y6640
X-5100Y7710
X130Y-7830
X6820Y-14200
X-7540Y-14560
X-5380Y-8690
X-1600Y8140
X-6940Y6940
X-4010Y-8140
X6980Y-5690
M30