G04 EAGLE Gerber RS-274X export*
G75*
%MOMM*%
%FSLAX34Y34*%
%LPD*%
%INSoldermask Bottom*%
%IPPOS*%
%AMOC8*
5,1,8,0,0,1.08239X$1,22.5*%
G01*
G04 Define Apertures*
%ADD10R,0.763200X0.832300*%
%ADD11R,1.643200X1.643200*%
%ADD12C,1.643200*%
%ADD13R,0.738300X0.847200*%
%ADD14C,1.503200*%
%ADD15R,1.625600X0.762000*%
%ADD16C,0.705600*%
D10*
X24154Y71300D03*
X33846Y71300D03*
X53554Y71200D03*
X63246Y71200D03*
X-35354Y-139300D03*
X-45046Y-139300D03*
X30054Y-140200D03*
X39746Y-140200D03*
D11*
X-50000Y-107500D03*
D12*
X-30000Y-107500D03*
X-10000Y-107500D03*
X10000Y-107500D03*
X30000Y-107500D03*
X50000Y-107500D03*
D13*
X-10475Y71000D03*
X-325Y71000D03*
X-32675Y72100D03*
X-22525Y72100D03*
D14*
X56600Y53500D03*
X38800Y53500D03*
X21000Y53500D03*
X3200Y53500D03*
X-14600Y53500D03*
X-32400Y53500D03*
X-50200Y53500D03*
X-68000Y53500D03*
X-76900Y-53500D03*
X-59100Y-53500D03*
X-41300Y-53500D03*
X-23500Y-53500D03*
X-5700Y-53500D03*
X12100Y-53500D03*
X29900Y-53500D03*
X47700Y-53500D03*
D15*
X-11444Y-149500D03*
X-11444Y-140000D03*
X-11444Y-130500D03*
X11444Y-130500D03*
X11444Y-149500D03*
D16*
X69800Y-56900D03*
X34600Y-76800D03*
X-71900Y-68100D03*
X13200Y72600D03*
X45200Y74400D03*
X77000Y66400D03*
X-51000Y77100D03*
X1300Y-78300D03*
X68200Y-142000D03*
X-75400Y-145600D03*
X-53800Y-86900D03*
X-16000Y81400D03*
X-69400Y69400D03*
X-40100Y-81400D03*
M02*
