G04 EAGLE Gerber RS-274X export*
G75*
%MOMM*%
%FSLAX34Y34*%
%LPD*%
%INTop Copper*%
%IPPOS*%
%AMOC8*
5,1,8,0,0,1.08239X$1,22.5*%
G01*
G04 Define Apertures*
%ADD10R,1.440000X1.440000*%
%ADD11C,1.440000*%
%ADD12C,1.300000*%
%ADD13C,0.502400*%
%ADD14C,0.152400*%
G36*
X90197Y-167974D02*
X90000Y-168000D01*
X-90000Y-168000D01*
X-90197Y-167974D01*
X-93816Y-167004D01*
X-94158Y-166807D01*
X-96807Y-164158D01*
X-97004Y-163816D01*
X-97974Y-160197D01*
X-98000Y-160000D01*
X-98000Y-143762D01*
X-97949Y-143487D01*
X-97785Y-143232D01*
X-97535Y-143060D01*
X-97238Y-143000D01*
X-96517Y-143000D01*
X-90483Y-139517D01*
X-87000Y-133483D01*
X-87000Y-126517D01*
X-90483Y-120483D01*
X-96517Y-117000D01*
X-97238Y-117000D01*
X-97513Y-116949D01*
X-97768Y-116785D01*
X-97940Y-116535D01*
X-98000Y-116238D01*
X-98000Y40000D01*
X-97993Y40099D01*
X-97649Y42712D01*
X-97613Y42865D01*
X-97458Y43125D01*
X-97213Y43305D01*
X-96918Y43375D01*
X-96619Y43324D01*
X-96364Y43160D01*
X-96192Y42910D01*
X-96132Y42613D01*
X-96132Y-67742D01*
X-85742Y-78132D01*
X-55158Y-78132D01*
X-39268Y-62242D01*
X-39268Y-61578D01*
X-39215Y-61297D01*
X-39049Y-61043D01*
X-38798Y-60874D01*
X-36899Y-60087D01*
X-34713Y-57901D01*
X-33530Y-55046D01*
X-33530Y-51954D01*
X-34713Y-49099D01*
X-36899Y-46913D01*
X-37772Y-46551D01*
X-37993Y-46411D01*
X-38173Y-46166D01*
X-38242Y-45871D01*
X-38192Y-45572D01*
X-38028Y-45317D01*
X-37778Y-45145D01*
X-37481Y-45085D01*
X-27319Y-45085D01*
X-27062Y-45130D01*
X-26802Y-45287D01*
X-26625Y-45533D01*
X-26557Y-45829D01*
X-26611Y-46127D01*
X-26776Y-46382D01*
X-27028Y-46551D01*
X-27901Y-46913D01*
X-30087Y-49099D01*
X-31270Y-51954D01*
X-31270Y-55046D01*
X-30087Y-57901D01*
X-27901Y-60087D01*
X-25046Y-61270D01*
X-21954Y-61270D01*
X-19099Y-60087D01*
X-16913Y-57901D01*
X-15730Y-55046D01*
X-15730Y-51954D01*
X-16913Y-49099D01*
X-19099Y-46913D01*
X-19972Y-46551D01*
X-20193Y-46411D01*
X-20373Y-46166D01*
X-20442Y-45871D01*
X-20392Y-45572D01*
X-20228Y-45317D01*
X-19978Y-45145D01*
X-19681Y-45085D01*
X-9519Y-45085D01*
X-9262Y-45130D01*
X-9002Y-45287D01*
X-8825Y-45533D01*
X-8757Y-45829D01*
X-8811Y-46127D01*
X-8976Y-46382D01*
X-9228Y-46551D01*
X-10101Y-46913D01*
X-12287Y-49099D01*
X-13470Y-51954D01*
X-13470Y-55046D01*
X-12287Y-57901D01*
X-10101Y-60087D01*
X-7246Y-61270D01*
X-4154Y-61270D01*
X-1299Y-60087D01*
X887Y-57901D01*
X2070Y-55046D01*
X2070Y-51954D01*
X887Y-49099D01*
X-1299Y-46913D01*
X-2172Y-46551D01*
X-2393Y-46411D01*
X-2573Y-46166D01*
X-2642Y-45871D01*
X-2592Y-45572D01*
X-2428Y-45317D01*
X-2178Y-45145D01*
X-1881Y-45085D01*
X8281Y-45085D01*
X8538Y-45130D01*
X8798Y-45287D01*
X8975Y-45533D01*
X9043Y-45829D01*
X8989Y-46127D01*
X8824Y-46382D01*
X8572Y-46551D01*
X7699Y-46913D01*
X5513Y-49099D01*
X4330Y-51954D01*
X4330Y-55046D01*
X5513Y-57901D01*
X7699Y-60087D01*
X10554Y-61270D01*
X13646Y-61270D01*
X16501Y-60087D01*
X18687Y-57901D01*
X19870Y-55046D01*
X19870Y-51954D01*
X18687Y-49099D01*
X16501Y-46913D01*
X15628Y-46551D01*
X15407Y-46411D01*
X15227Y-46166D01*
X15158Y-45871D01*
X15208Y-45572D01*
X15372Y-45317D01*
X15622Y-45145D01*
X15919Y-45085D01*
X26081Y-45085D01*
X26338Y-45130D01*
X26598Y-45287D01*
X26775Y-45533D01*
X26843Y-45829D01*
X26789Y-46127D01*
X26624Y-46382D01*
X26372Y-46551D01*
X25499Y-46913D01*
X23313Y-49099D01*
X22130Y-51954D01*
X22130Y-55046D01*
X23313Y-57901D01*
X25499Y-60087D01*
X28354Y-61270D01*
X31446Y-61270D01*
X33345Y-60483D01*
X33624Y-60426D01*
X33922Y-60481D01*
X34175Y-60649D01*
X47658Y-74132D01*
X75942Y-74132D01*
X90732Y-59342D01*
X90732Y52142D01*
X82642Y60232D01*
X65123Y60232D01*
X64837Y60288D01*
X64585Y60455D01*
X60976Y64064D01*
X4525Y64064D01*
X4239Y64120D01*
X3987Y64287D01*
X-11995Y80269D01*
X-12158Y80510D01*
X-12218Y80807D01*
X-12218Y82967D01*
X-14433Y85182D01*
X-17567Y85182D01*
X-19782Y82967D01*
X-19782Y79833D01*
X-17567Y77618D01*
X-15407Y77618D01*
X-15121Y77562D01*
X-14869Y77395D01*
X567Y61960D01*
X722Y61735D01*
X790Y61439D01*
X736Y61141D01*
X571Y60886D01*
X319Y60717D01*
X-1201Y60087D01*
X-3387Y57901D01*
X-4570Y55046D01*
X-4570Y51954D01*
X-3387Y49099D01*
X-1201Y46913D01*
X-328Y46551D01*
X-107Y46411D01*
X73Y46166D01*
X142Y45871D01*
X92Y45572D01*
X-72Y45317D01*
X-322Y45145D01*
X-619Y45085D01*
X-10781Y45085D01*
X-11038Y45130D01*
X-11298Y45287D01*
X-11475Y45533D01*
X-11543Y45829D01*
X-11489Y46127D01*
X-11324Y46382D01*
X-11072Y46551D01*
X-10199Y46913D01*
X-8013Y49099D01*
X-6830Y51954D01*
X-6830Y55046D01*
X-8013Y57901D01*
X-10199Y60087D01*
X-13054Y61270D01*
X-16146Y61270D01*
X-19001Y60087D01*
X-21187Y57901D01*
X-22370Y55046D01*
X-22370Y51954D01*
X-21187Y49099D01*
X-19001Y46913D01*
X-18128Y46551D01*
X-17907Y46411D01*
X-17727Y46166D01*
X-17658Y45871D01*
X-17708Y45572D01*
X-17872Y45317D01*
X-18122Y45145D01*
X-18419Y45085D01*
X-28581Y45085D01*
X-28838Y45130D01*
X-29098Y45287D01*
X-29275Y45533D01*
X-29343Y45829D01*
X-29289Y46127D01*
X-29124Y46382D01*
X-28872Y46551D01*
X-27999Y46913D01*
X-25813Y49099D01*
X-24630Y51954D01*
X-24630Y55046D01*
X-25813Y57901D01*
X-27999Y60087D01*
X-30854Y61270D01*
X-33946Y61270D01*
X-36801Y60087D01*
X-38987Y57901D01*
X-40170Y55046D01*
X-40170Y51954D01*
X-38987Y49099D01*
X-36801Y46913D01*
X-35928Y46551D01*
X-35707Y46411D01*
X-35527Y46166D01*
X-35458Y45871D01*
X-35508Y45572D01*
X-35672Y45317D01*
X-35922Y45145D01*
X-36219Y45085D01*
X-46381Y45085D01*
X-46638Y45130D01*
X-46898Y45287D01*
X-47075Y45533D01*
X-47143Y45829D01*
X-47089Y46127D01*
X-46924Y46382D01*
X-46672Y46551D01*
X-45799Y46913D01*
X-43613Y49099D01*
X-42430Y51954D01*
X-42430Y55046D01*
X-43613Y57901D01*
X-45799Y60087D01*
X-48654Y61270D01*
X-51746Y61270D01*
X-54601Y60087D01*
X-56787Y57901D01*
X-57709Y55676D01*
X-57853Y55451D01*
X-58099Y55274D01*
X-58394Y55206D01*
X-58693Y55259D01*
X-58947Y55425D01*
X-59117Y55676D01*
X-60336Y58621D01*
X-62879Y61164D01*
X-66202Y62540D01*
X-67238Y62540D01*
X-67238Y52738D01*
X-77040Y52738D01*
X-77040Y51702D01*
X-75664Y48379D01*
X-73670Y46386D01*
X-73517Y46166D01*
X-73447Y45871D01*
X-73498Y45572D01*
X-73662Y45317D01*
X-73912Y45145D01*
X-74209Y45085D01*
X-89002Y45085D01*
X-89265Y45132D01*
X-89523Y45291D01*
X-89699Y45539D01*
X-89764Y45835D01*
X-89708Y46133D01*
X-89541Y46386D01*
X-77212Y58715D01*
X-76998Y58865D01*
X-76703Y58937D01*
X-76404Y58889D01*
X-76147Y58727D01*
X-75974Y58479D01*
X-75911Y58182D01*
X-75969Y57884D01*
X-77040Y55298D01*
X-77040Y54262D01*
X-68762Y54262D01*
X-68762Y62540D01*
X-69798Y62540D01*
X-72384Y61469D01*
X-72640Y61412D01*
X-72939Y61458D01*
X-73197Y61617D01*
X-73373Y61864D01*
X-73438Y62161D01*
X-73382Y62459D01*
X-73215Y62712D01*
X-70532Y65395D01*
X-70290Y65558D01*
X-69993Y65618D01*
X-67833Y65618D01*
X-65618Y67833D01*
X-65618Y70967D01*
X-67833Y73182D01*
X-70967Y73182D01*
X-73182Y70967D01*
X-73182Y68807D01*
X-73238Y68521D01*
X-73405Y68269D01*
X-95863Y45810D01*
X-96176Y45622D01*
X-96477Y45591D01*
X-96767Y45680D01*
X-96999Y45876D01*
X-97137Y46146D01*
X-97158Y46449D01*
X-96384Y52326D01*
X-96332Y52518D01*
X-91613Y63911D01*
X-91514Y64083D01*
X-84007Y73866D01*
X-83866Y74007D01*
X-74083Y81514D01*
X-73911Y81613D01*
X-62518Y86332D01*
X-62326Y86384D01*
X-50099Y87993D01*
X-50000Y88000D01*
X50000Y88000D01*
X50099Y87993D01*
X62326Y86384D01*
X62518Y86332D01*
X73911Y81613D01*
X74083Y81514D01*
X83866Y74007D01*
X84007Y73866D01*
X91514Y64083D01*
X91613Y63911D01*
X96332Y52518D01*
X96384Y52326D01*
X97993Y40099D01*
X98000Y40000D01*
X98000Y-116238D01*
X97949Y-116513D01*
X97785Y-116768D01*
X97535Y-116940D01*
X97238Y-117000D01*
X96517Y-117000D01*
X90483Y-120483D01*
X87000Y-126517D01*
X87000Y-133483D01*
X90483Y-139517D01*
X96517Y-143000D01*
X97238Y-143000D01*
X97513Y-143051D01*
X97768Y-143215D01*
X97940Y-143465D01*
X98000Y-143762D01*
X98000Y-160000D01*
X97974Y-160197D01*
X97004Y-163816D01*
X96807Y-164158D01*
X94158Y-166807D01*
X93816Y-167004D01*
X90197Y-167974D01*
G37*
%LPC*%
G36*
X8315Y-115970D02*
X11685Y-115970D01*
X14798Y-114681D01*
X17181Y-112298D01*
X18470Y-109185D01*
X18470Y-105815D01*
X17181Y-102702D01*
X14798Y-100320D01*
X11685Y-99030D01*
X8315Y-99030D01*
X6020Y-99981D01*
X5740Y-100039D01*
X5442Y-99983D01*
X5189Y-99816D01*
X-15258Y-79368D01*
X-36468Y-79368D01*
X-36754Y-79312D01*
X-37007Y-79145D01*
X-38533Y-77618D01*
X-41667Y-77618D01*
X-43882Y-79833D01*
X-43882Y-82967D01*
X-41667Y-85182D01*
X-38533Y-85182D01*
X-37007Y-83655D01*
X-36765Y-83492D01*
X-36468Y-83432D01*
X-17257Y-83432D01*
X-16971Y-83488D01*
X-16719Y-83655D01*
X2316Y-102689D01*
X2476Y-102925D01*
X2539Y-103222D01*
X2481Y-103520D01*
X1530Y-105815D01*
X1530Y-109185D01*
X2820Y-112298D01*
X5202Y-114681D01*
X8315Y-115970D01*
G37*
G36*
X40260Y-106738D02*
X49238Y-106738D01*
X49238Y-97760D01*
X48063Y-97760D01*
X44483Y-99243D01*
X41743Y-101983D01*
X40260Y-105563D01*
X40260Y-106738D01*
G37*
G36*
X50762Y-106738D02*
X59740Y-106738D01*
X59740Y-105563D01*
X58257Y-101983D01*
X55517Y-99243D01*
X51937Y-97760D01*
X50762Y-97760D01*
X50762Y-106738D01*
G37*
G36*
X28315Y-115970D02*
X31685Y-115970D01*
X34798Y-114681D01*
X37181Y-112298D01*
X38470Y-109185D01*
X38470Y-105815D01*
X37181Y-102702D01*
X34798Y-100320D01*
X31685Y-99030D01*
X28315Y-99030D01*
X25202Y-100320D01*
X22820Y-102702D01*
X21530Y-105815D01*
X21530Y-109185D01*
X22820Y-112298D01*
X25202Y-114681D01*
X28315Y-115970D01*
G37*
G36*
X-11685Y-115970D02*
X-8315Y-115970D01*
X-5202Y-114681D01*
X-2820Y-112298D01*
X-1530Y-109185D01*
X-1530Y-105815D01*
X-2820Y-102702D01*
X-5202Y-100320D01*
X-8315Y-99030D01*
X-11685Y-99030D01*
X-14798Y-100320D01*
X-17181Y-102702D01*
X-18470Y-105815D01*
X-18470Y-109185D01*
X-17181Y-112298D01*
X-14798Y-114681D01*
X-11685Y-115970D01*
G37*
G36*
X-31685Y-115970D02*
X-28315Y-115970D01*
X-25202Y-114681D01*
X-22820Y-112298D01*
X-21530Y-109185D01*
X-21530Y-105815D01*
X-22820Y-102702D01*
X-25202Y-100320D01*
X-28315Y-99030D01*
X-31685Y-99030D01*
X-34798Y-100320D01*
X-37181Y-102702D01*
X-38470Y-105815D01*
X-38470Y-109185D01*
X-37181Y-112298D01*
X-34798Y-114681D01*
X-31685Y-115970D01*
G37*
G36*
X-57726Y-115970D02*
X-42274Y-115970D01*
X-41530Y-115226D01*
X-41530Y-99774D01*
X-42274Y-99030D01*
X-57726Y-99030D01*
X-58470Y-99774D01*
X-58470Y-115226D01*
X-57726Y-115970D01*
G37*
G36*
X50762Y-117240D02*
X51937Y-117240D01*
X55517Y-115757D01*
X58257Y-113017D01*
X59740Y-109437D01*
X59740Y-108262D01*
X50762Y-108262D01*
X50762Y-117240D01*
G37*
G36*
X48063Y-117240D02*
X49238Y-117240D01*
X49238Y-108262D01*
X40260Y-108262D01*
X40260Y-109437D01*
X41743Y-113017D01*
X44483Y-115757D01*
X48063Y-117240D01*
G37*
%LPD*%
G36*
X74240Y-70008D02*
X73943Y-70068D01*
X49657Y-70068D01*
X49371Y-70012D01*
X49119Y-69845D01*
X37049Y-57775D01*
X36888Y-57539D01*
X36825Y-57242D01*
X36883Y-56945D01*
X37670Y-55046D01*
X37670Y-51954D01*
X36487Y-49099D01*
X34301Y-46913D01*
X33428Y-46551D01*
X33207Y-46411D01*
X33027Y-46166D01*
X32958Y-45871D01*
X33008Y-45572D01*
X33172Y-45317D01*
X33422Y-45145D01*
X33719Y-45085D01*
X43881Y-45085D01*
X44138Y-45130D01*
X44398Y-45287D01*
X44575Y-45533D01*
X44643Y-45829D01*
X44589Y-46127D01*
X44424Y-46382D01*
X44172Y-46551D01*
X43299Y-46913D01*
X41113Y-49099D01*
X39930Y-51954D01*
X39930Y-55046D01*
X41113Y-57901D01*
X43299Y-60087D01*
X46154Y-61270D01*
X49246Y-61270D01*
X52101Y-60087D01*
X54287Y-57901D01*
X55470Y-55046D01*
X55470Y-51954D01*
X54287Y-49099D01*
X52101Y-46913D01*
X51228Y-46551D01*
X51007Y-46411D01*
X50827Y-46166D01*
X50758Y-45871D01*
X50808Y-45572D01*
X50972Y-45317D01*
X51222Y-45145D01*
X51519Y-45085D01*
X82498Y-45085D01*
X82553Y-45076D01*
X82554Y-45073D01*
X82560Y-45033D01*
X82560Y-44450D01*
X82611Y-44175D01*
X82638Y-44133D01*
X82638Y44127D01*
X82620Y44153D01*
X82560Y44450D01*
X82560Y45023D01*
X82551Y45078D01*
X82548Y45079D01*
X82508Y45085D01*
X60419Y45085D01*
X60162Y45130D01*
X59902Y45287D01*
X59725Y45533D01*
X59657Y45829D01*
X59711Y46127D01*
X59876Y46382D01*
X60128Y46551D01*
X61001Y46913D01*
X63187Y49099D01*
X64370Y51954D01*
X64370Y55046D01*
X64342Y55114D01*
X64284Y55382D01*
X64335Y55681D01*
X64498Y55936D01*
X64748Y56108D01*
X65045Y56168D01*
X80643Y56168D01*
X80929Y56112D01*
X81182Y55945D01*
X86445Y50682D01*
X86608Y50440D01*
X86668Y50143D01*
X86668Y-57343D01*
X86612Y-57629D01*
X86445Y-57882D01*
X74482Y-69845D01*
X74240Y-70008D01*
G37*
G36*
X-56860Y-74008D02*
X-57157Y-74068D01*
X-83743Y-74068D01*
X-84029Y-74012D01*
X-84282Y-73845D01*
X-91845Y-66282D01*
X-92008Y-66040D01*
X-92068Y-65743D01*
X-92068Y43543D01*
X-92012Y43829D01*
X-91845Y44082D01*
X-91461Y44466D01*
X-91241Y44619D01*
X-90946Y44688D01*
X-90647Y44637D01*
X-90392Y44474D01*
X-90220Y44224D01*
X-90160Y43927D01*
X-90160Y-45023D01*
X-90151Y-45078D01*
X-90148Y-45079D01*
X-90108Y-45085D01*
X-80719Y-45085D01*
X-80462Y-45130D01*
X-80202Y-45287D01*
X-80025Y-45533D01*
X-79957Y-45829D01*
X-80011Y-46127D01*
X-80176Y-46382D01*
X-80428Y-46551D01*
X-81301Y-46913D01*
X-83487Y-49099D01*
X-84670Y-51954D01*
X-84670Y-55046D01*
X-83487Y-57901D01*
X-81301Y-60087D01*
X-78446Y-61270D01*
X-75354Y-61270D01*
X-72499Y-60087D01*
X-70313Y-57901D01*
X-69130Y-55046D01*
X-69130Y-51954D01*
X-70313Y-49099D01*
X-72499Y-46913D01*
X-73372Y-46551D01*
X-73593Y-46411D01*
X-73773Y-46166D01*
X-73842Y-45871D01*
X-73792Y-45572D01*
X-73628Y-45317D01*
X-73378Y-45145D01*
X-73081Y-45085D01*
X-62919Y-45085D01*
X-62662Y-45130D01*
X-62402Y-45287D01*
X-62225Y-45533D01*
X-62157Y-45829D01*
X-62211Y-46127D01*
X-62376Y-46382D01*
X-62628Y-46551D01*
X-63501Y-46913D01*
X-65687Y-49099D01*
X-66870Y-51954D01*
X-66870Y-55046D01*
X-65687Y-57901D01*
X-63501Y-60087D01*
X-60646Y-61270D01*
X-57554Y-61270D01*
X-54699Y-60087D01*
X-52513Y-57901D01*
X-51330Y-55046D01*
X-51330Y-51954D01*
X-52513Y-49099D01*
X-54699Y-46913D01*
X-55572Y-46551D01*
X-55793Y-46411D01*
X-55973Y-46166D01*
X-56042Y-45871D01*
X-55992Y-45572D01*
X-55828Y-45317D01*
X-55578Y-45145D01*
X-55281Y-45085D01*
X-45119Y-45085D01*
X-44862Y-45130D01*
X-44602Y-45287D01*
X-44425Y-45533D01*
X-44357Y-45829D01*
X-44411Y-46127D01*
X-44576Y-46382D01*
X-44828Y-46551D01*
X-45701Y-46913D01*
X-47887Y-49099D01*
X-49070Y-51954D01*
X-49070Y-55046D01*
X-47887Y-57901D01*
X-45701Y-60087D01*
X-44746Y-60483D01*
X-44517Y-60631D01*
X-44341Y-60878D01*
X-44276Y-61175D01*
X-44332Y-61473D01*
X-44499Y-61725D01*
X-56619Y-73845D01*
X-56860Y-74008D01*
G37*
D10*
X-50000Y-107500D03*
D11*
X-30000Y-107500D03*
X-10000Y-107500D03*
X10000Y-107500D03*
X30000Y-107500D03*
X50000Y-107500D03*
D12*
X56600Y53500D03*
X38800Y53500D03*
X21000Y53500D03*
X3200Y53500D03*
X-14600Y53500D03*
X-32400Y53500D03*
X-50200Y53500D03*
X-68000Y53500D03*
X-76900Y-53500D03*
X-59100Y-53500D03*
X-41300Y-53500D03*
X-23500Y-53500D03*
X-5700Y-53500D03*
X12100Y-53500D03*
X29900Y-53500D03*
X47700Y-53500D03*
D13*
X69800Y-56900D03*
X34600Y-76800D03*
X-71900Y-68100D03*
X13200Y72600D03*
X45200Y74400D03*
X77000Y66400D03*
X-51000Y77100D03*
X1300Y-78300D03*
X68200Y-142000D03*
X-75400Y-145600D03*
X-53800Y-86900D03*
X-16000Y81400D03*
D14*
X3368Y62032D01*
X60134Y62032D02*
X63966Y58200D01*
X81800Y58200D01*
X60134Y62032D02*
X3368Y62032D01*
X81800Y58200D02*
X88700Y51300D01*
X88700Y-51400D01*
X88700Y-58500D01*
X75100Y-72100D01*
X48500Y-72100D01*
X29900Y-53500D01*
D13*
X-69400Y69400D03*
D14*
X-94100Y44700D01*
X-94100Y-66900D01*
X-84900Y-76100D01*
X-56000Y-76100D01*
X-41300Y-61400D01*
X-41300Y-53500D01*
X-16100Y-81400D02*
X10000Y-107500D01*
X-16100Y-81400D02*
X-40100Y-81400D01*
D13*
X-40100Y-81400D03*
M02*
