G04 EAGLE Gerber RS-274X export*
G75*
%MOMM*%
%FSLAX34Y34*%
%LPD*%
%INBottom Copper*%
%IPPOS*%
%AMOC8*
5,1,8,0,0,1.08239X$1,22.5*%
G01*
G04 Define Apertures*
%ADD10C,1.800000*%
%ADD11R,1.440000X1.440000*%
%ADD12C,1.440000*%
%ADD13C,0.508000*%
%ADD14C,0.502400*%
G36*
X180149Y-197985D02*
X180000Y-198000D01*
X-180000Y-198000D01*
X-180149Y-197985D01*
X-186745Y-196673D01*
X-187020Y-196559D01*
X-192612Y-192823D01*
X-192823Y-192612D01*
X-196559Y-187020D01*
X-196673Y-186745D01*
X-197985Y-180149D01*
X-198000Y-180000D01*
X-198000Y-20000D01*
X-197985Y-19851D01*
X-196673Y-13255D01*
X-196559Y-12980D01*
X-192823Y-7388D01*
X-192612Y-7177D01*
X-187020Y-3441D01*
X-186745Y-3327D01*
X-180149Y-2015D01*
X-180000Y-2000D01*
X180000Y-2000D01*
X180149Y-2015D01*
X186745Y-3327D01*
X187020Y-3441D01*
X192612Y-7177D01*
X192823Y-7388D01*
X196559Y-12980D01*
X196673Y-13255D01*
X197985Y-19851D01*
X198000Y-20000D01*
X198000Y-180000D01*
X197985Y-180149D01*
X196673Y-186745D01*
X196559Y-187020D01*
X192823Y-192612D01*
X192612Y-192823D01*
X187020Y-196559D01*
X186745Y-196673D01*
X180149Y-197985D01*
G37*
%LPC*%
G36*
X163960Y-21638D02*
X174738Y-21638D01*
X174738Y-10860D01*
X173205Y-10860D01*
X168963Y-12617D01*
X165717Y-15863D01*
X163960Y-20105D01*
X163960Y-21638D01*
G37*
G36*
X176262Y-21638D02*
X187040Y-21638D01*
X187040Y-20105D01*
X185283Y-15863D01*
X182037Y-12617D01*
X177795Y-10860D01*
X176262Y-10860D01*
X176262Y-21638D01*
G37*
G36*
X176262Y-33940D02*
X177795Y-33940D01*
X182037Y-32183D01*
X185283Y-28937D01*
X187040Y-24695D01*
X187040Y-23162D01*
X176262Y-23162D01*
X176262Y-33940D01*
G37*
G36*
X173205Y-33940D02*
X174738Y-33940D01*
X174738Y-23162D01*
X163960Y-23162D01*
X163960Y-24695D01*
X165717Y-28937D01*
X168963Y-32183D01*
X173205Y-33940D01*
G37*
G36*
X-27878Y-192610D02*
X115278Y-192610D01*
X195810Y-112078D01*
X195810Y-55522D01*
X185683Y-45394D01*
X185517Y-45147D01*
X184206Y-41983D01*
X181318Y-39094D01*
X177543Y-37530D01*
X173457Y-37530D01*
X169683Y-39094D01*
X166794Y-41983D01*
X165230Y-45757D01*
X165230Y-49843D01*
X166794Y-53618D01*
X169683Y-56506D01*
X173457Y-58070D01*
X177543Y-58070D01*
X181318Y-56506D01*
X183129Y-54695D01*
X183360Y-54537D01*
X183656Y-54472D01*
X183954Y-54527D01*
X184207Y-54695D01*
X187967Y-58455D01*
X188130Y-58697D01*
X188190Y-58994D01*
X188190Y-108606D01*
X188134Y-108892D01*
X187967Y-109145D01*
X112345Y-184767D01*
X112103Y-184930D01*
X111806Y-184990D01*
X-24406Y-184990D01*
X-24692Y-184934D01*
X-24945Y-184767D01*
X-41307Y-168405D01*
X-41470Y-168163D01*
X-41530Y-167866D01*
X-41530Y-157374D01*
X-42274Y-156630D01*
X-57726Y-156630D01*
X-58470Y-157374D01*
X-58470Y-172826D01*
X-57726Y-173570D01*
X-47234Y-173570D01*
X-46948Y-173626D01*
X-46695Y-173793D01*
X-27878Y-192610D01*
G37*
G36*
X-31685Y-173570D02*
X-28315Y-173570D01*
X-25202Y-172281D01*
X-22820Y-169898D01*
X-21530Y-166785D01*
X-21530Y-163415D01*
X-21744Y-162898D01*
X-21802Y-162618D01*
X-21747Y-162320D01*
X-21579Y-162067D01*
X63255Y-77233D01*
X63497Y-77070D01*
X63794Y-77010D01*
X165453Y-77010D01*
X165733Y-77063D01*
X165987Y-77229D01*
X166157Y-77480D01*
X166794Y-79018D01*
X169683Y-81906D01*
X173457Y-83470D01*
X177543Y-83470D01*
X181318Y-81906D01*
X184206Y-79018D01*
X185770Y-75243D01*
X185770Y-71157D01*
X184206Y-67383D01*
X181318Y-64494D01*
X177543Y-62930D01*
X173457Y-62930D01*
X169683Y-64494D01*
X166794Y-67383D01*
X166157Y-68920D01*
X166000Y-69158D01*
X165750Y-69330D01*
X165453Y-69390D01*
X60322Y-69390D01*
X-26967Y-156679D01*
X-27203Y-156840D01*
X-27500Y-156902D01*
X-27798Y-156844D01*
X-28315Y-156630D01*
X-31685Y-156630D01*
X-34798Y-157920D01*
X-37181Y-160302D01*
X-38470Y-163415D01*
X-38470Y-166785D01*
X-37181Y-169898D01*
X-34798Y-172281D01*
X-31685Y-173570D01*
G37*
G36*
X-11685Y-173570D02*
X-8315Y-173570D01*
X-5202Y-172281D01*
X-2820Y-169898D01*
X-1530Y-166785D01*
X-1530Y-163415D01*
X-1744Y-162898D01*
X-1802Y-162618D01*
X-1747Y-162320D01*
X-1579Y-162067D01*
X-374Y-160862D01*
X-160Y-160712D01*
X135Y-160639D01*
X434Y-160688D01*
X691Y-160849D01*
X864Y-161098D01*
X927Y-161395D01*
X869Y-161692D01*
X260Y-163163D01*
X260Y-164338D01*
X9238Y-164338D01*
X9238Y-155360D01*
X8063Y-155360D01*
X6592Y-155969D01*
X6337Y-156026D01*
X6038Y-155980D01*
X5779Y-155821D01*
X5604Y-155573D01*
X5539Y-155277D01*
X5595Y-154979D01*
X5762Y-154726D01*
X57855Y-102633D01*
X58097Y-102470D01*
X58394Y-102410D01*
X165453Y-102410D01*
X165733Y-102463D01*
X165987Y-102629D01*
X166157Y-102880D01*
X166794Y-104418D01*
X169683Y-107306D01*
X173457Y-108870D01*
X177543Y-108870D01*
X181318Y-107306D01*
X184206Y-104418D01*
X185770Y-100643D01*
X185770Y-96557D01*
X184206Y-92783D01*
X181318Y-89894D01*
X177543Y-88330D01*
X173457Y-88330D01*
X169683Y-89894D01*
X166794Y-92783D01*
X166157Y-94320D01*
X166000Y-94558D01*
X165750Y-94730D01*
X165453Y-94790D01*
X54922Y-94790D01*
X-6967Y-156679D01*
X-7203Y-156840D01*
X-7500Y-156902D01*
X-7798Y-156844D01*
X-8315Y-156630D01*
X-11685Y-156630D01*
X-14798Y-157920D01*
X-17181Y-160302D01*
X-18470Y-163415D01*
X-18470Y-166785D01*
X-17181Y-169898D01*
X-14798Y-172281D01*
X-11685Y-173570D01*
G37*
G36*
X172414Y-168000D02*
X177586Y-168000D01*
X182364Y-166021D01*
X186021Y-162364D01*
X188000Y-157586D01*
X188000Y-152414D01*
X186021Y-147636D01*
X182364Y-143979D01*
X177586Y-142000D01*
X172414Y-142000D01*
X167636Y-143979D01*
X163979Y-147636D01*
X162000Y-152414D01*
X162000Y-157586D01*
X163979Y-162364D01*
X167636Y-166021D01*
X172414Y-168000D01*
G37*
G36*
X-177586Y-173000D02*
X-172414Y-173000D01*
X-167636Y-171021D01*
X-163979Y-167364D01*
X-162000Y-162586D01*
X-162000Y-157414D01*
X-163979Y-152636D01*
X-167636Y-148979D01*
X-172414Y-147000D01*
X-177586Y-147000D01*
X-182364Y-148979D01*
X-186021Y-152636D01*
X-188000Y-157414D01*
X-188000Y-162586D01*
X-186021Y-167364D01*
X-182364Y-171021D01*
X-177586Y-173000D01*
G37*
G36*
X10762Y-164338D02*
X19740Y-164338D01*
X19740Y-163163D01*
X18257Y-159583D01*
X15517Y-156843D01*
X11937Y-155360D01*
X10762Y-155360D01*
X10762Y-164338D01*
G37*
G36*
X48315Y-173570D02*
X51685Y-173570D01*
X54798Y-172281D01*
X57181Y-169898D01*
X58470Y-166785D01*
X58470Y-163415D01*
X57181Y-160302D01*
X54798Y-157920D01*
X51685Y-156630D01*
X48315Y-156630D01*
X45202Y-157920D01*
X42820Y-160302D01*
X41530Y-163415D01*
X41530Y-166785D01*
X42820Y-169898D01*
X45202Y-172281D01*
X48315Y-173570D01*
G37*
G36*
X28315Y-173570D02*
X31685Y-173570D01*
X34798Y-172281D01*
X37181Y-169898D01*
X38470Y-166785D01*
X38470Y-163415D01*
X37181Y-160302D01*
X34798Y-157920D01*
X31685Y-156630D01*
X28315Y-156630D01*
X25202Y-157920D01*
X22820Y-160302D01*
X21530Y-163415D01*
X21530Y-166785D01*
X22820Y-169898D01*
X25202Y-172281D01*
X28315Y-173570D01*
G37*
G36*
X10762Y-174840D02*
X11937Y-174840D01*
X15517Y-173357D01*
X18257Y-170617D01*
X19740Y-167037D01*
X19740Y-165862D01*
X10762Y-165862D01*
X10762Y-174840D01*
G37*
G36*
X8063Y-174840D02*
X9238Y-174840D01*
X9238Y-165862D01*
X260Y-165862D01*
X260Y-167037D01*
X1743Y-170617D01*
X4483Y-173357D01*
X8063Y-174840D01*
G37*
%LPD*%
D10*
X175500Y-22400D03*
X175500Y-47800D03*
X175500Y-73200D03*
X175500Y-98600D03*
D11*
X-50000Y-165100D03*
D12*
X-30000Y-165100D03*
X-10000Y-165100D03*
X10000Y-165100D03*
X30000Y-165100D03*
X50000Y-165100D03*
D13*
X-26300Y-188800D02*
X-50000Y-165100D01*
X-26300Y-188800D02*
X109500Y-188800D01*
X113700Y-188800D01*
X188100Y-114400D01*
X192000Y-110500D01*
X192000Y-57100D01*
X182700Y-47800D01*
X175500Y-47800D01*
D14*
X-185000Y-15000D03*
X-180000Y-180000D03*
X180000Y-180000D03*
X140000Y-35000D03*
X-145000Y-40000D03*
X-150000Y-10000D03*
X-100000Y-145000D03*
X10000Y-180000D03*
X105000Y-130000D03*
X100000Y-30000D03*
D13*
X61900Y-73200D02*
X-30000Y-165100D01*
X61900Y-73200D02*
X175500Y-73200D01*
X56500Y-98600D02*
X-10000Y-165100D01*
X56500Y-98600D02*
X175500Y-98600D01*
M02*
