M48
;GenerationSoftware,Autodesk,EAGLE,9.7.0*%
;CreationDate,2025-02-19T19:33:53Z*%
FMAT,2
ICI,OFF
METRIC,TZ,000.000
T4C0.350
T3C0.800
T2C1.000
T1C2.200
%
G90
M71
T1
X-17500Y-16000
X17500Y-15500
T2
X17550Y-2240
X17550Y-4780
X17550Y-7320
X17550Y-9860
T3
X-5000Y-16510
X-3000Y-16510
X-1000Y-16510
X1000Y-16510
X3000Y-16510
X5000Y-16510
T4
X-18500Y-1500
X-18000Y-18000
X18000Y-18000
X14000Y-3500
X-14500Y-4000
X-15000Y-1000
X-10000Y-14500
X1000Y-18000
X10500Y-13000
X10000Y-3000
M30