G04 EAGLE Gerber RS-274X export*
G75*
%MOMM*%
%FSLAX34Y34*%
%LPD*%
%INTop Copper*%
%IPPOS*%
%AMOC8*
5,1,8,0,0,1.08239X$1,22.5*%
G01*
G04 Define Apertures*
%ADD10C,1.800000*%
%ADD11R,0.650000X1.050000*%
%ADD12R,1.440000X1.440000*%
%ADD13C,1.440000*%
%ADD14C,0.508000*%
%ADD15C,0.502400*%
G36*
X180149Y-197985D02*
X180000Y-198000D01*
X-180000Y-198000D01*
X-180149Y-197985D01*
X-186745Y-196673D01*
X-187020Y-196559D01*
X-192612Y-192823D01*
X-192823Y-192612D01*
X-196559Y-187020D01*
X-196673Y-186745D01*
X-197985Y-180149D01*
X-198000Y-180000D01*
X-198000Y-20000D01*
X-197985Y-19851D01*
X-196673Y-13255D01*
X-196559Y-12980D01*
X-192823Y-7388D01*
X-192612Y-7177D01*
X-187020Y-3441D01*
X-186745Y-3327D01*
X-180149Y-2015D01*
X-180000Y-2000D01*
X180000Y-2000D01*
X180149Y-2015D01*
X186745Y-3327D01*
X187020Y-3441D01*
X192612Y-7177D01*
X192823Y-7388D01*
X196559Y-12980D01*
X196673Y-13255D01*
X197985Y-19851D01*
X198000Y-20000D01*
X198000Y-180000D01*
X197985Y-180149D01*
X196673Y-186745D01*
X196559Y-187020D01*
X192823Y-192612D01*
X192612Y-192823D01*
X187020Y-196559D01*
X186745Y-196673D01*
X180149Y-197985D01*
G37*
%LPC*%
G36*
X163960Y-21638D02*
X174738Y-21638D01*
X174738Y-10860D01*
X173205Y-10860D01*
X168963Y-12617D01*
X165717Y-15863D01*
X163960Y-20105D01*
X163960Y-21638D01*
G37*
G36*
X176262Y-21638D02*
X187040Y-21638D01*
X187040Y-20105D01*
X185283Y-15863D01*
X182037Y-12617D01*
X177795Y-10860D01*
X176262Y-10860D01*
X176262Y-21638D01*
G37*
G36*
X176262Y-33940D02*
X177795Y-33940D01*
X182037Y-32183D01*
X185283Y-28937D01*
X187040Y-24695D01*
X187040Y-23162D01*
X176262Y-23162D01*
X176262Y-33940D01*
G37*
G36*
X173205Y-33940D02*
X174738Y-33940D01*
X174738Y-23162D01*
X163960Y-23162D01*
X163960Y-24695D01*
X165717Y-28937D01*
X168963Y-32183D01*
X173205Y-33940D01*
G37*
G36*
X48315Y-173570D02*
X51685Y-173570D01*
X54798Y-172281D01*
X57181Y-169898D01*
X58470Y-166785D01*
X58470Y-163415D01*
X57181Y-160302D01*
X54798Y-157920D01*
X51685Y-156630D01*
X48315Y-156630D01*
X47798Y-156844D01*
X47518Y-156902D01*
X47220Y-156847D01*
X46967Y-156679D01*
X-32272Y-77440D01*
X-159468Y-77440D01*
X-159743Y-77389D01*
X-159998Y-77225D01*
X-160170Y-76975D01*
X-160230Y-76678D01*
X-160230Y-75474D01*
X-160717Y-74987D01*
X-160880Y-74746D01*
X-160940Y-74448D01*
X-160940Y-46552D01*
X-160884Y-46266D01*
X-160717Y-46013D01*
X-160230Y-45526D01*
X-160230Y-33974D01*
X-160974Y-33230D01*
X-168526Y-33230D01*
X-169270Y-33974D01*
X-169270Y-45526D01*
X-168783Y-46013D01*
X-168620Y-46254D01*
X-168560Y-46552D01*
X-168560Y-74448D01*
X-168616Y-74734D01*
X-168783Y-74987D01*
X-169270Y-75474D01*
X-169270Y-87026D01*
X-168526Y-87770D01*
X-160974Y-87770D01*
X-160230Y-87026D01*
X-160230Y-85822D01*
X-160179Y-85547D01*
X-160015Y-85292D01*
X-159765Y-85120D01*
X-159468Y-85060D01*
X-35744Y-85060D01*
X-35458Y-85116D01*
X-35205Y-85283D01*
X41579Y-162067D01*
X41740Y-162303D01*
X41802Y-162600D01*
X41744Y-162898D01*
X41530Y-163415D01*
X41530Y-166785D01*
X42820Y-169898D01*
X45202Y-172281D01*
X48315Y-173570D01*
G37*
G36*
X28315Y-173570D02*
X31685Y-173570D01*
X34798Y-172281D01*
X37181Y-169898D01*
X38470Y-166785D01*
X38470Y-163415D01*
X37181Y-160302D01*
X34798Y-157920D01*
X31685Y-156630D01*
X28315Y-156630D01*
X27798Y-156844D01*
X27518Y-156902D01*
X27220Y-156847D01*
X26967Y-156679D01*
X-31422Y-98290D01*
X-163806Y-98290D01*
X-164092Y-98234D01*
X-164345Y-98067D01*
X-181507Y-80905D01*
X-181670Y-80663D01*
X-181730Y-80366D01*
X-181730Y-75474D01*
X-182217Y-74987D01*
X-182380Y-74746D01*
X-182440Y-74448D01*
X-182440Y-46552D01*
X-182384Y-46266D01*
X-182217Y-46013D01*
X-181730Y-45526D01*
X-181730Y-33974D01*
X-182474Y-33230D01*
X-190026Y-33230D01*
X-190770Y-33974D01*
X-190770Y-45526D01*
X-190283Y-46013D01*
X-190120Y-46254D01*
X-190060Y-46552D01*
X-190060Y-74448D01*
X-190116Y-74734D01*
X-190283Y-74987D01*
X-190770Y-75474D01*
X-190770Y-87026D01*
X-190026Y-87770D01*
X-185734Y-87770D01*
X-185448Y-87826D01*
X-185195Y-87993D01*
X-167278Y-105910D01*
X-34894Y-105910D01*
X-34608Y-105966D01*
X-34355Y-106133D01*
X14238Y-154726D01*
X14388Y-154940D01*
X14461Y-155235D01*
X14412Y-155534D01*
X14251Y-155791D01*
X14002Y-155964D01*
X13705Y-156027D01*
X13408Y-155969D01*
X11937Y-155360D01*
X10762Y-155360D01*
X10762Y-164338D01*
X19740Y-164338D01*
X19740Y-163163D01*
X19131Y-161692D01*
X19074Y-161437D01*
X19120Y-161138D01*
X19279Y-160879D01*
X19527Y-160704D01*
X19823Y-160639D01*
X20121Y-160695D01*
X20374Y-160862D01*
X21579Y-162067D01*
X21740Y-162303D01*
X21802Y-162600D01*
X21744Y-162898D01*
X21530Y-163415D01*
X21530Y-166785D01*
X22820Y-169898D01*
X25202Y-172281D01*
X28315Y-173570D01*
G37*
G36*
X173457Y-58070D02*
X177543Y-58070D01*
X181318Y-56506D01*
X184206Y-53618D01*
X185770Y-49843D01*
X185770Y-45757D01*
X184206Y-41983D01*
X181318Y-39094D01*
X177543Y-37530D01*
X173457Y-37530D01*
X169683Y-39094D01*
X166794Y-41983D01*
X165230Y-45757D01*
X165230Y-49843D01*
X166794Y-53618D01*
X169683Y-56506D01*
X173457Y-58070D01*
G37*
G36*
X173457Y-83470D02*
X177543Y-83470D01*
X181318Y-81906D01*
X184206Y-79018D01*
X185770Y-75243D01*
X185770Y-71157D01*
X184206Y-67383D01*
X181318Y-64494D01*
X177543Y-62930D01*
X173457Y-62930D01*
X169683Y-64494D01*
X166794Y-67383D01*
X165230Y-71157D01*
X165230Y-75243D01*
X166794Y-79018D01*
X169683Y-81906D01*
X173457Y-83470D01*
G37*
G36*
X173457Y-108870D02*
X177543Y-108870D01*
X181318Y-107306D01*
X184206Y-104418D01*
X185770Y-100643D01*
X185770Y-96557D01*
X184206Y-92783D01*
X181318Y-89894D01*
X177543Y-88330D01*
X173457Y-88330D01*
X169683Y-89894D01*
X166794Y-92783D01*
X165230Y-96557D01*
X165230Y-100643D01*
X166794Y-104418D01*
X169683Y-107306D01*
X173457Y-108870D01*
G37*
G36*
X172414Y-168000D02*
X177586Y-168000D01*
X182364Y-166021D01*
X186021Y-162364D01*
X188000Y-157586D01*
X188000Y-152414D01*
X186021Y-147636D01*
X182364Y-143979D01*
X177586Y-142000D01*
X172414Y-142000D01*
X167636Y-143979D01*
X163979Y-147636D01*
X162000Y-152414D01*
X162000Y-157586D01*
X163979Y-162364D01*
X167636Y-166021D01*
X172414Y-168000D01*
G37*
G36*
X-177586Y-173000D02*
X-172414Y-173000D01*
X-167636Y-171021D01*
X-163979Y-167364D01*
X-162000Y-162586D01*
X-162000Y-157414D01*
X-163979Y-152636D01*
X-167636Y-148979D01*
X-172414Y-147000D01*
X-177586Y-147000D01*
X-182364Y-148979D01*
X-186021Y-152636D01*
X-188000Y-157414D01*
X-188000Y-162586D01*
X-186021Y-167364D01*
X-182364Y-171021D01*
X-177586Y-173000D01*
G37*
G36*
X260Y-164338D02*
X9238Y-164338D01*
X9238Y-155360D01*
X8063Y-155360D01*
X4483Y-156843D01*
X1743Y-159583D01*
X260Y-163163D01*
X260Y-164338D01*
G37*
G36*
X-11685Y-173570D02*
X-8315Y-173570D01*
X-5202Y-172281D01*
X-2820Y-169898D01*
X-1530Y-166785D01*
X-1530Y-163415D01*
X-2820Y-160302D01*
X-5202Y-157920D01*
X-8315Y-156630D01*
X-11685Y-156630D01*
X-14798Y-157920D01*
X-17181Y-160302D01*
X-18470Y-163415D01*
X-18470Y-166785D01*
X-17181Y-169898D01*
X-14798Y-172281D01*
X-11685Y-173570D01*
G37*
G36*
X-31685Y-173570D02*
X-28315Y-173570D01*
X-25202Y-172281D01*
X-22820Y-169898D01*
X-21530Y-166785D01*
X-21530Y-163415D01*
X-22820Y-160302D01*
X-25202Y-157920D01*
X-28315Y-156630D01*
X-31685Y-156630D01*
X-34798Y-157920D01*
X-37181Y-160302D01*
X-38470Y-163415D01*
X-38470Y-166785D01*
X-37181Y-169898D01*
X-34798Y-172281D01*
X-31685Y-173570D01*
G37*
G36*
X-57726Y-173570D02*
X-42274Y-173570D01*
X-41530Y-172826D01*
X-41530Y-157374D01*
X-42274Y-156630D01*
X-57726Y-156630D01*
X-58470Y-157374D01*
X-58470Y-172826D01*
X-57726Y-173570D01*
G37*
G36*
X10762Y-174840D02*
X11937Y-174840D01*
X15517Y-173357D01*
X18257Y-170617D01*
X19740Y-167037D01*
X19740Y-165862D01*
X10762Y-165862D01*
X10762Y-174840D01*
G37*
G36*
X8063Y-174840D02*
X9238Y-174840D01*
X9238Y-165862D01*
X260Y-165862D01*
X260Y-167037D01*
X1743Y-170617D01*
X4483Y-173357D01*
X8063Y-174840D01*
G37*
%LPD*%
D10*
X175500Y-22400D03*
X175500Y-47800D03*
X175500Y-73200D03*
X175500Y-98600D03*
D11*
X-186250Y-81250D03*
X-186250Y-39750D03*
X-164750Y-81250D03*
X-164750Y-39750D03*
D12*
X-50000Y-165100D03*
D13*
X-30000Y-165100D03*
X-10000Y-165100D03*
X10000Y-165100D03*
X30000Y-165100D03*
X50000Y-165100D03*
D14*
X-33850Y-81250D02*
X-164750Y-81250D01*
X-33850Y-81250D02*
X50000Y-165100D01*
X-164750Y-81250D02*
X-164750Y-39750D01*
X-33000Y-102100D02*
X30000Y-165100D01*
X-33000Y-102100D02*
X-165700Y-102100D01*
X-186250Y-81550D01*
X-186250Y-81250D01*
X-186250Y-39750D01*
D15*
X-185000Y-15000D03*
X-180000Y-180000D03*
X180000Y-180000D03*
X140000Y-35000D03*
X-145000Y-40000D03*
X-150000Y-10000D03*
X-100000Y-145000D03*
X10000Y-180000D03*
X105000Y-130000D03*
X100000Y-30000D03*
M02*
