G04 EAGLE Gerber RS-274X export*
G75*
%MOMM*%
%FSLAX34Y34*%
%LPD*%
%INSilkscreen Bottom*%
%IPPOS*%
%AMOC8*
5,1,8,0,0,1.08239X$1,22.5*%
G01*
G04 Define Apertures*
%ADD10C,0.152400*%
G36*
X29904Y-83675D02*
X29527Y-83666D01*
X29162Y-83639D01*
X28809Y-83594D01*
X28468Y-83532D01*
X28139Y-83451D01*
X27822Y-83353D01*
X27517Y-83236D01*
X27224Y-83102D01*
X26946Y-82951D01*
X26684Y-82784D01*
X26439Y-82601D01*
X26211Y-82401D01*
X26000Y-82186D01*
X25806Y-81955D01*
X25629Y-81707D01*
X25469Y-81444D01*
X25327Y-81166D01*
X25203Y-80875D01*
X25099Y-80571D01*
X25014Y-80255D01*
X24947Y-79925D01*
X24900Y-79583D01*
X24872Y-79228D01*
X24862Y-78861D01*
X24872Y-78496D01*
X24900Y-78144D01*
X24948Y-77804D01*
X25016Y-77476D01*
X25102Y-77161D01*
X25207Y-76858D01*
X25332Y-76567D01*
X25476Y-76288D01*
X25638Y-76024D01*
X25816Y-75775D01*
X26011Y-75542D01*
X26222Y-75325D01*
X26451Y-75124D01*
X26695Y-74939D01*
X26957Y-74769D01*
X27235Y-74616D01*
X27527Y-74479D01*
X27831Y-74361D01*
X28147Y-74260D01*
X28474Y-74179D01*
X28814Y-74115D01*
X29165Y-74069D01*
X29529Y-74042D01*
X29904Y-74033D01*
X30280Y-74042D01*
X30644Y-74069D01*
X30995Y-74114D01*
X31333Y-74177D01*
X31659Y-74258D01*
X31972Y-74357D01*
X32272Y-74474D01*
X32559Y-74609D01*
X32832Y-74761D01*
X33088Y-74929D01*
X33327Y-75113D01*
X33550Y-75313D01*
X33756Y-75529D01*
X33945Y-75762D01*
X34117Y-76010D01*
X34273Y-76274D01*
X34411Y-76553D01*
X34531Y-76844D01*
X34632Y-77147D01*
X34715Y-77462D01*
X34780Y-77790D01*
X34826Y-78130D01*
X34853Y-78482D01*
X34863Y-78847D01*
X34842Y-79400D01*
X34781Y-79922D01*
X34678Y-80413D01*
X34534Y-80873D01*
X34349Y-81301D01*
X34124Y-81698D01*
X33857Y-82064D01*
X33549Y-82399D01*
X33204Y-82698D01*
X32828Y-82957D01*
X32420Y-83176D01*
X31981Y-83356D01*
X31509Y-83495D01*
X31006Y-83595D01*
X30471Y-83655D01*
X29904Y-83675D01*
G37*
%LPC*%
G36*
X29904Y-82337D02*
X30351Y-82323D01*
X30773Y-82280D01*
X31169Y-82209D01*
X31540Y-82109D01*
X31885Y-81981D01*
X32204Y-81825D01*
X32498Y-81640D01*
X32766Y-81426D01*
X33005Y-81187D01*
X33213Y-80924D01*
X33388Y-80637D01*
X33532Y-80326D01*
X33643Y-79992D01*
X33723Y-79634D01*
X33771Y-79252D01*
X33787Y-78847D01*
X33771Y-78445D01*
X33722Y-78066D01*
X33641Y-77711D01*
X33528Y-77379D01*
X33383Y-77070D01*
X33205Y-76785D01*
X32995Y-76523D01*
X32752Y-76285D01*
X32481Y-76072D01*
X32186Y-75888D01*
X31867Y-75732D01*
X31523Y-75604D01*
X31155Y-75505D01*
X30762Y-75434D01*
X30345Y-75392D01*
X29904Y-75378D01*
X29443Y-75392D01*
X29009Y-75434D01*
X28602Y-75504D01*
X28222Y-75603D01*
X27868Y-75729D01*
X27542Y-75884D01*
X27242Y-76067D01*
X26969Y-76278D01*
X26726Y-76515D01*
X26515Y-76777D01*
X26337Y-77063D01*
X26191Y-77374D01*
X26077Y-77709D01*
X25996Y-78068D01*
X25947Y-78452D01*
X25931Y-78861D01*
X25948Y-79258D01*
X25998Y-79633D01*
X26082Y-79986D01*
X26199Y-80317D01*
X26350Y-80625D01*
X26534Y-80911D01*
X26752Y-81175D01*
X27004Y-81416D01*
X27283Y-81632D01*
X27587Y-81819D01*
X27914Y-81977D01*
X28265Y-82107D01*
X28639Y-82207D01*
X29037Y-82279D01*
X29459Y-82322D01*
X29904Y-82337D01*
G37*
%LPD*%
G36*
X49904Y-83675D02*
X49527Y-83666D01*
X49162Y-83639D01*
X48809Y-83594D01*
X48468Y-83532D01*
X48139Y-83451D01*
X47822Y-83353D01*
X47517Y-83236D01*
X47224Y-83102D01*
X46946Y-82951D01*
X46684Y-82784D01*
X46439Y-82601D01*
X46211Y-82401D01*
X46000Y-82186D01*
X45806Y-81955D01*
X45629Y-81707D01*
X45469Y-81444D01*
X45327Y-81166D01*
X45203Y-80875D01*
X45099Y-80571D01*
X45014Y-80255D01*
X44947Y-79925D01*
X44900Y-79583D01*
X44872Y-79228D01*
X44862Y-78861D01*
X44872Y-78496D01*
X44900Y-78144D01*
X44948Y-77804D01*
X45016Y-77476D01*
X45102Y-77161D01*
X45207Y-76858D01*
X45332Y-76567D01*
X45476Y-76288D01*
X45638Y-76024D01*
X45816Y-75775D01*
X46011Y-75542D01*
X46222Y-75325D01*
X46451Y-75124D01*
X46695Y-74939D01*
X46957Y-74769D01*
X47235Y-74616D01*
X47527Y-74479D01*
X47831Y-74361D01*
X48147Y-74260D01*
X48474Y-74179D01*
X48814Y-74115D01*
X49165Y-74069D01*
X49529Y-74042D01*
X49904Y-74033D01*
X50280Y-74042D01*
X50644Y-74069D01*
X50995Y-74114D01*
X51333Y-74177D01*
X51659Y-74258D01*
X51972Y-74357D01*
X52272Y-74474D01*
X52559Y-74609D01*
X52832Y-74761D01*
X53088Y-74929D01*
X53327Y-75113D01*
X53550Y-75313D01*
X53756Y-75529D01*
X53945Y-75762D01*
X54117Y-76010D01*
X54273Y-76274D01*
X54411Y-76553D01*
X54531Y-76844D01*
X54632Y-77147D01*
X54715Y-77462D01*
X54780Y-77790D01*
X54826Y-78130D01*
X54853Y-78482D01*
X54863Y-78847D01*
X54842Y-79400D01*
X54781Y-79922D01*
X54678Y-80413D01*
X54534Y-80873D01*
X54349Y-81301D01*
X54124Y-81698D01*
X53857Y-82064D01*
X53549Y-82399D01*
X53204Y-82698D01*
X52828Y-82957D01*
X52420Y-83176D01*
X51981Y-83356D01*
X51509Y-83495D01*
X51006Y-83595D01*
X50471Y-83655D01*
X49904Y-83675D01*
G37*
%LPC*%
G36*
X49904Y-82337D02*
X50351Y-82323D01*
X50773Y-82280D01*
X51169Y-82209D01*
X51540Y-82109D01*
X51885Y-81981D01*
X52204Y-81825D01*
X52498Y-81640D01*
X52766Y-81426D01*
X53005Y-81187D01*
X53213Y-80924D01*
X53388Y-80637D01*
X53532Y-80326D01*
X53643Y-79992D01*
X53723Y-79634D01*
X53771Y-79252D01*
X53787Y-78847D01*
X53771Y-78445D01*
X53722Y-78066D01*
X53641Y-77711D01*
X53528Y-77379D01*
X53383Y-77070D01*
X53205Y-76785D01*
X52995Y-76523D01*
X52752Y-76285D01*
X52481Y-76072D01*
X52186Y-75888D01*
X51867Y-75732D01*
X51523Y-75604D01*
X51155Y-75505D01*
X50762Y-75434D01*
X50345Y-75392D01*
X49904Y-75378D01*
X49443Y-75392D01*
X49009Y-75434D01*
X48602Y-75504D01*
X48222Y-75603D01*
X47868Y-75729D01*
X47542Y-75884D01*
X47242Y-76067D01*
X46969Y-76278D01*
X46726Y-76515D01*
X46515Y-76777D01*
X46337Y-77063D01*
X46191Y-77374D01*
X46077Y-77709D01*
X45996Y-78068D01*
X45947Y-78452D01*
X45931Y-78861D01*
X45948Y-79258D01*
X45998Y-79633D01*
X46082Y-79986D01*
X46199Y-80317D01*
X46350Y-80625D01*
X46534Y-80911D01*
X46752Y-81175D01*
X47004Y-81416D01*
X47283Y-81632D01*
X47587Y-81819D01*
X47914Y-81977D01*
X48265Y-82107D01*
X48639Y-82207D01*
X49037Y-82279D01*
X49459Y-82322D01*
X49904Y-82337D01*
G37*
%LPD*%
G36*
X-5282Y-83966D02*
X-15000Y-83966D01*
X-15000Y-80332D01*
X-14991Y-79985D01*
X-14963Y-79649D01*
X-14916Y-79323D01*
X-14850Y-79007D01*
X-14766Y-78702D01*
X-14663Y-78407D01*
X-14541Y-78123D01*
X-14400Y-77849D01*
X-14242Y-77587D01*
X-14067Y-77341D01*
X-13876Y-77111D01*
X-13668Y-76895D01*
X-13444Y-76695D01*
X-13203Y-76510D01*
X-12946Y-76341D01*
X-12672Y-76187D01*
X-12385Y-76049D01*
X-12085Y-75930D01*
X-11774Y-75829D01*
X-11451Y-75747D01*
X-11116Y-75683D01*
X-10769Y-75637D01*
X-10411Y-75609D01*
X-10041Y-75600D01*
X-9487Y-75621D01*
X-8965Y-75684D01*
X-8476Y-75789D01*
X-8019Y-75936D01*
X-7596Y-76124D01*
X-7205Y-76355D01*
X-6846Y-76627D01*
X-6520Y-76942D01*
X-6230Y-77295D01*
X-5979Y-77683D01*
X-5766Y-78106D01*
X-5592Y-78565D01*
X-5456Y-79059D01*
X-5360Y-79588D01*
X-5302Y-80153D01*
X-5282Y-80752D01*
X-5282Y-83966D01*
G37*
%LPC*%
G36*
X-6337Y-82649D02*
X-6337Y-80780D01*
X-6352Y-80325D01*
X-6397Y-79897D01*
X-6471Y-79498D01*
X-6575Y-79126D01*
X-6708Y-78781D01*
X-6871Y-78464D01*
X-7064Y-78176D01*
X-7286Y-77914D01*
X-7536Y-77682D01*
X-7814Y-77481D01*
X-8118Y-77311D01*
X-8449Y-77172D01*
X-8807Y-77064D01*
X-9191Y-76986D01*
X-9603Y-76940D01*
X-10041Y-76925D01*
X-10336Y-76931D01*
X-10621Y-76952D01*
X-10897Y-76986D01*
X-11162Y-77033D01*
X-11417Y-77094D01*
X-11663Y-77169D01*
X-11898Y-77257D01*
X-12124Y-77359D01*
X-12338Y-77474D01*
X-12540Y-77600D01*
X-12728Y-77738D01*
X-12903Y-77888D01*
X-13066Y-78049D01*
X-13215Y-78222D01*
X-13352Y-78407D01*
X-13476Y-78604D01*
X-13586Y-78811D01*
X-13681Y-79025D01*
X-13762Y-79248D01*
X-13828Y-79479D01*
X-13879Y-79718D01*
X-13915Y-79965D01*
X-13937Y-80220D01*
X-13945Y-80483D01*
X-13945Y-82649D01*
X-6337Y-82649D01*
G37*
%LPD*%
G36*
X14718Y-72185D02*
X5000Y-72185D01*
X5000Y-68550D01*
X5009Y-68204D01*
X5038Y-67868D01*
X5084Y-67542D01*
X5150Y-67226D01*
X5234Y-66921D01*
X5338Y-66626D01*
X5459Y-66342D01*
X5600Y-66067D01*
X5758Y-65806D01*
X5933Y-65560D01*
X6124Y-65329D01*
X6332Y-65114D01*
X6556Y-64914D01*
X6797Y-64729D01*
X7054Y-64560D01*
X7328Y-64405D01*
X7616Y-64268D01*
X7915Y-64149D01*
X8226Y-64048D01*
X8549Y-63966D01*
X8884Y-63902D01*
X9231Y-63856D01*
X9589Y-63828D01*
X9959Y-63819D01*
X10513Y-63840D01*
X11035Y-63903D01*
X11524Y-64008D01*
X11981Y-64154D01*
X12404Y-64343D01*
X12796Y-64574D01*
X13154Y-64846D01*
X13480Y-65161D01*
X13770Y-65514D01*
X14021Y-65902D01*
X14234Y-66325D01*
X14408Y-66784D01*
X14544Y-67278D01*
X14640Y-67807D01*
X14698Y-68371D01*
X14718Y-68971D01*
X14718Y-72185D01*
G37*
%LPC*%
G36*
X13663Y-70868D02*
X13663Y-68999D01*
X13648Y-68544D01*
X13603Y-68116D01*
X13529Y-67716D01*
X13426Y-67344D01*
X13292Y-67000D01*
X13129Y-66683D01*
X12937Y-66394D01*
X12714Y-66133D01*
X12464Y-65901D01*
X12186Y-65700D01*
X11882Y-65530D01*
X11551Y-65391D01*
X11193Y-65282D01*
X10809Y-65205D01*
X10397Y-65159D01*
X9959Y-65143D01*
X9664Y-65150D01*
X9379Y-65170D01*
X9103Y-65204D01*
X8838Y-65252D01*
X8583Y-65313D01*
X8337Y-65388D01*
X8102Y-65476D01*
X7876Y-65578D01*
X7662Y-65692D01*
X7460Y-65819D01*
X7272Y-65957D01*
X7097Y-66106D01*
X6934Y-66268D01*
X6785Y-66441D01*
X6648Y-66626D01*
X6524Y-66823D01*
X6414Y-67029D01*
X6319Y-67244D01*
X6238Y-67467D01*
X6172Y-67698D01*
X6121Y-67937D01*
X6085Y-68184D01*
X6063Y-68439D01*
X6055Y-68702D01*
X6055Y-70868D01*
X13663Y-70868D01*
G37*
%LPD*%
G36*
X54718Y-93373D02*
X45000Y-93373D01*
X45000Y-92055D01*
X49035Y-92055D01*
X49035Y-89027D01*
X45000Y-86503D01*
X45000Y-84986D01*
X47404Y-86570D01*
X49186Y-87745D01*
X49243Y-87475D01*
X49317Y-87219D01*
X49408Y-86979D01*
X49516Y-86754D01*
X49589Y-86631D01*
X49641Y-86544D01*
X49783Y-86349D01*
X49942Y-86168D01*
X50118Y-86003D01*
X50307Y-85855D01*
X50508Y-85727D01*
X50720Y-85619D01*
X50942Y-85530D01*
X51175Y-85461D01*
X51418Y-85412D01*
X51673Y-85382D01*
X51938Y-85372D01*
X52257Y-85386D01*
X52558Y-85428D01*
X52840Y-85498D01*
X53105Y-85595D01*
X53351Y-85721D01*
X53580Y-85875D01*
X53791Y-86056D01*
X53983Y-86265D01*
X54155Y-86500D01*
X54305Y-86759D01*
X54431Y-87040D01*
X54534Y-87345D01*
X54615Y-87674D01*
X54672Y-88026D01*
X54706Y-88401D01*
X54718Y-88800D01*
X54718Y-93373D01*
G37*
%LPC*%
G36*
X53663Y-92055D02*
X53663Y-88931D01*
X53656Y-88668D01*
X53635Y-88421D01*
X53600Y-88190D01*
X53551Y-87975D01*
X53489Y-87775D01*
X53412Y-87592D01*
X53322Y-87424D01*
X53218Y-87272D01*
X53100Y-87137D01*
X52970Y-87020D01*
X52827Y-86921D01*
X52672Y-86840D01*
X52504Y-86777D01*
X52324Y-86732D01*
X52130Y-86705D01*
X51925Y-86696D01*
X51712Y-86705D01*
X51511Y-86732D01*
X51322Y-86776D01*
X51146Y-86839D01*
X50982Y-86919D01*
X50830Y-87016D01*
X50690Y-87132D01*
X50562Y-87265D01*
X50448Y-87415D01*
X50350Y-87579D01*
X50266Y-87759D01*
X50198Y-87952D01*
X50145Y-88161D01*
X50107Y-88385D01*
X50084Y-88623D01*
X50076Y-88876D01*
X50076Y-92055D01*
X53663Y-92055D01*
G37*
%LPD*%
G36*
X54718Y-73282D02*
X45000Y-70419D01*
X45000Y-68847D01*
X49914Y-67497D01*
X51911Y-66964D01*
X53249Y-66661D01*
X51981Y-66381D01*
X51173Y-66178D01*
X45000Y-64495D01*
X45000Y-62922D01*
X54718Y-60060D01*
X54718Y-61433D01*
X49699Y-62828D01*
X47693Y-63371D01*
X46400Y-63674D01*
X46159Y-63736D01*
X47300Y-63998D01*
X48669Y-64343D01*
X54718Y-66033D01*
X54718Y-67295D01*
X49988Y-68622D01*
X47814Y-69209D01*
X46159Y-69592D01*
X47369Y-69866D01*
X48545Y-70164D01*
X54718Y-71909D01*
X54718Y-73282D01*
G37*
G36*
X-15000Y-74910D02*
X-15000Y-73544D01*
X-12158Y-72427D01*
X-12158Y-67999D01*
X-15000Y-66889D01*
X-15000Y-65544D01*
X-5282Y-69448D01*
X-5282Y-70944D01*
X-15000Y-74910D01*
G37*
%LPC*%
G36*
X-11131Y-72027D02*
X-7938Y-70786D01*
X-7122Y-70489D01*
X-6468Y-70275D01*
X-6275Y-70213D01*
X-6848Y-70027D01*
X-7417Y-69834D01*
X-7924Y-69641D01*
X-11131Y-68392D01*
X-11131Y-72027D01*
G37*
%LPD*%
G36*
X14718Y-82373D02*
X5000Y-82373D01*
X5000Y-81200D01*
X11456Y-81200D01*
X12607Y-81235D01*
X13276Y-81269D01*
X5000Y-76069D01*
X5000Y-74482D01*
X14718Y-74482D01*
X14718Y-75669D01*
X8345Y-75669D01*
X7552Y-75648D01*
X6386Y-75586D01*
X14718Y-80841D01*
X14718Y-82373D01*
G37*
G36*
X9904Y-93821D02*
X9524Y-93812D01*
X9157Y-93784D01*
X8802Y-93739D01*
X8460Y-93675D01*
X8130Y-93593D01*
X7813Y-93493D01*
X7509Y-93375D01*
X7217Y-93238D01*
X6940Y-93084D01*
X6680Y-92914D01*
X6436Y-92728D01*
X6210Y-92525D01*
X5999Y-92306D01*
X5806Y-92071D01*
X5629Y-91820D01*
X5469Y-91552D01*
X5327Y-91269D01*
X5203Y-90974D01*
X5099Y-90665D01*
X5014Y-90343D01*
X4947Y-90008D01*
X4900Y-89660D01*
X4872Y-89299D01*
X4862Y-88924D01*
X4869Y-88599D01*
X4889Y-88281D01*
X4923Y-87968D01*
X4970Y-87661D01*
X5030Y-87360D01*
X5105Y-87065D01*
X5293Y-86493D01*
X5531Y-85954D01*
X5813Y-85459D01*
X6140Y-85008D01*
X6510Y-84600D01*
X9862Y-84600D01*
X9862Y-88717D01*
X8759Y-88717D01*
X8759Y-85814D01*
X7007Y-85814D01*
X6772Y-86088D01*
X6562Y-86402D01*
X6379Y-86756D01*
X6221Y-87148D01*
X6094Y-87568D01*
X6004Y-88004D01*
X5949Y-88456D01*
X5931Y-88924D01*
X5948Y-89330D01*
X5998Y-89713D01*
X6081Y-90074D01*
X6197Y-90412D01*
X6347Y-90727D01*
X6530Y-91020D01*
X6747Y-91290D01*
X6997Y-91538D01*
X7275Y-91759D01*
X7578Y-91951D01*
X7905Y-92114D01*
X8256Y-92247D01*
X8632Y-92350D01*
X9031Y-92424D01*
X9455Y-92468D01*
X9904Y-92483D01*
X10353Y-92469D01*
X10776Y-92427D01*
X11173Y-92358D01*
X11544Y-92260D01*
X11890Y-92135D01*
X12209Y-91982D01*
X12502Y-91802D01*
X12769Y-91593D01*
X13008Y-91358D01*
X13215Y-91099D01*
X13389Y-90814D01*
X13532Y-90505D01*
X13644Y-90171D01*
X13723Y-89812D01*
X13771Y-89429D01*
X13787Y-89021D01*
X13781Y-88755D01*
X13763Y-88501D01*
X13733Y-88258D01*
X13692Y-88027D01*
X13573Y-87596D01*
X13407Y-87210D01*
X13306Y-87033D01*
X13190Y-86866D01*
X13060Y-86709D01*
X12916Y-86561D01*
X12586Y-86295D01*
X12200Y-86069D01*
X12573Y-84813D01*
X12863Y-84957D01*
X13132Y-85115D01*
X13381Y-85287D01*
X13609Y-85474D01*
X13817Y-85675D01*
X14004Y-85891D01*
X14171Y-86121D01*
X14318Y-86365D01*
X14446Y-86626D01*
X14556Y-86907D01*
X14650Y-87206D01*
X14726Y-87524D01*
X14786Y-87861D01*
X14829Y-88217D01*
X14854Y-88592D01*
X14863Y-88986D01*
X14842Y-89544D01*
X14782Y-90070D01*
X14680Y-90564D01*
X14539Y-91026D01*
X14356Y-91456D01*
X14133Y-91853D01*
X13870Y-92219D01*
X13566Y-92552D01*
X13225Y-92849D01*
X12851Y-93107D01*
X12443Y-93325D01*
X12002Y-93504D01*
X11528Y-93642D01*
X11020Y-93742D01*
X10478Y-93801D01*
X9904Y-93821D01*
G37*
G36*
X-32669Y-93890D02*
X-32968Y-93808D01*
X-33248Y-93702D01*
X-33508Y-93573D01*
X-33749Y-93420D01*
X-33971Y-93245D01*
X-34173Y-93046D01*
X-34357Y-92823D01*
X-34521Y-92578D01*
X-34665Y-92309D01*
X-34791Y-92016D01*
X-34897Y-91701D01*
X-34984Y-91362D01*
X-35051Y-90999D01*
X-35099Y-90614D01*
X-35128Y-90205D01*
X-35138Y-89772D01*
X-35126Y-89308D01*
X-35092Y-88871D01*
X-35034Y-88460D01*
X-34953Y-88077D01*
X-34850Y-87720D01*
X-34723Y-87390D01*
X-34573Y-87086D01*
X-34400Y-86810D01*
X-34206Y-86564D01*
X-33993Y-86350D01*
X-33761Y-86169D01*
X-33510Y-86021D01*
X-33240Y-85906D01*
X-32952Y-85824D01*
X-32644Y-85775D01*
X-32317Y-85758D01*
X-32060Y-85768D01*
X-31821Y-85795D01*
X-31598Y-85842D01*
X-31393Y-85907D01*
X-31203Y-85988D01*
X-31026Y-86083D01*
X-30861Y-86193D01*
X-30710Y-86317D01*
X-30443Y-86602D01*
X-30220Y-86934D01*
X-30033Y-87302D01*
X-29872Y-87696D01*
X-29734Y-88113D01*
X-29617Y-88548D01*
X-29407Y-89441D01*
X-29264Y-90055D01*
X-29133Y-90557D01*
X-29014Y-90948D01*
X-28907Y-91228D01*
X-28799Y-91439D01*
X-28681Y-91623D01*
X-28551Y-91782D01*
X-28410Y-91914D01*
X-28254Y-92018D01*
X-28078Y-92092D01*
X-27883Y-92137D01*
X-27669Y-92152D01*
X-27483Y-92142D01*
X-27309Y-92113D01*
X-27148Y-92066D01*
X-26998Y-91998D01*
X-26860Y-91912D01*
X-26734Y-91807D01*
X-26619Y-91682D01*
X-26517Y-91538D01*
X-26426Y-91376D01*
X-26348Y-91197D01*
X-26281Y-91000D01*
X-26227Y-90786D01*
X-26185Y-90555D01*
X-26155Y-90307D01*
X-26137Y-90041D01*
X-26131Y-89759D01*
X-26152Y-89256D01*
X-26218Y-88812D01*
X-26326Y-88425D01*
X-26397Y-88254D01*
X-26479Y-88096D01*
X-26573Y-87952D01*
X-26679Y-87821D01*
X-26800Y-87701D01*
X-26933Y-87593D01*
X-27080Y-87497D01*
X-27240Y-87414D01*
X-27413Y-87342D01*
X-27600Y-87283D01*
X-27372Y-85986D01*
X-27078Y-86082D01*
X-26806Y-86195D01*
X-26557Y-86323D01*
X-26330Y-86469D01*
X-26125Y-86630D01*
X-25942Y-86808D01*
X-25782Y-87003D01*
X-25644Y-87214D01*
X-25525Y-87445D01*
X-25423Y-87700D01*
X-25335Y-87980D01*
X-25264Y-88284D01*
X-25209Y-88613D01*
X-25169Y-88966D01*
X-25145Y-89343D01*
X-25137Y-89745D01*
X-25148Y-90177D01*
X-25180Y-90583D01*
X-25232Y-90963D01*
X-25306Y-91318D01*
X-25401Y-91647D01*
X-25518Y-91950D01*
X-25655Y-92228D01*
X-25813Y-92479D01*
X-25991Y-92703D01*
X-26187Y-92897D01*
X-26401Y-93062D01*
X-26632Y-93196D01*
X-26882Y-93300D01*
X-27149Y-93375D01*
X-27434Y-93420D01*
X-27738Y-93435D01*
X-28002Y-93423D01*
X-28251Y-93389D01*
X-28485Y-93332D01*
X-28703Y-93252D01*
X-28907Y-93150D01*
X-29097Y-93029D01*
X-29274Y-92887D01*
X-29438Y-92724D01*
X-29591Y-92536D01*
X-29737Y-92316D01*
X-29875Y-92065D01*
X-30007Y-91783D01*
X-30134Y-91450D01*
X-30262Y-91047D01*
X-30389Y-90576D01*
X-30517Y-90034D01*
X-30800Y-88827D01*
X-30946Y-88321D01*
X-31124Y-87889D01*
X-31227Y-87704D01*
X-31343Y-87540D01*
X-31472Y-87399D01*
X-31614Y-87279D01*
X-31773Y-87184D01*
X-31955Y-87116D01*
X-32159Y-87075D01*
X-32386Y-87062D01*
X-32592Y-87073D01*
X-32785Y-87105D01*
X-32965Y-87159D01*
X-33132Y-87235D01*
X-33286Y-87333D01*
X-33428Y-87452D01*
X-33556Y-87593D01*
X-33672Y-87755D01*
X-33775Y-87937D01*
X-33864Y-88138D01*
X-33939Y-88357D01*
X-34001Y-88594D01*
X-34049Y-88849D01*
X-34083Y-89123D01*
X-34103Y-89414D01*
X-34110Y-89724D01*
X-34104Y-90025D01*
X-34085Y-90309D01*
X-34053Y-90577D01*
X-34008Y-90829D01*
X-33950Y-91065D01*
X-33879Y-91285D01*
X-33796Y-91489D01*
X-33700Y-91676D01*
X-33590Y-91847D01*
X-33466Y-92004D01*
X-33327Y-92144D01*
X-33173Y-92269D01*
X-33005Y-92379D01*
X-32823Y-92473D01*
X-32625Y-92551D01*
X-32414Y-92614D01*
X-32669Y-93890D01*
G37*
G36*
X-12669Y-93890D02*
X-12968Y-93808D01*
X-13248Y-93702D01*
X-13508Y-93573D01*
X-13749Y-93420D01*
X-13971Y-93245D01*
X-14173Y-93046D01*
X-14357Y-92823D01*
X-14521Y-92578D01*
X-14665Y-92309D01*
X-14791Y-92016D01*
X-14897Y-91701D01*
X-14984Y-91362D01*
X-15051Y-90999D01*
X-15099Y-90614D01*
X-15128Y-90205D01*
X-15138Y-89772D01*
X-15126Y-89308D01*
X-15092Y-88871D01*
X-15034Y-88460D01*
X-14953Y-88077D01*
X-14850Y-87720D01*
X-14723Y-87390D01*
X-14573Y-87086D01*
X-14400Y-86810D01*
X-14206Y-86564D01*
X-13993Y-86350D01*
X-13761Y-86169D01*
X-13510Y-86021D01*
X-13240Y-85906D01*
X-12952Y-85824D01*
X-12644Y-85775D01*
X-12317Y-85758D01*
X-12060Y-85768D01*
X-11821Y-85795D01*
X-11598Y-85842D01*
X-11393Y-85907D01*
X-11203Y-85988D01*
X-11026Y-86083D01*
X-10861Y-86193D01*
X-10710Y-86317D01*
X-10443Y-86602D01*
X-10220Y-86934D01*
X-10033Y-87302D01*
X-9872Y-87696D01*
X-9734Y-88113D01*
X-9617Y-88548D01*
X-9407Y-89441D01*
X-9264Y-90055D01*
X-9133Y-90557D01*
X-9014Y-90948D01*
X-8907Y-91228D01*
X-8799Y-91439D01*
X-8681Y-91623D01*
X-8551Y-91782D01*
X-8410Y-91914D01*
X-8254Y-92018D01*
X-8078Y-92092D01*
X-7883Y-92137D01*
X-7669Y-92152D01*
X-7483Y-92142D01*
X-7309Y-92113D01*
X-7148Y-92066D01*
X-6998Y-91998D01*
X-6860Y-91912D01*
X-6734Y-91807D01*
X-6619Y-91682D01*
X-6517Y-91538D01*
X-6426Y-91376D01*
X-6348Y-91197D01*
X-6281Y-91000D01*
X-6227Y-90786D01*
X-6185Y-90555D01*
X-6155Y-90307D01*
X-6137Y-90041D01*
X-6131Y-89759D01*
X-6152Y-89256D01*
X-6218Y-88812D01*
X-6326Y-88425D01*
X-6397Y-88254D01*
X-6479Y-88096D01*
X-6573Y-87952D01*
X-6679Y-87821D01*
X-6800Y-87701D01*
X-6933Y-87593D01*
X-7080Y-87497D01*
X-7240Y-87414D01*
X-7413Y-87342D01*
X-7600Y-87283D01*
X-7372Y-85986D01*
X-7078Y-86082D01*
X-6806Y-86195D01*
X-6557Y-86323D01*
X-6330Y-86469D01*
X-6125Y-86630D01*
X-5942Y-86808D01*
X-5782Y-87003D01*
X-5644Y-87214D01*
X-5525Y-87445D01*
X-5423Y-87700D01*
X-5335Y-87980D01*
X-5264Y-88284D01*
X-5209Y-88613D01*
X-5169Y-88966D01*
X-5145Y-89343D01*
X-5137Y-89745D01*
X-5148Y-90177D01*
X-5180Y-90583D01*
X-5232Y-90963D01*
X-5306Y-91318D01*
X-5401Y-91647D01*
X-5518Y-91950D01*
X-5655Y-92228D01*
X-5813Y-92479D01*
X-5991Y-92703D01*
X-6187Y-92897D01*
X-6401Y-93062D01*
X-6632Y-93196D01*
X-6882Y-93300D01*
X-7149Y-93375D01*
X-7434Y-93420D01*
X-7738Y-93435D01*
X-8002Y-93423D01*
X-8251Y-93389D01*
X-8485Y-93332D01*
X-8703Y-93252D01*
X-8907Y-93150D01*
X-9097Y-93029D01*
X-9274Y-92887D01*
X-9438Y-92724D01*
X-9591Y-92536D01*
X-9737Y-92316D01*
X-9875Y-92065D01*
X-10007Y-91783D01*
X-10134Y-91450D01*
X-10262Y-91047D01*
X-10389Y-90576D01*
X-10517Y-90034D01*
X-10800Y-88827D01*
X-10946Y-88321D01*
X-11124Y-87889D01*
X-11227Y-87704D01*
X-11343Y-87540D01*
X-11472Y-87399D01*
X-11614Y-87279D01*
X-11773Y-87184D01*
X-11955Y-87116D01*
X-12159Y-87075D01*
X-12386Y-87062D01*
X-12592Y-87073D01*
X-12785Y-87105D01*
X-12965Y-87159D01*
X-13132Y-87235D01*
X-13286Y-87333D01*
X-13428Y-87452D01*
X-13556Y-87593D01*
X-13672Y-87755D01*
X-13775Y-87937D01*
X-13864Y-88138D01*
X-13939Y-88357D01*
X-14001Y-88594D01*
X-14049Y-88849D01*
X-14083Y-89123D01*
X-14103Y-89414D01*
X-14110Y-89724D01*
X-14104Y-90025D01*
X-14085Y-90309D01*
X-14053Y-90577D01*
X-14008Y-90829D01*
X-13950Y-91065D01*
X-13879Y-91285D01*
X-13796Y-91489D01*
X-13700Y-91676D01*
X-13590Y-91847D01*
X-13466Y-92004D01*
X-13327Y-92144D01*
X-13173Y-92269D01*
X-13005Y-92379D01*
X-12823Y-92473D01*
X-12625Y-92551D01*
X-12414Y-92614D01*
X-12669Y-93890D01*
G37*
G36*
X-30096Y-84408D02*
X-30478Y-84399D01*
X-30846Y-84373D01*
X-31201Y-84329D01*
X-31544Y-84267D01*
X-31873Y-84188D01*
X-32189Y-84092D01*
X-32492Y-83977D01*
X-32783Y-83846D01*
X-33058Y-83697D01*
X-33317Y-83533D01*
X-33560Y-83352D01*
X-33786Y-83156D01*
X-33996Y-82944D01*
X-34190Y-82715D01*
X-34367Y-82471D01*
X-34528Y-82211D01*
X-34671Y-81937D01*
X-34795Y-81650D01*
X-34900Y-81351D01*
X-34985Y-81039D01*
X-35052Y-80716D01*
X-35100Y-80379D01*
X-35128Y-80031D01*
X-35138Y-79670D01*
X-35128Y-79316D01*
X-35097Y-78974D01*
X-35046Y-78643D01*
X-34974Y-78322D01*
X-34882Y-78012D01*
X-34769Y-77714D01*
X-34636Y-77426D01*
X-34483Y-77149D01*
X-34310Y-76885D01*
X-34118Y-76636D01*
X-33907Y-76402D01*
X-33678Y-76184D01*
X-33429Y-75981D01*
X-33162Y-75793D01*
X-32877Y-75620D01*
X-32572Y-75462D01*
X-32034Y-76538D01*
X-32508Y-76811D01*
X-32918Y-77115D01*
X-33100Y-77280D01*
X-33266Y-77452D01*
X-33416Y-77632D01*
X-33550Y-77819D01*
X-33668Y-78015D01*
X-33771Y-78219D01*
X-33858Y-78431D01*
X-33929Y-78650D01*
X-33984Y-78878D01*
X-34024Y-79113D01*
X-34047Y-79356D01*
X-34055Y-79607D01*
X-34038Y-79995D01*
X-33987Y-80363D01*
X-33902Y-80710D01*
X-33784Y-81036D01*
X-33631Y-81342D01*
X-33444Y-81627D01*
X-33223Y-81891D01*
X-32969Y-82135D01*
X-32686Y-82354D01*
X-32382Y-82544D01*
X-32056Y-82705D01*
X-31708Y-82836D01*
X-31338Y-82938D01*
X-30946Y-83011D01*
X-30532Y-83055D01*
X-30096Y-83070D01*
X-29657Y-83056D01*
X-29241Y-83014D01*
X-28849Y-82944D01*
X-28482Y-82846D01*
X-28138Y-82719D01*
X-27818Y-82565D01*
X-27523Y-82383D01*
X-27251Y-82173D01*
X-27008Y-81938D01*
X-26797Y-81680D01*
X-26619Y-81400D01*
X-26473Y-81097D01*
X-26359Y-80772D01*
X-26278Y-80425D01*
X-26230Y-80055D01*
X-26213Y-79663D01*
X-26220Y-79410D01*
X-26241Y-79166D01*
X-26276Y-78931D01*
X-26325Y-78705D01*
X-26388Y-78487D01*
X-26465Y-78278D01*
X-26557Y-78078D01*
X-26662Y-77887D01*
X-26780Y-77706D01*
X-26911Y-77538D01*
X-27054Y-77383D01*
X-27210Y-77241D01*
X-27378Y-77112D01*
X-27559Y-76995D01*
X-27752Y-76891D01*
X-27958Y-76800D01*
X-27544Y-75552D01*
X-27255Y-75683D01*
X-26984Y-75831D01*
X-26732Y-75997D01*
X-26498Y-76180D01*
X-26282Y-76380D01*
X-26084Y-76597D01*
X-25905Y-76831D01*
X-25744Y-77083D01*
X-25602Y-77351D01*
X-25479Y-77636D01*
X-25374Y-77936D01*
X-25289Y-78252D01*
X-25223Y-78584D01*
X-25175Y-78932D01*
X-25147Y-79296D01*
X-25137Y-79676D01*
X-25158Y-80217D01*
X-25220Y-80726D01*
X-25323Y-81206D01*
X-25467Y-81656D01*
X-25652Y-82075D01*
X-25878Y-82465D01*
X-26146Y-82824D01*
X-26455Y-83152D01*
X-26800Y-83447D01*
X-27176Y-83702D01*
X-27584Y-83917D01*
X-28024Y-84094D01*
X-28495Y-84231D01*
X-28997Y-84329D01*
X-29531Y-84388D01*
X-30096Y-84408D01*
G37*
G36*
X29904Y-93814D02*
X29522Y-93805D01*
X29154Y-93779D01*
X28799Y-93735D01*
X28456Y-93673D01*
X28127Y-93594D01*
X27811Y-93498D01*
X27508Y-93384D01*
X27217Y-93252D01*
X26942Y-93103D01*
X26683Y-92939D01*
X26440Y-92759D01*
X26214Y-92562D01*
X26004Y-92350D01*
X25810Y-92122D01*
X25633Y-91877D01*
X25472Y-91617D01*
X25329Y-91343D01*
X25205Y-91056D01*
X25100Y-90757D01*
X25015Y-90446D01*
X24948Y-90122D01*
X24900Y-89786D01*
X24872Y-89437D01*
X24862Y-89076D01*
X24872Y-88723D01*
X24903Y-88380D01*
X24954Y-88049D01*
X25026Y-87728D01*
X25118Y-87419D01*
X25231Y-87120D01*
X25364Y-86832D01*
X25517Y-86555D01*
X25690Y-86291D01*
X25882Y-86042D01*
X26093Y-85809D01*
X26322Y-85590D01*
X26571Y-85387D01*
X26838Y-85199D01*
X27123Y-85026D01*
X27428Y-84869D01*
X27966Y-85945D01*
X27492Y-86217D01*
X27082Y-86522D01*
X26900Y-86686D01*
X26734Y-86858D01*
X26584Y-87038D01*
X26450Y-87226D01*
X26332Y-87421D01*
X26229Y-87625D01*
X26142Y-87837D01*
X26071Y-88056D01*
X26016Y-88284D01*
X25976Y-88519D01*
X25953Y-88762D01*
X25945Y-89014D01*
X25962Y-89402D01*
X26013Y-89769D01*
X26098Y-90116D01*
X26216Y-90442D01*
X26369Y-90748D01*
X26556Y-91033D01*
X26777Y-91298D01*
X27031Y-91541D01*
X27314Y-91760D01*
X27618Y-91950D01*
X27944Y-92111D01*
X28292Y-92242D01*
X28662Y-92345D01*
X29054Y-92418D01*
X29468Y-92461D01*
X29904Y-92476D01*
X30343Y-92462D01*
X30759Y-92420D01*
X31151Y-92350D01*
X31519Y-92252D01*
X31862Y-92126D01*
X32182Y-91972D01*
X32477Y-91790D01*
X32749Y-91579D01*
X32992Y-91344D01*
X33203Y-91086D01*
X33381Y-90806D01*
X33527Y-90503D01*
X33641Y-90178D01*
X33722Y-89831D01*
X33771Y-89461D01*
X33787Y-89069D01*
X33780Y-88816D01*
X33759Y-88573D01*
X33724Y-88337D01*
X33675Y-88111D01*
X33612Y-87893D01*
X33535Y-87685D01*
X33444Y-87484D01*
X33338Y-87293D01*
X33220Y-87112D01*
X33089Y-86944D01*
X32946Y-86789D01*
X32790Y-86647D01*
X32622Y-86518D01*
X32441Y-86401D01*
X32248Y-86298D01*
X32042Y-86207D01*
X32456Y-84958D01*
X32745Y-85089D01*
X33016Y-85238D01*
X33268Y-85403D01*
X33502Y-85586D01*
X33718Y-85786D01*
X33916Y-86003D01*
X34095Y-86238D01*
X34256Y-86489D01*
X34398Y-86758D01*
X34521Y-87042D01*
X34626Y-87342D01*
X34711Y-87658D01*
X34777Y-87991D01*
X34825Y-88339D01*
X34853Y-88703D01*
X34863Y-89083D01*
X34842Y-89623D01*
X34780Y-90133D01*
X34677Y-90613D01*
X34533Y-91062D01*
X34348Y-91482D01*
X34122Y-91871D01*
X33854Y-92230D01*
X33545Y-92559D01*
X33200Y-92853D01*
X32824Y-93108D01*
X32416Y-93324D01*
X31976Y-93500D01*
X31505Y-93637D01*
X31003Y-93736D01*
X30469Y-93794D01*
X29904Y-93814D01*
G37*
G36*
X-52503Y-93993D02*
X-52819Y-93941D01*
X-53115Y-93866D01*
X-53391Y-93769D01*
X-53647Y-93649D01*
X-53884Y-93508D01*
X-54100Y-93343D01*
X-54296Y-93157D01*
X-54472Y-92948D01*
X-54628Y-92719D01*
X-54764Y-92471D01*
X-54878Y-92205D01*
X-54972Y-91920D01*
X-55044Y-91616D01*
X-55096Y-91294D01*
X-55128Y-90953D01*
X-55138Y-90593D01*
X-55126Y-90208D01*
X-55092Y-89846D01*
X-55034Y-89506D01*
X-54953Y-89190D01*
X-54850Y-88896D01*
X-54723Y-88625D01*
X-54573Y-88377D01*
X-54400Y-88152D01*
X-54206Y-87951D01*
X-53993Y-87777D01*
X-53761Y-87630D01*
X-53510Y-87510D01*
X-53240Y-87417D01*
X-52952Y-87350D01*
X-52644Y-87310D01*
X-52317Y-87296D01*
X-52089Y-87306D01*
X-51871Y-87334D01*
X-51663Y-87382D01*
X-51465Y-87448D01*
X-51277Y-87533D01*
X-51099Y-87638D01*
X-50931Y-87761D01*
X-50772Y-87903D01*
X-50626Y-88063D01*
X-50496Y-88237D01*
X-50382Y-88426D01*
X-50283Y-88631D01*
X-50199Y-88851D01*
X-50131Y-89085D01*
X-50078Y-89335D01*
X-50041Y-89600D01*
X-50014Y-89600D01*
X-49956Y-89359D01*
X-49887Y-89133D01*
X-49805Y-88922D01*
X-49713Y-88725D01*
X-49608Y-88543D01*
X-49492Y-88376D01*
X-49364Y-88224D01*
X-49224Y-88086D01*
X-49073Y-87964D01*
X-48911Y-87858D01*
X-48738Y-87769D01*
X-48554Y-87696D01*
X-48359Y-87639D01*
X-48154Y-87598D01*
X-47937Y-87573D01*
X-47710Y-87565D01*
X-47415Y-87578D01*
X-47136Y-87616D01*
X-46875Y-87679D01*
X-46630Y-87768D01*
X-46401Y-87882D01*
X-46190Y-88021D01*
X-45995Y-88186D01*
X-45817Y-88376D01*
X-45657Y-88589D01*
X-45519Y-88822D01*
X-45403Y-89075D01*
X-45307Y-89349D01*
X-45233Y-89643D01*
X-45180Y-89958D01*
X-45148Y-90293D01*
X-45137Y-90648D01*
X-45148Y-90975D01*
X-45179Y-91287D01*
X-45231Y-91583D01*
X-45305Y-91865D01*
X-45399Y-92131D01*
X-45514Y-92382D01*
X-45650Y-92618D01*
X-45806Y-92838D01*
X-45982Y-93040D01*
X-46174Y-93219D01*
X-46382Y-93377D01*
X-46606Y-93511D01*
X-46847Y-93624D01*
X-47105Y-93714D01*
X-47378Y-93782D01*
X-47669Y-93828D01*
X-47765Y-92579D01*
X-47579Y-92552D01*
X-47404Y-92512D01*
X-47239Y-92458D01*
X-47086Y-92391D01*
X-46943Y-92310D01*
X-46811Y-92217D01*
X-46689Y-92110D01*
X-46579Y-91990D01*
X-46480Y-91858D01*
X-46395Y-91717D01*
X-46322Y-91565D01*
X-46263Y-91404D01*
X-46217Y-91234D01*
X-46184Y-91053D01*
X-46165Y-90862D01*
X-46158Y-90662D01*
X-46165Y-90443D01*
X-46186Y-90238D01*
X-46222Y-90047D01*
X-46271Y-89870D01*
X-46335Y-89706D01*
X-46412Y-89557D01*
X-46504Y-89422D01*
X-46610Y-89300D01*
X-46728Y-89192D01*
X-46856Y-89099D01*
X-46995Y-89020D01*
X-47144Y-88956D01*
X-47303Y-88906D01*
X-47472Y-88870D01*
X-47651Y-88848D01*
X-47841Y-88841D01*
X-48032Y-88850D01*
X-48213Y-88876D01*
X-48383Y-88920D01*
X-48542Y-88982D01*
X-48690Y-89061D01*
X-48828Y-89157D01*
X-48956Y-89272D01*
X-49072Y-89403D01*
X-49176Y-89551D01*
X-49267Y-89713D01*
X-49343Y-89889D01*
X-49406Y-90080D01*
X-49454Y-90285D01*
X-49489Y-90505D01*
X-49510Y-90738D01*
X-49517Y-90986D01*
X-49517Y-91662D01*
X-50593Y-91662D01*
X-50593Y-90959D01*
X-50600Y-90679D01*
X-50621Y-90417D01*
X-50655Y-90171D01*
X-50704Y-89942D01*
X-50767Y-89730D01*
X-50843Y-89536D01*
X-50933Y-89358D01*
X-51038Y-89196D01*
X-51154Y-89053D01*
X-51282Y-88929D01*
X-51420Y-88825D01*
X-51570Y-88739D01*
X-51730Y-88672D01*
X-51901Y-88624D01*
X-52083Y-88596D01*
X-52276Y-88586D01*
X-52496Y-88594D01*
X-52703Y-88619D01*
X-52895Y-88661D01*
X-53074Y-88720D01*
X-53239Y-88795D01*
X-53389Y-88887D01*
X-53526Y-88995D01*
X-53648Y-89121D01*
X-53757Y-89261D01*
X-53850Y-89413D01*
X-53930Y-89578D01*
X-53995Y-89756D01*
X-54045Y-89946D01*
X-54081Y-90149D01*
X-54103Y-90365D01*
X-54110Y-90593D01*
X-54104Y-90820D01*
X-54083Y-91035D01*
X-54050Y-91237D01*
X-54003Y-91426D01*
X-53942Y-91603D01*
X-53868Y-91767D01*
X-53780Y-91918D01*
X-53679Y-92057D01*
X-53565Y-92183D01*
X-53437Y-92296D01*
X-53295Y-92397D01*
X-53140Y-92485D01*
X-52972Y-92560D01*
X-52790Y-92623D01*
X-52595Y-92673D01*
X-52386Y-92710D01*
X-52503Y-93993D01*
G37*
G36*
X-52503Y-76743D02*
X-52819Y-76691D01*
X-53115Y-76616D01*
X-53391Y-76519D01*
X-53647Y-76399D01*
X-53884Y-76258D01*
X-54100Y-76093D01*
X-54296Y-75907D01*
X-54472Y-75698D01*
X-54628Y-75469D01*
X-54764Y-75221D01*
X-54878Y-74955D01*
X-54972Y-74670D01*
X-55044Y-74366D01*
X-55096Y-74044D01*
X-55128Y-73703D01*
X-55138Y-73343D01*
X-55126Y-72958D01*
X-55092Y-72596D01*
X-55034Y-72256D01*
X-54953Y-71940D01*
X-54850Y-71646D01*
X-54723Y-71375D01*
X-54573Y-71127D01*
X-54400Y-70902D01*
X-54206Y-70701D01*
X-53993Y-70527D01*
X-53761Y-70380D01*
X-53510Y-70260D01*
X-53240Y-70167D01*
X-52952Y-70100D01*
X-52644Y-70060D01*
X-52317Y-70046D01*
X-52089Y-70056D01*
X-51871Y-70084D01*
X-51663Y-70132D01*
X-51465Y-70198D01*
X-51277Y-70283D01*
X-51099Y-70388D01*
X-50931Y-70511D01*
X-50772Y-70653D01*
X-50626Y-70813D01*
X-50496Y-70987D01*
X-50382Y-71176D01*
X-50283Y-71381D01*
X-50199Y-71601D01*
X-50131Y-71835D01*
X-50078Y-72085D01*
X-50041Y-72350D01*
X-50014Y-72350D01*
X-49956Y-72109D01*
X-49887Y-71883D01*
X-49805Y-71672D01*
X-49713Y-71475D01*
X-49608Y-71293D01*
X-49492Y-71126D01*
X-49364Y-70974D01*
X-49224Y-70836D01*
X-49073Y-70714D01*
X-48911Y-70608D01*
X-48738Y-70519D01*
X-48554Y-70446D01*
X-48359Y-70389D01*
X-48154Y-70348D01*
X-47937Y-70323D01*
X-47710Y-70315D01*
X-47415Y-70328D01*
X-47136Y-70366D01*
X-46875Y-70429D01*
X-46630Y-70518D01*
X-46401Y-70632D01*
X-46190Y-70771D01*
X-45995Y-70936D01*
X-45817Y-71126D01*
X-45657Y-71339D01*
X-45519Y-71572D01*
X-45403Y-71825D01*
X-45307Y-72099D01*
X-45233Y-72393D01*
X-45180Y-72708D01*
X-45148Y-73043D01*
X-45137Y-73398D01*
X-45148Y-73725D01*
X-45179Y-74037D01*
X-45231Y-74333D01*
X-45305Y-74615D01*
X-45399Y-74881D01*
X-45514Y-75132D01*
X-45650Y-75368D01*
X-45806Y-75588D01*
X-45982Y-75790D01*
X-46174Y-75969D01*
X-46382Y-76127D01*
X-46606Y-76261D01*
X-46847Y-76374D01*
X-47105Y-76464D01*
X-47378Y-76532D01*
X-47669Y-76578D01*
X-47765Y-75329D01*
X-47579Y-75302D01*
X-47404Y-75262D01*
X-47239Y-75208D01*
X-47086Y-75141D01*
X-46943Y-75060D01*
X-46811Y-74967D01*
X-46689Y-74860D01*
X-46579Y-74740D01*
X-46480Y-74608D01*
X-46395Y-74467D01*
X-46322Y-74315D01*
X-46263Y-74154D01*
X-46217Y-73984D01*
X-46184Y-73803D01*
X-46165Y-73612D01*
X-46158Y-73412D01*
X-46165Y-73193D01*
X-46186Y-72988D01*
X-46222Y-72797D01*
X-46271Y-72620D01*
X-46335Y-72456D01*
X-46412Y-72307D01*
X-46504Y-72172D01*
X-46610Y-72050D01*
X-46728Y-71942D01*
X-46856Y-71849D01*
X-46995Y-71770D01*
X-47144Y-71706D01*
X-47303Y-71656D01*
X-47472Y-71620D01*
X-47651Y-71598D01*
X-47841Y-71591D01*
X-48032Y-71600D01*
X-48213Y-71626D01*
X-48383Y-71670D01*
X-48542Y-71732D01*
X-48690Y-71811D01*
X-48828Y-71907D01*
X-48956Y-72022D01*
X-49072Y-72153D01*
X-49176Y-72301D01*
X-49267Y-72463D01*
X-49343Y-72639D01*
X-49406Y-72830D01*
X-49454Y-73035D01*
X-49489Y-73255D01*
X-49510Y-73488D01*
X-49517Y-73736D01*
X-49517Y-74412D01*
X-50593Y-74412D01*
X-50593Y-73709D01*
X-50600Y-73429D01*
X-50621Y-73167D01*
X-50655Y-72921D01*
X-50704Y-72692D01*
X-50767Y-72480D01*
X-50843Y-72286D01*
X-50933Y-72108D01*
X-51038Y-71946D01*
X-51154Y-71803D01*
X-51282Y-71679D01*
X-51420Y-71575D01*
X-51570Y-71489D01*
X-51730Y-71422D01*
X-51901Y-71374D01*
X-52083Y-71346D01*
X-52276Y-71336D01*
X-52496Y-71344D01*
X-52703Y-71369D01*
X-52895Y-71411D01*
X-53074Y-71470D01*
X-53239Y-71545D01*
X-53389Y-71637D01*
X-53526Y-71745D01*
X-53648Y-71871D01*
X-53757Y-72011D01*
X-53850Y-72163D01*
X-53930Y-72328D01*
X-53995Y-72506D01*
X-54045Y-72696D01*
X-54081Y-72899D01*
X-54103Y-73115D01*
X-54110Y-73343D01*
X-54104Y-73570D01*
X-54083Y-73785D01*
X-54050Y-73987D01*
X-54003Y-74176D01*
X-53942Y-74353D01*
X-53868Y-74517D01*
X-53780Y-74668D01*
X-53679Y-74807D01*
X-53565Y-74933D01*
X-53437Y-75046D01*
X-53295Y-75147D01*
X-53140Y-75235D01*
X-52972Y-75310D01*
X-52790Y-75373D01*
X-52595Y-75423D01*
X-52386Y-75460D01*
X-52503Y-76743D01*
G37*
G36*
X-45282Y-86625D02*
X-55000Y-82660D01*
X-55000Y-81294D01*
X-45282Y-77328D01*
X-45282Y-78715D01*
X-52124Y-81391D01*
X-53841Y-81970D01*
X-52124Y-82549D01*
X-45282Y-85239D01*
X-45282Y-86625D01*
G37*
G36*
X-25282Y-73779D02*
X-35000Y-73779D01*
X-35000Y-67551D01*
X-33924Y-67551D01*
X-33924Y-72462D01*
X-25282Y-72462D01*
X-25282Y-73779D01*
G37*
G36*
X34718Y-72185D02*
X25000Y-72185D01*
X25000Y-65957D01*
X26076Y-65957D01*
X26076Y-70868D01*
X34718Y-70868D01*
X34718Y-72185D01*
G37*
D10*
X69500Y-102600D02*
X69500Y-188100D01*
X69500Y-102600D02*
X-69500Y-102600D01*
X-69500Y-188100D01*
X61500Y-188100D02*
X69500Y-188100D01*
X61500Y-188100D02*
X61500Y-155100D01*
X-61500Y-155100D01*
X-61500Y-188100D01*
X-69500Y-188100D01*
M02*
