G04 EAGLE Gerber RS-274X export*
G75*
%MOMM*%
%FSLAX34Y34*%
%LPD*%
%INBoard Outline*%
%IPPOS*%
%AMOC8*
5,1,8,0,0,1.08239X$1,22.5*%
G01*
G04 Define Apertures*
%ADD10C,0.000000*%
%ADD11C,0.127000*%
%ADD12C,0.254000*%
D10*
X-100000Y-160000D02*
X-99997Y-160242D01*
X-99988Y-160483D01*
X-99974Y-160724D01*
X-99953Y-160965D01*
X-99927Y-161205D01*
X-99895Y-161445D01*
X-99857Y-161684D01*
X-99814Y-161921D01*
X-99764Y-162158D01*
X-99709Y-162393D01*
X-99649Y-162627D01*
X-99582Y-162859D01*
X-99511Y-163090D01*
X-99433Y-163319D01*
X-99350Y-163546D01*
X-99262Y-163771D01*
X-99168Y-163994D01*
X-99069Y-164214D01*
X-98964Y-164432D01*
X-98855Y-164647D01*
X-98740Y-164860D01*
X-98620Y-165070D01*
X-98495Y-165276D01*
X-98365Y-165480D01*
X-98230Y-165681D01*
X-98090Y-165878D01*
X-97946Y-166072D01*
X-97797Y-166262D01*
X-97643Y-166448D01*
X-97485Y-166631D01*
X-97323Y-166810D01*
X-97156Y-166985D01*
X-96985Y-167156D01*
X-96810Y-167323D01*
X-96631Y-167485D01*
X-96448Y-167643D01*
X-96262Y-167797D01*
X-96072Y-167946D01*
X-95878Y-168090D01*
X-95681Y-168230D01*
X-95480Y-168365D01*
X-95276Y-168495D01*
X-95070Y-168620D01*
X-94860Y-168740D01*
X-94647Y-168855D01*
X-94432Y-168964D01*
X-94214Y-169069D01*
X-93994Y-169168D01*
X-93771Y-169262D01*
X-93546Y-169350D01*
X-93319Y-169433D01*
X-93090Y-169511D01*
X-92859Y-169582D01*
X-92627Y-169649D01*
X-92393Y-169709D01*
X-92158Y-169764D01*
X-91921Y-169814D01*
X-91684Y-169857D01*
X-91445Y-169895D01*
X-91205Y-169927D01*
X-90965Y-169953D01*
X-90724Y-169974D01*
X-90483Y-169988D01*
X-90242Y-169997D01*
X-90000Y-170000D01*
X90000Y-170000D01*
X90242Y-169997D01*
X90483Y-169988D01*
X90724Y-169974D01*
X90965Y-169953D01*
X91205Y-169927D01*
X91445Y-169895D01*
X91684Y-169857D01*
X91921Y-169814D01*
X92158Y-169764D01*
X92393Y-169709D01*
X92627Y-169649D01*
X92859Y-169582D01*
X93090Y-169511D01*
X93319Y-169433D01*
X93546Y-169350D01*
X93771Y-169262D01*
X93994Y-169168D01*
X94214Y-169069D01*
X94432Y-168964D01*
X94647Y-168855D01*
X94860Y-168740D01*
X95070Y-168620D01*
X95276Y-168495D01*
X95480Y-168365D01*
X95681Y-168230D01*
X95878Y-168090D01*
X96072Y-167946D01*
X96262Y-167797D01*
X96448Y-167643D01*
X96631Y-167485D01*
X96810Y-167323D01*
X96985Y-167156D01*
X97156Y-166985D01*
X97323Y-166810D01*
X97485Y-166631D01*
X97643Y-166448D01*
X97797Y-166262D01*
X97946Y-166072D01*
X98090Y-165878D01*
X98230Y-165681D01*
X98365Y-165480D01*
X98495Y-165276D01*
X98620Y-165070D01*
X98740Y-164860D01*
X98855Y-164647D01*
X98964Y-164432D01*
X99069Y-164214D01*
X99168Y-163994D01*
X99262Y-163771D01*
X99350Y-163546D01*
X99433Y-163319D01*
X99511Y-163090D01*
X99582Y-162859D01*
X99649Y-162627D01*
X99709Y-162393D01*
X99764Y-162158D01*
X99814Y-161921D01*
X99857Y-161684D01*
X99895Y-161445D01*
X99927Y-161205D01*
X99953Y-160965D01*
X99974Y-160724D01*
X99988Y-160483D01*
X99997Y-160242D01*
X100000Y-160000D01*
X100000Y-141000D01*
X99730Y-140997D01*
X99460Y-140987D01*
X99191Y-140970D01*
X98922Y-140947D01*
X98653Y-140917D01*
X98386Y-140881D01*
X98119Y-140838D01*
X97854Y-140789D01*
X97590Y-140733D01*
X97327Y-140670D01*
X97066Y-140602D01*
X96807Y-140526D01*
X96550Y-140445D01*
X96294Y-140357D01*
X96041Y-140263D01*
X95790Y-140163D01*
X95542Y-140056D01*
X95297Y-139944D01*
X95054Y-139825D01*
X94815Y-139701D01*
X94578Y-139571D01*
X94345Y-139435D01*
X94115Y-139293D01*
X93889Y-139146D01*
X93666Y-138993D01*
X93447Y-138835D01*
X93232Y-138672D01*
X93022Y-138503D01*
X92815Y-138329D01*
X92613Y-138150D01*
X92415Y-137967D01*
X92222Y-137778D01*
X92033Y-137585D01*
X91850Y-137387D01*
X91671Y-137185D01*
X91497Y-136978D01*
X91328Y-136768D01*
X91165Y-136553D01*
X91007Y-136334D01*
X90854Y-136111D01*
X90707Y-135885D01*
X90565Y-135655D01*
X90429Y-135422D01*
X90299Y-135185D01*
X90175Y-134946D01*
X90056Y-134703D01*
X89944Y-134458D01*
X89837Y-134210D01*
X89737Y-133959D01*
X89643Y-133706D01*
X89555Y-133450D01*
X89474Y-133193D01*
X89398Y-132934D01*
X89330Y-132673D01*
X89267Y-132410D01*
X89211Y-132146D01*
X89162Y-131881D01*
X89119Y-131614D01*
X89083Y-131347D01*
X89053Y-131078D01*
X89030Y-130809D01*
X89013Y-130540D01*
X89003Y-130270D01*
X89000Y-130000D01*
X89003Y-129730D01*
X89013Y-129460D01*
X89030Y-129191D01*
X89053Y-128922D01*
X89083Y-128653D01*
X89119Y-128386D01*
X89162Y-128119D01*
X89211Y-127854D01*
X89267Y-127590D01*
X89330Y-127327D01*
X89398Y-127066D01*
X89474Y-126807D01*
X89555Y-126550D01*
X89643Y-126294D01*
X89737Y-126041D01*
X89837Y-125790D01*
X89944Y-125542D01*
X90056Y-125297D01*
X90175Y-125054D01*
X90299Y-124815D01*
X90429Y-124578D01*
X90565Y-124345D01*
X90707Y-124115D01*
X90854Y-123889D01*
X91007Y-123666D01*
X91165Y-123447D01*
X91328Y-123232D01*
X91497Y-123022D01*
X91671Y-122815D01*
X91850Y-122613D01*
X92033Y-122415D01*
X92222Y-122222D01*
X92415Y-122033D01*
X92613Y-121850D01*
X92815Y-121671D01*
X93022Y-121497D01*
X93232Y-121328D01*
X93447Y-121165D01*
X93666Y-121007D01*
X93889Y-120854D01*
X94115Y-120707D01*
X94345Y-120565D01*
X94578Y-120429D01*
X94815Y-120299D01*
X95054Y-120175D01*
X95297Y-120056D01*
X95542Y-119944D01*
X95790Y-119837D01*
X96041Y-119737D01*
X96294Y-119643D01*
X96550Y-119555D01*
X96807Y-119474D01*
X97066Y-119398D01*
X97327Y-119330D01*
X97590Y-119267D01*
X97854Y-119211D01*
X98119Y-119162D01*
X98386Y-119119D01*
X98653Y-119083D01*
X98922Y-119053D01*
X99191Y-119030D01*
X99460Y-119013D01*
X99730Y-119003D01*
X100000Y-119000D01*
X100000Y40000D01*
X99985Y41208D01*
X99942Y42416D01*
X99869Y43622D01*
X99767Y44826D01*
X99635Y46027D01*
X99475Y47224D01*
X99286Y48418D01*
X99069Y49606D01*
X98822Y50789D01*
X98547Y51966D01*
X98244Y53135D01*
X97912Y54297D01*
X97553Y55451D01*
X97166Y56595D01*
X96751Y57730D01*
X96309Y58855D01*
X95840Y59968D01*
X95344Y61070D01*
X94821Y62160D01*
X94273Y63236D01*
X93698Y64299D01*
X93098Y65348D01*
X92473Y66382D01*
X91824Y67401D01*
X91149Y68403D01*
X90451Y69389D01*
X89729Y70358D01*
X88984Y71309D01*
X88216Y72242D01*
X87426Y73156D01*
X86613Y74051D01*
X85780Y74926D01*
X84926Y75780D01*
X84051Y76613D01*
X83156Y77426D01*
X82242Y78216D01*
X81309Y78984D01*
X80358Y79729D01*
X79389Y80451D01*
X78403Y81149D01*
X77401Y81824D01*
X76382Y82473D01*
X75348Y83098D01*
X74299Y83698D01*
X73236Y84273D01*
X72160Y84821D01*
X71070Y85344D01*
X69968Y85840D01*
X68855Y86309D01*
X67730Y86751D01*
X66595Y87166D01*
X65451Y87553D01*
X64297Y87912D01*
X63135Y88244D01*
X61966Y88547D01*
X60789Y88822D01*
X59606Y89069D01*
X58418Y89286D01*
X57224Y89475D01*
X56027Y89635D01*
X54826Y89767D01*
X53622Y89869D01*
X52416Y89942D01*
X51208Y89985D01*
X50000Y90000D01*
X-50000Y90000D01*
X-51208Y89985D01*
X-52416Y89942D01*
X-53622Y89869D01*
X-54826Y89767D01*
X-56027Y89635D01*
X-57224Y89475D01*
X-58418Y89286D01*
X-59606Y89069D01*
X-60789Y88822D01*
X-61966Y88547D01*
X-63135Y88244D01*
X-64297Y87912D01*
X-65451Y87553D01*
X-66595Y87166D01*
X-67730Y86751D01*
X-68855Y86309D01*
X-69968Y85840D01*
X-71070Y85344D01*
X-72160Y84821D01*
X-73236Y84273D01*
X-74299Y83698D01*
X-75348Y83098D01*
X-76382Y82473D01*
X-77401Y81824D01*
X-78403Y81149D01*
X-79389Y80451D01*
X-80358Y79729D01*
X-81309Y78984D01*
X-82242Y78216D01*
X-83156Y77426D01*
X-84051Y76613D01*
X-84926Y75780D01*
X-85780Y74926D01*
X-86613Y74051D01*
X-87426Y73156D01*
X-88216Y72242D01*
X-88984Y71309D01*
X-89729Y70358D01*
X-90451Y69389D01*
X-91149Y68403D01*
X-91824Y67401D01*
X-92473Y66382D01*
X-93098Y65348D01*
X-93698Y64299D01*
X-94273Y63236D01*
X-94821Y62160D01*
X-95344Y61070D01*
X-95840Y59968D01*
X-96309Y58855D01*
X-96751Y57730D01*
X-97166Y56595D01*
X-97553Y55451D01*
X-97912Y54297D01*
X-98244Y53135D01*
X-98547Y51966D01*
X-98822Y50789D01*
X-99069Y49606D01*
X-99286Y48418D01*
X-99475Y47224D01*
X-99635Y46027D01*
X-99767Y44826D01*
X-99869Y43622D01*
X-99942Y42416D01*
X-99985Y41208D01*
X-100000Y40000D01*
X-100000Y-119000D01*
X-99730Y-119003D01*
X-99460Y-119013D01*
X-99191Y-119030D01*
X-98922Y-119053D01*
X-98653Y-119083D01*
X-98386Y-119119D01*
X-98119Y-119162D01*
X-97854Y-119211D01*
X-97590Y-119267D01*
X-97327Y-119330D01*
X-97066Y-119398D01*
X-96807Y-119474D01*
X-96549Y-119555D01*
X-96294Y-119643D01*
X-96041Y-119737D01*
X-95790Y-119837D01*
X-95542Y-119944D01*
X-95297Y-120056D01*
X-95054Y-120175D01*
X-94815Y-120299D01*
X-94578Y-120429D01*
X-94345Y-120565D01*
X-94115Y-120707D01*
X-93889Y-120854D01*
X-93666Y-121007D01*
X-93447Y-121165D01*
X-93232Y-121328D01*
X-93022Y-121497D01*
X-92815Y-121671D01*
X-92613Y-121850D01*
X-92415Y-122033D01*
X-92222Y-122222D01*
X-92033Y-122415D01*
X-91850Y-122613D01*
X-91671Y-122815D01*
X-91497Y-123022D01*
X-91328Y-123232D01*
X-91165Y-123447D01*
X-91007Y-123666D01*
X-90854Y-123889D01*
X-90707Y-124115D01*
X-90565Y-124345D01*
X-90429Y-124578D01*
X-90299Y-124815D01*
X-90175Y-125054D01*
X-90056Y-125297D01*
X-89944Y-125542D01*
X-89837Y-125790D01*
X-89737Y-126041D01*
X-89643Y-126294D01*
X-89555Y-126550D01*
X-89474Y-126807D01*
X-89398Y-127066D01*
X-89330Y-127327D01*
X-89267Y-127590D01*
X-89211Y-127854D01*
X-89162Y-128119D01*
X-89119Y-128386D01*
X-89083Y-128653D01*
X-89053Y-128922D01*
X-89030Y-129191D01*
X-89013Y-129460D01*
X-89003Y-129730D01*
X-89000Y-130000D01*
X-89003Y-130270D01*
X-89013Y-130540D01*
X-89030Y-130809D01*
X-89053Y-131078D01*
X-89083Y-131347D01*
X-89119Y-131614D01*
X-89162Y-131881D01*
X-89211Y-132146D01*
X-89267Y-132410D01*
X-89330Y-132673D01*
X-89398Y-132934D01*
X-89474Y-133193D01*
X-89555Y-133450D01*
X-89643Y-133706D01*
X-89737Y-133959D01*
X-89837Y-134210D01*
X-89944Y-134458D01*
X-90056Y-134703D01*
X-90175Y-134946D01*
X-90299Y-135185D01*
X-90429Y-135422D01*
X-90565Y-135655D01*
X-90707Y-135885D01*
X-90854Y-136111D01*
X-91007Y-136334D01*
X-91165Y-136553D01*
X-91328Y-136768D01*
X-91497Y-136978D01*
X-91671Y-137185D01*
X-91850Y-137387D01*
X-92033Y-137585D01*
X-92222Y-137778D01*
X-92415Y-137967D01*
X-92613Y-138150D01*
X-92815Y-138329D01*
X-93022Y-138503D01*
X-93232Y-138672D01*
X-93447Y-138835D01*
X-93666Y-138993D01*
X-93889Y-139146D01*
X-94115Y-139293D01*
X-94345Y-139435D01*
X-94578Y-139571D01*
X-94815Y-139701D01*
X-95054Y-139825D01*
X-95297Y-139944D01*
X-95542Y-140056D01*
X-95790Y-140163D01*
X-96041Y-140263D01*
X-96294Y-140357D01*
X-96549Y-140445D01*
X-96807Y-140526D01*
X-97066Y-140602D01*
X-97327Y-140670D01*
X-97590Y-140733D01*
X-97854Y-140789D01*
X-98119Y-140838D01*
X-98386Y-140881D01*
X-98653Y-140917D01*
X-98922Y-140947D01*
X-99191Y-140970D01*
X-99460Y-140987D01*
X-99730Y-140997D01*
X-100000Y-141000D01*
X-100000Y-160000D01*
D11*
X83400Y-44450D02*
X83400Y44450D01*
X83400Y-44450D02*
X-89525Y-44450D01*
X-89525Y44450D01*
X83400Y44450D01*
D12*
X-100000Y-160000D02*
X-99962Y-160872D01*
X-99848Y-161736D01*
X-99659Y-162588D01*
X-99397Y-163420D01*
X-99063Y-164226D01*
X-98660Y-165000D01*
X-98192Y-165736D01*
X-97660Y-166428D01*
X-97071Y-167071D01*
X-96428Y-167660D01*
X-95736Y-168192D01*
X-95000Y-168660D01*
X-94226Y-169063D01*
X-93420Y-169397D01*
X-92588Y-169659D01*
X-91736Y-169848D01*
X-90872Y-169962D01*
X-90000Y-170000D01*
X90000Y-170000D01*
X90872Y-169962D01*
X91736Y-169848D01*
X92588Y-169659D01*
X93420Y-169397D01*
X94226Y-169063D01*
X95000Y-168660D01*
X95736Y-168192D01*
X96428Y-167660D01*
X97071Y-167071D01*
X97660Y-166428D01*
X98192Y-165736D01*
X98660Y-165000D01*
X99063Y-164226D01*
X99397Y-163420D01*
X99659Y-162588D01*
X99848Y-161736D01*
X99962Y-160872D01*
X100000Y-160000D01*
X100000Y-141000D01*
X99041Y-140958D01*
X98090Y-140833D01*
X97153Y-140625D01*
X96238Y-140337D01*
X95351Y-139969D01*
X94500Y-139526D01*
X93691Y-139011D01*
X92929Y-138427D01*
X92222Y-137778D01*
X91574Y-137071D01*
X90989Y-136309D01*
X90474Y-135500D01*
X90031Y-134649D01*
X89663Y-133762D01*
X89375Y-132847D01*
X89167Y-131910D01*
X89042Y-130959D01*
X89000Y-130000D01*
X89042Y-129041D01*
X89167Y-128090D01*
X89375Y-127153D01*
X89663Y-126238D01*
X90031Y-125351D01*
X90474Y-124500D01*
X90989Y-123691D01*
X91574Y-122929D01*
X92222Y-122222D01*
X92929Y-121574D01*
X93691Y-120989D01*
X94500Y-120474D01*
X95351Y-120031D01*
X96238Y-119663D01*
X97153Y-119375D01*
X98090Y-119167D01*
X99041Y-119042D01*
X100000Y-119000D01*
X100000Y40000D01*
X99810Y44358D01*
X99240Y48682D01*
X98296Y52941D01*
X96985Y57101D01*
X95315Y61131D01*
X93301Y65000D01*
X90958Y68679D01*
X88302Y72139D01*
X85355Y75355D01*
X82139Y78302D01*
X78679Y80958D01*
X75000Y83301D01*
X71131Y85315D01*
X67101Y86985D01*
X62941Y88296D01*
X58682Y89240D01*
X54358Y89810D01*
X50000Y90000D01*
X-50000Y90000D01*
X-54358Y89810D01*
X-58682Y89240D01*
X-62941Y88296D01*
X-67101Y86985D01*
X-71131Y85315D01*
X-75000Y83301D01*
X-78679Y80958D01*
X-82139Y78302D01*
X-85355Y75355D01*
X-88302Y72139D01*
X-90958Y68679D01*
X-93301Y65000D01*
X-95315Y61131D01*
X-96985Y57101D01*
X-98296Y52941D01*
X-99240Y48682D01*
X-99810Y44358D01*
X-100000Y40000D01*
X-100000Y-119000D01*
X-99041Y-119042D01*
X-98090Y-119167D01*
X-97153Y-119375D01*
X-96238Y-119663D01*
X-95351Y-120031D01*
X-94500Y-120474D01*
X-93691Y-120989D01*
X-92929Y-121574D01*
X-92222Y-122222D01*
X-91574Y-122929D01*
X-90989Y-123691D01*
X-90474Y-124500D01*
X-90031Y-125351D01*
X-89663Y-126238D01*
X-89375Y-127153D01*
X-89167Y-128090D01*
X-89042Y-129041D01*
X-89000Y-130000D01*
X-89042Y-130959D01*
X-89167Y-131910D01*
X-89375Y-132847D01*
X-89663Y-133762D01*
X-90031Y-134649D01*
X-90474Y-135500D01*
X-90989Y-136309D01*
X-91574Y-137071D01*
X-92222Y-137778D01*
X-92929Y-138427D01*
X-93691Y-139011D01*
X-94500Y-139526D01*
X-95351Y-139969D01*
X-96238Y-140337D01*
X-97153Y-140625D01*
X-98090Y-140833D01*
X-99041Y-140958D01*
X-100000Y-141000D01*
X-100000Y-160000D01*
X-89525Y-44450D02*
X83400Y-44450D01*
X83400Y44450D01*
X-89525Y44450D01*
X-89525Y-44450D01*
M02*
