G04 EAGLE Gerber RS-274X export*
G75*
%MOMM*%
%FSLAX34Y34*%
%LPD*%
%INSilkscreen Top*%
%IPPOS*%
%AMOC8*
5,1,8,0,0,1.08239X$1,22.5*%
G01*
G04 Define Apertures*
%ADD10C,0.152400*%
%ADD11C,0.200000*%
%ADD12C,0.127000*%
G36*
X50023Y-190200D02*
X48534Y-190200D01*
X48534Y-177859D01*
X50478Y-177859D01*
X57152Y-188440D01*
X57074Y-186959D01*
X57047Y-185952D01*
X57047Y-177859D01*
X58554Y-177859D01*
X58554Y-190200D01*
X56539Y-190200D01*
X49935Y-179690D01*
X49979Y-180539D01*
X50023Y-182002D01*
X50023Y-190200D01*
G37*
G36*
X41022Y-190375D02*
X40563Y-190363D01*
X40120Y-190327D01*
X39693Y-190266D01*
X39282Y-190181D01*
X38887Y-190072D01*
X38507Y-189939D01*
X38143Y-189782D01*
X37794Y-189600D01*
X37464Y-189396D01*
X37154Y-189171D01*
X36864Y-188925D01*
X36594Y-188659D01*
X36345Y-188371D01*
X36116Y-188063D01*
X35907Y-187734D01*
X35718Y-187384D01*
X35551Y-187016D01*
X35406Y-186631D01*
X35283Y-186229D01*
X35183Y-185811D01*
X35105Y-185376D01*
X35049Y-184925D01*
X35016Y-184457D01*
X35005Y-183973D01*
X35011Y-183609D01*
X35030Y-183255D01*
X35061Y-182911D01*
X35104Y-182577D01*
X35160Y-182253D01*
X35229Y-181939D01*
X35310Y-181635D01*
X35403Y-181341D01*
X35509Y-181057D01*
X35627Y-180783D01*
X35901Y-180265D01*
X36225Y-179786D01*
X36599Y-179348D01*
X37016Y-178956D01*
X37472Y-178616D01*
X37715Y-178466D01*
X37967Y-178329D01*
X38228Y-178205D01*
X38499Y-178094D01*
X38780Y-177996D01*
X39070Y-177911D01*
X39370Y-177839D01*
X39680Y-177780D01*
X39999Y-177734D01*
X40327Y-177701D01*
X40665Y-177682D01*
X41013Y-177675D01*
X41496Y-177687D01*
X41958Y-177723D01*
X42400Y-177784D01*
X42822Y-177868D01*
X43223Y-177976D01*
X43604Y-178109D01*
X43965Y-178265D01*
X44306Y-178446D01*
X44626Y-178650D01*
X44924Y-178878D01*
X45200Y-179129D01*
X45454Y-179403D01*
X45686Y-179700D01*
X45896Y-180021D01*
X46084Y-180365D01*
X46251Y-180732D01*
X44665Y-181258D01*
X44550Y-180996D01*
X44418Y-180751D01*
X44270Y-180521D01*
X44106Y-180307D01*
X43925Y-180109D01*
X43728Y-179927D01*
X43515Y-179761D01*
X43286Y-179611D01*
X43043Y-179478D01*
X42789Y-179362D01*
X42523Y-179264D01*
X42247Y-179184D01*
X41959Y-179122D01*
X41661Y-179077D01*
X41351Y-179051D01*
X41031Y-179042D01*
X40532Y-179062D01*
X40063Y-179124D01*
X39621Y-179227D01*
X39209Y-179371D01*
X38824Y-179557D01*
X38469Y-179783D01*
X38141Y-180051D01*
X37842Y-180360D01*
X37576Y-180705D01*
X37344Y-181080D01*
X37149Y-181486D01*
X36988Y-181922D01*
X36864Y-182389D01*
X36775Y-182886D01*
X36722Y-183414D01*
X36704Y-183973D01*
X36722Y-184526D01*
X36778Y-185051D01*
X36871Y-185549D01*
X37000Y-186019D01*
X37167Y-186461D01*
X37371Y-186875D01*
X37612Y-187262D01*
X37891Y-187621D01*
X38200Y-187944D01*
X38536Y-188224D01*
X38898Y-188461D01*
X39286Y-188655D01*
X39701Y-188806D01*
X40141Y-188914D01*
X40608Y-188979D01*
X41101Y-189000D01*
X41420Y-188990D01*
X41729Y-188960D01*
X42028Y-188910D01*
X42316Y-188840D01*
X42595Y-188749D01*
X42864Y-188639D01*
X43123Y-188509D01*
X43371Y-188359D01*
X43610Y-188188D01*
X43838Y-187998D01*
X44057Y-187787D01*
X44265Y-187557D01*
X44463Y-187306D01*
X44652Y-187035D01*
X44830Y-186745D01*
X44998Y-186434D01*
X46364Y-187117D01*
X46164Y-187504D01*
X45945Y-187866D01*
X45706Y-188205D01*
X45448Y-188521D01*
X45171Y-188812D01*
X44874Y-189079D01*
X44558Y-189323D01*
X44223Y-189543D01*
X43871Y-189738D01*
X43506Y-189907D01*
X43126Y-190050D01*
X42733Y-190167D01*
X42326Y-190258D01*
X41905Y-190323D01*
X41470Y-190362D01*
X41022Y-190375D01*
G37*
G36*
X69131Y-190200D02*
X61398Y-190200D01*
X61398Y-188860D01*
X64542Y-188860D01*
X64542Y-179366D01*
X61757Y-181354D01*
X61757Y-179865D01*
X64673Y-177859D01*
X66127Y-177859D01*
X66127Y-188860D01*
X69131Y-188860D01*
X69131Y-190200D01*
G37*
D10*
X69500Y-170000D02*
X69500Y-84500D01*
X69500Y-170000D02*
X-69500Y-170000D01*
X-69500Y-84500D01*
X61500Y-84500D02*
X69500Y-84500D01*
X61500Y-84500D02*
X61500Y-117500D01*
X-61500Y-117500D01*
X-61500Y-84500D01*
X-69500Y-84500D01*
D11*
X64703Y63130D02*
X64705Y63259D01*
X64711Y63388D01*
X64721Y63516D01*
X64735Y63645D01*
X64753Y63772D01*
X64774Y63899D01*
X64800Y64026D01*
X64829Y64151D01*
X64863Y64276D01*
X64900Y64399D01*
X64941Y64522D01*
X64986Y64643D01*
X65034Y64762D01*
X65086Y64880D01*
X65142Y64996D01*
X65201Y65111D01*
X65264Y65223D01*
X65330Y65334D01*
X65400Y65443D01*
X65473Y65549D01*
X65549Y65653D01*
X65628Y65755D01*
X65710Y65854D01*
X65796Y65951D01*
X65884Y66045D01*
X65975Y66136D01*
X66069Y66224D01*
X66166Y66310D01*
X66265Y66392D01*
X66367Y66471D01*
X66471Y66547D01*
X66577Y66620D01*
X66686Y66690D01*
X66796Y66756D01*
X66909Y66819D01*
X67024Y66878D01*
X67140Y66934D01*
X67258Y66986D01*
X67377Y67034D01*
X67498Y67079D01*
X67621Y67120D01*
X67744Y67157D01*
X67869Y67191D01*
X67994Y67220D01*
X68121Y67246D01*
X68248Y67267D01*
X68375Y67285D01*
X68504Y67299D01*
X68632Y67309D01*
X68761Y67315D01*
X68890Y67317D01*
X69019Y67315D01*
X69148Y67309D01*
X69276Y67299D01*
X69405Y67285D01*
X69532Y67267D01*
X69659Y67246D01*
X69786Y67220D01*
X69911Y67191D01*
X70036Y67157D01*
X70159Y67120D01*
X70282Y67079D01*
X70403Y67034D01*
X70522Y66986D01*
X70640Y66934D01*
X70756Y66878D01*
X70871Y66819D01*
X70983Y66756D01*
X71094Y66690D01*
X71203Y66620D01*
X71309Y66547D01*
X71413Y66471D01*
X71515Y66392D01*
X71614Y66310D01*
X71711Y66224D01*
X71805Y66136D01*
X71896Y66045D01*
X71984Y65951D01*
X72070Y65854D01*
X72152Y65755D01*
X72231Y65653D01*
X72307Y65549D01*
X72380Y65443D01*
X72450Y65334D01*
X72516Y65223D01*
X72579Y65111D01*
X72638Y64996D01*
X72694Y64880D01*
X72746Y64762D01*
X72794Y64643D01*
X72839Y64522D01*
X72880Y64399D01*
X72917Y64276D01*
X72951Y64151D01*
X72980Y64026D01*
X73006Y63899D01*
X73027Y63772D01*
X73045Y63645D01*
X73059Y63516D01*
X73069Y63388D01*
X73075Y63259D01*
X73077Y63130D01*
X73075Y63001D01*
X73069Y62872D01*
X73059Y62744D01*
X73045Y62615D01*
X73027Y62488D01*
X73006Y62361D01*
X72980Y62234D01*
X72951Y62109D01*
X72917Y61984D01*
X72880Y61861D01*
X72839Y61738D01*
X72794Y61617D01*
X72746Y61498D01*
X72694Y61380D01*
X72638Y61264D01*
X72579Y61149D01*
X72516Y61037D01*
X72450Y60926D01*
X72380Y60817D01*
X72307Y60711D01*
X72231Y60607D01*
X72152Y60505D01*
X72070Y60406D01*
X71984Y60309D01*
X71896Y60215D01*
X71805Y60124D01*
X71711Y60036D01*
X71614Y59950D01*
X71515Y59868D01*
X71413Y59789D01*
X71309Y59713D01*
X71203Y59640D01*
X71094Y59570D01*
X70984Y59504D01*
X70871Y59441D01*
X70756Y59382D01*
X70640Y59326D01*
X70522Y59274D01*
X70403Y59226D01*
X70282Y59181D01*
X70159Y59140D01*
X70036Y59103D01*
X69911Y59069D01*
X69786Y59040D01*
X69659Y59014D01*
X69532Y58993D01*
X69405Y58975D01*
X69276Y58961D01*
X69148Y58951D01*
X69019Y58945D01*
X68890Y58943D01*
X68761Y58945D01*
X68632Y58951D01*
X68504Y58961D01*
X68375Y58975D01*
X68248Y58993D01*
X68121Y59014D01*
X67994Y59040D01*
X67869Y59069D01*
X67744Y59103D01*
X67621Y59140D01*
X67498Y59181D01*
X67377Y59226D01*
X67258Y59274D01*
X67140Y59326D01*
X67024Y59382D01*
X66909Y59441D01*
X66796Y59504D01*
X66686Y59570D01*
X66577Y59640D01*
X66471Y59713D01*
X66367Y59789D01*
X66265Y59868D01*
X66166Y59950D01*
X66069Y60036D01*
X65975Y60124D01*
X65884Y60215D01*
X65796Y60309D01*
X65710Y60406D01*
X65628Y60505D01*
X65549Y60607D01*
X65473Y60711D01*
X65400Y60817D01*
X65330Y60926D01*
X65264Y61036D01*
X65201Y61149D01*
X65142Y61264D01*
X65086Y61380D01*
X65034Y61498D01*
X64986Y61617D01*
X64941Y61738D01*
X64900Y61861D01*
X64863Y61984D01*
X64829Y62109D01*
X64800Y62234D01*
X64774Y62361D01*
X64753Y62488D01*
X64735Y62615D01*
X64721Y62744D01*
X64711Y62872D01*
X64705Y63001D01*
X64703Y63130D01*
D12*
X85000Y-45000D02*
X85000Y-60000D01*
X75000Y-60000D01*
X75000Y-45000D01*
X85000Y-45000D01*
X75000Y45000D02*
X75000Y60000D01*
X85000Y60000D01*
X85000Y45000D01*
X75000Y45000D01*
X-95000Y60000D02*
X-105000Y60000D01*
X-105000Y35000D01*
X-90000Y35000D01*
X-90000Y-35000D02*
X-105000Y-35000D01*
X-105000Y-60000D01*
X-90000Y35000D02*
X-90000Y45085D01*
X-90160Y45085D01*
X-95000Y45085D01*
X-95000Y60000D01*
X-90000Y-35000D02*
X-90000Y-45085D01*
X-90160Y-45085D01*
X-95000Y-45085D01*
X-95000Y-60000D01*
X-105000Y-60000D01*
M02*
