M48
;GenerationSoftware,Autodesk,EAGLE,9.7.0*%
;CreationDate,2025-02-19T19:39:05Z*%
FMAT,2
ICI,OFF
METRIC,TZ,000.000
T5C0.350
T4C1.700
T3C2.200
T2C3.000
T1C4.000
%
G90
M71
T1
X-9525Y-19050
X-9525Y19050
X-9525Y0
X9525Y0
X9525Y19050
X9525Y-19050
T2
X-14605Y21590
X-14605Y2540
X-12065Y-3810
X-14605Y-16510
X-12065Y-22860
X4445Y21590
X6985Y15240
X4445Y2540
X6985Y-3810
X4445Y-16510
X-12065Y15240
X6985Y-22860
T3
X0Y22860
X0Y-22860
X0Y0
T4
X-9525Y24130
X9525Y24130
X9525Y13970
X-9525Y-24130
X-9525Y-5080
X-9525Y13970
X9525Y5080
X9525Y-5080
X-9525Y-13970
X-9525Y5080
X9525Y-13970
X9525Y-24130
T5
X10890Y6790
X3210Y10930
X10140Y11030
X10180Y12400
X-4830Y-24540
X10530Y-26190
X15950Y0
X15540Y17850
X4430Y12150
X-1740Y9240
M30