G04 EAGLE Gerber RS-274X export*
G75*
%MOMM*%
%FSLAX34Y34*%
%LPD*%
%INBottom Copper*%
%IPPOS*%
%AMOC8*
5,1,8,0,0,1.08239X$1,22.5*%
G01*
G04 Define Apertures*
%ADD10C,1.440000*%
%ADD11R,0.629100X0.560000*%
%ADD12R,0.560000X0.629100*%
%ADD13R,1.440000X1.440000*%
%ADD14R,4.000000X1.000000*%
%ADD15R,1.440000X1.440000*%
%ADD16R,1.000000X4.000000*%
%ADD17R,1.220000X0.910000*%
%ADD18R,0.600000X1.140000*%
%ADD19R,0.300000X1.140000*%
%ADD20C,1.108000*%
%ADD21R,0.611800X0.911800*%
%ADD22C,0.150000*%
%ADD23R,0.644000X0.535100*%
%ADD24R,0.535100X0.644000*%
%ADD25R,1.200000X0.700000*%
%ADD26C,1.300000*%
%ADD27R,0.558800X1.422400*%
%ADD28C,0.050000*%
%ADD29R,3.100000X3.100000*%
%ADD30C,0.139500*%
%ADD31C,0.196500*%
%ADD32C,0.145000*%
%ADD33R,1.200000X1.400000*%
%ADD34R,1.800000X1.800000*%
%ADD35C,1.800000*%
%ADD36C,0.152400*%
%ADD37C,0.254000*%
%ADD38C,0.502400*%
%ADD39C,0.127000*%
%ADD40C,0.200000*%
G36*
X-216919Y243544D02*
X-217214Y243474D01*
X-217513Y243525D01*
X-217768Y243689D01*
X-217940Y243939D01*
X-218000Y244236D01*
X-218000Y330000D01*
X-217985Y330149D01*
X-216673Y336745D01*
X-216559Y337020D01*
X-212823Y342612D01*
X-212612Y342823D01*
X-207020Y346559D01*
X-206745Y346673D01*
X-200149Y347985D01*
X-200000Y348000D01*
X-96050Y348000D01*
X-95787Y347953D01*
X-95529Y347794D01*
X-95353Y347546D01*
X-95288Y347250D01*
X-95344Y346952D01*
X-95511Y346699D01*
X-101616Y340594D01*
X-101616Y331378D01*
X-101667Y331103D01*
X-101831Y330847D01*
X-102081Y330676D01*
X-102378Y330616D01*
X-102672Y330616D01*
X-103359Y329928D01*
X-103579Y329775D01*
X-103874Y329706D01*
X-104173Y329756D01*
X-104428Y329920D01*
X-104600Y330170D01*
X-104660Y330467D01*
X-104660Y330894D01*
X-106556Y332790D01*
X-112988Y332790D01*
X-112988Y324838D01*
X-122840Y324838D01*
X-122840Y320306D01*
X-122074Y319541D01*
X-121921Y319321D01*
X-121852Y319026D01*
X-121902Y318727D01*
X-122066Y318472D01*
X-122316Y318300D01*
X-122613Y318240D01*
X-123552Y318240D01*
X-132840Y308952D01*
X-132840Y295298D01*
X-121793Y284251D01*
X-121630Y284010D01*
X-121570Y283712D01*
X-121570Y283102D01*
X-121621Y282827D01*
X-121785Y282572D01*
X-122035Y282400D01*
X-122332Y282340D01*
X-203052Y282340D01*
X-210386Y275006D01*
X-210386Y270578D01*
X-210437Y270303D01*
X-210601Y270047D01*
X-210851Y269876D01*
X-211148Y269816D01*
X-211172Y269816D01*
X-211916Y269072D01*
X-211916Y261728D01*
X-211763Y261576D01*
X-211600Y261334D01*
X-211540Y261037D01*
X-211540Y248625D01*
X-211593Y248345D01*
X-211759Y248090D01*
X-212010Y247921D01*
X-213798Y247181D01*
X-216181Y244798D01*
X-216534Y243944D01*
X-216674Y243724D01*
X-216919Y243544D01*
G37*
%LPC*%
G36*
X-122840Y326362D02*
X-114512Y326362D01*
X-114512Y332790D01*
X-120944Y332790D01*
X-122840Y330894D01*
X-122840Y326362D01*
G37*
G36*
X-187151Y285230D02*
X-174149Y285230D01*
X-172830Y286549D01*
X-172830Y318851D01*
X-174149Y320170D01*
X-187151Y320170D01*
X-188470Y318851D01*
X-188470Y286549D01*
X-187151Y285230D01*
G37*
%LPD*%
G36*
X7276Y237506D02*
X6979Y237441D01*
X6681Y237496D01*
X6428Y237664D01*
X-737Y244829D01*
X-900Y245071D01*
X-960Y245368D01*
X-960Y247552D01*
X-2448Y249040D01*
X-57078Y249040D01*
X-57364Y249096D01*
X-57617Y249263D01*
X-87068Y278714D01*
X-87221Y278933D01*
X-87290Y279228D01*
X-87240Y279527D01*
X-87076Y279783D01*
X-86826Y279954D01*
X-86529Y280015D01*
X-84102Y280015D01*
X-82614Y281502D01*
X-82614Y284938D01*
X-88716Y284938D01*
X-88716Y286462D01*
X-82614Y286462D01*
X-82614Y289898D01*
X-84102Y291386D01*
X-86529Y291386D01*
X-86792Y291432D01*
X-87050Y291592D01*
X-87226Y291839D01*
X-87291Y292135D01*
X-87235Y292433D01*
X-87068Y292686D01*
X-75035Y304719D01*
X-75035Y319248D01*
X-74984Y319523D01*
X-74820Y319778D01*
X-74570Y319950D01*
X-74399Y319984D01*
X-73630Y320754D01*
X-73630Y328246D01*
X-74373Y328990D01*
X-80777Y328990D01*
X-81521Y328246D01*
X-81521Y320754D01*
X-80754Y319987D01*
X-80602Y319959D01*
X-80347Y319795D01*
X-80175Y319545D01*
X-80115Y319248D01*
X-80115Y307139D01*
X-80171Y306853D01*
X-80338Y306600D01*
X-87129Y299809D01*
X-87349Y299656D01*
X-87644Y299586D01*
X-87943Y299637D01*
X-88198Y299800D01*
X-88370Y300051D01*
X-88430Y300348D01*
X-88430Y306026D01*
X-89174Y306770D01*
X-96044Y306770D01*
X-96319Y306821D01*
X-96574Y306985D01*
X-96746Y307235D01*
X-96806Y307532D01*
X-96806Y321023D01*
X-96755Y321297D01*
X-96591Y321553D01*
X-96341Y321724D01*
X-96044Y321785D01*
X-96020Y321785D01*
X-95937Y321868D01*
X-95706Y322026D01*
X-95410Y322091D01*
X-95112Y322035D01*
X-94859Y321868D01*
X-93506Y320515D01*
X-90416Y320515D01*
X-90416Y331886D01*
X-93506Y331886D01*
X-94859Y330532D01*
X-95090Y330374D01*
X-95386Y330309D01*
X-95684Y330365D01*
X-95937Y330532D01*
X-96020Y330616D01*
X-96314Y330616D01*
X-96589Y330667D01*
X-96844Y330830D01*
X-97016Y331080D01*
X-97076Y331378D01*
X-97076Y338398D01*
X-97020Y338684D01*
X-96853Y338937D01*
X-91283Y344507D01*
X-91041Y344670D01*
X-90744Y344730D01*
X-83161Y344730D01*
X-82886Y344679D01*
X-82631Y344515D01*
X-82459Y344265D01*
X-82399Y343968D01*
X-82399Y340562D01*
X-71201Y340562D01*
X-71201Y343968D01*
X-71150Y344243D01*
X-70986Y344498D01*
X-70736Y344670D01*
X-70439Y344730D01*
X-66891Y344730D01*
X-66616Y344679D01*
X-66361Y344515D01*
X-66189Y344265D01*
X-66129Y343968D01*
X-66129Y339379D01*
X-66185Y339093D01*
X-66352Y338840D01*
X-69900Y335292D01*
X-70120Y335139D01*
X-70415Y335069D01*
X-70714Y335120D01*
X-70969Y335283D01*
X-71141Y335534D01*
X-71201Y335831D01*
X-71201Y339038D01*
X-76038Y339038D01*
X-76038Y332701D01*
X-72689Y332701D01*
X-71266Y334124D01*
X-71046Y334277D01*
X-70751Y334347D01*
X-70452Y334296D01*
X-70197Y334133D01*
X-70025Y333883D01*
X-69965Y333585D01*
X-69965Y329752D01*
X-70016Y329477D01*
X-70180Y329222D01*
X-70430Y329050D01*
X-70601Y329016D01*
X-71371Y328246D01*
X-71371Y320754D01*
X-70627Y320010D01*
X-64223Y320010D01*
X-63480Y320754D01*
X-63480Y328246D01*
X-64246Y329013D01*
X-64398Y329041D01*
X-64653Y329205D01*
X-64825Y329455D01*
X-64885Y329752D01*
X-64885Y332807D01*
X-64829Y333093D01*
X-64662Y333346D01*
X-64260Y333748D01*
X-64019Y333911D01*
X-63721Y333971D01*
X-58215Y333971D01*
X-57471Y334715D01*
X-57471Y343968D01*
X-57420Y344243D01*
X-57256Y344498D01*
X-57006Y344670D01*
X-56709Y344730D01*
X-51720Y344730D01*
X-51457Y344683D01*
X-51199Y344524D01*
X-51023Y344276D01*
X-50958Y343980D01*
X-51014Y343682D01*
X-51181Y343429D01*
X-55770Y338840D01*
X-55770Y308456D01*
X-55826Y308170D01*
X-55993Y307917D01*
X-56917Y306993D01*
X-57159Y306830D01*
X-57456Y306770D01*
X-65226Y306770D01*
X-65970Y306026D01*
X-65970Y297974D01*
X-65226Y297230D01*
X-52174Y297230D01*
X-51430Y297974D01*
X-51430Y298698D01*
X-51379Y298973D01*
X-51215Y299228D01*
X-50965Y299400D01*
X-50668Y299460D01*
X-48290Y299460D01*
X-47948Y299379D01*
X-47709Y299192D01*
X-47563Y298926D01*
X-47531Y298625D01*
X-47620Y298335D01*
X-47815Y298102D01*
X-47913Y298023D01*
X-48573Y297363D01*
X-48981Y296852D01*
X-49478Y296062D01*
X-49761Y295473D01*
X-50070Y294592D01*
X-50215Y293954D01*
X-50322Y293008D01*
X-50340Y292681D01*
X-50340Y291349D01*
X-50398Y291057D01*
X-51330Y288807D01*
X-51330Y287962D01*
X-42488Y287962D01*
X-42488Y286438D01*
X-51330Y286438D01*
X-51330Y285593D01*
X-50398Y283343D01*
X-50340Y283051D01*
X-50340Y281719D01*
X-50322Y281392D01*
X-50215Y280446D01*
X-50070Y279808D01*
X-49761Y278927D01*
X-49478Y278338D01*
X-48981Y277548D01*
X-48573Y277037D01*
X-47913Y276377D01*
X-47402Y275969D01*
X-46612Y275472D01*
X-46272Y275309D01*
X-46090Y275186D01*
X-45911Y274941D01*
X-45841Y274646D01*
X-45892Y274347D01*
X-46055Y274092D01*
X-46305Y273920D01*
X-46602Y273860D01*
X-47503Y273860D01*
X-48991Y272372D01*
X-48991Y268862D01*
X-43013Y268862D01*
X-43013Y262340D01*
X-40047Y262340D01*
X-38341Y264047D01*
X-38110Y264205D01*
X-37814Y264270D01*
X-37516Y264214D01*
X-37263Y264047D01*
X-36827Y263610D01*
X-30423Y263610D01*
X-29680Y264354D01*
X-29680Y265306D01*
X-29628Y265581D01*
X-29465Y265836D01*
X-29215Y266008D01*
X-28918Y266068D01*
X-19885Y266068D01*
X-11746Y274207D01*
X-11504Y274370D01*
X-11207Y274430D01*
X-10444Y274430D01*
X-10308Y274523D01*
X-10012Y274588D01*
X-9714Y274533D01*
X-9559Y274430D01*
X-8793Y274430D01*
X-8507Y274374D01*
X-8254Y274207D01*
X-5683Y271636D01*
X275Y271636D01*
X561Y271580D01*
X814Y271413D01*
X19655Y252572D01*
X19808Y252352D01*
X19878Y252057D01*
X19827Y251758D01*
X19663Y251503D01*
X19413Y251331D01*
X19116Y251271D01*
X18966Y251271D01*
X16536Y248841D01*
X20851Y244527D01*
X19773Y243449D01*
X15459Y247764D01*
X12977Y245282D01*
X12974Y245264D01*
X12806Y245011D01*
X11236Y243441D01*
X15551Y239127D01*
X14473Y238049D01*
X10159Y242364D01*
X7729Y239934D01*
X7729Y238202D01*
X7682Y237939D01*
X7523Y237681D01*
X7276Y237506D01*
G37*
%LPC*%
G36*
X-80911Y332701D02*
X-77562Y332701D01*
X-77562Y339038D01*
X-82399Y339038D01*
X-82399Y334189D01*
X-80911Y332701D01*
G37*
G36*
X-88892Y326962D02*
X-84314Y326962D01*
X-84314Y330398D01*
X-85802Y331886D01*
X-88892Y331886D01*
X-88892Y326962D01*
G37*
G36*
X-88892Y320515D02*
X-85802Y320515D01*
X-84314Y322002D01*
X-84314Y325438D01*
X-88892Y325438D01*
X-88892Y320515D01*
G37*
G36*
X-47503Y262340D02*
X-44537Y262340D01*
X-44537Y267338D01*
X-48991Y267338D01*
X-48991Y263828D01*
X-47503Y262340D01*
G37*
%LPD*%
G36*
X37551Y260327D02*
X36473Y259249D01*
X32159Y263564D01*
X29729Y261134D01*
X29729Y260984D01*
X29682Y260721D01*
X29523Y260463D01*
X29276Y260287D01*
X28979Y260222D01*
X28681Y260278D01*
X28428Y260445D01*
X21118Y267756D01*
X16388Y267756D01*
X16102Y267812D01*
X15849Y267979D01*
X10699Y273129D01*
X10546Y273349D01*
X10476Y273644D01*
X10527Y273943D01*
X10690Y274198D01*
X10940Y274370D01*
X11238Y274430D01*
X14556Y274430D01*
X14692Y274523D01*
X14988Y274588D01*
X15286Y274533D01*
X15441Y274430D01*
X19556Y274430D01*
X19692Y274523D01*
X19988Y274588D01*
X20286Y274533D01*
X20441Y274430D01*
X26362Y274430D01*
X26648Y274374D01*
X26901Y274207D01*
X27948Y273160D01*
X31238Y273160D01*
X31238Y282162D01*
X32762Y282162D01*
X32762Y273160D01*
X35614Y273160D01*
X35878Y273113D01*
X36136Y272954D01*
X36311Y272706D01*
X36376Y272410D01*
X36358Y272313D01*
X39719Y268951D01*
X43201Y272433D01*
X42299Y273334D01*
X42114Y273633D01*
X42078Y273935D01*
X42162Y274226D01*
X42353Y274461D01*
X42488Y274533D01*
X42488Y299721D01*
X41996Y299665D01*
X41358Y299520D01*
X40477Y299211D01*
X39888Y298928D01*
X39098Y298431D01*
X38587Y298023D01*
X37927Y297363D01*
X37519Y296852D01*
X37022Y296062D01*
X36739Y295473D01*
X36430Y294592D01*
X36285Y293954D01*
X36178Y293008D01*
X36160Y292681D01*
X36160Y291349D01*
X36102Y291057D01*
X35710Y290110D01*
X35553Y289872D01*
X35303Y289700D01*
X35006Y289640D01*
X34662Y289640D01*
X34387Y289691D01*
X34132Y289855D01*
X33960Y290105D01*
X33900Y290402D01*
X33900Y294171D01*
X30971Y297100D01*
X26829Y297100D01*
X23867Y294138D01*
X23853Y294061D01*
X23694Y293802D01*
X23446Y293627D01*
X23150Y293562D01*
X22852Y293618D01*
X22599Y293785D01*
X16710Y299674D01*
X-13610Y299674D01*
X-16957Y296327D01*
X-17188Y296169D01*
X-17484Y296104D01*
X-17782Y296159D01*
X-18035Y296327D01*
X-26248Y304540D01*
X-50668Y304540D01*
X-50943Y304591D01*
X-51198Y304755D01*
X-51370Y305005D01*
X-51430Y305302D01*
X-51430Y305744D01*
X-51374Y306030D01*
X-51230Y306248D01*
X-51230Y321840D01*
X-51170Y322137D01*
X-50998Y322387D01*
X-50742Y322551D01*
X-50443Y322601D01*
X-50148Y322531D01*
X-49904Y322352D01*
X-49790Y322161D01*
X-49780Y322166D01*
X-49478Y321538D01*
X-48981Y320748D01*
X-48573Y320237D01*
X-47913Y319577D01*
X-47402Y319169D01*
X-46612Y318672D01*
X-46023Y318389D01*
X-45142Y318080D01*
X-44504Y317935D01*
X-44012Y317879D01*
X-44012Y339921D01*
X-44504Y339865D01*
X-45142Y339720D01*
X-46023Y339411D01*
X-46612Y339128D01*
X-47402Y338631D01*
X-47442Y338600D01*
X-47586Y338509D01*
X-47880Y338434D01*
X-48180Y338480D01*
X-48438Y338640D01*
X-48614Y338887D01*
X-48679Y339183D01*
X-48623Y339481D01*
X-48456Y339734D01*
X-46953Y341237D01*
X-46711Y341400D01*
X-46414Y341460D01*
X-43918Y341460D01*
X-43748Y341441D01*
X-43471Y341316D01*
X-43266Y341093D01*
X-43248Y341043D01*
X-43130Y341228D01*
X-42880Y341400D01*
X-42582Y341460D01*
X42582Y341460D01*
X42752Y341441D01*
X43029Y341316D01*
X43234Y341093D01*
X43252Y341043D01*
X43370Y341228D01*
X43620Y341400D01*
X43918Y341460D01*
X88265Y341460D01*
X88528Y341413D01*
X88786Y341254D01*
X88962Y341006D01*
X89027Y340710D01*
X88971Y340412D01*
X88804Y340159D01*
X86970Y338325D01*
X86728Y338162D01*
X86431Y338102D01*
X77299Y338102D01*
X76094Y336898D01*
X76083Y336834D01*
X75924Y336576D01*
X75676Y336400D01*
X75380Y336335D01*
X75082Y336391D01*
X74829Y336558D01*
X74272Y337116D01*
X67620Y337116D01*
X67537Y337032D01*
X67306Y336874D01*
X67010Y336809D01*
X66712Y336865D01*
X66459Y337032D01*
X65106Y338386D01*
X62016Y338386D01*
X62016Y331938D01*
X55914Y331938D01*
X55914Y328502D01*
X56125Y328291D01*
X56278Y328072D01*
X56348Y327777D01*
X56297Y327478D01*
X56134Y327222D01*
X55884Y327051D01*
X55586Y326991D01*
X52728Y326991D01*
X52631Y326893D01*
X52411Y326740D01*
X52116Y326671D01*
X51817Y326721D01*
X51562Y326885D01*
X51390Y327135D01*
X51330Y327432D01*
X51330Y328138D01*
X44012Y328138D01*
X44012Y317879D01*
X44504Y317935D01*
X45142Y318080D01*
X46023Y318389D01*
X46612Y318672D01*
X47402Y319169D01*
X47913Y319577D01*
X48573Y320237D01*
X48981Y320748D01*
X49478Y321538D01*
X49780Y322166D01*
X49785Y322163D01*
X49914Y322381D01*
X50159Y322560D01*
X50454Y322630D01*
X50753Y322579D01*
X50859Y322511D01*
X50859Y322537D01*
X62760Y322537D01*
X62760Y325503D01*
X62549Y325714D01*
X62396Y325933D01*
X62326Y326228D01*
X62377Y326527D01*
X62540Y326783D01*
X62791Y326954D01*
X63088Y327015D01*
X65106Y327015D01*
X66459Y328368D01*
X66690Y328526D01*
X66986Y328591D01*
X67284Y328535D01*
X67537Y328368D01*
X67620Y328285D01*
X67644Y328285D01*
X67919Y328233D01*
X68174Y328070D01*
X68346Y327820D01*
X68406Y327523D01*
X68406Y326444D01*
X68355Y326169D01*
X68191Y325914D01*
X67941Y325742D01*
X67644Y325682D01*
X67433Y325682D01*
X65218Y323467D01*
X65218Y320333D01*
X67433Y318118D01*
X70567Y318118D01*
X72782Y320333D01*
X72782Y321774D01*
X72838Y322060D01*
X73005Y322313D01*
X73486Y322794D01*
X73486Y327523D01*
X73537Y327797D01*
X73701Y328053D01*
X73951Y328224D01*
X74248Y328285D01*
X74272Y328285D01*
X75016Y329028D01*
X75016Y330205D01*
X75063Y330468D01*
X75222Y330726D01*
X75470Y330902D01*
X75766Y330967D01*
X76064Y330911D01*
X76317Y330744D01*
X77299Y329762D01*
X93601Y329762D01*
X94770Y330931D01*
X94770Y337006D01*
X94821Y337281D01*
X94985Y337536D01*
X95235Y337708D01*
X95532Y337768D01*
X147468Y337768D01*
X147743Y337717D01*
X147998Y337553D01*
X148170Y337303D01*
X148230Y337006D01*
X148230Y330931D01*
X149399Y329762D01*
X158531Y329762D01*
X158817Y329706D01*
X159070Y329539D01*
X161190Y327418D01*
X168418Y327418D01*
X168704Y327362D01*
X168957Y327195D01*
X171687Y324465D01*
X171850Y324223D01*
X171910Y323926D01*
X171910Y319423D01*
X172654Y318680D01*
X176594Y318680D01*
X176869Y318628D01*
X177124Y318465D01*
X177296Y318215D01*
X177356Y317918D01*
X177356Y312109D01*
X177309Y311845D01*
X177150Y311587D01*
X176902Y311412D01*
X176606Y311347D01*
X176308Y311402D01*
X176055Y311570D01*
X170311Y317314D01*
X167632Y317314D01*
X167357Y317365D01*
X167102Y317529D01*
X166930Y317779D01*
X166870Y318076D01*
X166870Y324233D01*
X165701Y325402D01*
X149399Y325402D01*
X148230Y324233D01*
X148230Y318231D01*
X149399Y317062D01*
X158531Y317062D01*
X158817Y317006D01*
X159070Y316839D01*
X161906Y314003D01*
X162059Y313783D01*
X162128Y313488D01*
X162077Y313189D01*
X161914Y312934D01*
X161664Y312762D01*
X161367Y312702D01*
X149399Y312702D01*
X148230Y311533D01*
X148230Y305531D01*
X149399Y304362D01*
X165701Y304362D01*
X166084Y304745D01*
X166326Y304908D01*
X166623Y304968D01*
X171006Y304968D01*
X171281Y304917D01*
X171536Y304753D01*
X171708Y304503D01*
X171768Y304206D01*
X171768Y295257D01*
X171712Y294971D01*
X171545Y294719D01*
X169782Y292955D01*
X169540Y292792D01*
X169243Y292732D01*
X168902Y292732D01*
X168627Y292783D01*
X168372Y292947D01*
X168200Y293197D01*
X168140Y293494D01*
X168140Y295070D01*
X146960Y295070D01*
X146960Y293494D01*
X146909Y293219D01*
X146745Y292964D01*
X146495Y292792D01*
X146198Y292732D01*
X95532Y292732D01*
X95257Y292783D01*
X95002Y292947D01*
X94830Y293197D01*
X94770Y293494D01*
X94770Y298833D01*
X93601Y300002D01*
X77299Y300002D01*
X76130Y298833D01*
X76130Y297988D01*
X76079Y297713D01*
X75915Y297458D01*
X75665Y297286D01*
X75368Y297226D01*
X71758Y297226D01*
X71495Y297273D01*
X71237Y297432D01*
X71062Y297680D01*
X70996Y297976D01*
X71052Y298274D01*
X71220Y298527D01*
X76832Y304139D01*
X77073Y304302D01*
X77370Y304362D01*
X93601Y304362D01*
X94770Y305531D01*
X94770Y311533D01*
X93601Y312702D01*
X80934Y312702D01*
X80671Y312749D01*
X80413Y312908D01*
X80238Y313156D01*
X80172Y313452D01*
X80228Y313750D01*
X80396Y314003D01*
X83232Y316839D01*
X83473Y317002D01*
X83770Y317062D01*
X93601Y317062D01*
X94770Y318231D01*
X94770Y324233D01*
X93601Y325402D01*
X77299Y325402D01*
X76130Y324233D01*
X76130Y318231D01*
X76964Y317396D01*
X77122Y317166D01*
X77187Y316870D01*
X77132Y316572D01*
X76964Y316319D01*
X51641Y290996D01*
X51421Y290843D01*
X51126Y290773D01*
X50827Y290824D01*
X50572Y290987D01*
X50400Y291237D01*
X50340Y291534D01*
X50340Y292681D01*
X50322Y293008D01*
X50215Y293954D01*
X50070Y294592D01*
X49761Y295473D01*
X49478Y296062D01*
X48981Y296852D01*
X48573Y297363D01*
X47913Y298023D01*
X47402Y298431D01*
X46612Y298928D01*
X46023Y299211D01*
X45142Y299520D01*
X44504Y299665D01*
X44012Y299721D01*
X44012Y274679D01*
X44504Y274735D01*
X45142Y274880D01*
X46023Y275189D01*
X46612Y275472D01*
X47402Y275969D01*
X47913Y276377D01*
X48573Y277037D01*
X48981Y277548D01*
X49478Y278338D01*
X49531Y278448D01*
X49653Y278630D01*
X49898Y278809D01*
X50193Y278879D01*
X50492Y278828D01*
X50747Y278665D01*
X50919Y278415D01*
X50979Y278117D01*
X50979Y264698D01*
X50932Y264435D01*
X50773Y264177D01*
X50525Y264001D01*
X50229Y263936D01*
X49931Y263992D01*
X49678Y264159D01*
X47343Y266494D01*
X47225Y266494D01*
X46951Y266546D01*
X46695Y266709D01*
X46524Y266959D01*
X46463Y267256D01*
X46463Y269170D01*
X44278Y271355D01*
X39719Y266796D01*
X35405Y271111D01*
X32975Y268681D01*
X32975Y266577D01*
X33535Y266018D01*
X33693Y265787D01*
X33758Y265491D01*
X33702Y265193D01*
X33535Y264940D01*
X33236Y264641D01*
X37551Y260327D01*
G37*
%LPC*%
G36*
X35170Y329662D02*
X42488Y329662D01*
X42488Y339921D01*
X41996Y339865D01*
X41358Y339720D01*
X40477Y339411D01*
X39888Y339128D01*
X39098Y338631D01*
X38587Y338223D01*
X37927Y337563D01*
X37519Y337052D01*
X37022Y336262D01*
X36739Y335673D01*
X36430Y334792D01*
X36285Y334154D01*
X36178Y333208D01*
X36168Y333029D01*
X36111Y332780D01*
X35170Y330507D01*
X35170Y329662D01*
G37*
G36*
X-42488Y329662D02*
X-35170Y329662D01*
X-35170Y330507D01*
X-36111Y332780D01*
X-36168Y333029D01*
X-36178Y333208D01*
X-36285Y334154D01*
X-36430Y334792D01*
X-36739Y335673D01*
X-37022Y336262D01*
X-37519Y337052D01*
X-37927Y337563D01*
X-38587Y338223D01*
X-39098Y338631D01*
X-39888Y339128D01*
X-40477Y339411D01*
X-41358Y339720D01*
X-41996Y339865D01*
X-42488Y339921D01*
X-42488Y329662D01*
G37*
G36*
X44012Y329662D02*
X51330Y329662D01*
X51330Y330507D01*
X50389Y332780D01*
X50332Y333029D01*
X50322Y333208D01*
X50215Y334154D01*
X50070Y334792D01*
X49761Y335673D01*
X49478Y336262D01*
X48981Y337052D01*
X48573Y337563D01*
X47913Y338223D01*
X47402Y338631D01*
X46612Y339128D01*
X46023Y339411D01*
X45142Y339720D01*
X44504Y339865D01*
X44012Y339921D01*
X44012Y329662D01*
G37*
G36*
X55914Y333462D02*
X60492Y333462D01*
X60492Y338386D01*
X57402Y338386D01*
X55914Y336898D01*
X55914Y333462D01*
G37*
G36*
X-42488Y328138D02*
X-42488Y317879D01*
X-41996Y317935D01*
X-41358Y318080D01*
X-40477Y318389D01*
X-39888Y318672D01*
X-39098Y319169D01*
X-38587Y319577D01*
X-37927Y320237D01*
X-37519Y320748D01*
X-37022Y321538D01*
X-36739Y322127D01*
X-36430Y323008D01*
X-36285Y323646D01*
X-36178Y324592D01*
X-36168Y324771D01*
X-36111Y325020D01*
X-35170Y327293D01*
X-35170Y328138D01*
X-42488Y328138D01*
G37*
G36*
X41996Y317935D02*
X42488Y317879D01*
X42488Y328138D01*
X35170Y328138D01*
X35170Y327293D01*
X36111Y325020D01*
X36168Y324771D01*
X36178Y324592D01*
X36285Y323646D01*
X36430Y323008D01*
X36739Y322127D01*
X37022Y321538D01*
X37519Y320748D01*
X37927Y320237D01*
X38587Y319577D01*
X39098Y319169D01*
X39888Y318672D01*
X40477Y318389D01*
X41358Y318080D01*
X41996Y317935D01*
G37*
G36*
X53254Y307680D02*
X60746Y307680D01*
X61490Y308423D01*
X61490Y314827D01*
X61053Y315263D01*
X60895Y315494D01*
X60830Y315790D01*
X60886Y316088D01*
X61053Y316341D01*
X62760Y318047D01*
X62760Y321013D01*
X51240Y321013D01*
X51240Y318047D01*
X52947Y316341D01*
X53105Y316110D01*
X53170Y315814D01*
X53114Y315516D01*
X52947Y315263D01*
X52510Y314827D01*
X52510Y314794D01*
X52459Y314519D01*
X52295Y314264D01*
X52045Y314092D01*
X51748Y314032D01*
X31132Y314032D01*
X30846Y314088D01*
X30593Y314255D01*
X29417Y315432D01*
X26283Y315432D01*
X24068Y313217D01*
X24068Y310083D01*
X26283Y307868D01*
X29417Y307868D01*
X31293Y309745D01*
X31535Y309908D01*
X31832Y309968D01*
X51748Y309968D01*
X52023Y309917D01*
X52278Y309753D01*
X52450Y309503D01*
X52510Y309206D01*
X52510Y308423D01*
X53254Y307680D01*
G37*
G36*
X146960Y296594D02*
X156788Y296594D01*
X156788Y301272D01*
X148873Y301272D01*
X146960Y299359D01*
X146960Y296594D01*
G37*
G36*
X158312Y296594D02*
X168140Y296594D01*
X168140Y299359D01*
X166227Y301272D01*
X158312Y301272D01*
X158312Y296594D01*
G37*
%LPD*%
G36*
X-104849Y282156D02*
X-105144Y282086D01*
X-105443Y282137D01*
X-105698Y282300D01*
X-105870Y282551D01*
X-105930Y282848D01*
X-105930Y284567D01*
X-107083Y285720D01*
X-115762Y285720D01*
X-116048Y285776D01*
X-116301Y285943D01*
X-127537Y297179D01*
X-127700Y297421D01*
X-127760Y297718D01*
X-127760Y306532D01*
X-127704Y306818D01*
X-127537Y307071D01*
X-121671Y312937D01*
X-121430Y313100D01*
X-121132Y313160D01*
X-108214Y313160D01*
X-103187Y318188D01*
X-102967Y318341D01*
X-102672Y318410D01*
X-102373Y318360D01*
X-102118Y318196D01*
X-101946Y317946D01*
X-101886Y317649D01*
X-101886Y307426D01*
X-101942Y307140D01*
X-102109Y306887D01*
X-102970Y306026D01*
X-102970Y297974D01*
X-102226Y297230D01*
X-91548Y297230D01*
X-91284Y297183D01*
X-91026Y297024D01*
X-90851Y296776D01*
X-90786Y296480D01*
X-90841Y296182D01*
X-91009Y295929D01*
X-96599Y290339D01*
X-96841Y290176D01*
X-97138Y290116D01*
X-97258Y290116D01*
X-97544Y290171D01*
X-97797Y290339D01*
X-105707Y298249D01*
X-105870Y298491D01*
X-105930Y298788D01*
X-105930Y307467D01*
X-107083Y308620D01*
X-120417Y308620D01*
X-121570Y307467D01*
X-121570Y297933D01*
X-120417Y296780D01*
X-111738Y296780D01*
X-111452Y296724D01*
X-111199Y296557D01*
X-101939Y287297D01*
X-101776Y287056D01*
X-101716Y286758D01*
X-101716Y285538D01*
X-101772Y285252D01*
X-101939Y284999D01*
X-104629Y282309D01*
X-104849Y282156D01*
G37*
G36*
X200876Y270255D02*
X200580Y270189D01*
X200282Y270245D01*
X200029Y270413D01*
X186653Y283789D01*
X186495Y284019D01*
X186430Y284315D01*
X186485Y284614D01*
X186653Y284866D01*
X187082Y285295D01*
X187082Y287455D01*
X187138Y287741D01*
X187305Y287994D01*
X187332Y288020D01*
X187332Y288818D01*
X187383Y289092D01*
X187547Y289348D01*
X187797Y289519D01*
X188094Y289580D01*
X189046Y289580D01*
X189790Y290323D01*
X189790Y296727D01*
X188849Y297667D01*
X188696Y297887D01*
X188627Y298182D01*
X188677Y298481D01*
X188841Y298736D01*
X189091Y298908D01*
X189388Y298968D01*
X197542Y298968D01*
X200029Y301456D01*
X200249Y301609D01*
X200544Y301678D01*
X200843Y301627D01*
X201098Y301464D01*
X201270Y301214D01*
X201330Y300917D01*
X201330Y270951D01*
X201283Y270688D01*
X201124Y270430D01*
X200876Y270255D01*
G37*
G36*
X74650Y256319D02*
X74354Y256254D01*
X74056Y256309D01*
X73803Y256477D01*
X72751Y257529D01*
X72588Y257771D01*
X72528Y258068D01*
X72528Y277250D01*
X72583Y277536D01*
X72751Y277789D01*
X77819Y282857D01*
X78060Y283020D01*
X78357Y283080D01*
X97265Y283080D01*
X97529Y283033D01*
X97787Y282874D01*
X97962Y282626D01*
X98027Y282330D01*
X97972Y282032D01*
X97804Y281779D01*
X96728Y280703D01*
X100209Y277222D01*
X103446Y280459D01*
X102126Y281779D01*
X101973Y281999D01*
X101903Y282294D01*
X101954Y282593D01*
X102117Y282848D01*
X102368Y283020D01*
X102665Y283080D01*
X109754Y283080D01*
X110017Y283033D01*
X110275Y282874D01*
X110451Y282626D01*
X110516Y282330D01*
X110460Y282032D01*
X110293Y281779D01*
X106748Y278235D01*
X106518Y278077D01*
X106222Y278012D01*
X105923Y278067D01*
X105671Y278235D01*
X104524Y279381D01*
X100209Y275066D01*
X95650Y279625D01*
X93465Y277440D01*
X93465Y275527D01*
X93414Y275252D01*
X93251Y274997D01*
X93000Y274825D01*
X92703Y274765D01*
X92586Y274765D01*
X92084Y274263D01*
X91842Y274100D01*
X91545Y274040D01*
X84324Y274040D01*
X84038Y274096D01*
X83785Y274263D01*
X82767Y275282D01*
X79633Y275282D01*
X77418Y273067D01*
X77418Y269933D01*
X79633Y267718D01*
X82767Y267718D01*
X83785Y268737D01*
X84027Y268900D01*
X84324Y268960D01*
X87615Y268960D01*
X87901Y268904D01*
X88154Y268737D01*
X89335Y267556D01*
X89493Y267325D01*
X89558Y267029D01*
X89503Y266731D01*
X89335Y266478D01*
X84497Y261640D01*
X84256Y261478D01*
X83958Y261417D01*
X83937Y261417D01*
X79247Y256727D01*
X79016Y256569D01*
X78720Y256504D01*
X78422Y256559D01*
X78169Y256727D01*
X77575Y257321D01*
X77351Y257504D01*
X77130Y257622D01*
X76889Y257693D01*
X76639Y257716D01*
X76390Y257689D01*
X76150Y257614D01*
X75928Y257490D01*
X75728Y257324D01*
X74881Y256477D01*
X74650Y256319D01*
G37*
G36*
X31263Y197140D02*
X30966Y197080D01*
X-158718Y197080D01*
X-158992Y197131D01*
X-159248Y197295D01*
X-159419Y197545D01*
X-159480Y197842D01*
X-159480Y200338D01*
X-159424Y200624D01*
X-159256Y200877D01*
X-157260Y202873D01*
X-157260Y206018D01*
X-157209Y206293D01*
X-157045Y206548D01*
X-156795Y206720D01*
X-156768Y206725D01*
X-155530Y207963D01*
X-155530Y210898D01*
X-155479Y211173D01*
X-155315Y211428D01*
X-155065Y211600D01*
X-154768Y211660D01*
X-154668Y211660D01*
X-154382Y211604D01*
X-154129Y211437D01*
X-149305Y206613D01*
X-149142Y206372D01*
X-149082Y206074D01*
X-149082Y204633D01*
X-146867Y202418D01*
X-143733Y202418D01*
X-141518Y204633D01*
X-141518Y207767D01*
X-143733Y209982D01*
X-145174Y209982D01*
X-145460Y210038D01*
X-145713Y210205D01*
X-152248Y216740D01*
X-154768Y216740D01*
X-155043Y216791D01*
X-155298Y216955D01*
X-155470Y217205D01*
X-155530Y217502D01*
X-155530Y220437D01*
X-156763Y221669D01*
X-156773Y221671D01*
X-157028Y221835D01*
X-157200Y222085D01*
X-157260Y222382D01*
X-157260Y241670D01*
X-157204Y241956D01*
X-157037Y242208D01*
X-155870Y243376D01*
X-155870Y249723D01*
X-155814Y250009D01*
X-155646Y250262D01*
X-145271Y260637D01*
X-145030Y260800D01*
X-144732Y260860D01*
X-114714Y260860D01*
X-102120Y273454D01*
X-102120Y277318D01*
X-102064Y277604D01*
X-101897Y277857D01*
X-98693Y281061D01*
X-98451Y281224D01*
X-98154Y281285D01*
X-97138Y281285D01*
X-96852Y281229D01*
X-96599Y281061D01*
X-59498Y243960D01*
X-6802Y243960D01*
X-6527Y243909D01*
X-6272Y243745D01*
X-6100Y243495D01*
X-6040Y243198D01*
X-6040Y242948D01*
X8022Y228886D01*
X8175Y228667D01*
X8244Y228372D01*
X8194Y228073D01*
X8030Y227817D01*
X7780Y227646D01*
X7483Y227586D01*
X5716Y227586D01*
X5716Y221138D01*
X-386Y221138D01*
X-386Y217702D01*
X228Y217089D01*
X386Y216858D01*
X451Y216562D01*
X395Y216264D01*
X228Y216011D01*
X-586Y215198D01*
X-586Y211762D01*
X5516Y211762D01*
X5516Y205315D01*
X8606Y205315D01*
X9959Y206668D01*
X10190Y206826D01*
X10486Y206891D01*
X10784Y206835D01*
X11037Y206668D01*
X11120Y206585D01*
X17772Y206585D01*
X18516Y207328D01*
X18516Y211681D01*
X18572Y211967D01*
X18739Y212220D01*
X19665Y213145D01*
X19906Y213308D01*
X20203Y213368D01*
X25143Y213368D01*
X25429Y213312D01*
X25682Y213145D01*
X30134Y208692D01*
X30292Y208461D01*
X30358Y208165D01*
X30302Y207867D01*
X30134Y207614D01*
X28883Y206363D01*
X28883Y205103D01*
X30834Y203152D01*
X30949Y203152D01*
X31224Y203101D01*
X31479Y202938D01*
X31651Y202688D01*
X31711Y202390D01*
X31711Y202275D01*
X33555Y200431D01*
X33713Y200201D01*
X33778Y199904D01*
X33722Y199606D01*
X33555Y199353D01*
X31505Y197303D01*
X31263Y197140D01*
G37*
%LPC*%
G36*
X-386Y222662D02*
X4192Y222662D01*
X4192Y227586D01*
X1102Y227586D01*
X-386Y226098D01*
X-386Y222662D01*
G37*
G36*
X902Y205315D02*
X3992Y205315D01*
X3992Y210238D01*
X-586Y210238D01*
X-586Y206802D01*
X902Y205315D01*
G37*
%LPD*%
G36*
X-216919Y223544D02*
X-217214Y223474D01*
X-217513Y223525D01*
X-217768Y223689D01*
X-217940Y223939D01*
X-218000Y224236D01*
X-218000Y235764D01*
X-217955Y236022D01*
X-217798Y236281D01*
X-217552Y236458D01*
X-217256Y236526D01*
X-216958Y236473D01*
X-216704Y236307D01*
X-216534Y236056D01*
X-216181Y235202D01*
X-213798Y232820D01*
X-210685Y231530D01*
X-207315Y231530D01*
X-204202Y232820D01*
X-201820Y235202D01*
X-200530Y238315D01*
X-200530Y241685D01*
X-201820Y244798D01*
X-204202Y247181D01*
X-205990Y247921D01*
X-206228Y248078D01*
X-206400Y248328D01*
X-206460Y248625D01*
X-206460Y260223D01*
X-206409Y260497D01*
X-206245Y260753D01*
X-205995Y260924D01*
X-205698Y260985D01*
X-204520Y260985D01*
X-204437Y261068D01*
X-204206Y261226D01*
X-203910Y261291D01*
X-203612Y261235D01*
X-203359Y261068D01*
X-202006Y259715D01*
X-198916Y259715D01*
X-198916Y271086D01*
X-202006Y271086D01*
X-203359Y269732D01*
X-203590Y269574D01*
X-203886Y269509D01*
X-204184Y269565D01*
X-204437Y269732D01*
X-204520Y269816D01*
X-204544Y269816D01*
X-204819Y269867D01*
X-205074Y270030D01*
X-205246Y270280D01*
X-205306Y270578D01*
X-205306Y272586D01*
X-205250Y272872D01*
X-205083Y273125D01*
X-201171Y277037D01*
X-200930Y277200D01*
X-200632Y277260D01*
X-122332Y277260D01*
X-122057Y277209D01*
X-121802Y277045D01*
X-121630Y276795D01*
X-121570Y276498D01*
X-121570Y275888D01*
X-121626Y275602D01*
X-121793Y275349D01*
X-122779Y274363D01*
X-123021Y274200D01*
X-123318Y274140D01*
X-159652Y274140D01*
X-166165Y267627D01*
X-166165Y260524D01*
X-166221Y260238D01*
X-166388Y259985D01*
X-167407Y258967D01*
X-167407Y255833D01*
X-166388Y254815D01*
X-166225Y254573D01*
X-166165Y254276D01*
X-166165Y253952D01*
X-166216Y253677D01*
X-166380Y253422D01*
X-166630Y253250D01*
X-166801Y253216D01*
X-167571Y252446D01*
X-167571Y247927D01*
X-167617Y247664D01*
X-167777Y247406D01*
X-168024Y247230D01*
X-168320Y247165D01*
X-168618Y247221D01*
X-168871Y247388D01*
X-169606Y248123D01*
X-169769Y248365D01*
X-169830Y248662D01*
X-169830Y252446D01*
X-170573Y253190D01*
X-176977Y253190D01*
X-177721Y252446D01*
X-177721Y252002D01*
X-177772Y251727D01*
X-177935Y251472D01*
X-178185Y251300D01*
X-178483Y251240D01*
X-181352Y251240D01*
X-204697Y227895D01*
X-204933Y227734D01*
X-205230Y227672D01*
X-205528Y227730D01*
X-207315Y228470D01*
X-210685Y228470D01*
X-213798Y227181D01*
X-216181Y224798D01*
X-216534Y223944D01*
X-216674Y223724D01*
X-216919Y223544D01*
G37*
%LPC*%
G36*
X-197392Y266162D02*
X-192814Y266162D01*
X-192814Y269598D01*
X-194302Y271086D01*
X-197392Y271086D01*
X-197392Y266162D01*
G37*
G36*
X-197392Y259715D02*
X-194302Y259715D01*
X-192814Y261202D01*
X-192814Y264638D01*
X-197392Y264638D01*
X-197392Y259715D01*
G37*
%LPD*%
G36*
X124741Y250564D02*
X120427Y246249D01*
X119349Y247327D01*
X123664Y251641D01*
X121234Y254071D01*
X120702Y254071D01*
X120438Y254118D01*
X120180Y254277D01*
X120005Y254524D01*
X119940Y254821D01*
X119995Y255119D01*
X120163Y255372D01*
X128090Y263299D01*
X128332Y263462D01*
X128629Y263522D01*
X141108Y263522D01*
X141371Y263475D01*
X141629Y263316D01*
X141805Y263068D01*
X141870Y262772D01*
X141814Y262474D01*
X141647Y262221D01*
X127904Y248479D01*
X127674Y248321D01*
X127377Y248256D01*
X127079Y248311D01*
X126826Y248479D01*
X124741Y250564D01*
G37*
G36*
X172579Y237362D02*
X172283Y237297D01*
X171985Y237352D01*
X171732Y237520D01*
X162742Y246510D01*
X144836Y246510D01*
X144573Y246557D01*
X144315Y246716D01*
X144139Y246964D01*
X144074Y247260D01*
X144130Y247558D01*
X144297Y247811D01*
X151403Y254917D01*
X151645Y255080D01*
X151942Y255140D01*
X167085Y255140D01*
X167371Y255084D01*
X167624Y254917D01*
X172809Y249732D01*
X172972Y249490D01*
X173033Y249193D01*
X173033Y238059D01*
X172986Y237795D01*
X172826Y237537D01*
X172579Y237362D01*
G37*
G36*
X-216919Y183544D02*
X-217214Y183474D01*
X-217513Y183525D01*
X-217768Y183689D01*
X-217940Y183939D01*
X-218000Y184236D01*
X-218000Y193386D01*
X-217953Y193649D01*
X-217794Y193907D01*
X-217546Y194083D01*
X-217250Y194148D01*
X-216952Y194092D01*
X-216699Y193925D01*
X-214517Y191743D01*
X-210937Y190260D01*
X-209762Y190260D01*
X-209762Y209740D01*
X-210937Y209740D01*
X-214517Y208257D01*
X-216699Y206075D01*
X-216919Y205922D01*
X-217214Y205852D01*
X-217513Y205903D01*
X-217768Y206067D01*
X-217940Y206317D01*
X-218000Y206614D01*
X-218000Y215764D01*
X-217955Y216022D01*
X-217798Y216281D01*
X-217552Y216458D01*
X-217256Y216526D01*
X-216958Y216473D01*
X-216704Y216307D01*
X-216534Y216056D01*
X-216181Y215202D01*
X-213798Y212820D01*
X-210685Y211530D01*
X-207315Y211530D01*
X-204202Y212820D01*
X-201820Y215202D01*
X-200530Y218315D01*
X-200530Y221685D01*
X-201270Y223472D01*
X-201328Y223752D01*
X-201273Y224050D01*
X-201105Y224303D01*
X-179471Y245937D01*
X-179230Y246100D01*
X-178932Y246160D01*
X-178483Y246160D01*
X-178208Y246109D01*
X-177952Y245945D01*
X-177781Y245695D01*
X-177721Y245398D01*
X-177721Y244954D01*
X-176977Y244210D01*
X-173193Y244210D01*
X-172907Y244154D01*
X-172654Y243987D01*
X-172476Y243809D01*
X-172318Y243578D01*
X-172253Y243282D01*
X-172308Y242984D01*
X-172476Y242731D01*
X-173570Y241637D01*
X-173570Y229163D01*
X-172387Y227980D01*
X-166213Y227980D01*
X-165030Y229163D01*
X-165030Y241637D01*
X-166302Y242909D01*
X-166455Y243129D01*
X-166525Y243424D01*
X-166474Y243723D01*
X-166311Y243978D01*
X-166061Y244150D01*
X-165764Y244210D01*
X-163102Y244210D01*
X-162827Y244159D01*
X-162572Y243995D01*
X-162400Y243745D01*
X-162340Y243448D01*
X-162340Y222382D01*
X-162391Y222107D01*
X-162555Y221852D01*
X-162805Y221680D01*
X-162832Y221675D01*
X-164070Y220437D01*
X-164070Y207963D01*
X-162837Y206731D01*
X-162827Y206729D01*
X-162572Y206565D01*
X-162400Y206315D01*
X-162340Y206018D01*
X-162340Y205552D01*
X-162391Y205277D01*
X-162555Y205022D01*
X-162805Y204850D01*
X-163102Y204790D01*
X-166627Y204790D01*
X-167371Y204046D01*
X-167371Y197842D01*
X-167422Y197567D01*
X-167585Y197312D01*
X-167835Y197140D01*
X-168133Y197080D01*
X-168868Y197080D01*
X-169142Y197131D01*
X-169398Y197295D01*
X-169569Y197545D01*
X-169630Y197842D01*
X-169630Y204046D01*
X-170396Y204813D01*
X-170548Y204841D01*
X-170803Y205005D01*
X-170975Y205255D01*
X-171035Y205552D01*
X-171035Y210027D01*
X-174307Y213299D01*
X-174470Y213541D01*
X-174530Y213838D01*
X-174530Y220437D01*
X-175713Y221620D01*
X-181887Y221620D01*
X-183070Y220437D01*
X-183070Y218594D01*
X-183121Y218319D01*
X-183285Y218064D01*
X-183535Y217892D01*
X-183832Y217832D01*
X-183968Y217832D01*
X-184254Y217888D01*
X-184507Y218055D01*
X-186033Y219582D01*
X-189167Y219582D01*
X-191382Y217367D01*
X-191382Y214233D01*
X-189167Y212018D01*
X-186033Y212018D01*
X-184507Y213545D01*
X-184265Y213708D01*
X-183968Y213768D01*
X-183832Y213768D01*
X-183557Y213717D01*
X-183302Y213553D01*
X-183130Y213303D01*
X-183070Y213006D01*
X-183070Y207963D01*
X-181887Y206780D01*
X-176877Y206780D01*
X-176602Y206729D01*
X-176347Y206565D01*
X-176175Y206315D01*
X-176115Y206018D01*
X-176115Y205552D01*
X-176166Y205277D01*
X-176330Y205022D01*
X-176580Y204850D01*
X-176751Y204816D01*
X-177521Y204046D01*
X-177521Y197842D01*
X-177572Y197567D01*
X-177735Y197312D01*
X-177985Y197140D01*
X-178283Y197080D01*
X-194794Y197080D01*
X-204189Y187684D01*
X-204425Y187524D01*
X-204722Y187461D01*
X-205020Y187519D01*
X-207315Y188470D01*
X-210685Y188470D01*
X-213798Y187181D01*
X-216181Y184798D01*
X-216534Y183944D01*
X-216674Y183724D01*
X-216919Y183544D01*
G37*
%LPC*%
G36*
X-208238Y200762D02*
X-199260Y200762D01*
X-199260Y201937D01*
X-200743Y205517D01*
X-203483Y208257D01*
X-207063Y209740D01*
X-208238Y209740D01*
X-208238Y200762D01*
G37*
G36*
X-208238Y190260D02*
X-207063Y190260D01*
X-203483Y191743D01*
X-200743Y194483D01*
X-199260Y198063D01*
X-199260Y199238D01*
X-208238Y199238D01*
X-208238Y190260D01*
G37*
%LPD*%
G36*
X121326Y213226D02*
X121026Y213183D01*
X120733Y213261D01*
X120493Y213447D01*
X120345Y213711D01*
X120312Y214013D01*
X120316Y214061D01*
X120289Y214310D01*
X120214Y214550D01*
X120090Y214772D01*
X119924Y214972D01*
X119227Y215669D01*
X119069Y215900D01*
X119004Y216196D01*
X119059Y216494D01*
X119227Y216747D01*
X123917Y221437D01*
X123917Y221458D01*
X123973Y221744D01*
X124140Y221997D01*
X144366Y242223D01*
X144608Y242386D01*
X144905Y242446D01*
X160743Y242446D01*
X161029Y242390D01*
X161282Y242223D01*
X170015Y233489D01*
X170178Y233247D01*
X170239Y232950D01*
X170239Y219275D01*
X170192Y219011D01*
X170032Y218753D01*
X169785Y218578D01*
X169489Y218513D01*
X169191Y218568D01*
X168938Y218736D01*
X158742Y228932D01*
X137137Y228932D01*
X121610Y213405D01*
X121326Y213226D01*
G37*
G36*
X124711Y206258D02*
X124415Y206193D01*
X124117Y206248D01*
X123864Y206416D01*
X122655Y207625D01*
X122497Y207856D01*
X122432Y208152D01*
X122487Y208450D01*
X122655Y208703D01*
X138597Y224645D01*
X138838Y224808D01*
X139136Y224868D01*
X156743Y224868D01*
X157029Y224812D01*
X157282Y224645D01*
X167221Y214705D01*
X167384Y214463D01*
X167445Y214166D01*
X167445Y211788D01*
X167398Y211525D01*
X167238Y211266D01*
X166991Y211091D01*
X166695Y211026D01*
X166397Y211082D01*
X166144Y211249D01*
X160061Y217332D01*
X135858Y217332D01*
X124942Y206416D01*
X124711Y206258D01*
G37*
G36*
X134020Y123019D02*
X133723Y122959D01*
X105284Y122959D01*
X104998Y123015D01*
X104746Y123182D01*
X102955Y124973D01*
X102792Y125214D01*
X102732Y125511D01*
X102732Y144842D01*
X102779Y145105D01*
X102938Y145363D01*
X103186Y145538D01*
X103482Y145603D01*
X103780Y145548D01*
X104033Y145380D01*
X112545Y136868D01*
X134968Y136868D01*
X135254Y136812D01*
X135507Y136645D01*
X137033Y135118D01*
X140167Y135118D01*
X142382Y137333D01*
X142382Y140467D01*
X140167Y142682D01*
X137033Y142682D01*
X135507Y141155D01*
X135265Y140992D01*
X134968Y140932D01*
X134820Y140932D01*
X134557Y140979D01*
X134299Y141138D01*
X134123Y141386D01*
X134058Y141682D01*
X134114Y141980D01*
X134182Y142083D01*
X134182Y145267D01*
X131967Y147482D01*
X128833Y147482D01*
X127307Y145955D01*
X127065Y145792D01*
X126768Y145732D01*
X125940Y145732D01*
X125677Y145779D01*
X125419Y145938D01*
X125244Y146186D01*
X125217Y146309D01*
X124919Y146012D01*
X120335Y150596D01*
X125164Y155425D01*
X125230Y155358D01*
X125249Y155458D01*
X125416Y155711D01*
X125665Y155959D01*
X121350Y160274D01*
X122428Y161352D01*
X126742Y157037D01*
X129172Y159466D01*
X129172Y159615D01*
X129219Y159878D01*
X129378Y160136D01*
X129625Y160312D01*
X129921Y160377D01*
X130220Y160321D01*
X130472Y160154D01*
X131670Y158957D01*
X131828Y158726D01*
X131893Y158430D01*
X131837Y158132D01*
X131670Y157879D01*
X131099Y157308D01*
X131099Y156256D01*
X135803Y151553D01*
X135921Y151553D01*
X136195Y151501D01*
X136451Y151338D01*
X136622Y151088D01*
X136683Y150791D01*
X136683Y148877D01*
X138868Y146692D01*
X146965Y154790D01*
X146912Y155032D01*
X146968Y155330D01*
X147135Y155583D01*
X155930Y164378D01*
X155930Y165274D01*
X155977Y165537D01*
X156137Y165795D01*
X156384Y165970D01*
X156680Y166035D01*
X156978Y165980D01*
X157099Y165900D01*
X159248Y165900D01*
X163696Y170348D01*
X150204Y183839D01*
X145756Y179391D01*
X145756Y177249D01*
X145822Y177155D01*
X145892Y176860D01*
X145841Y176561D01*
X145678Y176306D01*
X145427Y176134D01*
X145130Y176074D01*
X144235Y176074D01*
X135006Y166844D01*
X135006Y165792D01*
X136996Y163802D01*
X137149Y163582D01*
X137219Y163287D01*
X137168Y162988D01*
X137005Y162733D01*
X136755Y162561D01*
X136458Y162501D01*
X136292Y162501D01*
X135621Y161830D01*
X135391Y161672D01*
X135094Y161607D01*
X134796Y161663D01*
X134543Y161830D01*
X132754Y163620D01*
X132596Y163850D01*
X132531Y164146D01*
X132587Y164444D01*
X132754Y164697D01*
X133427Y165370D01*
X133427Y166422D01*
X131582Y168268D01*
X131424Y168499D01*
X131358Y168795D01*
X131414Y169093D01*
X131582Y169346D01*
X136119Y173883D01*
X128834Y181168D01*
X129912Y182245D01*
X137196Y174961D01*
X141644Y179408D01*
X141644Y181551D01*
X141578Y181645D01*
X141509Y181940D01*
X141559Y182239D01*
X141723Y182494D01*
X141973Y182666D01*
X142270Y182726D01*
X143166Y182726D01*
X152395Y191955D01*
X152395Y193007D01*
X142910Y202492D01*
X142752Y202723D01*
X142687Y203019D01*
X142743Y203317D01*
X142910Y203570D01*
X143171Y203830D01*
X143171Y205934D01*
X140741Y208364D01*
X136427Y204049D01*
X135349Y205127D01*
X139664Y209441D01*
X137228Y211877D01*
X137070Y212107D01*
X137005Y212404D01*
X137061Y212702D01*
X137228Y212955D01*
X137319Y213045D01*
X137560Y213208D01*
X137857Y213268D01*
X158062Y213268D01*
X158348Y213212D01*
X158601Y213045D01*
X163664Y207982D01*
X163827Y207740D01*
X163887Y207443D01*
X163887Y195344D01*
X163836Y195069D01*
X163672Y194814D01*
X163422Y194642D01*
X163125Y194582D01*
X162603Y194582D01*
X160387Y192367D01*
X160387Y189233D01*
X162603Y187018D01*
X165736Y187018D01*
X166144Y187426D01*
X166363Y187579D01*
X166658Y187649D01*
X166957Y187598D01*
X167213Y187435D01*
X167384Y187185D01*
X167445Y186887D01*
X167445Y181593D01*
X167398Y181330D01*
X167238Y181072D01*
X166991Y180896D01*
X166695Y180831D01*
X166397Y180887D01*
X166144Y181054D01*
X164066Y183132D01*
X158566Y177632D01*
X164773Y171425D01*
X166144Y172796D01*
X166363Y172949D01*
X166658Y173018D01*
X166957Y172968D01*
X167213Y172804D01*
X167384Y172554D01*
X167445Y172257D01*
X167445Y168544D01*
X167393Y168269D01*
X167230Y168014D01*
X166980Y167842D01*
X166683Y167782D01*
X163366Y167782D01*
X161151Y165567D01*
X161151Y164238D01*
X161095Y163952D01*
X160927Y163699D01*
X152486Y155257D01*
X152486Y141722D01*
X152430Y141436D01*
X152263Y141183D01*
X134262Y123182D01*
X134020Y123019D01*
G37*
%LPC*%
G36*
X151282Y184917D02*
X157489Y178710D01*
X162989Y184210D01*
X157834Y189364D01*
X155730Y189364D01*
X151282Y184917D01*
G37*
G36*
X122491Y150596D02*
X125728Y147359D01*
X128157Y149788D01*
X128157Y151892D01*
X125972Y154077D01*
X122491Y150596D01*
G37*
G36*
X144504Y150173D02*
X147741Y146936D01*
X150171Y149366D01*
X150171Y151470D01*
X147986Y153655D01*
X144504Y150173D01*
G37*
G36*
X142130Y143429D02*
X144234Y143429D01*
X146664Y145859D01*
X143427Y149096D01*
X139945Y145614D01*
X142130Y143429D01*
G37*
%LPD*%
G36*
X118640Y187092D02*
X118343Y187032D01*
X114943Y187032D01*
X114657Y187088D01*
X114404Y187255D01*
X111673Y189986D01*
X111515Y190216D01*
X111450Y190512D01*
X111506Y190810D01*
X111673Y191063D01*
X111987Y191377D01*
X106683Y196682D01*
X107760Y197760D01*
X113065Y192455D01*
X113874Y193264D01*
X113874Y194744D01*
X113929Y195030D01*
X114097Y195283D01*
X115432Y196618D01*
X115432Y196733D01*
X115483Y197008D01*
X115647Y197264D01*
X115897Y197435D01*
X116194Y197495D01*
X116309Y197495D01*
X118260Y199446D01*
X118260Y199562D01*
X118312Y199837D01*
X118475Y200092D01*
X118725Y200264D01*
X119022Y200324D01*
X119318Y200324D01*
X119488Y200358D01*
X123574Y200358D01*
X123838Y200311D01*
X124096Y200152D01*
X124271Y199905D01*
X124336Y199608D01*
X124281Y199310D01*
X124113Y199057D01*
X124099Y199044D01*
X124099Y197992D01*
X126320Y195771D01*
X126478Y195541D01*
X126543Y195244D01*
X126487Y194946D01*
X126320Y194693D01*
X118882Y187255D01*
X118640Y187092D01*
G37*
G36*
X-199449Y178692D02*
X-199744Y178622D01*
X-200043Y178673D01*
X-200298Y178836D01*
X-200470Y179086D01*
X-200530Y179383D01*
X-200530Y181685D01*
X-201481Y183980D01*
X-201539Y184260D01*
X-201483Y184558D01*
X-201316Y184811D01*
X-193334Y192793D01*
X-193092Y192956D01*
X-192795Y193016D01*
X-186897Y193016D01*
X-186634Y192969D01*
X-186376Y192810D01*
X-186201Y192562D01*
X-186135Y192266D01*
X-186191Y191968D01*
X-186359Y191715D01*
X-199229Y178845D01*
X-199449Y178692D01*
G37*
G36*
X-216919Y143544D02*
X-217214Y143474D01*
X-217513Y143525D01*
X-217768Y143689D01*
X-217940Y143939D01*
X-218000Y144236D01*
X-218000Y155764D01*
X-217955Y156022D01*
X-217798Y156281D01*
X-217552Y156458D01*
X-217256Y156526D01*
X-216958Y156473D01*
X-216704Y156307D01*
X-216534Y156056D01*
X-216181Y155202D01*
X-213798Y152820D01*
X-210685Y151530D01*
X-207315Y151530D01*
X-204202Y152820D01*
X-201820Y155202D01*
X-200530Y158315D01*
X-200530Y161685D01*
X-201820Y164798D01*
X-204135Y167114D01*
X-204293Y167344D01*
X-204358Y167640D01*
X-204303Y167938D01*
X-204135Y168191D01*
X-184882Y187445D01*
X-184640Y187608D01*
X-184343Y187668D01*
X-178251Y187668D01*
X-177988Y187621D01*
X-177730Y187462D01*
X-177555Y187214D01*
X-177489Y186918D01*
X-177545Y186620D01*
X-177713Y186367D01*
X-198332Y165748D01*
X-198332Y153857D01*
X-198388Y153571D01*
X-198555Y153319D01*
X-204189Y147684D01*
X-204425Y147524D01*
X-204722Y147461D01*
X-205020Y147519D01*
X-207315Y148470D01*
X-210685Y148470D01*
X-213798Y147181D01*
X-216181Y144798D01*
X-216534Y143944D01*
X-216674Y143724D01*
X-216919Y143544D01*
G37*
G36*
X-199449Y139435D02*
X-199744Y139366D01*
X-200043Y139416D01*
X-200298Y139580D01*
X-200470Y139830D01*
X-200530Y140127D01*
X-200530Y141685D01*
X-201481Y143980D01*
X-201539Y144260D01*
X-201483Y144558D01*
X-201316Y144811D01*
X-194268Y151858D01*
X-194268Y163749D01*
X-194212Y164035D01*
X-194045Y164288D01*
X-173682Y184651D01*
X-173440Y184814D01*
X-173143Y184874D01*
X-165602Y184874D01*
X-165338Y184827D01*
X-165080Y184668D01*
X-164905Y184420D01*
X-164840Y184124D01*
X-164895Y183826D01*
X-165063Y183573D01*
X-192694Y155942D01*
X-192694Y146439D01*
X-192750Y146153D01*
X-192917Y145900D01*
X-199229Y139588D01*
X-199449Y139435D01*
G37*
G36*
X-205887Y89105D02*
X-206182Y89035D01*
X-206481Y89086D01*
X-206736Y89249D01*
X-206908Y89499D01*
X-206968Y89797D01*
X-206968Y111165D01*
X-206915Y111445D01*
X-206749Y111699D01*
X-206498Y111869D01*
X-204202Y112820D01*
X-201820Y115202D01*
X-200530Y118315D01*
X-200530Y121685D01*
X-201820Y124798D01*
X-204202Y127181D01*
X-204342Y127238D01*
X-204572Y127387D01*
X-204747Y127634D01*
X-204812Y127930D01*
X-204757Y128228D01*
X-204589Y128481D01*
X-188630Y144440D01*
X-188630Y153943D01*
X-188574Y154229D01*
X-188407Y154482D01*
X-161032Y181857D01*
X-160790Y182020D01*
X-160493Y182080D01*
X-147044Y182080D01*
X-146769Y182029D01*
X-146514Y181865D01*
X-146342Y181615D01*
X-146282Y181318D01*
X-146282Y177933D01*
X-144067Y175718D01*
X-140933Y175718D01*
X-139407Y177245D01*
X-139165Y177408D01*
X-138868Y177468D01*
X10752Y177468D01*
X11027Y177417D01*
X11282Y177253D01*
X11454Y177003D01*
X11514Y176706D01*
X11514Y175085D01*
X17616Y175085D01*
X17616Y173561D01*
X11514Y173561D01*
X11514Y170252D01*
X11463Y169977D01*
X11299Y169722D01*
X11049Y169550D01*
X10752Y169490D01*
X-4256Y169490D01*
X-4531Y169541D01*
X-4786Y169705D01*
X-4958Y169955D01*
X-5018Y170252D01*
X-5018Y173569D01*
X-7233Y175784D01*
X-10367Y175784D01*
X-12582Y173569D01*
X-12582Y173046D01*
X-12633Y172771D01*
X-12797Y172516D01*
X-13047Y172344D01*
X-13344Y172284D01*
X-118690Y172284D01*
X-146724Y144250D01*
X-146938Y144099D01*
X-147232Y144027D01*
X-147532Y144076D01*
X-147789Y144237D01*
X-147962Y144486D01*
X-148025Y144782D01*
X-147967Y145080D01*
X-147000Y147414D01*
X-147000Y152586D01*
X-148979Y157364D01*
X-152636Y161021D01*
X-157414Y163000D01*
X-162586Y163000D01*
X-167364Y161021D01*
X-171021Y157364D01*
X-173000Y152586D01*
X-173000Y147414D01*
X-171021Y142636D01*
X-167364Y138979D01*
X-162586Y137000D01*
X-157414Y137000D01*
X-155080Y137967D01*
X-154825Y138024D01*
X-154525Y137978D01*
X-154267Y137819D01*
X-154092Y137571D01*
X-154027Y137275D01*
X-154082Y136977D01*
X-154250Y136724D01*
X-168617Y122357D01*
X-168837Y122204D01*
X-169132Y122134D01*
X-169431Y122185D01*
X-169686Y122348D01*
X-169858Y122598D01*
X-169918Y122895D01*
X-169918Y123167D01*
X-172133Y125382D01*
X-175267Y125382D01*
X-177482Y123167D01*
X-177482Y120033D01*
X-176726Y119277D01*
X-176568Y119047D01*
X-176503Y118750D01*
X-176558Y118452D01*
X-176726Y118199D01*
X-205667Y89258D01*
X-205887Y89105D01*
G37*
G36*
X90940Y149586D02*
X90643Y149526D01*
X82669Y149526D01*
X82383Y149582D01*
X82130Y149749D01*
X70771Y161108D01*
X66051Y161108D01*
X65788Y161155D01*
X65530Y161314D01*
X65355Y161562D01*
X65289Y161858D01*
X65345Y162156D01*
X65513Y162409D01*
X72528Y169424D01*
X72528Y169732D01*
X72583Y170018D01*
X72751Y170271D01*
X73503Y171023D01*
X73734Y171181D01*
X74030Y171246D01*
X74328Y171191D01*
X74581Y171023D01*
X75275Y170329D01*
X75499Y170146D01*
X75721Y170028D01*
X75961Y169957D01*
X76211Y169934D01*
X76460Y169961D01*
X76700Y170037D01*
X76922Y170160D01*
X77122Y170326D01*
X78019Y171223D01*
X78250Y171381D01*
X78546Y171446D01*
X78844Y171391D01*
X79097Y171223D01*
X83937Y166383D01*
X85377Y166383D01*
X85547Y166417D01*
X85629Y166417D01*
X85915Y166361D01*
X86168Y166194D01*
X92781Y159582D01*
X92944Y159340D01*
X93004Y159043D01*
X93004Y151887D01*
X92948Y151601D01*
X92781Y151348D01*
X91182Y149749D01*
X90940Y149586D01*
G37*
G36*
X-165149Y74196D02*
X-165444Y74126D01*
X-165743Y74177D01*
X-165998Y74341D01*
X-166170Y74591D01*
X-166230Y74888D01*
X-166230Y75526D01*
X-166974Y76270D01*
X-206938Y76270D01*
X-207213Y76321D01*
X-207468Y76485D01*
X-207640Y76735D01*
X-207700Y77032D01*
X-207700Y77211D01*
X-207644Y77497D01*
X-207477Y77750D01*
X-117230Y167997D01*
X-116988Y168160D01*
X-116691Y168220D01*
X-91653Y168220D01*
X-91390Y168173D01*
X-91132Y168014D01*
X-90956Y167766D01*
X-90891Y167470D01*
X-90947Y167172D01*
X-91114Y166919D01*
X-145990Y112043D01*
X-145990Y84699D01*
X-146046Y84413D01*
X-146213Y84161D01*
X-152689Y77684D01*
X-152925Y77524D01*
X-153222Y77461D01*
X-153520Y77519D01*
X-155815Y78470D01*
X-159185Y78470D01*
X-162298Y77181D01*
X-164681Y74798D01*
X-164764Y74596D01*
X-164904Y74375D01*
X-165149Y74196D01*
G37*
G36*
X98214Y126451D02*
X97918Y126386D01*
X97620Y126442D01*
X97367Y126609D01*
X82609Y141367D01*
X82456Y141587D01*
X82386Y141882D01*
X82437Y142181D01*
X82601Y142436D01*
X82851Y142608D01*
X83148Y142668D01*
X94042Y142668D01*
X97367Y145994D01*
X97587Y146147D01*
X97882Y146216D01*
X98181Y146165D01*
X98436Y146002D01*
X98608Y145752D01*
X98668Y145455D01*
X98668Y127148D01*
X98621Y126885D01*
X98462Y126627D01*
X98214Y126451D01*
G37*
G36*
X52138Y97732D02*
X51840Y97671D01*
X50058Y97671D01*
X49772Y97727D01*
X49519Y97895D01*
X21762Y125652D01*
X21602Y125888D01*
X21539Y126184D01*
X21597Y126482D01*
X22970Y129797D01*
X22970Y133883D01*
X21406Y137658D01*
X18518Y140546D01*
X14743Y142110D01*
X10657Y142110D01*
X7342Y140737D01*
X7063Y140679D01*
X6765Y140735D01*
X6512Y140902D01*
X2847Y144567D01*
X2694Y144787D01*
X2624Y145082D01*
X2675Y145381D01*
X2838Y145636D01*
X3088Y145808D01*
X3385Y145868D01*
X64143Y145868D01*
X64429Y145812D01*
X64682Y145645D01*
X67398Y142928D01*
X67548Y142715D01*
X67621Y142420D01*
X67572Y142121D01*
X67411Y141864D01*
X67162Y141690D01*
X66865Y141628D01*
X66568Y141686D01*
X65543Y142110D01*
X61457Y142110D01*
X57683Y140546D01*
X54794Y137658D01*
X53230Y133883D01*
X53230Y129797D01*
X54794Y126023D01*
X57683Y123134D01*
X61457Y121570D01*
X65543Y121570D01*
X69318Y123134D01*
X72206Y126023D01*
X73770Y129797D01*
X73770Y133883D01*
X73346Y134908D01*
X73288Y135163D01*
X73335Y135462D01*
X73494Y135721D01*
X73741Y135896D01*
X74037Y135961D01*
X74336Y135905D01*
X74588Y135738D01*
X96678Y113648D01*
X96831Y113429D01*
X96901Y113134D01*
X96850Y112835D01*
X96687Y112579D01*
X96437Y112408D01*
X96139Y112347D01*
X85488Y112347D01*
X85202Y112403D01*
X84949Y112571D01*
X83867Y113653D01*
X80733Y113653D01*
X78518Y111438D01*
X78518Y108305D01*
X80733Y106089D01*
X83867Y106089D01*
X85837Y108060D01*
X86079Y108223D01*
X86376Y108283D01*
X91007Y108283D01*
X91282Y108232D01*
X91537Y108069D01*
X91709Y107819D01*
X91769Y107521D01*
X91769Y104021D01*
X91718Y103747D01*
X91554Y103491D01*
X91304Y103320D01*
X91007Y103259D01*
X69870Y103259D01*
X69584Y103315D01*
X69331Y103483D01*
X47162Y125652D01*
X47002Y125888D01*
X46939Y126184D01*
X46997Y126482D01*
X48370Y129797D01*
X48370Y133883D01*
X46806Y137658D01*
X43918Y140546D01*
X40143Y142110D01*
X36057Y142110D01*
X32283Y140546D01*
X29394Y137658D01*
X27830Y133883D01*
X27830Y129797D01*
X29394Y126023D01*
X32283Y123134D01*
X36057Y121570D01*
X40143Y121570D01*
X43458Y122943D01*
X43737Y123001D01*
X44036Y122945D01*
X44288Y122778D01*
X65300Y101766D01*
X65453Y101547D01*
X65523Y101252D01*
X65472Y100953D01*
X65309Y100697D01*
X65059Y100526D01*
X64761Y100465D01*
X60244Y100465D01*
X59969Y100517D01*
X59714Y100680D01*
X59542Y100930D01*
X59482Y101227D01*
X59482Y102567D01*
X57267Y104782D01*
X54133Y104782D01*
X51918Y102567D01*
X51918Y99433D01*
X52379Y98972D01*
X52532Y98753D01*
X52602Y98458D01*
X52551Y98159D01*
X52388Y97903D01*
X52138Y97732D01*
G37*
G36*
X45247Y94938D02*
X44949Y94877D01*
X27452Y94877D01*
X27166Y94933D01*
X26913Y95101D01*
X-3638Y125652D01*
X-3798Y125888D01*
X-3861Y126184D01*
X-3803Y126482D01*
X-2430Y129797D01*
X-2430Y133883D01*
X-3994Y137658D01*
X-6883Y140546D01*
X-9445Y141608D01*
X-9666Y141748D01*
X-9845Y141993D01*
X-9915Y142288D01*
X-9864Y142587D01*
X-9701Y142842D01*
X-9451Y143014D01*
X-9154Y143074D01*
X-1723Y143074D01*
X-1437Y143018D01*
X-1185Y142851D01*
X3638Y138028D01*
X3798Y137792D01*
X3861Y137496D01*
X3803Y137198D01*
X2430Y133883D01*
X2430Y129797D01*
X3994Y126023D01*
X6883Y123134D01*
X10657Y121570D01*
X14743Y121570D01*
X18058Y122943D01*
X18337Y123001D01*
X18636Y122945D01*
X18888Y122778D01*
X45488Y96178D01*
X45641Y95959D01*
X45711Y95664D01*
X45660Y95365D01*
X45497Y95109D01*
X45247Y94938D01*
G37*
G36*
X22641Y92144D02*
X22343Y92083D01*
X4846Y92083D01*
X4560Y92139D01*
X4307Y92307D01*
X-29038Y125652D01*
X-29198Y125888D01*
X-29261Y126184D01*
X-29203Y126482D01*
X-27830Y129797D01*
X-27830Y133883D01*
X-29394Y137658D01*
X-32283Y140546D01*
X-34845Y141608D01*
X-35066Y141748D01*
X-35245Y141993D01*
X-35315Y142288D01*
X-35264Y142587D01*
X-35101Y142842D01*
X-34851Y143014D01*
X-34554Y143074D01*
X-16246Y143074D01*
X-15989Y143029D01*
X-15729Y142872D01*
X-15552Y142626D01*
X-15485Y142330D01*
X-15538Y142032D01*
X-15703Y141778D01*
X-15955Y141608D01*
X-18518Y140546D01*
X-21406Y137658D01*
X-22970Y133883D01*
X-22970Y129797D01*
X-21406Y126023D01*
X-18518Y123134D01*
X-14743Y121570D01*
X-10657Y121570D01*
X-7342Y122943D01*
X-7063Y123001D01*
X-6765Y122945D01*
X-6512Y122778D01*
X22882Y93384D01*
X23035Y93165D01*
X23105Y92870D01*
X23054Y92571D01*
X22891Y92315D01*
X22641Y92144D01*
G37*
G36*
X-55800Y117092D02*
X-56097Y117032D01*
X-100761Y117032D01*
X-101024Y117079D01*
X-101282Y117238D01*
X-101458Y117486D01*
X-101523Y117782D01*
X-101467Y118080D01*
X-101300Y118333D01*
X-76782Y142851D01*
X-76540Y143014D01*
X-76243Y143074D01*
X-75698Y143074D01*
X-75434Y143027D01*
X-75176Y142868D01*
X-75001Y142620D01*
X-74936Y142324D01*
X-74991Y142026D01*
X-75040Y141953D01*
X-75040Y132602D01*
X-51960Y132602D01*
X-51960Y141944D01*
X-51994Y141993D01*
X-52064Y142288D01*
X-52013Y142587D01*
X-51850Y142842D01*
X-51600Y143014D01*
X-51302Y143074D01*
X-41646Y143074D01*
X-41389Y143029D01*
X-41129Y142872D01*
X-40952Y142626D01*
X-40885Y142330D01*
X-40938Y142032D01*
X-41103Y141778D01*
X-41355Y141608D01*
X-43918Y140546D01*
X-46806Y137658D01*
X-48370Y133883D01*
X-48370Y129797D01*
X-46997Y126482D01*
X-46939Y126203D01*
X-46995Y125905D01*
X-47162Y125652D01*
X-50659Y122155D01*
X-50879Y122002D01*
X-51174Y121932D01*
X-51473Y121983D01*
X-51728Y122146D01*
X-51900Y122396D01*
X-51960Y122693D01*
X-51960Y131078D01*
X-62738Y131078D01*
X-62738Y120300D01*
X-54353Y120300D01*
X-54090Y120253D01*
X-53832Y120094D01*
X-53657Y119846D01*
X-53591Y119550D01*
X-53647Y119252D01*
X-53815Y118999D01*
X-55559Y117255D01*
X-55800Y117092D01*
G37*
%LPC*%
G36*
X-73552Y120300D02*
X-64262Y120300D01*
X-64262Y131078D01*
X-75040Y131078D01*
X-75040Y121788D01*
X-73552Y120300D01*
G37*
%LPD*%
G36*
X-187235Y-187440D02*
X-187532Y-187500D01*
X-193468Y-187500D01*
X-193743Y-187449D01*
X-193998Y-187285D01*
X-194170Y-187035D01*
X-194230Y-186738D01*
X-194230Y-146974D01*
X-194974Y-146230D01*
X-195612Y-146230D01*
X-195870Y-146185D01*
X-196129Y-146028D01*
X-196306Y-145782D01*
X-196374Y-145486D01*
X-196321Y-145188D01*
X-196155Y-144934D01*
X-195904Y-144764D01*
X-195702Y-144681D01*
X-193320Y-142298D01*
X-192030Y-139185D01*
X-192030Y-135815D01*
X-193320Y-132702D01*
X-195702Y-130320D01*
X-198815Y-129030D01*
X-202185Y-129030D01*
X-205298Y-130320D01*
X-206399Y-131421D01*
X-206619Y-131574D01*
X-206914Y-131644D01*
X-207213Y-131593D01*
X-207468Y-131429D01*
X-207640Y-131179D01*
X-207700Y-130882D01*
X-207700Y-77032D01*
X-207649Y-76757D01*
X-207485Y-76502D01*
X-207235Y-76330D01*
X-206938Y-76270D01*
X-166732Y-76270D01*
X-166457Y-76321D01*
X-166202Y-76485D01*
X-166030Y-76735D01*
X-165970Y-77032D01*
X-165970Y-77726D01*
X-165226Y-78470D01*
X-149774Y-78470D01*
X-149030Y-77726D01*
X-149030Y-72794D01*
X-148979Y-72519D01*
X-148815Y-72264D01*
X-148565Y-72092D01*
X-148268Y-72032D01*
X-146558Y-72032D01*
X-122068Y-47542D01*
X-122068Y-15920D01*
X-122021Y-15657D01*
X-121862Y-15399D01*
X-121614Y-15223D01*
X-121318Y-15158D01*
X-121020Y-15214D01*
X-120767Y-15381D01*
X-119867Y-16282D01*
X-117707Y-16282D01*
X-117421Y-16338D01*
X-117169Y-16505D01*
X-114850Y-18824D01*
X-114692Y-19054D01*
X-114627Y-19350D01*
X-114682Y-19649D01*
X-114850Y-19901D01*
X-117195Y-22247D01*
X-117195Y-25380D01*
X-114980Y-27595D01*
X-112820Y-27595D01*
X-112534Y-27651D01*
X-112282Y-27818D01*
X-78968Y-61132D01*
X-61578Y-61132D01*
X-61297Y-61185D01*
X-61043Y-61351D01*
X-60874Y-61602D01*
X-60087Y-63501D01*
X-57901Y-65687D01*
X-55046Y-66870D01*
X-51954Y-66870D01*
X-49099Y-65687D01*
X-46913Y-63501D01*
X-46551Y-62628D01*
X-46411Y-62407D01*
X-46166Y-62227D01*
X-45871Y-62158D01*
X-45572Y-62208D01*
X-45317Y-62372D01*
X-45145Y-62622D01*
X-45085Y-62919D01*
X-45085Y-73081D01*
X-45130Y-73338D01*
X-45287Y-73598D01*
X-45533Y-73775D01*
X-45829Y-73843D01*
X-46127Y-73789D01*
X-46382Y-73624D01*
X-46551Y-73372D01*
X-46913Y-72499D01*
X-49099Y-70313D01*
X-51954Y-69130D01*
X-55046Y-69130D01*
X-57901Y-70313D01*
X-60087Y-72499D01*
X-61270Y-75354D01*
X-61270Y-78446D01*
X-60087Y-81301D01*
X-57901Y-83487D01*
X-55046Y-84670D01*
X-51954Y-84670D01*
X-49099Y-83487D01*
X-46913Y-81301D01*
X-46551Y-80428D01*
X-46411Y-80207D01*
X-46166Y-80027D01*
X-45871Y-79958D01*
X-45572Y-80008D01*
X-45317Y-80172D01*
X-45145Y-80422D01*
X-45085Y-80719D01*
X-45085Y-90098D01*
X-45076Y-90153D01*
X-45073Y-90154D01*
X-45033Y-90160D01*
X45023Y-90160D01*
X45078Y-90151D01*
X45079Y-90148D01*
X45085Y-90108D01*
X45085Y-74209D01*
X45132Y-73946D01*
X45291Y-73688D01*
X45539Y-73512D01*
X45835Y-73447D01*
X46133Y-73503D01*
X46386Y-73670D01*
X48379Y-75664D01*
X51702Y-77040D01*
X52738Y-77040D01*
X52738Y-67238D01*
X62540Y-67238D01*
X62540Y-66202D01*
X61164Y-62879D01*
X58621Y-60336D01*
X55676Y-59117D01*
X55451Y-58973D01*
X55274Y-58727D01*
X55206Y-58431D01*
X55259Y-58132D01*
X55425Y-57878D01*
X55676Y-57709D01*
X57901Y-56787D01*
X60087Y-54601D01*
X61270Y-51746D01*
X61270Y-48654D01*
X60087Y-45799D01*
X57901Y-43613D01*
X55046Y-42430D01*
X51954Y-42430D01*
X49099Y-43613D01*
X46913Y-45799D01*
X46551Y-46672D01*
X46411Y-46893D01*
X46166Y-47073D01*
X45871Y-47142D01*
X45572Y-47092D01*
X45317Y-46928D01*
X45145Y-46678D01*
X45085Y-46381D01*
X45085Y-36219D01*
X45130Y-35962D01*
X45287Y-35702D01*
X45533Y-35525D01*
X45829Y-35457D01*
X46127Y-35511D01*
X46382Y-35676D01*
X46551Y-35928D01*
X46913Y-36801D01*
X49099Y-38987D01*
X51954Y-40170D01*
X55046Y-40170D01*
X57901Y-38987D01*
X60087Y-36801D01*
X61270Y-33946D01*
X61270Y-30854D01*
X60087Y-27999D01*
X57901Y-25813D01*
X55046Y-24630D01*
X51954Y-24630D01*
X49099Y-25813D01*
X46913Y-27999D01*
X46551Y-28872D01*
X46411Y-29093D01*
X46166Y-29273D01*
X45871Y-29342D01*
X45572Y-29292D01*
X45317Y-29128D01*
X45145Y-28878D01*
X45085Y-28581D01*
X45085Y-18419D01*
X45130Y-18162D01*
X45287Y-17902D01*
X45533Y-17725D01*
X45829Y-17657D01*
X46127Y-17711D01*
X46382Y-17876D01*
X46551Y-18128D01*
X46913Y-19001D01*
X49099Y-21187D01*
X51954Y-22370D01*
X55046Y-22370D01*
X57901Y-21187D01*
X60087Y-19001D01*
X61270Y-16146D01*
X61270Y-13054D01*
X60087Y-10199D01*
X57901Y-8013D01*
X55046Y-6830D01*
X51954Y-6830D01*
X49099Y-8013D01*
X46913Y-10199D01*
X46551Y-11072D01*
X46411Y-11293D01*
X46166Y-11473D01*
X45871Y-11542D01*
X45572Y-11492D01*
X45317Y-11328D01*
X45145Y-11078D01*
X45085Y-10781D01*
X45085Y-619D01*
X45130Y-362D01*
X45287Y-102D01*
X45533Y75D01*
X45829Y143D01*
X46127Y89D01*
X46382Y-76D01*
X46551Y-328D01*
X46913Y-1201D01*
X49099Y-3387D01*
X51954Y-4570D01*
X55046Y-4570D01*
X57901Y-3387D01*
X60087Y-1201D01*
X61270Y1654D01*
X61270Y4746D01*
X60087Y7601D01*
X57901Y9787D01*
X55046Y10970D01*
X51954Y10970D01*
X49099Y9787D01*
X46913Y7601D01*
X46551Y6728D01*
X46411Y6507D01*
X46166Y6327D01*
X45871Y6258D01*
X45572Y6308D01*
X45317Y6472D01*
X45145Y6722D01*
X45085Y7019D01*
X45085Y17181D01*
X45130Y17438D01*
X45287Y17698D01*
X45533Y17875D01*
X45829Y17943D01*
X46127Y17889D01*
X46382Y17724D01*
X46551Y17472D01*
X46913Y16599D01*
X49099Y14413D01*
X51954Y13230D01*
X55046Y13230D01*
X57901Y14413D01*
X60087Y16599D01*
X60874Y18498D01*
X61030Y18736D01*
X61280Y18908D01*
X61578Y18968D01*
X70723Y18968D01*
X70997Y18917D01*
X71253Y18753D01*
X71424Y18503D01*
X71485Y18206D01*
X71485Y17728D01*
X72228Y16984D01*
X73006Y16984D01*
X73281Y16933D01*
X73536Y16769D01*
X73708Y16519D01*
X73768Y16222D01*
X73768Y14478D01*
X73717Y14203D01*
X73553Y13948D01*
X73303Y13776D01*
X73006Y13716D01*
X72128Y13716D01*
X71385Y12972D01*
X71385Y6320D01*
X71468Y6237D01*
X71626Y6006D01*
X71691Y5710D01*
X71635Y5412D01*
X71468Y5159D01*
X70115Y3806D01*
X70115Y716D01*
X81486Y716D01*
X81486Y3806D01*
X80132Y5159D01*
X79974Y5390D01*
X79909Y5686D01*
X79965Y5984D01*
X80132Y6237D01*
X80216Y6320D01*
X80216Y12972D01*
X79472Y13716D01*
X78594Y13716D01*
X78319Y13767D01*
X78064Y13931D01*
X77892Y14181D01*
X77832Y14478D01*
X77832Y16222D01*
X77883Y16497D01*
X78047Y16752D01*
X78297Y16924D01*
X78594Y16984D01*
X79572Y16984D01*
X80316Y17728D01*
X80316Y24380D01*
X80232Y24463D01*
X80074Y24694D01*
X80009Y24990D01*
X80065Y25288D01*
X80232Y25541D01*
X81586Y26894D01*
X81586Y29984D01*
X70215Y29984D01*
X70215Y26894D01*
X71568Y25541D01*
X71726Y25310D01*
X71791Y25014D01*
X71735Y24716D01*
X71568Y24463D01*
X71485Y24380D01*
X71485Y23794D01*
X71433Y23519D01*
X71270Y23264D01*
X71020Y23092D01*
X70723Y23032D01*
X61578Y23032D01*
X61297Y23085D01*
X61043Y23251D01*
X60874Y23502D01*
X60087Y25401D01*
X57901Y27587D01*
X55046Y28770D01*
X51954Y28770D01*
X49099Y27587D01*
X46913Y25401D01*
X46551Y24528D01*
X46411Y24307D01*
X46166Y24127D01*
X45871Y24058D01*
X45572Y24108D01*
X45317Y24272D01*
X45145Y24522D01*
X45085Y24819D01*
X45085Y34981D01*
X45130Y35238D01*
X45287Y35498D01*
X45533Y35675D01*
X45829Y35743D01*
X46127Y35689D01*
X46382Y35524D01*
X46551Y35272D01*
X46913Y34399D01*
X49099Y32213D01*
X51954Y31030D01*
X55046Y31030D01*
X57901Y32213D01*
X60087Y34399D01*
X61270Y37254D01*
X61270Y40346D01*
X60087Y43201D01*
X57901Y45387D01*
X55046Y46570D01*
X51954Y46570D01*
X49099Y45387D01*
X46913Y43201D01*
X46551Y42328D01*
X46411Y42107D01*
X46166Y41927D01*
X45871Y41858D01*
X45572Y41908D01*
X45317Y42072D01*
X45145Y42322D01*
X45085Y42619D01*
X45085Y52781D01*
X45130Y53038D01*
X45287Y53298D01*
X45533Y53475D01*
X45829Y53543D01*
X46127Y53489D01*
X46382Y53324D01*
X46551Y53072D01*
X46913Y52199D01*
X49099Y50013D01*
X51954Y48830D01*
X55046Y48830D01*
X57901Y50013D01*
X60087Y52199D01*
X61270Y55054D01*
X61270Y58146D01*
X60087Y61001D01*
X57901Y63187D01*
X55046Y64370D01*
X51954Y64370D01*
X49099Y63187D01*
X46913Y61001D01*
X46551Y60128D01*
X46411Y59907D01*
X46166Y59727D01*
X45871Y59658D01*
X45572Y59708D01*
X45317Y59872D01*
X45145Y60122D01*
X45085Y60419D01*
X45085Y82406D01*
X45136Y82681D01*
X45300Y82936D01*
X45550Y83108D01*
X45847Y83168D01*
X57643Y83168D01*
X57929Y83112D01*
X58182Y82945D01*
X61845Y79282D01*
X62008Y79040D01*
X62068Y78743D01*
X62068Y76283D01*
X64283Y74068D01*
X67417Y74068D01*
X69632Y76283D01*
X69632Y79417D01*
X67417Y81632D01*
X65557Y81632D01*
X65271Y81688D01*
X65019Y81855D01*
X60155Y86719D01*
X60002Y86938D01*
X59932Y87233D01*
X59983Y87532D01*
X60147Y87788D01*
X60397Y87959D01*
X60694Y88019D01*
X152012Y88019D01*
X152287Y87968D01*
X152542Y87805D01*
X152714Y87555D01*
X152774Y87257D01*
X152774Y53123D01*
X188918Y16979D01*
X189074Y16754D01*
X189141Y16459D01*
X189088Y16160D01*
X188922Y15906D01*
X188671Y15736D01*
X188531Y15679D01*
X186149Y13296D01*
X184859Y10183D01*
X184859Y6813D01*
X186149Y3700D01*
X188531Y1318D01*
X191644Y28D01*
X195014Y28D01*
X198127Y1318D01*
X200510Y3700D01*
X201799Y6813D01*
X201799Y10183D01*
X200510Y13296D01*
X198127Y15679D01*
X195014Y16968D01*
X194992Y16968D01*
X194706Y17024D01*
X194453Y17191D01*
X192917Y18727D01*
X192764Y18947D01*
X192695Y19242D01*
X192745Y19541D01*
X192909Y19796D01*
X193159Y19968D01*
X193456Y20028D01*
X195014Y20028D01*
X198127Y21318D01*
X200510Y23700D01*
X201799Y26813D01*
X201799Y30183D01*
X200510Y33296D01*
X198127Y35679D01*
X195014Y36968D01*
X191644Y36968D01*
X189349Y36017D01*
X189069Y35959D01*
X188771Y36015D01*
X188518Y36182D01*
X159855Y64846D01*
X159692Y65087D01*
X159632Y65384D01*
X159632Y84543D01*
X159688Y84829D01*
X159855Y85082D01*
X200029Y125256D01*
X200249Y125409D01*
X200544Y125478D01*
X200843Y125427D01*
X201098Y125264D01*
X201270Y125014D01*
X201330Y124717D01*
X201330Y100025D01*
X201274Y99739D01*
X201107Y99486D01*
X198812Y97191D01*
X198570Y97028D01*
X198273Y96968D01*
X185603Y96968D01*
X184859Y96224D01*
X184859Y80772D01*
X185603Y80028D01*
X201055Y80028D01*
X201799Y80772D01*
X201799Y93442D01*
X201855Y93728D01*
X202022Y93981D01*
X203429Y95388D01*
X203649Y95541D01*
X203944Y95611D01*
X204243Y95560D01*
X204498Y95396D01*
X204670Y95146D01*
X204730Y94849D01*
X204730Y-24944D01*
X204674Y-25230D01*
X204507Y-25483D01*
X199383Y-30607D01*
X199141Y-30770D01*
X198844Y-30830D01*
X182956Y-30830D01*
X182670Y-30774D01*
X182417Y-30607D01*
X153765Y-1955D01*
X146352Y-1955D01*
X146077Y-1904D01*
X145822Y-1740D01*
X145650Y-1490D01*
X145590Y-1193D01*
X145590Y-1023D01*
X144846Y-280D01*
X137354Y-280D01*
X136610Y-1023D01*
X136610Y-7427D01*
X137354Y-8171D01*
X141520Y-8171D01*
X141806Y-8226D01*
X142058Y-8394D01*
X142793Y-9129D01*
X142946Y-9348D01*
X143016Y-9643D01*
X142965Y-9942D01*
X142802Y-10198D01*
X142552Y-10369D01*
X142255Y-10430D01*
X137354Y-10430D01*
X136610Y-11173D01*
X136610Y-11581D01*
X136559Y-11856D01*
X136395Y-12111D01*
X136145Y-12283D01*
X135848Y-12343D01*
X130532Y-12343D01*
X130246Y-12287D01*
X129994Y-12120D01*
X123293Y-5420D01*
X123130Y-5178D01*
X123070Y-4881D01*
X123070Y2437D01*
X121887Y3620D01*
X115713Y3620D01*
X114504Y2410D01*
X114483Y2295D01*
X114324Y2037D01*
X114076Y1861D01*
X113780Y1796D01*
X113482Y1852D01*
X113229Y2019D01*
X112063Y3185D01*
X111900Y3427D01*
X111840Y3724D01*
X111840Y9218D01*
X111891Y9493D01*
X112055Y9748D01*
X112305Y9920D01*
X112332Y9925D01*
X113570Y11163D01*
X113570Y18481D01*
X113626Y18767D01*
X113793Y19020D01*
X115757Y20983D01*
X115757Y28248D01*
X115808Y28523D01*
X115972Y28778D01*
X116222Y28950D01*
X116519Y29010D01*
X116927Y29010D01*
X117671Y29754D01*
X117671Y37246D01*
X116927Y37990D01*
X112602Y37990D01*
X112327Y38041D01*
X112072Y38205D01*
X111900Y38455D01*
X111840Y38752D01*
X111840Y71032D01*
X111896Y71318D01*
X112063Y71571D01*
X115387Y74895D01*
X115629Y75058D01*
X115926Y75118D01*
X117367Y75118D01*
X119582Y77333D01*
X119582Y80467D01*
X117367Y82682D01*
X114233Y82682D01*
X112018Y80467D01*
X112018Y79026D01*
X111962Y78740D01*
X111795Y78487D01*
X107033Y73725D01*
X106813Y73572D01*
X106518Y73502D01*
X106219Y73553D01*
X105964Y73716D01*
X105792Y73967D01*
X105732Y74264D01*
X105732Y77168D01*
X105788Y77454D01*
X105955Y77707D01*
X107482Y79233D01*
X107482Y82367D01*
X105267Y84582D01*
X102133Y84582D01*
X99918Y82367D01*
X99918Y79233D01*
X101445Y77707D01*
X101608Y77465D01*
X101668Y77168D01*
X101668Y-39285D01*
X101612Y-39571D01*
X101445Y-39823D01*
X99296Y-41972D01*
X99077Y-42125D01*
X98782Y-42195D01*
X98483Y-42144D01*
X98227Y-41981D01*
X98056Y-41730D01*
X97995Y-41433D01*
X97995Y68818D01*
X98051Y69104D01*
X98219Y69357D01*
X99138Y70276D01*
X99138Y73409D01*
X96923Y75625D01*
X93789Y75625D01*
X91574Y73409D01*
X91574Y70276D01*
X93708Y68142D01*
X93871Y67901D01*
X93931Y67603D01*
X93931Y-49528D01*
X93876Y-49814D01*
X93708Y-50067D01*
X36750Y-107025D01*
X36509Y-107188D01*
X36211Y-107248D01*
X-153122Y-107248D01*
X-175689Y-129816D01*
X-175925Y-129976D01*
X-176222Y-130039D01*
X-176520Y-129981D01*
X-178815Y-129030D01*
X-182185Y-129030D01*
X-185298Y-130320D01*
X-187681Y-132702D01*
X-188970Y-135815D01*
X-188970Y-139185D01*
X-187681Y-142298D01*
X-185298Y-144681D01*
X-185096Y-144764D01*
X-184875Y-144904D01*
X-184696Y-145149D01*
X-184626Y-145444D01*
X-184677Y-145743D01*
X-184841Y-145998D01*
X-185091Y-146170D01*
X-185388Y-146230D01*
X-186026Y-146230D01*
X-186770Y-146974D01*
X-186770Y-186738D01*
X-186821Y-187013D01*
X-186985Y-187268D01*
X-187235Y-187440D01*
G37*
%LPC*%
G36*
X191644Y60028D02*
X195014Y60028D01*
X198127Y61318D01*
X200510Y63700D01*
X201799Y66813D01*
X201799Y70183D01*
X200510Y73296D01*
X198127Y75679D01*
X195014Y76968D01*
X191644Y76968D01*
X188531Y75679D01*
X186149Y73296D01*
X184859Y70183D01*
X184859Y66813D01*
X186149Y63700D01*
X188531Y61318D01*
X191644Y60028D01*
G37*
G36*
X191644Y40028D02*
X195014Y40028D01*
X198127Y41318D01*
X200510Y43700D01*
X201799Y46813D01*
X201799Y50183D01*
X200510Y53296D01*
X198127Y55679D01*
X195014Y56968D01*
X191644Y56968D01*
X188531Y55679D01*
X186149Y53296D01*
X184859Y50183D01*
X184859Y46813D01*
X186149Y43700D01*
X188531Y41318D01*
X191644Y40028D01*
G37*
G36*
X125213Y9980D02*
X131387Y9980D01*
X132570Y11163D01*
X132570Y23637D01*
X131387Y24820D01*
X126669Y24820D01*
X126394Y24871D01*
X126139Y25035D01*
X125967Y25285D01*
X125907Y25582D01*
X125907Y28248D01*
X125958Y28523D01*
X126122Y28778D01*
X126372Y28950D01*
X126669Y29010D01*
X127077Y29010D01*
X127821Y29754D01*
X127821Y37246D01*
X127077Y37990D01*
X126894Y37990D01*
X126619Y38041D01*
X126364Y38205D01*
X126192Y38455D01*
X126132Y38752D01*
X126132Y44468D01*
X126188Y44754D01*
X126355Y45007D01*
X127882Y46533D01*
X127882Y49667D01*
X125667Y51882D01*
X122533Y51882D01*
X120318Y49667D01*
X120318Y46533D01*
X121845Y45007D01*
X122008Y44765D01*
X122068Y44468D01*
X122068Y38752D01*
X122017Y38477D01*
X121853Y38222D01*
X121603Y38050D01*
X121306Y37990D01*
X120673Y37990D01*
X119930Y37246D01*
X119930Y29754D01*
X120673Y29010D01*
X121081Y29010D01*
X121356Y28959D01*
X121611Y28795D01*
X121783Y28545D01*
X121843Y28248D01*
X121843Y20983D01*
X123807Y19020D01*
X123970Y18778D01*
X124030Y18481D01*
X124030Y11163D01*
X125213Y9980D01*
G37*
G36*
X70215Y31508D02*
X75138Y31508D01*
X75138Y36086D01*
X71702Y36086D01*
X70215Y34598D01*
X70215Y31508D01*
G37*
G36*
X76662Y31508D02*
X81586Y31508D01*
X81586Y34598D01*
X80098Y36086D01*
X76662Y36086D01*
X76662Y31508D01*
G37*
G36*
X71602Y-5386D02*
X75038Y-5386D01*
X75038Y-808D01*
X70115Y-808D01*
X70115Y-3898D01*
X71602Y-5386D01*
G37*
G36*
X76562Y-5386D02*
X79998Y-5386D01*
X81486Y-3898D01*
X81486Y-808D01*
X76562Y-808D01*
X76562Y-5386D01*
G37*
G36*
X194091Y-10740D02*
X203069Y-10740D01*
X203069Y-9565D01*
X201586Y-5985D01*
X198846Y-3245D01*
X195266Y-1762D01*
X194091Y-1762D01*
X194091Y-10740D01*
G37*
G36*
X183589Y-10740D02*
X192567Y-10740D01*
X192567Y-1762D01*
X191392Y-1762D01*
X187812Y-3245D01*
X185072Y-5985D01*
X183589Y-9565D01*
X183589Y-10740D01*
G37*
G36*
X194091Y-21242D02*
X195266Y-21242D01*
X198846Y-19759D01*
X201586Y-17019D01*
X203069Y-13439D01*
X203069Y-12264D01*
X194091Y-12264D01*
X194091Y-21242D01*
G37*
G36*
X191392Y-21242D02*
X192567Y-21242D01*
X192567Y-12264D01*
X183589Y-12264D01*
X183589Y-13439D01*
X185072Y-17019D01*
X187812Y-19759D01*
X191392Y-21242D01*
G37*
G36*
X54262Y-77040D02*
X55298Y-77040D01*
X58621Y-75664D01*
X61164Y-73121D01*
X62540Y-69798D01*
X62540Y-68762D01*
X54262Y-68762D01*
X54262Y-77040D01*
G37*
%LPD*%
G36*
X2092Y87292D02*
X1795Y87232D01*
X-58378Y87232D01*
X-58663Y87288D01*
X-58916Y87455D01*
X-61071Y89610D01*
X-79729Y89610D01*
X-80506Y88833D01*
X-80748Y88670D01*
X-81045Y88610D01*
X-82002Y88610D01*
X-82266Y88656D01*
X-82524Y88816D01*
X-82699Y89063D01*
X-82764Y89359D01*
X-82709Y89657D01*
X-82541Y89910D01*
X-80318Y92133D01*
X-80318Y95267D01*
X-81237Y96185D01*
X-81400Y96427D01*
X-81460Y96724D01*
X-81460Y105876D01*
X-81404Y106162D01*
X-81237Y106415D01*
X-80218Y107433D01*
X-80218Y110567D01*
X-81319Y111667D01*
X-81472Y111887D01*
X-81541Y112182D01*
X-81491Y112481D01*
X-81327Y112736D01*
X-81077Y112908D01*
X-80780Y112968D01*
X-54098Y112968D01*
X-44288Y122778D01*
X-44052Y122938D01*
X-43756Y123001D01*
X-43458Y122943D01*
X-40143Y121570D01*
X-36057Y121570D01*
X-32742Y122943D01*
X-32463Y123001D01*
X-32165Y122945D01*
X-31912Y122778D01*
X2334Y88533D01*
X2487Y88313D01*
X2556Y88018D01*
X2505Y87719D01*
X2342Y87464D01*
X2092Y87292D01*
G37*
G36*
X-61280Y-21408D02*
X-61578Y-21468D01*
X-98349Y-21468D01*
X-98635Y-21412D01*
X-98888Y-21245D01*
X-112650Y-7483D01*
X-112803Y-7263D01*
X-112872Y-6968D01*
X-112821Y-6669D01*
X-112658Y-6414D01*
X-112408Y-6242D01*
X-112210Y-6202D01*
X-109974Y-3967D01*
X-109974Y-833D01*
X-111501Y693D01*
X-111664Y935D01*
X-111724Y1232D01*
X-111724Y103641D01*
X-111668Y103927D01*
X-111501Y104180D01*
X-102936Y112745D01*
X-102695Y112908D01*
X-102397Y112968D01*
X-87220Y112968D01*
X-86957Y112921D01*
X-86699Y112762D01*
X-86523Y112514D01*
X-86458Y112218D01*
X-86514Y111920D01*
X-86681Y111667D01*
X-87782Y110567D01*
X-87782Y107433D01*
X-86763Y106415D01*
X-86600Y106173D01*
X-86540Y105876D01*
X-86540Y96924D01*
X-86596Y96638D01*
X-86763Y96385D01*
X-87882Y95267D01*
X-87882Y92133D01*
X-85659Y89910D01*
X-85506Y89691D01*
X-85436Y89396D01*
X-85487Y89097D01*
X-85650Y88841D01*
X-85900Y88670D01*
X-86198Y88610D01*
X-101442Y88610D01*
X-108432Y81619D01*
X-108432Y41004D01*
X-100339Y32911D01*
X-100176Y32669D01*
X-100116Y32372D01*
X-100116Y27820D01*
X-100032Y27737D01*
X-99874Y27506D01*
X-99809Y27210D01*
X-99865Y26912D01*
X-100032Y26659D01*
X-101386Y25306D01*
X-101386Y22216D01*
X-90015Y22216D01*
X-90015Y25306D01*
X-91368Y26659D01*
X-91526Y26890D01*
X-91591Y27186D01*
X-91535Y27484D01*
X-91368Y27737D01*
X-91285Y27820D01*
X-91285Y28352D01*
X-91233Y28627D01*
X-91070Y28882D01*
X-90820Y29054D01*
X-90523Y29114D01*
X-89778Y29114D01*
X-89492Y29058D01*
X-89240Y28891D01*
X-82313Y21965D01*
X-82150Y21723D01*
X-82090Y21426D01*
X-82090Y16923D01*
X-81346Y16180D01*
X-73854Y16180D01*
X-73110Y16923D01*
X-73110Y23327D01*
X-73854Y24071D01*
X-78356Y24071D01*
X-78642Y24126D01*
X-78895Y24294D01*
X-79630Y25029D01*
X-79783Y25248D01*
X-79853Y25543D01*
X-79802Y25842D01*
X-79639Y26098D01*
X-79388Y26269D01*
X-79091Y26330D01*
X-73854Y26330D01*
X-73110Y27073D01*
X-73110Y27481D01*
X-73059Y27756D01*
X-72895Y28011D01*
X-72645Y28183D01*
X-72348Y28243D01*
X-61733Y28243D01*
X-61453Y28190D01*
X-61199Y28024D01*
X-61029Y27773D01*
X-60087Y25499D01*
X-57901Y23313D01*
X-55046Y22130D01*
X-51954Y22130D01*
X-49099Y23313D01*
X-46913Y25499D01*
X-46551Y26372D01*
X-46411Y26593D01*
X-46166Y26773D01*
X-45871Y26842D01*
X-45572Y26792D01*
X-45317Y26628D01*
X-45145Y26378D01*
X-45085Y26081D01*
X-45085Y15919D01*
X-45130Y15662D01*
X-45287Y15402D01*
X-45533Y15225D01*
X-45829Y15157D01*
X-46127Y15211D01*
X-46382Y15376D01*
X-46551Y15628D01*
X-46913Y16501D01*
X-49099Y18687D01*
X-51954Y19870D01*
X-55046Y19870D01*
X-57901Y18687D01*
X-60087Y16501D01*
X-61270Y13646D01*
X-61270Y10554D01*
X-60087Y7699D01*
X-57901Y5513D01*
X-55046Y4330D01*
X-51954Y4330D01*
X-49099Y5513D01*
X-46913Y7699D01*
X-46551Y8572D01*
X-46411Y8793D01*
X-46166Y8973D01*
X-45871Y9042D01*
X-45572Y8992D01*
X-45317Y8828D01*
X-45145Y8578D01*
X-45085Y8281D01*
X-45085Y-1881D01*
X-45130Y-2138D01*
X-45287Y-2398D01*
X-45533Y-2575D01*
X-45829Y-2643D01*
X-46127Y-2589D01*
X-46382Y-2424D01*
X-46551Y-2172D01*
X-46913Y-1299D01*
X-49099Y887D01*
X-51954Y2070D01*
X-55046Y2070D01*
X-57901Y887D01*
X-60087Y-1299D01*
X-61270Y-4154D01*
X-61270Y-7246D01*
X-60087Y-10101D01*
X-57901Y-12287D01*
X-55046Y-13470D01*
X-51954Y-13470D01*
X-49099Y-12287D01*
X-46913Y-10101D01*
X-46551Y-9228D01*
X-46411Y-9007D01*
X-46166Y-8827D01*
X-45871Y-8758D01*
X-45572Y-8808D01*
X-45317Y-8972D01*
X-45145Y-9222D01*
X-45085Y-9519D01*
X-45085Y-19681D01*
X-45130Y-19938D01*
X-45287Y-20198D01*
X-45533Y-20375D01*
X-45829Y-20443D01*
X-46127Y-20389D01*
X-46382Y-20224D01*
X-46551Y-19972D01*
X-46913Y-19099D01*
X-49099Y-16913D01*
X-51954Y-15730D01*
X-55046Y-15730D01*
X-57901Y-16913D01*
X-60087Y-19099D01*
X-60874Y-20998D01*
X-61030Y-21236D01*
X-61280Y-21408D01*
G37*
%LPC*%
G36*
X-99898Y16114D02*
X-96462Y16114D01*
X-96462Y20692D01*
X-101386Y20692D01*
X-101386Y17602D01*
X-99898Y16114D01*
G37*
G36*
X-94938Y16114D02*
X-91502Y16114D01*
X-90015Y17602D01*
X-90015Y20692D01*
X-94938Y20692D01*
X-94938Y16114D01*
G37*
%LPD*%
G36*
X-82544Y28632D02*
X-82840Y28566D01*
X-83138Y28622D01*
X-83391Y28790D01*
X-87779Y33178D01*
X-90523Y33178D01*
X-90797Y33229D01*
X-91053Y33393D01*
X-91224Y33643D01*
X-91285Y33940D01*
X-91285Y34472D01*
X-92028Y35216D01*
X-92606Y35216D01*
X-92881Y35267D01*
X-93136Y35431D01*
X-93308Y35681D01*
X-93368Y35978D01*
X-93368Y36012D01*
X-93317Y36287D01*
X-93153Y36542D01*
X-92903Y36714D01*
X-92606Y36774D01*
X-92080Y36774D01*
X-91336Y37518D01*
X-91336Y52794D01*
X-92080Y53538D01*
X-98720Y53538D01*
X-99464Y52794D01*
X-99464Y39623D01*
X-99511Y39360D01*
X-99670Y39102D01*
X-99918Y38927D01*
X-100214Y38861D01*
X-100512Y38917D01*
X-100765Y39085D01*
X-104145Y42465D01*
X-104308Y42706D01*
X-104368Y43003D01*
X-104368Y79620D01*
X-104312Y79906D01*
X-104145Y80159D01*
X-99982Y84322D01*
X-99740Y84485D01*
X-99443Y84546D01*
X-86844Y84546D01*
X-86569Y84494D01*
X-86314Y84331D01*
X-86142Y84081D01*
X-86082Y83784D01*
X-86082Y80444D01*
X-85983Y80301D01*
X-85913Y80006D01*
X-85964Y79707D01*
X-86127Y79452D01*
X-86377Y79280D01*
X-86675Y79220D01*
X-90377Y79220D01*
X-92948Y76649D01*
X-93190Y76486D01*
X-93487Y76426D01*
X-98720Y76426D01*
X-99464Y75682D01*
X-99464Y60406D01*
X-98720Y59662D01*
X-92077Y59662D01*
X-91856Y59813D01*
X-91560Y59878D01*
X-91262Y59823D01*
X-91009Y59655D01*
X-89746Y58392D01*
X-86662Y58392D01*
X-86662Y68806D01*
X-85138Y68806D01*
X-85138Y58392D01*
X-82054Y58392D01*
X-80791Y59655D01*
X-80560Y59813D01*
X-80264Y59878D01*
X-79966Y59823D01*
X-79724Y59662D01*
X-73080Y59662D01*
X-72336Y60406D01*
X-72336Y75682D01*
X-72991Y76337D01*
X-73154Y76578D01*
X-73214Y76876D01*
X-73214Y77223D01*
X-73163Y77497D01*
X-72999Y77753D01*
X-72749Y77924D01*
X-72452Y77985D01*
X-71920Y77985D01*
X-71837Y78068D01*
X-71606Y78226D01*
X-71310Y78291D01*
X-71012Y78235D01*
X-70759Y78068D01*
X-69406Y76715D01*
X-66316Y76715D01*
X-66316Y83162D01*
X-59833Y83162D01*
X-59833Y83050D01*
X-59749Y83108D01*
X-59452Y83168D01*
X-45847Y83168D01*
X-45572Y83117D01*
X-45317Y82953D01*
X-45145Y82703D01*
X-45085Y82406D01*
X-45085Y51519D01*
X-45130Y51262D01*
X-45287Y51002D01*
X-45533Y50825D01*
X-45829Y50757D01*
X-46127Y50811D01*
X-46382Y50976D01*
X-46551Y51228D01*
X-46913Y52101D01*
X-49099Y54287D01*
X-51954Y55470D01*
X-55046Y55470D01*
X-57901Y54287D01*
X-60087Y52101D01*
X-61270Y49246D01*
X-61270Y46154D01*
X-60087Y43299D01*
X-57901Y41113D01*
X-55046Y39930D01*
X-51954Y39930D01*
X-49099Y41113D01*
X-46913Y43299D01*
X-46551Y44172D01*
X-46411Y44393D01*
X-46166Y44573D01*
X-45871Y44642D01*
X-45572Y44592D01*
X-45317Y44428D01*
X-45145Y44178D01*
X-45085Y43881D01*
X-45085Y33719D01*
X-45130Y33462D01*
X-45287Y33202D01*
X-45533Y33025D01*
X-45829Y32957D01*
X-46127Y33011D01*
X-46382Y33176D01*
X-46551Y33428D01*
X-46913Y34301D01*
X-49099Y36487D01*
X-51954Y37670D01*
X-55046Y37670D01*
X-57901Y36487D01*
X-60087Y34301D01*
X-60718Y32777D01*
X-60875Y32539D01*
X-61125Y32367D01*
X-61422Y32307D01*
X-72348Y32307D01*
X-72623Y32358D01*
X-72878Y32522D01*
X-73050Y32772D01*
X-73110Y33069D01*
X-73110Y33477D01*
X-73854Y34221D01*
X-81346Y34221D01*
X-82090Y33477D01*
X-82090Y29328D01*
X-82137Y29065D01*
X-82296Y28807D01*
X-82544Y28632D01*
G37*
%LPC*%
G36*
X-64792Y76715D02*
X-61702Y76715D01*
X-60214Y78202D01*
X-60214Y81638D01*
X-64792Y81638D01*
X-64792Y76715D01*
G37*
G36*
X-79720Y36774D02*
X-73080Y36774D01*
X-72336Y37518D01*
X-72336Y52794D01*
X-73080Y53538D01*
X-79720Y53538D01*
X-80464Y52794D01*
X-80464Y37518D01*
X-79720Y36774D01*
G37*
%LPD*%
G36*
X-165149Y34196D02*
X-165444Y34126D01*
X-165743Y34177D01*
X-165998Y34341D01*
X-166170Y34591D01*
X-166230Y34888D01*
X-166230Y35526D01*
X-166974Y36270D01*
X-206938Y36270D01*
X-207213Y36321D01*
X-207468Y36485D01*
X-207640Y36735D01*
X-207700Y37032D01*
X-207700Y42968D01*
X-207649Y43243D01*
X-207485Y43498D01*
X-207235Y43670D01*
X-206938Y43730D01*
X-166974Y43730D01*
X-166230Y44474D01*
X-166230Y45112D01*
X-166185Y45370D01*
X-166028Y45629D01*
X-165782Y45806D01*
X-165486Y45874D01*
X-165188Y45821D01*
X-164934Y45655D01*
X-164764Y45404D01*
X-164681Y45202D01*
X-162298Y42820D01*
X-159185Y41530D01*
X-155815Y41530D01*
X-152702Y42820D01*
X-150320Y45202D01*
X-149030Y48315D01*
X-149030Y51685D01*
X-150320Y54798D01*
X-151661Y56139D01*
X-151819Y56370D01*
X-151884Y56666D01*
X-151828Y56964D01*
X-151661Y57217D01*
X-141403Y67475D01*
X-141183Y67628D01*
X-140888Y67698D01*
X-140589Y67647D01*
X-140334Y67483D01*
X-140162Y67233D01*
X-140102Y66936D01*
X-140102Y50587D01*
X-140158Y50301D01*
X-140325Y50049D01*
X-152689Y37684D01*
X-152925Y37524D01*
X-153222Y37461D01*
X-153520Y37519D01*
X-155815Y38470D01*
X-159185Y38470D01*
X-162298Y37181D01*
X-164681Y34798D01*
X-164764Y34596D01*
X-164904Y34375D01*
X-165149Y34196D01*
G37*
G36*
X-165149Y54196D02*
X-165444Y54126D01*
X-165743Y54177D01*
X-165998Y54341D01*
X-166170Y54591D01*
X-166230Y54888D01*
X-166230Y55526D01*
X-166974Y56270D01*
X-206938Y56270D01*
X-207213Y56321D01*
X-207468Y56485D01*
X-207640Y56735D01*
X-207700Y57032D01*
X-207700Y62968D01*
X-207649Y63243D01*
X-207485Y63498D01*
X-207235Y63670D01*
X-206938Y63730D01*
X-166974Y63730D01*
X-166230Y64474D01*
X-166230Y65112D01*
X-166185Y65370D01*
X-166028Y65629D01*
X-165782Y65806D01*
X-165486Y65874D01*
X-165188Y65821D01*
X-164934Y65655D01*
X-164764Y65404D01*
X-164681Y65202D01*
X-162298Y62820D01*
X-159185Y61530D01*
X-155815Y61530D01*
X-154711Y61987D01*
X-154456Y62045D01*
X-154156Y61999D01*
X-153898Y61839D01*
X-153722Y61592D01*
X-153657Y61296D01*
X-153713Y60998D01*
X-153880Y60745D01*
X-155932Y58693D01*
X-156173Y58530D01*
X-156471Y58470D01*
X-159185Y58470D01*
X-162298Y57181D01*
X-164681Y54798D01*
X-164764Y54596D01*
X-164904Y54375D01*
X-165149Y54196D01*
G37*
G36*
X-165149Y14196D02*
X-165444Y14126D01*
X-165743Y14177D01*
X-165998Y14341D01*
X-166170Y14591D01*
X-166230Y14888D01*
X-166230Y15526D01*
X-166974Y16270D01*
X-206938Y16270D01*
X-207213Y16321D01*
X-207468Y16485D01*
X-207640Y16735D01*
X-207700Y17032D01*
X-207700Y22968D01*
X-207649Y23243D01*
X-207485Y23498D01*
X-207235Y23670D01*
X-206938Y23730D01*
X-166974Y23730D01*
X-166230Y24474D01*
X-166230Y25112D01*
X-166185Y25370D01*
X-166028Y25629D01*
X-165782Y25806D01*
X-165486Y25874D01*
X-165188Y25821D01*
X-164934Y25655D01*
X-164764Y25404D01*
X-164681Y25202D01*
X-162298Y22820D01*
X-159185Y21530D01*
X-155815Y21530D01*
X-152702Y22820D01*
X-150320Y25202D01*
X-149030Y28315D01*
X-149030Y31685D01*
X-149981Y33980D01*
X-150039Y34260D01*
X-149983Y34558D01*
X-149816Y34811D01*
X-138609Y46018D01*
X-138389Y46171D01*
X-138094Y46240D01*
X-137795Y46189D01*
X-137540Y46026D01*
X-137368Y45776D01*
X-137308Y45479D01*
X-137308Y33381D01*
X-137364Y33095D01*
X-137531Y32843D01*
X-152689Y17684D01*
X-152925Y17524D01*
X-153222Y17461D01*
X-153520Y17519D01*
X-155815Y18470D01*
X-159185Y18470D01*
X-162298Y17181D01*
X-164681Y14798D01*
X-164764Y14596D01*
X-164904Y14375D01*
X-165149Y14196D01*
G37*
G36*
X-165149Y-5804D02*
X-165444Y-5874D01*
X-165743Y-5823D01*
X-165998Y-5659D01*
X-166170Y-5409D01*
X-166230Y-5112D01*
X-166230Y-4474D01*
X-166974Y-3730D01*
X-206938Y-3730D01*
X-207213Y-3679D01*
X-207468Y-3515D01*
X-207640Y-3265D01*
X-207700Y-2968D01*
X-207700Y2968D01*
X-207649Y3243D01*
X-207485Y3498D01*
X-207235Y3670D01*
X-206938Y3730D01*
X-166974Y3730D01*
X-166230Y4474D01*
X-166230Y5112D01*
X-166185Y5370D01*
X-166028Y5629D01*
X-165782Y5806D01*
X-165486Y5874D01*
X-165188Y5821D01*
X-164934Y5655D01*
X-164764Y5404D01*
X-164681Y5202D01*
X-162298Y2820D01*
X-159185Y1530D01*
X-155815Y1530D01*
X-152702Y2820D01*
X-150320Y5202D01*
X-149030Y8315D01*
X-149030Y11685D01*
X-149981Y13980D01*
X-150039Y14260D01*
X-149983Y14558D01*
X-149816Y14811D01*
X-135815Y28812D01*
X-135595Y28965D01*
X-135300Y29034D01*
X-135001Y28983D01*
X-134746Y28820D01*
X-134574Y28570D01*
X-134514Y28273D01*
X-134514Y16175D01*
X-134570Y15889D01*
X-134737Y15637D01*
X-152689Y-2316D01*
X-152925Y-2476D01*
X-153222Y-2539D01*
X-153520Y-2481D01*
X-155815Y-1530D01*
X-159185Y-1530D01*
X-162298Y-2820D01*
X-164681Y-5202D01*
X-164764Y-5404D01*
X-164904Y-5625D01*
X-165149Y-5804D01*
G37*
G36*
X-165149Y-25804D02*
X-165444Y-25874D01*
X-165743Y-25823D01*
X-165998Y-25659D01*
X-166170Y-25409D01*
X-166230Y-25112D01*
X-166230Y-24474D01*
X-166974Y-23730D01*
X-206938Y-23730D01*
X-207213Y-23679D01*
X-207468Y-23515D01*
X-207640Y-23265D01*
X-207700Y-22968D01*
X-207700Y-17032D01*
X-207649Y-16757D01*
X-207485Y-16502D01*
X-207235Y-16330D01*
X-206938Y-16270D01*
X-166974Y-16270D01*
X-166230Y-15526D01*
X-166230Y-14888D01*
X-166185Y-14630D01*
X-166028Y-14371D01*
X-165782Y-14194D01*
X-165486Y-14126D01*
X-165188Y-14179D01*
X-164934Y-14345D01*
X-164764Y-14596D01*
X-164681Y-14798D01*
X-162298Y-17181D01*
X-159185Y-18470D01*
X-155815Y-18470D01*
X-152702Y-17181D01*
X-150320Y-14798D01*
X-149030Y-11685D01*
X-149030Y-8315D01*
X-149981Y-6020D01*
X-150039Y-5740D01*
X-149983Y-5442D01*
X-149816Y-5189D01*
X-133021Y11606D01*
X-132801Y11759D01*
X-132506Y11828D01*
X-132207Y11777D01*
X-131952Y11614D01*
X-131780Y11364D01*
X-131720Y11067D01*
X-131720Y-1031D01*
X-131776Y-1317D01*
X-131943Y-1570D01*
X-152689Y-22316D01*
X-152925Y-22476D01*
X-153222Y-22539D01*
X-153520Y-22481D01*
X-155815Y-21530D01*
X-159185Y-21530D01*
X-162298Y-22820D01*
X-164681Y-25202D01*
X-164764Y-25404D01*
X-164904Y-25625D01*
X-165149Y-25804D01*
G37*
G36*
X153606Y-119026D02*
X153308Y-119086D01*
X137565Y-119086D01*
X137284Y-119033D01*
X137030Y-118867D01*
X136861Y-118616D01*
X136008Y-116558D01*
X133626Y-114175D01*
X130513Y-112886D01*
X127143Y-112886D01*
X124030Y-114175D01*
X123506Y-114699D01*
X123322Y-114835D01*
X123031Y-114920D01*
X122730Y-114884D01*
X122466Y-114734D01*
X122282Y-114493D01*
X122206Y-114200D01*
X122251Y-113900D01*
X122514Y-113177D01*
X122070Y-112224D01*
X83493Y-98183D01*
X82497Y-98648D01*
X82413Y-98782D01*
X82163Y-98954D01*
X81866Y-99014D01*
X78535Y-99014D01*
X78286Y-98972D01*
X78025Y-98818D01*
X77845Y-98574D01*
X77800Y-98477D01*
X72903Y-96695D01*
X72642Y-96535D01*
X72467Y-96287D01*
X72401Y-95991D01*
X72457Y-95693D01*
X72625Y-95440D01*
X78910Y-89155D01*
X79151Y-88992D01*
X79448Y-88932D01*
X84981Y-88932D01*
X85218Y-88970D01*
X85482Y-89120D01*
X85666Y-89361D01*
X85742Y-89655D01*
X85697Y-89955D01*
X85600Y-90219D01*
X86045Y-91173D01*
X124621Y-105214D01*
X125575Y-104769D01*
X125765Y-104246D01*
X125921Y-103990D01*
X126167Y-103812D01*
X126463Y-103745D01*
X126761Y-103798D01*
X127016Y-103964D01*
X127185Y-104215D01*
X128488Y-107360D01*
X130870Y-109743D01*
X133983Y-111032D01*
X137353Y-111032D01*
X140466Y-109743D01*
X142849Y-107360D01*
X144138Y-104247D01*
X144138Y-100877D01*
X142849Y-97764D01*
X140466Y-95382D01*
X137353Y-94092D01*
X133983Y-94092D01*
X130870Y-95382D01*
X130347Y-95905D01*
X130163Y-96041D01*
X129871Y-96126D01*
X129570Y-96090D01*
X129307Y-95940D01*
X129122Y-95699D01*
X129047Y-95406D01*
X129092Y-95106D01*
X129355Y-94383D01*
X128910Y-93430D01*
X90334Y-79389D01*
X89380Y-79834D01*
X87730Y-84367D01*
X87562Y-84636D01*
X87312Y-84808D01*
X87014Y-84868D01*
X81085Y-84868D01*
X80822Y-84821D01*
X80564Y-84662D01*
X80388Y-84414D01*
X80323Y-84118D01*
X80379Y-83820D01*
X80546Y-83567D01*
X88351Y-75763D01*
X88592Y-75600D01*
X88889Y-75540D01*
X101434Y-75540D01*
X101695Y-75586D01*
X131462Y-86420D01*
X132415Y-85975D01*
X132605Y-85452D01*
X132762Y-85196D01*
X133008Y-85018D01*
X133303Y-84951D01*
X133602Y-85004D01*
X133856Y-85170D01*
X134025Y-85421D01*
X135328Y-88566D01*
X137711Y-90949D01*
X140824Y-92238D01*
X144193Y-92238D01*
X147307Y-90949D01*
X149689Y-88566D01*
X150979Y-85453D01*
X150979Y-82083D01*
X149689Y-78970D01*
X147307Y-76588D01*
X144193Y-75298D01*
X140824Y-75298D01*
X137711Y-76588D01*
X137187Y-77111D01*
X137003Y-77247D01*
X136712Y-77332D01*
X136411Y-77297D01*
X136147Y-77147D01*
X135963Y-76906D01*
X135887Y-76612D01*
X135932Y-76312D01*
X136195Y-75590D01*
X135750Y-74636D01*
X99178Y-61325D01*
X98917Y-61164D01*
X98741Y-60917D01*
X98676Y-60621D01*
X98732Y-60323D01*
X98899Y-60070D01*
X102614Y-56355D01*
X102855Y-56192D01*
X103153Y-56132D01*
X106588Y-56132D01*
X106849Y-56178D01*
X138529Y-67709D01*
X138770Y-67851D01*
X138954Y-68092D01*
X139030Y-68385D01*
X138985Y-68685D01*
X138747Y-69338D01*
X139192Y-70291D01*
X153712Y-75576D01*
X154666Y-75131D01*
X159951Y-60611D01*
X159506Y-59658D01*
X144986Y-54373D01*
X144032Y-54817D01*
X143795Y-55470D01*
X143653Y-55710D01*
X143412Y-55894D01*
X143118Y-55970D01*
X142818Y-55925D01*
X106018Y-42531D01*
X105757Y-42370D01*
X105582Y-42123D01*
X105517Y-41827D01*
X105572Y-41529D01*
X105732Y-41287D01*
X105732Y-3020D01*
X105779Y-2757D01*
X105938Y-2499D01*
X106186Y-2323D01*
X106482Y-2258D01*
X106780Y-2314D01*
X107033Y-2481D01*
X107733Y-3182D01*
X110867Y-3182D01*
X113229Y-819D01*
X113449Y-666D01*
X113744Y-597D01*
X114043Y-647D01*
X114298Y-811D01*
X114470Y-1061D01*
X114530Y-1358D01*
X114530Y-10037D01*
X115713Y-11220D01*
X121887Y-11220D01*
X122078Y-11029D01*
X122308Y-10871D01*
X122604Y-10806D01*
X122903Y-10862D01*
X123155Y-11029D01*
X128533Y-16407D01*
X135848Y-16407D01*
X136123Y-16458D01*
X136378Y-16622D01*
X136550Y-16872D01*
X136610Y-17169D01*
X136610Y-17577D01*
X137354Y-18321D01*
X140431Y-18321D01*
X140717Y-18376D01*
X140970Y-18544D01*
X161795Y-39369D01*
X161958Y-39610D01*
X162018Y-39907D01*
X162018Y-42067D01*
X164233Y-44282D01*
X167367Y-44282D01*
X169582Y-42067D01*
X169582Y-38933D01*
X167367Y-36718D01*
X165207Y-36718D01*
X164921Y-36662D01*
X164669Y-36495D01*
X145813Y-17640D01*
X145650Y-17398D01*
X145590Y-17101D01*
X145590Y-13765D01*
X145637Y-13502D01*
X145796Y-13244D01*
X146044Y-13068D01*
X146340Y-13003D01*
X146638Y-13059D01*
X146891Y-13226D01*
X177407Y-43742D01*
X177570Y-43984D01*
X177630Y-44281D01*
X177630Y-53595D01*
X177584Y-53855D01*
X154024Y-118585D01*
X153856Y-118854D01*
X153606Y-119026D01*
G37*
G36*
X-165149Y-45804D02*
X-165444Y-45874D01*
X-165743Y-45823D01*
X-165998Y-45659D01*
X-166170Y-45409D01*
X-166230Y-45112D01*
X-166230Y-44474D01*
X-166974Y-43730D01*
X-206938Y-43730D01*
X-207213Y-43679D01*
X-207468Y-43515D01*
X-207640Y-43265D01*
X-207700Y-42968D01*
X-207700Y-37032D01*
X-207649Y-36757D01*
X-207485Y-36502D01*
X-207235Y-36330D01*
X-206938Y-36270D01*
X-166974Y-36270D01*
X-166230Y-35526D01*
X-166230Y-34888D01*
X-166185Y-34630D01*
X-166028Y-34371D01*
X-165782Y-34194D01*
X-165486Y-34126D01*
X-165188Y-34179D01*
X-164934Y-34345D01*
X-164764Y-34596D01*
X-164681Y-34798D01*
X-162298Y-37181D01*
X-159185Y-38470D01*
X-155815Y-38470D01*
X-152702Y-37181D01*
X-150320Y-34798D01*
X-149030Y-31685D01*
X-149030Y-28315D01*
X-149981Y-26020D01*
X-150039Y-25740D01*
X-149983Y-25442D01*
X-149816Y-25189D01*
X-130227Y-5601D01*
X-130007Y-5448D01*
X-129712Y-5378D01*
X-129413Y-5429D01*
X-129158Y-5592D01*
X-128986Y-5842D01*
X-128926Y-6139D01*
X-128926Y-18237D01*
X-128982Y-18523D01*
X-129149Y-18776D01*
X-152689Y-42316D01*
X-152925Y-42476D01*
X-153222Y-42539D01*
X-153520Y-42481D01*
X-155815Y-41530D01*
X-159185Y-41530D01*
X-162298Y-42820D01*
X-164681Y-45202D01*
X-164764Y-45404D01*
X-164904Y-45625D01*
X-165149Y-45804D01*
G37*
G36*
X-147949Y-67609D02*
X-148244Y-67678D01*
X-148543Y-67627D01*
X-148798Y-67464D01*
X-148970Y-67214D01*
X-149030Y-66917D01*
X-149030Y-62274D01*
X-149774Y-61530D01*
X-165226Y-61530D01*
X-165970Y-62274D01*
X-165970Y-62968D01*
X-166021Y-63243D01*
X-166185Y-63498D01*
X-166435Y-63670D01*
X-166732Y-63730D01*
X-206938Y-63730D01*
X-207213Y-63679D01*
X-207468Y-63515D01*
X-207640Y-63265D01*
X-207700Y-62968D01*
X-207700Y-57032D01*
X-207649Y-56757D01*
X-207485Y-56502D01*
X-207235Y-56330D01*
X-206938Y-56270D01*
X-166974Y-56270D01*
X-166230Y-55526D01*
X-166230Y-54888D01*
X-166185Y-54630D01*
X-166028Y-54371D01*
X-165782Y-54194D01*
X-165486Y-54126D01*
X-165188Y-54179D01*
X-164934Y-54345D01*
X-164764Y-54596D01*
X-164681Y-54798D01*
X-162298Y-57181D01*
X-159185Y-58470D01*
X-155815Y-58470D01*
X-152702Y-57181D01*
X-150320Y-54798D01*
X-149030Y-51685D01*
X-149030Y-48315D01*
X-149981Y-46020D01*
X-150039Y-45740D01*
X-149983Y-45442D01*
X-149816Y-45189D01*
X-127433Y-22807D01*
X-127213Y-22654D01*
X-126918Y-22584D01*
X-126619Y-22635D01*
X-126364Y-22798D01*
X-126192Y-23048D01*
X-126132Y-23345D01*
X-126132Y-45543D01*
X-126188Y-45829D01*
X-126355Y-46082D01*
X-147729Y-67456D01*
X-147949Y-67609D01*
G37*
G36*
X-79755Y-39883D02*
X-80052Y-39943D01*
X-87668Y-39943D01*
X-87954Y-39887D01*
X-88207Y-39720D01*
X-101094Y-26833D01*
X-101247Y-26613D01*
X-101316Y-26318D01*
X-101265Y-26019D01*
X-101102Y-25764D01*
X-100852Y-25592D01*
X-100555Y-25532D01*
X-61578Y-25532D01*
X-61297Y-25585D01*
X-61043Y-25751D01*
X-60874Y-26002D01*
X-60087Y-27901D01*
X-57901Y-30087D01*
X-55046Y-31270D01*
X-51954Y-31270D01*
X-49099Y-30087D01*
X-46913Y-27901D01*
X-46551Y-27028D01*
X-46411Y-26807D01*
X-46166Y-26627D01*
X-45871Y-26558D01*
X-45572Y-26608D01*
X-45317Y-26772D01*
X-45145Y-27022D01*
X-45085Y-27319D01*
X-45085Y-37481D01*
X-45130Y-37738D01*
X-45287Y-37998D01*
X-45533Y-38175D01*
X-45829Y-38243D01*
X-46127Y-38189D01*
X-46382Y-38024D01*
X-46551Y-37772D01*
X-46913Y-36899D01*
X-49099Y-34713D01*
X-51954Y-33530D01*
X-55046Y-33530D01*
X-57901Y-34713D01*
X-60087Y-36899D01*
X-60874Y-38798D01*
X-61030Y-39036D01*
X-61280Y-39208D01*
X-61578Y-39268D01*
X-69548Y-39268D01*
X-69823Y-39217D01*
X-70078Y-39053D01*
X-70183Y-38900D01*
X-71054Y-38030D01*
X-78546Y-38030D01*
X-79290Y-38773D01*
X-79290Y-39181D01*
X-79341Y-39456D01*
X-79505Y-39711D01*
X-79755Y-39883D01*
G37*
%LPC*%
G36*
X-78546Y-35771D02*
X-71054Y-35771D01*
X-70310Y-35027D01*
X-70310Y-28623D01*
X-71054Y-27880D01*
X-78546Y-27880D01*
X-79313Y-28646D01*
X-79341Y-28798D01*
X-79505Y-29053D01*
X-79755Y-29225D01*
X-80052Y-29285D01*
X-82851Y-29285D01*
X-83137Y-29229D01*
X-83390Y-29062D01*
X-85133Y-27318D01*
X-88267Y-27318D01*
X-90482Y-29533D01*
X-90482Y-32667D01*
X-88267Y-34882D01*
X-85133Y-34882D01*
X-84840Y-34588D01*
X-84598Y-34425D01*
X-84301Y-34365D01*
X-80052Y-34365D01*
X-79777Y-34416D01*
X-79522Y-34580D01*
X-79350Y-34830D01*
X-79316Y-35001D01*
X-78546Y-35771D01*
G37*
%LPD*%
G36*
X-61280Y-57008D02*
X-61578Y-57068D01*
X-76969Y-57068D01*
X-77255Y-57012D01*
X-77508Y-56845D01*
X-89045Y-45308D01*
X-89198Y-45088D01*
X-89268Y-44793D01*
X-89217Y-44494D01*
X-89053Y-44239D01*
X-88803Y-44067D01*
X-88506Y-44007D01*
X-80052Y-44007D01*
X-79777Y-44058D01*
X-79522Y-44222D01*
X-79350Y-44472D01*
X-79290Y-44769D01*
X-79290Y-45177D01*
X-78546Y-45921D01*
X-71054Y-45921D01*
X-70310Y-45177D01*
X-70310Y-44094D01*
X-70259Y-43819D01*
X-70095Y-43564D01*
X-69845Y-43392D01*
X-69548Y-43332D01*
X-61578Y-43332D01*
X-61297Y-43385D01*
X-61043Y-43551D01*
X-60874Y-43802D01*
X-60087Y-45701D01*
X-57901Y-47887D01*
X-55046Y-49070D01*
X-51954Y-49070D01*
X-49099Y-47887D01*
X-46913Y-45701D01*
X-46551Y-44828D01*
X-46411Y-44607D01*
X-46166Y-44427D01*
X-45871Y-44358D01*
X-45572Y-44408D01*
X-45317Y-44572D01*
X-45145Y-44822D01*
X-45085Y-45119D01*
X-45085Y-55281D01*
X-45130Y-55538D01*
X-45287Y-55798D01*
X-45533Y-55975D01*
X-45829Y-56043D01*
X-46127Y-55989D01*
X-46382Y-55824D01*
X-46551Y-55572D01*
X-46913Y-54699D01*
X-49099Y-52513D01*
X-51954Y-51330D01*
X-55046Y-51330D01*
X-57901Y-52513D01*
X-60087Y-54699D01*
X-60874Y-56598D01*
X-61030Y-56836D01*
X-61280Y-57008D01*
G37*
G36*
X116150Y-197984D02*
X115996Y-198000D01*
X-200000Y-198000D01*
X-200149Y-197985D01*
X-206745Y-196673D01*
X-207020Y-196559D01*
X-208226Y-195754D01*
X-208495Y-195439D01*
X-208564Y-195144D01*
X-208514Y-194845D01*
X-208350Y-194590D01*
X-208100Y-194418D01*
X-207803Y-194358D01*
X-86484Y-194358D01*
X-75783Y-183657D01*
X-75563Y-183504D01*
X-75268Y-183434D01*
X-74969Y-183485D01*
X-74714Y-183648D01*
X-74542Y-183898D01*
X-74482Y-184195D01*
X-74482Y-184867D01*
X-72267Y-187082D01*
X-69133Y-187082D01*
X-66918Y-184867D01*
X-66918Y-182707D01*
X-66862Y-182421D01*
X-66695Y-182169D01*
X-7806Y-123280D01*
X-7564Y-123117D01*
X-7267Y-123057D01*
X45008Y-123057D01*
X64413Y-103652D01*
X64575Y-103532D01*
X64659Y-103405D01*
X66538Y-101527D01*
X66722Y-101391D01*
X67013Y-101306D01*
X67314Y-101342D01*
X67578Y-101492D01*
X67762Y-101733D01*
X67838Y-102027D01*
X67793Y-102326D01*
X67671Y-102661D01*
X67720Y-102768D01*
X67790Y-103039D01*
X67750Y-103339D01*
X67596Y-103600D01*
X67352Y-103781D01*
X65617Y-104589D01*
X64561Y-107493D01*
X75246Y-111382D01*
X76303Y-108479D01*
X75494Y-106744D01*
X75424Y-106474D01*
X75464Y-106173D01*
X75619Y-105912D01*
X75863Y-105732D01*
X75969Y-105682D01*
X76734Y-103580D01*
X76903Y-103310D01*
X77153Y-103139D01*
X77450Y-103078D01*
X79832Y-103078D01*
X80069Y-103116D01*
X80333Y-103266D01*
X80517Y-103507D01*
X80593Y-103801D01*
X80548Y-104101D01*
X78760Y-109013D01*
X79204Y-109967D01*
X117781Y-124007D01*
X118734Y-123563D01*
X118925Y-123040D01*
X119081Y-122784D01*
X119327Y-122606D01*
X119622Y-122539D01*
X119921Y-122592D01*
X120175Y-122757D01*
X120345Y-123009D01*
X121647Y-126154D01*
X124030Y-128536D01*
X127143Y-129826D01*
X130513Y-129826D01*
X133626Y-128536D01*
X136008Y-126154D01*
X136860Y-124097D01*
X137017Y-123858D01*
X137267Y-123687D01*
X137564Y-123626D01*
X154581Y-123626D01*
X154819Y-123664D01*
X155082Y-123814D01*
X155267Y-124055D01*
X155342Y-124349D01*
X155297Y-124649D01*
X132910Y-186156D01*
X132843Y-186296D01*
X129183Y-192229D01*
X128971Y-192454D01*
X123261Y-196452D01*
X122978Y-196574D01*
X116150Y-197984D01*
G37*
%LPC*%
G36*
X63872Y-113736D02*
X67100Y-114911D01*
X68666Y-110609D01*
X64039Y-108925D01*
X62983Y-111829D01*
X63872Y-113736D01*
G37*
G36*
X68532Y-115432D02*
X71761Y-116607D01*
X73668Y-115718D01*
X74725Y-112814D01*
X70098Y-111130D01*
X68532Y-115432D01*
G37*
G36*
X120303Y-148620D02*
X123672Y-148620D01*
X126785Y-147330D01*
X129168Y-144948D01*
X130457Y-141835D01*
X130457Y-138465D01*
X129803Y-136886D01*
X129746Y-136618D01*
X129796Y-136319D01*
X129960Y-136064D01*
X130210Y-135892D01*
X130507Y-135832D01*
X138668Y-135832D01*
X138954Y-135888D01*
X139207Y-136055D01*
X140733Y-137582D01*
X143867Y-137582D01*
X146082Y-135367D01*
X146082Y-132233D01*
X143867Y-130018D01*
X140733Y-130018D01*
X139207Y-131545D01*
X138965Y-131708D01*
X138668Y-131768D01*
X127495Y-131768D01*
X126798Y-132465D01*
X126562Y-132626D01*
X126265Y-132689D01*
X125968Y-132631D01*
X123672Y-131680D01*
X120303Y-131680D01*
X117190Y-132969D01*
X116666Y-133493D01*
X116482Y-133629D01*
X116191Y-133714D01*
X115889Y-133678D01*
X115626Y-133528D01*
X115442Y-133287D01*
X115366Y-132993D01*
X115411Y-132694D01*
X115674Y-131971D01*
X115229Y-131018D01*
X76653Y-116977D01*
X75699Y-117422D01*
X71919Y-127807D01*
X72364Y-128761D01*
X110940Y-142801D01*
X111894Y-142357D01*
X112084Y-141834D01*
X112240Y-141577D01*
X112486Y-141400D01*
X112782Y-141333D01*
X113081Y-141386D01*
X113335Y-141551D01*
X113504Y-141803D01*
X114807Y-144948D01*
X117190Y-147330D01*
X120303Y-148620D01*
G37*
G36*
X-2586Y-153000D02*
X2586Y-153000D01*
X7364Y-151021D01*
X11021Y-147364D01*
X13000Y-142586D01*
X13000Y-137414D01*
X11021Y-132636D01*
X7364Y-128979D01*
X2586Y-127000D01*
X-2586Y-127000D01*
X-7364Y-128979D01*
X-11021Y-132636D01*
X-13000Y-137414D01*
X-13000Y-142586D01*
X-11021Y-147364D01*
X-7364Y-151021D01*
X-2586Y-153000D01*
G37*
G36*
X66036Y-140258D02*
X86501Y-147706D01*
X88819Y-141337D01*
X69753Y-134398D01*
X67846Y-135287D01*
X66036Y-140258D01*
G37*
G36*
X57414Y-173000D02*
X62586Y-173000D01*
X67364Y-171021D01*
X71021Y-167364D01*
X73000Y-162586D01*
X73000Y-157414D01*
X71021Y-152636D01*
X70733Y-152348D01*
X70597Y-152164D01*
X70512Y-151873D01*
X70547Y-151571D01*
X70697Y-151308D01*
X70938Y-151124D01*
X71232Y-151048D01*
X71532Y-151093D01*
X83661Y-155508D01*
X85980Y-149138D01*
X65515Y-141690D01*
X63724Y-146611D01*
X63559Y-146876D01*
X63311Y-147049D01*
X63014Y-147112D01*
X62716Y-147054D01*
X62586Y-147000D01*
X57414Y-147000D01*
X52636Y-148979D01*
X48979Y-152636D01*
X47000Y-157414D01*
X47000Y-162586D01*
X48979Y-167364D01*
X52636Y-171021D01*
X57414Y-173000D01*
G37*
G36*
X109630Y-167201D02*
X111108Y-167813D01*
X117777Y-149490D01*
X117084Y-149204D01*
X113210Y-149204D01*
X110780Y-150210D01*
X110540Y-150266D01*
X110239Y-150226D01*
X109978Y-150072D01*
X109798Y-149828D01*
X109318Y-148798D01*
X90251Y-141858D01*
X85093Y-156029D01*
X104160Y-162969D01*
X105208Y-162480D01*
X105512Y-162408D01*
X105811Y-162462D01*
X106065Y-162627D01*
X106234Y-162879D01*
X106890Y-164461D01*
X109630Y-167201D01*
G37*
G36*
X116124Y-158488D02*
X124600Y-161573D01*
X124887Y-160881D01*
X124887Y-157006D01*
X123404Y-153426D01*
X120664Y-150686D01*
X119186Y-150074D01*
X116124Y-158488D01*
G37*
G36*
X113210Y-168684D02*
X117084Y-168684D01*
X120664Y-167201D01*
X123404Y-164461D01*
X124016Y-162983D01*
X115602Y-159920D01*
X112517Y-168397D01*
X113210Y-168684D01*
G37*
%LPD*%
G36*
X-167235Y-187440D02*
X-167532Y-187500D01*
X-173468Y-187500D01*
X-173743Y-187449D01*
X-173998Y-187285D01*
X-174170Y-187035D01*
X-174230Y-186738D01*
X-174230Y-146974D01*
X-174974Y-146230D01*
X-175612Y-146230D01*
X-175870Y-146185D01*
X-176129Y-146028D01*
X-176306Y-145782D01*
X-176374Y-145486D01*
X-176321Y-145188D01*
X-176155Y-144934D01*
X-175904Y-144764D01*
X-175702Y-144681D01*
X-173320Y-142298D01*
X-172030Y-139185D01*
X-172030Y-135815D01*
X-172981Y-133520D01*
X-173039Y-133240D01*
X-172983Y-132942D01*
X-172816Y-132689D01*
X-151662Y-111535D01*
X-151420Y-111372D01*
X-151123Y-111312D01*
X-139025Y-111312D01*
X-138762Y-111359D01*
X-138504Y-111518D01*
X-138329Y-111766D01*
X-138263Y-112062D01*
X-138319Y-112360D01*
X-138487Y-112613D01*
X-155689Y-129816D01*
X-155925Y-129976D01*
X-156222Y-130039D01*
X-156520Y-129981D01*
X-158815Y-129030D01*
X-162185Y-129030D01*
X-165298Y-130320D01*
X-167681Y-132702D01*
X-168970Y-135815D01*
X-168970Y-139185D01*
X-167681Y-142298D01*
X-165298Y-144681D01*
X-165096Y-144764D01*
X-164875Y-144904D01*
X-164696Y-145149D01*
X-164626Y-145444D01*
X-164677Y-145743D01*
X-164841Y-145998D01*
X-165091Y-146170D01*
X-165388Y-146230D01*
X-166026Y-146230D01*
X-166770Y-146974D01*
X-166770Y-186738D01*
X-166821Y-187013D01*
X-166985Y-187268D01*
X-167235Y-187440D01*
G37*
G36*
X-148505Y-187440D02*
X-148802Y-187500D01*
X-153468Y-187500D01*
X-153743Y-187449D01*
X-153998Y-187285D01*
X-154170Y-187035D01*
X-154230Y-186738D01*
X-154230Y-146974D01*
X-154974Y-146230D01*
X-155612Y-146230D01*
X-155870Y-146185D01*
X-156129Y-146028D01*
X-156306Y-145782D01*
X-156374Y-145486D01*
X-156321Y-145188D01*
X-156155Y-144934D01*
X-155904Y-144764D01*
X-155702Y-144681D01*
X-153320Y-142298D01*
X-152030Y-139185D01*
X-152030Y-135815D01*
X-152981Y-133520D01*
X-153039Y-133240D01*
X-152983Y-132942D01*
X-152816Y-132689D01*
X-134456Y-114329D01*
X-134214Y-114166D01*
X-133917Y-114106D01*
X-101819Y-114106D01*
X-101556Y-114153D01*
X-101298Y-114312D01*
X-101123Y-114560D01*
X-101057Y-114856D01*
X-101113Y-115154D01*
X-101281Y-115407D01*
X-115689Y-129816D01*
X-115925Y-129976D01*
X-116222Y-130039D01*
X-116520Y-129981D01*
X-118815Y-129030D01*
X-122185Y-129030D01*
X-125298Y-130320D01*
X-127681Y-132702D01*
X-128970Y-135815D01*
X-128970Y-139185D01*
X-127681Y-142298D01*
X-125298Y-144681D01*
X-125096Y-144764D01*
X-124875Y-144904D01*
X-124696Y-145149D01*
X-124626Y-145444D01*
X-124677Y-145743D01*
X-124841Y-145998D01*
X-125091Y-146170D01*
X-125388Y-146230D01*
X-126026Y-146230D01*
X-126770Y-146974D01*
X-126770Y-184081D01*
X-126826Y-184367D01*
X-126993Y-184620D01*
X-129651Y-187277D01*
X-129892Y-187440D01*
X-130189Y-187500D01*
X-132198Y-187500D01*
X-132473Y-187449D01*
X-132728Y-187285D01*
X-132900Y-187035D01*
X-132960Y-186738D01*
X-132960Y-168262D01*
X-148040Y-168262D01*
X-148040Y-186738D01*
X-148091Y-187013D01*
X-148255Y-187268D01*
X-148505Y-187440D01*
G37*
%LPC*%
G36*
X-150240Y-136738D02*
X-141262Y-136738D01*
X-141262Y-127760D01*
X-142437Y-127760D01*
X-146017Y-129243D01*
X-148757Y-131983D01*
X-150240Y-135563D01*
X-150240Y-136738D01*
G37*
G36*
X-139738Y-136738D02*
X-130760Y-136738D01*
X-130760Y-135563D01*
X-132243Y-131983D01*
X-134983Y-129243D01*
X-138563Y-127760D01*
X-139738Y-127760D01*
X-139738Y-136738D01*
G37*
G36*
X-148040Y-166738D02*
X-132960Y-166738D01*
X-132960Y-146448D01*
X-133778Y-145630D01*
X-133936Y-145400D01*
X-134001Y-145103D01*
X-133945Y-144805D01*
X-133778Y-144552D01*
X-132243Y-143017D01*
X-130760Y-139437D01*
X-130760Y-138262D01*
X-150240Y-138262D01*
X-150240Y-139437D01*
X-148757Y-143017D01*
X-147222Y-144552D01*
X-147064Y-144783D01*
X-146999Y-145079D01*
X-147055Y-145377D01*
X-147222Y-145630D01*
X-148040Y-146448D01*
X-148040Y-166738D01*
G37*
%LPD*%
G36*
X-94922Y-128970D02*
X-95219Y-129030D01*
X-107317Y-129030D01*
X-107580Y-128983D01*
X-107838Y-128824D01*
X-108014Y-128576D01*
X-108079Y-128280D01*
X-108023Y-127982D01*
X-107856Y-127729D01*
X-97250Y-117123D01*
X-97008Y-116960D01*
X-96711Y-116900D01*
X-75432Y-116900D01*
X-75157Y-116951D01*
X-74902Y-117115D01*
X-74730Y-117365D01*
X-74670Y-117662D01*
X-74670Y-118656D01*
X-74721Y-118931D01*
X-74885Y-119186D01*
X-75135Y-119358D01*
X-75432Y-119418D01*
X-85292Y-119418D01*
X-94681Y-128807D01*
X-94922Y-128970D01*
G37*
G36*
X-88186Y-190234D02*
X-88483Y-190294D01*
X-114658Y-190294D01*
X-114922Y-190247D01*
X-115180Y-190088D01*
X-115355Y-189840D01*
X-115420Y-189544D01*
X-115365Y-189246D01*
X-115197Y-188993D01*
X-114230Y-188026D01*
X-114230Y-146974D01*
X-114974Y-146230D01*
X-115612Y-146230D01*
X-115870Y-146185D01*
X-116129Y-146028D01*
X-116306Y-145782D01*
X-116374Y-145486D01*
X-116321Y-145188D01*
X-116155Y-144934D01*
X-115904Y-144764D01*
X-115702Y-144681D01*
X-113320Y-142298D01*
X-112030Y-139185D01*
X-112030Y-135815D01*
X-112981Y-133520D01*
X-113039Y-133240D01*
X-112983Y-132942D01*
X-112816Y-132689D01*
X-110271Y-130145D01*
X-110051Y-129992D01*
X-109756Y-129922D01*
X-109457Y-129973D01*
X-109202Y-130136D01*
X-109030Y-130386D01*
X-108970Y-130683D01*
X-108970Y-145226D01*
X-108226Y-145970D01*
X-107532Y-145970D01*
X-107257Y-146021D01*
X-107002Y-146185D01*
X-106830Y-146435D01*
X-106770Y-146732D01*
X-106770Y-188026D01*
X-106026Y-188770D01*
X-94974Y-188770D01*
X-94230Y-188026D01*
X-94230Y-146732D01*
X-94179Y-146457D01*
X-94015Y-146202D01*
X-93765Y-146030D01*
X-93468Y-145970D01*
X-92774Y-145970D01*
X-92030Y-145226D01*
X-92030Y-132219D01*
X-91974Y-131933D01*
X-91807Y-131681D01*
X-83832Y-123705D01*
X-83590Y-123542D01*
X-83293Y-123482D01*
X-75432Y-123482D01*
X-75157Y-123533D01*
X-74902Y-123697D01*
X-74730Y-123947D01*
X-74670Y-124244D01*
X-74670Y-126526D01*
X-73926Y-127270D01*
X-60674Y-127270D01*
X-59930Y-126526D01*
X-59930Y-117662D01*
X-59879Y-117387D01*
X-59715Y-117132D01*
X-59465Y-116960D01*
X-59168Y-116900D01*
X-16613Y-116900D01*
X-16350Y-116947D01*
X-16092Y-117106D01*
X-15917Y-117354D01*
X-15851Y-117650D01*
X-15907Y-117948D01*
X-16075Y-118201D01*
X-87945Y-190071D01*
X-88186Y-190234D01*
G37*
%LPC*%
G36*
X-73926Y-159970D02*
X-60674Y-159970D01*
X-59930Y-159226D01*
X-59930Y-149074D01*
X-60674Y-148330D01*
X-64506Y-148330D01*
X-64781Y-148279D01*
X-65036Y-148115D01*
X-65208Y-147865D01*
X-65268Y-147568D01*
X-65268Y-142032D01*
X-65212Y-141746D01*
X-65045Y-141493D01*
X-63918Y-140367D01*
X-63918Y-137233D01*
X-66133Y-135018D01*
X-69267Y-135018D01*
X-71482Y-137233D01*
X-71482Y-140367D01*
X-69555Y-142293D01*
X-69392Y-142535D01*
X-69332Y-142832D01*
X-69332Y-147568D01*
X-69383Y-147843D01*
X-69547Y-148098D01*
X-69797Y-148270D01*
X-70094Y-148330D01*
X-73926Y-148330D01*
X-74670Y-149074D01*
X-74670Y-159226D01*
X-73926Y-159970D01*
G37*
%LPD*%
G36*
X76508Y171581D02*
X76212Y171516D01*
X75914Y171571D01*
X75661Y171739D01*
X75479Y171921D01*
X75321Y172152D01*
X75256Y172448D01*
X75311Y172746D01*
X75339Y172788D01*
X75339Y174118D01*
X73388Y176069D01*
X73273Y176069D01*
X72998Y176121D01*
X72742Y176284D01*
X72571Y176534D01*
X72511Y176831D01*
X72511Y176947D01*
X70560Y178898D01*
X70444Y178898D01*
X70170Y178949D01*
X69914Y179113D01*
X69743Y179363D01*
X69682Y179660D01*
X69682Y179775D01*
X67731Y181726D01*
X67616Y181726D01*
X67341Y181778D01*
X67086Y181941D01*
X66914Y182191D01*
X66854Y182488D01*
X66854Y182604D01*
X65519Y183939D01*
X65356Y184181D01*
X65295Y184478D01*
X65295Y185958D01*
X64487Y186767D01*
X59182Y181462D01*
X58104Y182540D01*
X63409Y187845D01*
X62600Y188653D01*
X61120Y188653D01*
X60834Y188709D01*
X60581Y188876D01*
X59246Y190212D01*
X59131Y190212D01*
X58856Y190263D01*
X58600Y190426D01*
X58429Y190676D01*
X58369Y190974D01*
X58369Y191089D01*
X56417Y193040D01*
X56302Y193040D01*
X56027Y193091D01*
X55772Y193255D01*
X55600Y193505D01*
X55540Y193802D01*
X55540Y193917D01*
X53589Y195868D01*
X53474Y195868D01*
X53199Y195920D01*
X52943Y196083D01*
X52772Y196333D01*
X52712Y196630D01*
X52712Y196746D01*
X50761Y198697D01*
X50645Y198697D01*
X50371Y198748D01*
X50115Y198912D01*
X49944Y199162D01*
X49883Y199459D01*
X49883Y199574D01*
X47932Y201525D01*
X47817Y201525D01*
X47542Y201577D01*
X47287Y201740D01*
X47115Y201990D01*
X47055Y202287D01*
X47055Y202403D01*
X45104Y204354D01*
X44988Y204354D01*
X44714Y204405D01*
X44458Y204568D01*
X44287Y204819D01*
X44226Y205116D01*
X44226Y205231D01*
X42275Y207182D01*
X42160Y207182D01*
X41885Y207233D01*
X41630Y207397D01*
X41458Y207647D01*
X41398Y207944D01*
X41398Y208060D01*
X40063Y209395D01*
X39900Y209636D01*
X39840Y209934D01*
X39840Y211414D01*
X39031Y212223D01*
X33726Y206918D01*
X32649Y207996D01*
X37953Y213300D01*
X37892Y213361D01*
X37734Y213592D01*
X37669Y213888D01*
X37725Y214186D01*
X37892Y214439D01*
X37953Y214500D01*
X32649Y219804D01*
X33726Y220882D01*
X39031Y215577D01*
X40782Y217328D01*
X35477Y222633D01*
X36555Y223710D01*
X41859Y218406D01*
X42173Y218720D01*
X42404Y218878D01*
X42700Y218943D01*
X42998Y218887D01*
X43251Y218720D01*
X44717Y217254D01*
X44880Y217012D01*
X44940Y216715D01*
X44940Y214556D01*
X47156Y212340D01*
X50289Y212340D01*
X51490Y213542D01*
X51732Y213705D01*
X52029Y213765D01*
X52503Y213765D01*
X52789Y213709D01*
X53042Y213542D01*
X75874Y190710D01*
X76926Y190710D01*
X83017Y196801D01*
X83237Y196954D01*
X83532Y197024D01*
X83831Y196973D01*
X84086Y196809D01*
X84258Y196559D01*
X84318Y196262D01*
X84318Y194933D01*
X86533Y192718D01*
X89667Y192718D01*
X91882Y194933D01*
X91882Y198067D01*
X90600Y199349D01*
X90442Y199579D01*
X90377Y199875D01*
X90432Y200173D01*
X90600Y200426D01*
X102384Y212211D01*
X102384Y215583D01*
X78083Y239884D01*
X74717Y239884D01*
X53051Y218219D01*
X52821Y218061D01*
X52525Y217996D01*
X52227Y218052D01*
X51974Y218219D01*
X50289Y219904D01*
X48129Y219904D01*
X47843Y219960D01*
X47591Y220127D01*
X45227Y222491D01*
X45069Y222722D01*
X45003Y223018D01*
X45059Y223316D01*
X45227Y223569D01*
X47055Y225397D01*
X47055Y225513D01*
X47106Y225787D01*
X47269Y226043D01*
X47520Y226214D01*
X47817Y226275D01*
X47932Y226275D01*
X49267Y227610D01*
X49509Y227773D01*
X49806Y227833D01*
X51287Y227833D01*
X52095Y228642D01*
X46791Y233946D01*
X47868Y235024D01*
X53173Y229719D01*
X53892Y230438D01*
X53892Y230438D01*
X54924Y231470D01*
X49619Y236775D01*
X50697Y237853D01*
X56001Y232548D01*
X56810Y233357D01*
X56810Y234837D01*
X56866Y235123D01*
X57033Y235376D01*
X58369Y236711D01*
X58369Y236826D01*
X58420Y237101D01*
X58583Y237357D01*
X58833Y237528D01*
X59131Y237588D01*
X59246Y237588D01*
X61197Y239539D01*
X61197Y239655D01*
X61248Y239929D01*
X61412Y240185D01*
X61662Y240356D01*
X61959Y240417D01*
X62074Y240417D01*
X64025Y242368D01*
X64025Y242483D01*
X64077Y242758D01*
X64240Y243013D01*
X64490Y243185D01*
X64787Y243245D01*
X64903Y243245D01*
X66854Y245196D01*
X66854Y245312D01*
X66905Y245586D01*
X67068Y245842D01*
X67319Y246013D01*
X67616Y246074D01*
X67731Y246074D01*
X69682Y248025D01*
X69682Y248140D01*
X69733Y248415D01*
X69897Y248670D01*
X70147Y248842D01*
X70444Y248902D01*
X70560Y248902D01*
X72511Y250853D01*
X72511Y250969D01*
X72562Y251243D01*
X72725Y251499D01*
X72975Y251670D01*
X73273Y251731D01*
X73388Y251731D01*
X74963Y253306D01*
X75194Y253464D01*
X75490Y253529D01*
X75788Y253473D01*
X76041Y253306D01*
X77000Y252347D01*
X82304Y257652D01*
X83382Y256574D01*
X78077Y251269D01*
X78886Y250461D01*
X80366Y250461D01*
X80652Y250405D01*
X80905Y250237D01*
X82240Y248902D01*
X82356Y248902D01*
X82631Y248851D01*
X82886Y248687D01*
X83058Y248437D01*
X83118Y248140D01*
X83118Y248025D01*
X85069Y246074D01*
X85184Y246074D01*
X85459Y246022D01*
X85714Y245859D01*
X85886Y245609D01*
X85946Y245312D01*
X85946Y245196D01*
X87897Y243245D01*
X88013Y243245D01*
X88287Y243194D01*
X88543Y243031D01*
X88714Y242780D01*
X88775Y242483D01*
X88775Y242368D01*
X90726Y240417D01*
X90841Y240417D01*
X91116Y240366D01*
X91371Y240202D01*
X91543Y239952D01*
X91603Y239655D01*
X91603Y239539D01*
X93554Y237588D01*
X93670Y237588D01*
X93944Y237537D01*
X94200Y237374D01*
X94371Y237124D01*
X94432Y236826D01*
X94432Y236711D01*
X96383Y234760D01*
X96498Y234760D01*
X96773Y234709D01*
X97028Y234545D01*
X97200Y234295D01*
X97260Y233998D01*
X97260Y233883D01*
X99211Y231932D01*
X99326Y231932D01*
X99601Y231880D01*
X99857Y231717D01*
X100028Y231467D01*
X100088Y231170D01*
X100088Y231054D01*
X101424Y229719D01*
X101586Y229477D01*
X101647Y229180D01*
X101647Y227700D01*
X102456Y226891D01*
X107760Y232196D01*
X108838Y231118D01*
X103533Y225813D01*
X104342Y225005D01*
X105822Y225005D01*
X106108Y224949D01*
X106361Y224781D01*
X107696Y223446D01*
X107812Y223446D01*
X108086Y223395D01*
X108342Y223232D01*
X108513Y222981D01*
X108574Y222684D01*
X108574Y222569D01*
X110525Y220618D01*
X110640Y220618D01*
X110915Y220567D01*
X111170Y220403D01*
X111342Y220153D01*
X111402Y219856D01*
X111402Y219740D01*
X113353Y217789D01*
X113469Y217789D01*
X113743Y217738D01*
X113999Y217575D01*
X114170Y217325D01*
X114231Y217027D01*
X114231Y216912D01*
X116182Y214961D01*
X117626Y214961D01*
X117778Y214994D01*
X118076Y214939D01*
X118329Y214771D01*
X118511Y214589D01*
X118669Y214358D01*
X118734Y214062D01*
X118679Y213764D01*
X118511Y213511D01*
X118062Y213062D01*
X117821Y212899D01*
X117523Y212839D01*
X116182Y212839D01*
X114231Y210888D01*
X114231Y210773D01*
X114179Y210498D01*
X114016Y210242D01*
X113766Y210071D01*
X113469Y210011D01*
X113353Y210011D01*
X111402Y208060D01*
X111402Y207944D01*
X111351Y207669D01*
X111187Y207414D01*
X110937Y207243D01*
X110640Y207182D01*
X110525Y207182D01*
X108574Y205231D01*
X108574Y205116D01*
X108522Y204841D01*
X108359Y204586D01*
X108109Y204414D01*
X107812Y204354D01*
X107696Y204354D01*
X105745Y202403D01*
X105745Y202287D01*
X105694Y202013D01*
X105531Y201757D01*
X105280Y201586D01*
X104983Y201525D01*
X104868Y201525D01*
X102917Y199574D01*
X102917Y199459D01*
X102866Y199184D01*
X102702Y198929D01*
X102452Y198757D01*
X102155Y198697D01*
X102039Y198697D01*
X100088Y196746D01*
X100088Y196630D01*
X100037Y196356D01*
X99874Y196100D01*
X99624Y195929D01*
X99326Y195868D01*
X99211Y195868D01*
X97876Y194533D01*
X97634Y194370D01*
X97337Y194310D01*
X95857Y194310D01*
X95048Y193501D01*
X100353Y188197D01*
X99275Y187119D01*
X93970Y192424D01*
X93162Y191615D01*
X93162Y190135D01*
X93106Y189849D01*
X92938Y189596D01*
X91603Y188261D01*
X91603Y188145D01*
X91552Y187871D01*
X91388Y187615D01*
X91138Y187444D01*
X90841Y187383D01*
X90726Y187383D01*
X88775Y185432D01*
X88775Y185317D01*
X88723Y185042D01*
X88560Y184787D01*
X88310Y184615D01*
X88013Y184555D01*
X87897Y184555D01*
X85946Y182604D01*
X85946Y182488D01*
X85895Y182214D01*
X85732Y181958D01*
X85481Y181787D01*
X85184Y181726D01*
X85069Y181726D01*
X83118Y179775D01*
X83118Y179660D01*
X83067Y179385D01*
X82903Y179130D01*
X82653Y178958D01*
X82356Y178898D01*
X82240Y178898D01*
X80289Y176947D01*
X80289Y176831D01*
X80238Y176557D01*
X80075Y176301D01*
X79825Y176130D01*
X79527Y176069D01*
X79412Y176069D01*
X77461Y174118D01*
X77461Y172777D01*
X77405Y172491D01*
X77238Y172238D01*
X76739Y171739D01*
X76508Y171581D01*
G37*
G36*
X-42237Y337336D02*
X-41276Y337000D01*
X-40413Y336458D01*
X-39692Y335737D01*
X-39150Y334874D01*
X-38814Y333913D01*
X-38700Y332903D01*
X-38700Y324897D01*
X-38814Y323887D01*
X-39150Y322926D01*
X-39692Y322063D01*
X-40413Y321342D01*
X-41276Y320800D01*
X-42237Y320464D01*
X-43250Y320350D01*
X-44263Y320464D01*
X-45224Y320800D01*
X-46087Y321342D01*
X-46808Y322063D01*
X-47350Y322926D01*
X-47686Y323887D01*
X-47800Y324897D01*
X-47800Y332903D01*
X-47686Y333913D01*
X-47350Y334874D01*
X-46808Y335737D01*
X-46087Y336458D01*
X-45224Y337000D01*
X-44263Y337336D01*
X-43250Y337450D01*
X-42237Y337336D01*
G37*
G36*
X-42237Y337336D02*
X-41276Y337000D01*
X-40413Y336458D01*
X-39692Y335737D01*
X-39150Y334874D01*
X-38814Y333913D01*
X-38700Y332903D01*
X-38700Y324897D01*
X-38814Y323887D01*
X-39150Y322926D01*
X-39692Y322063D01*
X-40413Y321342D01*
X-41276Y320800D01*
X-42237Y320464D01*
X-43250Y320350D01*
X-44263Y320464D01*
X-45224Y320800D01*
X-46087Y321342D01*
X-46808Y322063D01*
X-47350Y322926D01*
X-47686Y323887D01*
X-47800Y324897D01*
X-47800Y332903D01*
X-47686Y333913D01*
X-47350Y334874D01*
X-46808Y335737D01*
X-46087Y336458D01*
X-45224Y337000D01*
X-44263Y337336D01*
X-43250Y337450D01*
X-42237Y337336D01*
G37*
G36*
X44263Y337336D02*
X45224Y337000D01*
X46087Y336458D01*
X46808Y335737D01*
X47350Y334874D01*
X47686Y333913D01*
X47800Y332903D01*
X47800Y324897D01*
X47686Y323887D01*
X47350Y322926D01*
X46808Y322063D01*
X46087Y321342D01*
X45224Y320800D01*
X44263Y320464D01*
X43250Y320350D01*
X42237Y320464D01*
X41276Y320800D01*
X40413Y321342D01*
X39692Y322063D01*
X39150Y322926D01*
X38814Y323887D01*
X38700Y324897D01*
X38700Y332903D01*
X38814Y333913D01*
X39150Y334874D01*
X39692Y335737D01*
X40413Y336458D01*
X41276Y337000D01*
X42237Y337336D01*
X43250Y337450D01*
X44263Y337336D01*
G37*
G36*
X44263Y337336D02*
X45224Y337000D01*
X46087Y336458D01*
X46808Y335737D01*
X47350Y334874D01*
X47686Y333913D01*
X47800Y332903D01*
X47800Y324897D01*
X47686Y323887D01*
X47350Y322926D01*
X46808Y322063D01*
X46087Y321342D01*
X45224Y320800D01*
X44263Y320464D01*
X43250Y320350D01*
X42237Y320464D01*
X41276Y320800D01*
X40413Y321342D01*
X39692Y322063D01*
X39150Y322926D01*
X38814Y323887D01*
X38700Y324897D01*
X38700Y332903D01*
X38814Y333913D01*
X39150Y334874D01*
X39692Y335737D01*
X40413Y336458D01*
X41276Y337000D01*
X42237Y337336D01*
X43250Y337450D01*
X44263Y337336D01*
G37*
G36*
X-42237Y297136D02*
X-41276Y296800D01*
X-40413Y296258D01*
X-39692Y295537D01*
X-39150Y294674D01*
X-38814Y293713D01*
X-38700Y292703D01*
X-38700Y281697D01*
X-38814Y280687D01*
X-39150Y279726D01*
X-39692Y278863D01*
X-40413Y278142D01*
X-41276Y277600D01*
X-42237Y277264D01*
X-43250Y277150D01*
X-44263Y277264D01*
X-45224Y277600D01*
X-46087Y278142D01*
X-46808Y278863D01*
X-47350Y279726D01*
X-47686Y280687D01*
X-47800Y281697D01*
X-47800Y292703D01*
X-47686Y293713D01*
X-47350Y294674D01*
X-46808Y295537D01*
X-46087Y296258D01*
X-45224Y296800D01*
X-44263Y297136D01*
X-43250Y297250D01*
X-42237Y297136D01*
G37*
G36*
X-42237Y297136D02*
X-41276Y296800D01*
X-40413Y296258D01*
X-39692Y295537D01*
X-39150Y294674D01*
X-38814Y293713D01*
X-38700Y292703D01*
X-38700Y281697D01*
X-38814Y280687D01*
X-39150Y279726D01*
X-39692Y278863D01*
X-40413Y278142D01*
X-41276Y277600D01*
X-42237Y277264D01*
X-43250Y277150D01*
X-44263Y277264D01*
X-45224Y277600D01*
X-46087Y278142D01*
X-46808Y278863D01*
X-47350Y279726D01*
X-47686Y280687D01*
X-47800Y281697D01*
X-47800Y292703D01*
X-47686Y293713D01*
X-47350Y294674D01*
X-46808Y295537D01*
X-46087Y296258D01*
X-45224Y296800D01*
X-44263Y297136D01*
X-43250Y297250D01*
X-42237Y297136D01*
G37*
G36*
X44263Y297136D02*
X45224Y296800D01*
X46087Y296258D01*
X46808Y295537D01*
X47350Y294674D01*
X47686Y293713D01*
X47800Y292703D01*
X47800Y281697D01*
X47686Y280687D01*
X47350Y279726D01*
X46808Y278863D01*
X46087Y278142D01*
X45224Y277600D01*
X44263Y277264D01*
X43250Y277150D01*
X42237Y277264D01*
X41276Y277600D01*
X40413Y278142D01*
X39692Y278863D01*
X39150Y279726D01*
X38814Y280687D01*
X38700Y281697D01*
X38700Y292703D01*
X38814Y293713D01*
X39150Y294674D01*
X39692Y295537D01*
X40413Y296258D01*
X41276Y296800D01*
X42237Y297136D01*
X43250Y297250D01*
X44263Y297136D01*
G37*
G36*
X44263Y297136D02*
X45224Y296800D01*
X46087Y296258D01*
X46808Y295537D01*
X47350Y294674D01*
X47686Y293713D01*
X47800Y292703D01*
X47800Y281697D01*
X47686Y280687D01*
X47350Y279726D01*
X46808Y278863D01*
X46087Y278142D01*
X45224Y277600D01*
X44263Y277264D01*
X43250Y277150D01*
X42237Y277264D01*
X41276Y277600D01*
X40413Y278142D01*
X39692Y278863D01*
X39150Y279726D01*
X38814Y280687D01*
X38700Y281697D01*
X38700Y292703D01*
X38814Y293713D01*
X39150Y294674D01*
X39692Y295537D01*
X40413Y296258D01*
X41276Y296800D01*
X42237Y297136D01*
X43250Y297250D01*
X44263Y297136D01*
G37*
D10*
X-209000Y240000D03*
D11*
X75900Y21054D03*
X75900Y30746D03*
D12*
G36*
X46816Y265223D02*
X50776Y261263D01*
X46330Y256817D01*
X42370Y260777D01*
X46816Y265223D01*
G37*
G36*
X39962Y272077D02*
X43922Y268117D01*
X39476Y263671D01*
X35516Y267631D01*
X39962Y272077D01*
G37*
G36*
X114317Y153246D02*
X110357Y157206D01*
X114803Y161652D01*
X118763Y157692D01*
X114317Y153246D01*
G37*
G36*
X121170Y146393D02*
X117210Y150353D01*
X121656Y154799D01*
X125616Y150839D01*
X121170Y146393D01*
G37*
G36*
X97559Y269048D02*
X93599Y265088D01*
X89153Y269534D01*
X93113Y273494D01*
X97559Y269048D01*
G37*
G36*
X104412Y275901D02*
X100452Y271941D01*
X96006Y276387D01*
X99966Y280347D01*
X104412Y275901D01*
G37*
G36*
X117776Y240230D02*
X113816Y236270D01*
X109370Y240716D01*
X113330Y244676D01*
X117776Y240230D01*
G37*
G36*
X124630Y247084D02*
X120670Y243124D01*
X116224Y247570D01*
X120184Y251530D01*
X124630Y247084D01*
G37*
G36*
X115331Y162925D02*
X111371Y166885D01*
X115817Y171331D01*
X119777Y167371D01*
X115331Y162925D01*
G37*
G36*
X122185Y156071D02*
X118225Y160031D01*
X122671Y164477D01*
X126631Y160517D01*
X122185Y156071D01*
G37*
X26546Y174323D03*
X16854Y174323D03*
X14446Y211000D03*
X4754Y211000D03*
G36*
X43570Y257676D02*
X47530Y253716D01*
X43084Y249270D01*
X39124Y253230D01*
X43570Y257676D01*
G37*
G36*
X36716Y264530D02*
X40676Y260570D01*
X36230Y256124D01*
X32270Y260084D01*
X36716Y264530D01*
G37*
X14646Y221900D03*
X4954Y221900D03*
G36*
X143670Y154376D02*
X147630Y150416D01*
X143184Y145970D01*
X139224Y149930D01*
X143670Y154376D01*
G37*
G36*
X136816Y161230D02*
X140776Y157270D01*
X136330Y152824D01*
X132370Y156784D01*
X136816Y161230D01*
G37*
D11*
X75800Y9646D03*
X75800Y-46D03*
D12*
G36*
X132224Y205370D02*
X136184Y209330D01*
X140630Y204884D01*
X136670Y200924D01*
X132224Y205370D01*
G37*
G36*
X125370Y198516D02*
X129330Y202476D01*
X133776Y198030D01*
X129816Y194070D01*
X125370Y198516D01*
G37*
G36*
X26870Y241876D02*
X30830Y237916D01*
X26384Y233470D01*
X22424Y237430D01*
X26870Y241876D01*
G37*
G36*
X20016Y248730D02*
X23976Y244770D01*
X19530Y240324D01*
X15570Y244284D01*
X20016Y248730D01*
G37*
X-207846Y265400D03*
X-198154Y265400D03*
G36*
X69045Y-102601D02*
X70960Y-97340D01*
X76869Y-99491D01*
X74954Y-104752D01*
X69045Y-102601D01*
G37*
G36*
X65731Y-111709D02*
X67646Y-106448D01*
X73555Y-108599D01*
X71640Y-113860D01*
X65731Y-111709D01*
G37*
X70946Y332700D03*
X61254Y332700D03*
X-75246Y82400D03*
X-65554Y82400D03*
D11*
X-95700Y31146D03*
X-95700Y21454D03*
D12*
X-99346Y326200D03*
X-89654Y326200D03*
X-97646Y285700D03*
X-87954Y285700D03*
G36*
X21570Y236476D02*
X25530Y232516D01*
X21084Y228070D01*
X17124Y232030D01*
X21570Y236476D01*
G37*
G36*
X14716Y243330D02*
X18676Y239370D01*
X14230Y234924D01*
X10270Y238884D01*
X14716Y243330D01*
G37*
D13*
X-157500Y-70000D03*
D10*
X-157500Y-50000D03*
X-157500Y-30000D03*
X-157500Y-10000D03*
X-157500Y10000D03*
X-157500Y30000D03*
X-157500Y50000D03*
X-157500Y70000D03*
D14*
X-187500Y-70000D03*
X-187500Y-50000D03*
X-187500Y-30000D03*
X-187500Y-10000D03*
X-187500Y10000D03*
X-187500Y30000D03*
X-187500Y50000D03*
X-187500Y70000D03*
D13*
X193329Y88498D03*
D10*
X193329Y68498D03*
X193329Y48498D03*
X193329Y28498D03*
X193329Y8498D03*
X193329Y-11502D03*
D15*
G36*
X145046Y-55746D02*
X158577Y-60671D01*
X153652Y-74202D01*
X140121Y-69277D01*
X145046Y-55746D01*
G37*
D10*
X142509Y-83768D03*
X135668Y-102562D03*
X128828Y-121356D03*
X121987Y-140150D03*
X115147Y-158944D03*
D14*
G36*
X104075Y-43176D02*
X141661Y-56855D01*
X138241Y-66252D01*
X100655Y-52573D01*
X104075Y-43176D01*
G37*
G36*
X97235Y-61970D02*
X134821Y-75649D01*
X131401Y-85046D01*
X93815Y-71367D01*
X97235Y-61970D01*
G37*
G36*
X90394Y-80763D02*
X127980Y-94442D01*
X124560Y-103839D01*
X86974Y-90160D01*
X90394Y-80763D01*
G37*
G36*
X83554Y-99557D02*
X121140Y-113236D01*
X117720Y-122633D01*
X80134Y-108954D01*
X83554Y-99557D01*
G37*
G36*
X76714Y-118351D02*
X114300Y-132030D01*
X110880Y-141427D01*
X73294Y-127748D01*
X76714Y-118351D01*
G37*
G36*
X69873Y-137145D02*
X107459Y-150824D01*
X104039Y-160221D01*
X66453Y-146542D01*
X69873Y-137145D01*
G37*
D13*
X-100500Y-137500D03*
D10*
X-120500Y-137500D03*
X-140500Y-137500D03*
X-160500Y-137500D03*
X-180500Y-137500D03*
X-200500Y-137500D03*
D16*
X-100500Y-167500D03*
X-120500Y-167500D03*
X-140500Y-167500D03*
X-160500Y-167500D03*
X-180500Y-167500D03*
X-200500Y-167500D03*
D17*
X-67300Y-154150D03*
X-67300Y-121450D03*
D10*
X-209000Y200000D03*
D18*
X-32000Y281400D03*
X-24000Y281400D03*
D19*
X-2500Y281400D03*
X-7500Y281400D03*
X-12500Y281400D03*
X-17500Y281400D03*
X2500Y281400D03*
X7500Y281400D03*
X12500Y281400D03*
X17500Y281400D03*
D18*
X24000Y281400D03*
X32000Y281400D03*
D20*
X-43250Y287200D03*
X43250Y287200D03*
X-43250Y328900D03*
X43250Y328900D03*
D21*
X-76800Y339800D03*
X-61800Y339800D03*
D10*
X-209000Y220000D03*
X-209000Y180000D03*
X-209000Y160000D03*
X-209000Y140000D03*
X-209000Y120000D03*
D22*
X107050Y22800D02*
X107050Y12000D01*
X107050Y22800D02*
X111550Y22800D01*
X111550Y12000D01*
X107050Y12000D01*
X107050Y13425D02*
X111550Y13425D01*
X111550Y14850D02*
X107050Y14850D01*
X107050Y16275D02*
X111550Y16275D01*
X111550Y17700D02*
X107050Y17700D01*
X107050Y19125D02*
X111550Y19125D01*
X111550Y20550D02*
X107050Y20550D01*
X107050Y21975D02*
X111550Y21975D01*
X116550Y1600D02*
X116550Y-9200D01*
X116550Y1600D02*
X121050Y1600D01*
X121050Y-9200D01*
X116550Y-9200D01*
X116550Y-7775D02*
X121050Y-7775D01*
X121050Y-6350D02*
X116550Y-6350D01*
X116550Y-4925D02*
X121050Y-4925D01*
X121050Y-3500D02*
X116550Y-3500D01*
X116550Y-2075D02*
X121050Y-2075D01*
X121050Y-650D02*
X116550Y-650D01*
X116550Y775D02*
X121050Y775D01*
X126050Y12000D02*
X126050Y22800D01*
X130550Y22800D01*
X130550Y12000D01*
X126050Y12000D01*
X126050Y13425D02*
X130550Y13425D01*
X130550Y14850D02*
X126050Y14850D01*
X126050Y16275D02*
X130550Y16275D01*
X130550Y17700D02*
X126050Y17700D01*
X126050Y19125D02*
X130550Y19125D01*
X130550Y20550D02*
X126050Y20550D01*
X126050Y21975D02*
X130550Y21975D01*
X-157550Y208800D02*
X-157550Y219600D01*
X-157550Y208800D02*
X-162050Y208800D01*
X-162050Y219600D01*
X-157550Y219600D01*
X-157550Y210225D02*
X-162050Y210225D01*
X-162050Y211650D02*
X-157550Y211650D01*
X-157550Y213075D02*
X-162050Y213075D01*
X-162050Y214500D02*
X-157550Y214500D01*
X-157550Y215925D02*
X-162050Y215925D01*
X-162050Y217350D02*
X-157550Y217350D01*
X-157550Y218775D02*
X-162050Y218775D01*
X-167050Y230000D02*
X-167050Y240800D01*
X-167050Y230000D02*
X-171550Y230000D01*
X-171550Y240800D01*
X-167050Y240800D01*
X-167050Y231425D02*
X-171550Y231425D01*
X-171550Y232850D02*
X-167050Y232850D01*
X-167050Y234275D02*
X-171550Y234275D01*
X-171550Y235700D02*
X-167050Y235700D01*
X-167050Y237125D02*
X-171550Y237125D01*
X-171550Y238550D02*
X-167050Y238550D01*
X-167050Y239975D02*
X-171550Y239975D01*
X-176550Y219600D02*
X-176550Y208800D01*
X-181050Y208800D01*
X-181050Y219600D01*
X-176550Y219600D01*
X-176550Y210225D02*
X-181050Y210225D01*
X-181050Y211650D02*
X-176550Y211650D01*
X-176550Y213075D02*
X-181050Y213075D01*
X-181050Y214500D02*
X-176550Y214500D01*
X-176550Y215925D02*
X-181050Y215925D01*
X-181050Y217350D02*
X-176550Y217350D01*
X-176550Y218775D02*
X-181050Y218775D01*
D23*
X-77600Y30275D03*
X-77600Y20125D03*
D24*
G36*
X120426Y168521D02*
X116643Y172304D01*
X121196Y176857D01*
X124979Y173074D01*
X120426Y168521D01*
G37*
G36*
X127604Y161343D02*
X123821Y165126D01*
X128374Y169679D01*
X132157Y165896D01*
X127604Y161343D01*
G37*
X123875Y33500D03*
X113725Y33500D03*
D23*
X141100Y-14375D03*
X141100Y-4225D03*
D24*
X-173575Y200300D03*
X-163425Y200300D03*
X-173775Y248700D03*
X-163625Y248700D03*
D23*
X185300Y293525D03*
X185300Y303675D03*
X-74800Y-41975D03*
X-74800Y-31825D03*
D24*
X-33625Y268100D03*
X-43775Y268100D03*
D23*
X57000Y311625D03*
X57000Y321775D03*
X185500Y312725D03*
X185500Y322875D03*
X176400Y322625D03*
X176400Y332775D03*
D24*
G36*
X37974Y252579D02*
X41757Y248796D01*
X37204Y244243D01*
X33421Y248026D01*
X37974Y252579D01*
G37*
G36*
X30796Y259757D02*
X34579Y255974D01*
X30026Y251421D01*
X26243Y255204D01*
X30796Y259757D01*
G37*
G36*
X32574Y247079D02*
X36357Y243296D01*
X31804Y238743D01*
X28021Y242526D01*
X32574Y247079D01*
G37*
G36*
X25396Y254257D02*
X29179Y250474D01*
X24626Y245921D01*
X20843Y249704D01*
X25396Y254257D01*
G37*
X-67425Y324500D03*
X-77575Y324500D03*
D25*
X-95700Y302000D03*
X-58700Y302000D03*
D26*
X53500Y56600D03*
X53500Y38800D03*
X53500Y21000D03*
X53500Y3200D03*
X53500Y-14600D03*
X53500Y-32400D03*
X53500Y-50200D03*
X53500Y-68000D03*
X-53500Y-76900D03*
X-53500Y-59100D03*
X-53500Y-41300D03*
X-53500Y-23500D03*
X-53500Y-5700D03*
X-53500Y12100D03*
X-53500Y29900D03*
X-53500Y47700D03*
D27*
X-95400Y68044D03*
X-85900Y68044D03*
X-76400Y68044D03*
X-76400Y45156D03*
X-95400Y45156D03*
D28*
X115751Y210258D02*
X116812Y211319D01*
X122397Y205734D01*
X121336Y204673D01*
X115751Y210258D01*
X120861Y205148D02*
X121811Y205148D01*
X122286Y205623D02*
X120386Y205623D01*
X119911Y206098D02*
X122033Y206098D01*
X121558Y206573D02*
X119436Y206573D01*
X118961Y207048D02*
X121083Y207048D01*
X120608Y207523D02*
X118486Y207523D01*
X118011Y207998D02*
X120133Y207998D01*
X119658Y208473D02*
X117536Y208473D01*
X117061Y208948D02*
X119183Y208948D01*
X118708Y209423D02*
X116586Y209423D01*
X116111Y209898D02*
X118233Y209898D01*
X117758Y210373D02*
X115866Y210373D01*
X116341Y210848D02*
X117283Y210848D01*
X113983Y208490D02*
X112922Y207429D01*
X113983Y208490D02*
X119568Y202905D01*
X118507Y201844D01*
X112922Y207429D01*
X118032Y202319D02*
X118982Y202319D01*
X119457Y202794D02*
X117557Y202794D01*
X117082Y203269D02*
X119204Y203269D01*
X118729Y203744D02*
X116607Y203744D01*
X116132Y204219D02*
X118254Y204219D01*
X117779Y204694D02*
X115657Y204694D01*
X115182Y205169D02*
X117304Y205169D01*
X116829Y205644D02*
X114707Y205644D01*
X114232Y206119D02*
X116354Y206119D01*
X115879Y206594D02*
X113757Y206594D01*
X113282Y207069D02*
X115404Y207069D01*
X114929Y207544D02*
X113037Y207544D01*
X113512Y208019D02*
X114454Y208019D01*
X111155Y205662D02*
X110094Y204601D01*
X111155Y205662D02*
X116740Y200077D01*
X115679Y199016D01*
X110094Y204601D01*
X115204Y199491D02*
X116154Y199491D01*
X116629Y199966D02*
X114729Y199966D01*
X114254Y200441D02*
X116376Y200441D01*
X115901Y200916D02*
X113779Y200916D01*
X113304Y201391D02*
X115426Y201391D01*
X114951Y201866D02*
X112829Y201866D01*
X112354Y202341D02*
X114476Y202341D01*
X114001Y202816D02*
X111879Y202816D01*
X111404Y203291D02*
X113526Y203291D01*
X113051Y203766D02*
X110929Y203766D01*
X110454Y204241D02*
X112576Y204241D01*
X112101Y204716D02*
X110209Y204716D01*
X110684Y205191D02*
X111626Y205191D01*
X108327Y202833D02*
X107266Y201772D01*
X108327Y202833D02*
X113912Y197248D01*
X112851Y196187D01*
X107266Y201772D01*
X112376Y196662D02*
X113326Y196662D01*
X113801Y197137D02*
X111901Y197137D01*
X111426Y197612D02*
X113548Y197612D01*
X113073Y198087D02*
X110951Y198087D01*
X110476Y198562D02*
X112598Y198562D01*
X112123Y199037D02*
X110001Y199037D01*
X109526Y199512D02*
X111648Y199512D01*
X111173Y199987D02*
X109051Y199987D01*
X108576Y200462D02*
X110698Y200462D01*
X110223Y200937D02*
X108101Y200937D01*
X107626Y201412D02*
X109748Y201412D01*
X109273Y201887D02*
X107381Y201887D01*
X107856Y202362D02*
X108798Y202362D01*
X105498Y200005D02*
X104437Y198944D01*
X105498Y200005D02*
X111083Y194420D01*
X110022Y193359D01*
X104437Y198944D01*
X109547Y193834D02*
X110497Y193834D01*
X110972Y194309D02*
X109072Y194309D01*
X108597Y194784D02*
X110719Y194784D01*
X110244Y195259D02*
X108122Y195259D01*
X107647Y195734D02*
X109769Y195734D01*
X109294Y196209D02*
X107172Y196209D01*
X106697Y196684D02*
X108819Y196684D01*
X108344Y197159D02*
X106222Y197159D01*
X105747Y197634D02*
X107869Y197634D01*
X107394Y198109D02*
X105272Y198109D01*
X104797Y198584D02*
X106919Y198584D01*
X106444Y199059D02*
X104552Y199059D01*
X105027Y199534D02*
X105969Y199534D01*
X102670Y197177D02*
X101609Y196116D01*
X102670Y197177D02*
X108255Y191592D01*
X107194Y190531D01*
X101609Y196116D01*
X106719Y191006D02*
X107669Y191006D01*
X108144Y191481D02*
X106244Y191481D01*
X105769Y191956D02*
X107891Y191956D01*
X107416Y192431D02*
X105294Y192431D01*
X104819Y192906D02*
X106941Y192906D01*
X106466Y193381D02*
X104344Y193381D01*
X103869Y193856D02*
X105991Y193856D01*
X105516Y194331D02*
X103394Y194331D01*
X102919Y194806D02*
X105041Y194806D01*
X104566Y195281D02*
X102444Y195281D01*
X101969Y195756D02*
X104091Y195756D01*
X103616Y196231D02*
X101724Y196231D01*
X102199Y196706D02*
X103141Y196706D01*
X99841Y194348D02*
X98780Y193287D01*
X99841Y194348D02*
X105426Y188763D01*
X104365Y187702D01*
X98780Y193287D01*
X103890Y188177D02*
X104840Y188177D01*
X105315Y188652D02*
X103415Y188652D01*
X102940Y189127D02*
X105062Y189127D01*
X104587Y189602D02*
X102465Y189602D01*
X101990Y190077D02*
X104112Y190077D01*
X103637Y190552D02*
X101515Y190552D01*
X101040Y191027D02*
X103162Y191027D01*
X102687Y191502D02*
X100565Y191502D01*
X100090Y191977D02*
X102212Y191977D01*
X101737Y192452D02*
X99615Y192452D01*
X99140Y192927D02*
X101262Y192927D01*
X100787Y193402D02*
X98895Y193402D01*
X99370Y193877D02*
X100312Y193877D01*
X97013Y191520D02*
X95952Y190459D01*
X97013Y191520D02*
X102598Y185935D01*
X101537Y184874D01*
X95952Y190459D01*
X101062Y185349D02*
X102012Y185349D01*
X102487Y185824D02*
X100587Y185824D01*
X100112Y186299D02*
X102234Y186299D01*
X101759Y186774D02*
X99637Y186774D01*
X99162Y187249D02*
X101284Y187249D01*
X100809Y187724D02*
X98687Y187724D01*
X98212Y188199D02*
X100334Y188199D01*
X99859Y188674D02*
X97737Y188674D01*
X97262Y189149D02*
X99384Y189149D01*
X98909Y189624D02*
X96787Y189624D01*
X96312Y190099D02*
X98434Y190099D01*
X97959Y190574D02*
X96067Y190574D01*
X96542Y191049D02*
X97484Y191049D01*
X94185Y188691D02*
X93124Y187630D01*
X94185Y188691D02*
X99770Y183106D01*
X98709Y182045D01*
X93124Y187630D01*
X98234Y182520D02*
X99184Y182520D01*
X99659Y182995D02*
X97759Y182995D01*
X97284Y183470D02*
X99406Y183470D01*
X98931Y183945D02*
X96809Y183945D01*
X96334Y184420D02*
X98456Y184420D01*
X97981Y184895D02*
X95859Y184895D01*
X95384Y185370D02*
X97506Y185370D01*
X97031Y185845D02*
X94909Y185845D01*
X94434Y186320D02*
X96556Y186320D01*
X96081Y186795D02*
X93959Y186795D01*
X93484Y187270D02*
X95606Y187270D01*
X95131Y187745D02*
X93239Y187745D01*
X93714Y188220D02*
X94656Y188220D01*
X91356Y185863D02*
X90295Y184802D01*
X91356Y185863D02*
X96941Y180278D01*
X95880Y179217D01*
X90295Y184802D01*
X95405Y179692D02*
X96355Y179692D01*
X96830Y180167D02*
X94930Y180167D01*
X94455Y180642D02*
X96577Y180642D01*
X96102Y181117D02*
X93980Y181117D01*
X93505Y181592D02*
X95627Y181592D01*
X95152Y182067D02*
X93030Y182067D01*
X92555Y182542D02*
X94677Y182542D01*
X94202Y183017D02*
X92080Y183017D01*
X91605Y183492D02*
X93727Y183492D01*
X93252Y183967D02*
X91130Y183967D01*
X90655Y184442D02*
X92777Y184442D01*
X92302Y184917D02*
X90410Y184917D01*
X90885Y185392D02*
X91827Y185392D01*
X88528Y183034D02*
X87467Y181973D01*
X88528Y183034D02*
X94113Y177449D01*
X93052Y176388D01*
X87467Y181973D01*
X92577Y176863D02*
X93527Y176863D01*
X94002Y177338D02*
X92102Y177338D01*
X91627Y177813D02*
X93749Y177813D01*
X93274Y178288D02*
X91152Y178288D01*
X90677Y178763D02*
X92799Y178763D01*
X92324Y179238D02*
X90202Y179238D01*
X89727Y179713D02*
X91849Y179713D01*
X91374Y180188D02*
X89252Y180188D01*
X88777Y180663D02*
X90899Y180663D01*
X90424Y181138D02*
X88302Y181138D01*
X87827Y181613D02*
X89949Y181613D01*
X89474Y182088D02*
X87582Y182088D01*
X88057Y182563D02*
X88999Y182563D01*
X85699Y180206D02*
X84638Y179145D01*
X85699Y180206D02*
X91284Y174621D01*
X90223Y173560D01*
X84638Y179145D01*
X89748Y174035D02*
X90698Y174035D01*
X91173Y174510D02*
X89273Y174510D01*
X88798Y174985D02*
X90920Y174985D01*
X90445Y175460D02*
X88323Y175460D01*
X87848Y175935D02*
X89970Y175935D01*
X89495Y176410D02*
X87373Y176410D01*
X86898Y176885D02*
X89020Y176885D01*
X88545Y177360D02*
X86423Y177360D01*
X85948Y177835D02*
X88070Y177835D01*
X87595Y178310D02*
X85473Y178310D01*
X84998Y178785D02*
X87120Y178785D01*
X86645Y179260D02*
X84753Y179260D01*
X85228Y179735D02*
X86170Y179735D01*
X82871Y177378D02*
X81810Y176317D01*
X82871Y177378D02*
X88456Y171793D01*
X87395Y170732D01*
X81810Y176317D01*
X86920Y171207D02*
X87870Y171207D01*
X88345Y171682D02*
X86445Y171682D01*
X85970Y172157D02*
X88092Y172157D01*
X87617Y172632D02*
X85495Y172632D01*
X85020Y173107D02*
X87142Y173107D01*
X86667Y173582D02*
X84545Y173582D01*
X84070Y174057D02*
X86192Y174057D01*
X85717Y174532D02*
X83595Y174532D01*
X83120Y175007D02*
X85242Y175007D01*
X84767Y175482D02*
X82645Y175482D01*
X82170Y175957D02*
X84292Y175957D01*
X83817Y176432D02*
X81925Y176432D01*
X82400Y176907D02*
X83342Y176907D01*
X80042Y174549D02*
X78981Y173488D01*
X80042Y174549D02*
X85627Y168964D01*
X84566Y167903D01*
X78981Y173488D01*
X84091Y168378D02*
X85041Y168378D01*
X85516Y168853D02*
X83616Y168853D01*
X83141Y169328D02*
X85263Y169328D01*
X84788Y169803D02*
X82666Y169803D01*
X82191Y170278D02*
X84313Y170278D01*
X83838Y170753D02*
X81716Y170753D01*
X81241Y171228D02*
X83363Y171228D01*
X82888Y171703D02*
X80766Y171703D01*
X80291Y172178D02*
X82413Y172178D01*
X81938Y172653D02*
X79816Y172653D01*
X79341Y173128D02*
X81463Y173128D01*
X80988Y173603D02*
X79096Y173603D01*
X79571Y174078D02*
X80513Y174078D01*
X31464Y223127D02*
X30403Y222066D01*
X31464Y223127D02*
X37049Y217542D01*
X35988Y216481D01*
X30403Y222066D01*
X35513Y216956D02*
X36463Y216956D01*
X36938Y217431D02*
X35038Y217431D01*
X34563Y217906D02*
X36685Y217906D01*
X36210Y218381D02*
X34088Y218381D01*
X33613Y218856D02*
X35735Y218856D01*
X35260Y219331D02*
X33138Y219331D01*
X32663Y219806D02*
X34785Y219806D01*
X34310Y220281D02*
X32188Y220281D01*
X31713Y220756D02*
X33835Y220756D01*
X33360Y221231D02*
X31238Y221231D01*
X30763Y221706D02*
X32885Y221706D01*
X32410Y222181D02*
X30518Y222181D01*
X30993Y222656D02*
X31935Y222656D01*
X33232Y224895D02*
X34293Y225956D01*
X39878Y220371D01*
X38817Y219310D01*
X33232Y224895D01*
X38342Y219785D02*
X39292Y219785D01*
X39767Y220260D02*
X37867Y220260D01*
X37392Y220735D02*
X39514Y220735D01*
X39039Y221210D02*
X36917Y221210D01*
X36442Y221685D02*
X38564Y221685D01*
X38089Y222160D02*
X35967Y222160D01*
X35492Y222635D02*
X37614Y222635D01*
X37139Y223110D02*
X35017Y223110D01*
X34542Y223585D02*
X36664Y223585D01*
X36189Y224060D02*
X34067Y224060D01*
X33592Y224535D02*
X35714Y224535D01*
X35239Y225010D02*
X33347Y225010D01*
X33822Y225485D02*
X34764Y225485D01*
X36060Y227723D02*
X37121Y228784D01*
X42706Y223199D01*
X41645Y222138D01*
X36060Y227723D01*
X41170Y222613D02*
X42120Y222613D01*
X42595Y223088D02*
X40695Y223088D01*
X40220Y223563D02*
X42342Y223563D01*
X41867Y224038D02*
X39745Y224038D01*
X39270Y224513D02*
X41392Y224513D01*
X40917Y224988D02*
X38795Y224988D01*
X38320Y225463D02*
X40442Y225463D01*
X39967Y225938D02*
X37845Y225938D01*
X37370Y226413D02*
X39492Y226413D01*
X39017Y226888D02*
X36895Y226888D01*
X36420Y227363D02*
X38542Y227363D01*
X38067Y227838D02*
X36175Y227838D01*
X36650Y228313D02*
X37592Y228313D01*
X38888Y230552D02*
X39949Y231613D01*
X45534Y226028D01*
X44473Y224967D01*
X38888Y230552D01*
X43998Y225442D02*
X44948Y225442D01*
X45423Y225917D02*
X43523Y225917D01*
X43048Y226392D02*
X45170Y226392D01*
X44695Y226867D02*
X42573Y226867D01*
X42098Y227342D02*
X44220Y227342D01*
X43745Y227817D02*
X41623Y227817D01*
X41148Y228292D02*
X43270Y228292D01*
X42795Y228767D02*
X40673Y228767D01*
X40198Y229242D02*
X42320Y229242D01*
X41845Y229717D02*
X39723Y229717D01*
X39248Y230192D02*
X41370Y230192D01*
X40895Y230667D02*
X39003Y230667D01*
X39478Y231142D02*
X40420Y231142D01*
X41717Y233380D02*
X42778Y234441D01*
X48363Y228856D01*
X47302Y227795D01*
X41717Y233380D01*
X46827Y228270D02*
X47777Y228270D01*
X48252Y228745D02*
X46352Y228745D01*
X45877Y229220D02*
X47999Y229220D01*
X47524Y229695D02*
X45402Y229695D01*
X44927Y230170D02*
X47049Y230170D01*
X46574Y230645D02*
X44452Y230645D01*
X43977Y231120D02*
X46099Y231120D01*
X45624Y231595D02*
X43502Y231595D01*
X43027Y232070D02*
X45149Y232070D01*
X44674Y232545D02*
X42552Y232545D01*
X42077Y233020D02*
X44199Y233020D01*
X43724Y233495D02*
X41832Y233495D01*
X42307Y233970D02*
X43249Y233970D01*
X44545Y236208D02*
X45606Y237269D01*
X51191Y231684D01*
X50130Y230623D01*
X44545Y236208D01*
X49655Y231098D02*
X50605Y231098D01*
X51080Y231573D02*
X49180Y231573D01*
X48705Y232048D02*
X50827Y232048D01*
X50352Y232523D02*
X48230Y232523D01*
X47755Y232998D02*
X49877Y232998D01*
X49402Y233473D02*
X47280Y233473D01*
X46805Y233948D02*
X48927Y233948D01*
X48452Y234423D02*
X46330Y234423D01*
X45855Y234898D02*
X47977Y234898D01*
X47502Y235373D02*
X45380Y235373D01*
X44905Y235848D02*
X47027Y235848D01*
X46552Y236323D02*
X44660Y236323D01*
X45135Y236798D02*
X46077Y236798D01*
X47374Y239037D02*
X48435Y240098D01*
X54020Y234513D01*
X52959Y233452D01*
X47374Y239037D01*
X52484Y233927D02*
X53434Y233927D01*
X53909Y234402D02*
X52009Y234402D01*
X51534Y234877D02*
X53656Y234877D01*
X53181Y235352D02*
X51059Y235352D01*
X50584Y235827D02*
X52706Y235827D01*
X52231Y236302D02*
X50109Y236302D01*
X49634Y236777D02*
X51756Y236777D01*
X51281Y237252D02*
X49159Y237252D01*
X48684Y237727D02*
X50806Y237727D01*
X50331Y238202D02*
X48209Y238202D01*
X47734Y238677D02*
X49856Y238677D01*
X49381Y239152D02*
X47489Y239152D01*
X47964Y239627D02*
X48906Y239627D01*
X50202Y241865D02*
X51263Y242926D01*
X56848Y237341D01*
X55787Y236280D01*
X50202Y241865D01*
X55312Y236755D02*
X56262Y236755D01*
X56737Y237230D02*
X54837Y237230D01*
X54362Y237705D02*
X56484Y237705D01*
X56009Y238180D02*
X53887Y238180D01*
X53412Y238655D02*
X55534Y238655D01*
X55059Y239130D02*
X52937Y239130D01*
X52462Y239605D02*
X54584Y239605D01*
X54109Y240080D02*
X51987Y240080D01*
X51512Y240555D02*
X53634Y240555D01*
X53159Y241030D02*
X51037Y241030D01*
X50562Y241505D02*
X52684Y241505D01*
X52209Y241980D02*
X50317Y241980D01*
X50792Y242455D02*
X51734Y242455D01*
X53031Y244694D02*
X54092Y245755D01*
X59677Y240170D01*
X58616Y239109D01*
X53031Y244694D01*
X58141Y239584D02*
X59091Y239584D01*
X59566Y240059D02*
X57666Y240059D01*
X57191Y240534D02*
X59313Y240534D01*
X58838Y241009D02*
X56716Y241009D01*
X56241Y241484D02*
X58363Y241484D01*
X57888Y241959D02*
X55766Y241959D01*
X55291Y242434D02*
X57413Y242434D01*
X56938Y242909D02*
X54816Y242909D01*
X54341Y243384D02*
X56463Y243384D01*
X55988Y243859D02*
X53866Y243859D01*
X53391Y244334D02*
X55513Y244334D01*
X55038Y244809D02*
X53146Y244809D01*
X53621Y245284D02*
X54563Y245284D01*
X55859Y247522D02*
X56920Y248583D01*
X62505Y242998D01*
X61444Y241937D01*
X55859Y247522D01*
X60969Y242412D02*
X61919Y242412D01*
X62394Y242887D02*
X60494Y242887D01*
X60019Y243362D02*
X62141Y243362D01*
X61666Y243837D02*
X59544Y243837D01*
X59069Y244312D02*
X61191Y244312D01*
X60716Y244787D02*
X58594Y244787D01*
X58119Y245262D02*
X60241Y245262D01*
X59766Y245737D02*
X57644Y245737D01*
X57169Y246212D02*
X59291Y246212D01*
X58816Y246687D02*
X56694Y246687D01*
X56219Y247162D02*
X58341Y247162D01*
X57866Y247637D02*
X55974Y247637D01*
X56449Y248112D02*
X57391Y248112D01*
X58687Y250351D02*
X59748Y251412D01*
X65333Y245827D01*
X64272Y244766D01*
X58687Y250351D01*
X63797Y245241D02*
X64747Y245241D01*
X65222Y245716D02*
X63322Y245716D01*
X62847Y246191D02*
X64969Y246191D01*
X64494Y246666D02*
X62372Y246666D01*
X61897Y247141D02*
X64019Y247141D01*
X63544Y247616D02*
X61422Y247616D01*
X60947Y248091D02*
X63069Y248091D01*
X62594Y248566D02*
X60472Y248566D01*
X59997Y249041D02*
X62119Y249041D01*
X61644Y249516D02*
X59522Y249516D01*
X59047Y249991D02*
X61169Y249991D01*
X60694Y250466D02*
X58802Y250466D01*
X59277Y250941D02*
X60219Y250941D01*
X61516Y253179D02*
X62577Y254240D01*
X68162Y248655D01*
X67101Y247594D01*
X61516Y253179D01*
X66626Y248069D02*
X67576Y248069D01*
X68051Y248544D02*
X66151Y248544D01*
X65676Y249019D02*
X67798Y249019D01*
X67323Y249494D02*
X65201Y249494D01*
X64726Y249969D02*
X66848Y249969D01*
X66373Y250444D02*
X64251Y250444D01*
X63776Y250919D02*
X65898Y250919D01*
X65423Y251394D02*
X63301Y251394D01*
X62826Y251869D02*
X64948Y251869D01*
X64473Y252344D02*
X62351Y252344D01*
X61876Y252819D02*
X63998Y252819D01*
X63523Y253294D02*
X61631Y253294D01*
X62106Y253769D02*
X63048Y253769D01*
X64344Y256007D02*
X65405Y257068D01*
X70990Y251483D01*
X69929Y250422D01*
X64344Y256007D01*
X69454Y250897D02*
X70404Y250897D01*
X70879Y251372D02*
X68979Y251372D01*
X68504Y251847D02*
X70626Y251847D01*
X70151Y252322D02*
X68029Y252322D01*
X67554Y252797D02*
X69676Y252797D01*
X69201Y253272D02*
X67079Y253272D01*
X66604Y253747D02*
X68726Y253747D01*
X68251Y254222D02*
X66129Y254222D01*
X65654Y254697D02*
X67776Y254697D01*
X67301Y255172D02*
X65179Y255172D01*
X64704Y255647D02*
X66826Y255647D01*
X66351Y256122D02*
X64459Y256122D01*
X64934Y256597D02*
X65876Y256597D01*
X67173Y258836D02*
X68234Y259897D01*
X73819Y254312D01*
X72758Y253251D01*
X67173Y258836D01*
X72283Y253726D02*
X73233Y253726D01*
X73708Y254201D02*
X71808Y254201D01*
X71333Y254676D02*
X73455Y254676D01*
X72980Y255151D02*
X70858Y255151D01*
X70383Y255626D02*
X72505Y255626D01*
X72030Y256101D02*
X69908Y256101D01*
X69433Y256576D02*
X71555Y256576D01*
X71080Y257051D02*
X68958Y257051D01*
X68483Y257526D02*
X70605Y257526D01*
X70130Y258001D02*
X68008Y258001D01*
X67533Y258476D02*
X69655Y258476D01*
X69180Y258951D02*
X67288Y258951D01*
X67763Y259426D02*
X68705Y259426D01*
X78981Y254312D02*
X84566Y259897D01*
X85627Y258836D01*
X80042Y253251D01*
X78981Y254312D01*
X79567Y253726D02*
X80517Y253726D01*
X80992Y254201D02*
X79092Y254201D01*
X79345Y254676D02*
X81467Y254676D01*
X81942Y255151D02*
X79820Y255151D01*
X80295Y255626D02*
X82417Y255626D01*
X82892Y256101D02*
X80770Y256101D01*
X81245Y256576D02*
X83367Y256576D01*
X83842Y257051D02*
X81720Y257051D01*
X82195Y257526D02*
X84317Y257526D01*
X84792Y258001D02*
X82670Y258001D01*
X83145Y258476D02*
X85267Y258476D01*
X85512Y258951D02*
X83620Y258951D01*
X84095Y259426D02*
X85037Y259426D01*
X87395Y257068D02*
X81810Y251483D01*
X87395Y257068D02*
X88456Y256007D01*
X82871Y250422D01*
X81810Y251483D01*
X82396Y250897D02*
X83346Y250897D01*
X83821Y251372D02*
X81921Y251372D01*
X82174Y251847D02*
X84296Y251847D01*
X84771Y252322D02*
X82649Y252322D01*
X83124Y252797D02*
X85246Y252797D01*
X85721Y253272D02*
X83599Y253272D01*
X84074Y253747D02*
X86196Y253747D01*
X86671Y254222D02*
X84549Y254222D01*
X85024Y254697D02*
X87146Y254697D01*
X87621Y255172D02*
X85499Y255172D01*
X85974Y255647D02*
X88096Y255647D01*
X88341Y256122D02*
X86449Y256122D01*
X86924Y256597D02*
X87866Y256597D01*
X90223Y254240D02*
X84638Y248655D01*
X90223Y254240D02*
X91284Y253179D01*
X85699Y247594D01*
X84638Y248655D01*
X85224Y248069D02*
X86174Y248069D01*
X86649Y248544D02*
X84749Y248544D01*
X85002Y249019D02*
X87124Y249019D01*
X87599Y249494D02*
X85477Y249494D01*
X85952Y249969D02*
X88074Y249969D01*
X88549Y250444D02*
X86427Y250444D01*
X86902Y250919D02*
X89024Y250919D01*
X89499Y251394D02*
X87377Y251394D01*
X87852Y251869D02*
X89974Y251869D01*
X90449Y252344D02*
X88327Y252344D01*
X88802Y252819D02*
X90924Y252819D01*
X91169Y253294D02*
X89277Y253294D01*
X89752Y253769D02*
X90694Y253769D01*
X93052Y251412D02*
X87467Y245827D01*
X93052Y251412D02*
X94113Y250351D01*
X88528Y244766D01*
X87467Y245827D01*
X88053Y245241D02*
X89003Y245241D01*
X89478Y245716D02*
X87578Y245716D01*
X87831Y246191D02*
X89953Y246191D01*
X90428Y246666D02*
X88306Y246666D01*
X88781Y247141D02*
X90903Y247141D01*
X91378Y247616D02*
X89256Y247616D01*
X89731Y248091D02*
X91853Y248091D01*
X92328Y248566D02*
X90206Y248566D01*
X90681Y249041D02*
X92803Y249041D01*
X93278Y249516D02*
X91156Y249516D01*
X91631Y249991D02*
X93753Y249991D01*
X93998Y250466D02*
X92106Y250466D01*
X92581Y250941D02*
X93523Y250941D01*
X95880Y248583D02*
X90295Y242998D01*
X95880Y248583D02*
X96941Y247522D01*
X91356Y241937D01*
X90295Y242998D01*
X90881Y242412D02*
X91831Y242412D01*
X92306Y242887D02*
X90406Y242887D01*
X90659Y243362D02*
X92781Y243362D01*
X93256Y243837D02*
X91134Y243837D01*
X91609Y244312D02*
X93731Y244312D01*
X94206Y244787D02*
X92084Y244787D01*
X92559Y245262D02*
X94681Y245262D01*
X95156Y245737D02*
X93034Y245737D01*
X93509Y246212D02*
X95631Y246212D01*
X96106Y246687D02*
X93984Y246687D01*
X94459Y247162D02*
X96581Y247162D01*
X96826Y247637D02*
X94934Y247637D01*
X95409Y248112D02*
X96351Y248112D01*
X98709Y245755D02*
X93124Y240170D01*
X98709Y245755D02*
X99770Y244694D01*
X94185Y239109D01*
X93124Y240170D01*
X93710Y239584D02*
X94660Y239584D01*
X95135Y240059D02*
X93235Y240059D01*
X93488Y240534D02*
X95610Y240534D01*
X96085Y241009D02*
X93963Y241009D01*
X94438Y241484D02*
X96560Y241484D01*
X97035Y241959D02*
X94913Y241959D01*
X95388Y242434D02*
X97510Y242434D01*
X97985Y242909D02*
X95863Y242909D01*
X96338Y243384D02*
X98460Y243384D01*
X98935Y243859D02*
X96813Y243859D01*
X97288Y244334D02*
X99410Y244334D01*
X99655Y244809D02*
X97763Y244809D01*
X98238Y245284D02*
X99180Y245284D01*
X101537Y242926D02*
X95952Y237341D01*
X101537Y242926D02*
X102598Y241865D01*
X97013Y236280D01*
X95952Y237341D01*
X96538Y236755D02*
X97488Y236755D01*
X97963Y237230D02*
X96063Y237230D01*
X96316Y237705D02*
X98438Y237705D01*
X98913Y238180D02*
X96791Y238180D01*
X97266Y238655D02*
X99388Y238655D01*
X99863Y239130D02*
X97741Y239130D01*
X98216Y239605D02*
X100338Y239605D01*
X100813Y240080D02*
X98691Y240080D01*
X99166Y240555D02*
X101288Y240555D01*
X101763Y241030D02*
X99641Y241030D01*
X100116Y241505D02*
X102238Y241505D01*
X102483Y241980D02*
X100591Y241980D01*
X101066Y242455D02*
X102008Y242455D01*
X104365Y240098D02*
X98780Y234513D01*
X104365Y240098D02*
X105426Y239037D01*
X99841Y233452D01*
X98780Y234513D01*
X99366Y233927D02*
X100316Y233927D01*
X100791Y234402D02*
X98891Y234402D01*
X99144Y234877D02*
X101266Y234877D01*
X101741Y235352D02*
X99619Y235352D01*
X100094Y235827D02*
X102216Y235827D01*
X102691Y236302D02*
X100569Y236302D01*
X101044Y236777D02*
X103166Y236777D01*
X103641Y237252D02*
X101519Y237252D01*
X101994Y237727D02*
X104116Y237727D01*
X104591Y238202D02*
X102469Y238202D01*
X102944Y238677D02*
X105066Y238677D01*
X105311Y239152D02*
X103419Y239152D01*
X103894Y239627D02*
X104836Y239627D01*
X107194Y237269D02*
X101609Y231684D01*
X107194Y237269D02*
X108255Y236208D01*
X102670Y230623D01*
X101609Y231684D01*
X102195Y231098D02*
X103145Y231098D01*
X103620Y231573D02*
X101720Y231573D01*
X101973Y232048D02*
X104095Y232048D01*
X104570Y232523D02*
X102448Y232523D01*
X102923Y232998D02*
X105045Y232998D01*
X105520Y233473D02*
X103398Y233473D01*
X103873Y233948D02*
X105995Y233948D01*
X106470Y234423D02*
X104348Y234423D01*
X104823Y234898D02*
X106945Y234898D01*
X107420Y235373D02*
X105298Y235373D01*
X105773Y235848D02*
X107895Y235848D01*
X108140Y236323D02*
X106248Y236323D01*
X106723Y236798D02*
X107665Y236798D01*
X110022Y234441D02*
X104437Y228856D01*
X110022Y234441D02*
X111083Y233380D01*
X105498Y227795D01*
X104437Y228856D01*
X105023Y228270D02*
X105973Y228270D01*
X106448Y228745D02*
X104548Y228745D01*
X104801Y229220D02*
X106923Y229220D01*
X107398Y229695D02*
X105276Y229695D01*
X105751Y230170D02*
X107873Y230170D01*
X108348Y230645D02*
X106226Y230645D01*
X106701Y231120D02*
X108823Y231120D01*
X109298Y231595D02*
X107176Y231595D01*
X107651Y232070D02*
X109773Y232070D01*
X110248Y232545D02*
X108126Y232545D01*
X108601Y233020D02*
X110723Y233020D01*
X110968Y233495D02*
X109076Y233495D01*
X109551Y233970D02*
X110493Y233970D01*
X112851Y231613D02*
X107266Y226028D01*
X112851Y231613D02*
X113912Y230552D01*
X108327Y224967D01*
X107266Y226028D01*
X107852Y225442D02*
X108802Y225442D01*
X109277Y225917D02*
X107377Y225917D01*
X107630Y226392D02*
X109752Y226392D01*
X110227Y226867D02*
X108105Y226867D01*
X108580Y227342D02*
X110702Y227342D01*
X111177Y227817D02*
X109055Y227817D01*
X109530Y228292D02*
X111652Y228292D01*
X112127Y228767D02*
X110005Y228767D01*
X110480Y229242D02*
X112602Y229242D01*
X113077Y229717D02*
X110955Y229717D01*
X111430Y230192D02*
X113552Y230192D01*
X113797Y230667D02*
X111905Y230667D01*
X112380Y231142D02*
X113322Y231142D01*
X115679Y228784D02*
X110094Y223199D01*
X115679Y228784D02*
X116740Y227723D01*
X111155Y222138D01*
X110094Y223199D01*
X110680Y222613D02*
X111630Y222613D01*
X112105Y223088D02*
X110205Y223088D01*
X110458Y223563D02*
X112580Y223563D01*
X113055Y224038D02*
X110933Y224038D01*
X111408Y224513D02*
X113530Y224513D01*
X114005Y224988D02*
X111883Y224988D01*
X112358Y225463D02*
X114480Y225463D01*
X114955Y225938D02*
X112833Y225938D01*
X113308Y226413D02*
X115430Y226413D01*
X115905Y226888D02*
X113783Y226888D01*
X114258Y227363D02*
X116380Y227363D01*
X116625Y227838D02*
X114733Y227838D01*
X115208Y228313D02*
X116150Y228313D01*
X118507Y225956D02*
X112922Y220371D01*
X118507Y225956D02*
X119568Y224895D01*
X113983Y219310D01*
X112922Y220371D01*
X113508Y219785D02*
X114458Y219785D01*
X114933Y220260D02*
X113033Y220260D01*
X113286Y220735D02*
X115408Y220735D01*
X115883Y221210D02*
X113761Y221210D01*
X114236Y221685D02*
X116358Y221685D01*
X116833Y222160D02*
X114711Y222160D01*
X115186Y222635D02*
X117308Y222635D01*
X117783Y223110D02*
X115661Y223110D01*
X116136Y223585D02*
X118258Y223585D01*
X118733Y224060D02*
X116611Y224060D01*
X117086Y224535D02*
X119208Y224535D01*
X119453Y225010D02*
X117561Y225010D01*
X118036Y225485D02*
X118978Y225485D01*
X121336Y223127D02*
X115751Y217542D01*
X121336Y223127D02*
X122397Y222066D01*
X116812Y216481D01*
X115751Y217542D01*
X116337Y216956D02*
X117287Y216956D01*
X117762Y217431D02*
X115862Y217431D01*
X116115Y217906D02*
X118237Y217906D01*
X118712Y218381D02*
X116590Y218381D01*
X117065Y218856D02*
X119187Y218856D01*
X119662Y219331D02*
X117540Y219331D01*
X118015Y219806D02*
X120137Y219806D01*
X120612Y220281D02*
X118490Y220281D01*
X118965Y220756D02*
X121087Y220756D01*
X121562Y221231D02*
X119440Y221231D01*
X119915Y221706D02*
X122037Y221706D01*
X122282Y222181D02*
X120390Y222181D01*
X120865Y222656D02*
X121807Y222656D01*
X72758Y174549D02*
X67173Y168964D01*
X72758Y174549D02*
X73819Y173488D01*
X68234Y167903D01*
X67173Y168964D01*
X67759Y168378D02*
X68709Y168378D01*
X69184Y168853D02*
X67284Y168853D01*
X67537Y169328D02*
X69659Y169328D01*
X70134Y169803D02*
X68012Y169803D01*
X68487Y170278D02*
X70609Y170278D01*
X71084Y170753D02*
X68962Y170753D01*
X69437Y171228D02*
X71559Y171228D01*
X72034Y171703D02*
X69912Y171703D01*
X70387Y172178D02*
X72509Y172178D01*
X72984Y172653D02*
X70862Y172653D01*
X71337Y173128D02*
X73459Y173128D01*
X73704Y173603D02*
X71812Y173603D01*
X72287Y174078D02*
X73229Y174078D01*
X69929Y177378D02*
X64344Y171793D01*
X69929Y177378D02*
X70990Y176317D01*
X65405Y170732D01*
X64344Y171793D01*
X64930Y171207D02*
X65880Y171207D01*
X66355Y171682D02*
X64455Y171682D01*
X64708Y172157D02*
X66830Y172157D01*
X67305Y172632D02*
X65183Y172632D01*
X65658Y173107D02*
X67780Y173107D01*
X68255Y173582D02*
X66133Y173582D01*
X66608Y174057D02*
X68730Y174057D01*
X69205Y174532D02*
X67083Y174532D01*
X67558Y175007D02*
X69680Y175007D01*
X70155Y175482D02*
X68033Y175482D01*
X68508Y175957D02*
X70630Y175957D01*
X70875Y176432D02*
X68983Y176432D01*
X69458Y176907D02*
X70400Y176907D01*
X67101Y180206D02*
X61516Y174621D01*
X67101Y180206D02*
X68162Y179145D01*
X62577Y173560D01*
X61516Y174621D01*
X62102Y174035D02*
X63052Y174035D01*
X63527Y174510D02*
X61627Y174510D01*
X61880Y174985D02*
X64002Y174985D01*
X64477Y175460D02*
X62355Y175460D01*
X62830Y175935D02*
X64952Y175935D01*
X65427Y176410D02*
X63305Y176410D01*
X63780Y176885D02*
X65902Y176885D01*
X66377Y177360D02*
X64255Y177360D01*
X64730Y177835D02*
X66852Y177835D01*
X67327Y178310D02*
X65205Y178310D01*
X65680Y178785D02*
X67802Y178785D01*
X68047Y179260D02*
X66155Y179260D01*
X66630Y179735D02*
X67572Y179735D01*
X64272Y183034D02*
X58687Y177449D01*
X64272Y183034D02*
X65333Y181973D01*
X59748Y176388D01*
X58687Y177449D01*
X59273Y176863D02*
X60223Y176863D01*
X60698Y177338D02*
X58798Y177338D01*
X59051Y177813D02*
X61173Y177813D01*
X61648Y178288D02*
X59526Y178288D01*
X60001Y178763D02*
X62123Y178763D01*
X62598Y179238D02*
X60476Y179238D01*
X60951Y179713D02*
X63073Y179713D01*
X63548Y180188D02*
X61426Y180188D01*
X61901Y180663D02*
X64023Y180663D01*
X64498Y181138D02*
X62376Y181138D01*
X62851Y181613D02*
X64973Y181613D01*
X65218Y182088D02*
X63326Y182088D01*
X63801Y182563D02*
X64743Y182563D01*
X61444Y185863D02*
X55859Y180278D01*
X61444Y185863D02*
X62505Y184802D01*
X56920Y179217D01*
X55859Y180278D01*
X56445Y179692D02*
X57395Y179692D01*
X57870Y180167D02*
X55970Y180167D01*
X56223Y180642D02*
X58345Y180642D01*
X58820Y181117D02*
X56698Y181117D01*
X57173Y181592D02*
X59295Y181592D01*
X59770Y182067D02*
X57648Y182067D01*
X58123Y182542D02*
X60245Y182542D01*
X60720Y183017D02*
X58598Y183017D01*
X59073Y183492D02*
X61195Y183492D01*
X61670Y183967D02*
X59548Y183967D01*
X60023Y184442D02*
X62145Y184442D01*
X62390Y184917D02*
X60498Y184917D01*
X60973Y185392D02*
X61915Y185392D01*
X58616Y188691D02*
X53031Y183106D01*
X58616Y188691D02*
X59677Y187630D01*
X54092Y182045D01*
X53031Y183106D01*
X53617Y182520D02*
X54567Y182520D01*
X55042Y182995D02*
X53142Y182995D01*
X53395Y183470D02*
X55517Y183470D01*
X55992Y183945D02*
X53870Y183945D01*
X54345Y184420D02*
X56467Y184420D01*
X56942Y184895D02*
X54820Y184895D01*
X55295Y185370D02*
X57417Y185370D01*
X57892Y185845D02*
X55770Y185845D01*
X56245Y186320D02*
X58367Y186320D01*
X58842Y186795D02*
X56720Y186795D01*
X57195Y187270D02*
X59317Y187270D01*
X59562Y187745D02*
X57670Y187745D01*
X58145Y188220D02*
X59087Y188220D01*
X55787Y191520D02*
X50202Y185935D01*
X55787Y191520D02*
X56848Y190459D01*
X51263Y184874D01*
X50202Y185935D01*
X50788Y185349D02*
X51738Y185349D01*
X52213Y185824D02*
X50313Y185824D01*
X50566Y186299D02*
X52688Y186299D01*
X53163Y186774D02*
X51041Y186774D01*
X51516Y187249D02*
X53638Y187249D01*
X54113Y187724D02*
X51991Y187724D01*
X52466Y188199D02*
X54588Y188199D01*
X55063Y188674D02*
X52941Y188674D01*
X53416Y189149D02*
X55538Y189149D01*
X56013Y189624D02*
X53891Y189624D01*
X54366Y190099D02*
X56488Y190099D01*
X56733Y190574D02*
X54841Y190574D01*
X55316Y191049D02*
X56258Y191049D01*
X52959Y194348D02*
X47374Y188763D01*
X52959Y194348D02*
X54020Y193287D01*
X48435Y187702D01*
X47374Y188763D01*
X47960Y188177D02*
X48910Y188177D01*
X49385Y188652D02*
X47485Y188652D01*
X47738Y189127D02*
X49860Y189127D01*
X50335Y189602D02*
X48213Y189602D01*
X48688Y190077D02*
X50810Y190077D01*
X51285Y190552D02*
X49163Y190552D01*
X49638Y191027D02*
X51760Y191027D01*
X52235Y191502D02*
X50113Y191502D01*
X50588Y191977D02*
X52710Y191977D01*
X53185Y192452D02*
X51063Y192452D01*
X51538Y192927D02*
X53660Y192927D01*
X53905Y193402D02*
X52013Y193402D01*
X52488Y193877D02*
X53430Y193877D01*
X50130Y197177D02*
X44545Y191592D01*
X50130Y197177D02*
X51191Y196116D01*
X45606Y190531D01*
X44545Y191592D01*
X45131Y191006D02*
X46081Y191006D01*
X46556Y191481D02*
X44656Y191481D01*
X44909Y191956D02*
X47031Y191956D01*
X47506Y192431D02*
X45384Y192431D01*
X45859Y192906D02*
X47981Y192906D01*
X48456Y193381D02*
X46334Y193381D01*
X46809Y193856D02*
X48931Y193856D01*
X49406Y194331D02*
X47284Y194331D01*
X47759Y194806D02*
X49881Y194806D01*
X50356Y195281D02*
X48234Y195281D01*
X48709Y195756D02*
X50831Y195756D01*
X51076Y196231D02*
X49184Y196231D01*
X49659Y196706D02*
X50601Y196706D01*
X47302Y200005D02*
X41717Y194420D01*
X47302Y200005D02*
X48363Y198944D01*
X42778Y193359D01*
X41717Y194420D01*
X42303Y193834D02*
X43253Y193834D01*
X43728Y194309D02*
X41828Y194309D01*
X42081Y194784D02*
X44203Y194784D01*
X44678Y195259D02*
X42556Y195259D01*
X43031Y195734D02*
X45153Y195734D01*
X45628Y196209D02*
X43506Y196209D01*
X43981Y196684D02*
X46103Y196684D01*
X46578Y197159D02*
X44456Y197159D01*
X44931Y197634D02*
X47053Y197634D01*
X47528Y198109D02*
X45406Y198109D01*
X45881Y198584D02*
X48003Y198584D01*
X48248Y199059D02*
X46356Y199059D01*
X46831Y199534D02*
X47773Y199534D01*
X44473Y202833D02*
X38888Y197248D01*
X44473Y202833D02*
X45534Y201772D01*
X39949Y196187D01*
X38888Y197248D01*
X39474Y196662D02*
X40424Y196662D01*
X40899Y197137D02*
X38999Y197137D01*
X39252Y197612D02*
X41374Y197612D01*
X41849Y198087D02*
X39727Y198087D01*
X40202Y198562D02*
X42324Y198562D01*
X42799Y199037D02*
X40677Y199037D01*
X41152Y199512D02*
X43274Y199512D01*
X43749Y199987D02*
X41627Y199987D01*
X42102Y200462D02*
X44224Y200462D01*
X44699Y200937D02*
X42577Y200937D01*
X43052Y201412D02*
X45174Y201412D01*
X45419Y201887D02*
X43527Y201887D01*
X44002Y202362D02*
X44944Y202362D01*
X41645Y205662D02*
X36060Y200077D01*
X41645Y205662D02*
X42706Y204601D01*
X37121Y199016D01*
X36060Y200077D01*
X36646Y199491D02*
X37596Y199491D01*
X38071Y199966D02*
X36171Y199966D01*
X36424Y200441D02*
X38546Y200441D01*
X39021Y200916D02*
X36899Y200916D01*
X37374Y201391D02*
X39496Y201391D01*
X39971Y201866D02*
X37849Y201866D01*
X38324Y202341D02*
X40446Y202341D01*
X40921Y202816D02*
X38799Y202816D01*
X39274Y203291D02*
X41396Y203291D01*
X41871Y203766D02*
X39749Y203766D01*
X40224Y204241D02*
X42346Y204241D01*
X42591Y204716D02*
X40699Y204716D01*
X41174Y205191D02*
X42116Y205191D01*
X38817Y208490D02*
X33232Y202905D01*
X38817Y208490D02*
X39878Y207429D01*
X34293Y201844D01*
X33232Y202905D01*
X33818Y202319D02*
X34768Y202319D01*
X35243Y202794D02*
X33343Y202794D01*
X33596Y203269D02*
X35718Y203269D01*
X36193Y203744D02*
X34071Y203744D01*
X34546Y204219D02*
X36668Y204219D01*
X37143Y204694D02*
X35021Y204694D01*
X35496Y205169D02*
X37618Y205169D01*
X38093Y205644D02*
X35971Y205644D01*
X36446Y206119D02*
X38568Y206119D01*
X39043Y206594D02*
X36921Y206594D01*
X37396Y207069D02*
X39518Y207069D01*
X39763Y207544D02*
X37871Y207544D01*
X38346Y208019D02*
X39288Y208019D01*
X35988Y211319D02*
X30403Y205734D01*
X35988Y211319D02*
X37049Y210258D01*
X31464Y204673D01*
X30403Y205734D01*
X30989Y205148D02*
X31939Y205148D01*
X32414Y205623D02*
X30514Y205623D01*
X30767Y206098D02*
X32889Y206098D01*
X33364Y206573D02*
X31242Y206573D01*
X31717Y207048D02*
X33839Y207048D01*
X34314Y207523D02*
X32192Y207523D01*
X32667Y207998D02*
X34789Y207998D01*
X35264Y208473D02*
X33142Y208473D01*
X33617Y208948D02*
X35739Y208948D01*
X36214Y209423D02*
X34092Y209423D01*
X34567Y209898D02*
X36689Y209898D01*
X36934Y210373D02*
X35042Y210373D01*
X35517Y210848D02*
X36459Y210848D01*
D29*
G36*
X54480Y213900D02*
X76400Y235820D01*
X98320Y213900D01*
X76400Y191980D01*
X54480Y213900D01*
G37*
D30*
X-107897Y329553D02*
X-119603Y329553D01*
X-107897Y329553D02*
X-107897Y321647D01*
X-119603Y321647D01*
X-119603Y329553D01*
X-119603Y322972D02*
X-107897Y322972D01*
X-107897Y324297D02*
X-119603Y324297D01*
X-119603Y325622D02*
X-107897Y325622D01*
X-107897Y326947D02*
X-119603Y326947D01*
X-119603Y328272D02*
X-107897Y328272D01*
X-107897Y306653D02*
X-119603Y306653D01*
X-107897Y306653D02*
X-107897Y298747D01*
X-119603Y298747D01*
X-119603Y306653D01*
X-119603Y300072D02*
X-107897Y300072D01*
X-107897Y301397D02*
X-119603Y301397D01*
X-119603Y302722D02*
X-107897Y302722D01*
X-107897Y304047D02*
X-119603Y304047D01*
X-119603Y305372D02*
X-107897Y305372D01*
X-107897Y283753D02*
X-119603Y283753D01*
X-107897Y283753D02*
X-107897Y275847D01*
X-119603Y275847D01*
X-119603Y283753D01*
X-119603Y277172D02*
X-107897Y277172D01*
X-107897Y278497D02*
X-119603Y278497D01*
X-119603Y279822D02*
X-107897Y279822D01*
X-107897Y281147D02*
X-119603Y281147D01*
X-119603Y282472D02*
X-107897Y282472D01*
D31*
X-175082Y317918D02*
X-186218Y317918D01*
X-175082Y317918D02*
X-175082Y287482D01*
X-186218Y287482D01*
X-186218Y317918D01*
X-186218Y289349D02*
X-175082Y289349D01*
X-175082Y291216D02*
X-186218Y291216D01*
X-186218Y293083D02*
X-175082Y293083D01*
X-175082Y294950D02*
X-186218Y294950D01*
X-186218Y296817D02*
X-175082Y296817D01*
X-175082Y298684D02*
X-186218Y298684D01*
X-186218Y300551D02*
X-175082Y300551D01*
X-175082Y302418D02*
X-186218Y302418D01*
X-186218Y304285D02*
X-175082Y304285D01*
X-175082Y306152D02*
X-186218Y306152D01*
X-186218Y308019D02*
X-175082Y308019D01*
X-175082Y309886D02*
X-186218Y309886D01*
X-186218Y311753D02*
X-175082Y311753D01*
X-175082Y313620D02*
X-186218Y313620D01*
X-186218Y315487D02*
X-175082Y315487D01*
X-175082Y317354D02*
X-186218Y317354D01*
D32*
X150225Y336107D02*
X164875Y336107D01*
X164875Y331757D01*
X150225Y331757D01*
X150225Y336107D01*
X150225Y333134D02*
X164875Y333134D01*
X164875Y334511D02*
X150225Y334511D01*
X150225Y335888D02*
X164875Y335888D01*
X164875Y323407D02*
X150225Y323407D01*
X164875Y323407D02*
X164875Y319057D01*
X150225Y319057D01*
X150225Y323407D01*
X150225Y320434D02*
X164875Y320434D01*
X164875Y321811D02*
X150225Y321811D01*
X150225Y323188D02*
X164875Y323188D01*
X164875Y310707D02*
X150225Y310707D01*
X164875Y310707D02*
X164875Y306357D01*
X150225Y306357D01*
X150225Y310707D01*
X150225Y307734D02*
X164875Y307734D01*
X164875Y309111D02*
X150225Y309111D01*
X150225Y310488D02*
X164875Y310488D01*
X164875Y298007D02*
X150225Y298007D01*
X164875Y298007D02*
X164875Y293657D01*
X150225Y293657D01*
X150225Y298007D01*
X150225Y295034D02*
X164875Y295034D01*
X164875Y296411D02*
X150225Y296411D01*
X150225Y297788D02*
X164875Y297788D01*
X92775Y298007D02*
X78125Y298007D01*
X92775Y298007D02*
X92775Y293657D01*
X78125Y293657D01*
X78125Y298007D01*
X78125Y295034D02*
X92775Y295034D01*
X92775Y296411D02*
X78125Y296411D01*
X78125Y297788D02*
X92775Y297788D01*
X92775Y310707D02*
X78125Y310707D01*
X92775Y310707D02*
X92775Y306357D01*
X78125Y306357D01*
X78125Y310707D01*
X78125Y307734D02*
X92775Y307734D01*
X92775Y309111D02*
X78125Y309111D01*
X78125Y310488D02*
X92775Y310488D01*
X92775Y323407D02*
X78125Y323407D01*
X92775Y323407D02*
X92775Y319057D01*
X78125Y319057D01*
X78125Y323407D01*
X78125Y320434D02*
X92775Y320434D01*
X92775Y321811D02*
X78125Y321811D01*
X78125Y323188D02*
X92775Y323188D01*
X92775Y336107D02*
X78125Y336107D01*
X92775Y336107D02*
X92775Y331757D01*
X78125Y331757D01*
X78125Y336107D01*
X78125Y333134D02*
X92775Y333134D01*
X92775Y334511D02*
X78125Y334511D01*
X78125Y335888D02*
X92775Y335888D01*
D33*
G36*
X132740Y193895D02*
X141225Y202380D01*
X151124Y192481D01*
X142639Y183996D01*
X132740Y193895D01*
G37*
G36*
X148297Y178339D02*
X156782Y186824D01*
X166681Y176925D01*
X158196Y168440D01*
X148297Y178339D01*
G37*
G36*
X136276Y166318D02*
X144761Y174803D01*
X154660Y164904D01*
X146175Y156419D01*
X136276Y166318D01*
G37*
G36*
X120720Y181875D02*
X129205Y190360D01*
X139104Y180461D01*
X130619Y171976D01*
X120720Y181875D01*
G37*
D34*
X-63500Y131840D03*
D35*
X-38100Y131840D03*
X-12700Y131840D03*
X12700Y131840D03*
X38100Y131840D03*
X63500Y131840D03*
D36*
X25700Y227900D02*
X21327Y232273D01*
X25700Y227900D02*
X29400Y227900D01*
X31287Y227900D01*
X36555Y222633D01*
X43327Y250101D02*
X43327Y253473D01*
D37*
X-97646Y286596D02*
X-113750Y302700D01*
X-97646Y286596D02*
X-97646Y285700D01*
X-77575Y305771D01*
X-77575Y324500D01*
X-97646Y285700D02*
X-58446Y246500D01*
X-3500Y246500D01*
X-3500Y244000D02*
X9300Y231200D01*
X-3500Y244000D02*
X-3500Y246500D01*
X9300Y231200D02*
X20253Y231200D01*
X21327Y232273D01*
D36*
X43327Y250101D02*
X43789Y249638D01*
X43789Y239213D01*
X113500Y169202D02*
X115574Y167128D01*
X113500Y169202D02*
X113500Y174000D01*
X99303Y188197D01*
X99275Y188197D01*
D37*
X-159800Y203925D02*
X-163425Y200300D01*
X-159800Y203925D02*
X-159800Y214200D01*
X-104660Y278686D02*
X-97646Y285700D01*
X-104660Y278686D02*
X-104660Y274507D01*
X-115767Y263400D01*
X-146100Y263400D01*
X-158410Y251091D01*
X-158410Y244428D01*
X-159800Y243037D01*
X-159800Y214200D01*
D36*
X14646Y221900D02*
X31630Y221900D01*
X33726Y219804D01*
X33726Y207996D02*
X33715Y207985D01*
X26300Y215400D01*
X19046Y215400D01*
X14646Y211000D01*
X14446Y211000D01*
X57813Y182540D02*
X59182Y182540D01*
X-200500Y-137500D02*
X-200500Y-167500D01*
X107760Y231118D02*
X107760Y232487D01*
X110537Y235264D01*
X110537Y237437D02*
X113573Y240473D01*
X110537Y237437D02*
X110537Y235264D01*
X82304Y256574D02*
X93356Y267626D01*
X93356Y269291D01*
X28930Y176706D02*
X26546Y174323D01*
X51979Y176706D02*
X57813Y182540D01*
X51979Y176706D02*
X28930Y176706D01*
X113725Y33500D02*
X113725Y21825D01*
X109300Y17400D01*
X70946Y332700D02*
X72178Y333932D01*
X85450Y333932D01*
X91318Y339800D01*
X166600Y339800D01*
X169375Y339800D01*
X176400Y332775D01*
X185725Y332775D01*
X199600Y318900D01*
X199844Y318656D01*
X199844Y304144D01*
X196700Y301000D01*
X187975Y301000D01*
X185300Y303675D01*
D37*
X-153300Y214200D02*
X-159800Y214200D01*
X-153300Y214200D02*
X-145300Y206200D01*
D38*
X-145300Y206200D03*
X-86700Y-31100D03*
D37*
X-85975Y-31825D01*
X-74800Y-31825D01*
D38*
X109300Y600D03*
D37*
X109300Y17400D01*
X109300Y72400D01*
X115800Y78900D01*
D38*
X115800Y78900D03*
D37*
X93356Y269291D02*
X91147Y271500D01*
X81200Y271500D01*
D38*
X81200Y271500D03*
X69000Y321900D03*
D37*
X70946Y323846D01*
X70946Y332700D01*
D39*
X43789Y238025D02*
X47868Y233946D01*
X43789Y238025D02*
X43789Y239213D01*
D36*
X43789Y249638D02*
X43327Y250101D01*
X49697Y236775D02*
X50697Y236775D01*
X49697Y236775D02*
X43789Y242682D01*
X43789Y249638D01*
D38*
X195000Y294100D03*
X195100Y284100D03*
X170521Y248468D03*
X150200Y249022D03*
X139000Y231444D03*
X137349Y219844D03*
X154400Y200400D03*
X198017Y117600D03*
X168200Y83800D03*
X165700Y66000D03*
X188800Y-27100D03*
X130900Y-2400D03*
X108400Y-12900D03*
X111200Y-39200D03*
X154700Y-52600D03*
X137500Y-25000D03*
X137200Y48200D03*
X147400Y83600D03*
X122100Y61000D03*
X70600Y84200D03*
X73500Y42500D03*
X91419Y100D03*
X78100Y-16700D03*
X89000Y-45100D03*
X90900Y-17700D03*
X68700Y-30000D03*
X71300Y-62100D03*
X51300Y-85900D03*
X-21713Y-120287D03*
X-80100Y-129300D03*
X-88300Y-184500D03*
X-101687Y-125113D03*
X-90100Y-119700D03*
X-143378Y-113952D03*
X-159700Y-125200D03*
X-129900Y-45100D03*
X-145100Y-46300D03*
X-132852Y-18926D03*
X-145437Y-24363D03*
X-165100Y-19800D03*
X-137026Y16900D03*
X-145587Y15487D03*
X-139820Y40863D03*
X-145000Y30900D03*
X-142614Y51700D03*
X-194800Y80200D03*
X-100600Y164900D03*
X-158800Y177100D03*
X-182000Y148600D03*
X-190790Y163990D03*
X-176240Y178540D03*
X-200187Y168587D03*
X-183866Y183766D03*
X-195813Y185813D03*
X23800Y206700D03*
X59300Y213900D03*
X67400Y220800D03*
X76400Y228700D03*
X68700Y206200D03*
X76500Y213600D03*
X85300Y220300D03*
X76000Y196700D03*
X84500Y205800D03*
X91700Y212400D03*
X99200Y334700D03*
X142700Y299300D03*
X102600Y298600D03*
X140400Y335256D03*
X-25700Y332900D03*
X45200Y303700D03*
X13000Y252100D03*
X-47600Y254000D03*
X-71300Y273700D03*
X-61600Y313200D03*
X-55000Y290800D03*
X-203500Y339500D03*
X-211100Y287100D03*
X-156500Y289800D03*
X-124100Y341400D03*
X-189400Y272600D03*
X-169900Y273200D03*
X-178700Y258800D03*
X-195000Y249500D03*
X-134300Y254800D03*
X-150800Y232700D03*
X-115900Y161200D03*
X-155000Y87100D03*
X-75400Y94200D03*
X-7900Y91900D03*
X-97400Y82034D03*
X-87200Y37100D03*
X-66300Y40400D03*
X-49900Y78600D03*
X-104756Y31100D03*
X-86600Y18000D03*
X-103800Y-10300D03*
X-72900Y-15800D03*
X-63800Y-31200D03*
X-67600Y-52000D03*
X-76800Y-49900D03*
X-12800Y114200D03*
X14900Y95400D03*
X12083Y114583D03*
X29000Y107600D03*
X38900Y114300D03*
X52000Y109400D03*
X71200Y107900D03*
X50900Y143356D03*
X108100Y136300D03*
X96156Y140300D03*
X88600Y140100D03*
X96156Y132700D03*
X90492Y152612D03*
X74000Y164800D03*
X84000Y162600D03*
X-104400Y312500D03*
X-115500Y291800D03*
X151312Y221756D03*
X156900Y221400D03*
X167600Y227300D03*
X125100Y255100D03*
X132300Y260200D03*
X84000Y279100D03*
X105529Y280568D03*
X114356Y190856D03*
X122100Y194600D03*
D39*
X-32000Y281400D02*
X-33946Y283346D01*
D37*
X-37800Y287200D02*
X-43250Y287200D01*
X-37800Y287200D02*
X-32000Y281400D01*
X32000Y281400D02*
X37450Y281400D01*
X43250Y287200D01*
D38*
X-203800Y60800D03*
X-165300Y59900D03*
X-203400Y40000D03*
X-203500Y20000D03*
X-203600Y-100D03*
X-203600Y-20200D03*
X-203800Y-40100D03*
X-203500Y-60000D03*
D36*
X53500Y21000D02*
X75600Y21000D01*
X75846Y21000D01*
X75900Y21054D01*
X75800Y20800D02*
X75800Y9646D01*
X75800Y20800D02*
X75600Y21000D01*
X-53875Y30275D02*
X-77600Y30275D01*
X-53875Y30275D02*
X-53500Y29900D01*
X93618Y245260D02*
X122294Y273936D01*
X177800Y273936D01*
X191829Y259907D01*
X191829Y135000D01*
X191029Y134200D01*
X149674Y92845D01*
X58500Y92845D01*
X26295Y92845D01*
X-12700Y131840D01*
X-53500Y-41300D02*
X-74125Y-41300D01*
X-74800Y-41975D01*
X-88825Y-41975D01*
X-118300Y-12500D01*
D38*
X-118300Y-12500D03*
D36*
X99275Y239603D02*
X99275Y240972D01*
X102052Y243749D01*
X102052Y244086D01*
X126314Y268348D01*
X174385Y268348D01*
X176000Y266733D01*
X186241Y256492D01*
X186241Y139000D01*
X145674Y98433D01*
X58267Y98433D01*
X55700Y101000D01*
D38*
X55700Y101000D03*
D36*
X90790Y248089D02*
X119431Y276730D01*
X180800Y276730D01*
X194980Y262550D01*
X194980Y130983D01*
X154049Y90051D01*
X3689Y90051D02*
X-38100Y131840D01*
X3689Y90051D02*
X154049Y90051D01*
X-38100Y131840D02*
X-54940Y115000D01*
X-103555Y115000D01*
X-104227Y114327D01*
D38*
X-113756Y-2400D03*
D36*
X-113756Y104799D02*
X-104227Y114327D01*
X-113756Y104799D02*
X-113756Y-2400D01*
D38*
X-113413Y-23813D03*
D36*
X-78126Y-59100D01*
X-53500Y-59100D01*
X96447Y242432D02*
X125157Y271142D01*
X175542Y271142D01*
X189035Y257649D01*
X189035Y137400D01*
X147274Y95639D01*
X59100Y95639D01*
X48901Y95639D01*
X12700Y131840D01*
X-566Y145106D01*
X-77400Y145106D01*
X-121306Y101200D01*
X-121306Y-1700D01*
X-99506Y-23500D01*
X-53500Y-23500D01*
X-13968Y274858D02*
X-13968Y279932D01*
X-12500Y281400D01*
X-20726Y268100D02*
X-33625Y268100D01*
X-20726Y268100D02*
X-13968Y274858D01*
X56625Y312000D02*
X57000Y311625D01*
X56625Y312000D02*
X28200Y312000D01*
X27850Y311650D01*
X17500Y286700D02*
X17500Y281400D01*
X17500Y286700D02*
X13100Y291100D01*
D38*
X13100Y291100D03*
X27850Y311650D03*
X195300Y307000D03*
D36*
X189575Y312725D01*
X185500Y312725D01*
X176594Y308157D02*
X169469Y315282D01*
X163500Y315282D01*
X157550Y321232D01*
X64890Y277954D02*
X64890Y256522D01*
X67667Y253745D01*
X171557Y287906D02*
X176594Y292943D01*
X171557Y287906D02*
X74843Y287906D01*
X64890Y277954D01*
X176594Y292943D02*
X176594Y308157D01*
X173800Y294100D02*
X170400Y290700D01*
X173800Y294100D02*
X173800Y307000D01*
X159082Y307000D02*
X157550Y308532D01*
X159082Y307000D02*
X173800Y307000D01*
X64839Y250917D02*
X62062Y253694D01*
X62062Y279377D01*
X73385Y290700D01*
X170400Y290700D01*
X85450Y321232D02*
X84751Y321232D01*
X53011Y289492D01*
X56354Y243801D02*
X56354Y242432D01*
X56354Y243801D02*
X53011Y247143D01*
X53011Y289492D01*
X84812Y295194D02*
X85450Y295832D01*
X58733Y251366D02*
X62010Y248089D01*
X58733Y251366D02*
X58733Y283100D01*
X70828Y295194D01*
X84812Y295194D01*
X77200Y285112D02*
X70496Y278408D01*
X70496Y256574D01*
X77200Y285112D02*
X172715Y285112D01*
X179388Y291785D01*
X179388Y314312D01*
X179388Y319637D01*
X176400Y322625D01*
X185500Y322625D01*
X185500Y322875D01*
X176400Y322625D02*
X169575Y329450D01*
X162032Y329450D01*
X157550Y333932D01*
X59182Y245260D02*
X55805Y248637D01*
X78351Y308532D02*
X85450Y308532D01*
X78351Y308532D02*
X55805Y285986D01*
X55805Y248637D01*
D38*
X183300Y286862D03*
D36*
X87961Y176883D02*
X100700Y164144D01*
X100700Y134700D01*
X100700Y124354D01*
X104127Y120927D01*
X134880Y120927D01*
X145027Y131073D01*
D38*
X164933Y164000D03*
D36*
X154518Y140565D02*
X145027Y131073D01*
X162287Y162185D02*
X163117Y162185D01*
X164933Y164000D01*
X154518Y154416D02*
X154518Y140565D01*
X154518Y154416D02*
X162287Y162185D01*
X185300Y288862D02*
X185300Y293525D01*
X185300Y288862D02*
X183300Y286862D01*
D37*
X-22240Y287452D02*
X-22240Y279640D01*
X-24000Y281400D01*
X21540Y283860D02*
X21540Y291252D01*
X21540Y283860D02*
X24000Y281400D01*
X-17258Y292434D02*
X-22240Y287452D01*
X-17258Y292434D02*
X-12558Y297134D01*
X15658Y297134D01*
X21540Y291252D01*
X-17258Y292434D02*
X-17734Y292434D01*
X-26500Y301200D01*
X-27300Y302000D01*
X-58700Y302000D01*
D40*
X-53500Y307200D01*
X-53500Y337900D01*
X-47670Y343730D01*
X188974Y343730D01*
X203600Y329104D01*
X203600Y101700D01*
X203600Y98769D01*
X193329Y88498D01*
D36*
X113785Y185000D02*
X104932Y193854D01*
X113785Y185000D02*
X119500Y185000D01*
X129573Y195073D01*
X129573Y198273D01*
X134158Y193689D01*
X141432Y193689D02*
X141932Y193188D01*
X141432Y193689D02*
X134158Y193689D01*
X120811Y172689D02*
X102475Y191025D01*
X102103Y191025D01*
D37*
X-67425Y324500D02*
X-67425Y334175D01*
X-61800Y339800D01*
D36*
X85133Y253745D02*
X113705Y282318D01*
X172400Y282318D01*
X185250Y282318D01*
X200568Y267000D01*
X200568Y128668D01*
X157600Y85700D01*
X157600Y64227D01*
X193329Y28498D01*
X87961Y250917D02*
X116568Y279524D01*
X174600Y279524D01*
X184093Y279524D01*
X197774Y265843D01*
X197774Y129825D01*
X154806Y86857D01*
X193329Y15442D02*
X193329Y8498D01*
X154806Y53965D02*
X154806Y86857D01*
X154806Y53965D02*
X193329Y15442D01*
X42211Y228290D02*
X32863Y237638D01*
X32863Y238759D01*
X32189Y239433D01*
X32189Y242911D01*
X37589Y248411D02*
X38600Y247400D01*
X38600Y240600D01*
X38600Y237558D01*
D39*
X45040Y231118D01*
D36*
X7500Y273454D02*
X7500Y281400D01*
X7500Y273454D02*
X15230Y265724D01*
X20276Y265724D01*
X30411Y255589D01*
X-1032Y281400D02*
X-2500Y281400D01*
X-1032Y281400D02*
X-1032Y287942D01*
X158Y289132D01*
X4842Y289132D01*
X6032Y287942D01*
X6032Y281400D01*
X7500Y281400D01*
X2500Y281400D02*
X2500Y272600D01*
X25011Y250089D01*
X-6032Y281400D02*
X-7500Y281400D01*
X-6032Y281400D02*
X-6032Y274858D01*
X-4842Y273668D01*
X-158Y273668D01*
X1032Y274858D01*
X1032Y279513D01*
X1762Y280243D01*
X1762Y281400D01*
X2500Y281400D01*
X127989Y165511D02*
X136473Y157027D01*
X136573Y157027D01*
X145158Y165611D02*
X145468Y165611D01*
X145158Y165611D02*
X136573Y157027D01*
X-95400Y45156D02*
X-95400Y31446D01*
X-95700Y31146D01*
X-88621Y31146D01*
X-77600Y20125D01*
X-95700Y31146D02*
X-106400Y41846D01*
X58800Y85200D02*
X66000Y78000D01*
X65850Y77850D01*
D38*
X65850Y77850D03*
D36*
X-79888Y86578D02*
X-100600Y86578D01*
X-79888Y86578D02*
X-78888Y87578D01*
X-61912Y87578D02*
X-59535Y85200D01*
X-61912Y87578D02*
X-78888Y87578D01*
X-59535Y85200D02*
X58800Y85200D01*
X-106400Y80778D02*
X-106400Y41846D01*
X-106400Y80778D02*
X-100600Y86578D01*
X38839Y225461D02*
X26627Y237673D01*
X38839Y225461D02*
X39383Y225461D01*
X53525Y239603D02*
X49563Y243566D01*
X39383Y225461D02*
X48722Y216122D01*
X50700Y215797D02*
X53503Y215797D01*
X75558Y237852D01*
X77242Y237852D01*
X97247Y217847D01*
X100352Y214742D01*
X100352Y213052D01*
X87400Y200100D01*
X87400Y197200D01*
X88100Y196500D01*
D38*
X88100Y196500D03*
X106037Y175037D03*
D36*
X106037Y175778D02*
X96447Y185368D01*
X106037Y175778D02*
X106037Y175037D01*
X49563Y257302D02*
X46573Y260292D01*
X46573Y261020D01*
X106037Y175037D02*
X109338Y171736D01*
X109338Y162671D01*
X114560Y157449D01*
D39*
X50700Y215797D02*
X49047Y215797D01*
X48722Y216122D01*
D38*
X48722Y216122D03*
X48400Y249100D03*
D39*
X47700Y245428D02*
X49563Y243566D01*
X47700Y248400D02*
X48400Y249100D01*
X47700Y248400D02*
X47700Y245428D01*
X49563Y251907D02*
X49563Y257302D01*
X49563Y251907D02*
X49561Y251782D01*
X49555Y251658D01*
X49545Y251533D01*
X49532Y251409D01*
X49514Y251286D01*
X49493Y251163D01*
X49467Y251041D01*
X49438Y250920D01*
X49405Y250799D01*
X49369Y250680D01*
X49328Y250562D01*
X49284Y250446D01*
X49236Y250330D01*
X49185Y250217D01*
X49130Y250105D01*
X49072Y249994D01*
X49010Y249886D01*
X48945Y249780D01*
X48877Y249676D01*
X48805Y249573D01*
X48730Y249474D01*
X48652Y249376D01*
X48571Y249282D01*
X48487Y249189D01*
X48400Y249100D01*
D37*
X-95700Y302000D02*
X-99346Y305646D01*
X-99346Y326200D01*
X-130300Y296350D02*
X-113750Y279800D01*
X-130300Y296350D02*
X-130300Y307900D01*
X-122500Y315700D01*
X-114900Y315700D01*
X-104660Y320307D02*
X-104660Y320886D01*
X-99346Y326200D01*
X-109267Y315700D02*
X-114900Y315700D01*
X-109267Y315700D02*
X-104660Y320307D01*
X-113750Y279800D02*
X-202000Y279800D01*
X-202900Y278900D01*
X-207846Y273954D01*
X-207846Y265400D01*
X-209000Y264246D01*
X-209000Y240000D01*
X-121950Y271600D02*
X-113750Y279800D01*
X-121950Y271600D02*
X-158600Y271600D01*
X-163625Y266575D01*
X-163625Y257400D01*
D40*
X-99346Y326200D02*
X-99346Y339654D01*
X-92000Y347000D01*
X186000Y347000D01*
X190000Y347000D01*
X192952Y346742D01*
X193254Y346661D01*
X206661Y333254D01*
X206661Y333254D01*
X206742Y332952D01*
X207000Y330000D01*
X207000Y124900D01*
X207000Y-22600D01*
X207000Y-26200D01*
X200100Y-33100D01*
X181700Y-33100D01*
X157700Y-9100D01*
X152825Y-4225D01*
X141100Y-4225D01*
X179900Y-43025D01*
X179900Y-52000D01*
X179900Y-54129D01*
X155431Y-121356D01*
X128828Y-121356D01*
X128828Y-121356D01*
X100637Y-111095D01*
D36*
X-75246Y69198D02*
X-75246Y82400D01*
X-75246Y69198D02*
X-75822Y68622D01*
X-76400Y68044D01*
X-89536Y77188D02*
X-90726Y75998D01*
X-89536Y77188D02*
X-82264Y77188D01*
X-81074Y75998D01*
X-90726Y75998D02*
X-90726Y72718D01*
X-81074Y73874D02*
X-81074Y75998D01*
X-81074Y73874D02*
X-75822Y68622D01*
X-90726Y72718D02*
X-95400Y68044D01*
X81057Y-101046D02*
X91107Y-111095D01*
X81057Y-101046D02*
X72957Y-101046D01*
X91107Y-111095D02*
X100637Y-111095D01*
D37*
X-163625Y248700D02*
X-163625Y257400D01*
D38*
X-163625Y257400D03*
X-84000Y109000D03*
D37*
X-84000Y93800D01*
X-84100Y93700D01*
D38*
X-84100Y93700D03*
X-82300Y82034D03*
D37*
X-81934Y82400D01*
X-75246Y82400D01*
D36*
X93618Y182540D02*
X101493Y174665D01*
X101493Y173155D01*
X106400Y168248D02*
X106400Y150900D01*
X106400Y168248D02*
X101493Y173155D01*
X106400Y150900D02*
X113600Y143700D01*
X130400Y143700D01*
D38*
X130400Y143700D03*
X138600Y138900D03*
D36*
X113387Y138900D01*
X103494Y148793D01*
X103494Y167007D02*
X90790Y179711D01*
X103494Y167007D02*
X103494Y148793D01*
X102103Y236775D02*
X102103Y238144D01*
X104880Y240921D01*
X104880Y242963D02*
X127472Y265554D01*
X104880Y242963D02*
X104880Y240921D01*
X127472Y265554D02*
X172733Y265554D01*
X183447Y254841D01*
X183447Y140157D01*
X144600Y101311D01*
X144517Y101227D01*
X72600Y101227D01*
X68713Y101227D01*
X38100Y131840D01*
X-157500Y-70000D02*
X-187500Y-70000D01*
X119074Y219804D02*
X143748Y244478D01*
X161900Y244478D01*
X172271Y234107D01*
X172271Y152500D01*
X137167Y111359D02*
X101841Y111359D01*
X65300Y147900D01*
X-79600Y147900D01*
X-124100Y103400D02*
X-124100Y-46700D01*
X-129000Y-51600D01*
X-147400Y-70000D01*
X-157500Y-70000D01*
X162900Y145994D02*
X165562Y148656D01*
X162900Y145994D02*
X162900Y137093D01*
X168426Y148656D02*
X172271Y152500D01*
X168426Y148656D02*
X165562Y148656D01*
X162900Y137093D02*
X137167Y111359D01*
X-79600Y147900D02*
X-124100Y103400D01*
X-157500Y-50000D02*
X-187500Y-50000D01*
X119074Y207996D02*
X137978Y226900D01*
X157900Y226900D01*
X160106Y138250D02*
X136009Y114153D01*
X102998Y114153D01*
X66457Y150694D01*
X160106Y147151D02*
X160106Y138250D01*
X66457Y150694D02*
X-80757Y150694D01*
X157900Y226900D02*
X169477Y215323D01*
X169477Y156522D01*
X160106Y147151D01*
X-80757Y150694D02*
X-126894Y104557D01*
X-126894Y-19394D01*
X-157500Y-50000D01*
X-157500Y-30000D02*
X-187500Y-30000D01*
X116245Y205167D02*
X117615Y205167D01*
X120391Y202390D01*
X123790Y202390D01*
X136700Y215300D01*
X159219Y215300D01*
X165919Y208600D01*
D38*
X164169Y190800D03*
D36*
X165919Y192550D02*
X165919Y208600D01*
X165919Y192550D02*
X164169Y190800D01*
D38*
X164169Y157641D03*
D36*
X164169Y155166D01*
X157312Y148309D01*
X157312Y139408D01*
X135600Y117696D01*
X134852Y116947D01*
X67615Y153488D02*
X-81915Y153488D01*
X104155Y116947D02*
X134852Y116947D01*
X104155Y116947D02*
X67615Y153488D01*
X-81915Y153488D02*
X-129688Y105715D01*
X-129688Y-2188D01*
X-157500Y-30000D01*
X-157500Y-10000D02*
X-187500Y-10000D01*
X-83072Y156282D02*
X68772Y156282D01*
X80354Y144700D01*
X93200Y144700D01*
X97800Y161387D02*
X85133Y174055D01*
X97800Y161387D02*
X97900Y161287D01*
X97900Y151600D01*
X97900Y149400D01*
X93200Y144700D01*
X-83072Y156282D02*
X-132482Y106872D01*
X-132482Y15018D02*
X-157500Y-10000D01*
X-132482Y15018D02*
X-132482Y106872D01*
X-157500Y10000D02*
X-187500Y10000D01*
X-84230Y159076D02*
X69930Y159076D01*
X81512Y147494D01*
X91800Y147494D01*
X95036Y150730D01*
X95036Y160200D01*
X86787Y168449D01*
X86450Y168449D01*
X83673Y171226D01*
X82304Y171226D01*
X-84230Y159076D02*
X-135276Y108030D01*
X-135276Y32224D02*
X-157500Y10000D01*
X-135276Y32224D02*
X-135276Y108030D01*
X-157500Y30000D02*
X-187500Y30000D01*
X-157500Y30000D02*
X-138070Y49430D01*
X-138070Y109187D01*
X-85387Y161870D01*
X62100Y161870D01*
X70496Y170266D01*
X70496Y171226D01*
X-157500Y50000D02*
X-187500Y50000D01*
X58277Y164664D02*
X67667Y174055D01*
X58277Y164664D02*
X-86544Y164664D01*
X-157500Y54251D02*
X-157500Y50000D01*
X-141164Y110044D02*
X-86544Y164664D01*
X-141164Y110044D02*
X-141164Y70587D01*
X-157500Y54251D01*
X-157500Y70000D02*
X-187500Y70000D01*
X-157500Y70000D02*
X-143958Y83542D01*
X-143958Y111202D01*
X-87702Y167458D01*
X55800Y167458D01*
X64839Y176497D01*
X64839Y176883D01*
X-160500Y-137500D02*
X-160500Y-167500D01*
X110589Y228290D02*
X145059Y262760D01*
X171200Y262760D01*
X180653Y253307D01*
X180653Y145500D01*
X139174Y104021D01*
X101800Y104021D01*
D38*
X95551Y105771D03*
D36*
X-135074Y-112074D02*
X-160500Y-137500D01*
X-135074Y-112074D02*
X24700Y-112074D01*
X38526Y-112074D01*
X96700Y-53900D01*
D38*
X103700Y80800D03*
D36*
X103700Y-40442D01*
X98757Y-45385D01*
X98757Y-51843D02*
X96700Y-53900D01*
X98757Y-51843D02*
X98757Y-45385D01*
X101800Y104021D02*
X100050Y105771D01*
X95551Y105771D01*
X-180500Y-137500D02*
X-180500Y-167500D01*
X113417Y225461D02*
X147922Y259966D01*
X169400Y259966D01*
X177859Y251507D01*
X177859Y148100D01*
D38*
X82300Y109871D03*
D36*
X138324Y108565D02*
X177859Y148100D01*
X46574Y-100074D02*
X37369Y-109280D01*
X-152280Y-109280D02*
X-180500Y-137500D01*
X-152280Y-109280D02*
X37369Y-109280D01*
D38*
X95356Y71843D03*
D36*
X95963Y-50685D02*
X46574Y-100074D01*
X95963Y71236D02*
X95356Y71843D01*
X95963Y71236D02*
X95963Y-50685D01*
X100683Y108565D02*
X138324Y108565D01*
X100683Y108565D02*
X98933Y110315D01*
X82744Y110315D01*
X82300Y109871D01*
X-120500Y-137500D02*
X-120500Y-167500D01*
D40*
X121158Y-54714D02*
X149349Y-64974D01*
D38*
X37200Y172002D03*
D36*
X54301Y172002D02*
X62010Y179711D01*
X54301Y172002D02*
X37200Y172002D01*
D38*
X-8800Y172002D03*
D36*
X-120500Y-167500D02*
X-120500Y-181000D01*
X-209732Y-186142D02*
X-209732Y78368D01*
X-209732Y-186142D02*
X-206342Y-189532D01*
X-129032Y-189532D01*
X-120500Y-181000D01*
X-209732Y78368D02*
X-117848Y170252D01*
X-10550Y170252D01*
X-8800Y172002D01*
X120545Y-54100D02*
X121158Y-54714D01*
X-97868Y-114868D02*
X-120500Y-137500D01*
X-97868Y-114868D02*
X41227Y-114868D01*
X101995Y-54100D01*
X120545Y-54100D01*
X-193952Y195048D02*
X-209000Y180000D01*
X39383Y202308D02*
X39383Y202339D01*
X39383Y202308D02*
X32123Y195048D01*
X-193952Y195048D01*
X32401Y189700D02*
X42211Y199510D01*
X32401Y189700D02*
X-185500Y189700D01*
X-209000Y166200D01*
X-209000Y160000D01*
D38*
X-67700Y-138800D03*
D36*
X-67300Y-139200D01*
X-67300Y-154150D01*
X35264Y186906D02*
X45040Y196682D01*
X35264Y186906D02*
X-174300Y186906D01*
X-196300Y164906D01*
X-196300Y156000D01*
X-196300Y152700D01*
X-209000Y140000D01*
D40*
X114318Y-73508D02*
X142509Y-83768D01*
D36*
X-87326Y-192326D02*
X-160900Y-192326D01*
D38*
X-173700Y121600D03*
D36*
X-160900Y-192326D02*
X-207499Y-192326D01*
X-212526Y-187299D01*
X-212526Y79525D01*
X-173700Y118351D01*
X-173700Y121600D01*
X-13231Y-118231D02*
X-87326Y-192326D01*
X-13231Y-118231D02*
X43009Y-118231D01*
X87732Y-73508D02*
X114318Y-73508D01*
X87732Y-73508D02*
X43009Y-118231D01*
X46499Y193854D02*
X47868Y193854D01*
X-161650Y184112D02*
X-190662Y155100D01*
X-161650Y184112D02*
X36758Y184112D01*
X46499Y193854D01*
X-209000Y126944D02*
X-209000Y120000D01*
X-190662Y145282D02*
X-190662Y155100D01*
X-190662Y145282D02*
X-209000Y126944D01*
D40*
X107477Y-92301D02*
X107641Y-92361D01*
X135668Y-102562D01*
D36*
X-209000Y90300D02*
X-209000Y120000D01*
X-209000Y90300D02*
X-213700Y85600D01*
D38*
X-213700Y85600D03*
X-70700Y-183300D03*
D36*
X-8425Y-121025D01*
X102180Y-86900D02*
X107641Y-92361D01*
X44167Y-121025D02*
X-8425Y-121025D01*
X44167Y-121025D02*
X78291Y-86900D01*
X102180Y-86900D01*
X116245Y222633D02*
X150785Y257172D01*
X168243Y257172D01*
X175065Y250350D01*
D38*
X167444Y144112D03*
D36*
X175065Y151343D02*
X175065Y250350D01*
X175065Y151343D02*
X167834Y144112D01*
X167444Y144112D01*
D38*
X124100Y48100D03*
D36*
X124100Y33725D01*
X123875Y33500D01*
X123875Y21825D01*
X128300Y17400D01*
D40*
X93797Y-129889D02*
X121987Y-140150D01*
D36*
X129375Y-14375D02*
X118800Y-3800D01*
X129375Y-14375D02*
X140700Y-14375D01*
X141100Y-14375D01*
X128337Y-133800D02*
X121987Y-140150D01*
X128337Y-133800D02*
X142300Y-133800D01*
D38*
X142300Y-133800D03*
X165800Y-40500D03*
D36*
X140700Y-15400D01*
X140700Y-14375D01*
D37*
X-173575Y208975D02*
X-178800Y214200D01*
X-173575Y208975D02*
X-173575Y200300D01*
D36*
X39172Y179500D02*
X50697Y191025D01*
X39172Y179500D02*
X-142500Y179500D01*
D38*
X-142500Y179500D03*
X-187600Y215800D03*
D36*
X-180400Y215800D01*
X-178800Y214200D01*
D37*
X-169300Y244225D02*
X-173775Y248700D01*
X-169300Y244225D02*
X-169300Y235400D01*
X-180300Y248700D02*
X-209000Y220000D01*
X-180300Y248700D02*
X-173775Y248700D01*
D36*
X-100500Y-137500D02*
X-100500Y-167500D01*
X-100500Y-137500D02*
X-84450Y-121450D01*
X-67300Y-121450D01*
M02*
