G04 EAGLE Gerber RS-274X export*
G75*
%MOMM*%
%FSLAX34Y34*%
%LPD*%
%INBottom Copper*%
%IPPOS*%
%AMOC8*
5,1,8,0,0,1.08239X$1,22.5*%
G01*
G04 Define Apertures*
%ADD10C,1.440000*%
%ADD11R,1.220000X0.910000*%
%ADD12R,2.500000X2.550000*%
%ADD13R,1.800000X0.820000*%
%ADD14C,0.502400*%
%ADD15C,0.200000*%
G36*
X55381Y-313741D02*
X55250Y-313750D01*
X-55250Y-313750D01*
X-55381Y-313741D01*
X-64957Y-312481D01*
X-65209Y-312413D01*
X-74133Y-308717D01*
X-74359Y-308586D01*
X-82022Y-302706D01*
X-82206Y-302522D01*
X-88086Y-294859D01*
X-88217Y-294633D01*
X-91913Y-285709D01*
X-91981Y-285457D01*
X-93241Y-275881D01*
X-93250Y-275750D01*
X-93250Y275750D01*
X-93241Y275881D01*
X-91981Y285457D01*
X-91913Y285709D01*
X-88217Y294633D01*
X-88086Y294859D01*
X-82206Y302522D01*
X-82022Y302706D01*
X-74359Y308586D01*
X-74133Y308717D01*
X-65209Y312413D01*
X-64957Y312481D01*
X-55381Y313741D01*
X-55250Y313750D01*
X55250Y313750D01*
X55381Y313741D01*
X64957Y312481D01*
X65209Y312413D01*
X74133Y308717D01*
X74359Y308586D01*
X82022Y302706D01*
X82206Y302522D01*
X88086Y294859D01*
X88217Y294633D01*
X91913Y285709D01*
X91981Y285457D01*
X93241Y275881D01*
X93250Y275750D01*
X93250Y246143D01*
X93188Y245797D01*
X92979Y245458D01*
X92655Y245228D01*
X92266Y245143D01*
X91875Y245216D01*
X91543Y245436D01*
X89798Y247181D01*
X86685Y248470D01*
X83315Y248470D01*
X80202Y247181D01*
X77820Y244798D01*
X76530Y241685D01*
X76530Y238315D01*
X77820Y235202D01*
X80202Y232820D01*
X83315Y231530D01*
X86685Y231530D01*
X89798Y232820D01*
X91543Y234565D01*
X91831Y234765D01*
X92218Y234857D01*
X92611Y234790D01*
X92946Y234576D01*
X93171Y234247D01*
X93250Y233857D01*
X93250Y226143D01*
X93188Y225797D01*
X92979Y225458D01*
X92655Y225228D01*
X92266Y225143D01*
X91875Y225216D01*
X91543Y225436D01*
X89798Y227181D01*
X86685Y228470D01*
X83315Y228470D01*
X80202Y227181D01*
X77820Y224798D01*
X77028Y222887D01*
X76823Y222574D01*
X76494Y222349D01*
X76104Y222270D01*
X50082Y222270D01*
X49722Y222337D01*
X49386Y222552D01*
X49161Y222880D01*
X49082Y223270D01*
X49082Y225467D01*
X48976Y225573D01*
X48775Y225861D01*
X48683Y226248D01*
X48750Y226641D01*
X48965Y226976D01*
X49293Y227201D01*
X49683Y227280D01*
X71426Y227280D01*
X72170Y228024D01*
X72170Y254576D01*
X71426Y255320D01*
X45374Y255320D01*
X44630Y254576D01*
X44630Y231154D01*
X44557Y230779D01*
X44337Y230447D01*
X43030Y229140D01*
X43030Y227393D01*
X42957Y227017D01*
X42737Y226686D01*
X41518Y225467D01*
X41518Y222333D01*
X43733Y220118D01*
X45894Y220118D01*
X46239Y220056D01*
X46578Y219847D01*
X46808Y219523D01*
X46893Y219134D01*
X46820Y218743D01*
X46601Y218411D01*
X34830Y206640D01*
X34830Y161555D01*
X34757Y161180D01*
X34537Y160848D01*
X28352Y154663D01*
X28035Y154449D01*
X27645Y154370D01*
X16899Y154370D01*
X16539Y154437D01*
X16203Y154652D01*
X15978Y154980D01*
X15899Y155370D01*
X15899Y155500D01*
X-16101Y155500D01*
X-16101Y155370D01*
X-16168Y155010D01*
X-16383Y154674D01*
X-16711Y154449D01*
X-17101Y154370D01*
X-22831Y154370D01*
X-23192Y154437D01*
X-23527Y154652D01*
X-23752Y154980D01*
X-23831Y155370D01*
X-23831Y159045D01*
X-23758Y159420D01*
X-23538Y159752D01*
X-20165Y163125D01*
X-19848Y163339D01*
X-19458Y163418D01*
X-17733Y163418D01*
X-15518Y165633D01*
X-15518Y168767D01*
X-17733Y170982D01*
X-20867Y170982D01*
X-23082Y168767D01*
X-23082Y167042D01*
X-23155Y166667D01*
X-23375Y166335D01*
X-28371Y161339D01*
X-28371Y155370D01*
X-28438Y155010D01*
X-28653Y154674D01*
X-28981Y154449D01*
X-29371Y154370D01*
X-35627Y154370D01*
X-36371Y153626D01*
X-36371Y144374D01*
X-36344Y144347D01*
X-36143Y144059D01*
X-36052Y143672D01*
X-36119Y143280D01*
X-36333Y142944D01*
X-36661Y142719D01*
X-36964Y142658D01*
X-39641Y139981D01*
X-39641Y128019D01*
X-22663Y111041D01*
X-22449Y110724D01*
X-22370Y110334D01*
X-22370Y36126D01*
X-22432Y35780D01*
X-22641Y35442D01*
X-22965Y35211D01*
X-23354Y35126D01*
X-23745Y35199D01*
X-24077Y35419D01*
X-28470Y39812D01*
X-34718Y42400D01*
X-41482Y42400D01*
X-47730Y39812D01*
X-52512Y35030D01*
X-55100Y28782D01*
X-55100Y22018D01*
X-52512Y15770D01*
X-48949Y12207D01*
X-48748Y11919D01*
X-48656Y11532D01*
X-48723Y11140D01*
X-48938Y10804D01*
X-49266Y10579D01*
X-49656Y10500D01*
X-52889Y10500D01*
X-56748Y8901D01*
X-59701Y5948D01*
X-61300Y2089D01*
X-61300Y-2089D01*
X-59701Y-5948D01*
X-56748Y-8901D01*
X-52889Y-10500D01*
X-48711Y-10500D01*
X-44852Y-8901D01*
X-41899Y-5948D01*
X-40300Y-2089D01*
X-40300Y2089D01*
X-41899Y5948D01*
X-42825Y6874D01*
X-43022Y7155D01*
X-43117Y7541D01*
X-43053Y7934D01*
X-42841Y8271D01*
X-42515Y8499D01*
X-42126Y8581D01*
X-41735Y8505D01*
X-41482Y8400D01*
X-34718Y8400D01*
X-29754Y10457D01*
X-29403Y10532D01*
X-29011Y10465D01*
X-28675Y10251D01*
X-28450Y9923D01*
X-28371Y9533D01*
X-28371Y-35130D01*
X-28438Y-35491D01*
X-28653Y-35826D01*
X-28981Y-36051D01*
X-29371Y-36130D01*
X-35627Y-36130D01*
X-36371Y-36874D01*
X-36371Y-46126D01*
X-36344Y-46153D01*
X-36143Y-46441D01*
X-36052Y-46828D01*
X-36119Y-47221D01*
X-36333Y-47556D01*
X-36661Y-47781D01*
X-36964Y-47842D01*
X-39641Y-50519D01*
X-39641Y-62481D01*
X-22663Y-79459D01*
X-22449Y-79776D01*
X-22370Y-80166D01*
X-22370Y-154374D01*
X-22432Y-154720D01*
X-22641Y-155058D01*
X-22965Y-155289D01*
X-23354Y-155374D01*
X-23745Y-155301D01*
X-24077Y-155081D01*
X-28470Y-150688D01*
X-34718Y-148100D01*
X-41482Y-148100D01*
X-47730Y-150688D01*
X-52512Y-155470D01*
X-55100Y-161718D01*
X-55100Y-168482D01*
X-52512Y-174730D01*
X-48949Y-178293D01*
X-48748Y-178581D01*
X-48656Y-178968D01*
X-48723Y-179361D01*
X-48938Y-179696D01*
X-49266Y-179921D01*
X-49656Y-180000D01*
X-52889Y-180000D01*
X-56748Y-181599D01*
X-59701Y-184552D01*
X-61300Y-188411D01*
X-61300Y-192589D01*
X-59701Y-196448D01*
X-56748Y-199401D01*
X-52889Y-201000D01*
X-48711Y-201000D01*
X-44852Y-199401D01*
X-41899Y-196448D01*
X-40300Y-192589D01*
X-40300Y-188411D01*
X-41899Y-184552D01*
X-42825Y-183626D01*
X-43022Y-183345D01*
X-43117Y-182959D01*
X-43053Y-182566D01*
X-42841Y-182229D01*
X-42515Y-182001D01*
X-42126Y-181919D01*
X-41735Y-181995D01*
X-41482Y-182100D01*
X-34718Y-182100D01*
X-29754Y-180044D01*
X-29403Y-179968D01*
X-29011Y-180035D01*
X-28675Y-180249D01*
X-28450Y-180577D01*
X-28371Y-180967D01*
X-28371Y-225630D01*
X-28438Y-225991D01*
X-28653Y-226326D01*
X-28981Y-226551D01*
X-29371Y-226630D01*
X-35627Y-226630D01*
X-36371Y-227374D01*
X-36371Y-236626D01*
X-35627Y-237370D01*
X-17101Y-237370D01*
X-16741Y-237437D01*
X-16405Y-237652D01*
X-16180Y-237980D01*
X-16101Y-238370D01*
X-16101Y-240630D01*
X-16168Y-240991D01*
X-16383Y-241326D01*
X-16711Y-241551D01*
X-17101Y-241630D01*
X-35627Y-241630D01*
X-36371Y-242374D01*
X-36371Y-251626D01*
X-35627Y-252370D01*
X-17101Y-252370D01*
X-16741Y-252437D01*
X-16405Y-252652D01*
X-16180Y-252980D01*
X-16101Y-253370D01*
X-16101Y-253500D01*
X15293Y-253500D01*
X15668Y-253573D01*
X15769Y-253640D01*
X25137Y-253640D01*
X25137Y-240360D01*
X16899Y-240360D01*
X16539Y-240293D01*
X16203Y-240078D01*
X15978Y-239750D01*
X15899Y-239360D01*
X15899Y-238370D01*
X15966Y-238010D01*
X16181Y-237674D01*
X16509Y-237449D01*
X16899Y-237370D01*
X35425Y-237370D01*
X36169Y-236626D01*
X36169Y-227374D01*
X35425Y-226630D01*
X29169Y-226630D01*
X28809Y-226563D01*
X28473Y-226348D01*
X28248Y-226020D01*
X28169Y-225630D01*
X28169Y-166011D01*
X28242Y-165636D01*
X28462Y-165304D01*
X42923Y-150843D01*
X43211Y-150642D01*
X43598Y-150551D01*
X43991Y-150618D01*
X44326Y-150832D01*
X44551Y-151160D01*
X44630Y-151550D01*
X44630Y-152976D01*
X45374Y-153720D01*
X59030Y-153720D01*
X59391Y-153787D01*
X59726Y-154002D01*
X59951Y-154330D01*
X60030Y-154720D01*
X60030Y-182467D01*
X59968Y-182812D01*
X59759Y-183151D01*
X59435Y-183381D01*
X59046Y-183466D01*
X58655Y-183393D01*
X58323Y-183174D01*
X56748Y-181599D01*
X52889Y-180000D01*
X48711Y-180000D01*
X44852Y-181599D01*
X41899Y-184552D01*
X40300Y-188411D01*
X40300Y-192589D01*
X41899Y-196448D01*
X44852Y-199401D01*
X48711Y-201000D01*
X52889Y-201000D01*
X56347Y-199567D01*
X56698Y-199492D01*
X57091Y-199558D01*
X57426Y-199773D01*
X57651Y-200101D01*
X57730Y-200491D01*
X57730Y-217830D01*
X57663Y-218191D01*
X57448Y-218526D01*
X57120Y-218751D01*
X56730Y-218830D01*
X53374Y-218830D01*
X52630Y-219574D01*
X52630Y-229726D01*
X53374Y-230470D01*
X66626Y-230470D01*
X67370Y-229726D01*
X67370Y-219574D01*
X66626Y-218830D01*
X63270Y-218830D01*
X62910Y-218763D01*
X62574Y-218548D01*
X62349Y-218220D01*
X62270Y-217830D01*
X62270Y-198918D01*
X62343Y-198543D01*
X62563Y-198211D01*
X64570Y-196204D01*
X64570Y-154720D01*
X64637Y-154360D01*
X64852Y-154024D01*
X65180Y-153799D01*
X65570Y-153720D01*
X71426Y-153720D01*
X72170Y-152976D01*
X72170Y-126424D01*
X71426Y-125680D01*
X46670Y-125680D01*
X46310Y-125613D01*
X45974Y-125398D01*
X45902Y-125292D01*
X-14684Y-64707D01*
X-14884Y-64419D01*
X-14976Y-64032D01*
X-14909Y-63640D01*
X-14695Y-63304D01*
X-14367Y-63079D01*
X-13977Y-63000D01*
X15293Y-63000D01*
X15668Y-63073D01*
X15769Y-63140D01*
X25137Y-63140D01*
X25137Y-49860D01*
X16899Y-49860D01*
X16539Y-49793D01*
X16203Y-49578D01*
X15978Y-49250D01*
X15899Y-48860D01*
X15899Y-47870D01*
X15966Y-47510D01*
X16181Y-47174D01*
X16509Y-46949D01*
X16899Y-46870D01*
X35425Y-46870D01*
X36169Y-46126D01*
X36169Y-36874D01*
X35425Y-36130D01*
X29169Y-36130D01*
X28809Y-36063D01*
X28473Y-35848D01*
X28248Y-35520D01*
X28169Y-35130D01*
X28169Y24489D01*
X28242Y24864D01*
X28462Y25196D01*
X42923Y39657D01*
X43211Y39858D01*
X43598Y39949D01*
X43991Y39882D01*
X44326Y39668D01*
X44551Y39340D01*
X44630Y38950D01*
X44630Y37524D01*
X45374Y36780D01*
X59030Y36780D01*
X59391Y36713D01*
X59726Y36498D01*
X59951Y36170D01*
X60030Y35780D01*
X60030Y8033D01*
X59968Y7688D01*
X59759Y7349D01*
X59435Y7119D01*
X59046Y7034D01*
X58655Y7107D01*
X58323Y7326D01*
X56748Y8901D01*
X52889Y10500D01*
X48711Y10500D01*
X44852Y8901D01*
X41899Y5948D01*
X40300Y2089D01*
X40300Y-2089D01*
X41899Y-5948D01*
X44852Y-8901D01*
X48711Y-10500D01*
X52889Y-10500D01*
X56347Y-9067D01*
X56698Y-8992D01*
X57091Y-9058D01*
X57426Y-9273D01*
X57651Y-9601D01*
X57730Y-9991D01*
X57730Y-27330D01*
X57663Y-27691D01*
X57448Y-28026D01*
X57120Y-28251D01*
X56730Y-28330D01*
X53374Y-28330D01*
X52630Y-29074D01*
X52630Y-39226D01*
X53374Y-39970D01*
X66626Y-39970D01*
X67370Y-39226D01*
X67370Y-29074D01*
X66626Y-28330D01*
X63270Y-28330D01*
X62910Y-28263D01*
X62574Y-28048D01*
X62349Y-27720D01*
X62270Y-27330D01*
X62270Y-8418D01*
X62343Y-8043D01*
X62563Y-7711D01*
X64570Y-5704D01*
X64570Y35780D01*
X64637Y36141D01*
X64852Y36476D01*
X65180Y36701D01*
X65570Y36780D01*
X69900Y36780D01*
X70261Y36713D01*
X70596Y36498D01*
X70821Y36170D01*
X70900Y35780D01*
X70900Y-53876D01*
X70827Y-54251D01*
X70607Y-54583D01*
X64453Y-60737D01*
X64136Y-60951D01*
X63746Y-61030D01*
X53374Y-61030D01*
X52630Y-61774D01*
X52630Y-71926D01*
X53374Y-72670D01*
X66626Y-72670D01*
X67370Y-71926D01*
X67370Y-64654D01*
X67443Y-64279D01*
X67663Y-63947D01*
X75440Y-56170D01*
X75440Y115919D01*
X75499Y116257D01*
X75705Y116598D01*
X76028Y116831D01*
X76416Y116919D01*
X76808Y116849D01*
X77141Y116632D01*
X77364Y116302D01*
X77820Y115202D01*
X80202Y112820D01*
X82113Y112028D01*
X82426Y111823D01*
X82651Y111494D01*
X82730Y111104D01*
X82730Y-230996D01*
X82657Y-231371D01*
X82437Y-231703D01*
X62903Y-251237D01*
X62586Y-251451D01*
X62196Y-251530D01*
X53374Y-251530D01*
X52630Y-252274D01*
X52630Y-262426D01*
X53374Y-263170D01*
X66626Y-263170D01*
X67370Y-262426D01*
X67370Y-253604D01*
X67443Y-253229D01*
X67663Y-252897D01*
X87270Y-233290D01*
X87270Y111104D01*
X87340Y111472D01*
X87557Y111806D01*
X87887Y112028D01*
X89798Y112820D01*
X91543Y114565D01*
X91831Y114765D01*
X92218Y114857D01*
X92611Y114790D01*
X92946Y114576D01*
X93171Y114247D01*
X93250Y113857D01*
X93250Y-275750D01*
X93241Y-275881D01*
X91981Y-285457D01*
X91913Y-285709D01*
X88217Y-294633D01*
X88086Y-294859D01*
X82206Y-302522D01*
X82022Y-302706D01*
X74359Y-308586D01*
X74133Y-308717D01*
X65209Y-312413D01*
X64957Y-312481D01*
X55381Y-313741D01*
G37*
%LPC*%
G36*
X-2586Y277287D02*
X2586Y277287D01*
X7364Y279266D01*
X11021Y282923D01*
X13000Y287701D01*
X13000Y292873D01*
X11021Y297651D01*
X7364Y301308D01*
X2586Y303287D01*
X-2586Y303287D01*
X-7364Y301308D01*
X-11021Y297651D01*
X-13000Y292873D01*
X-13000Y287701D01*
X-11021Y282923D01*
X-7364Y279266D01*
X-2586Y277287D01*
G37*
G36*
X22018Y224300D02*
X28782Y224300D01*
X35030Y226888D01*
X39812Y231670D01*
X42400Y237918D01*
X42400Y244682D01*
X39812Y250930D01*
X35030Y255712D01*
X28782Y258300D01*
X22018Y258300D01*
X15770Y255712D01*
X10988Y250930D01*
X8400Y244682D01*
X8400Y237918D01*
X10988Y231670D01*
X15770Y226888D01*
X22018Y224300D01*
G37*
G36*
X-86626Y-179120D02*
X-60574Y-179120D01*
X-59830Y-178376D01*
X-59830Y-151824D01*
X-60574Y-151080D01*
X-70330Y-151080D01*
X-70691Y-151013D01*
X-71026Y-150798D01*
X-71251Y-150470D01*
X-71330Y-150080D01*
X-71330Y10380D01*
X-71263Y10741D01*
X-71048Y11076D01*
X-70720Y11301D01*
X-70330Y11380D01*
X-60574Y11380D01*
X-59830Y12124D01*
X-59830Y38676D01*
X-60574Y39420D01*
X-70330Y39420D01*
X-70691Y39487D01*
X-71026Y39702D01*
X-71251Y40030D01*
X-71330Y40420D01*
X-71330Y200880D01*
X-71263Y201241D01*
X-71048Y201576D01*
X-70720Y201801D01*
X-70330Y201880D01*
X-65570Y201880D01*
X-65210Y201813D01*
X-64874Y201598D01*
X-64649Y201270D01*
X-64570Y200880D01*
X-64570Y184703D01*
X-64549Y184672D01*
X-64470Y184282D01*
X-64470Y177693D01*
X-64543Y177317D01*
X-64763Y176986D01*
X-65982Y175767D01*
X-65982Y172633D01*
X-63767Y170418D01*
X-60633Y170418D01*
X-58418Y172633D01*
X-58418Y175767D01*
X-59637Y176986D01*
X-59851Y177303D01*
X-59930Y177693D01*
X-59930Y182367D01*
X-59868Y182712D01*
X-59659Y183051D01*
X-59335Y183281D01*
X-58946Y183366D01*
X-58555Y183293D01*
X-58223Y183074D01*
X-56748Y181599D01*
X-52889Y180000D01*
X-48711Y180000D01*
X-44852Y181599D01*
X-41899Y184552D01*
X-40300Y188411D01*
X-40300Y192589D01*
X-41899Y196448D01*
X-42825Y197374D01*
X-43022Y197655D01*
X-43117Y198041D01*
X-43053Y198434D01*
X-42841Y198771D01*
X-42515Y198999D01*
X-42126Y199081D01*
X-41735Y199005D01*
X-41482Y198900D01*
X-34718Y198900D01*
X-28470Y201488D01*
X-23688Y206270D01*
X-21100Y212518D01*
X-21100Y219282D01*
X-23688Y225530D01*
X-28470Y230312D01*
X-34718Y232900D01*
X-41482Y232900D01*
X-47730Y230312D01*
X-52512Y225530D01*
X-55100Y219282D01*
X-55100Y212518D01*
X-52512Y206270D01*
X-48949Y202707D01*
X-48748Y202419D01*
X-48656Y202032D01*
X-48723Y201640D01*
X-48938Y201304D01*
X-49266Y201079D01*
X-49656Y201000D01*
X-52889Y201000D01*
X-56748Y199401D01*
X-58323Y197826D01*
X-58611Y197626D01*
X-58998Y197534D01*
X-59391Y197601D01*
X-59726Y197815D01*
X-59951Y198143D01*
X-60030Y198533D01*
X-60030Y202010D01*
X-59957Y202385D01*
X-59830Y202577D01*
X-59830Y229176D01*
X-60574Y229920D01*
X-86626Y229920D01*
X-87370Y229176D01*
X-87370Y202624D01*
X-86626Y201880D01*
X-76870Y201880D01*
X-76510Y201813D01*
X-76174Y201598D01*
X-75949Y201270D01*
X-75870Y200880D01*
X-75870Y40420D01*
X-75937Y40060D01*
X-76152Y39724D01*
X-76480Y39499D01*
X-76870Y39420D01*
X-86626Y39420D01*
X-87370Y38676D01*
X-87370Y12124D01*
X-86626Y11380D01*
X-76870Y11380D01*
X-76510Y11313D01*
X-76174Y11098D01*
X-75949Y10770D01*
X-75870Y10380D01*
X-75870Y-150080D01*
X-75937Y-150441D01*
X-76152Y-150776D01*
X-76480Y-151001D01*
X-76870Y-151080D01*
X-86626Y-151080D01*
X-87370Y-151824D01*
X-87370Y-178376D01*
X-86626Y-179120D01*
G37*
G36*
X-4376Y168498D02*
X4376Y168498D01*
X12463Y171848D01*
X18652Y178037D01*
X22002Y186124D01*
X22002Y194876D01*
X18652Y202963D01*
X12463Y209152D01*
X4376Y212502D01*
X-4376Y212502D01*
X-12463Y209152D01*
X-18652Y202963D01*
X-22002Y194876D01*
X-22002Y186124D01*
X-18652Y178037D01*
X-12463Y171848D01*
X-4376Y168498D01*
G37*
G36*
X26661Y-55738D02*
X37439Y-55738D01*
X37439Y-51348D01*
X35951Y-49860D01*
X26661Y-49860D01*
X26661Y-55738D01*
G37*
G36*
X26661Y-63140D02*
X35951Y-63140D01*
X37439Y-61652D01*
X37439Y-57262D01*
X26661Y-57262D01*
X26661Y-63140D01*
G37*
G36*
X26661Y-246238D02*
X37439Y-246238D01*
X37439Y-241848D01*
X35951Y-240360D01*
X26661Y-240360D01*
X26661Y-246238D01*
G37*
G36*
X26661Y-253640D02*
X35951Y-253640D01*
X37439Y-252152D01*
X37439Y-247762D01*
X26661Y-247762D01*
X26661Y-253640D01*
G37*
G36*
X-2586Y-298750D02*
X2586Y-298750D01*
X7364Y-296771D01*
X11021Y-293114D01*
X13000Y-288336D01*
X13000Y-283164D01*
X11021Y-278386D01*
X7364Y-274729D01*
X2586Y-272750D01*
X-2586Y-272750D01*
X-7364Y-274729D01*
X-11021Y-278386D01*
X-13000Y-283164D01*
X-13000Y-288336D01*
X-11021Y-293114D01*
X-7364Y-296771D01*
X-2586Y-298750D01*
G37*
%LPD*%
G36*
X70290Y64899D02*
X69900Y64820D01*
X46670Y64820D01*
X46310Y64887D01*
X45974Y65102D01*
X45902Y65208D01*
X-14684Y125793D01*
X-14884Y126081D01*
X-14976Y126468D01*
X-14909Y126861D01*
X-14695Y127196D01*
X-14367Y127421D01*
X-13977Y127500D01*
X15293Y127500D01*
X15668Y127427D01*
X15769Y127360D01*
X25137Y127360D01*
X25137Y140640D01*
X16899Y140640D01*
X16539Y140707D01*
X16203Y140922D01*
X15978Y141250D01*
X15899Y141640D01*
X15899Y142630D01*
X15966Y142991D01*
X16181Y143326D01*
X16509Y143551D01*
X16899Y143630D01*
X35425Y143630D01*
X36169Y144374D01*
X36169Y153626D01*
X35659Y154136D01*
X35452Y154438D01*
X35367Y154827D01*
X35439Y155218D01*
X35659Y155550D01*
X39370Y159261D01*
X39370Y185629D01*
X39429Y185967D01*
X39635Y186308D01*
X39958Y186541D01*
X40346Y186629D01*
X40738Y186559D01*
X41071Y186342D01*
X41294Y186012D01*
X41899Y184552D01*
X44852Y181599D01*
X48711Y180000D01*
X52889Y180000D01*
X56347Y181433D01*
X56698Y181508D01*
X57091Y181442D01*
X57426Y181227D01*
X57651Y180899D01*
X57730Y180509D01*
X57730Y163170D01*
X57663Y162810D01*
X57448Y162474D01*
X57120Y162249D01*
X56730Y162170D01*
X53374Y162170D01*
X52630Y161426D01*
X52630Y151274D01*
X53374Y150530D01*
X66626Y150530D01*
X67370Y151274D01*
X67370Y161426D01*
X66626Y162170D01*
X63270Y162170D01*
X62910Y162237D01*
X62574Y162452D01*
X62349Y162780D01*
X62270Y163170D01*
X62270Y182082D01*
X62343Y182457D01*
X62563Y182789D01*
X64570Y184796D01*
X64570Y196204D01*
X62763Y198011D01*
X62549Y198328D01*
X62470Y198718D01*
X62470Y210007D01*
X62543Y210383D01*
X62763Y210714D01*
X63982Y211933D01*
X63982Y215067D01*
X63026Y216023D01*
X62825Y216311D01*
X62733Y216698D01*
X62800Y217091D01*
X63015Y217426D01*
X63343Y217651D01*
X63733Y217730D01*
X76104Y217730D01*
X76472Y217660D01*
X76806Y217443D01*
X77028Y217113D01*
X77820Y215202D01*
X80202Y212820D01*
X83119Y211611D01*
X83415Y211422D01*
X83648Y211099D01*
X83736Y210711D01*
X83666Y210319D01*
X83449Y209986D01*
X83119Y209763D01*
X79483Y208257D01*
X76743Y205517D01*
X75260Y201937D01*
X75260Y200762D01*
X85762Y200762D01*
X85762Y199238D01*
X75260Y199238D01*
X75260Y198063D01*
X76743Y194483D01*
X79483Y191743D01*
X83119Y190237D01*
X83415Y190047D01*
X83648Y189725D01*
X83736Y189337D01*
X83666Y188945D01*
X83449Y188611D01*
X83119Y188389D01*
X80202Y187181D01*
X77820Y184798D01*
X76530Y181685D01*
X76530Y178315D01*
X77820Y175202D01*
X80202Y172820D01*
X83315Y171530D01*
X86685Y171530D01*
X89798Y172820D01*
X91543Y174565D01*
X91831Y174765D01*
X92218Y174857D01*
X92611Y174790D01*
X92946Y174576D01*
X93171Y174247D01*
X93250Y173857D01*
X93250Y166143D01*
X93188Y165797D01*
X92979Y165458D01*
X92655Y165228D01*
X92266Y165143D01*
X91875Y165216D01*
X91543Y165436D01*
X89798Y167181D01*
X86685Y168470D01*
X83315Y168470D01*
X80202Y167181D01*
X77820Y164798D01*
X76530Y161685D01*
X76530Y158315D01*
X77321Y156405D01*
X77397Y156038D01*
X77324Y155647D01*
X77105Y155315D01*
X57730Y135940D01*
X57730Y130470D01*
X57663Y130110D01*
X57448Y129774D01*
X57120Y129549D01*
X56730Y129470D01*
X53374Y129470D01*
X52630Y128726D01*
X52630Y118574D01*
X53374Y117830D01*
X66626Y117830D01*
X67370Y118574D01*
X67370Y128726D01*
X66626Y129470D01*
X63270Y129470D01*
X62910Y129537D01*
X62574Y129752D01*
X62349Y130080D01*
X62270Y130470D01*
X62270Y133646D01*
X62343Y134021D01*
X62563Y134353D01*
X80315Y152105D01*
X80625Y152315D01*
X81014Y152397D01*
X81405Y152321D01*
X83315Y151530D01*
X86685Y151530D01*
X89798Y152820D01*
X91543Y154565D01*
X91831Y154765D01*
X92218Y154857D01*
X92611Y154790D01*
X92946Y154576D01*
X93171Y154247D01*
X93250Y153857D01*
X93250Y146143D01*
X93188Y145797D01*
X92979Y145458D01*
X92655Y145228D01*
X92266Y145143D01*
X91875Y145216D01*
X91543Y145436D01*
X89798Y147181D01*
X86685Y148470D01*
X83315Y148470D01*
X80202Y147181D01*
X77820Y144798D01*
X76530Y141685D01*
X76530Y138315D01*
X77321Y136405D01*
X77397Y136038D01*
X77324Y135647D01*
X77105Y135315D01*
X70900Y129110D01*
X70900Y65820D01*
X70833Y65460D01*
X70618Y65124D01*
X70290Y64899D01*
G37*
%LPC*%
G36*
X26661Y134762D02*
X37439Y134762D01*
X37439Y139152D01*
X35951Y140640D01*
X26661Y140640D01*
X26661Y134762D01*
G37*
G36*
X26661Y127360D02*
X35951Y127360D01*
X37439Y128848D01*
X37439Y133238D01*
X26661Y133238D01*
X26661Y127360D01*
G37*
%LPD*%
G36*
X40789Y194463D02*
X40402Y194371D01*
X40010Y194438D01*
X39674Y194652D01*
X39449Y194981D01*
X39370Y195371D01*
X39370Y204346D01*
X39443Y204721D01*
X39663Y205053D01*
X52047Y217437D01*
X52364Y217651D01*
X52754Y217730D01*
X56667Y217730D01*
X57013Y217668D01*
X57351Y217459D01*
X57582Y217135D01*
X57667Y216746D01*
X57594Y216355D01*
X57374Y216023D01*
X56418Y215067D01*
X56418Y211933D01*
X57637Y210714D01*
X57851Y210397D01*
X57930Y210007D01*
X57930Y200408D01*
X57866Y200055D01*
X57654Y199718D01*
X57327Y199491D01*
X56938Y199408D01*
X56547Y199485D01*
X52889Y201000D01*
X48711Y201000D01*
X44852Y199401D01*
X41899Y196448D01*
X41294Y194988D01*
X41110Y194698D01*
X40789Y194463D01*
G37*
G36*
X-22412Y4080D02*
X-22799Y3989D01*
X-23192Y4055D01*
X-23527Y4270D01*
X-23752Y4598D01*
X-23831Y4988D01*
X-23831Y10589D01*
X-23758Y10964D01*
X-23538Y11296D01*
X-17830Y17004D01*
X-17830Y112629D01*
X-32124Y126923D01*
X-32325Y127211D01*
X-32416Y127598D01*
X-32350Y127991D01*
X-32135Y128326D01*
X-31807Y128551D01*
X-31417Y128630D01*
X-24355Y128630D01*
X-23980Y128557D01*
X-23648Y128337D01*
X40837Y63852D01*
X41051Y63535D01*
X41130Y63145D01*
X41130Y61526D01*
X41068Y61180D01*
X40859Y60842D01*
X40535Y60611D01*
X40146Y60526D01*
X39755Y60599D01*
X39423Y60819D01*
X35030Y65212D01*
X28782Y67800D01*
X22018Y67800D01*
X15770Y65212D01*
X10988Y60430D01*
X8400Y54182D01*
X8400Y47418D01*
X10988Y41170D01*
X15770Y36388D01*
X22018Y33800D01*
X28231Y33800D01*
X28577Y33738D01*
X28916Y33529D01*
X29146Y33205D01*
X29231Y32816D01*
X29158Y32425D01*
X28939Y32093D01*
X23629Y26783D01*
X23629Y5476D01*
X23570Y5138D01*
X23364Y4798D01*
X23041Y4565D01*
X22653Y4476D01*
X22261Y4546D01*
X21928Y4763D01*
X21705Y5093D01*
X18652Y12463D01*
X12463Y18652D01*
X4376Y22002D01*
X-4376Y22002D01*
X-12463Y18652D01*
X-18652Y12463D01*
X-21907Y4606D01*
X-22091Y4316D01*
X-22412Y4080D01*
G37*
G36*
X-16711Y-36051D02*
X-17101Y-36130D01*
X-22831Y-36130D01*
X-23192Y-36063D01*
X-23527Y-35848D01*
X-23752Y-35520D01*
X-23831Y-35130D01*
X-23831Y-4988D01*
X-23772Y-4650D01*
X-23566Y-4310D01*
X-23243Y-4077D01*
X-22855Y-3989D01*
X-22463Y-4058D01*
X-22130Y-4276D01*
X-21907Y-4606D01*
X-18652Y-12463D01*
X-12463Y-18652D01*
X-4376Y-22002D01*
X4376Y-22002D01*
X12463Y-18652D01*
X18652Y-12463D01*
X21705Y-5093D01*
X21889Y-4803D01*
X22210Y-4568D01*
X22597Y-4476D01*
X22990Y-4543D01*
X23325Y-4758D01*
X23550Y-5086D01*
X23629Y-5476D01*
X23629Y-35130D01*
X23562Y-35491D01*
X23347Y-35826D01*
X23019Y-36051D01*
X22629Y-36130D01*
X16899Y-36130D01*
X16539Y-36063D01*
X16203Y-35848D01*
X15978Y-35520D01*
X15899Y-35130D01*
X15899Y-35000D01*
X-16101Y-35000D01*
X-16101Y-35130D01*
X-16168Y-35491D01*
X-16383Y-35826D01*
X-16711Y-36051D01*
G37*
G36*
X-22412Y-186420D02*
X-22799Y-186511D01*
X-23192Y-186445D01*
X-23527Y-186230D01*
X-23752Y-185902D01*
X-23831Y-185512D01*
X-23831Y-179911D01*
X-23758Y-179536D01*
X-23538Y-179204D01*
X-17830Y-173496D01*
X-17830Y-77871D01*
X-32124Y-63577D01*
X-32325Y-63289D01*
X-32416Y-62902D01*
X-32350Y-62510D01*
X-32135Y-62174D01*
X-31807Y-61949D01*
X-31417Y-61870D01*
X-24355Y-61870D01*
X-23980Y-61943D01*
X-23648Y-62163D01*
X40837Y-126648D01*
X41051Y-126965D01*
X41130Y-127355D01*
X41130Y-128974D01*
X41068Y-129320D01*
X40859Y-129658D01*
X40535Y-129889D01*
X40146Y-129974D01*
X39755Y-129901D01*
X39423Y-129681D01*
X35030Y-125288D01*
X28782Y-122700D01*
X22018Y-122700D01*
X15770Y-125288D01*
X10988Y-130070D01*
X8400Y-136318D01*
X8400Y-143082D01*
X10988Y-149330D01*
X15770Y-154112D01*
X22018Y-156700D01*
X28231Y-156700D01*
X28577Y-156762D01*
X28916Y-156971D01*
X29146Y-157295D01*
X29231Y-157684D01*
X29158Y-158075D01*
X28939Y-158407D01*
X23629Y-163717D01*
X23629Y-185024D01*
X23570Y-185362D01*
X23364Y-185703D01*
X23041Y-185935D01*
X22653Y-186024D01*
X22261Y-185954D01*
X21928Y-185737D01*
X21705Y-185407D01*
X18652Y-178037D01*
X12463Y-171848D01*
X4376Y-168498D01*
X-4376Y-168498D01*
X-12463Y-171848D01*
X-18652Y-178037D01*
X-21907Y-185894D01*
X-22091Y-186184D01*
X-22412Y-186420D01*
G37*
G36*
X-16711Y-226551D02*
X-17101Y-226630D01*
X-22831Y-226630D01*
X-23192Y-226563D01*
X-23527Y-226348D01*
X-23752Y-226020D01*
X-23831Y-225630D01*
X-23831Y-195488D01*
X-23772Y-195150D01*
X-23566Y-194810D01*
X-23243Y-194577D01*
X-22855Y-194489D01*
X-22463Y-194558D01*
X-22130Y-194776D01*
X-21907Y-195106D01*
X-18652Y-202963D01*
X-12463Y-209152D01*
X-4376Y-212502D01*
X4376Y-212502D01*
X12463Y-209152D01*
X18652Y-202963D01*
X21705Y-195593D01*
X21889Y-195303D01*
X22210Y-195068D01*
X22597Y-194976D01*
X22990Y-195043D01*
X23325Y-195258D01*
X23550Y-195586D01*
X23629Y-195976D01*
X23629Y-225630D01*
X23562Y-225991D01*
X23347Y-226326D01*
X23019Y-226551D01*
X22629Y-226630D01*
X16899Y-226630D01*
X16539Y-226563D01*
X16203Y-226348D01*
X15978Y-226020D01*
X15899Y-225630D01*
X15899Y-225500D01*
X-16101Y-225500D01*
X-16101Y-225630D01*
X-16168Y-225991D01*
X-16383Y-226326D01*
X-16711Y-226551D01*
G37*
D10*
X85000Y160000D03*
X85000Y140000D03*
X85000Y120000D03*
D11*
X60000Y123650D03*
X60000Y156350D03*
X60000Y-66850D03*
X60000Y-34150D03*
X60000Y-257350D03*
X60000Y-224650D03*
D10*
X85000Y180000D03*
D12*
X-73600Y215900D03*
X58400Y241300D03*
X-73600Y25400D03*
X58400Y50800D03*
X-73600Y-165100D03*
X58400Y-139700D03*
D13*
X25899Y149000D03*
X25899Y134000D03*
X-26101Y134000D03*
X-26101Y149000D03*
X25899Y-41500D03*
X25899Y-56500D03*
X-26101Y-56500D03*
X-26101Y-41500D03*
X25899Y-232000D03*
X25899Y-247000D03*
X-26101Y-247000D03*
X-26101Y-232000D03*
D10*
X85000Y200000D03*
X85000Y220000D03*
X85000Y240000D03*
D14*
X60200Y213500D03*
D15*
X60000Y183437D02*
X60000Y156350D01*
X60000Y183437D02*
X62300Y185737D01*
X62300Y195264D01*
X60200Y197364D01*
X60200Y213500D01*
D14*
X45300Y223900D03*
D15*
X45300Y228200D01*
X58400Y241300D01*
X62300Y-4764D02*
X60000Y-7064D01*
X60000Y-34150D01*
X62300Y46900D02*
X58400Y50800D01*
X62300Y46900D02*
X62300Y-4764D01*
X62300Y-195264D02*
X60000Y-197564D01*
X60000Y-224650D01*
X62300Y-143600D02*
X58400Y-139700D01*
X62300Y-143600D02*
X62300Y-195264D01*
X-73600Y25400D02*
X-73600Y215900D01*
X-73600Y25400D02*
X-73600Y-165100D01*
D14*
X-62200Y174200D03*
D15*
X-62200Y185637D01*
X-62300Y185737D01*
X-62300Y204600D02*
X-73600Y215900D01*
X-62300Y204600D02*
X-62300Y185737D01*
X60000Y135000D02*
X60000Y123650D01*
X60000Y135000D02*
X85000Y160000D01*
X73170Y128170D02*
X73170Y-55230D01*
X73170Y128170D02*
X85000Y140000D01*
X73170Y-55230D02*
X61550Y-66850D01*
X60000Y-66850D01*
X85000Y-232350D02*
X60000Y-257350D01*
X85000Y-232350D02*
X85000Y120000D01*
D14*
X-79200Y271500D03*
X84100Y277800D03*
X-77900Y-273500D03*
X82100Y-275200D03*
X74700Y-221600D03*
X-62500Y-226100D03*
X-50300Y-107500D03*
X45700Y-79200D03*
X-47800Y-25100D03*
X39100Y19200D03*
X-53031Y158069D03*
X25000Y215800D03*
X27500Y173400D03*
X48600Y170300D03*
X27500Y198800D03*
X-4800Y-140900D03*
X-18900Y-25600D03*
X-4900Y40200D03*
X-9700Y93300D03*
X15100Y-217000D03*
X-17700Y-215400D03*
X15700Y-164300D03*
X50300Y207600D03*
D15*
X25899Y25843D02*
X25899Y-41500D01*
X25899Y25843D02*
X43400Y43344D01*
X43400Y64499D02*
X-26101Y134000D01*
X43400Y64499D02*
X43400Y43344D01*
X25899Y-164657D02*
X25899Y-232000D01*
X25899Y-164657D02*
X43400Y-147156D01*
X43400Y-126001D02*
X-26101Y-56500D01*
X43400Y-126001D02*
X43400Y-147156D01*
D14*
X-19300Y167200D03*
D15*
X-26101Y160399D01*
X-26101Y149000D01*
X-36041Y140370D02*
X-37371Y139040D01*
X-37371Y128960D01*
X-20100Y17944D02*
X-26101Y11943D01*
X-26101Y-41500D01*
X-34731Y140370D02*
X-26101Y149000D01*
X-34731Y140370D02*
X-36041Y140370D01*
X-37371Y128960D02*
X-20100Y111689D01*
X-20100Y17944D01*
X-36041Y-50130D02*
X-37371Y-51460D01*
X-37371Y-61540D01*
X-20100Y-172556D02*
X-26101Y-178557D01*
X-26101Y-232000D01*
X-34731Y-50130D02*
X-26101Y-41500D01*
X-34731Y-50130D02*
X-36041Y-50130D01*
X-37371Y-61540D02*
X-20100Y-78811D01*
X-20100Y-172556D01*
X25899Y149000D02*
X37100Y160201D01*
X37100Y205700D01*
X51400Y220000D01*
X85000Y220000D01*
M02*
