G04 EAGLE Gerber RS-274X export*
G75*
%MOMM*%
%FSLAX34Y34*%
%LPD*%
%INSoldermask Top*%
%IPPOS*%
%AMOC8*
5,1,8,0,0,1.08239X$1,22.5*%
G01*
G04 Define Apertures*
%ADD10C,2.403200*%
%ADD11R,1.643200X1.643200*%
%ADD12C,1.643200*%
%ADD13C,0.803200*%
%ADD14C,1.503200*%
%ADD15R,1.253200X0.853200*%
%ADD16R,1.643200X1.643200*%
%ADD17C,0.705600*%
G36*
X-42126Y337824D02*
X-41059Y337450D01*
X-40101Y336849D01*
X-39302Y336049D01*
X-38700Y335091D01*
X-38326Y334024D01*
X-38200Y332903D01*
X-38200Y324897D01*
X-38326Y323776D01*
X-38700Y322709D01*
X-39302Y321751D01*
X-40101Y320952D01*
X-41059Y320350D01*
X-42126Y319976D01*
X-43250Y319850D01*
X-44374Y319976D01*
X-45441Y320350D01*
X-46399Y320952D01*
X-47199Y321751D01*
X-47800Y322709D01*
X-48174Y323776D01*
X-48300Y324897D01*
X-48300Y332903D01*
X-48174Y334024D01*
X-47800Y335091D01*
X-47199Y336049D01*
X-46399Y336849D01*
X-45441Y337450D01*
X-44374Y337824D01*
X-43250Y337950D01*
X-42126Y337824D01*
G37*
G36*
X44374Y337824D02*
X45441Y337450D01*
X46399Y336849D01*
X47199Y336049D01*
X47800Y335091D01*
X48174Y334024D01*
X48300Y332903D01*
X48300Y324897D01*
X48174Y323776D01*
X47800Y322709D01*
X47199Y321751D01*
X46399Y320952D01*
X45441Y320350D01*
X44374Y319976D01*
X43250Y319850D01*
X42126Y319976D01*
X41059Y320350D01*
X40101Y320952D01*
X39302Y321751D01*
X38700Y322709D01*
X38326Y323776D01*
X38200Y324897D01*
X38200Y332903D01*
X38326Y334024D01*
X38700Y335091D01*
X39302Y336049D01*
X40101Y336849D01*
X41059Y337450D01*
X42126Y337824D01*
X43250Y337950D01*
X44374Y337824D01*
G37*
G36*
X-42126Y297624D02*
X-41059Y297250D01*
X-40101Y296649D01*
X-39302Y295849D01*
X-38700Y294891D01*
X-38326Y293824D01*
X-38200Y292703D01*
X-38200Y281697D01*
X-38326Y280576D01*
X-38700Y279509D01*
X-39302Y278551D01*
X-40101Y277752D01*
X-41059Y277150D01*
X-42126Y276776D01*
X-43250Y276650D01*
X-44374Y276776D01*
X-45441Y277150D01*
X-46399Y277752D01*
X-47199Y278551D01*
X-47800Y279509D01*
X-48174Y280576D01*
X-48300Y281697D01*
X-48300Y292703D01*
X-48174Y293824D01*
X-47800Y294891D01*
X-47199Y295849D01*
X-46399Y296649D01*
X-45441Y297250D01*
X-44374Y297624D01*
X-43250Y297750D01*
X-42126Y297624D01*
G37*
G36*
X44374Y297624D02*
X45441Y297250D01*
X46399Y296649D01*
X47199Y295849D01*
X47800Y294891D01*
X48174Y293824D01*
X48300Y292703D01*
X48300Y281697D01*
X48174Y280576D01*
X47800Y279509D01*
X47199Y278551D01*
X46399Y277752D01*
X45441Y277150D01*
X44374Y276776D01*
X43250Y276650D01*
X42137Y276764D01*
X41076Y277123D01*
X40122Y277709D01*
X39322Y278493D01*
X38717Y279435D01*
X38336Y280488D01*
X38200Y281597D01*
X38200Y292603D01*
X38316Y293736D01*
X38683Y294817D01*
X39281Y295791D01*
X40081Y296606D01*
X41042Y297223D01*
X42116Y297611D01*
X43250Y297750D01*
X44374Y297624D01*
G37*
D10*
X0Y-140000D03*
X-105000Y158500D03*
X-160000Y150000D03*
X-190000Y320000D03*
X-115800Y-106600D03*
X60000Y-160000D03*
X120000Y75000D03*
X-52400Y239500D03*
X120000Y27000D03*
X-45000Y-170000D03*
D11*
X50000Y120000D03*
D12*
X30000Y120000D03*
X10000Y120000D03*
X-10000Y120000D03*
X-30000Y120000D03*
X-50000Y120000D03*
D13*
X-28900Y292100D03*
X28900Y292100D03*
D14*
X53500Y56600D03*
X53500Y38800D03*
X53500Y21000D03*
X53500Y3200D03*
X53500Y-14600D03*
X53500Y-32400D03*
X53500Y-50200D03*
X53500Y-68000D03*
X-53500Y-76900D03*
X-53500Y-59100D03*
X-53500Y-41300D03*
X-53500Y-23500D03*
X-53500Y-5700D03*
X-53500Y12100D03*
X-53500Y29900D03*
X-53500Y47700D03*
D12*
X-209000Y180000D03*
X-209000Y160000D03*
X-209000Y140000D03*
X-209000Y120000D03*
D11*
X-157500Y-70000D03*
D12*
X-157500Y-50000D03*
X-157500Y-30000D03*
X-157500Y-10000D03*
X-157500Y10000D03*
X-157500Y30000D03*
X-157500Y50000D03*
X-157500Y70000D03*
D15*
X159250Y275750D03*
X200750Y275750D03*
X159250Y254250D03*
X200750Y254250D03*
X159250Y235750D03*
X200750Y235750D03*
X159250Y214250D03*
X200750Y214250D03*
D11*
X-100500Y-137500D03*
D12*
X-120500Y-137500D03*
X-140500Y-137500D03*
X-160500Y-137500D03*
X-180500Y-137500D03*
X-200500Y-137500D03*
D11*
X193329Y88498D03*
D12*
X193329Y68498D03*
X193329Y48498D03*
X193329Y28498D03*
X193329Y8498D03*
X193329Y-11502D03*
D16*
G36*
X130394Y-173236D02*
X114954Y-167616D01*
X120574Y-152176D01*
X136014Y-157796D01*
X130394Y-173236D01*
G37*
D12*
X132324Y-143912D03*
X139165Y-125118D03*
X146005Y-106324D03*
X152846Y-87530D03*
X159686Y-68736D03*
X-209000Y220000D03*
X-209000Y200000D03*
X-209000Y240000D03*
D17*
X-81200Y226600D03*
X-95600Y1000D03*
X-96700Y-87200D03*
X90158Y-28500D03*
X51700Y102688D03*
X70700Y31600D03*
X-104000Y276400D03*
X-134100Y299700D03*
X63500Y199300D03*
X73200Y207200D03*
X55100Y192500D03*
X70700Y192300D03*
X55500Y208100D03*
X63000Y216200D03*
X48700Y201000D03*
X79800Y200200D03*
X63300Y183100D03*
X123100Y233100D03*
X152700Y132800D03*
X117200Y128600D03*
X159500Y172500D03*
X137500Y193900D03*
X105800Y178000D03*
X11300Y261000D03*
X30500Y254200D03*
X40100Y267400D03*
X56000Y287500D03*
X182452Y337258D03*
X109100Y-27900D03*
X95100Y-7200D03*
X97700Y-41500D03*
X67100Y-79800D03*
X-91000Y43200D03*
X-92000Y-21000D03*
X-129172Y136228D03*
X-119700Y141600D03*
X-76300Y115700D03*
X-92300Y94700D03*
X9600Y200394D03*
X-23200Y203600D03*
X-24400Y192417D03*
X-82700Y193900D03*
X-81100Y218300D03*
X-112800Y211700D03*
X-116200Y275600D03*
X113300Y204600D03*
X128387Y208513D03*
X131080Y231443D03*
X97600Y-63600D03*
X90100Y333100D03*
X166000Y330800D03*
X173600Y312200D03*
X104600Y282800D03*
X141000Y281700D03*
X140800Y262000D03*
X174700Y-48100D03*
X-195700Y-175100D03*
X71000Y2700D03*
X-89372Y311372D03*
X-181100Y154100D03*
X139500Y49700D03*
X167400Y45800D03*
X172500Y30100D03*
X161300Y-2000D03*
X-28200Y243500D03*
X184632Y303300D03*
X143519Y85919D03*
X97580Y70780D03*
X143400Y68600D03*
X184931Y280494D03*
X-197952Y266500D03*
X-197952Y246800D03*
X-9600Y165300D03*
X-74600Y165900D03*
X-117800Y234300D03*
X117200Y-45600D03*
X114300Y-101000D03*
X78700Y148000D03*
X82900Y133200D03*
X197752Y323158D03*
X-70620Y5780D03*
X172276Y106950D03*
X76700Y86200D03*
X168324Y91144D03*
X186468Y291355D03*
X91392Y134736D03*
X159500Y142400D03*
X182700Y244700D03*
X-76700Y306700D03*
X17000Y320100D03*
X17258Y292434D03*
X-99100Y-51600D03*
X-99500Y-67900D03*
X36300Y207300D03*
X34234Y232693D03*
X74000Y181400D03*
X96067Y156293D03*
X-127200Y194400D03*
X-99400Y89100D03*
X-82050Y74066D03*
X-75600Y329400D03*
X19300Y341000D03*
X106244Y127000D03*
X98432Y129149D03*
X89037Y108614D03*
X58200Y93100D03*
X-70700Y92700D03*
X-110600Y46300D03*
X-108000Y-54400D03*
X-121600Y-76300D03*
X-114388Y-49200D03*
X-66937Y97838D03*
X66026Y131626D03*
X-113600Y35000D03*
X-128400Y-76300D03*
X64448Y97644D03*
X-170500Y-104800D03*
X-79000Y-184030D03*
X151400Y75300D03*
X172722Y133200D03*
X-146600Y172153D03*
X-148400Y256100D03*
M02*
