M48
;GenerationSoftware,Autodesk,EAGLE,9.7.0*%
;CreationDate,2025-02-19T19:43:01Z*%
FMAT,2
ICI,OFF
METRIC,TZ,000.000
T5C0.350
T4C0.600
T3C0.700
T2C0.800
T1C2.200
%
G90
M71
T1
X6000Y-16000
X-5240Y23950
X12000Y2700
X0Y-14000
X-10500Y15850
X-16000Y15000
X-19000Y32000
X-11580Y-10660
X-4500Y-17000
X12000Y7500
T2
X-16050Y-13750
X-18050Y-13750
X-20900Y24000
X5000Y12000
X3000Y12000
X1000Y12000
X-1000Y12000
X-3000Y12000
X-5000Y12000
X-20050Y-13750
X19333Y8850
X19333Y6850
X19333Y4850
X-15750Y1000
X19333Y2850
X19333Y850
X19333Y-1150
X-15750Y-7000
X13232Y-14391
X13916Y-12512
X14601Y-10632
X15285Y-8753
X15969Y-6874
X-20900Y22000
X-20900Y20000
X12548Y-16271
X-20900Y18000
X-20900Y16000
X-20900Y14000
X-20900Y12000
X-15750Y-5000
X-15750Y-3000
X-15750Y-1000
X-15750Y3000
X-15750Y5000
X-15750Y7000
X-10050Y-13750
X-12050Y-13750
X-14050Y-13750
T3
X5350Y3880
X5350Y2100
X5350Y320
X5350Y-3240
X5350Y-5020
X5350Y-6800
X-5350Y-7690
X-5350Y-5910
X-5350Y-4130
X-5350Y-2350
X-5350Y2990
X-5350Y4770
X5350Y-1460
X-5350Y1210
X-5350Y-570
X5350Y5660
T4
X-2890Y29210
X2890Y29210
X-4325Y28720
X4325Y28720
X-4325Y32890
X4325Y32890
T5
X-19795Y24680
X-960Y16530
X-7460Y16590
X-11780Y23430
X11720Y-4560
X11430Y-10100
X7870Y14800
X8290Y13320
X19775Y32316
X-7062Y578
X17228Y10695
X7670Y8620
X16832Y9114
X18647Y29135
X9139Y13474
X15950Y14240
X18270Y24470
X-7670Y30670
X1700Y32010
X1726Y29243
X-9910Y-5160
X-9950Y-6790
X3630Y20730
X3423Y23269
X7400Y18140
X3050Y25420
X-12720Y19440
X-9940Y8910
X-8205Y7407
X-7560Y32940
X1930Y34100
X10624Y12700
X9843Y12915
X8904Y10861
X5820Y9310
X-7070Y9270
X-11060Y4630
X-10800Y-5440
X-12160Y-7630
X-11439Y-4920
X-6694Y9784
X6603Y13163
X-11360Y3500
X-12840Y-7630
X6445Y9764
X-17050Y-10480
X-7900Y-18403
X15140Y7530
X17272Y13320
X-14660Y17215
X-14840Y25610
X-8120Y22660
X-9560Y100
X-9670Y-8720
X9016Y-2850
X5170Y10269
X7070Y3160
X-10400Y27640
X-13410Y29970
X6350Y19930
X7320Y20720
X5510Y19250
X7070Y19230
X5550Y20810
X6300Y21620
X4870Y20100
X7980Y20020
X6330Y18310
X12310Y23310
X15270Y13280
X11720Y12860
X15950Y17250
X13750Y19390
X10580Y17800
X1130Y26100
X4010Y26740
X5600Y28750
X18245Y33726
X10910Y-2790
X9510Y-720
X9770Y-4150
X6710Y-7980
X-9100Y4320
X-9200Y-2100
X-12917Y13623
X-11970Y14160
X-7630Y11570
X-9230Y9470
X960Y20039
X-2320Y20360
X-2440Y19242
X-8270Y19390
X-8110Y21830
X-11280Y21170
X-11620Y27560
X11330Y20460
X12839Y20851
X9607Y15629
X13108Y23144
X9760Y-6360
X9010Y33310
X16600Y33080
X17360Y31220
X10460Y28280
X14100Y28170
X14080Y26200
X17470Y-4810
X-19570Y-17510
X7100Y270
X-8937Y31137
X-18110Y15410
X13950Y4970
X16740Y4580
X17250Y3010
X16130Y-200
X-2820Y24350
X18463Y30330
X14352Y8592
X9758Y7078
X14340Y6860
X18493Y28049
X-19795Y26650
M30