G04 EAGLE Gerber RS-274X export*
G75*
%MOMM*%
%FSLAX34Y34*%
%LPD*%
%INBottom Copper*%
%IPPOS*%
%AMOC8*
5,1,8,0,0,1.08239X$1,22.5*%
G01*
G04 Define Apertures*
%ADD10R,1.220000X0.910000*%
%ADD11R,0.910000X1.220000*%
%ADD12R,2.550000X2.500000*%
%ADD13R,4.000000X1.500000*%
%ADD14C,0.508000*%
%ADD15C,0.502400*%
D10*
X-63500Y136050D03*
X-63500Y168750D03*
X-63500Y-54450D03*
X-63500Y-21750D03*
X-63500Y-244950D03*
X-63500Y-212250D03*
X11900Y111950D03*
X11900Y144650D03*
D11*
X29150Y84700D03*
X61850Y84700D03*
D10*
X127000Y-244950D03*
X127000Y-212250D03*
D12*
X-120650Y116900D03*
X-146050Y248900D03*
X-120650Y-73600D03*
X-146050Y58400D03*
X-120650Y-264100D03*
X-146050Y-132100D03*
X69850Y116900D03*
X44450Y248900D03*
X69850Y-73600D03*
X44450Y58400D03*
X69850Y-264100D03*
X44450Y-132100D03*
D13*
X140000Y60000D03*
X140000Y85000D03*
X140000Y110000D03*
X140000Y135000D03*
X140000Y160000D03*
D14*
X-143650Y248900D02*
X-146050Y248900D01*
X-85084Y215042D02*
X-70708Y200666D01*
X-109792Y215042D02*
X-143650Y248900D01*
X-70708Y175958D02*
X-63500Y168750D01*
X-85084Y215042D02*
X-109792Y215042D01*
X-70708Y200666D02*
X-70708Y175958D01*
X-85084Y24542D02*
X-70708Y10166D01*
X-112192Y24542D02*
X-146050Y58400D01*
X-112192Y24542D02*
X-85084Y24542D01*
X-70708Y10166D02*
X-70708Y-14542D01*
X-63500Y-21750D01*
X-85084Y-165958D02*
X-70708Y-180334D01*
X-112192Y-165958D02*
X-146050Y-132100D01*
X-112192Y-165958D02*
X-85084Y-165958D01*
X-70708Y-180334D02*
X-70708Y-205042D01*
X-63500Y-212250D01*
X-43900Y-264100D02*
X-120650Y-264100D01*
X-43900Y-264100D02*
X-35800Y-256000D01*
X-35800Y-123300D01*
X-46000Y-113100D01*
X-85500Y-73600D01*
X-120650Y-73600D01*
X-89849Y-63840D02*
X-82210Y-56201D01*
X-110890Y-63840D02*
X-120650Y-73600D01*
X-82210Y-56201D02*
X-82210Y-48810D01*
X-76600Y-43200D01*
X-89849Y-63840D02*
X-110890Y-63840D01*
X-76600Y-43200D02*
X-63510Y-30110D01*
X-55822Y-30110D01*
X-47900Y-22188D01*
X-47900Y57700D01*
X-107100Y116900D01*
X-120650Y116900D01*
X-39100Y116900D01*
X-17400Y95200D01*
X-17400Y92400D01*
D15*
X-17400Y92400D03*
X108900Y67900D03*
D14*
X132100Y67900D01*
X140000Y60000D01*
X-12200Y136050D02*
X-63500Y136050D01*
X-12200Y136050D02*
X11900Y111950D01*
X29450Y111950D01*
X32100Y109300D01*
D15*
X32100Y109300D03*
X101400Y110300D03*
D14*
X139700Y110300D01*
X140000Y110000D01*
X-17300Y-8250D02*
X-63500Y-54450D01*
X-17300Y-8250D02*
X-17300Y74600D01*
X-7200Y84700D01*
X29150Y84700D01*
X129000Y124000D02*
X140000Y135000D01*
X129000Y124000D02*
X101800Y124000D01*
D15*
X101800Y124000D03*
X44300Y121500D03*
D14*
X44300Y99850D01*
X29150Y84700D01*
X-48750Y-244950D02*
X-63500Y-244950D01*
X-48750Y-244950D02*
X-48300Y-245400D01*
D15*
X-48300Y-245400D03*
X105300Y-261900D03*
D14*
X110050Y-261900D01*
X127000Y-244950D01*
D15*
X159500Y0D03*
D14*
X127000Y-228288D02*
X127000Y-244950D01*
X127000Y-228288D02*
X136910Y-218378D01*
X136910Y-22590D02*
X159500Y0D01*
X136910Y-22590D02*
X136910Y-218378D01*
D15*
X155400Y178500D03*
D14*
X140000Y163100D01*
X140000Y160000D01*
X44450Y243534D02*
X44450Y248900D01*
X44450Y243534D02*
X63990Y223994D01*
X63990Y196740D02*
X11900Y144650D01*
X63990Y196740D02*
X63990Y223994D01*
X61850Y75800D02*
X44450Y58400D01*
X61850Y75800D02*
X61850Y84700D01*
X46850Y-132100D02*
X44450Y-132100D01*
X105416Y-165958D02*
X119792Y-180334D01*
X80708Y-165958D02*
X46850Y-132100D01*
X119792Y-205042D02*
X127000Y-212250D01*
X105416Y-165958D02*
X80708Y-165958D01*
X119792Y-180334D02*
X119792Y-205042D01*
X69850Y-264100D02*
X18900Y-213150D01*
X18900Y-148800D01*
X18900Y-124550D01*
X69850Y-73600D01*
X64800Y97788D02*
X64800Y117800D01*
X64800Y97788D02*
X70210Y92378D01*
X50310Y-54060D02*
X69850Y-73600D01*
X50310Y-54060D02*
X50310Y-30006D01*
X70210Y-10106D01*
X70210Y92378D01*
X68950Y117800D02*
X64800Y117800D01*
X68950Y117800D02*
X69850Y116900D01*
X101750Y85000D01*
X140000Y85000D01*
M02*
