G04 EAGLE Gerber RS-274X export*
G75*
%MOMM*%
%FSLAX34Y34*%
%LPD*%
%INSoldermask Top*%
%IPPOS*%
%AMOC8*
5,1,8,0,0,1.08239X$1,22.5*%
G01*
G04 Define Apertures*
%ADD10C,2.403200*%
%ADD11C,3.203200*%
%ADD12C,4.203600*%
%ADD13C,1.903200*%
%ADD14C,0.705600*%
D10*
X0Y228600D03*
X0Y-228600D03*
X0Y0D03*
D11*
X-146050Y215900D03*
X-120650Y152400D03*
D12*
X-95250Y190500D03*
D13*
X-95250Y241300D03*
X-95250Y139700D03*
D11*
X-146050Y25400D03*
X-120650Y-38100D03*
D12*
X-95250Y0D03*
D13*
X-95250Y50800D03*
X-95250Y-50800D03*
D11*
X-146050Y-165100D03*
X-120650Y-228600D03*
D12*
X-95250Y-190500D03*
D13*
X-95250Y-139700D03*
X-95250Y-241300D03*
D11*
X44450Y215900D03*
X69850Y152400D03*
D12*
X95250Y190500D03*
D13*
X95250Y241300D03*
X95250Y139700D03*
D11*
X44450Y25400D03*
X69850Y-38100D03*
D12*
X95250Y0D03*
D13*
X95250Y50800D03*
X95250Y-50800D03*
D11*
X44450Y-165100D03*
X69850Y-228600D03*
D12*
X95250Y-190500D03*
D13*
X95250Y-139700D03*
X95250Y-241300D03*
D14*
X-17400Y92400D03*
X108900Y67900D03*
X32100Y109300D03*
X101400Y110300D03*
X101800Y124000D03*
X44300Y121500D03*
X-48300Y-245400D03*
X105300Y-261900D03*
X159500Y0D03*
X155400Y178500D03*
M02*
