G04 EAGLE Gerber RS-274X export*
G75*
%MOMM*%
%FSLAX34Y34*%
%LPD*%
%INSilkscreen Top*%
%IPPOS*%
%AMOC8*
5,1,8,0,0,1.08239X$1,22.5*%
G01*
G04 Define Apertures*
%ADD10C,0.152400*%
D10*
X-165250Y120500D02*
X-145250Y120500D01*
X-165250Y120500D02*
X-165250Y140500D01*
X-165250Y260500D02*
X-145250Y260500D01*
X-45250Y260500D02*
X-25250Y260500D01*
X-25250Y120500D02*
X-45250Y120500D01*
X-25250Y240500D02*
X-25250Y260500D01*
X-25250Y140500D02*
X-25250Y120500D01*
X-165250Y240500D02*
X-165250Y260500D01*
X-165250Y-70000D02*
X-145250Y-70000D01*
X-165250Y-70000D02*
X-165250Y-50000D01*
X-165250Y70000D02*
X-145250Y70000D01*
X-45250Y70000D02*
X-25250Y70000D01*
X-25250Y-70000D02*
X-45250Y-70000D01*
X-25250Y50000D02*
X-25250Y70000D01*
X-25250Y-50000D02*
X-25250Y-70000D01*
X-165250Y50000D02*
X-165250Y70000D01*
X-165250Y-260500D02*
X-145250Y-260500D01*
X-165250Y-260500D02*
X-165250Y-240500D01*
X-165250Y-120500D02*
X-145250Y-120500D01*
X-45250Y-120500D02*
X-25250Y-120500D01*
X-25250Y-260500D02*
X-45250Y-260500D01*
X-25250Y-140500D02*
X-25250Y-120500D01*
X-25250Y-240500D02*
X-25250Y-260500D01*
X-165250Y-140500D02*
X-165250Y-120500D01*
X25250Y120500D02*
X45250Y120500D01*
X25250Y120500D02*
X25250Y140500D01*
X25250Y260500D02*
X45250Y260500D01*
X145250Y260500D02*
X165250Y260500D01*
X165250Y120500D02*
X145250Y120500D01*
X165250Y240500D02*
X165250Y260500D01*
X165250Y140500D02*
X165250Y120500D01*
X25250Y240500D02*
X25250Y260500D01*
X25250Y-70000D02*
X45250Y-70000D01*
X25250Y-70000D02*
X25250Y-50000D01*
X25250Y70000D02*
X45250Y70000D01*
X145250Y70000D02*
X165250Y70000D01*
X165250Y-70000D02*
X145250Y-70000D01*
X165250Y50000D02*
X165250Y70000D01*
X165250Y-50000D02*
X165250Y-70000D01*
X25250Y50000D02*
X25250Y70000D01*
X25250Y-260500D02*
X45250Y-260500D01*
X25250Y-260500D02*
X25250Y-240500D01*
X25250Y-120500D02*
X45250Y-120500D01*
X145250Y-120500D02*
X165250Y-120500D01*
X165250Y-260500D02*
X145250Y-260500D01*
X165250Y-140500D02*
X165250Y-120500D01*
X165250Y-240500D02*
X165250Y-260500D01*
X25250Y-140500D02*
X25250Y-120500D01*
M02*
