G04 EAGLE Gerber RS-274X export*
G75*
%MOMM*%
%FSLAX34Y34*%
%LPD*%
%INSilkscreen Bottom*%
%IPPOS*%
%AMOC8*
5,1,8,0,0,1.08239X$1,22.5*%
G01*
G04 Define Apertures*
%ADD10C,0.127000*%
G36*
X-59962Y121207D02*
X-67250Y121207D01*
X-67250Y122195D01*
X-64457Y122195D01*
X-63733Y123146D01*
X-67250Y126059D01*
X-67250Y127284D01*
X-63127Y123767D01*
X-59962Y126871D01*
X-59962Y125707D01*
X-63614Y122195D01*
X-59962Y122195D01*
X-59962Y121207D01*
G37*
G36*
X-59962Y-69294D02*
X-67250Y-69294D01*
X-67250Y-68306D01*
X-64457Y-68306D01*
X-63733Y-67354D01*
X-67250Y-64441D01*
X-67250Y-63216D01*
X-63127Y-66733D01*
X-59962Y-63629D01*
X-59962Y-64793D01*
X-63614Y-68306D01*
X-59962Y-68306D01*
X-59962Y-69294D01*
G37*
G36*
X-59962Y-259794D02*
X-67250Y-259794D01*
X-67250Y-258806D01*
X-64457Y-258806D01*
X-63733Y-257854D01*
X-67250Y-254941D01*
X-67250Y-253716D01*
X-63127Y-257233D01*
X-59962Y-254129D01*
X-59962Y-255293D01*
X-63614Y-258806D01*
X-59962Y-258806D01*
X-59962Y-259794D01*
G37*
G36*
X15438Y97107D02*
X8150Y97107D01*
X8150Y98095D01*
X10943Y98095D01*
X11667Y99046D01*
X8150Y101959D01*
X8150Y103184D01*
X12273Y99667D01*
X15438Y102771D01*
X15438Y101607D01*
X11786Y98095D01*
X15438Y98095D01*
X15438Y97107D01*
G37*
G36*
X14779Y80950D02*
X13553Y80950D01*
X17071Y85073D01*
X13967Y88238D01*
X15131Y88238D01*
X18643Y84586D01*
X18643Y88238D01*
X19631Y88238D01*
X19631Y80950D01*
X18643Y80950D01*
X18643Y83743D01*
X17691Y84467D01*
X14779Y80950D01*
G37*
G36*
X130538Y-259794D02*
X123250Y-259794D01*
X123250Y-258806D01*
X126043Y-258806D01*
X126767Y-257854D01*
X123250Y-254941D01*
X123250Y-253716D01*
X127373Y-257233D01*
X130538Y-254129D01*
X130538Y-255293D01*
X126886Y-258806D01*
X130538Y-258806D01*
X130538Y-259794D01*
G37*
D10*
X-71500Y166400D02*
X-71500Y138400D01*
X-55500Y138400D02*
X-55500Y166400D01*
X-57150Y156210D02*
X-63500Y148590D01*
X-58420Y156210D02*
X-57150Y156210D01*
X-58420Y156210D02*
X-59690Y156210D01*
X-69850Y156210D01*
X-63500Y148590D01*
X-58420Y156210D01*
X-68580Y154940D01*
X-63500Y149860D01*
X-59690Y156210D01*
X-67310Y154940D01*
X-63500Y151130D01*
X-60960Y154940D01*
X-62230Y154940D01*
X-66040Y154940D01*
X-64770Y153670D01*
X-63500Y152400D01*
X-62230Y154940D01*
X-64770Y153670D01*
X-63500Y153670D01*
X-57150Y143510D02*
X-69850Y143510D01*
X-71500Y-24100D02*
X-71500Y-52100D01*
X-55500Y-52100D02*
X-55500Y-24100D01*
X-57150Y-34290D02*
X-63500Y-41910D01*
X-58420Y-34290D02*
X-57150Y-34290D01*
X-58420Y-34290D02*
X-59690Y-34290D01*
X-69850Y-34290D01*
X-63500Y-41910D01*
X-58420Y-34290D01*
X-68580Y-35560D01*
X-63500Y-40640D01*
X-59690Y-34290D01*
X-67310Y-35560D01*
X-63500Y-39370D01*
X-60960Y-35560D01*
X-62230Y-35560D01*
X-66040Y-35560D01*
X-64770Y-36830D01*
X-63500Y-38100D01*
X-62230Y-35560D01*
X-64770Y-36830D01*
X-63500Y-36830D01*
X-57150Y-46990D02*
X-69850Y-46990D01*
X-71500Y-214600D02*
X-71500Y-242600D01*
X-55500Y-242600D02*
X-55500Y-214600D01*
X-57150Y-224790D02*
X-63500Y-232410D01*
X-58420Y-224790D02*
X-57150Y-224790D01*
X-58420Y-224790D02*
X-59690Y-224790D01*
X-69850Y-224790D01*
X-63500Y-232410D01*
X-58420Y-224790D01*
X-68580Y-226060D01*
X-63500Y-231140D01*
X-59690Y-224790D01*
X-67310Y-226060D01*
X-63500Y-229870D01*
X-60960Y-226060D01*
X-62230Y-226060D01*
X-66040Y-226060D01*
X-64770Y-227330D01*
X-63500Y-228600D01*
X-62230Y-226060D01*
X-64770Y-227330D01*
X-63500Y-227330D01*
X-57150Y-237490D02*
X-69850Y-237490D01*
X3900Y114300D02*
X3900Y142300D01*
X19900Y142300D02*
X19900Y114300D01*
X11900Y124490D02*
X18250Y132110D01*
X16980Y132110D01*
X15710Y132110D01*
X5550Y132110D01*
X11900Y124490D01*
X16980Y132110D01*
X6820Y130840D01*
X11900Y125760D01*
X15710Y132110D01*
X8090Y130840D01*
X11900Y127030D01*
X14440Y130840D01*
X13170Y130840D01*
X9360Y130840D01*
X10630Y129570D01*
X11900Y128300D01*
X13170Y130840D01*
X10630Y129570D01*
X11900Y129570D01*
X18250Y119410D02*
X5550Y119410D01*
X31500Y92700D02*
X59500Y92700D01*
X59500Y76700D02*
X31500Y76700D01*
X41690Y84700D02*
X49310Y78350D01*
X49310Y79620D01*
X49310Y80890D01*
X49310Y91050D01*
X41690Y84700D01*
X49310Y79620D01*
X48040Y89780D01*
X42960Y84700D01*
X49310Y80890D01*
X48040Y88510D01*
X44230Y84700D01*
X48040Y82160D01*
X48040Y83430D01*
X48040Y87240D01*
X46770Y85970D01*
X45500Y84700D01*
X48040Y83430D01*
X46770Y85970D01*
X46770Y84700D01*
X36610Y78350D02*
X36610Y91050D01*
X119000Y-214600D02*
X119000Y-242600D01*
X135000Y-242600D02*
X135000Y-214600D01*
X133350Y-224790D02*
X127000Y-232410D01*
X132080Y-224790D02*
X133350Y-224790D01*
X132080Y-224790D02*
X130810Y-224790D01*
X120650Y-224790D01*
X127000Y-232410D01*
X132080Y-224790D01*
X121920Y-226060D01*
X127000Y-231140D01*
X130810Y-224790D01*
X123190Y-226060D01*
X127000Y-229870D01*
X129540Y-226060D01*
X128270Y-226060D01*
X124460Y-226060D01*
X125730Y-227330D01*
X127000Y-228600D01*
X128270Y-226060D01*
X125730Y-227330D01*
X127000Y-227330D01*
X133350Y-237490D02*
X120650Y-237490D01*
X-162800Y146400D02*
X-162800Y205900D01*
X-162800Y146400D02*
X-162795Y145995D01*
X-162780Y145591D01*
X-162756Y145187D01*
X-162722Y144783D01*
X-162678Y144381D01*
X-162624Y143980D01*
X-162561Y143580D01*
X-162488Y143182D01*
X-162405Y142786D01*
X-162313Y142391D01*
X-162212Y142000D01*
X-162101Y141610D01*
X-161980Y141224D01*
X-161850Y140841D01*
X-161712Y140460D01*
X-161563Y140084D01*
X-161406Y139711D01*
X-161240Y139342D01*
X-161065Y138977D01*
X-160881Y138616D01*
X-160689Y138260D01*
X-160488Y137908D01*
X-160279Y137562D01*
X-160061Y137221D01*
X-159835Y136885D01*
X-159601Y136555D01*
X-159359Y136230D01*
X-159110Y135911D01*
X-158852Y135599D01*
X-158588Y135293D01*
X-158316Y134993D01*
X-158036Y134700D01*
X-157750Y134414D01*
X-157457Y134134D01*
X-157157Y133862D01*
X-156851Y133598D01*
X-156539Y133340D01*
X-156220Y133091D01*
X-155895Y132849D01*
X-155565Y132615D01*
X-155229Y132389D01*
X-154888Y132171D01*
X-154542Y131962D01*
X-154190Y131761D01*
X-153834Y131569D01*
X-153473Y131385D01*
X-153108Y131210D01*
X-152739Y131044D01*
X-152366Y130887D01*
X-151990Y130738D01*
X-151609Y130600D01*
X-151226Y130470D01*
X-150840Y130349D01*
X-150450Y130238D01*
X-150059Y130137D01*
X-149664Y130045D01*
X-149268Y129962D01*
X-148870Y129889D01*
X-148470Y129826D01*
X-148069Y129772D01*
X-147667Y129728D01*
X-147263Y129694D01*
X-146859Y129670D01*
X-146455Y129655D01*
X-146050Y129650D01*
X-136350Y129650D01*
X-103900Y162400D02*
X-103902Y162540D01*
X-103908Y162680D01*
X-103918Y162820D01*
X-103931Y162960D01*
X-103949Y163099D01*
X-103971Y163238D01*
X-103996Y163375D01*
X-104025Y163513D01*
X-104058Y163649D01*
X-104095Y163784D01*
X-104136Y163918D01*
X-104181Y164051D01*
X-104229Y164183D01*
X-104281Y164313D01*
X-104336Y164442D01*
X-104395Y164569D01*
X-104458Y164695D01*
X-104524Y164819D01*
X-104593Y164940D01*
X-104666Y165060D01*
X-104743Y165178D01*
X-104822Y165293D01*
X-104905Y165407D01*
X-104991Y165517D01*
X-105080Y165626D01*
X-105172Y165732D01*
X-105267Y165835D01*
X-105364Y165936D01*
X-105465Y166033D01*
X-105568Y166128D01*
X-105674Y166220D01*
X-105783Y166309D01*
X-105893Y166395D01*
X-106007Y166478D01*
X-106122Y166557D01*
X-106240Y166634D01*
X-106360Y166707D01*
X-106481Y166776D01*
X-106605Y166842D01*
X-106731Y166905D01*
X-106858Y166964D01*
X-106987Y167019D01*
X-107117Y167071D01*
X-107249Y167119D01*
X-107382Y167164D01*
X-107516Y167205D01*
X-107651Y167242D01*
X-107787Y167275D01*
X-107925Y167304D01*
X-108062Y167329D01*
X-108201Y167351D01*
X-108340Y167369D01*
X-108480Y167382D01*
X-108620Y167392D01*
X-108760Y167398D01*
X-108900Y167400D01*
X-109236Y167404D01*
X-109572Y167416D01*
X-109907Y167437D01*
X-110242Y167465D01*
X-110575Y167501D01*
X-110908Y167546D01*
X-111240Y167598D01*
X-111571Y167659D01*
X-111899Y167727D01*
X-112226Y167804D01*
X-112552Y167888D01*
X-112875Y167980D01*
X-113195Y168080D01*
X-113514Y168188D01*
X-113829Y168303D01*
X-114142Y168426D01*
X-114451Y168557D01*
X-114757Y168694D01*
X-115060Y168840D01*
X-115360Y168992D01*
X-115655Y169152D01*
X-115947Y169319D01*
X-116234Y169492D01*
X-116517Y169673D01*
X-116796Y169861D01*
X-117070Y170055D01*
X-117340Y170255D01*
X-117604Y170463D01*
X-117863Y170676D01*
X-118117Y170896D01*
X-118366Y171121D01*
X-118609Y171353D01*
X-118847Y171591D01*
X-119079Y171834D01*
X-119304Y172083D01*
X-119524Y172337D01*
X-119737Y172596D01*
X-119945Y172860D01*
X-120145Y173130D01*
X-120339Y173404D01*
X-120527Y173683D01*
X-120708Y173966D01*
X-120881Y174253D01*
X-121048Y174545D01*
X-121208Y174840D01*
X-121360Y175140D01*
X-121506Y175443D01*
X-121643Y175749D01*
X-121774Y176058D01*
X-121897Y176371D01*
X-122012Y176686D01*
X-122120Y177005D01*
X-122220Y177325D01*
X-122312Y177648D01*
X-122396Y177974D01*
X-122473Y178301D01*
X-122541Y178629D01*
X-122602Y178960D01*
X-122654Y179292D01*
X-122699Y179625D01*
X-122735Y179958D01*
X-122763Y180293D01*
X-122784Y180628D01*
X-122796Y180964D01*
X-122800Y181300D01*
X-122800Y233650D01*
X-122802Y233790D01*
X-122808Y233930D01*
X-122818Y234070D01*
X-122831Y234210D01*
X-122849Y234349D01*
X-122871Y234488D01*
X-122896Y234625D01*
X-122925Y234763D01*
X-122958Y234899D01*
X-122995Y235034D01*
X-123036Y235168D01*
X-123081Y235301D01*
X-123129Y235433D01*
X-123181Y235563D01*
X-123236Y235692D01*
X-123295Y235819D01*
X-123358Y235945D01*
X-123424Y236069D01*
X-123493Y236190D01*
X-123566Y236310D01*
X-123643Y236428D01*
X-123722Y236543D01*
X-123805Y236657D01*
X-123891Y236767D01*
X-123980Y236876D01*
X-124072Y236982D01*
X-124167Y237085D01*
X-124264Y237186D01*
X-124365Y237283D01*
X-124468Y237378D01*
X-124574Y237470D01*
X-124683Y237559D01*
X-124793Y237645D01*
X-124907Y237728D01*
X-125022Y237807D01*
X-125140Y237884D01*
X-125260Y237957D01*
X-125381Y238026D01*
X-125505Y238092D01*
X-125631Y238155D01*
X-125758Y238214D01*
X-125887Y238269D01*
X-126017Y238321D01*
X-126149Y238369D01*
X-126282Y238414D01*
X-126416Y238455D01*
X-126551Y238492D01*
X-126687Y238525D01*
X-126825Y238554D01*
X-126962Y238579D01*
X-127101Y238601D01*
X-127240Y238619D01*
X-127380Y238632D01*
X-127520Y238642D01*
X-127660Y238648D01*
X-127800Y238650D01*
X-130350Y238650D01*
X-162800Y15400D02*
X-162800Y-44100D01*
X-162795Y-44505D01*
X-162780Y-44909D01*
X-162756Y-45313D01*
X-162722Y-45717D01*
X-162678Y-46119D01*
X-162624Y-46520D01*
X-162561Y-46920D01*
X-162488Y-47318D01*
X-162405Y-47714D01*
X-162313Y-48109D01*
X-162212Y-48500D01*
X-162101Y-48890D01*
X-161980Y-49276D01*
X-161850Y-49659D01*
X-161712Y-50040D01*
X-161563Y-50416D01*
X-161406Y-50789D01*
X-161240Y-51158D01*
X-161065Y-51523D01*
X-160881Y-51884D01*
X-160689Y-52240D01*
X-160488Y-52592D01*
X-160279Y-52938D01*
X-160061Y-53279D01*
X-159835Y-53615D01*
X-159601Y-53945D01*
X-159359Y-54270D01*
X-159110Y-54589D01*
X-158852Y-54901D01*
X-158588Y-55207D01*
X-158316Y-55507D01*
X-158036Y-55800D01*
X-157750Y-56086D01*
X-157457Y-56366D01*
X-157157Y-56638D01*
X-156851Y-56902D01*
X-156539Y-57160D01*
X-156220Y-57409D01*
X-155895Y-57651D01*
X-155565Y-57885D01*
X-155229Y-58111D01*
X-154888Y-58329D01*
X-154542Y-58538D01*
X-154190Y-58739D01*
X-153834Y-58931D01*
X-153473Y-59115D01*
X-153108Y-59290D01*
X-152739Y-59456D01*
X-152366Y-59613D01*
X-151990Y-59762D01*
X-151609Y-59900D01*
X-151226Y-60030D01*
X-150840Y-60151D01*
X-150450Y-60262D01*
X-150059Y-60363D01*
X-149664Y-60455D01*
X-149268Y-60538D01*
X-148870Y-60611D01*
X-148470Y-60674D01*
X-148069Y-60728D01*
X-147667Y-60772D01*
X-147263Y-60806D01*
X-146859Y-60830D01*
X-146455Y-60845D01*
X-146050Y-60850D01*
X-136350Y-60850D01*
X-103900Y-28100D02*
X-103902Y-27960D01*
X-103908Y-27820D01*
X-103918Y-27680D01*
X-103931Y-27540D01*
X-103949Y-27401D01*
X-103971Y-27262D01*
X-103996Y-27125D01*
X-104025Y-26987D01*
X-104058Y-26851D01*
X-104095Y-26716D01*
X-104136Y-26582D01*
X-104181Y-26449D01*
X-104229Y-26317D01*
X-104281Y-26187D01*
X-104336Y-26058D01*
X-104395Y-25931D01*
X-104458Y-25805D01*
X-104524Y-25681D01*
X-104593Y-25560D01*
X-104666Y-25440D01*
X-104743Y-25322D01*
X-104822Y-25207D01*
X-104905Y-25093D01*
X-104991Y-24983D01*
X-105080Y-24874D01*
X-105172Y-24768D01*
X-105267Y-24665D01*
X-105364Y-24564D01*
X-105465Y-24467D01*
X-105568Y-24372D01*
X-105674Y-24280D01*
X-105783Y-24191D01*
X-105893Y-24105D01*
X-106007Y-24022D01*
X-106122Y-23943D01*
X-106240Y-23866D01*
X-106360Y-23793D01*
X-106481Y-23724D01*
X-106605Y-23658D01*
X-106731Y-23595D01*
X-106858Y-23536D01*
X-106987Y-23481D01*
X-107117Y-23429D01*
X-107249Y-23381D01*
X-107382Y-23336D01*
X-107516Y-23295D01*
X-107651Y-23258D01*
X-107787Y-23225D01*
X-107925Y-23196D01*
X-108062Y-23171D01*
X-108201Y-23149D01*
X-108340Y-23131D01*
X-108480Y-23118D01*
X-108620Y-23108D01*
X-108760Y-23102D01*
X-108900Y-23100D01*
X-109236Y-23096D01*
X-109572Y-23084D01*
X-109907Y-23063D01*
X-110242Y-23035D01*
X-110575Y-22999D01*
X-110908Y-22954D01*
X-111240Y-22902D01*
X-111571Y-22841D01*
X-111899Y-22773D01*
X-112226Y-22696D01*
X-112552Y-22612D01*
X-112875Y-22520D01*
X-113195Y-22420D01*
X-113514Y-22312D01*
X-113829Y-22197D01*
X-114142Y-22074D01*
X-114451Y-21943D01*
X-114757Y-21806D01*
X-115060Y-21660D01*
X-115360Y-21508D01*
X-115655Y-21348D01*
X-115947Y-21181D01*
X-116234Y-21008D01*
X-116517Y-20827D01*
X-116796Y-20639D01*
X-117070Y-20445D01*
X-117340Y-20245D01*
X-117604Y-20037D01*
X-117863Y-19824D01*
X-118117Y-19604D01*
X-118366Y-19379D01*
X-118609Y-19147D01*
X-118847Y-18909D01*
X-119079Y-18666D01*
X-119304Y-18417D01*
X-119524Y-18163D01*
X-119737Y-17904D01*
X-119945Y-17640D01*
X-120145Y-17370D01*
X-120339Y-17096D01*
X-120527Y-16817D01*
X-120708Y-16534D01*
X-120881Y-16247D01*
X-121048Y-15955D01*
X-121208Y-15660D01*
X-121360Y-15360D01*
X-121506Y-15057D01*
X-121643Y-14751D01*
X-121774Y-14442D01*
X-121897Y-14129D01*
X-122012Y-13814D01*
X-122120Y-13495D01*
X-122220Y-13175D01*
X-122312Y-12852D01*
X-122396Y-12526D01*
X-122473Y-12199D01*
X-122541Y-11871D01*
X-122602Y-11540D01*
X-122654Y-11208D01*
X-122699Y-10875D01*
X-122735Y-10542D01*
X-122763Y-10207D01*
X-122784Y-9872D01*
X-122796Y-9536D01*
X-122800Y-9200D01*
X-122800Y43150D01*
X-122802Y43290D01*
X-122808Y43430D01*
X-122818Y43570D01*
X-122831Y43710D01*
X-122849Y43849D01*
X-122871Y43988D01*
X-122896Y44125D01*
X-122925Y44263D01*
X-122958Y44399D01*
X-122995Y44534D01*
X-123036Y44668D01*
X-123081Y44801D01*
X-123129Y44933D01*
X-123181Y45063D01*
X-123236Y45192D01*
X-123295Y45319D01*
X-123358Y45445D01*
X-123424Y45569D01*
X-123493Y45690D01*
X-123566Y45810D01*
X-123643Y45928D01*
X-123722Y46043D01*
X-123805Y46157D01*
X-123891Y46267D01*
X-123980Y46376D01*
X-124072Y46482D01*
X-124167Y46585D01*
X-124264Y46686D01*
X-124365Y46783D01*
X-124468Y46878D01*
X-124574Y46970D01*
X-124683Y47059D01*
X-124793Y47145D01*
X-124907Y47228D01*
X-125022Y47307D01*
X-125140Y47384D01*
X-125260Y47457D01*
X-125381Y47526D01*
X-125505Y47592D01*
X-125631Y47655D01*
X-125758Y47714D01*
X-125887Y47769D01*
X-126017Y47821D01*
X-126149Y47869D01*
X-126282Y47914D01*
X-126416Y47955D01*
X-126551Y47992D01*
X-126687Y48025D01*
X-126825Y48054D01*
X-126962Y48079D01*
X-127101Y48101D01*
X-127240Y48119D01*
X-127380Y48132D01*
X-127520Y48142D01*
X-127660Y48148D01*
X-127800Y48150D01*
X-130350Y48150D01*
X-162800Y-175100D02*
X-162800Y-234600D01*
X-162795Y-235005D01*
X-162780Y-235409D01*
X-162756Y-235813D01*
X-162722Y-236217D01*
X-162678Y-236619D01*
X-162624Y-237020D01*
X-162561Y-237420D01*
X-162488Y-237818D01*
X-162405Y-238214D01*
X-162313Y-238609D01*
X-162212Y-239000D01*
X-162101Y-239390D01*
X-161980Y-239776D01*
X-161850Y-240159D01*
X-161712Y-240540D01*
X-161563Y-240916D01*
X-161406Y-241289D01*
X-161240Y-241658D01*
X-161065Y-242023D01*
X-160881Y-242384D01*
X-160689Y-242740D01*
X-160488Y-243092D01*
X-160279Y-243438D01*
X-160061Y-243779D01*
X-159835Y-244115D01*
X-159601Y-244445D01*
X-159359Y-244770D01*
X-159110Y-245089D01*
X-158852Y-245401D01*
X-158588Y-245707D01*
X-158316Y-246007D01*
X-158036Y-246300D01*
X-157750Y-246586D01*
X-157457Y-246866D01*
X-157157Y-247138D01*
X-156851Y-247402D01*
X-156539Y-247660D01*
X-156220Y-247909D01*
X-155895Y-248151D01*
X-155565Y-248385D01*
X-155229Y-248611D01*
X-154888Y-248829D01*
X-154542Y-249038D01*
X-154190Y-249239D01*
X-153834Y-249431D01*
X-153473Y-249615D01*
X-153108Y-249790D01*
X-152739Y-249956D01*
X-152366Y-250113D01*
X-151990Y-250262D01*
X-151609Y-250400D01*
X-151226Y-250530D01*
X-150840Y-250651D01*
X-150450Y-250762D01*
X-150059Y-250863D01*
X-149664Y-250955D01*
X-149268Y-251038D01*
X-148870Y-251111D01*
X-148470Y-251174D01*
X-148069Y-251228D01*
X-147667Y-251272D01*
X-147263Y-251306D01*
X-146859Y-251330D01*
X-146455Y-251345D01*
X-146050Y-251350D01*
X-136350Y-251350D01*
X-103900Y-218600D02*
X-103902Y-218460D01*
X-103908Y-218320D01*
X-103918Y-218180D01*
X-103931Y-218040D01*
X-103949Y-217901D01*
X-103971Y-217762D01*
X-103996Y-217625D01*
X-104025Y-217487D01*
X-104058Y-217351D01*
X-104095Y-217216D01*
X-104136Y-217082D01*
X-104181Y-216949D01*
X-104229Y-216817D01*
X-104281Y-216687D01*
X-104336Y-216558D01*
X-104395Y-216431D01*
X-104458Y-216305D01*
X-104524Y-216181D01*
X-104593Y-216060D01*
X-104666Y-215940D01*
X-104743Y-215822D01*
X-104822Y-215707D01*
X-104905Y-215593D01*
X-104991Y-215483D01*
X-105080Y-215374D01*
X-105172Y-215268D01*
X-105267Y-215165D01*
X-105364Y-215064D01*
X-105465Y-214967D01*
X-105568Y-214872D01*
X-105674Y-214780D01*
X-105783Y-214691D01*
X-105893Y-214605D01*
X-106007Y-214522D01*
X-106122Y-214443D01*
X-106240Y-214366D01*
X-106360Y-214293D01*
X-106481Y-214224D01*
X-106605Y-214158D01*
X-106731Y-214095D01*
X-106858Y-214036D01*
X-106987Y-213981D01*
X-107117Y-213929D01*
X-107249Y-213881D01*
X-107382Y-213836D01*
X-107516Y-213795D01*
X-107651Y-213758D01*
X-107787Y-213725D01*
X-107925Y-213696D01*
X-108062Y-213671D01*
X-108201Y-213649D01*
X-108340Y-213631D01*
X-108480Y-213618D01*
X-108620Y-213608D01*
X-108760Y-213602D01*
X-108900Y-213600D01*
X-109236Y-213596D01*
X-109572Y-213584D01*
X-109907Y-213563D01*
X-110242Y-213535D01*
X-110575Y-213499D01*
X-110908Y-213454D01*
X-111240Y-213402D01*
X-111571Y-213341D01*
X-111899Y-213273D01*
X-112226Y-213196D01*
X-112552Y-213112D01*
X-112875Y-213020D01*
X-113195Y-212920D01*
X-113514Y-212812D01*
X-113829Y-212697D01*
X-114142Y-212574D01*
X-114451Y-212443D01*
X-114757Y-212306D01*
X-115060Y-212160D01*
X-115360Y-212008D01*
X-115655Y-211848D01*
X-115947Y-211681D01*
X-116234Y-211508D01*
X-116517Y-211327D01*
X-116796Y-211139D01*
X-117070Y-210945D01*
X-117340Y-210745D01*
X-117604Y-210537D01*
X-117863Y-210324D01*
X-118117Y-210104D01*
X-118366Y-209879D01*
X-118609Y-209647D01*
X-118847Y-209409D01*
X-119079Y-209166D01*
X-119304Y-208917D01*
X-119524Y-208663D01*
X-119737Y-208404D01*
X-119945Y-208140D01*
X-120145Y-207870D01*
X-120339Y-207596D01*
X-120527Y-207317D01*
X-120708Y-207034D01*
X-120881Y-206747D01*
X-121048Y-206455D01*
X-121208Y-206160D01*
X-121360Y-205860D01*
X-121506Y-205557D01*
X-121643Y-205251D01*
X-121774Y-204942D01*
X-121897Y-204629D01*
X-122012Y-204314D01*
X-122120Y-203995D01*
X-122220Y-203675D01*
X-122312Y-203352D01*
X-122396Y-203026D01*
X-122473Y-202699D01*
X-122541Y-202371D01*
X-122602Y-202040D01*
X-122654Y-201708D01*
X-122699Y-201375D01*
X-122735Y-201042D01*
X-122763Y-200707D01*
X-122784Y-200372D01*
X-122796Y-200036D01*
X-122800Y-199700D01*
X-122800Y-147350D01*
X-122802Y-147210D01*
X-122808Y-147070D01*
X-122818Y-146930D01*
X-122831Y-146790D01*
X-122849Y-146651D01*
X-122871Y-146512D01*
X-122896Y-146375D01*
X-122925Y-146237D01*
X-122958Y-146101D01*
X-122995Y-145966D01*
X-123036Y-145832D01*
X-123081Y-145699D01*
X-123129Y-145567D01*
X-123181Y-145437D01*
X-123236Y-145308D01*
X-123295Y-145181D01*
X-123358Y-145055D01*
X-123424Y-144931D01*
X-123493Y-144810D01*
X-123566Y-144690D01*
X-123643Y-144572D01*
X-123722Y-144457D01*
X-123805Y-144343D01*
X-123891Y-144233D01*
X-123980Y-144124D01*
X-124072Y-144018D01*
X-124167Y-143915D01*
X-124264Y-143814D01*
X-124365Y-143717D01*
X-124468Y-143622D01*
X-124574Y-143530D01*
X-124683Y-143441D01*
X-124793Y-143355D01*
X-124907Y-143272D01*
X-125022Y-143193D01*
X-125140Y-143116D01*
X-125260Y-143043D01*
X-125381Y-142974D01*
X-125505Y-142908D01*
X-125631Y-142845D01*
X-125758Y-142786D01*
X-125887Y-142731D01*
X-126017Y-142679D01*
X-126149Y-142631D01*
X-126282Y-142586D01*
X-126416Y-142545D01*
X-126551Y-142508D01*
X-126687Y-142475D01*
X-126825Y-142446D01*
X-126962Y-142421D01*
X-127101Y-142399D01*
X-127240Y-142381D01*
X-127380Y-142368D01*
X-127520Y-142358D01*
X-127660Y-142352D01*
X-127800Y-142350D01*
X-130350Y-142350D01*
X27700Y146400D02*
X27700Y205900D01*
X27700Y146400D02*
X27705Y145995D01*
X27720Y145591D01*
X27744Y145187D01*
X27778Y144783D01*
X27822Y144381D01*
X27876Y143980D01*
X27939Y143580D01*
X28012Y143182D01*
X28095Y142786D01*
X28187Y142391D01*
X28288Y142000D01*
X28399Y141610D01*
X28520Y141224D01*
X28650Y140841D01*
X28788Y140460D01*
X28937Y140084D01*
X29094Y139711D01*
X29260Y139342D01*
X29435Y138977D01*
X29619Y138616D01*
X29811Y138260D01*
X30012Y137908D01*
X30221Y137562D01*
X30439Y137221D01*
X30665Y136885D01*
X30899Y136555D01*
X31141Y136230D01*
X31390Y135911D01*
X31648Y135599D01*
X31912Y135293D01*
X32184Y134993D01*
X32464Y134700D01*
X32750Y134414D01*
X33043Y134134D01*
X33343Y133862D01*
X33649Y133598D01*
X33961Y133340D01*
X34280Y133091D01*
X34605Y132849D01*
X34935Y132615D01*
X35271Y132389D01*
X35612Y132171D01*
X35958Y131962D01*
X36310Y131761D01*
X36666Y131569D01*
X37027Y131385D01*
X37392Y131210D01*
X37761Y131044D01*
X38134Y130887D01*
X38510Y130738D01*
X38891Y130600D01*
X39274Y130470D01*
X39660Y130349D01*
X40050Y130238D01*
X40441Y130137D01*
X40836Y130045D01*
X41232Y129962D01*
X41630Y129889D01*
X42030Y129826D01*
X42431Y129772D01*
X42833Y129728D01*
X43237Y129694D01*
X43641Y129670D01*
X44045Y129655D01*
X44450Y129650D01*
X54150Y129650D01*
X86600Y162400D02*
X86598Y162540D01*
X86592Y162680D01*
X86582Y162820D01*
X86569Y162960D01*
X86551Y163099D01*
X86529Y163238D01*
X86504Y163375D01*
X86475Y163513D01*
X86442Y163649D01*
X86405Y163784D01*
X86364Y163918D01*
X86319Y164051D01*
X86271Y164183D01*
X86219Y164313D01*
X86164Y164442D01*
X86105Y164569D01*
X86042Y164695D01*
X85976Y164819D01*
X85907Y164940D01*
X85834Y165060D01*
X85757Y165178D01*
X85678Y165293D01*
X85595Y165407D01*
X85509Y165517D01*
X85420Y165626D01*
X85328Y165732D01*
X85233Y165835D01*
X85136Y165936D01*
X85035Y166033D01*
X84932Y166128D01*
X84826Y166220D01*
X84717Y166309D01*
X84607Y166395D01*
X84493Y166478D01*
X84378Y166557D01*
X84260Y166634D01*
X84140Y166707D01*
X84019Y166776D01*
X83895Y166842D01*
X83769Y166905D01*
X83642Y166964D01*
X83513Y167019D01*
X83383Y167071D01*
X83251Y167119D01*
X83118Y167164D01*
X82984Y167205D01*
X82849Y167242D01*
X82713Y167275D01*
X82575Y167304D01*
X82438Y167329D01*
X82299Y167351D01*
X82160Y167369D01*
X82020Y167382D01*
X81880Y167392D01*
X81740Y167398D01*
X81600Y167400D01*
X81264Y167404D01*
X80928Y167416D01*
X80593Y167437D01*
X80258Y167465D01*
X79925Y167501D01*
X79592Y167546D01*
X79260Y167598D01*
X78929Y167659D01*
X78601Y167727D01*
X78274Y167804D01*
X77948Y167888D01*
X77625Y167980D01*
X77305Y168080D01*
X76986Y168188D01*
X76671Y168303D01*
X76358Y168426D01*
X76049Y168557D01*
X75743Y168694D01*
X75440Y168840D01*
X75140Y168992D01*
X74845Y169152D01*
X74553Y169319D01*
X74266Y169492D01*
X73983Y169673D01*
X73704Y169861D01*
X73430Y170055D01*
X73160Y170255D01*
X72896Y170463D01*
X72637Y170676D01*
X72383Y170896D01*
X72134Y171121D01*
X71891Y171353D01*
X71653Y171591D01*
X71421Y171834D01*
X71196Y172083D01*
X70976Y172337D01*
X70763Y172596D01*
X70555Y172860D01*
X70355Y173130D01*
X70161Y173404D01*
X69973Y173683D01*
X69792Y173966D01*
X69619Y174253D01*
X69452Y174545D01*
X69292Y174840D01*
X69140Y175140D01*
X68994Y175443D01*
X68857Y175749D01*
X68726Y176058D01*
X68603Y176371D01*
X68488Y176686D01*
X68380Y177005D01*
X68280Y177325D01*
X68188Y177648D01*
X68104Y177974D01*
X68027Y178301D01*
X67959Y178629D01*
X67898Y178960D01*
X67846Y179292D01*
X67801Y179625D01*
X67765Y179958D01*
X67737Y180293D01*
X67716Y180628D01*
X67704Y180964D01*
X67700Y181300D01*
X67700Y233650D01*
X67698Y233790D01*
X67692Y233930D01*
X67682Y234070D01*
X67669Y234210D01*
X67651Y234349D01*
X67629Y234488D01*
X67604Y234625D01*
X67575Y234763D01*
X67542Y234899D01*
X67505Y235034D01*
X67464Y235168D01*
X67419Y235301D01*
X67371Y235433D01*
X67319Y235563D01*
X67264Y235692D01*
X67205Y235819D01*
X67142Y235945D01*
X67076Y236069D01*
X67007Y236190D01*
X66934Y236310D01*
X66857Y236428D01*
X66778Y236543D01*
X66695Y236657D01*
X66609Y236767D01*
X66520Y236876D01*
X66428Y236982D01*
X66333Y237085D01*
X66236Y237186D01*
X66135Y237283D01*
X66032Y237378D01*
X65926Y237470D01*
X65817Y237559D01*
X65707Y237645D01*
X65593Y237728D01*
X65478Y237807D01*
X65360Y237884D01*
X65240Y237957D01*
X65119Y238026D01*
X64995Y238092D01*
X64869Y238155D01*
X64742Y238214D01*
X64613Y238269D01*
X64483Y238321D01*
X64351Y238369D01*
X64218Y238414D01*
X64084Y238455D01*
X63949Y238492D01*
X63813Y238525D01*
X63675Y238554D01*
X63538Y238579D01*
X63399Y238601D01*
X63260Y238619D01*
X63120Y238632D01*
X62980Y238642D01*
X62840Y238648D01*
X62700Y238650D01*
X60150Y238650D01*
X27700Y15400D02*
X27700Y-44100D01*
X27705Y-44505D01*
X27720Y-44909D01*
X27744Y-45313D01*
X27778Y-45717D01*
X27822Y-46119D01*
X27876Y-46520D01*
X27939Y-46920D01*
X28012Y-47318D01*
X28095Y-47714D01*
X28187Y-48109D01*
X28288Y-48500D01*
X28399Y-48890D01*
X28520Y-49276D01*
X28650Y-49659D01*
X28788Y-50040D01*
X28937Y-50416D01*
X29094Y-50789D01*
X29260Y-51158D01*
X29435Y-51523D01*
X29619Y-51884D01*
X29811Y-52240D01*
X30012Y-52592D01*
X30221Y-52938D01*
X30439Y-53279D01*
X30665Y-53615D01*
X30899Y-53945D01*
X31141Y-54270D01*
X31390Y-54589D01*
X31648Y-54901D01*
X31912Y-55207D01*
X32184Y-55507D01*
X32464Y-55800D01*
X32750Y-56086D01*
X33043Y-56366D01*
X33343Y-56638D01*
X33649Y-56902D01*
X33961Y-57160D01*
X34280Y-57409D01*
X34605Y-57651D01*
X34935Y-57885D01*
X35271Y-58111D01*
X35612Y-58329D01*
X35958Y-58538D01*
X36310Y-58739D01*
X36666Y-58931D01*
X37027Y-59115D01*
X37392Y-59290D01*
X37761Y-59456D01*
X38134Y-59613D01*
X38510Y-59762D01*
X38891Y-59900D01*
X39274Y-60030D01*
X39660Y-60151D01*
X40050Y-60262D01*
X40441Y-60363D01*
X40836Y-60455D01*
X41232Y-60538D01*
X41630Y-60611D01*
X42030Y-60674D01*
X42431Y-60728D01*
X42833Y-60772D01*
X43237Y-60806D01*
X43641Y-60830D01*
X44045Y-60845D01*
X44450Y-60850D01*
X54150Y-60850D01*
X86600Y-28100D02*
X86598Y-27960D01*
X86592Y-27820D01*
X86582Y-27680D01*
X86569Y-27540D01*
X86551Y-27401D01*
X86529Y-27262D01*
X86504Y-27125D01*
X86475Y-26987D01*
X86442Y-26851D01*
X86405Y-26716D01*
X86364Y-26582D01*
X86319Y-26449D01*
X86271Y-26317D01*
X86219Y-26187D01*
X86164Y-26058D01*
X86105Y-25931D01*
X86042Y-25805D01*
X85976Y-25681D01*
X85907Y-25560D01*
X85834Y-25440D01*
X85757Y-25322D01*
X85678Y-25207D01*
X85595Y-25093D01*
X85509Y-24983D01*
X85420Y-24874D01*
X85328Y-24768D01*
X85233Y-24665D01*
X85136Y-24564D01*
X85035Y-24467D01*
X84932Y-24372D01*
X84826Y-24280D01*
X84717Y-24191D01*
X84607Y-24105D01*
X84493Y-24022D01*
X84378Y-23943D01*
X84260Y-23866D01*
X84140Y-23793D01*
X84019Y-23724D01*
X83895Y-23658D01*
X83769Y-23595D01*
X83642Y-23536D01*
X83513Y-23481D01*
X83383Y-23429D01*
X83251Y-23381D01*
X83118Y-23336D01*
X82984Y-23295D01*
X82849Y-23258D01*
X82713Y-23225D01*
X82575Y-23196D01*
X82438Y-23171D01*
X82299Y-23149D01*
X82160Y-23131D01*
X82020Y-23118D01*
X81880Y-23108D01*
X81740Y-23102D01*
X81600Y-23100D01*
X81264Y-23096D01*
X80928Y-23084D01*
X80593Y-23063D01*
X80258Y-23035D01*
X79925Y-22999D01*
X79592Y-22954D01*
X79260Y-22902D01*
X78929Y-22841D01*
X78601Y-22773D01*
X78274Y-22696D01*
X77948Y-22612D01*
X77625Y-22520D01*
X77305Y-22420D01*
X76986Y-22312D01*
X76671Y-22197D01*
X76358Y-22074D01*
X76049Y-21943D01*
X75743Y-21806D01*
X75440Y-21660D01*
X75140Y-21508D01*
X74845Y-21348D01*
X74553Y-21181D01*
X74266Y-21008D01*
X73983Y-20827D01*
X73704Y-20639D01*
X73430Y-20445D01*
X73160Y-20245D01*
X72896Y-20037D01*
X72637Y-19824D01*
X72383Y-19604D01*
X72134Y-19379D01*
X71891Y-19147D01*
X71653Y-18909D01*
X71421Y-18666D01*
X71196Y-18417D01*
X70976Y-18163D01*
X70763Y-17904D01*
X70555Y-17640D01*
X70355Y-17370D01*
X70161Y-17096D01*
X69973Y-16817D01*
X69792Y-16534D01*
X69619Y-16247D01*
X69452Y-15955D01*
X69292Y-15660D01*
X69140Y-15360D01*
X68994Y-15057D01*
X68857Y-14751D01*
X68726Y-14442D01*
X68603Y-14129D01*
X68488Y-13814D01*
X68380Y-13495D01*
X68280Y-13175D01*
X68188Y-12852D01*
X68104Y-12526D01*
X68027Y-12199D01*
X67959Y-11871D01*
X67898Y-11540D01*
X67846Y-11208D01*
X67801Y-10875D01*
X67765Y-10542D01*
X67737Y-10207D01*
X67716Y-9872D01*
X67704Y-9536D01*
X67700Y-9200D01*
X67700Y43150D01*
X67698Y43290D01*
X67692Y43430D01*
X67682Y43570D01*
X67669Y43710D01*
X67651Y43849D01*
X67629Y43988D01*
X67604Y44125D01*
X67575Y44263D01*
X67542Y44399D01*
X67505Y44534D01*
X67464Y44668D01*
X67419Y44801D01*
X67371Y44933D01*
X67319Y45063D01*
X67264Y45192D01*
X67205Y45319D01*
X67142Y45445D01*
X67076Y45569D01*
X67007Y45690D01*
X66934Y45810D01*
X66857Y45928D01*
X66778Y46043D01*
X66695Y46157D01*
X66609Y46267D01*
X66520Y46376D01*
X66428Y46482D01*
X66333Y46585D01*
X66236Y46686D01*
X66135Y46783D01*
X66032Y46878D01*
X65926Y46970D01*
X65817Y47059D01*
X65707Y47145D01*
X65593Y47228D01*
X65478Y47307D01*
X65360Y47384D01*
X65240Y47457D01*
X65119Y47526D01*
X64995Y47592D01*
X64869Y47655D01*
X64742Y47714D01*
X64613Y47769D01*
X64483Y47821D01*
X64351Y47869D01*
X64218Y47914D01*
X64084Y47955D01*
X63949Y47992D01*
X63813Y48025D01*
X63675Y48054D01*
X63538Y48079D01*
X63399Y48101D01*
X63260Y48119D01*
X63120Y48132D01*
X62980Y48142D01*
X62840Y48148D01*
X62700Y48150D01*
X60150Y48150D01*
X27700Y-175100D02*
X27700Y-234600D01*
X27705Y-235005D01*
X27720Y-235409D01*
X27744Y-235813D01*
X27778Y-236217D01*
X27822Y-236619D01*
X27876Y-237020D01*
X27939Y-237420D01*
X28012Y-237818D01*
X28095Y-238214D01*
X28187Y-238609D01*
X28288Y-239000D01*
X28399Y-239390D01*
X28520Y-239776D01*
X28650Y-240159D01*
X28788Y-240540D01*
X28937Y-240916D01*
X29094Y-241289D01*
X29260Y-241658D01*
X29435Y-242023D01*
X29619Y-242384D01*
X29811Y-242740D01*
X30012Y-243092D01*
X30221Y-243438D01*
X30439Y-243779D01*
X30665Y-244115D01*
X30899Y-244445D01*
X31141Y-244770D01*
X31390Y-245089D01*
X31648Y-245401D01*
X31912Y-245707D01*
X32184Y-246007D01*
X32464Y-246300D01*
X32750Y-246586D01*
X33043Y-246866D01*
X33343Y-247138D01*
X33649Y-247402D01*
X33961Y-247660D01*
X34280Y-247909D01*
X34605Y-248151D01*
X34935Y-248385D01*
X35271Y-248611D01*
X35612Y-248829D01*
X35958Y-249038D01*
X36310Y-249239D01*
X36666Y-249431D01*
X37027Y-249615D01*
X37392Y-249790D01*
X37761Y-249956D01*
X38134Y-250113D01*
X38510Y-250262D01*
X38891Y-250400D01*
X39274Y-250530D01*
X39660Y-250651D01*
X40050Y-250762D01*
X40441Y-250863D01*
X40836Y-250955D01*
X41232Y-251038D01*
X41630Y-251111D01*
X42030Y-251174D01*
X42431Y-251228D01*
X42833Y-251272D01*
X43237Y-251306D01*
X43641Y-251330D01*
X44045Y-251345D01*
X44450Y-251350D01*
X54150Y-251350D01*
X86600Y-218600D02*
X86598Y-218460D01*
X86592Y-218320D01*
X86582Y-218180D01*
X86569Y-218040D01*
X86551Y-217901D01*
X86529Y-217762D01*
X86504Y-217625D01*
X86475Y-217487D01*
X86442Y-217351D01*
X86405Y-217216D01*
X86364Y-217082D01*
X86319Y-216949D01*
X86271Y-216817D01*
X86219Y-216687D01*
X86164Y-216558D01*
X86105Y-216431D01*
X86042Y-216305D01*
X85976Y-216181D01*
X85907Y-216060D01*
X85834Y-215940D01*
X85757Y-215822D01*
X85678Y-215707D01*
X85595Y-215593D01*
X85509Y-215483D01*
X85420Y-215374D01*
X85328Y-215268D01*
X85233Y-215165D01*
X85136Y-215064D01*
X85035Y-214967D01*
X84932Y-214872D01*
X84826Y-214780D01*
X84717Y-214691D01*
X84607Y-214605D01*
X84493Y-214522D01*
X84378Y-214443D01*
X84260Y-214366D01*
X84140Y-214293D01*
X84019Y-214224D01*
X83895Y-214158D01*
X83769Y-214095D01*
X83642Y-214036D01*
X83513Y-213981D01*
X83383Y-213929D01*
X83251Y-213881D01*
X83118Y-213836D01*
X82984Y-213795D01*
X82849Y-213758D01*
X82713Y-213725D01*
X82575Y-213696D01*
X82438Y-213671D01*
X82299Y-213649D01*
X82160Y-213631D01*
X82020Y-213618D01*
X81880Y-213608D01*
X81740Y-213602D01*
X81600Y-213600D01*
X81264Y-213596D01*
X80928Y-213584D01*
X80593Y-213563D01*
X80258Y-213535D01*
X79925Y-213499D01*
X79592Y-213454D01*
X79260Y-213402D01*
X78929Y-213341D01*
X78601Y-213273D01*
X78274Y-213196D01*
X77948Y-213112D01*
X77625Y-213020D01*
X77305Y-212920D01*
X76986Y-212812D01*
X76671Y-212697D01*
X76358Y-212574D01*
X76049Y-212443D01*
X75743Y-212306D01*
X75440Y-212160D01*
X75140Y-212008D01*
X74845Y-211848D01*
X74553Y-211681D01*
X74266Y-211508D01*
X73983Y-211327D01*
X73704Y-211139D01*
X73430Y-210945D01*
X73160Y-210745D01*
X72896Y-210537D01*
X72637Y-210324D01*
X72383Y-210104D01*
X72134Y-209879D01*
X71891Y-209647D01*
X71653Y-209409D01*
X71421Y-209166D01*
X71196Y-208917D01*
X70976Y-208663D01*
X70763Y-208404D01*
X70555Y-208140D01*
X70355Y-207870D01*
X70161Y-207596D01*
X69973Y-207317D01*
X69792Y-207034D01*
X69619Y-206747D01*
X69452Y-206455D01*
X69292Y-206160D01*
X69140Y-205860D01*
X68994Y-205557D01*
X68857Y-205251D01*
X68726Y-204942D01*
X68603Y-204629D01*
X68488Y-204314D01*
X68380Y-203995D01*
X68280Y-203675D01*
X68188Y-203352D01*
X68104Y-203026D01*
X68027Y-202699D01*
X67959Y-202371D01*
X67898Y-202040D01*
X67846Y-201708D01*
X67801Y-201375D01*
X67765Y-201042D01*
X67737Y-200707D01*
X67716Y-200372D01*
X67704Y-200036D01*
X67700Y-199700D01*
X67700Y-147350D01*
X67698Y-147210D01*
X67692Y-147070D01*
X67682Y-146930D01*
X67669Y-146790D01*
X67651Y-146651D01*
X67629Y-146512D01*
X67604Y-146375D01*
X67575Y-146237D01*
X67542Y-146101D01*
X67505Y-145966D01*
X67464Y-145832D01*
X67419Y-145699D01*
X67371Y-145567D01*
X67319Y-145437D01*
X67264Y-145308D01*
X67205Y-145181D01*
X67142Y-145055D01*
X67076Y-144931D01*
X67007Y-144810D01*
X66934Y-144690D01*
X66857Y-144572D01*
X66778Y-144457D01*
X66695Y-144343D01*
X66609Y-144233D01*
X66520Y-144124D01*
X66428Y-144018D01*
X66333Y-143915D01*
X66236Y-143814D01*
X66135Y-143717D01*
X66032Y-143622D01*
X65926Y-143530D01*
X65817Y-143441D01*
X65707Y-143355D01*
X65593Y-143272D01*
X65478Y-143193D01*
X65360Y-143116D01*
X65240Y-143043D01*
X65119Y-142974D01*
X64995Y-142908D01*
X64869Y-142845D01*
X64742Y-142786D01*
X64613Y-142731D01*
X64483Y-142679D01*
X64351Y-142631D01*
X64218Y-142586D01*
X64084Y-142545D01*
X63949Y-142508D01*
X63813Y-142475D01*
X63675Y-142446D01*
X63538Y-142421D01*
X63399Y-142399D01*
X63260Y-142381D01*
X63120Y-142368D01*
X62980Y-142358D01*
X62840Y-142352D01*
X62700Y-142350D01*
X60150Y-142350D01*
M02*
