G04 EAGLE Gerber RS-274X export*
G75*
%MOMM*%
%FSLAX34Y34*%
%LPD*%
%INBoard Outline*%
%IPPOS*%
%AMOC8*
5,1,8,0,0,1.08239X$1,22.5*%
G01*
G04 Define Apertures*
%ADD10C,0.000000*%
%ADD11C,0.254000*%
D10*
X-165250Y-265750D02*
X-165244Y-266233D01*
X-165227Y-266716D01*
X-165197Y-267199D01*
X-165157Y-267680D01*
X-165104Y-268161D01*
X-165040Y-268640D01*
X-164965Y-269117D01*
X-164877Y-269593D01*
X-164779Y-270066D01*
X-164669Y-270536D01*
X-164548Y-271004D01*
X-164415Y-271469D01*
X-164271Y-271930D01*
X-164116Y-272388D01*
X-163950Y-272842D01*
X-163773Y-273292D01*
X-163586Y-273737D01*
X-163387Y-274178D01*
X-163179Y-274614D01*
X-162959Y-275044D01*
X-162729Y-275470D01*
X-162489Y-275889D01*
X-162239Y-276303D01*
X-161979Y-276710D01*
X-161710Y-277111D01*
X-161430Y-277506D01*
X-161142Y-277893D01*
X-160843Y-278274D01*
X-160536Y-278647D01*
X-160220Y-279012D01*
X-159895Y-279370D01*
X-159562Y-279720D01*
X-159220Y-280062D01*
X-158870Y-280395D01*
X-158512Y-280720D01*
X-158147Y-281036D01*
X-157774Y-281343D01*
X-157393Y-281642D01*
X-157006Y-281930D01*
X-156611Y-282210D01*
X-156210Y-282479D01*
X-155803Y-282739D01*
X-155389Y-282989D01*
X-154970Y-283229D01*
X-154544Y-283459D01*
X-154114Y-283679D01*
X-153678Y-283887D01*
X-153237Y-284086D01*
X-152792Y-284273D01*
X-152342Y-284450D01*
X-151888Y-284616D01*
X-151430Y-284771D01*
X-150969Y-284915D01*
X-150504Y-285048D01*
X-150036Y-285169D01*
X-149566Y-285279D01*
X-149093Y-285377D01*
X-148617Y-285465D01*
X-148140Y-285540D01*
X-147661Y-285604D01*
X-147180Y-285657D01*
X-146699Y-285697D01*
X-146216Y-285727D01*
X-145733Y-285744D01*
X-145250Y-285750D01*
X145250Y-285750D01*
X145733Y-285744D01*
X146216Y-285727D01*
X146699Y-285697D01*
X147180Y-285657D01*
X147661Y-285604D01*
X148140Y-285540D01*
X148617Y-285465D01*
X149093Y-285377D01*
X149566Y-285279D01*
X150036Y-285169D01*
X150504Y-285048D01*
X150969Y-284915D01*
X151430Y-284771D01*
X151888Y-284616D01*
X152342Y-284450D01*
X152792Y-284273D01*
X153237Y-284086D01*
X153678Y-283887D01*
X154114Y-283679D01*
X154544Y-283459D01*
X154970Y-283229D01*
X155389Y-282989D01*
X155803Y-282739D01*
X156210Y-282479D01*
X156611Y-282210D01*
X157006Y-281930D01*
X157393Y-281642D01*
X157774Y-281343D01*
X158147Y-281036D01*
X158512Y-280720D01*
X158870Y-280395D01*
X159220Y-280062D01*
X159562Y-279720D01*
X159895Y-279370D01*
X160220Y-279012D01*
X160536Y-278647D01*
X160843Y-278274D01*
X161142Y-277893D01*
X161430Y-277506D01*
X161710Y-277111D01*
X161979Y-276710D01*
X162239Y-276303D01*
X162489Y-275889D01*
X162729Y-275470D01*
X162959Y-275044D01*
X163179Y-274614D01*
X163387Y-274178D01*
X163586Y-273737D01*
X163773Y-273292D01*
X163950Y-272842D01*
X164116Y-272388D01*
X164271Y-271930D01*
X164415Y-271469D01*
X164548Y-271004D01*
X164669Y-270536D01*
X164779Y-270066D01*
X164877Y-269593D01*
X164965Y-269117D01*
X165040Y-268640D01*
X165104Y-268161D01*
X165157Y-267680D01*
X165197Y-267199D01*
X165227Y-266716D01*
X165244Y-266233D01*
X165250Y-265750D01*
X165250Y265750D01*
X165244Y266233D01*
X165227Y266716D01*
X165197Y267199D01*
X165157Y267680D01*
X165104Y268161D01*
X165040Y268640D01*
X164965Y269117D01*
X164877Y269593D01*
X164779Y270066D01*
X164669Y270536D01*
X164548Y271004D01*
X164415Y271469D01*
X164271Y271930D01*
X164116Y272388D01*
X163950Y272842D01*
X163773Y273292D01*
X163586Y273737D01*
X163387Y274178D01*
X163179Y274614D01*
X162959Y275044D01*
X162729Y275470D01*
X162489Y275889D01*
X162239Y276303D01*
X161979Y276710D01*
X161710Y277111D01*
X161430Y277506D01*
X161142Y277893D01*
X160843Y278274D01*
X160536Y278647D01*
X160220Y279012D01*
X159895Y279370D01*
X159562Y279720D01*
X159220Y280062D01*
X158870Y280395D01*
X158512Y280720D01*
X158147Y281036D01*
X157774Y281343D01*
X157393Y281642D01*
X157006Y281930D01*
X156611Y282210D01*
X156210Y282479D01*
X155803Y282739D01*
X155389Y282989D01*
X154970Y283229D01*
X154544Y283459D01*
X154114Y283679D01*
X153678Y283887D01*
X153237Y284086D01*
X152792Y284273D01*
X152342Y284450D01*
X151888Y284616D01*
X151430Y284771D01*
X150969Y284915D01*
X150504Y285048D01*
X150036Y285169D01*
X149566Y285279D01*
X149093Y285377D01*
X148617Y285465D01*
X148140Y285540D01*
X147661Y285604D01*
X147180Y285657D01*
X146699Y285697D01*
X146216Y285727D01*
X145733Y285744D01*
X145250Y285750D01*
X-145250Y285750D01*
X-145733Y285744D01*
X-146216Y285727D01*
X-146699Y285697D01*
X-147180Y285657D01*
X-147661Y285604D01*
X-148140Y285540D01*
X-148617Y285465D01*
X-149093Y285377D01*
X-149566Y285279D01*
X-150036Y285169D01*
X-150504Y285048D01*
X-150969Y284915D01*
X-151430Y284771D01*
X-151888Y284616D01*
X-152342Y284450D01*
X-152792Y284273D01*
X-153237Y284086D01*
X-153678Y283887D01*
X-154114Y283679D01*
X-154544Y283459D01*
X-154970Y283229D01*
X-155389Y282989D01*
X-155803Y282739D01*
X-156210Y282479D01*
X-156611Y282210D01*
X-157006Y281930D01*
X-157393Y281642D01*
X-157774Y281343D01*
X-158147Y281036D01*
X-158512Y280720D01*
X-158870Y280395D01*
X-159220Y280062D01*
X-159562Y279720D01*
X-159895Y279370D01*
X-160220Y279012D01*
X-160536Y278647D01*
X-160843Y278274D01*
X-161142Y277893D01*
X-161430Y277506D01*
X-161710Y277111D01*
X-161979Y276710D01*
X-162239Y276303D01*
X-162489Y275889D01*
X-162729Y275470D01*
X-162959Y275044D01*
X-163179Y274614D01*
X-163387Y274178D01*
X-163586Y273737D01*
X-163773Y273292D01*
X-163950Y272842D01*
X-164116Y272388D01*
X-164271Y271930D01*
X-164415Y271469D01*
X-164548Y271004D01*
X-164669Y270536D01*
X-164779Y270066D01*
X-164877Y269593D01*
X-164965Y269117D01*
X-165040Y268640D01*
X-165104Y268161D01*
X-165157Y267680D01*
X-165197Y267199D01*
X-165227Y266716D01*
X-165244Y266233D01*
X-165250Y265750D01*
X-165250Y-265750D01*
X-11000Y228600D02*
X-10997Y228870D01*
X-10987Y229140D01*
X-10970Y229409D01*
X-10947Y229678D01*
X-10917Y229947D01*
X-10881Y230214D01*
X-10838Y230481D01*
X-10789Y230746D01*
X-10733Y231010D01*
X-10670Y231273D01*
X-10602Y231534D01*
X-10526Y231793D01*
X-10445Y232050D01*
X-10357Y232306D01*
X-10263Y232559D01*
X-10163Y232810D01*
X-10056Y233058D01*
X-9944Y233303D01*
X-9825Y233546D01*
X-9701Y233785D01*
X-9571Y234022D01*
X-9435Y234255D01*
X-9293Y234485D01*
X-9146Y234711D01*
X-8993Y234934D01*
X-8835Y235153D01*
X-8672Y235368D01*
X-8503Y235578D01*
X-8329Y235785D01*
X-8150Y235987D01*
X-7967Y236185D01*
X-7778Y236378D01*
X-7585Y236567D01*
X-7387Y236750D01*
X-7185Y236929D01*
X-6978Y237103D01*
X-6768Y237272D01*
X-6553Y237435D01*
X-6334Y237593D01*
X-6111Y237746D01*
X-5885Y237893D01*
X-5655Y238035D01*
X-5422Y238171D01*
X-5185Y238301D01*
X-4946Y238425D01*
X-4703Y238544D01*
X-4458Y238656D01*
X-4210Y238763D01*
X-3959Y238863D01*
X-3706Y238957D01*
X-3450Y239045D01*
X-3193Y239126D01*
X-2934Y239202D01*
X-2673Y239270D01*
X-2410Y239333D01*
X-2146Y239389D01*
X-1881Y239438D01*
X-1614Y239481D01*
X-1347Y239517D01*
X-1078Y239547D01*
X-809Y239570D01*
X-540Y239587D01*
X-270Y239597D01*
X0Y239600D01*
X270Y239597D01*
X540Y239587D01*
X809Y239570D01*
X1078Y239547D01*
X1347Y239517D01*
X1614Y239481D01*
X1881Y239438D01*
X2146Y239389D01*
X2410Y239333D01*
X2673Y239270D01*
X2934Y239202D01*
X3193Y239126D01*
X3450Y239045D01*
X3706Y238957D01*
X3959Y238863D01*
X4210Y238763D01*
X4458Y238656D01*
X4703Y238544D01*
X4946Y238425D01*
X5185Y238301D01*
X5422Y238171D01*
X5655Y238035D01*
X5885Y237893D01*
X6111Y237746D01*
X6334Y237593D01*
X6553Y237435D01*
X6768Y237272D01*
X6978Y237103D01*
X7185Y236929D01*
X7387Y236750D01*
X7585Y236567D01*
X7778Y236378D01*
X7967Y236185D01*
X8150Y235987D01*
X8329Y235785D01*
X8503Y235578D01*
X8672Y235368D01*
X8835Y235153D01*
X8993Y234934D01*
X9146Y234711D01*
X9293Y234485D01*
X9435Y234255D01*
X9571Y234022D01*
X9701Y233785D01*
X9825Y233546D01*
X9944Y233303D01*
X10056Y233058D01*
X10163Y232810D01*
X10263Y232559D01*
X10357Y232306D01*
X10445Y232050D01*
X10526Y231793D01*
X10602Y231534D01*
X10670Y231273D01*
X10733Y231010D01*
X10789Y230746D01*
X10838Y230481D01*
X10881Y230214D01*
X10917Y229947D01*
X10947Y229678D01*
X10970Y229409D01*
X10987Y229140D01*
X10997Y228870D01*
X11000Y228600D01*
X10997Y228330D01*
X10987Y228060D01*
X10970Y227791D01*
X10947Y227522D01*
X10917Y227253D01*
X10881Y226986D01*
X10838Y226719D01*
X10789Y226454D01*
X10733Y226190D01*
X10670Y225927D01*
X10602Y225666D01*
X10526Y225407D01*
X10445Y225150D01*
X10357Y224894D01*
X10263Y224641D01*
X10163Y224390D01*
X10056Y224142D01*
X9944Y223897D01*
X9825Y223654D01*
X9701Y223415D01*
X9571Y223178D01*
X9435Y222945D01*
X9293Y222715D01*
X9146Y222489D01*
X8993Y222266D01*
X8835Y222047D01*
X8672Y221832D01*
X8503Y221622D01*
X8329Y221415D01*
X8150Y221213D01*
X7967Y221015D01*
X7778Y220822D01*
X7585Y220633D01*
X7387Y220450D01*
X7185Y220271D01*
X6978Y220097D01*
X6768Y219928D01*
X6553Y219765D01*
X6334Y219607D01*
X6111Y219454D01*
X5885Y219307D01*
X5655Y219165D01*
X5422Y219029D01*
X5185Y218899D01*
X4946Y218775D01*
X4703Y218656D01*
X4458Y218544D01*
X4210Y218437D01*
X3959Y218337D01*
X3706Y218243D01*
X3450Y218155D01*
X3193Y218074D01*
X2934Y217998D01*
X2673Y217930D01*
X2410Y217867D01*
X2146Y217811D01*
X1881Y217762D01*
X1614Y217719D01*
X1347Y217683D01*
X1078Y217653D01*
X809Y217630D01*
X540Y217613D01*
X270Y217603D01*
X0Y217600D01*
X-270Y217603D01*
X-540Y217613D01*
X-809Y217630D01*
X-1078Y217653D01*
X-1347Y217683D01*
X-1614Y217719D01*
X-1881Y217762D01*
X-2146Y217811D01*
X-2410Y217867D01*
X-2673Y217930D01*
X-2934Y217998D01*
X-3193Y218074D01*
X-3450Y218155D01*
X-3706Y218243D01*
X-3959Y218337D01*
X-4210Y218437D01*
X-4458Y218544D01*
X-4703Y218656D01*
X-4946Y218775D01*
X-5185Y218899D01*
X-5422Y219029D01*
X-5655Y219165D01*
X-5885Y219307D01*
X-6111Y219454D01*
X-6334Y219607D01*
X-6553Y219765D01*
X-6768Y219928D01*
X-6978Y220097D01*
X-7185Y220271D01*
X-7387Y220450D01*
X-7585Y220633D01*
X-7778Y220822D01*
X-7967Y221015D01*
X-8150Y221213D01*
X-8329Y221415D01*
X-8503Y221622D01*
X-8672Y221832D01*
X-8835Y222047D01*
X-8993Y222266D01*
X-9146Y222489D01*
X-9293Y222715D01*
X-9435Y222945D01*
X-9571Y223178D01*
X-9701Y223415D01*
X-9825Y223654D01*
X-9944Y223897D01*
X-10056Y224142D01*
X-10163Y224390D01*
X-10263Y224641D01*
X-10357Y224894D01*
X-10445Y225150D01*
X-10526Y225407D01*
X-10602Y225666D01*
X-10670Y225927D01*
X-10733Y226190D01*
X-10789Y226454D01*
X-10838Y226719D01*
X-10881Y226986D01*
X-10917Y227253D01*
X-10947Y227522D01*
X-10970Y227791D01*
X-10987Y228060D01*
X-10997Y228330D01*
X-11000Y228600D01*
X-11000Y-228600D02*
X-10997Y-228330D01*
X-10987Y-228060D01*
X-10970Y-227791D01*
X-10947Y-227522D01*
X-10917Y-227253D01*
X-10881Y-226986D01*
X-10838Y-226719D01*
X-10789Y-226454D01*
X-10733Y-226190D01*
X-10670Y-225927D01*
X-10602Y-225666D01*
X-10526Y-225407D01*
X-10445Y-225150D01*
X-10357Y-224894D01*
X-10263Y-224641D01*
X-10163Y-224390D01*
X-10056Y-224142D01*
X-9944Y-223897D01*
X-9825Y-223654D01*
X-9701Y-223415D01*
X-9571Y-223178D01*
X-9435Y-222945D01*
X-9293Y-222715D01*
X-9146Y-222489D01*
X-8993Y-222266D01*
X-8835Y-222047D01*
X-8672Y-221832D01*
X-8503Y-221622D01*
X-8329Y-221415D01*
X-8150Y-221213D01*
X-7967Y-221015D01*
X-7778Y-220822D01*
X-7585Y-220633D01*
X-7387Y-220450D01*
X-7185Y-220271D01*
X-6978Y-220097D01*
X-6768Y-219928D01*
X-6553Y-219765D01*
X-6334Y-219607D01*
X-6111Y-219454D01*
X-5885Y-219307D01*
X-5655Y-219165D01*
X-5422Y-219029D01*
X-5185Y-218899D01*
X-4946Y-218775D01*
X-4703Y-218656D01*
X-4458Y-218544D01*
X-4210Y-218437D01*
X-3959Y-218337D01*
X-3706Y-218243D01*
X-3450Y-218155D01*
X-3193Y-218074D01*
X-2934Y-217998D01*
X-2673Y-217930D01*
X-2410Y-217867D01*
X-2146Y-217811D01*
X-1881Y-217762D01*
X-1614Y-217719D01*
X-1347Y-217683D01*
X-1078Y-217653D01*
X-809Y-217630D01*
X-540Y-217613D01*
X-270Y-217603D01*
X0Y-217600D01*
X270Y-217603D01*
X540Y-217613D01*
X809Y-217630D01*
X1078Y-217653D01*
X1347Y-217683D01*
X1614Y-217719D01*
X1881Y-217762D01*
X2146Y-217811D01*
X2410Y-217867D01*
X2673Y-217930D01*
X2934Y-217998D01*
X3193Y-218074D01*
X3450Y-218155D01*
X3706Y-218243D01*
X3959Y-218337D01*
X4210Y-218437D01*
X4458Y-218544D01*
X4703Y-218656D01*
X4946Y-218775D01*
X5185Y-218899D01*
X5422Y-219029D01*
X5655Y-219165D01*
X5885Y-219307D01*
X6111Y-219454D01*
X6334Y-219607D01*
X6553Y-219765D01*
X6768Y-219928D01*
X6978Y-220097D01*
X7185Y-220271D01*
X7387Y-220450D01*
X7585Y-220633D01*
X7778Y-220822D01*
X7967Y-221015D01*
X8150Y-221213D01*
X8329Y-221415D01*
X8503Y-221622D01*
X8672Y-221832D01*
X8835Y-222047D01*
X8993Y-222266D01*
X9146Y-222489D01*
X9293Y-222715D01*
X9435Y-222945D01*
X9571Y-223178D01*
X9701Y-223415D01*
X9825Y-223654D01*
X9944Y-223897D01*
X10056Y-224142D01*
X10163Y-224390D01*
X10263Y-224641D01*
X10357Y-224894D01*
X10445Y-225150D01*
X10526Y-225407D01*
X10602Y-225666D01*
X10670Y-225927D01*
X10733Y-226190D01*
X10789Y-226454D01*
X10838Y-226719D01*
X10881Y-226986D01*
X10917Y-227253D01*
X10947Y-227522D01*
X10970Y-227791D01*
X10987Y-228060D01*
X10997Y-228330D01*
X11000Y-228600D01*
X10997Y-228870D01*
X10987Y-229140D01*
X10970Y-229409D01*
X10947Y-229678D01*
X10917Y-229947D01*
X10881Y-230214D01*
X10838Y-230481D01*
X10789Y-230746D01*
X10733Y-231010D01*
X10670Y-231273D01*
X10602Y-231534D01*
X10526Y-231793D01*
X10445Y-232050D01*
X10357Y-232306D01*
X10263Y-232559D01*
X10163Y-232810D01*
X10056Y-233058D01*
X9944Y-233303D01*
X9825Y-233546D01*
X9701Y-233785D01*
X9571Y-234022D01*
X9435Y-234255D01*
X9293Y-234485D01*
X9146Y-234711D01*
X8993Y-234934D01*
X8835Y-235153D01*
X8672Y-235368D01*
X8503Y-235578D01*
X8329Y-235785D01*
X8150Y-235987D01*
X7967Y-236185D01*
X7778Y-236378D01*
X7585Y-236567D01*
X7387Y-236750D01*
X7185Y-236929D01*
X6978Y-237103D01*
X6768Y-237272D01*
X6553Y-237435D01*
X6334Y-237593D01*
X6111Y-237746D01*
X5885Y-237893D01*
X5655Y-238035D01*
X5422Y-238171D01*
X5185Y-238301D01*
X4946Y-238425D01*
X4703Y-238544D01*
X4458Y-238656D01*
X4210Y-238763D01*
X3959Y-238863D01*
X3706Y-238957D01*
X3450Y-239045D01*
X3193Y-239126D01*
X2934Y-239202D01*
X2673Y-239270D01*
X2410Y-239333D01*
X2146Y-239389D01*
X1881Y-239438D01*
X1614Y-239481D01*
X1347Y-239517D01*
X1078Y-239547D01*
X809Y-239570D01*
X540Y-239587D01*
X270Y-239597D01*
X0Y-239600D01*
X-270Y-239597D01*
X-540Y-239587D01*
X-809Y-239570D01*
X-1078Y-239547D01*
X-1347Y-239517D01*
X-1614Y-239481D01*
X-1881Y-239438D01*
X-2146Y-239389D01*
X-2410Y-239333D01*
X-2673Y-239270D01*
X-2934Y-239202D01*
X-3193Y-239126D01*
X-3450Y-239045D01*
X-3706Y-238957D01*
X-3959Y-238863D01*
X-4210Y-238763D01*
X-4458Y-238656D01*
X-4703Y-238544D01*
X-4946Y-238425D01*
X-5185Y-238301D01*
X-5422Y-238171D01*
X-5655Y-238035D01*
X-5885Y-237893D01*
X-6111Y-237746D01*
X-6334Y-237593D01*
X-6553Y-237435D01*
X-6768Y-237272D01*
X-6978Y-237103D01*
X-7185Y-236929D01*
X-7387Y-236750D01*
X-7585Y-236567D01*
X-7778Y-236378D01*
X-7967Y-236185D01*
X-8150Y-235987D01*
X-8329Y-235785D01*
X-8503Y-235578D01*
X-8672Y-235368D01*
X-8835Y-235153D01*
X-8993Y-234934D01*
X-9146Y-234711D01*
X-9293Y-234485D01*
X-9435Y-234255D01*
X-9571Y-234022D01*
X-9701Y-233785D01*
X-9825Y-233546D01*
X-9944Y-233303D01*
X-10056Y-233058D01*
X-10163Y-232810D01*
X-10263Y-232559D01*
X-10357Y-232306D01*
X-10445Y-232050D01*
X-10526Y-231793D01*
X-10602Y-231534D01*
X-10670Y-231273D01*
X-10733Y-231010D01*
X-10789Y-230746D01*
X-10838Y-230481D01*
X-10881Y-230214D01*
X-10917Y-229947D01*
X-10947Y-229678D01*
X-10970Y-229409D01*
X-10987Y-229140D01*
X-10997Y-228870D01*
X-11000Y-228600D01*
X-11000Y0D02*
X-10997Y270D01*
X-10987Y540D01*
X-10970Y809D01*
X-10947Y1078D01*
X-10917Y1347D01*
X-10881Y1614D01*
X-10838Y1881D01*
X-10789Y2146D01*
X-10733Y2410D01*
X-10670Y2673D01*
X-10602Y2934D01*
X-10526Y3193D01*
X-10445Y3450D01*
X-10357Y3706D01*
X-10263Y3959D01*
X-10163Y4210D01*
X-10056Y4458D01*
X-9944Y4703D01*
X-9825Y4946D01*
X-9701Y5185D01*
X-9571Y5422D01*
X-9435Y5655D01*
X-9293Y5885D01*
X-9146Y6111D01*
X-8993Y6334D01*
X-8835Y6553D01*
X-8672Y6768D01*
X-8503Y6978D01*
X-8329Y7185D01*
X-8150Y7387D01*
X-7967Y7585D01*
X-7778Y7778D01*
X-7585Y7967D01*
X-7387Y8150D01*
X-7185Y8329D01*
X-6978Y8503D01*
X-6768Y8672D01*
X-6553Y8835D01*
X-6334Y8993D01*
X-6111Y9146D01*
X-5885Y9293D01*
X-5655Y9435D01*
X-5422Y9571D01*
X-5185Y9701D01*
X-4946Y9825D01*
X-4703Y9944D01*
X-4458Y10056D01*
X-4210Y10163D01*
X-3959Y10263D01*
X-3706Y10357D01*
X-3450Y10445D01*
X-3193Y10526D01*
X-2934Y10602D01*
X-2673Y10670D01*
X-2410Y10733D01*
X-2146Y10789D01*
X-1881Y10838D01*
X-1614Y10881D01*
X-1347Y10917D01*
X-1078Y10947D01*
X-809Y10970D01*
X-540Y10987D01*
X-270Y10997D01*
X0Y11000D01*
X270Y10997D01*
X540Y10987D01*
X809Y10970D01*
X1078Y10947D01*
X1347Y10917D01*
X1614Y10881D01*
X1881Y10838D01*
X2146Y10789D01*
X2410Y10733D01*
X2673Y10670D01*
X2934Y10602D01*
X3193Y10526D01*
X3450Y10445D01*
X3706Y10357D01*
X3959Y10263D01*
X4210Y10163D01*
X4458Y10056D01*
X4703Y9944D01*
X4946Y9825D01*
X5185Y9701D01*
X5422Y9571D01*
X5655Y9435D01*
X5885Y9293D01*
X6111Y9146D01*
X6334Y8993D01*
X6553Y8835D01*
X6768Y8672D01*
X6978Y8503D01*
X7185Y8329D01*
X7387Y8150D01*
X7585Y7967D01*
X7778Y7778D01*
X7967Y7585D01*
X8150Y7387D01*
X8329Y7185D01*
X8503Y6978D01*
X8672Y6768D01*
X8835Y6553D01*
X8993Y6334D01*
X9146Y6111D01*
X9293Y5885D01*
X9435Y5655D01*
X9571Y5422D01*
X9701Y5185D01*
X9825Y4946D01*
X9944Y4703D01*
X10056Y4458D01*
X10163Y4210D01*
X10263Y3959D01*
X10357Y3706D01*
X10445Y3450D01*
X10526Y3193D01*
X10602Y2934D01*
X10670Y2673D01*
X10733Y2410D01*
X10789Y2146D01*
X10838Y1881D01*
X10881Y1614D01*
X10917Y1347D01*
X10947Y1078D01*
X10970Y809D01*
X10987Y540D01*
X10997Y270D01*
X11000Y0D01*
X10997Y-270D01*
X10987Y-540D01*
X10970Y-809D01*
X10947Y-1078D01*
X10917Y-1347D01*
X10881Y-1614D01*
X10838Y-1881D01*
X10789Y-2146D01*
X10733Y-2410D01*
X10670Y-2673D01*
X10602Y-2934D01*
X10526Y-3193D01*
X10445Y-3450D01*
X10357Y-3706D01*
X10263Y-3959D01*
X10163Y-4210D01*
X10056Y-4458D01*
X9944Y-4703D01*
X9825Y-4946D01*
X9701Y-5185D01*
X9571Y-5422D01*
X9435Y-5655D01*
X9293Y-5885D01*
X9146Y-6111D01*
X8993Y-6334D01*
X8835Y-6553D01*
X8672Y-6768D01*
X8503Y-6978D01*
X8329Y-7185D01*
X8150Y-7387D01*
X7967Y-7585D01*
X7778Y-7778D01*
X7585Y-7967D01*
X7387Y-8150D01*
X7185Y-8329D01*
X6978Y-8503D01*
X6768Y-8672D01*
X6553Y-8835D01*
X6334Y-8993D01*
X6111Y-9146D01*
X5885Y-9293D01*
X5655Y-9435D01*
X5422Y-9571D01*
X5185Y-9701D01*
X4946Y-9825D01*
X4703Y-9944D01*
X4458Y-10056D01*
X4210Y-10163D01*
X3959Y-10263D01*
X3706Y-10357D01*
X3450Y-10445D01*
X3193Y-10526D01*
X2934Y-10602D01*
X2673Y-10670D01*
X2410Y-10733D01*
X2146Y-10789D01*
X1881Y-10838D01*
X1614Y-10881D01*
X1347Y-10917D01*
X1078Y-10947D01*
X809Y-10970D01*
X540Y-10987D01*
X270Y-10997D01*
X0Y-11000D01*
X-270Y-10997D01*
X-540Y-10987D01*
X-809Y-10970D01*
X-1078Y-10947D01*
X-1347Y-10917D01*
X-1614Y-10881D01*
X-1881Y-10838D01*
X-2146Y-10789D01*
X-2410Y-10733D01*
X-2673Y-10670D01*
X-2934Y-10602D01*
X-3193Y-10526D01*
X-3450Y-10445D01*
X-3706Y-10357D01*
X-3959Y-10263D01*
X-4210Y-10163D01*
X-4458Y-10056D01*
X-4703Y-9944D01*
X-4946Y-9825D01*
X-5185Y-9701D01*
X-5422Y-9571D01*
X-5655Y-9435D01*
X-5885Y-9293D01*
X-6111Y-9146D01*
X-6334Y-8993D01*
X-6553Y-8835D01*
X-6768Y-8672D01*
X-6978Y-8503D01*
X-7185Y-8329D01*
X-7387Y-8150D01*
X-7585Y-7967D01*
X-7778Y-7778D01*
X-7967Y-7585D01*
X-8150Y-7387D01*
X-8329Y-7185D01*
X-8503Y-6978D01*
X-8672Y-6768D01*
X-8835Y-6553D01*
X-8993Y-6334D01*
X-9146Y-6111D01*
X-9293Y-5885D01*
X-9435Y-5655D01*
X-9571Y-5422D01*
X-9701Y-5185D01*
X-9825Y-4946D01*
X-9944Y-4703D01*
X-10056Y-4458D01*
X-10163Y-4210D01*
X-10263Y-3959D01*
X-10357Y-3706D01*
X-10445Y-3450D01*
X-10526Y-3193D01*
X-10602Y-2934D01*
X-10670Y-2673D01*
X-10733Y-2410D01*
X-10789Y-2146D01*
X-10838Y-1881D01*
X-10881Y-1614D01*
X-10917Y-1347D01*
X-10947Y-1078D01*
X-10970Y-809D01*
X-10987Y-540D01*
X-10997Y-270D01*
X-11000Y0D01*
X-161050Y215900D02*
X-161045Y216268D01*
X-161032Y216636D01*
X-161009Y217003D01*
X-160978Y217370D01*
X-160937Y217736D01*
X-160888Y218101D01*
X-160829Y218464D01*
X-160762Y218826D01*
X-160686Y219187D01*
X-160600Y219545D01*
X-160507Y219901D01*
X-160404Y220254D01*
X-160293Y220605D01*
X-160173Y220953D01*
X-160045Y221298D01*
X-159908Y221640D01*
X-159763Y221979D01*
X-159610Y222313D01*
X-159448Y222644D01*
X-159279Y222971D01*
X-159101Y223293D01*
X-158916Y223612D01*
X-158723Y223925D01*
X-158522Y224234D01*
X-158314Y224537D01*
X-158098Y224835D01*
X-157875Y225128D01*
X-157645Y225416D01*
X-157408Y225698D01*
X-157164Y225973D01*
X-156914Y226243D01*
X-156657Y226507D01*
X-156393Y226764D01*
X-156123Y227014D01*
X-155848Y227258D01*
X-155566Y227495D01*
X-155278Y227725D01*
X-154985Y227948D01*
X-154687Y228164D01*
X-154384Y228372D01*
X-154075Y228573D01*
X-153762Y228766D01*
X-153443Y228951D01*
X-153121Y229129D01*
X-152794Y229298D01*
X-152463Y229460D01*
X-152129Y229613D01*
X-151790Y229758D01*
X-151448Y229895D01*
X-151103Y230023D01*
X-150755Y230143D01*
X-150404Y230254D01*
X-150051Y230357D01*
X-149695Y230450D01*
X-149337Y230536D01*
X-148976Y230612D01*
X-148614Y230679D01*
X-148251Y230738D01*
X-147886Y230787D01*
X-147520Y230828D01*
X-147153Y230859D01*
X-146786Y230882D01*
X-146418Y230895D01*
X-146050Y230900D01*
X-145682Y230895D01*
X-145314Y230882D01*
X-144947Y230859D01*
X-144580Y230828D01*
X-144214Y230787D01*
X-143849Y230738D01*
X-143486Y230679D01*
X-143124Y230612D01*
X-142763Y230536D01*
X-142405Y230450D01*
X-142049Y230357D01*
X-141696Y230254D01*
X-141345Y230143D01*
X-140997Y230023D01*
X-140652Y229895D01*
X-140310Y229758D01*
X-139971Y229613D01*
X-139637Y229460D01*
X-139306Y229298D01*
X-138979Y229129D01*
X-138657Y228951D01*
X-138338Y228766D01*
X-138025Y228573D01*
X-137716Y228372D01*
X-137413Y228164D01*
X-137115Y227948D01*
X-136822Y227725D01*
X-136534Y227495D01*
X-136252Y227258D01*
X-135977Y227014D01*
X-135707Y226764D01*
X-135443Y226507D01*
X-135186Y226243D01*
X-134936Y225973D01*
X-134692Y225698D01*
X-134455Y225416D01*
X-134225Y225128D01*
X-134002Y224835D01*
X-133786Y224537D01*
X-133578Y224234D01*
X-133377Y223925D01*
X-133184Y223612D01*
X-132999Y223293D01*
X-132821Y222971D01*
X-132652Y222644D01*
X-132490Y222313D01*
X-132337Y221979D01*
X-132192Y221640D01*
X-132055Y221298D01*
X-131927Y220953D01*
X-131807Y220605D01*
X-131696Y220254D01*
X-131593Y219901D01*
X-131500Y219545D01*
X-131414Y219187D01*
X-131338Y218826D01*
X-131271Y218464D01*
X-131212Y218101D01*
X-131163Y217736D01*
X-131122Y217370D01*
X-131091Y217003D01*
X-131068Y216636D01*
X-131055Y216268D01*
X-131050Y215900D01*
X-131055Y215532D01*
X-131068Y215164D01*
X-131091Y214797D01*
X-131122Y214430D01*
X-131163Y214064D01*
X-131212Y213699D01*
X-131271Y213336D01*
X-131338Y212974D01*
X-131414Y212613D01*
X-131500Y212255D01*
X-131593Y211899D01*
X-131696Y211546D01*
X-131807Y211195D01*
X-131927Y210847D01*
X-132055Y210502D01*
X-132192Y210160D01*
X-132337Y209821D01*
X-132490Y209487D01*
X-132652Y209156D01*
X-132821Y208829D01*
X-132999Y208507D01*
X-133184Y208188D01*
X-133377Y207875D01*
X-133578Y207566D01*
X-133786Y207263D01*
X-134002Y206965D01*
X-134225Y206672D01*
X-134455Y206384D01*
X-134692Y206102D01*
X-134936Y205827D01*
X-135186Y205557D01*
X-135443Y205293D01*
X-135707Y205036D01*
X-135977Y204786D01*
X-136252Y204542D01*
X-136534Y204305D01*
X-136822Y204075D01*
X-137115Y203852D01*
X-137413Y203636D01*
X-137716Y203428D01*
X-138025Y203227D01*
X-138338Y203034D01*
X-138657Y202849D01*
X-138979Y202671D01*
X-139306Y202502D01*
X-139637Y202340D01*
X-139971Y202187D01*
X-140310Y202042D01*
X-140652Y201905D01*
X-140997Y201777D01*
X-141345Y201657D01*
X-141696Y201546D01*
X-142049Y201443D01*
X-142405Y201350D01*
X-142763Y201264D01*
X-143124Y201188D01*
X-143486Y201121D01*
X-143849Y201062D01*
X-144214Y201013D01*
X-144580Y200972D01*
X-144947Y200941D01*
X-145314Y200918D01*
X-145682Y200905D01*
X-146050Y200900D01*
X-146418Y200905D01*
X-146786Y200918D01*
X-147153Y200941D01*
X-147520Y200972D01*
X-147886Y201013D01*
X-148251Y201062D01*
X-148614Y201121D01*
X-148976Y201188D01*
X-149337Y201264D01*
X-149695Y201350D01*
X-150051Y201443D01*
X-150404Y201546D01*
X-150755Y201657D01*
X-151103Y201777D01*
X-151448Y201905D01*
X-151790Y202042D01*
X-152129Y202187D01*
X-152463Y202340D01*
X-152794Y202502D01*
X-153121Y202671D01*
X-153443Y202849D01*
X-153762Y203034D01*
X-154075Y203227D01*
X-154384Y203428D01*
X-154687Y203636D01*
X-154985Y203852D01*
X-155278Y204075D01*
X-155566Y204305D01*
X-155848Y204542D01*
X-156123Y204786D01*
X-156393Y205036D01*
X-156657Y205293D01*
X-156914Y205557D01*
X-157164Y205827D01*
X-157408Y206102D01*
X-157645Y206384D01*
X-157875Y206672D01*
X-158098Y206965D01*
X-158314Y207263D01*
X-158522Y207566D01*
X-158723Y207875D01*
X-158916Y208188D01*
X-159101Y208507D01*
X-159279Y208829D01*
X-159448Y209156D01*
X-159610Y209487D01*
X-159763Y209821D01*
X-159908Y210160D01*
X-160045Y210502D01*
X-160173Y210847D01*
X-160293Y211195D01*
X-160404Y211546D01*
X-160507Y211899D01*
X-160600Y212255D01*
X-160686Y212613D01*
X-160762Y212974D01*
X-160829Y213336D01*
X-160888Y213699D01*
X-160937Y214064D01*
X-160978Y214430D01*
X-161009Y214797D01*
X-161032Y215164D01*
X-161045Y215532D01*
X-161050Y215900D01*
X-135650Y152400D02*
X-135645Y152768D01*
X-135632Y153136D01*
X-135609Y153503D01*
X-135578Y153870D01*
X-135537Y154236D01*
X-135488Y154601D01*
X-135429Y154964D01*
X-135362Y155326D01*
X-135286Y155687D01*
X-135200Y156045D01*
X-135107Y156401D01*
X-135004Y156754D01*
X-134893Y157105D01*
X-134773Y157453D01*
X-134645Y157798D01*
X-134508Y158140D01*
X-134363Y158479D01*
X-134210Y158813D01*
X-134048Y159144D01*
X-133879Y159471D01*
X-133701Y159793D01*
X-133516Y160112D01*
X-133323Y160425D01*
X-133122Y160734D01*
X-132914Y161037D01*
X-132698Y161335D01*
X-132475Y161628D01*
X-132245Y161916D01*
X-132008Y162198D01*
X-131764Y162473D01*
X-131514Y162743D01*
X-131257Y163007D01*
X-130993Y163264D01*
X-130723Y163514D01*
X-130448Y163758D01*
X-130166Y163995D01*
X-129878Y164225D01*
X-129585Y164448D01*
X-129287Y164664D01*
X-128984Y164872D01*
X-128675Y165073D01*
X-128362Y165266D01*
X-128043Y165451D01*
X-127721Y165629D01*
X-127394Y165798D01*
X-127063Y165960D01*
X-126729Y166113D01*
X-126390Y166258D01*
X-126048Y166395D01*
X-125703Y166523D01*
X-125355Y166643D01*
X-125004Y166754D01*
X-124651Y166857D01*
X-124295Y166950D01*
X-123937Y167036D01*
X-123576Y167112D01*
X-123214Y167179D01*
X-122851Y167238D01*
X-122486Y167287D01*
X-122120Y167328D01*
X-121753Y167359D01*
X-121386Y167382D01*
X-121018Y167395D01*
X-120650Y167400D01*
X-120282Y167395D01*
X-119914Y167382D01*
X-119547Y167359D01*
X-119180Y167328D01*
X-118814Y167287D01*
X-118449Y167238D01*
X-118086Y167179D01*
X-117724Y167112D01*
X-117363Y167036D01*
X-117005Y166950D01*
X-116649Y166857D01*
X-116296Y166754D01*
X-115945Y166643D01*
X-115597Y166523D01*
X-115252Y166395D01*
X-114910Y166258D01*
X-114571Y166113D01*
X-114237Y165960D01*
X-113906Y165798D01*
X-113579Y165629D01*
X-113257Y165451D01*
X-112938Y165266D01*
X-112625Y165073D01*
X-112316Y164872D01*
X-112013Y164664D01*
X-111715Y164448D01*
X-111422Y164225D01*
X-111134Y163995D01*
X-110852Y163758D01*
X-110577Y163514D01*
X-110307Y163264D01*
X-110043Y163007D01*
X-109786Y162743D01*
X-109536Y162473D01*
X-109292Y162198D01*
X-109055Y161916D01*
X-108825Y161628D01*
X-108602Y161335D01*
X-108386Y161037D01*
X-108178Y160734D01*
X-107977Y160425D01*
X-107784Y160112D01*
X-107599Y159793D01*
X-107421Y159471D01*
X-107252Y159144D01*
X-107090Y158813D01*
X-106937Y158479D01*
X-106792Y158140D01*
X-106655Y157798D01*
X-106527Y157453D01*
X-106407Y157105D01*
X-106296Y156754D01*
X-106193Y156401D01*
X-106100Y156045D01*
X-106014Y155687D01*
X-105938Y155326D01*
X-105871Y154964D01*
X-105812Y154601D01*
X-105763Y154236D01*
X-105722Y153870D01*
X-105691Y153503D01*
X-105668Y153136D01*
X-105655Y152768D01*
X-105650Y152400D01*
X-105655Y152032D01*
X-105668Y151664D01*
X-105691Y151297D01*
X-105722Y150930D01*
X-105763Y150564D01*
X-105812Y150199D01*
X-105871Y149836D01*
X-105938Y149474D01*
X-106014Y149113D01*
X-106100Y148755D01*
X-106193Y148399D01*
X-106296Y148046D01*
X-106407Y147695D01*
X-106527Y147347D01*
X-106655Y147002D01*
X-106792Y146660D01*
X-106937Y146321D01*
X-107090Y145987D01*
X-107252Y145656D01*
X-107421Y145329D01*
X-107599Y145007D01*
X-107784Y144688D01*
X-107977Y144375D01*
X-108178Y144066D01*
X-108386Y143763D01*
X-108602Y143465D01*
X-108825Y143172D01*
X-109055Y142884D01*
X-109292Y142602D01*
X-109536Y142327D01*
X-109786Y142057D01*
X-110043Y141793D01*
X-110307Y141536D01*
X-110577Y141286D01*
X-110852Y141042D01*
X-111134Y140805D01*
X-111422Y140575D01*
X-111715Y140352D01*
X-112013Y140136D01*
X-112316Y139928D01*
X-112625Y139727D01*
X-112938Y139534D01*
X-113257Y139349D01*
X-113579Y139171D01*
X-113906Y139002D01*
X-114237Y138840D01*
X-114571Y138687D01*
X-114910Y138542D01*
X-115252Y138405D01*
X-115597Y138277D01*
X-115945Y138157D01*
X-116296Y138046D01*
X-116649Y137943D01*
X-117005Y137850D01*
X-117363Y137764D01*
X-117724Y137688D01*
X-118086Y137621D01*
X-118449Y137562D01*
X-118814Y137513D01*
X-119180Y137472D01*
X-119547Y137441D01*
X-119914Y137418D01*
X-120282Y137405D01*
X-120650Y137400D01*
X-121018Y137405D01*
X-121386Y137418D01*
X-121753Y137441D01*
X-122120Y137472D01*
X-122486Y137513D01*
X-122851Y137562D01*
X-123214Y137621D01*
X-123576Y137688D01*
X-123937Y137764D01*
X-124295Y137850D01*
X-124651Y137943D01*
X-125004Y138046D01*
X-125355Y138157D01*
X-125703Y138277D01*
X-126048Y138405D01*
X-126390Y138542D01*
X-126729Y138687D01*
X-127063Y138840D01*
X-127394Y139002D01*
X-127721Y139171D01*
X-128043Y139349D01*
X-128362Y139534D01*
X-128675Y139727D01*
X-128984Y139928D01*
X-129287Y140136D01*
X-129585Y140352D01*
X-129878Y140575D01*
X-130166Y140805D01*
X-130448Y141042D01*
X-130723Y141286D01*
X-130993Y141536D01*
X-131257Y141793D01*
X-131514Y142057D01*
X-131764Y142327D01*
X-132008Y142602D01*
X-132245Y142884D01*
X-132475Y143172D01*
X-132698Y143465D01*
X-132914Y143763D01*
X-133122Y144066D01*
X-133323Y144375D01*
X-133516Y144688D01*
X-133701Y145007D01*
X-133879Y145329D01*
X-134048Y145656D01*
X-134210Y145987D01*
X-134363Y146321D01*
X-134508Y146660D01*
X-134645Y147002D01*
X-134773Y147347D01*
X-134893Y147695D01*
X-135004Y148046D01*
X-135107Y148399D01*
X-135200Y148755D01*
X-135286Y149113D01*
X-135362Y149474D01*
X-135429Y149836D01*
X-135488Y150199D01*
X-135537Y150564D01*
X-135578Y150930D01*
X-135609Y151297D01*
X-135632Y151664D01*
X-135645Y152032D01*
X-135650Y152400D01*
X-115252Y190500D02*
X-115246Y190991D01*
X-115228Y191481D01*
X-115198Y191971D01*
X-115156Y192461D01*
X-115102Y192948D01*
X-115036Y193435D01*
X-114958Y193920D01*
X-114868Y194402D01*
X-114766Y194882D01*
X-114653Y195360D01*
X-114527Y195835D01*
X-114391Y196306D01*
X-114242Y196774D01*
X-114083Y197238D01*
X-113912Y197699D01*
X-113729Y198154D01*
X-113536Y198606D01*
X-113332Y199052D01*
X-113116Y199493D01*
X-112890Y199929D01*
X-112653Y200359D01*
X-112406Y200783D01*
X-112149Y201201D01*
X-111881Y201613D01*
X-111603Y202017D01*
X-111316Y202415D01*
X-111019Y202806D01*
X-110712Y203189D01*
X-110396Y203565D01*
X-110071Y203933D01*
X-109736Y204292D01*
X-109394Y204644D01*
X-109042Y204986D01*
X-108683Y205321D01*
X-108315Y205646D01*
X-107939Y205962D01*
X-107556Y206269D01*
X-107165Y206566D01*
X-106767Y206853D01*
X-106363Y207131D01*
X-105951Y207399D01*
X-105533Y207656D01*
X-105109Y207903D01*
X-104679Y208140D01*
X-104243Y208366D01*
X-103802Y208582D01*
X-103356Y208786D01*
X-102904Y208979D01*
X-102449Y209162D01*
X-101988Y209333D01*
X-101524Y209492D01*
X-101056Y209641D01*
X-100585Y209777D01*
X-100110Y209903D01*
X-99632Y210016D01*
X-99152Y210118D01*
X-98670Y210208D01*
X-98185Y210286D01*
X-97698Y210352D01*
X-97211Y210406D01*
X-96721Y210448D01*
X-96231Y210478D01*
X-95741Y210496D01*
X-95250Y210502D01*
X-94759Y210496D01*
X-94269Y210478D01*
X-93779Y210448D01*
X-93289Y210406D01*
X-92802Y210352D01*
X-92315Y210286D01*
X-91830Y210208D01*
X-91348Y210118D01*
X-90868Y210016D01*
X-90390Y209903D01*
X-89915Y209777D01*
X-89444Y209641D01*
X-88976Y209492D01*
X-88512Y209333D01*
X-88051Y209162D01*
X-87596Y208979D01*
X-87144Y208786D01*
X-86698Y208582D01*
X-86257Y208366D01*
X-85821Y208140D01*
X-85391Y207903D01*
X-84967Y207656D01*
X-84549Y207399D01*
X-84137Y207131D01*
X-83733Y206853D01*
X-83335Y206566D01*
X-82944Y206269D01*
X-82561Y205962D01*
X-82185Y205646D01*
X-81817Y205321D01*
X-81458Y204986D01*
X-81106Y204644D01*
X-80764Y204292D01*
X-80429Y203933D01*
X-80104Y203565D01*
X-79788Y203189D01*
X-79481Y202806D01*
X-79184Y202415D01*
X-78897Y202017D01*
X-78619Y201613D01*
X-78351Y201201D01*
X-78094Y200783D01*
X-77847Y200359D01*
X-77610Y199929D01*
X-77384Y199493D01*
X-77168Y199052D01*
X-76964Y198606D01*
X-76771Y198154D01*
X-76588Y197699D01*
X-76417Y197238D01*
X-76258Y196774D01*
X-76109Y196306D01*
X-75973Y195835D01*
X-75847Y195360D01*
X-75734Y194882D01*
X-75632Y194402D01*
X-75542Y193920D01*
X-75464Y193435D01*
X-75398Y192948D01*
X-75344Y192461D01*
X-75302Y191971D01*
X-75272Y191481D01*
X-75254Y190991D01*
X-75248Y190500D01*
X-75254Y190009D01*
X-75272Y189519D01*
X-75302Y189029D01*
X-75344Y188539D01*
X-75398Y188052D01*
X-75464Y187565D01*
X-75542Y187080D01*
X-75632Y186598D01*
X-75734Y186118D01*
X-75847Y185640D01*
X-75973Y185165D01*
X-76109Y184694D01*
X-76258Y184226D01*
X-76417Y183762D01*
X-76588Y183301D01*
X-76771Y182846D01*
X-76964Y182394D01*
X-77168Y181948D01*
X-77384Y181507D01*
X-77610Y181071D01*
X-77847Y180641D01*
X-78094Y180217D01*
X-78351Y179799D01*
X-78619Y179387D01*
X-78897Y178983D01*
X-79184Y178585D01*
X-79481Y178194D01*
X-79788Y177811D01*
X-80104Y177435D01*
X-80429Y177067D01*
X-80764Y176708D01*
X-81106Y176356D01*
X-81458Y176014D01*
X-81817Y175679D01*
X-82185Y175354D01*
X-82561Y175038D01*
X-82944Y174731D01*
X-83335Y174434D01*
X-83733Y174147D01*
X-84137Y173869D01*
X-84549Y173601D01*
X-84967Y173344D01*
X-85391Y173097D01*
X-85821Y172860D01*
X-86257Y172634D01*
X-86698Y172418D01*
X-87144Y172214D01*
X-87596Y172021D01*
X-88051Y171838D01*
X-88512Y171667D01*
X-88976Y171508D01*
X-89444Y171359D01*
X-89915Y171223D01*
X-90390Y171097D01*
X-90868Y170984D01*
X-91348Y170882D01*
X-91830Y170792D01*
X-92315Y170714D01*
X-92802Y170648D01*
X-93289Y170594D01*
X-93779Y170552D01*
X-94269Y170522D01*
X-94759Y170504D01*
X-95250Y170498D01*
X-95741Y170504D01*
X-96231Y170522D01*
X-96721Y170552D01*
X-97211Y170594D01*
X-97698Y170648D01*
X-98185Y170714D01*
X-98670Y170792D01*
X-99152Y170882D01*
X-99632Y170984D01*
X-100110Y171097D01*
X-100585Y171223D01*
X-101056Y171359D01*
X-101524Y171508D01*
X-101988Y171667D01*
X-102449Y171838D01*
X-102904Y172021D01*
X-103356Y172214D01*
X-103802Y172418D01*
X-104243Y172634D01*
X-104679Y172860D01*
X-105109Y173097D01*
X-105533Y173344D01*
X-105951Y173601D01*
X-106363Y173869D01*
X-106767Y174147D01*
X-107165Y174434D01*
X-107556Y174731D01*
X-107939Y175038D01*
X-108315Y175354D01*
X-108683Y175679D01*
X-109042Y176014D01*
X-109394Y176356D01*
X-109736Y176708D01*
X-110071Y177067D01*
X-110396Y177435D01*
X-110712Y177811D01*
X-111019Y178194D01*
X-111316Y178585D01*
X-111603Y178983D01*
X-111881Y179387D01*
X-112149Y179799D01*
X-112406Y180217D01*
X-112653Y180641D01*
X-112890Y181071D01*
X-113116Y181507D01*
X-113332Y181948D01*
X-113536Y182394D01*
X-113729Y182846D01*
X-113912Y183301D01*
X-114083Y183762D01*
X-114242Y184226D01*
X-114391Y184694D01*
X-114527Y185165D01*
X-114653Y185640D01*
X-114766Y186118D01*
X-114868Y186598D01*
X-114958Y187080D01*
X-115036Y187565D01*
X-115102Y188052D01*
X-115156Y188539D01*
X-115198Y189029D01*
X-115228Y189519D01*
X-115246Y190009D01*
X-115252Y190500D01*
X-103750Y241300D02*
X-103747Y241509D01*
X-103740Y241717D01*
X-103727Y241925D01*
X-103709Y242133D01*
X-103686Y242340D01*
X-103658Y242547D01*
X-103625Y242753D01*
X-103587Y242958D01*
X-103543Y243162D01*
X-103495Y243365D01*
X-103442Y243567D01*
X-103384Y243767D01*
X-103321Y243966D01*
X-103253Y244164D01*
X-103180Y244359D01*
X-103103Y244553D01*
X-103021Y244745D01*
X-102934Y244934D01*
X-102842Y245122D01*
X-102746Y245307D01*
X-102646Y245490D01*
X-102541Y245670D01*
X-102431Y245847D01*
X-102317Y246022D01*
X-102199Y246194D01*
X-102077Y246363D01*
X-101951Y246529D01*
X-101821Y246692D01*
X-101686Y246852D01*
X-101548Y247008D01*
X-101406Y247161D01*
X-101260Y247310D01*
X-101111Y247456D01*
X-100958Y247598D01*
X-100802Y247736D01*
X-100642Y247871D01*
X-100479Y248001D01*
X-100313Y248127D01*
X-100144Y248249D01*
X-99972Y248367D01*
X-99797Y248481D01*
X-99620Y248591D01*
X-99440Y248696D01*
X-99257Y248796D01*
X-99072Y248892D01*
X-98884Y248984D01*
X-98695Y249071D01*
X-98503Y249153D01*
X-98309Y249230D01*
X-98114Y249303D01*
X-97916Y249371D01*
X-97717Y249434D01*
X-97517Y249492D01*
X-97315Y249545D01*
X-97112Y249593D01*
X-96908Y249637D01*
X-96703Y249675D01*
X-96497Y249708D01*
X-96290Y249736D01*
X-96083Y249759D01*
X-95875Y249777D01*
X-95667Y249790D01*
X-95459Y249797D01*
X-95250Y249800D01*
X-95041Y249797D01*
X-94833Y249790D01*
X-94625Y249777D01*
X-94417Y249759D01*
X-94210Y249736D01*
X-94003Y249708D01*
X-93797Y249675D01*
X-93592Y249637D01*
X-93388Y249593D01*
X-93185Y249545D01*
X-92983Y249492D01*
X-92783Y249434D01*
X-92584Y249371D01*
X-92386Y249303D01*
X-92191Y249230D01*
X-91997Y249153D01*
X-91805Y249071D01*
X-91616Y248984D01*
X-91428Y248892D01*
X-91243Y248796D01*
X-91060Y248696D01*
X-90880Y248591D01*
X-90703Y248481D01*
X-90528Y248367D01*
X-90356Y248249D01*
X-90187Y248127D01*
X-90021Y248001D01*
X-89858Y247871D01*
X-89698Y247736D01*
X-89542Y247598D01*
X-89389Y247456D01*
X-89240Y247310D01*
X-89094Y247161D01*
X-88952Y247008D01*
X-88814Y246852D01*
X-88679Y246692D01*
X-88549Y246529D01*
X-88423Y246363D01*
X-88301Y246194D01*
X-88183Y246022D01*
X-88069Y245847D01*
X-87959Y245670D01*
X-87854Y245490D01*
X-87754Y245307D01*
X-87658Y245122D01*
X-87566Y244934D01*
X-87479Y244745D01*
X-87397Y244553D01*
X-87320Y244359D01*
X-87247Y244164D01*
X-87179Y243966D01*
X-87116Y243767D01*
X-87058Y243567D01*
X-87005Y243365D01*
X-86957Y243162D01*
X-86913Y242958D01*
X-86875Y242753D01*
X-86842Y242547D01*
X-86814Y242340D01*
X-86791Y242133D01*
X-86773Y241925D01*
X-86760Y241717D01*
X-86753Y241509D01*
X-86750Y241300D01*
X-86753Y241091D01*
X-86760Y240883D01*
X-86773Y240675D01*
X-86791Y240467D01*
X-86814Y240260D01*
X-86842Y240053D01*
X-86875Y239847D01*
X-86913Y239642D01*
X-86957Y239438D01*
X-87005Y239235D01*
X-87058Y239033D01*
X-87116Y238833D01*
X-87179Y238634D01*
X-87247Y238436D01*
X-87320Y238241D01*
X-87397Y238047D01*
X-87479Y237855D01*
X-87566Y237666D01*
X-87658Y237478D01*
X-87754Y237293D01*
X-87854Y237110D01*
X-87959Y236930D01*
X-88069Y236753D01*
X-88183Y236578D01*
X-88301Y236406D01*
X-88423Y236237D01*
X-88549Y236071D01*
X-88679Y235908D01*
X-88814Y235748D01*
X-88952Y235592D01*
X-89094Y235439D01*
X-89240Y235290D01*
X-89389Y235144D01*
X-89542Y235002D01*
X-89698Y234864D01*
X-89858Y234729D01*
X-90021Y234599D01*
X-90187Y234473D01*
X-90356Y234351D01*
X-90528Y234233D01*
X-90703Y234119D01*
X-90880Y234009D01*
X-91060Y233904D01*
X-91243Y233804D01*
X-91428Y233708D01*
X-91616Y233616D01*
X-91805Y233529D01*
X-91997Y233447D01*
X-92191Y233370D01*
X-92386Y233297D01*
X-92584Y233229D01*
X-92783Y233166D01*
X-92983Y233108D01*
X-93185Y233055D01*
X-93388Y233007D01*
X-93592Y232963D01*
X-93797Y232925D01*
X-94003Y232892D01*
X-94210Y232864D01*
X-94417Y232841D01*
X-94625Y232823D01*
X-94833Y232810D01*
X-95041Y232803D01*
X-95250Y232800D01*
X-95459Y232803D01*
X-95667Y232810D01*
X-95875Y232823D01*
X-96083Y232841D01*
X-96290Y232864D01*
X-96497Y232892D01*
X-96703Y232925D01*
X-96908Y232963D01*
X-97112Y233007D01*
X-97315Y233055D01*
X-97517Y233108D01*
X-97717Y233166D01*
X-97916Y233229D01*
X-98114Y233297D01*
X-98309Y233370D01*
X-98503Y233447D01*
X-98695Y233529D01*
X-98884Y233616D01*
X-99072Y233708D01*
X-99257Y233804D01*
X-99440Y233904D01*
X-99620Y234009D01*
X-99797Y234119D01*
X-99972Y234233D01*
X-100144Y234351D01*
X-100313Y234473D01*
X-100479Y234599D01*
X-100642Y234729D01*
X-100802Y234864D01*
X-100958Y235002D01*
X-101111Y235144D01*
X-101260Y235290D01*
X-101406Y235439D01*
X-101548Y235592D01*
X-101686Y235748D01*
X-101821Y235908D01*
X-101951Y236071D01*
X-102077Y236237D01*
X-102199Y236406D01*
X-102317Y236578D01*
X-102431Y236753D01*
X-102541Y236930D01*
X-102646Y237110D01*
X-102746Y237293D01*
X-102842Y237478D01*
X-102934Y237666D01*
X-103021Y237855D01*
X-103103Y238047D01*
X-103180Y238241D01*
X-103253Y238436D01*
X-103321Y238634D01*
X-103384Y238833D01*
X-103442Y239033D01*
X-103495Y239235D01*
X-103543Y239438D01*
X-103587Y239642D01*
X-103625Y239847D01*
X-103658Y240053D01*
X-103686Y240260D01*
X-103709Y240467D01*
X-103727Y240675D01*
X-103740Y240883D01*
X-103747Y241091D01*
X-103750Y241300D01*
X-103750Y139700D02*
X-103747Y139909D01*
X-103740Y140117D01*
X-103727Y140325D01*
X-103709Y140533D01*
X-103686Y140740D01*
X-103658Y140947D01*
X-103625Y141153D01*
X-103587Y141358D01*
X-103543Y141562D01*
X-103495Y141765D01*
X-103442Y141967D01*
X-103384Y142167D01*
X-103321Y142366D01*
X-103253Y142564D01*
X-103180Y142759D01*
X-103103Y142953D01*
X-103021Y143145D01*
X-102934Y143334D01*
X-102842Y143522D01*
X-102746Y143707D01*
X-102646Y143890D01*
X-102541Y144070D01*
X-102431Y144247D01*
X-102317Y144422D01*
X-102199Y144594D01*
X-102077Y144763D01*
X-101951Y144929D01*
X-101821Y145092D01*
X-101686Y145252D01*
X-101548Y145408D01*
X-101406Y145561D01*
X-101260Y145710D01*
X-101111Y145856D01*
X-100958Y145998D01*
X-100802Y146136D01*
X-100642Y146271D01*
X-100479Y146401D01*
X-100313Y146527D01*
X-100144Y146649D01*
X-99972Y146767D01*
X-99797Y146881D01*
X-99620Y146991D01*
X-99440Y147096D01*
X-99257Y147196D01*
X-99072Y147292D01*
X-98884Y147384D01*
X-98695Y147471D01*
X-98503Y147553D01*
X-98309Y147630D01*
X-98114Y147703D01*
X-97916Y147771D01*
X-97717Y147834D01*
X-97517Y147892D01*
X-97315Y147945D01*
X-97112Y147993D01*
X-96908Y148037D01*
X-96703Y148075D01*
X-96497Y148108D01*
X-96290Y148136D01*
X-96083Y148159D01*
X-95875Y148177D01*
X-95667Y148190D01*
X-95459Y148197D01*
X-95250Y148200D01*
X-95041Y148197D01*
X-94833Y148190D01*
X-94625Y148177D01*
X-94417Y148159D01*
X-94210Y148136D01*
X-94003Y148108D01*
X-93797Y148075D01*
X-93592Y148037D01*
X-93388Y147993D01*
X-93185Y147945D01*
X-92983Y147892D01*
X-92783Y147834D01*
X-92584Y147771D01*
X-92386Y147703D01*
X-92191Y147630D01*
X-91997Y147553D01*
X-91805Y147471D01*
X-91616Y147384D01*
X-91428Y147292D01*
X-91243Y147196D01*
X-91060Y147096D01*
X-90880Y146991D01*
X-90703Y146881D01*
X-90528Y146767D01*
X-90356Y146649D01*
X-90187Y146527D01*
X-90021Y146401D01*
X-89858Y146271D01*
X-89698Y146136D01*
X-89542Y145998D01*
X-89389Y145856D01*
X-89240Y145710D01*
X-89094Y145561D01*
X-88952Y145408D01*
X-88814Y145252D01*
X-88679Y145092D01*
X-88549Y144929D01*
X-88423Y144763D01*
X-88301Y144594D01*
X-88183Y144422D01*
X-88069Y144247D01*
X-87959Y144070D01*
X-87854Y143890D01*
X-87754Y143707D01*
X-87658Y143522D01*
X-87566Y143334D01*
X-87479Y143145D01*
X-87397Y142953D01*
X-87320Y142759D01*
X-87247Y142564D01*
X-87179Y142366D01*
X-87116Y142167D01*
X-87058Y141967D01*
X-87005Y141765D01*
X-86957Y141562D01*
X-86913Y141358D01*
X-86875Y141153D01*
X-86842Y140947D01*
X-86814Y140740D01*
X-86791Y140533D01*
X-86773Y140325D01*
X-86760Y140117D01*
X-86753Y139909D01*
X-86750Y139700D01*
X-86753Y139491D01*
X-86760Y139283D01*
X-86773Y139075D01*
X-86791Y138867D01*
X-86814Y138660D01*
X-86842Y138453D01*
X-86875Y138247D01*
X-86913Y138042D01*
X-86957Y137838D01*
X-87005Y137635D01*
X-87058Y137433D01*
X-87116Y137233D01*
X-87179Y137034D01*
X-87247Y136836D01*
X-87320Y136641D01*
X-87397Y136447D01*
X-87479Y136255D01*
X-87566Y136066D01*
X-87658Y135878D01*
X-87754Y135693D01*
X-87854Y135510D01*
X-87959Y135330D01*
X-88069Y135153D01*
X-88183Y134978D01*
X-88301Y134806D01*
X-88423Y134637D01*
X-88549Y134471D01*
X-88679Y134308D01*
X-88814Y134148D01*
X-88952Y133992D01*
X-89094Y133839D01*
X-89240Y133690D01*
X-89389Y133544D01*
X-89542Y133402D01*
X-89698Y133264D01*
X-89858Y133129D01*
X-90021Y132999D01*
X-90187Y132873D01*
X-90356Y132751D01*
X-90528Y132633D01*
X-90703Y132519D01*
X-90880Y132409D01*
X-91060Y132304D01*
X-91243Y132204D01*
X-91428Y132108D01*
X-91616Y132016D01*
X-91805Y131929D01*
X-91997Y131847D01*
X-92191Y131770D01*
X-92386Y131697D01*
X-92584Y131629D01*
X-92783Y131566D01*
X-92983Y131508D01*
X-93185Y131455D01*
X-93388Y131407D01*
X-93592Y131363D01*
X-93797Y131325D01*
X-94003Y131292D01*
X-94210Y131264D01*
X-94417Y131241D01*
X-94625Y131223D01*
X-94833Y131210D01*
X-95041Y131203D01*
X-95250Y131200D01*
X-95459Y131203D01*
X-95667Y131210D01*
X-95875Y131223D01*
X-96083Y131241D01*
X-96290Y131264D01*
X-96497Y131292D01*
X-96703Y131325D01*
X-96908Y131363D01*
X-97112Y131407D01*
X-97315Y131455D01*
X-97517Y131508D01*
X-97717Y131566D01*
X-97916Y131629D01*
X-98114Y131697D01*
X-98309Y131770D01*
X-98503Y131847D01*
X-98695Y131929D01*
X-98884Y132016D01*
X-99072Y132108D01*
X-99257Y132204D01*
X-99440Y132304D01*
X-99620Y132409D01*
X-99797Y132519D01*
X-99972Y132633D01*
X-100144Y132751D01*
X-100313Y132873D01*
X-100479Y132999D01*
X-100642Y133129D01*
X-100802Y133264D01*
X-100958Y133402D01*
X-101111Y133544D01*
X-101260Y133690D01*
X-101406Y133839D01*
X-101548Y133992D01*
X-101686Y134148D01*
X-101821Y134308D01*
X-101951Y134471D01*
X-102077Y134637D01*
X-102199Y134806D01*
X-102317Y134978D01*
X-102431Y135153D01*
X-102541Y135330D01*
X-102646Y135510D01*
X-102746Y135693D01*
X-102842Y135878D01*
X-102934Y136066D01*
X-103021Y136255D01*
X-103103Y136447D01*
X-103180Y136641D01*
X-103253Y136836D01*
X-103321Y137034D01*
X-103384Y137233D01*
X-103442Y137433D01*
X-103495Y137635D01*
X-103543Y137838D01*
X-103587Y138042D01*
X-103625Y138247D01*
X-103658Y138453D01*
X-103686Y138660D01*
X-103709Y138867D01*
X-103727Y139075D01*
X-103740Y139283D01*
X-103747Y139491D01*
X-103750Y139700D01*
X-161050Y25400D02*
X-161045Y25768D01*
X-161032Y26136D01*
X-161009Y26503D01*
X-160978Y26870D01*
X-160937Y27236D01*
X-160888Y27601D01*
X-160829Y27964D01*
X-160762Y28326D01*
X-160686Y28687D01*
X-160600Y29045D01*
X-160507Y29401D01*
X-160404Y29754D01*
X-160293Y30105D01*
X-160173Y30453D01*
X-160045Y30798D01*
X-159908Y31140D01*
X-159763Y31479D01*
X-159610Y31813D01*
X-159448Y32144D01*
X-159279Y32471D01*
X-159101Y32793D01*
X-158916Y33112D01*
X-158723Y33425D01*
X-158522Y33734D01*
X-158314Y34037D01*
X-158098Y34335D01*
X-157875Y34628D01*
X-157645Y34916D01*
X-157408Y35198D01*
X-157164Y35473D01*
X-156914Y35743D01*
X-156657Y36007D01*
X-156393Y36264D01*
X-156123Y36514D01*
X-155848Y36758D01*
X-155566Y36995D01*
X-155278Y37225D01*
X-154985Y37448D01*
X-154687Y37664D01*
X-154384Y37872D01*
X-154075Y38073D01*
X-153762Y38266D01*
X-153443Y38451D01*
X-153121Y38629D01*
X-152794Y38798D01*
X-152463Y38960D01*
X-152129Y39113D01*
X-151790Y39258D01*
X-151448Y39395D01*
X-151103Y39523D01*
X-150755Y39643D01*
X-150404Y39754D01*
X-150051Y39857D01*
X-149695Y39950D01*
X-149337Y40036D01*
X-148976Y40112D01*
X-148614Y40179D01*
X-148251Y40238D01*
X-147886Y40287D01*
X-147520Y40328D01*
X-147153Y40359D01*
X-146786Y40382D01*
X-146418Y40395D01*
X-146050Y40400D01*
X-145682Y40395D01*
X-145314Y40382D01*
X-144947Y40359D01*
X-144580Y40328D01*
X-144214Y40287D01*
X-143849Y40238D01*
X-143486Y40179D01*
X-143124Y40112D01*
X-142763Y40036D01*
X-142405Y39950D01*
X-142049Y39857D01*
X-141696Y39754D01*
X-141345Y39643D01*
X-140997Y39523D01*
X-140652Y39395D01*
X-140310Y39258D01*
X-139971Y39113D01*
X-139637Y38960D01*
X-139306Y38798D01*
X-138979Y38629D01*
X-138657Y38451D01*
X-138338Y38266D01*
X-138025Y38073D01*
X-137716Y37872D01*
X-137413Y37664D01*
X-137115Y37448D01*
X-136822Y37225D01*
X-136534Y36995D01*
X-136252Y36758D01*
X-135977Y36514D01*
X-135707Y36264D01*
X-135443Y36007D01*
X-135186Y35743D01*
X-134936Y35473D01*
X-134692Y35198D01*
X-134455Y34916D01*
X-134225Y34628D01*
X-134002Y34335D01*
X-133786Y34037D01*
X-133578Y33734D01*
X-133377Y33425D01*
X-133184Y33112D01*
X-132999Y32793D01*
X-132821Y32471D01*
X-132652Y32144D01*
X-132490Y31813D01*
X-132337Y31479D01*
X-132192Y31140D01*
X-132055Y30798D01*
X-131927Y30453D01*
X-131807Y30105D01*
X-131696Y29754D01*
X-131593Y29401D01*
X-131500Y29045D01*
X-131414Y28687D01*
X-131338Y28326D01*
X-131271Y27964D01*
X-131212Y27601D01*
X-131163Y27236D01*
X-131122Y26870D01*
X-131091Y26503D01*
X-131068Y26136D01*
X-131055Y25768D01*
X-131050Y25400D01*
X-131055Y25032D01*
X-131068Y24664D01*
X-131091Y24297D01*
X-131122Y23930D01*
X-131163Y23564D01*
X-131212Y23199D01*
X-131271Y22836D01*
X-131338Y22474D01*
X-131414Y22113D01*
X-131500Y21755D01*
X-131593Y21399D01*
X-131696Y21046D01*
X-131807Y20695D01*
X-131927Y20347D01*
X-132055Y20002D01*
X-132192Y19660D01*
X-132337Y19321D01*
X-132490Y18987D01*
X-132652Y18656D01*
X-132821Y18329D01*
X-132999Y18007D01*
X-133184Y17688D01*
X-133377Y17375D01*
X-133578Y17066D01*
X-133786Y16763D01*
X-134002Y16465D01*
X-134225Y16172D01*
X-134455Y15884D01*
X-134692Y15602D01*
X-134936Y15327D01*
X-135186Y15057D01*
X-135443Y14793D01*
X-135707Y14536D01*
X-135977Y14286D01*
X-136252Y14042D01*
X-136534Y13805D01*
X-136822Y13575D01*
X-137115Y13352D01*
X-137413Y13136D01*
X-137716Y12928D01*
X-138025Y12727D01*
X-138338Y12534D01*
X-138657Y12349D01*
X-138979Y12171D01*
X-139306Y12002D01*
X-139637Y11840D01*
X-139971Y11687D01*
X-140310Y11542D01*
X-140652Y11405D01*
X-140997Y11277D01*
X-141345Y11157D01*
X-141696Y11046D01*
X-142049Y10943D01*
X-142405Y10850D01*
X-142763Y10764D01*
X-143124Y10688D01*
X-143486Y10621D01*
X-143849Y10562D01*
X-144214Y10513D01*
X-144580Y10472D01*
X-144947Y10441D01*
X-145314Y10418D01*
X-145682Y10405D01*
X-146050Y10400D01*
X-146418Y10405D01*
X-146786Y10418D01*
X-147153Y10441D01*
X-147520Y10472D01*
X-147886Y10513D01*
X-148251Y10562D01*
X-148614Y10621D01*
X-148976Y10688D01*
X-149337Y10764D01*
X-149695Y10850D01*
X-150051Y10943D01*
X-150404Y11046D01*
X-150755Y11157D01*
X-151103Y11277D01*
X-151448Y11405D01*
X-151790Y11542D01*
X-152129Y11687D01*
X-152463Y11840D01*
X-152794Y12002D01*
X-153121Y12171D01*
X-153443Y12349D01*
X-153762Y12534D01*
X-154075Y12727D01*
X-154384Y12928D01*
X-154687Y13136D01*
X-154985Y13352D01*
X-155278Y13575D01*
X-155566Y13805D01*
X-155848Y14042D01*
X-156123Y14286D01*
X-156393Y14536D01*
X-156657Y14793D01*
X-156914Y15057D01*
X-157164Y15327D01*
X-157408Y15602D01*
X-157645Y15884D01*
X-157875Y16172D01*
X-158098Y16465D01*
X-158314Y16763D01*
X-158522Y17066D01*
X-158723Y17375D01*
X-158916Y17688D01*
X-159101Y18007D01*
X-159279Y18329D01*
X-159448Y18656D01*
X-159610Y18987D01*
X-159763Y19321D01*
X-159908Y19660D01*
X-160045Y20002D01*
X-160173Y20347D01*
X-160293Y20695D01*
X-160404Y21046D01*
X-160507Y21399D01*
X-160600Y21755D01*
X-160686Y22113D01*
X-160762Y22474D01*
X-160829Y22836D01*
X-160888Y23199D01*
X-160937Y23564D01*
X-160978Y23930D01*
X-161009Y24297D01*
X-161032Y24664D01*
X-161045Y25032D01*
X-161050Y25400D01*
X-135650Y-38100D02*
X-135645Y-37732D01*
X-135632Y-37364D01*
X-135609Y-36997D01*
X-135578Y-36630D01*
X-135537Y-36264D01*
X-135488Y-35899D01*
X-135429Y-35536D01*
X-135362Y-35174D01*
X-135286Y-34813D01*
X-135200Y-34455D01*
X-135107Y-34099D01*
X-135004Y-33746D01*
X-134893Y-33395D01*
X-134773Y-33047D01*
X-134645Y-32702D01*
X-134508Y-32360D01*
X-134363Y-32021D01*
X-134210Y-31687D01*
X-134048Y-31356D01*
X-133879Y-31029D01*
X-133701Y-30707D01*
X-133516Y-30388D01*
X-133323Y-30075D01*
X-133122Y-29766D01*
X-132914Y-29463D01*
X-132698Y-29165D01*
X-132475Y-28872D01*
X-132245Y-28584D01*
X-132008Y-28302D01*
X-131764Y-28027D01*
X-131514Y-27757D01*
X-131257Y-27493D01*
X-130993Y-27236D01*
X-130723Y-26986D01*
X-130448Y-26742D01*
X-130166Y-26505D01*
X-129878Y-26275D01*
X-129585Y-26052D01*
X-129287Y-25836D01*
X-128984Y-25628D01*
X-128675Y-25427D01*
X-128362Y-25234D01*
X-128043Y-25049D01*
X-127721Y-24871D01*
X-127394Y-24702D01*
X-127063Y-24540D01*
X-126729Y-24387D01*
X-126390Y-24242D01*
X-126048Y-24105D01*
X-125703Y-23977D01*
X-125355Y-23857D01*
X-125004Y-23746D01*
X-124651Y-23643D01*
X-124295Y-23550D01*
X-123937Y-23464D01*
X-123576Y-23388D01*
X-123214Y-23321D01*
X-122851Y-23262D01*
X-122486Y-23213D01*
X-122120Y-23172D01*
X-121753Y-23141D01*
X-121386Y-23118D01*
X-121018Y-23105D01*
X-120650Y-23100D01*
X-120282Y-23105D01*
X-119914Y-23118D01*
X-119547Y-23141D01*
X-119180Y-23172D01*
X-118814Y-23213D01*
X-118449Y-23262D01*
X-118086Y-23321D01*
X-117724Y-23388D01*
X-117363Y-23464D01*
X-117005Y-23550D01*
X-116649Y-23643D01*
X-116296Y-23746D01*
X-115945Y-23857D01*
X-115597Y-23977D01*
X-115252Y-24105D01*
X-114910Y-24242D01*
X-114571Y-24387D01*
X-114237Y-24540D01*
X-113906Y-24702D01*
X-113579Y-24871D01*
X-113257Y-25049D01*
X-112938Y-25234D01*
X-112625Y-25427D01*
X-112316Y-25628D01*
X-112013Y-25836D01*
X-111715Y-26052D01*
X-111422Y-26275D01*
X-111134Y-26505D01*
X-110852Y-26742D01*
X-110577Y-26986D01*
X-110307Y-27236D01*
X-110043Y-27493D01*
X-109786Y-27757D01*
X-109536Y-28027D01*
X-109292Y-28302D01*
X-109055Y-28584D01*
X-108825Y-28872D01*
X-108602Y-29165D01*
X-108386Y-29463D01*
X-108178Y-29766D01*
X-107977Y-30075D01*
X-107784Y-30388D01*
X-107599Y-30707D01*
X-107421Y-31029D01*
X-107252Y-31356D01*
X-107090Y-31687D01*
X-106937Y-32021D01*
X-106792Y-32360D01*
X-106655Y-32702D01*
X-106527Y-33047D01*
X-106407Y-33395D01*
X-106296Y-33746D01*
X-106193Y-34099D01*
X-106100Y-34455D01*
X-106014Y-34813D01*
X-105938Y-35174D01*
X-105871Y-35536D01*
X-105812Y-35899D01*
X-105763Y-36264D01*
X-105722Y-36630D01*
X-105691Y-36997D01*
X-105668Y-37364D01*
X-105655Y-37732D01*
X-105650Y-38100D01*
X-105655Y-38468D01*
X-105668Y-38836D01*
X-105691Y-39203D01*
X-105722Y-39570D01*
X-105763Y-39936D01*
X-105812Y-40301D01*
X-105871Y-40664D01*
X-105938Y-41026D01*
X-106014Y-41387D01*
X-106100Y-41745D01*
X-106193Y-42101D01*
X-106296Y-42454D01*
X-106407Y-42805D01*
X-106527Y-43153D01*
X-106655Y-43498D01*
X-106792Y-43840D01*
X-106937Y-44179D01*
X-107090Y-44513D01*
X-107252Y-44844D01*
X-107421Y-45171D01*
X-107599Y-45493D01*
X-107784Y-45812D01*
X-107977Y-46125D01*
X-108178Y-46434D01*
X-108386Y-46737D01*
X-108602Y-47035D01*
X-108825Y-47328D01*
X-109055Y-47616D01*
X-109292Y-47898D01*
X-109536Y-48173D01*
X-109786Y-48443D01*
X-110043Y-48707D01*
X-110307Y-48964D01*
X-110577Y-49214D01*
X-110852Y-49458D01*
X-111134Y-49695D01*
X-111422Y-49925D01*
X-111715Y-50148D01*
X-112013Y-50364D01*
X-112316Y-50572D01*
X-112625Y-50773D01*
X-112938Y-50966D01*
X-113257Y-51151D01*
X-113579Y-51329D01*
X-113906Y-51498D01*
X-114237Y-51660D01*
X-114571Y-51813D01*
X-114910Y-51958D01*
X-115252Y-52095D01*
X-115597Y-52223D01*
X-115945Y-52343D01*
X-116296Y-52454D01*
X-116649Y-52557D01*
X-117005Y-52650D01*
X-117363Y-52736D01*
X-117724Y-52812D01*
X-118086Y-52879D01*
X-118449Y-52938D01*
X-118814Y-52987D01*
X-119180Y-53028D01*
X-119547Y-53059D01*
X-119914Y-53082D01*
X-120282Y-53095D01*
X-120650Y-53100D01*
X-121018Y-53095D01*
X-121386Y-53082D01*
X-121753Y-53059D01*
X-122120Y-53028D01*
X-122486Y-52987D01*
X-122851Y-52938D01*
X-123214Y-52879D01*
X-123576Y-52812D01*
X-123937Y-52736D01*
X-124295Y-52650D01*
X-124651Y-52557D01*
X-125004Y-52454D01*
X-125355Y-52343D01*
X-125703Y-52223D01*
X-126048Y-52095D01*
X-126390Y-51958D01*
X-126729Y-51813D01*
X-127063Y-51660D01*
X-127394Y-51498D01*
X-127721Y-51329D01*
X-128043Y-51151D01*
X-128362Y-50966D01*
X-128675Y-50773D01*
X-128984Y-50572D01*
X-129287Y-50364D01*
X-129585Y-50148D01*
X-129878Y-49925D01*
X-130166Y-49695D01*
X-130448Y-49458D01*
X-130723Y-49214D01*
X-130993Y-48964D01*
X-131257Y-48707D01*
X-131514Y-48443D01*
X-131764Y-48173D01*
X-132008Y-47898D01*
X-132245Y-47616D01*
X-132475Y-47328D01*
X-132698Y-47035D01*
X-132914Y-46737D01*
X-133122Y-46434D01*
X-133323Y-46125D01*
X-133516Y-45812D01*
X-133701Y-45493D01*
X-133879Y-45171D01*
X-134048Y-44844D01*
X-134210Y-44513D01*
X-134363Y-44179D01*
X-134508Y-43840D01*
X-134645Y-43498D01*
X-134773Y-43153D01*
X-134893Y-42805D01*
X-135004Y-42454D01*
X-135107Y-42101D01*
X-135200Y-41745D01*
X-135286Y-41387D01*
X-135362Y-41026D01*
X-135429Y-40664D01*
X-135488Y-40301D01*
X-135537Y-39936D01*
X-135578Y-39570D01*
X-135609Y-39203D01*
X-135632Y-38836D01*
X-135645Y-38468D01*
X-135650Y-38100D01*
X-115252Y0D02*
X-115246Y491D01*
X-115228Y981D01*
X-115198Y1471D01*
X-115156Y1961D01*
X-115102Y2448D01*
X-115036Y2935D01*
X-114958Y3420D01*
X-114868Y3902D01*
X-114766Y4382D01*
X-114653Y4860D01*
X-114527Y5335D01*
X-114391Y5806D01*
X-114242Y6274D01*
X-114083Y6738D01*
X-113912Y7199D01*
X-113729Y7654D01*
X-113536Y8106D01*
X-113332Y8552D01*
X-113116Y8993D01*
X-112890Y9429D01*
X-112653Y9859D01*
X-112406Y10283D01*
X-112149Y10701D01*
X-111881Y11113D01*
X-111603Y11517D01*
X-111316Y11915D01*
X-111019Y12306D01*
X-110712Y12689D01*
X-110396Y13065D01*
X-110071Y13433D01*
X-109736Y13792D01*
X-109394Y14144D01*
X-109042Y14486D01*
X-108683Y14821D01*
X-108315Y15146D01*
X-107939Y15462D01*
X-107556Y15769D01*
X-107165Y16066D01*
X-106767Y16353D01*
X-106363Y16631D01*
X-105951Y16899D01*
X-105533Y17156D01*
X-105109Y17403D01*
X-104679Y17640D01*
X-104243Y17866D01*
X-103802Y18082D01*
X-103356Y18286D01*
X-102904Y18479D01*
X-102449Y18662D01*
X-101988Y18833D01*
X-101524Y18992D01*
X-101056Y19141D01*
X-100585Y19277D01*
X-100110Y19403D01*
X-99632Y19516D01*
X-99152Y19618D01*
X-98670Y19708D01*
X-98185Y19786D01*
X-97698Y19852D01*
X-97211Y19906D01*
X-96721Y19948D01*
X-96231Y19978D01*
X-95741Y19996D01*
X-95250Y20002D01*
X-94759Y19996D01*
X-94269Y19978D01*
X-93779Y19948D01*
X-93289Y19906D01*
X-92802Y19852D01*
X-92315Y19786D01*
X-91830Y19708D01*
X-91348Y19618D01*
X-90868Y19516D01*
X-90390Y19403D01*
X-89915Y19277D01*
X-89444Y19141D01*
X-88976Y18992D01*
X-88512Y18833D01*
X-88051Y18662D01*
X-87596Y18479D01*
X-87144Y18286D01*
X-86698Y18082D01*
X-86257Y17866D01*
X-85821Y17640D01*
X-85391Y17403D01*
X-84967Y17156D01*
X-84549Y16899D01*
X-84137Y16631D01*
X-83733Y16353D01*
X-83335Y16066D01*
X-82944Y15769D01*
X-82561Y15462D01*
X-82185Y15146D01*
X-81817Y14821D01*
X-81458Y14486D01*
X-81106Y14144D01*
X-80764Y13792D01*
X-80429Y13433D01*
X-80104Y13065D01*
X-79788Y12689D01*
X-79481Y12306D01*
X-79184Y11915D01*
X-78897Y11517D01*
X-78619Y11113D01*
X-78351Y10701D01*
X-78094Y10283D01*
X-77847Y9859D01*
X-77610Y9429D01*
X-77384Y8993D01*
X-77168Y8552D01*
X-76964Y8106D01*
X-76771Y7654D01*
X-76588Y7199D01*
X-76417Y6738D01*
X-76258Y6274D01*
X-76109Y5806D01*
X-75973Y5335D01*
X-75847Y4860D01*
X-75734Y4382D01*
X-75632Y3902D01*
X-75542Y3420D01*
X-75464Y2935D01*
X-75398Y2448D01*
X-75344Y1961D01*
X-75302Y1471D01*
X-75272Y981D01*
X-75254Y491D01*
X-75248Y0D01*
X-75254Y-491D01*
X-75272Y-981D01*
X-75302Y-1471D01*
X-75344Y-1961D01*
X-75398Y-2448D01*
X-75464Y-2935D01*
X-75542Y-3420D01*
X-75632Y-3902D01*
X-75734Y-4382D01*
X-75847Y-4860D01*
X-75973Y-5335D01*
X-76109Y-5806D01*
X-76258Y-6274D01*
X-76417Y-6738D01*
X-76588Y-7199D01*
X-76771Y-7654D01*
X-76964Y-8106D01*
X-77168Y-8552D01*
X-77384Y-8993D01*
X-77610Y-9429D01*
X-77847Y-9859D01*
X-78094Y-10283D01*
X-78351Y-10701D01*
X-78619Y-11113D01*
X-78897Y-11517D01*
X-79184Y-11915D01*
X-79481Y-12306D01*
X-79788Y-12689D01*
X-80104Y-13065D01*
X-80429Y-13433D01*
X-80764Y-13792D01*
X-81106Y-14144D01*
X-81458Y-14486D01*
X-81817Y-14821D01*
X-82185Y-15146D01*
X-82561Y-15462D01*
X-82944Y-15769D01*
X-83335Y-16066D01*
X-83733Y-16353D01*
X-84137Y-16631D01*
X-84549Y-16899D01*
X-84967Y-17156D01*
X-85391Y-17403D01*
X-85821Y-17640D01*
X-86257Y-17866D01*
X-86698Y-18082D01*
X-87144Y-18286D01*
X-87596Y-18479D01*
X-88051Y-18662D01*
X-88512Y-18833D01*
X-88976Y-18992D01*
X-89444Y-19141D01*
X-89915Y-19277D01*
X-90390Y-19403D01*
X-90868Y-19516D01*
X-91348Y-19618D01*
X-91830Y-19708D01*
X-92315Y-19786D01*
X-92802Y-19852D01*
X-93289Y-19906D01*
X-93779Y-19948D01*
X-94269Y-19978D01*
X-94759Y-19996D01*
X-95250Y-20002D01*
X-95741Y-19996D01*
X-96231Y-19978D01*
X-96721Y-19948D01*
X-97211Y-19906D01*
X-97698Y-19852D01*
X-98185Y-19786D01*
X-98670Y-19708D01*
X-99152Y-19618D01*
X-99632Y-19516D01*
X-100110Y-19403D01*
X-100585Y-19277D01*
X-101056Y-19141D01*
X-101524Y-18992D01*
X-101988Y-18833D01*
X-102449Y-18662D01*
X-102904Y-18479D01*
X-103356Y-18286D01*
X-103802Y-18082D01*
X-104243Y-17866D01*
X-104679Y-17640D01*
X-105109Y-17403D01*
X-105533Y-17156D01*
X-105951Y-16899D01*
X-106363Y-16631D01*
X-106767Y-16353D01*
X-107165Y-16066D01*
X-107556Y-15769D01*
X-107939Y-15462D01*
X-108315Y-15146D01*
X-108683Y-14821D01*
X-109042Y-14486D01*
X-109394Y-14144D01*
X-109736Y-13792D01*
X-110071Y-13433D01*
X-110396Y-13065D01*
X-110712Y-12689D01*
X-111019Y-12306D01*
X-111316Y-11915D01*
X-111603Y-11517D01*
X-111881Y-11113D01*
X-112149Y-10701D01*
X-112406Y-10283D01*
X-112653Y-9859D01*
X-112890Y-9429D01*
X-113116Y-8993D01*
X-113332Y-8552D01*
X-113536Y-8106D01*
X-113729Y-7654D01*
X-113912Y-7199D01*
X-114083Y-6738D01*
X-114242Y-6274D01*
X-114391Y-5806D01*
X-114527Y-5335D01*
X-114653Y-4860D01*
X-114766Y-4382D01*
X-114868Y-3902D01*
X-114958Y-3420D01*
X-115036Y-2935D01*
X-115102Y-2448D01*
X-115156Y-1961D01*
X-115198Y-1471D01*
X-115228Y-981D01*
X-115246Y-491D01*
X-115252Y0D01*
X-103750Y50800D02*
X-103747Y51009D01*
X-103740Y51217D01*
X-103727Y51425D01*
X-103709Y51633D01*
X-103686Y51840D01*
X-103658Y52047D01*
X-103625Y52253D01*
X-103587Y52458D01*
X-103543Y52662D01*
X-103495Y52865D01*
X-103442Y53067D01*
X-103384Y53267D01*
X-103321Y53466D01*
X-103253Y53664D01*
X-103180Y53859D01*
X-103103Y54053D01*
X-103021Y54245D01*
X-102934Y54434D01*
X-102842Y54622D01*
X-102746Y54807D01*
X-102646Y54990D01*
X-102541Y55170D01*
X-102431Y55347D01*
X-102317Y55522D01*
X-102199Y55694D01*
X-102077Y55863D01*
X-101951Y56029D01*
X-101821Y56192D01*
X-101686Y56352D01*
X-101548Y56508D01*
X-101406Y56661D01*
X-101260Y56810D01*
X-101111Y56956D01*
X-100958Y57098D01*
X-100802Y57236D01*
X-100642Y57371D01*
X-100479Y57501D01*
X-100313Y57627D01*
X-100144Y57749D01*
X-99972Y57867D01*
X-99797Y57981D01*
X-99620Y58091D01*
X-99440Y58196D01*
X-99257Y58296D01*
X-99072Y58392D01*
X-98884Y58484D01*
X-98695Y58571D01*
X-98503Y58653D01*
X-98309Y58730D01*
X-98114Y58803D01*
X-97916Y58871D01*
X-97717Y58934D01*
X-97517Y58992D01*
X-97315Y59045D01*
X-97112Y59093D01*
X-96908Y59137D01*
X-96703Y59175D01*
X-96497Y59208D01*
X-96290Y59236D01*
X-96083Y59259D01*
X-95875Y59277D01*
X-95667Y59290D01*
X-95459Y59297D01*
X-95250Y59300D01*
X-95041Y59297D01*
X-94833Y59290D01*
X-94625Y59277D01*
X-94417Y59259D01*
X-94210Y59236D01*
X-94003Y59208D01*
X-93797Y59175D01*
X-93592Y59137D01*
X-93388Y59093D01*
X-93185Y59045D01*
X-92983Y58992D01*
X-92783Y58934D01*
X-92584Y58871D01*
X-92386Y58803D01*
X-92191Y58730D01*
X-91997Y58653D01*
X-91805Y58571D01*
X-91616Y58484D01*
X-91428Y58392D01*
X-91243Y58296D01*
X-91060Y58196D01*
X-90880Y58091D01*
X-90703Y57981D01*
X-90528Y57867D01*
X-90356Y57749D01*
X-90187Y57627D01*
X-90021Y57501D01*
X-89858Y57371D01*
X-89698Y57236D01*
X-89542Y57098D01*
X-89389Y56956D01*
X-89240Y56810D01*
X-89094Y56661D01*
X-88952Y56508D01*
X-88814Y56352D01*
X-88679Y56192D01*
X-88549Y56029D01*
X-88423Y55863D01*
X-88301Y55694D01*
X-88183Y55522D01*
X-88069Y55347D01*
X-87959Y55170D01*
X-87854Y54990D01*
X-87754Y54807D01*
X-87658Y54622D01*
X-87566Y54434D01*
X-87479Y54245D01*
X-87397Y54053D01*
X-87320Y53859D01*
X-87247Y53664D01*
X-87179Y53466D01*
X-87116Y53267D01*
X-87058Y53067D01*
X-87005Y52865D01*
X-86957Y52662D01*
X-86913Y52458D01*
X-86875Y52253D01*
X-86842Y52047D01*
X-86814Y51840D01*
X-86791Y51633D01*
X-86773Y51425D01*
X-86760Y51217D01*
X-86753Y51009D01*
X-86750Y50800D01*
X-86753Y50591D01*
X-86760Y50383D01*
X-86773Y50175D01*
X-86791Y49967D01*
X-86814Y49760D01*
X-86842Y49553D01*
X-86875Y49347D01*
X-86913Y49142D01*
X-86957Y48938D01*
X-87005Y48735D01*
X-87058Y48533D01*
X-87116Y48333D01*
X-87179Y48134D01*
X-87247Y47936D01*
X-87320Y47741D01*
X-87397Y47547D01*
X-87479Y47355D01*
X-87566Y47166D01*
X-87658Y46978D01*
X-87754Y46793D01*
X-87854Y46610D01*
X-87959Y46430D01*
X-88069Y46253D01*
X-88183Y46078D01*
X-88301Y45906D01*
X-88423Y45737D01*
X-88549Y45571D01*
X-88679Y45408D01*
X-88814Y45248D01*
X-88952Y45092D01*
X-89094Y44939D01*
X-89240Y44790D01*
X-89389Y44644D01*
X-89542Y44502D01*
X-89698Y44364D01*
X-89858Y44229D01*
X-90021Y44099D01*
X-90187Y43973D01*
X-90356Y43851D01*
X-90528Y43733D01*
X-90703Y43619D01*
X-90880Y43509D01*
X-91060Y43404D01*
X-91243Y43304D01*
X-91428Y43208D01*
X-91616Y43116D01*
X-91805Y43029D01*
X-91997Y42947D01*
X-92191Y42870D01*
X-92386Y42797D01*
X-92584Y42729D01*
X-92783Y42666D01*
X-92983Y42608D01*
X-93185Y42555D01*
X-93388Y42507D01*
X-93592Y42463D01*
X-93797Y42425D01*
X-94003Y42392D01*
X-94210Y42364D01*
X-94417Y42341D01*
X-94625Y42323D01*
X-94833Y42310D01*
X-95041Y42303D01*
X-95250Y42300D01*
X-95459Y42303D01*
X-95667Y42310D01*
X-95875Y42323D01*
X-96083Y42341D01*
X-96290Y42364D01*
X-96497Y42392D01*
X-96703Y42425D01*
X-96908Y42463D01*
X-97112Y42507D01*
X-97315Y42555D01*
X-97517Y42608D01*
X-97717Y42666D01*
X-97916Y42729D01*
X-98114Y42797D01*
X-98309Y42870D01*
X-98503Y42947D01*
X-98695Y43029D01*
X-98884Y43116D01*
X-99072Y43208D01*
X-99257Y43304D01*
X-99440Y43404D01*
X-99620Y43509D01*
X-99797Y43619D01*
X-99972Y43733D01*
X-100144Y43851D01*
X-100313Y43973D01*
X-100479Y44099D01*
X-100642Y44229D01*
X-100802Y44364D01*
X-100958Y44502D01*
X-101111Y44644D01*
X-101260Y44790D01*
X-101406Y44939D01*
X-101548Y45092D01*
X-101686Y45248D01*
X-101821Y45408D01*
X-101951Y45571D01*
X-102077Y45737D01*
X-102199Y45906D01*
X-102317Y46078D01*
X-102431Y46253D01*
X-102541Y46430D01*
X-102646Y46610D01*
X-102746Y46793D01*
X-102842Y46978D01*
X-102934Y47166D01*
X-103021Y47355D01*
X-103103Y47547D01*
X-103180Y47741D01*
X-103253Y47936D01*
X-103321Y48134D01*
X-103384Y48333D01*
X-103442Y48533D01*
X-103495Y48735D01*
X-103543Y48938D01*
X-103587Y49142D01*
X-103625Y49347D01*
X-103658Y49553D01*
X-103686Y49760D01*
X-103709Y49967D01*
X-103727Y50175D01*
X-103740Y50383D01*
X-103747Y50591D01*
X-103750Y50800D01*
X-103750Y-50800D02*
X-103747Y-50591D01*
X-103740Y-50383D01*
X-103727Y-50175D01*
X-103709Y-49967D01*
X-103686Y-49760D01*
X-103658Y-49553D01*
X-103625Y-49347D01*
X-103587Y-49142D01*
X-103543Y-48938D01*
X-103495Y-48735D01*
X-103442Y-48533D01*
X-103384Y-48333D01*
X-103321Y-48134D01*
X-103253Y-47936D01*
X-103180Y-47741D01*
X-103103Y-47547D01*
X-103021Y-47355D01*
X-102934Y-47166D01*
X-102842Y-46978D01*
X-102746Y-46793D01*
X-102646Y-46610D01*
X-102541Y-46430D01*
X-102431Y-46253D01*
X-102317Y-46078D01*
X-102199Y-45906D01*
X-102077Y-45737D01*
X-101951Y-45571D01*
X-101821Y-45408D01*
X-101686Y-45248D01*
X-101548Y-45092D01*
X-101406Y-44939D01*
X-101260Y-44790D01*
X-101111Y-44644D01*
X-100958Y-44502D01*
X-100802Y-44364D01*
X-100642Y-44229D01*
X-100479Y-44099D01*
X-100313Y-43973D01*
X-100144Y-43851D01*
X-99972Y-43733D01*
X-99797Y-43619D01*
X-99620Y-43509D01*
X-99440Y-43404D01*
X-99257Y-43304D01*
X-99072Y-43208D01*
X-98884Y-43116D01*
X-98695Y-43029D01*
X-98503Y-42947D01*
X-98309Y-42870D01*
X-98114Y-42797D01*
X-97916Y-42729D01*
X-97717Y-42666D01*
X-97517Y-42608D01*
X-97315Y-42555D01*
X-97112Y-42507D01*
X-96908Y-42463D01*
X-96703Y-42425D01*
X-96497Y-42392D01*
X-96290Y-42364D01*
X-96083Y-42341D01*
X-95875Y-42323D01*
X-95667Y-42310D01*
X-95459Y-42303D01*
X-95250Y-42300D01*
X-95041Y-42303D01*
X-94833Y-42310D01*
X-94625Y-42323D01*
X-94417Y-42341D01*
X-94210Y-42364D01*
X-94003Y-42392D01*
X-93797Y-42425D01*
X-93592Y-42463D01*
X-93388Y-42507D01*
X-93185Y-42555D01*
X-92983Y-42608D01*
X-92783Y-42666D01*
X-92584Y-42729D01*
X-92386Y-42797D01*
X-92191Y-42870D01*
X-91997Y-42947D01*
X-91805Y-43029D01*
X-91616Y-43116D01*
X-91428Y-43208D01*
X-91243Y-43304D01*
X-91060Y-43404D01*
X-90880Y-43509D01*
X-90703Y-43619D01*
X-90528Y-43733D01*
X-90356Y-43851D01*
X-90187Y-43973D01*
X-90021Y-44099D01*
X-89858Y-44229D01*
X-89698Y-44364D01*
X-89542Y-44502D01*
X-89389Y-44644D01*
X-89240Y-44790D01*
X-89094Y-44939D01*
X-88952Y-45092D01*
X-88814Y-45248D01*
X-88679Y-45408D01*
X-88549Y-45571D01*
X-88423Y-45737D01*
X-88301Y-45906D01*
X-88183Y-46078D01*
X-88069Y-46253D01*
X-87959Y-46430D01*
X-87854Y-46610D01*
X-87754Y-46793D01*
X-87658Y-46978D01*
X-87566Y-47166D01*
X-87479Y-47355D01*
X-87397Y-47547D01*
X-87320Y-47741D01*
X-87247Y-47936D01*
X-87179Y-48134D01*
X-87116Y-48333D01*
X-87058Y-48533D01*
X-87005Y-48735D01*
X-86957Y-48938D01*
X-86913Y-49142D01*
X-86875Y-49347D01*
X-86842Y-49553D01*
X-86814Y-49760D01*
X-86791Y-49967D01*
X-86773Y-50175D01*
X-86760Y-50383D01*
X-86753Y-50591D01*
X-86750Y-50800D01*
X-86753Y-51009D01*
X-86760Y-51217D01*
X-86773Y-51425D01*
X-86791Y-51633D01*
X-86814Y-51840D01*
X-86842Y-52047D01*
X-86875Y-52253D01*
X-86913Y-52458D01*
X-86957Y-52662D01*
X-87005Y-52865D01*
X-87058Y-53067D01*
X-87116Y-53267D01*
X-87179Y-53466D01*
X-87247Y-53664D01*
X-87320Y-53859D01*
X-87397Y-54053D01*
X-87479Y-54245D01*
X-87566Y-54434D01*
X-87658Y-54622D01*
X-87754Y-54807D01*
X-87854Y-54990D01*
X-87959Y-55170D01*
X-88069Y-55347D01*
X-88183Y-55522D01*
X-88301Y-55694D01*
X-88423Y-55863D01*
X-88549Y-56029D01*
X-88679Y-56192D01*
X-88814Y-56352D01*
X-88952Y-56508D01*
X-89094Y-56661D01*
X-89240Y-56810D01*
X-89389Y-56956D01*
X-89542Y-57098D01*
X-89698Y-57236D01*
X-89858Y-57371D01*
X-90021Y-57501D01*
X-90187Y-57627D01*
X-90356Y-57749D01*
X-90528Y-57867D01*
X-90703Y-57981D01*
X-90880Y-58091D01*
X-91060Y-58196D01*
X-91243Y-58296D01*
X-91428Y-58392D01*
X-91616Y-58484D01*
X-91805Y-58571D01*
X-91997Y-58653D01*
X-92191Y-58730D01*
X-92386Y-58803D01*
X-92584Y-58871D01*
X-92783Y-58934D01*
X-92983Y-58992D01*
X-93185Y-59045D01*
X-93388Y-59093D01*
X-93592Y-59137D01*
X-93797Y-59175D01*
X-94003Y-59208D01*
X-94210Y-59236D01*
X-94417Y-59259D01*
X-94625Y-59277D01*
X-94833Y-59290D01*
X-95041Y-59297D01*
X-95250Y-59300D01*
X-95459Y-59297D01*
X-95667Y-59290D01*
X-95875Y-59277D01*
X-96083Y-59259D01*
X-96290Y-59236D01*
X-96497Y-59208D01*
X-96703Y-59175D01*
X-96908Y-59137D01*
X-97112Y-59093D01*
X-97315Y-59045D01*
X-97517Y-58992D01*
X-97717Y-58934D01*
X-97916Y-58871D01*
X-98114Y-58803D01*
X-98309Y-58730D01*
X-98503Y-58653D01*
X-98695Y-58571D01*
X-98884Y-58484D01*
X-99072Y-58392D01*
X-99257Y-58296D01*
X-99440Y-58196D01*
X-99620Y-58091D01*
X-99797Y-57981D01*
X-99972Y-57867D01*
X-100144Y-57749D01*
X-100313Y-57627D01*
X-100479Y-57501D01*
X-100642Y-57371D01*
X-100802Y-57236D01*
X-100958Y-57098D01*
X-101111Y-56956D01*
X-101260Y-56810D01*
X-101406Y-56661D01*
X-101548Y-56508D01*
X-101686Y-56352D01*
X-101821Y-56192D01*
X-101951Y-56029D01*
X-102077Y-55863D01*
X-102199Y-55694D01*
X-102317Y-55522D01*
X-102431Y-55347D01*
X-102541Y-55170D01*
X-102646Y-54990D01*
X-102746Y-54807D01*
X-102842Y-54622D01*
X-102934Y-54434D01*
X-103021Y-54245D01*
X-103103Y-54053D01*
X-103180Y-53859D01*
X-103253Y-53664D01*
X-103321Y-53466D01*
X-103384Y-53267D01*
X-103442Y-53067D01*
X-103495Y-52865D01*
X-103543Y-52662D01*
X-103587Y-52458D01*
X-103625Y-52253D01*
X-103658Y-52047D01*
X-103686Y-51840D01*
X-103709Y-51633D01*
X-103727Y-51425D01*
X-103740Y-51217D01*
X-103747Y-51009D01*
X-103750Y-50800D01*
X-161050Y-165100D02*
X-161045Y-164732D01*
X-161032Y-164364D01*
X-161009Y-163997D01*
X-160978Y-163630D01*
X-160937Y-163264D01*
X-160888Y-162899D01*
X-160829Y-162536D01*
X-160762Y-162174D01*
X-160686Y-161813D01*
X-160600Y-161455D01*
X-160507Y-161099D01*
X-160404Y-160746D01*
X-160293Y-160395D01*
X-160173Y-160047D01*
X-160045Y-159702D01*
X-159908Y-159360D01*
X-159763Y-159021D01*
X-159610Y-158687D01*
X-159448Y-158356D01*
X-159279Y-158029D01*
X-159101Y-157707D01*
X-158916Y-157388D01*
X-158723Y-157075D01*
X-158522Y-156766D01*
X-158314Y-156463D01*
X-158098Y-156165D01*
X-157875Y-155872D01*
X-157645Y-155584D01*
X-157408Y-155302D01*
X-157164Y-155027D01*
X-156914Y-154757D01*
X-156657Y-154493D01*
X-156393Y-154236D01*
X-156123Y-153986D01*
X-155848Y-153742D01*
X-155566Y-153505D01*
X-155278Y-153275D01*
X-154985Y-153052D01*
X-154687Y-152836D01*
X-154384Y-152628D01*
X-154075Y-152427D01*
X-153762Y-152234D01*
X-153443Y-152049D01*
X-153121Y-151871D01*
X-152794Y-151702D01*
X-152463Y-151540D01*
X-152129Y-151387D01*
X-151790Y-151242D01*
X-151448Y-151105D01*
X-151103Y-150977D01*
X-150755Y-150857D01*
X-150404Y-150746D01*
X-150051Y-150643D01*
X-149695Y-150550D01*
X-149337Y-150464D01*
X-148976Y-150388D01*
X-148614Y-150321D01*
X-148251Y-150262D01*
X-147886Y-150213D01*
X-147520Y-150172D01*
X-147153Y-150141D01*
X-146786Y-150118D01*
X-146418Y-150105D01*
X-146050Y-150100D01*
X-145682Y-150105D01*
X-145314Y-150118D01*
X-144947Y-150141D01*
X-144580Y-150172D01*
X-144214Y-150213D01*
X-143849Y-150262D01*
X-143486Y-150321D01*
X-143124Y-150388D01*
X-142763Y-150464D01*
X-142405Y-150550D01*
X-142049Y-150643D01*
X-141696Y-150746D01*
X-141345Y-150857D01*
X-140997Y-150977D01*
X-140652Y-151105D01*
X-140310Y-151242D01*
X-139971Y-151387D01*
X-139637Y-151540D01*
X-139306Y-151702D01*
X-138979Y-151871D01*
X-138657Y-152049D01*
X-138338Y-152234D01*
X-138025Y-152427D01*
X-137716Y-152628D01*
X-137413Y-152836D01*
X-137115Y-153052D01*
X-136822Y-153275D01*
X-136534Y-153505D01*
X-136252Y-153742D01*
X-135977Y-153986D01*
X-135707Y-154236D01*
X-135443Y-154493D01*
X-135186Y-154757D01*
X-134936Y-155027D01*
X-134692Y-155302D01*
X-134455Y-155584D01*
X-134225Y-155872D01*
X-134002Y-156165D01*
X-133786Y-156463D01*
X-133578Y-156766D01*
X-133377Y-157075D01*
X-133184Y-157388D01*
X-132999Y-157707D01*
X-132821Y-158029D01*
X-132652Y-158356D01*
X-132490Y-158687D01*
X-132337Y-159021D01*
X-132192Y-159360D01*
X-132055Y-159702D01*
X-131927Y-160047D01*
X-131807Y-160395D01*
X-131696Y-160746D01*
X-131593Y-161099D01*
X-131500Y-161455D01*
X-131414Y-161813D01*
X-131338Y-162174D01*
X-131271Y-162536D01*
X-131212Y-162899D01*
X-131163Y-163264D01*
X-131122Y-163630D01*
X-131091Y-163997D01*
X-131068Y-164364D01*
X-131055Y-164732D01*
X-131050Y-165100D01*
X-131055Y-165468D01*
X-131068Y-165836D01*
X-131091Y-166203D01*
X-131122Y-166570D01*
X-131163Y-166936D01*
X-131212Y-167301D01*
X-131271Y-167664D01*
X-131338Y-168026D01*
X-131414Y-168387D01*
X-131500Y-168745D01*
X-131593Y-169101D01*
X-131696Y-169454D01*
X-131807Y-169805D01*
X-131927Y-170153D01*
X-132055Y-170498D01*
X-132192Y-170840D01*
X-132337Y-171179D01*
X-132490Y-171513D01*
X-132652Y-171844D01*
X-132821Y-172171D01*
X-132999Y-172493D01*
X-133184Y-172812D01*
X-133377Y-173125D01*
X-133578Y-173434D01*
X-133786Y-173737D01*
X-134002Y-174035D01*
X-134225Y-174328D01*
X-134455Y-174616D01*
X-134692Y-174898D01*
X-134936Y-175173D01*
X-135186Y-175443D01*
X-135443Y-175707D01*
X-135707Y-175964D01*
X-135977Y-176214D01*
X-136252Y-176458D01*
X-136534Y-176695D01*
X-136822Y-176925D01*
X-137115Y-177148D01*
X-137413Y-177364D01*
X-137716Y-177572D01*
X-138025Y-177773D01*
X-138338Y-177966D01*
X-138657Y-178151D01*
X-138979Y-178329D01*
X-139306Y-178498D01*
X-139637Y-178660D01*
X-139971Y-178813D01*
X-140310Y-178958D01*
X-140652Y-179095D01*
X-140997Y-179223D01*
X-141345Y-179343D01*
X-141696Y-179454D01*
X-142049Y-179557D01*
X-142405Y-179650D01*
X-142763Y-179736D01*
X-143124Y-179812D01*
X-143486Y-179879D01*
X-143849Y-179938D01*
X-144214Y-179987D01*
X-144580Y-180028D01*
X-144947Y-180059D01*
X-145314Y-180082D01*
X-145682Y-180095D01*
X-146050Y-180100D01*
X-146418Y-180095D01*
X-146786Y-180082D01*
X-147153Y-180059D01*
X-147520Y-180028D01*
X-147886Y-179987D01*
X-148251Y-179938D01*
X-148614Y-179879D01*
X-148976Y-179812D01*
X-149337Y-179736D01*
X-149695Y-179650D01*
X-150051Y-179557D01*
X-150404Y-179454D01*
X-150755Y-179343D01*
X-151103Y-179223D01*
X-151448Y-179095D01*
X-151790Y-178958D01*
X-152129Y-178813D01*
X-152463Y-178660D01*
X-152794Y-178498D01*
X-153121Y-178329D01*
X-153443Y-178151D01*
X-153762Y-177966D01*
X-154075Y-177773D01*
X-154384Y-177572D01*
X-154687Y-177364D01*
X-154985Y-177148D01*
X-155278Y-176925D01*
X-155566Y-176695D01*
X-155848Y-176458D01*
X-156123Y-176214D01*
X-156393Y-175964D01*
X-156657Y-175707D01*
X-156914Y-175443D01*
X-157164Y-175173D01*
X-157408Y-174898D01*
X-157645Y-174616D01*
X-157875Y-174328D01*
X-158098Y-174035D01*
X-158314Y-173737D01*
X-158522Y-173434D01*
X-158723Y-173125D01*
X-158916Y-172812D01*
X-159101Y-172493D01*
X-159279Y-172171D01*
X-159448Y-171844D01*
X-159610Y-171513D01*
X-159763Y-171179D01*
X-159908Y-170840D01*
X-160045Y-170498D01*
X-160173Y-170153D01*
X-160293Y-169805D01*
X-160404Y-169454D01*
X-160507Y-169101D01*
X-160600Y-168745D01*
X-160686Y-168387D01*
X-160762Y-168026D01*
X-160829Y-167664D01*
X-160888Y-167301D01*
X-160937Y-166936D01*
X-160978Y-166570D01*
X-161009Y-166203D01*
X-161032Y-165836D01*
X-161045Y-165468D01*
X-161050Y-165100D01*
X-135650Y-228600D02*
X-135645Y-228232D01*
X-135632Y-227864D01*
X-135609Y-227497D01*
X-135578Y-227130D01*
X-135537Y-226764D01*
X-135488Y-226399D01*
X-135429Y-226036D01*
X-135362Y-225674D01*
X-135286Y-225313D01*
X-135200Y-224955D01*
X-135107Y-224599D01*
X-135004Y-224246D01*
X-134893Y-223895D01*
X-134773Y-223547D01*
X-134645Y-223202D01*
X-134508Y-222860D01*
X-134363Y-222521D01*
X-134210Y-222187D01*
X-134048Y-221856D01*
X-133879Y-221529D01*
X-133701Y-221207D01*
X-133516Y-220888D01*
X-133323Y-220575D01*
X-133122Y-220266D01*
X-132914Y-219963D01*
X-132698Y-219665D01*
X-132475Y-219372D01*
X-132245Y-219084D01*
X-132008Y-218802D01*
X-131764Y-218527D01*
X-131514Y-218257D01*
X-131257Y-217993D01*
X-130993Y-217736D01*
X-130723Y-217486D01*
X-130448Y-217242D01*
X-130166Y-217005D01*
X-129878Y-216775D01*
X-129585Y-216552D01*
X-129287Y-216336D01*
X-128984Y-216128D01*
X-128675Y-215927D01*
X-128362Y-215734D01*
X-128043Y-215549D01*
X-127721Y-215371D01*
X-127394Y-215202D01*
X-127063Y-215040D01*
X-126729Y-214887D01*
X-126390Y-214742D01*
X-126048Y-214605D01*
X-125703Y-214477D01*
X-125355Y-214357D01*
X-125004Y-214246D01*
X-124651Y-214143D01*
X-124295Y-214050D01*
X-123937Y-213964D01*
X-123576Y-213888D01*
X-123214Y-213821D01*
X-122851Y-213762D01*
X-122486Y-213713D01*
X-122120Y-213672D01*
X-121753Y-213641D01*
X-121386Y-213618D01*
X-121018Y-213605D01*
X-120650Y-213600D01*
X-120282Y-213605D01*
X-119914Y-213618D01*
X-119547Y-213641D01*
X-119180Y-213672D01*
X-118814Y-213713D01*
X-118449Y-213762D01*
X-118086Y-213821D01*
X-117724Y-213888D01*
X-117363Y-213964D01*
X-117005Y-214050D01*
X-116649Y-214143D01*
X-116296Y-214246D01*
X-115945Y-214357D01*
X-115597Y-214477D01*
X-115252Y-214605D01*
X-114910Y-214742D01*
X-114571Y-214887D01*
X-114237Y-215040D01*
X-113906Y-215202D01*
X-113579Y-215371D01*
X-113257Y-215549D01*
X-112938Y-215734D01*
X-112625Y-215927D01*
X-112316Y-216128D01*
X-112013Y-216336D01*
X-111715Y-216552D01*
X-111422Y-216775D01*
X-111134Y-217005D01*
X-110852Y-217242D01*
X-110577Y-217486D01*
X-110307Y-217736D01*
X-110043Y-217993D01*
X-109786Y-218257D01*
X-109536Y-218527D01*
X-109292Y-218802D01*
X-109055Y-219084D01*
X-108825Y-219372D01*
X-108602Y-219665D01*
X-108386Y-219963D01*
X-108178Y-220266D01*
X-107977Y-220575D01*
X-107784Y-220888D01*
X-107599Y-221207D01*
X-107421Y-221529D01*
X-107252Y-221856D01*
X-107090Y-222187D01*
X-106937Y-222521D01*
X-106792Y-222860D01*
X-106655Y-223202D01*
X-106527Y-223547D01*
X-106407Y-223895D01*
X-106296Y-224246D01*
X-106193Y-224599D01*
X-106100Y-224955D01*
X-106014Y-225313D01*
X-105938Y-225674D01*
X-105871Y-226036D01*
X-105812Y-226399D01*
X-105763Y-226764D01*
X-105722Y-227130D01*
X-105691Y-227497D01*
X-105668Y-227864D01*
X-105655Y-228232D01*
X-105650Y-228600D01*
X-105655Y-228968D01*
X-105668Y-229336D01*
X-105691Y-229703D01*
X-105722Y-230070D01*
X-105763Y-230436D01*
X-105812Y-230801D01*
X-105871Y-231164D01*
X-105938Y-231526D01*
X-106014Y-231887D01*
X-106100Y-232245D01*
X-106193Y-232601D01*
X-106296Y-232954D01*
X-106407Y-233305D01*
X-106527Y-233653D01*
X-106655Y-233998D01*
X-106792Y-234340D01*
X-106937Y-234679D01*
X-107090Y-235013D01*
X-107252Y-235344D01*
X-107421Y-235671D01*
X-107599Y-235993D01*
X-107784Y-236312D01*
X-107977Y-236625D01*
X-108178Y-236934D01*
X-108386Y-237237D01*
X-108602Y-237535D01*
X-108825Y-237828D01*
X-109055Y-238116D01*
X-109292Y-238398D01*
X-109536Y-238673D01*
X-109786Y-238943D01*
X-110043Y-239207D01*
X-110307Y-239464D01*
X-110577Y-239714D01*
X-110852Y-239958D01*
X-111134Y-240195D01*
X-111422Y-240425D01*
X-111715Y-240648D01*
X-112013Y-240864D01*
X-112316Y-241072D01*
X-112625Y-241273D01*
X-112938Y-241466D01*
X-113257Y-241651D01*
X-113579Y-241829D01*
X-113906Y-241998D01*
X-114237Y-242160D01*
X-114571Y-242313D01*
X-114910Y-242458D01*
X-115252Y-242595D01*
X-115597Y-242723D01*
X-115945Y-242843D01*
X-116296Y-242954D01*
X-116649Y-243057D01*
X-117005Y-243150D01*
X-117363Y-243236D01*
X-117724Y-243312D01*
X-118086Y-243379D01*
X-118449Y-243438D01*
X-118814Y-243487D01*
X-119180Y-243528D01*
X-119547Y-243559D01*
X-119914Y-243582D01*
X-120282Y-243595D01*
X-120650Y-243600D01*
X-121018Y-243595D01*
X-121386Y-243582D01*
X-121753Y-243559D01*
X-122120Y-243528D01*
X-122486Y-243487D01*
X-122851Y-243438D01*
X-123214Y-243379D01*
X-123576Y-243312D01*
X-123937Y-243236D01*
X-124295Y-243150D01*
X-124651Y-243057D01*
X-125004Y-242954D01*
X-125355Y-242843D01*
X-125703Y-242723D01*
X-126048Y-242595D01*
X-126390Y-242458D01*
X-126729Y-242313D01*
X-127063Y-242160D01*
X-127394Y-241998D01*
X-127721Y-241829D01*
X-128043Y-241651D01*
X-128362Y-241466D01*
X-128675Y-241273D01*
X-128984Y-241072D01*
X-129287Y-240864D01*
X-129585Y-240648D01*
X-129878Y-240425D01*
X-130166Y-240195D01*
X-130448Y-239958D01*
X-130723Y-239714D01*
X-130993Y-239464D01*
X-131257Y-239207D01*
X-131514Y-238943D01*
X-131764Y-238673D01*
X-132008Y-238398D01*
X-132245Y-238116D01*
X-132475Y-237828D01*
X-132698Y-237535D01*
X-132914Y-237237D01*
X-133122Y-236934D01*
X-133323Y-236625D01*
X-133516Y-236312D01*
X-133701Y-235993D01*
X-133879Y-235671D01*
X-134048Y-235344D01*
X-134210Y-235013D01*
X-134363Y-234679D01*
X-134508Y-234340D01*
X-134645Y-233998D01*
X-134773Y-233653D01*
X-134893Y-233305D01*
X-135004Y-232954D01*
X-135107Y-232601D01*
X-135200Y-232245D01*
X-135286Y-231887D01*
X-135362Y-231526D01*
X-135429Y-231164D01*
X-135488Y-230801D01*
X-135537Y-230436D01*
X-135578Y-230070D01*
X-135609Y-229703D01*
X-135632Y-229336D01*
X-135645Y-228968D01*
X-135650Y-228600D01*
X-115252Y-190500D02*
X-115246Y-190009D01*
X-115228Y-189519D01*
X-115198Y-189029D01*
X-115156Y-188539D01*
X-115102Y-188052D01*
X-115036Y-187565D01*
X-114958Y-187080D01*
X-114868Y-186598D01*
X-114766Y-186118D01*
X-114653Y-185640D01*
X-114527Y-185165D01*
X-114391Y-184694D01*
X-114242Y-184226D01*
X-114083Y-183762D01*
X-113912Y-183301D01*
X-113729Y-182846D01*
X-113536Y-182394D01*
X-113332Y-181948D01*
X-113116Y-181507D01*
X-112890Y-181071D01*
X-112653Y-180641D01*
X-112406Y-180217D01*
X-112149Y-179799D01*
X-111881Y-179387D01*
X-111603Y-178983D01*
X-111316Y-178585D01*
X-111019Y-178194D01*
X-110712Y-177811D01*
X-110396Y-177435D01*
X-110071Y-177067D01*
X-109736Y-176708D01*
X-109394Y-176356D01*
X-109042Y-176014D01*
X-108683Y-175679D01*
X-108315Y-175354D01*
X-107939Y-175038D01*
X-107556Y-174731D01*
X-107165Y-174434D01*
X-106767Y-174147D01*
X-106363Y-173869D01*
X-105951Y-173601D01*
X-105533Y-173344D01*
X-105109Y-173097D01*
X-104679Y-172860D01*
X-104243Y-172634D01*
X-103802Y-172418D01*
X-103356Y-172214D01*
X-102904Y-172021D01*
X-102449Y-171838D01*
X-101988Y-171667D01*
X-101524Y-171508D01*
X-101056Y-171359D01*
X-100585Y-171223D01*
X-100110Y-171097D01*
X-99632Y-170984D01*
X-99152Y-170882D01*
X-98670Y-170792D01*
X-98185Y-170714D01*
X-97698Y-170648D01*
X-97211Y-170594D01*
X-96721Y-170552D01*
X-96231Y-170522D01*
X-95741Y-170504D01*
X-95250Y-170498D01*
X-94759Y-170504D01*
X-94269Y-170522D01*
X-93779Y-170552D01*
X-93289Y-170594D01*
X-92802Y-170648D01*
X-92315Y-170714D01*
X-91830Y-170792D01*
X-91348Y-170882D01*
X-90868Y-170984D01*
X-90390Y-171097D01*
X-89915Y-171223D01*
X-89444Y-171359D01*
X-88976Y-171508D01*
X-88512Y-171667D01*
X-88051Y-171838D01*
X-87596Y-172021D01*
X-87144Y-172214D01*
X-86698Y-172418D01*
X-86257Y-172634D01*
X-85821Y-172860D01*
X-85391Y-173097D01*
X-84967Y-173344D01*
X-84549Y-173601D01*
X-84137Y-173869D01*
X-83733Y-174147D01*
X-83335Y-174434D01*
X-82944Y-174731D01*
X-82561Y-175038D01*
X-82185Y-175354D01*
X-81817Y-175679D01*
X-81458Y-176014D01*
X-81106Y-176356D01*
X-80764Y-176708D01*
X-80429Y-177067D01*
X-80104Y-177435D01*
X-79788Y-177811D01*
X-79481Y-178194D01*
X-79184Y-178585D01*
X-78897Y-178983D01*
X-78619Y-179387D01*
X-78351Y-179799D01*
X-78094Y-180217D01*
X-77847Y-180641D01*
X-77610Y-181071D01*
X-77384Y-181507D01*
X-77168Y-181948D01*
X-76964Y-182394D01*
X-76771Y-182846D01*
X-76588Y-183301D01*
X-76417Y-183762D01*
X-76258Y-184226D01*
X-76109Y-184694D01*
X-75973Y-185165D01*
X-75847Y-185640D01*
X-75734Y-186118D01*
X-75632Y-186598D01*
X-75542Y-187080D01*
X-75464Y-187565D01*
X-75398Y-188052D01*
X-75344Y-188539D01*
X-75302Y-189029D01*
X-75272Y-189519D01*
X-75254Y-190009D01*
X-75248Y-190500D01*
X-75254Y-190991D01*
X-75272Y-191481D01*
X-75302Y-191971D01*
X-75344Y-192461D01*
X-75398Y-192948D01*
X-75464Y-193435D01*
X-75542Y-193920D01*
X-75632Y-194402D01*
X-75734Y-194882D01*
X-75847Y-195360D01*
X-75973Y-195835D01*
X-76109Y-196306D01*
X-76258Y-196774D01*
X-76417Y-197238D01*
X-76588Y-197699D01*
X-76771Y-198154D01*
X-76964Y-198606D01*
X-77168Y-199052D01*
X-77384Y-199493D01*
X-77610Y-199929D01*
X-77847Y-200359D01*
X-78094Y-200783D01*
X-78351Y-201201D01*
X-78619Y-201613D01*
X-78897Y-202017D01*
X-79184Y-202415D01*
X-79481Y-202806D01*
X-79788Y-203189D01*
X-80104Y-203565D01*
X-80429Y-203933D01*
X-80764Y-204292D01*
X-81106Y-204644D01*
X-81458Y-204986D01*
X-81817Y-205321D01*
X-82185Y-205646D01*
X-82561Y-205962D01*
X-82944Y-206269D01*
X-83335Y-206566D01*
X-83733Y-206853D01*
X-84137Y-207131D01*
X-84549Y-207399D01*
X-84967Y-207656D01*
X-85391Y-207903D01*
X-85821Y-208140D01*
X-86257Y-208366D01*
X-86698Y-208582D01*
X-87144Y-208786D01*
X-87596Y-208979D01*
X-88051Y-209162D01*
X-88512Y-209333D01*
X-88976Y-209492D01*
X-89444Y-209641D01*
X-89915Y-209777D01*
X-90390Y-209903D01*
X-90868Y-210016D01*
X-91348Y-210118D01*
X-91830Y-210208D01*
X-92315Y-210286D01*
X-92802Y-210352D01*
X-93289Y-210406D01*
X-93779Y-210448D01*
X-94269Y-210478D01*
X-94759Y-210496D01*
X-95250Y-210502D01*
X-95741Y-210496D01*
X-96231Y-210478D01*
X-96721Y-210448D01*
X-97211Y-210406D01*
X-97698Y-210352D01*
X-98185Y-210286D01*
X-98670Y-210208D01*
X-99152Y-210118D01*
X-99632Y-210016D01*
X-100110Y-209903D01*
X-100585Y-209777D01*
X-101056Y-209641D01*
X-101524Y-209492D01*
X-101988Y-209333D01*
X-102449Y-209162D01*
X-102904Y-208979D01*
X-103356Y-208786D01*
X-103802Y-208582D01*
X-104243Y-208366D01*
X-104679Y-208140D01*
X-105109Y-207903D01*
X-105533Y-207656D01*
X-105951Y-207399D01*
X-106363Y-207131D01*
X-106767Y-206853D01*
X-107165Y-206566D01*
X-107556Y-206269D01*
X-107939Y-205962D01*
X-108315Y-205646D01*
X-108683Y-205321D01*
X-109042Y-204986D01*
X-109394Y-204644D01*
X-109736Y-204292D01*
X-110071Y-203933D01*
X-110396Y-203565D01*
X-110712Y-203189D01*
X-111019Y-202806D01*
X-111316Y-202415D01*
X-111603Y-202017D01*
X-111881Y-201613D01*
X-112149Y-201201D01*
X-112406Y-200783D01*
X-112653Y-200359D01*
X-112890Y-199929D01*
X-113116Y-199493D01*
X-113332Y-199052D01*
X-113536Y-198606D01*
X-113729Y-198154D01*
X-113912Y-197699D01*
X-114083Y-197238D01*
X-114242Y-196774D01*
X-114391Y-196306D01*
X-114527Y-195835D01*
X-114653Y-195360D01*
X-114766Y-194882D01*
X-114868Y-194402D01*
X-114958Y-193920D01*
X-115036Y-193435D01*
X-115102Y-192948D01*
X-115156Y-192461D01*
X-115198Y-191971D01*
X-115228Y-191481D01*
X-115246Y-190991D01*
X-115252Y-190500D01*
X-103750Y-139700D02*
X-103747Y-139491D01*
X-103740Y-139283D01*
X-103727Y-139075D01*
X-103709Y-138867D01*
X-103686Y-138660D01*
X-103658Y-138453D01*
X-103625Y-138247D01*
X-103587Y-138042D01*
X-103543Y-137838D01*
X-103495Y-137635D01*
X-103442Y-137433D01*
X-103384Y-137233D01*
X-103321Y-137034D01*
X-103253Y-136836D01*
X-103180Y-136641D01*
X-103103Y-136447D01*
X-103021Y-136255D01*
X-102934Y-136066D01*
X-102842Y-135878D01*
X-102746Y-135693D01*
X-102646Y-135510D01*
X-102541Y-135330D01*
X-102431Y-135153D01*
X-102317Y-134978D01*
X-102199Y-134806D01*
X-102077Y-134637D01*
X-101951Y-134471D01*
X-101821Y-134308D01*
X-101686Y-134148D01*
X-101548Y-133992D01*
X-101406Y-133839D01*
X-101260Y-133690D01*
X-101111Y-133544D01*
X-100958Y-133402D01*
X-100802Y-133264D01*
X-100642Y-133129D01*
X-100479Y-132999D01*
X-100313Y-132873D01*
X-100144Y-132751D01*
X-99972Y-132633D01*
X-99797Y-132519D01*
X-99620Y-132409D01*
X-99440Y-132304D01*
X-99257Y-132204D01*
X-99072Y-132108D01*
X-98884Y-132016D01*
X-98695Y-131929D01*
X-98503Y-131847D01*
X-98309Y-131770D01*
X-98114Y-131697D01*
X-97916Y-131629D01*
X-97717Y-131566D01*
X-97517Y-131508D01*
X-97315Y-131455D01*
X-97112Y-131407D01*
X-96908Y-131363D01*
X-96703Y-131325D01*
X-96497Y-131292D01*
X-96290Y-131264D01*
X-96083Y-131241D01*
X-95875Y-131223D01*
X-95667Y-131210D01*
X-95459Y-131203D01*
X-95250Y-131200D01*
X-95041Y-131203D01*
X-94833Y-131210D01*
X-94625Y-131223D01*
X-94417Y-131241D01*
X-94210Y-131264D01*
X-94003Y-131292D01*
X-93797Y-131325D01*
X-93592Y-131363D01*
X-93388Y-131407D01*
X-93185Y-131455D01*
X-92983Y-131508D01*
X-92783Y-131566D01*
X-92584Y-131629D01*
X-92386Y-131697D01*
X-92191Y-131770D01*
X-91997Y-131847D01*
X-91805Y-131929D01*
X-91616Y-132016D01*
X-91428Y-132108D01*
X-91243Y-132204D01*
X-91060Y-132304D01*
X-90880Y-132409D01*
X-90703Y-132519D01*
X-90528Y-132633D01*
X-90356Y-132751D01*
X-90187Y-132873D01*
X-90021Y-132999D01*
X-89858Y-133129D01*
X-89698Y-133264D01*
X-89542Y-133402D01*
X-89389Y-133544D01*
X-89240Y-133690D01*
X-89094Y-133839D01*
X-88952Y-133992D01*
X-88814Y-134148D01*
X-88679Y-134308D01*
X-88549Y-134471D01*
X-88423Y-134637D01*
X-88301Y-134806D01*
X-88183Y-134978D01*
X-88069Y-135153D01*
X-87959Y-135330D01*
X-87854Y-135510D01*
X-87754Y-135693D01*
X-87658Y-135878D01*
X-87566Y-136066D01*
X-87479Y-136255D01*
X-87397Y-136447D01*
X-87320Y-136641D01*
X-87247Y-136836D01*
X-87179Y-137034D01*
X-87116Y-137233D01*
X-87058Y-137433D01*
X-87005Y-137635D01*
X-86957Y-137838D01*
X-86913Y-138042D01*
X-86875Y-138247D01*
X-86842Y-138453D01*
X-86814Y-138660D01*
X-86791Y-138867D01*
X-86773Y-139075D01*
X-86760Y-139283D01*
X-86753Y-139491D01*
X-86750Y-139700D01*
X-86753Y-139909D01*
X-86760Y-140117D01*
X-86773Y-140325D01*
X-86791Y-140533D01*
X-86814Y-140740D01*
X-86842Y-140947D01*
X-86875Y-141153D01*
X-86913Y-141358D01*
X-86957Y-141562D01*
X-87005Y-141765D01*
X-87058Y-141967D01*
X-87116Y-142167D01*
X-87179Y-142366D01*
X-87247Y-142564D01*
X-87320Y-142759D01*
X-87397Y-142953D01*
X-87479Y-143145D01*
X-87566Y-143334D01*
X-87658Y-143522D01*
X-87754Y-143707D01*
X-87854Y-143890D01*
X-87959Y-144070D01*
X-88069Y-144247D01*
X-88183Y-144422D01*
X-88301Y-144594D01*
X-88423Y-144763D01*
X-88549Y-144929D01*
X-88679Y-145092D01*
X-88814Y-145252D01*
X-88952Y-145408D01*
X-89094Y-145561D01*
X-89240Y-145710D01*
X-89389Y-145856D01*
X-89542Y-145998D01*
X-89698Y-146136D01*
X-89858Y-146271D01*
X-90021Y-146401D01*
X-90187Y-146527D01*
X-90356Y-146649D01*
X-90528Y-146767D01*
X-90703Y-146881D01*
X-90880Y-146991D01*
X-91060Y-147096D01*
X-91243Y-147196D01*
X-91428Y-147292D01*
X-91616Y-147384D01*
X-91805Y-147471D01*
X-91997Y-147553D01*
X-92191Y-147630D01*
X-92386Y-147703D01*
X-92584Y-147771D01*
X-92783Y-147834D01*
X-92983Y-147892D01*
X-93185Y-147945D01*
X-93388Y-147993D01*
X-93592Y-148037D01*
X-93797Y-148075D01*
X-94003Y-148108D01*
X-94210Y-148136D01*
X-94417Y-148159D01*
X-94625Y-148177D01*
X-94833Y-148190D01*
X-95041Y-148197D01*
X-95250Y-148200D01*
X-95459Y-148197D01*
X-95667Y-148190D01*
X-95875Y-148177D01*
X-96083Y-148159D01*
X-96290Y-148136D01*
X-96497Y-148108D01*
X-96703Y-148075D01*
X-96908Y-148037D01*
X-97112Y-147993D01*
X-97315Y-147945D01*
X-97517Y-147892D01*
X-97717Y-147834D01*
X-97916Y-147771D01*
X-98114Y-147703D01*
X-98309Y-147630D01*
X-98503Y-147553D01*
X-98695Y-147471D01*
X-98884Y-147384D01*
X-99072Y-147292D01*
X-99257Y-147196D01*
X-99440Y-147096D01*
X-99620Y-146991D01*
X-99797Y-146881D01*
X-99972Y-146767D01*
X-100144Y-146649D01*
X-100313Y-146527D01*
X-100479Y-146401D01*
X-100642Y-146271D01*
X-100802Y-146136D01*
X-100958Y-145998D01*
X-101111Y-145856D01*
X-101260Y-145710D01*
X-101406Y-145561D01*
X-101548Y-145408D01*
X-101686Y-145252D01*
X-101821Y-145092D01*
X-101951Y-144929D01*
X-102077Y-144763D01*
X-102199Y-144594D01*
X-102317Y-144422D01*
X-102431Y-144247D01*
X-102541Y-144070D01*
X-102646Y-143890D01*
X-102746Y-143707D01*
X-102842Y-143522D01*
X-102934Y-143334D01*
X-103021Y-143145D01*
X-103103Y-142953D01*
X-103180Y-142759D01*
X-103253Y-142564D01*
X-103321Y-142366D01*
X-103384Y-142167D01*
X-103442Y-141967D01*
X-103495Y-141765D01*
X-103543Y-141562D01*
X-103587Y-141358D01*
X-103625Y-141153D01*
X-103658Y-140947D01*
X-103686Y-140740D01*
X-103709Y-140533D01*
X-103727Y-140325D01*
X-103740Y-140117D01*
X-103747Y-139909D01*
X-103750Y-139700D01*
X-103750Y-241300D02*
X-103747Y-241091D01*
X-103740Y-240883D01*
X-103727Y-240675D01*
X-103709Y-240467D01*
X-103686Y-240260D01*
X-103658Y-240053D01*
X-103625Y-239847D01*
X-103587Y-239642D01*
X-103543Y-239438D01*
X-103495Y-239235D01*
X-103442Y-239033D01*
X-103384Y-238833D01*
X-103321Y-238634D01*
X-103253Y-238436D01*
X-103180Y-238241D01*
X-103103Y-238047D01*
X-103021Y-237855D01*
X-102934Y-237666D01*
X-102842Y-237478D01*
X-102746Y-237293D01*
X-102646Y-237110D01*
X-102541Y-236930D01*
X-102431Y-236753D01*
X-102317Y-236578D01*
X-102199Y-236406D01*
X-102077Y-236237D01*
X-101951Y-236071D01*
X-101821Y-235908D01*
X-101686Y-235748D01*
X-101548Y-235592D01*
X-101406Y-235439D01*
X-101260Y-235290D01*
X-101111Y-235144D01*
X-100958Y-235002D01*
X-100802Y-234864D01*
X-100642Y-234729D01*
X-100479Y-234599D01*
X-100313Y-234473D01*
X-100144Y-234351D01*
X-99972Y-234233D01*
X-99797Y-234119D01*
X-99620Y-234009D01*
X-99440Y-233904D01*
X-99257Y-233804D01*
X-99072Y-233708D01*
X-98884Y-233616D01*
X-98695Y-233529D01*
X-98503Y-233447D01*
X-98309Y-233370D01*
X-98114Y-233297D01*
X-97916Y-233229D01*
X-97717Y-233166D01*
X-97517Y-233108D01*
X-97315Y-233055D01*
X-97112Y-233007D01*
X-96908Y-232963D01*
X-96703Y-232925D01*
X-96497Y-232892D01*
X-96290Y-232864D01*
X-96083Y-232841D01*
X-95875Y-232823D01*
X-95667Y-232810D01*
X-95459Y-232803D01*
X-95250Y-232800D01*
X-95041Y-232803D01*
X-94833Y-232810D01*
X-94625Y-232823D01*
X-94417Y-232841D01*
X-94210Y-232864D01*
X-94003Y-232892D01*
X-93797Y-232925D01*
X-93592Y-232963D01*
X-93388Y-233007D01*
X-93185Y-233055D01*
X-92983Y-233108D01*
X-92783Y-233166D01*
X-92584Y-233229D01*
X-92386Y-233297D01*
X-92191Y-233370D01*
X-91997Y-233447D01*
X-91805Y-233529D01*
X-91616Y-233616D01*
X-91428Y-233708D01*
X-91243Y-233804D01*
X-91060Y-233904D01*
X-90880Y-234009D01*
X-90703Y-234119D01*
X-90528Y-234233D01*
X-90356Y-234351D01*
X-90187Y-234473D01*
X-90021Y-234599D01*
X-89858Y-234729D01*
X-89698Y-234864D01*
X-89542Y-235002D01*
X-89389Y-235144D01*
X-89240Y-235290D01*
X-89094Y-235439D01*
X-88952Y-235592D01*
X-88814Y-235748D01*
X-88679Y-235908D01*
X-88549Y-236071D01*
X-88423Y-236237D01*
X-88301Y-236406D01*
X-88183Y-236578D01*
X-88069Y-236753D01*
X-87959Y-236930D01*
X-87854Y-237110D01*
X-87754Y-237293D01*
X-87658Y-237478D01*
X-87566Y-237666D01*
X-87479Y-237855D01*
X-87397Y-238047D01*
X-87320Y-238241D01*
X-87247Y-238436D01*
X-87179Y-238634D01*
X-87116Y-238833D01*
X-87058Y-239033D01*
X-87005Y-239235D01*
X-86957Y-239438D01*
X-86913Y-239642D01*
X-86875Y-239847D01*
X-86842Y-240053D01*
X-86814Y-240260D01*
X-86791Y-240467D01*
X-86773Y-240675D01*
X-86760Y-240883D01*
X-86753Y-241091D01*
X-86750Y-241300D01*
X-86753Y-241509D01*
X-86760Y-241717D01*
X-86773Y-241925D01*
X-86791Y-242133D01*
X-86814Y-242340D01*
X-86842Y-242547D01*
X-86875Y-242753D01*
X-86913Y-242958D01*
X-86957Y-243162D01*
X-87005Y-243365D01*
X-87058Y-243567D01*
X-87116Y-243767D01*
X-87179Y-243966D01*
X-87247Y-244164D01*
X-87320Y-244359D01*
X-87397Y-244553D01*
X-87479Y-244745D01*
X-87566Y-244934D01*
X-87658Y-245122D01*
X-87754Y-245307D01*
X-87854Y-245490D01*
X-87959Y-245670D01*
X-88069Y-245847D01*
X-88183Y-246022D01*
X-88301Y-246194D01*
X-88423Y-246363D01*
X-88549Y-246529D01*
X-88679Y-246692D01*
X-88814Y-246852D01*
X-88952Y-247008D01*
X-89094Y-247161D01*
X-89240Y-247310D01*
X-89389Y-247456D01*
X-89542Y-247598D01*
X-89698Y-247736D01*
X-89858Y-247871D01*
X-90021Y-248001D01*
X-90187Y-248127D01*
X-90356Y-248249D01*
X-90528Y-248367D01*
X-90703Y-248481D01*
X-90880Y-248591D01*
X-91060Y-248696D01*
X-91243Y-248796D01*
X-91428Y-248892D01*
X-91616Y-248984D01*
X-91805Y-249071D01*
X-91997Y-249153D01*
X-92191Y-249230D01*
X-92386Y-249303D01*
X-92584Y-249371D01*
X-92783Y-249434D01*
X-92983Y-249492D01*
X-93185Y-249545D01*
X-93388Y-249593D01*
X-93592Y-249637D01*
X-93797Y-249675D01*
X-94003Y-249708D01*
X-94210Y-249736D01*
X-94417Y-249759D01*
X-94625Y-249777D01*
X-94833Y-249790D01*
X-95041Y-249797D01*
X-95250Y-249800D01*
X-95459Y-249797D01*
X-95667Y-249790D01*
X-95875Y-249777D01*
X-96083Y-249759D01*
X-96290Y-249736D01*
X-96497Y-249708D01*
X-96703Y-249675D01*
X-96908Y-249637D01*
X-97112Y-249593D01*
X-97315Y-249545D01*
X-97517Y-249492D01*
X-97717Y-249434D01*
X-97916Y-249371D01*
X-98114Y-249303D01*
X-98309Y-249230D01*
X-98503Y-249153D01*
X-98695Y-249071D01*
X-98884Y-248984D01*
X-99072Y-248892D01*
X-99257Y-248796D01*
X-99440Y-248696D01*
X-99620Y-248591D01*
X-99797Y-248481D01*
X-99972Y-248367D01*
X-100144Y-248249D01*
X-100313Y-248127D01*
X-100479Y-248001D01*
X-100642Y-247871D01*
X-100802Y-247736D01*
X-100958Y-247598D01*
X-101111Y-247456D01*
X-101260Y-247310D01*
X-101406Y-247161D01*
X-101548Y-247008D01*
X-101686Y-246852D01*
X-101821Y-246692D01*
X-101951Y-246529D01*
X-102077Y-246363D01*
X-102199Y-246194D01*
X-102317Y-246022D01*
X-102431Y-245847D01*
X-102541Y-245670D01*
X-102646Y-245490D01*
X-102746Y-245307D01*
X-102842Y-245122D01*
X-102934Y-244934D01*
X-103021Y-244745D01*
X-103103Y-244553D01*
X-103180Y-244359D01*
X-103253Y-244164D01*
X-103321Y-243966D01*
X-103384Y-243767D01*
X-103442Y-243567D01*
X-103495Y-243365D01*
X-103543Y-243162D01*
X-103587Y-242958D01*
X-103625Y-242753D01*
X-103658Y-242547D01*
X-103686Y-242340D01*
X-103709Y-242133D01*
X-103727Y-241925D01*
X-103740Y-241717D01*
X-103747Y-241509D01*
X-103750Y-241300D01*
X29450Y215900D02*
X29455Y216268D01*
X29468Y216636D01*
X29491Y217003D01*
X29522Y217370D01*
X29563Y217736D01*
X29612Y218101D01*
X29671Y218464D01*
X29738Y218826D01*
X29814Y219187D01*
X29900Y219545D01*
X29993Y219901D01*
X30096Y220254D01*
X30207Y220605D01*
X30327Y220953D01*
X30455Y221298D01*
X30592Y221640D01*
X30737Y221979D01*
X30890Y222313D01*
X31052Y222644D01*
X31221Y222971D01*
X31399Y223293D01*
X31584Y223612D01*
X31777Y223925D01*
X31978Y224234D01*
X32186Y224537D01*
X32402Y224835D01*
X32625Y225128D01*
X32855Y225416D01*
X33092Y225698D01*
X33336Y225973D01*
X33586Y226243D01*
X33843Y226507D01*
X34107Y226764D01*
X34377Y227014D01*
X34652Y227258D01*
X34934Y227495D01*
X35222Y227725D01*
X35515Y227948D01*
X35813Y228164D01*
X36116Y228372D01*
X36425Y228573D01*
X36738Y228766D01*
X37057Y228951D01*
X37379Y229129D01*
X37706Y229298D01*
X38037Y229460D01*
X38371Y229613D01*
X38710Y229758D01*
X39052Y229895D01*
X39397Y230023D01*
X39745Y230143D01*
X40096Y230254D01*
X40449Y230357D01*
X40805Y230450D01*
X41163Y230536D01*
X41524Y230612D01*
X41886Y230679D01*
X42249Y230738D01*
X42614Y230787D01*
X42980Y230828D01*
X43347Y230859D01*
X43714Y230882D01*
X44082Y230895D01*
X44450Y230900D01*
X44818Y230895D01*
X45186Y230882D01*
X45553Y230859D01*
X45920Y230828D01*
X46286Y230787D01*
X46651Y230738D01*
X47014Y230679D01*
X47376Y230612D01*
X47737Y230536D01*
X48095Y230450D01*
X48451Y230357D01*
X48804Y230254D01*
X49155Y230143D01*
X49503Y230023D01*
X49848Y229895D01*
X50190Y229758D01*
X50529Y229613D01*
X50863Y229460D01*
X51194Y229298D01*
X51521Y229129D01*
X51843Y228951D01*
X52162Y228766D01*
X52475Y228573D01*
X52784Y228372D01*
X53087Y228164D01*
X53385Y227948D01*
X53678Y227725D01*
X53966Y227495D01*
X54248Y227258D01*
X54523Y227014D01*
X54793Y226764D01*
X55057Y226507D01*
X55314Y226243D01*
X55564Y225973D01*
X55808Y225698D01*
X56045Y225416D01*
X56275Y225128D01*
X56498Y224835D01*
X56714Y224537D01*
X56922Y224234D01*
X57123Y223925D01*
X57316Y223612D01*
X57501Y223293D01*
X57679Y222971D01*
X57848Y222644D01*
X58010Y222313D01*
X58163Y221979D01*
X58308Y221640D01*
X58445Y221298D01*
X58573Y220953D01*
X58693Y220605D01*
X58804Y220254D01*
X58907Y219901D01*
X59000Y219545D01*
X59086Y219187D01*
X59162Y218826D01*
X59229Y218464D01*
X59288Y218101D01*
X59337Y217736D01*
X59378Y217370D01*
X59409Y217003D01*
X59432Y216636D01*
X59445Y216268D01*
X59450Y215900D01*
X59445Y215532D01*
X59432Y215164D01*
X59409Y214797D01*
X59378Y214430D01*
X59337Y214064D01*
X59288Y213699D01*
X59229Y213336D01*
X59162Y212974D01*
X59086Y212613D01*
X59000Y212255D01*
X58907Y211899D01*
X58804Y211546D01*
X58693Y211195D01*
X58573Y210847D01*
X58445Y210502D01*
X58308Y210160D01*
X58163Y209821D01*
X58010Y209487D01*
X57848Y209156D01*
X57679Y208829D01*
X57501Y208507D01*
X57316Y208188D01*
X57123Y207875D01*
X56922Y207566D01*
X56714Y207263D01*
X56498Y206965D01*
X56275Y206672D01*
X56045Y206384D01*
X55808Y206102D01*
X55564Y205827D01*
X55314Y205557D01*
X55057Y205293D01*
X54793Y205036D01*
X54523Y204786D01*
X54248Y204542D01*
X53966Y204305D01*
X53678Y204075D01*
X53385Y203852D01*
X53087Y203636D01*
X52784Y203428D01*
X52475Y203227D01*
X52162Y203034D01*
X51843Y202849D01*
X51521Y202671D01*
X51194Y202502D01*
X50863Y202340D01*
X50529Y202187D01*
X50190Y202042D01*
X49848Y201905D01*
X49503Y201777D01*
X49155Y201657D01*
X48804Y201546D01*
X48451Y201443D01*
X48095Y201350D01*
X47737Y201264D01*
X47376Y201188D01*
X47014Y201121D01*
X46651Y201062D01*
X46286Y201013D01*
X45920Y200972D01*
X45553Y200941D01*
X45186Y200918D01*
X44818Y200905D01*
X44450Y200900D01*
X44082Y200905D01*
X43714Y200918D01*
X43347Y200941D01*
X42980Y200972D01*
X42614Y201013D01*
X42249Y201062D01*
X41886Y201121D01*
X41524Y201188D01*
X41163Y201264D01*
X40805Y201350D01*
X40449Y201443D01*
X40096Y201546D01*
X39745Y201657D01*
X39397Y201777D01*
X39052Y201905D01*
X38710Y202042D01*
X38371Y202187D01*
X38037Y202340D01*
X37706Y202502D01*
X37379Y202671D01*
X37057Y202849D01*
X36738Y203034D01*
X36425Y203227D01*
X36116Y203428D01*
X35813Y203636D01*
X35515Y203852D01*
X35222Y204075D01*
X34934Y204305D01*
X34652Y204542D01*
X34377Y204786D01*
X34107Y205036D01*
X33843Y205293D01*
X33586Y205557D01*
X33336Y205827D01*
X33092Y206102D01*
X32855Y206384D01*
X32625Y206672D01*
X32402Y206965D01*
X32186Y207263D01*
X31978Y207566D01*
X31777Y207875D01*
X31584Y208188D01*
X31399Y208507D01*
X31221Y208829D01*
X31052Y209156D01*
X30890Y209487D01*
X30737Y209821D01*
X30592Y210160D01*
X30455Y210502D01*
X30327Y210847D01*
X30207Y211195D01*
X30096Y211546D01*
X29993Y211899D01*
X29900Y212255D01*
X29814Y212613D01*
X29738Y212974D01*
X29671Y213336D01*
X29612Y213699D01*
X29563Y214064D01*
X29522Y214430D01*
X29491Y214797D01*
X29468Y215164D01*
X29455Y215532D01*
X29450Y215900D01*
X54850Y152400D02*
X54855Y152768D01*
X54868Y153136D01*
X54891Y153503D01*
X54922Y153870D01*
X54963Y154236D01*
X55012Y154601D01*
X55071Y154964D01*
X55138Y155326D01*
X55214Y155687D01*
X55300Y156045D01*
X55393Y156401D01*
X55496Y156754D01*
X55607Y157105D01*
X55727Y157453D01*
X55855Y157798D01*
X55992Y158140D01*
X56137Y158479D01*
X56290Y158813D01*
X56452Y159144D01*
X56621Y159471D01*
X56799Y159793D01*
X56984Y160112D01*
X57177Y160425D01*
X57378Y160734D01*
X57586Y161037D01*
X57802Y161335D01*
X58025Y161628D01*
X58255Y161916D01*
X58492Y162198D01*
X58736Y162473D01*
X58986Y162743D01*
X59243Y163007D01*
X59507Y163264D01*
X59777Y163514D01*
X60052Y163758D01*
X60334Y163995D01*
X60622Y164225D01*
X60915Y164448D01*
X61213Y164664D01*
X61516Y164872D01*
X61825Y165073D01*
X62138Y165266D01*
X62457Y165451D01*
X62779Y165629D01*
X63106Y165798D01*
X63437Y165960D01*
X63771Y166113D01*
X64110Y166258D01*
X64452Y166395D01*
X64797Y166523D01*
X65145Y166643D01*
X65496Y166754D01*
X65849Y166857D01*
X66205Y166950D01*
X66563Y167036D01*
X66924Y167112D01*
X67286Y167179D01*
X67649Y167238D01*
X68014Y167287D01*
X68380Y167328D01*
X68747Y167359D01*
X69114Y167382D01*
X69482Y167395D01*
X69850Y167400D01*
X70218Y167395D01*
X70586Y167382D01*
X70953Y167359D01*
X71320Y167328D01*
X71686Y167287D01*
X72051Y167238D01*
X72414Y167179D01*
X72776Y167112D01*
X73137Y167036D01*
X73495Y166950D01*
X73851Y166857D01*
X74204Y166754D01*
X74555Y166643D01*
X74903Y166523D01*
X75248Y166395D01*
X75590Y166258D01*
X75929Y166113D01*
X76263Y165960D01*
X76594Y165798D01*
X76921Y165629D01*
X77243Y165451D01*
X77562Y165266D01*
X77875Y165073D01*
X78184Y164872D01*
X78487Y164664D01*
X78785Y164448D01*
X79078Y164225D01*
X79366Y163995D01*
X79648Y163758D01*
X79923Y163514D01*
X80193Y163264D01*
X80457Y163007D01*
X80714Y162743D01*
X80964Y162473D01*
X81208Y162198D01*
X81445Y161916D01*
X81675Y161628D01*
X81898Y161335D01*
X82114Y161037D01*
X82322Y160734D01*
X82523Y160425D01*
X82716Y160112D01*
X82901Y159793D01*
X83079Y159471D01*
X83248Y159144D01*
X83410Y158813D01*
X83563Y158479D01*
X83708Y158140D01*
X83845Y157798D01*
X83973Y157453D01*
X84093Y157105D01*
X84204Y156754D01*
X84307Y156401D01*
X84400Y156045D01*
X84486Y155687D01*
X84562Y155326D01*
X84629Y154964D01*
X84688Y154601D01*
X84737Y154236D01*
X84778Y153870D01*
X84809Y153503D01*
X84832Y153136D01*
X84845Y152768D01*
X84850Y152400D01*
X84845Y152032D01*
X84832Y151664D01*
X84809Y151297D01*
X84778Y150930D01*
X84737Y150564D01*
X84688Y150199D01*
X84629Y149836D01*
X84562Y149474D01*
X84486Y149113D01*
X84400Y148755D01*
X84307Y148399D01*
X84204Y148046D01*
X84093Y147695D01*
X83973Y147347D01*
X83845Y147002D01*
X83708Y146660D01*
X83563Y146321D01*
X83410Y145987D01*
X83248Y145656D01*
X83079Y145329D01*
X82901Y145007D01*
X82716Y144688D01*
X82523Y144375D01*
X82322Y144066D01*
X82114Y143763D01*
X81898Y143465D01*
X81675Y143172D01*
X81445Y142884D01*
X81208Y142602D01*
X80964Y142327D01*
X80714Y142057D01*
X80457Y141793D01*
X80193Y141536D01*
X79923Y141286D01*
X79648Y141042D01*
X79366Y140805D01*
X79078Y140575D01*
X78785Y140352D01*
X78487Y140136D01*
X78184Y139928D01*
X77875Y139727D01*
X77562Y139534D01*
X77243Y139349D01*
X76921Y139171D01*
X76594Y139002D01*
X76263Y138840D01*
X75929Y138687D01*
X75590Y138542D01*
X75248Y138405D01*
X74903Y138277D01*
X74555Y138157D01*
X74204Y138046D01*
X73851Y137943D01*
X73495Y137850D01*
X73137Y137764D01*
X72776Y137688D01*
X72414Y137621D01*
X72051Y137562D01*
X71686Y137513D01*
X71320Y137472D01*
X70953Y137441D01*
X70586Y137418D01*
X70218Y137405D01*
X69850Y137400D01*
X69482Y137405D01*
X69114Y137418D01*
X68747Y137441D01*
X68380Y137472D01*
X68014Y137513D01*
X67649Y137562D01*
X67286Y137621D01*
X66924Y137688D01*
X66563Y137764D01*
X66205Y137850D01*
X65849Y137943D01*
X65496Y138046D01*
X65145Y138157D01*
X64797Y138277D01*
X64452Y138405D01*
X64110Y138542D01*
X63771Y138687D01*
X63437Y138840D01*
X63106Y139002D01*
X62779Y139171D01*
X62457Y139349D01*
X62138Y139534D01*
X61825Y139727D01*
X61516Y139928D01*
X61213Y140136D01*
X60915Y140352D01*
X60622Y140575D01*
X60334Y140805D01*
X60052Y141042D01*
X59777Y141286D01*
X59507Y141536D01*
X59243Y141793D01*
X58986Y142057D01*
X58736Y142327D01*
X58492Y142602D01*
X58255Y142884D01*
X58025Y143172D01*
X57802Y143465D01*
X57586Y143763D01*
X57378Y144066D01*
X57177Y144375D01*
X56984Y144688D01*
X56799Y145007D01*
X56621Y145329D01*
X56452Y145656D01*
X56290Y145987D01*
X56137Y146321D01*
X55992Y146660D01*
X55855Y147002D01*
X55727Y147347D01*
X55607Y147695D01*
X55496Y148046D01*
X55393Y148399D01*
X55300Y148755D01*
X55214Y149113D01*
X55138Y149474D01*
X55071Y149836D01*
X55012Y150199D01*
X54963Y150564D01*
X54922Y150930D01*
X54891Y151297D01*
X54868Y151664D01*
X54855Y152032D01*
X54850Y152400D01*
X75248Y190500D02*
X75254Y190991D01*
X75272Y191481D01*
X75302Y191971D01*
X75344Y192461D01*
X75398Y192948D01*
X75464Y193435D01*
X75542Y193920D01*
X75632Y194402D01*
X75734Y194882D01*
X75847Y195360D01*
X75973Y195835D01*
X76109Y196306D01*
X76258Y196774D01*
X76417Y197238D01*
X76588Y197699D01*
X76771Y198154D01*
X76964Y198606D01*
X77168Y199052D01*
X77384Y199493D01*
X77610Y199929D01*
X77847Y200359D01*
X78094Y200783D01*
X78351Y201201D01*
X78619Y201613D01*
X78897Y202017D01*
X79184Y202415D01*
X79481Y202806D01*
X79788Y203189D01*
X80104Y203565D01*
X80429Y203933D01*
X80764Y204292D01*
X81106Y204644D01*
X81458Y204986D01*
X81817Y205321D01*
X82185Y205646D01*
X82561Y205962D01*
X82944Y206269D01*
X83335Y206566D01*
X83733Y206853D01*
X84137Y207131D01*
X84549Y207399D01*
X84967Y207656D01*
X85391Y207903D01*
X85821Y208140D01*
X86257Y208366D01*
X86698Y208582D01*
X87144Y208786D01*
X87596Y208979D01*
X88051Y209162D01*
X88512Y209333D01*
X88976Y209492D01*
X89444Y209641D01*
X89915Y209777D01*
X90390Y209903D01*
X90868Y210016D01*
X91348Y210118D01*
X91830Y210208D01*
X92315Y210286D01*
X92802Y210352D01*
X93289Y210406D01*
X93779Y210448D01*
X94269Y210478D01*
X94759Y210496D01*
X95250Y210502D01*
X95741Y210496D01*
X96231Y210478D01*
X96721Y210448D01*
X97211Y210406D01*
X97698Y210352D01*
X98185Y210286D01*
X98670Y210208D01*
X99152Y210118D01*
X99632Y210016D01*
X100110Y209903D01*
X100585Y209777D01*
X101056Y209641D01*
X101524Y209492D01*
X101988Y209333D01*
X102449Y209162D01*
X102904Y208979D01*
X103356Y208786D01*
X103802Y208582D01*
X104243Y208366D01*
X104679Y208140D01*
X105109Y207903D01*
X105533Y207656D01*
X105951Y207399D01*
X106363Y207131D01*
X106767Y206853D01*
X107165Y206566D01*
X107556Y206269D01*
X107939Y205962D01*
X108315Y205646D01*
X108683Y205321D01*
X109042Y204986D01*
X109394Y204644D01*
X109736Y204292D01*
X110071Y203933D01*
X110396Y203565D01*
X110712Y203189D01*
X111019Y202806D01*
X111316Y202415D01*
X111603Y202017D01*
X111881Y201613D01*
X112149Y201201D01*
X112406Y200783D01*
X112653Y200359D01*
X112890Y199929D01*
X113116Y199493D01*
X113332Y199052D01*
X113536Y198606D01*
X113729Y198154D01*
X113912Y197699D01*
X114083Y197238D01*
X114242Y196774D01*
X114391Y196306D01*
X114527Y195835D01*
X114653Y195360D01*
X114766Y194882D01*
X114868Y194402D01*
X114958Y193920D01*
X115036Y193435D01*
X115102Y192948D01*
X115156Y192461D01*
X115198Y191971D01*
X115228Y191481D01*
X115246Y190991D01*
X115252Y190500D01*
X115246Y190009D01*
X115228Y189519D01*
X115198Y189029D01*
X115156Y188539D01*
X115102Y188052D01*
X115036Y187565D01*
X114958Y187080D01*
X114868Y186598D01*
X114766Y186118D01*
X114653Y185640D01*
X114527Y185165D01*
X114391Y184694D01*
X114242Y184226D01*
X114083Y183762D01*
X113912Y183301D01*
X113729Y182846D01*
X113536Y182394D01*
X113332Y181948D01*
X113116Y181507D01*
X112890Y181071D01*
X112653Y180641D01*
X112406Y180217D01*
X112149Y179799D01*
X111881Y179387D01*
X111603Y178983D01*
X111316Y178585D01*
X111019Y178194D01*
X110712Y177811D01*
X110396Y177435D01*
X110071Y177067D01*
X109736Y176708D01*
X109394Y176356D01*
X109042Y176014D01*
X108683Y175679D01*
X108315Y175354D01*
X107939Y175038D01*
X107556Y174731D01*
X107165Y174434D01*
X106767Y174147D01*
X106363Y173869D01*
X105951Y173601D01*
X105533Y173344D01*
X105109Y173097D01*
X104679Y172860D01*
X104243Y172634D01*
X103802Y172418D01*
X103356Y172214D01*
X102904Y172021D01*
X102449Y171838D01*
X101988Y171667D01*
X101524Y171508D01*
X101056Y171359D01*
X100585Y171223D01*
X100110Y171097D01*
X99632Y170984D01*
X99152Y170882D01*
X98670Y170792D01*
X98185Y170714D01*
X97698Y170648D01*
X97211Y170594D01*
X96721Y170552D01*
X96231Y170522D01*
X95741Y170504D01*
X95250Y170498D01*
X94759Y170504D01*
X94269Y170522D01*
X93779Y170552D01*
X93289Y170594D01*
X92802Y170648D01*
X92315Y170714D01*
X91830Y170792D01*
X91348Y170882D01*
X90868Y170984D01*
X90390Y171097D01*
X89915Y171223D01*
X89444Y171359D01*
X88976Y171508D01*
X88512Y171667D01*
X88051Y171838D01*
X87596Y172021D01*
X87144Y172214D01*
X86698Y172418D01*
X86257Y172634D01*
X85821Y172860D01*
X85391Y173097D01*
X84967Y173344D01*
X84549Y173601D01*
X84137Y173869D01*
X83733Y174147D01*
X83335Y174434D01*
X82944Y174731D01*
X82561Y175038D01*
X82185Y175354D01*
X81817Y175679D01*
X81458Y176014D01*
X81106Y176356D01*
X80764Y176708D01*
X80429Y177067D01*
X80104Y177435D01*
X79788Y177811D01*
X79481Y178194D01*
X79184Y178585D01*
X78897Y178983D01*
X78619Y179387D01*
X78351Y179799D01*
X78094Y180217D01*
X77847Y180641D01*
X77610Y181071D01*
X77384Y181507D01*
X77168Y181948D01*
X76964Y182394D01*
X76771Y182846D01*
X76588Y183301D01*
X76417Y183762D01*
X76258Y184226D01*
X76109Y184694D01*
X75973Y185165D01*
X75847Y185640D01*
X75734Y186118D01*
X75632Y186598D01*
X75542Y187080D01*
X75464Y187565D01*
X75398Y188052D01*
X75344Y188539D01*
X75302Y189029D01*
X75272Y189519D01*
X75254Y190009D01*
X75248Y190500D01*
X86750Y241300D02*
X86753Y241509D01*
X86760Y241717D01*
X86773Y241925D01*
X86791Y242133D01*
X86814Y242340D01*
X86842Y242547D01*
X86875Y242753D01*
X86913Y242958D01*
X86957Y243162D01*
X87005Y243365D01*
X87058Y243567D01*
X87116Y243767D01*
X87179Y243966D01*
X87247Y244164D01*
X87320Y244359D01*
X87397Y244553D01*
X87479Y244745D01*
X87566Y244934D01*
X87658Y245122D01*
X87754Y245307D01*
X87854Y245490D01*
X87959Y245670D01*
X88069Y245847D01*
X88183Y246022D01*
X88301Y246194D01*
X88423Y246363D01*
X88549Y246529D01*
X88679Y246692D01*
X88814Y246852D01*
X88952Y247008D01*
X89094Y247161D01*
X89240Y247310D01*
X89389Y247456D01*
X89542Y247598D01*
X89698Y247736D01*
X89858Y247871D01*
X90021Y248001D01*
X90187Y248127D01*
X90356Y248249D01*
X90528Y248367D01*
X90703Y248481D01*
X90880Y248591D01*
X91060Y248696D01*
X91243Y248796D01*
X91428Y248892D01*
X91616Y248984D01*
X91805Y249071D01*
X91997Y249153D01*
X92191Y249230D01*
X92386Y249303D01*
X92584Y249371D01*
X92783Y249434D01*
X92983Y249492D01*
X93185Y249545D01*
X93388Y249593D01*
X93592Y249637D01*
X93797Y249675D01*
X94003Y249708D01*
X94210Y249736D01*
X94417Y249759D01*
X94625Y249777D01*
X94833Y249790D01*
X95041Y249797D01*
X95250Y249800D01*
X95459Y249797D01*
X95667Y249790D01*
X95875Y249777D01*
X96083Y249759D01*
X96290Y249736D01*
X96497Y249708D01*
X96703Y249675D01*
X96908Y249637D01*
X97112Y249593D01*
X97315Y249545D01*
X97517Y249492D01*
X97717Y249434D01*
X97916Y249371D01*
X98114Y249303D01*
X98309Y249230D01*
X98503Y249153D01*
X98695Y249071D01*
X98884Y248984D01*
X99072Y248892D01*
X99257Y248796D01*
X99440Y248696D01*
X99620Y248591D01*
X99797Y248481D01*
X99972Y248367D01*
X100144Y248249D01*
X100313Y248127D01*
X100479Y248001D01*
X100642Y247871D01*
X100802Y247736D01*
X100958Y247598D01*
X101111Y247456D01*
X101260Y247310D01*
X101406Y247161D01*
X101548Y247008D01*
X101686Y246852D01*
X101821Y246692D01*
X101951Y246529D01*
X102077Y246363D01*
X102199Y246194D01*
X102317Y246022D01*
X102431Y245847D01*
X102541Y245670D01*
X102646Y245490D01*
X102746Y245307D01*
X102842Y245122D01*
X102934Y244934D01*
X103021Y244745D01*
X103103Y244553D01*
X103180Y244359D01*
X103253Y244164D01*
X103321Y243966D01*
X103384Y243767D01*
X103442Y243567D01*
X103495Y243365D01*
X103543Y243162D01*
X103587Y242958D01*
X103625Y242753D01*
X103658Y242547D01*
X103686Y242340D01*
X103709Y242133D01*
X103727Y241925D01*
X103740Y241717D01*
X103747Y241509D01*
X103750Y241300D01*
X103747Y241091D01*
X103740Y240883D01*
X103727Y240675D01*
X103709Y240467D01*
X103686Y240260D01*
X103658Y240053D01*
X103625Y239847D01*
X103587Y239642D01*
X103543Y239438D01*
X103495Y239235D01*
X103442Y239033D01*
X103384Y238833D01*
X103321Y238634D01*
X103253Y238436D01*
X103180Y238241D01*
X103103Y238047D01*
X103021Y237855D01*
X102934Y237666D01*
X102842Y237478D01*
X102746Y237293D01*
X102646Y237110D01*
X102541Y236930D01*
X102431Y236753D01*
X102317Y236578D01*
X102199Y236406D01*
X102077Y236237D01*
X101951Y236071D01*
X101821Y235908D01*
X101686Y235748D01*
X101548Y235592D01*
X101406Y235439D01*
X101260Y235290D01*
X101111Y235144D01*
X100958Y235002D01*
X100802Y234864D01*
X100642Y234729D01*
X100479Y234599D01*
X100313Y234473D01*
X100144Y234351D01*
X99972Y234233D01*
X99797Y234119D01*
X99620Y234009D01*
X99440Y233904D01*
X99257Y233804D01*
X99072Y233708D01*
X98884Y233616D01*
X98695Y233529D01*
X98503Y233447D01*
X98309Y233370D01*
X98114Y233297D01*
X97916Y233229D01*
X97717Y233166D01*
X97517Y233108D01*
X97315Y233055D01*
X97112Y233007D01*
X96908Y232963D01*
X96703Y232925D01*
X96497Y232892D01*
X96290Y232864D01*
X96083Y232841D01*
X95875Y232823D01*
X95667Y232810D01*
X95459Y232803D01*
X95250Y232800D01*
X95041Y232803D01*
X94833Y232810D01*
X94625Y232823D01*
X94417Y232841D01*
X94210Y232864D01*
X94003Y232892D01*
X93797Y232925D01*
X93592Y232963D01*
X93388Y233007D01*
X93185Y233055D01*
X92983Y233108D01*
X92783Y233166D01*
X92584Y233229D01*
X92386Y233297D01*
X92191Y233370D01*
X91997Y233447D01*
X91805Y233529D01*
X91616Y233616D01*
X91428Y233708D01*
X91243Y233804D01*
X91060Y233904D01*
X90880Y234009D01*
X90703Y234119D01*
X90528Y234233D01*
X90356Y234351D01*
X90187Y234473D01*
X90021Y234599D01*
X89858Y234729D01*
X89698Y234864D01*
X89542Y235002D01*
X89389Y235144D01*
X89240Y235290D01*
X89094Y235439D01*
X88952Y235592D01*
X88814Y235748D01*
X88679Y235908D01*
X88549Y236071D01*
X88423Y236237D01*
X88301Y236406D01*
X88183Y236578D01*
X88069Y236753D01*
X87959Y236930D01*
X87854Y237110D01*
X87754Y237293D01*
X87658Y237478D01*
X87566Y237666D01*
X87479Y237855D01*
X87397Y238047D01*
X87320Y238241D01*
X87247Y238436D01*
X87179Y238634D01*
X87116Y238833D01*
X87058Y239033D01*
X87005Y239235D01*
X86957Y239438D01*
X86913Y239642D01*
X86875Y239847D01*
X86842Y240053D01*
X86814Y240260D01*
X86791Y240467D01*
X86773Y240675D01*
X86760Y240883D01*
X86753Y241091D01*
X86750Y241300D01*
X86750Y139700D02*
X86753Y139909D01*
X86760Y140117D01*
X86773Y140325D01*
X86791Y140533D01*
X86814Y140740D01*
X86842Y140947D01*
X86875Y141153D01*
X86913Y141358D01*
X86957Y141562D01*
X87005Y141765D01*
X87058Y141967D01*
X87116Y142167D01*
X87179Y142366D01*
X87247Y142564D01*
X87320Y142759D01*
X87397Y142953D01*
X87479Y143145D01*
X87566Y143334D01*
X87658Y143522D01*
X87754Y143707D01*
X87854Y143890D01*
X87959Y144070D01*
X88069Y144247D01*
X88183Y144422D01*
X88301Y144594D01*
X88423Y144763D01*
X88549Y144929D01*
X88679Y145092D01*
X88814Y145252D01*
X88952Y145408D01*
X89094Y145561D01*
X89240Y145710D01*
X89389Y145856D01*
X89542Y145998D01*
X89698Y146136D01*
X89858Y146271D01*
X90021Y146401D01*
X90187Y146527D01*
X90356Y146649D01*
X90528Y146767D01*
X90703Y146881D01*
X90880Y146991D01*
X91060Y147096D01*
X91243Y147196D01*
X91428Y147292D01*
X91616Y147384D01*
X91805Y147471D01*
X91997Y147553D01*
X92191Y147630D01*
X92386Y147703D01*
X92584Y147771D01*
X92783Y147834D01*
X92983Y147892D01*
X93185Y147945D01*
X93388Y147993D01*
X93592Y148037D01*
X93797Y148075D01*
X94003Y148108D01*
X94210Y148136D01*
X94417Y148159D01*
X94625Y148177D01*
X94833Y148190D01*
X95041Y148197D01*
X95250Y148200D01*
X95459Y148197D01*
X95667Y148190D01*
X95875Y148177D01*
X96083Y148159D01*
X96290Y148136D01*
X96497Y148108D01*
X96703Y148075D01*
X96908Y148037D01*
X97112Y147993D01*
X97315Y147945D01*
X97517Y147892D01*
X97717Y147834D01*
X97916Y147771D01*
X98114Y147703D01*
X98309Y147630D01*
X98503Y147553D01*
X98695Y147471D01*
X98884Y147384D01*
X99072Y147292D01*
X99257Y147196D01*
X99440Y147096D01*
X99620Y146991D01*
X99797Y146881D01*
X99972Y146767D01*
X100144Y146649D01*
X100313Y146527D01*
X100479Y146401D01*
X100642Y146271D01*
X100802Y146136D01*
X100958Y145998D01*
X101111Y145856D01*
X101260Y145710D01*
X101406Y145561D01*
X101548Y145408D01*
X101686Y145252D01*
X101821Y145092D01*
X101951Y144929D01*
X102077Y144763D01*
X102199Y144594D01*
X102317Y144422D01*
X102431Y144247D01*
X102541Y144070D01*
X102646Y143890D01*
X102746Y143707D01*
X102842Y143522D01*
X102934Y143334D01*
X103021Y143145D01*
X103103Y142953D01*
X103180Y142759D01*
X103253Y142564D01*
X103321Y142366D01*
X103384Y142167D01*
X103442Y141967D01*
X103495Y141765D01*
X103543Y141562D01*
X103587Y141358D01*
X103625Y141153D01*
X103658Y140947D01*
X103686Y140740D01*
X103709Y140533D01*
X103727Y140325D01*
X103740Y140117D01*
X103747Y139909D01*
X103750Y139700D01*
X103747Y139491D01*
X103740Y139283D01*
X103727Y139075D01*
X103709Y138867D01*
X103686Y138660D01*
X103658Y138453D01*
X103625Y138247D01*
X103587Y138042D01*
X103543Y137838D01*
X103495Y137635D01*
X103442Y137433D01*
X103384Y137233D01*
X103321Y137034D01*
X103253Y136836D01*
X103180Y136641D01*
X103103Y136447D01*
X103021Y136255D01*
X102934Y136066D01*
X102842Y135878D01*
X102746Y135693D01*
X102646Y135510D01*
X102541Y135330D01*
X102431Y135153D01*
X102317Y134978D01*
X102199Y134806D01*
X102077Y134637D01*
X101951Y134471D01*
X101821Y134308D01*
X101686Y134148D01*
X101548Y133992D01*
X101406Y133839D01*
X101260Y133690D01*
X101111Y133544D01*
X100958Y133402D01*
X100802Y133264D01*
X100642Y133129D01*
X100479Y132999D01*
X100313Y132873D01*
X100144Y132751D01*
X99972Y132633D01*
X99797Y132519D01*
X99620Y132409D01*
X99440Y132304D01*
X99257Y132204D01*
X99072Y132108D01*
X98884Y132016D01*
X98695Y131929D01*
X98503Y131847D01*
X98309Y131770D01*
X98114Y131697D01*
X97916Y131629D01*
X97717Y131566D01*
X97517Y131508D01*
X97315Y131455D01*
X97112Y131407D01*
X96908Y131363D01*
X96703Y131325D01*
X96497Y131292D01*
X96290Y131264D01*
X96083Y131241D01*
X95875Y131223D01*
X95667Y131210D01*
X95459Y131203D01*
X95250Y131200D01*
X95041Y131203D01*
X94833Y131210D01*
X94625Y131223D01*
X94417Y131241D01*
X94210Y131264D01*
X94003Y131292D01*
X93797Y131325D01*
X93592Y131363D01*
X93388Y131407D01*
X93185Y131455D01*
X92983Y131508D01*
X92783Y131566D01*
X92584Y131629D01*
X92386Y131697D01*
X92191Y131770D01*
X91997Y131847D01*
X91805Y131929D01*
X91616Y132016D01*
X91428Y132108D01*
X91243Y132204D01*
X91060Y132304D01*
X90880Y132409D01*
X90703Y132519D01*
X90528Y132633D01*
X90356Y132751D01*
X90187Y132873D01*
X90021Y132999D01*
X89858Y133129D01*
X89698Y133264D01*
X89542Y133402D01*
X89389Y133544D01*
X89240Y133690D01*
X89094Y133839D01*
X88952Y133992D01*
X88814Y134148D01*
X88679Y134308D01*
X88549Y134471D01*
X88423Y134637D01*
X88301Y134806D01*
X88183Y134978D01*
X88069Y135153D01*
X87959Y135330D01*
X87854Y135510D01*
X87754Y135693D01*
X87658Y135878D01*
X87566Y136066D01*
X87479Y136255D01*
X87397Y136447D01*
X87320Y136641D01*
X87247Y136836D01*
X87179Y137034D01*
X87116Y137233D01*
X87058Y137433D01*
X87005Y137635D01*
X86957Y137838D01*
X86913Y138042D01*
X86875Y138247D01*
X86842Y138453D01*
X86814Y138660D01*
X86791Y138867D01*
X86773Y139075D01*
X86760Y139283D01*
X86753Y139491D01*
X86750Y139700D01*
X29450Y25400D02*
X29455Y25768D01*
X29468Y26136D01*
X29491Y26503D01*
X29522Y26870D01*
X29563Y27236D01*
X29612Y27601D01*
X29671Y27964D01*
X29738Y28326D01*
X29814Y28687D01*
X29900Y29045D01*
X29993Y29401D01*
X30096Y29754D01*
X30207Y30105D01*
X30327Y30453D01*
X30455Y30798D01*
X30592Y31140D01*
X30737Y31479D01*
X30890Y31813D01*
X31052Y32144D01*
X31221Y32471D01*
X31399Y32793D01*
X31584Y33112D01*
X31777Y33425D01*
X31978Y33734D01*
X32186Y34037D01*
X32402Y34335D01*
X32625Y34628D01*
X32855Y34916D01*
X33092Y35198D01*
X33336Y35473D01*
X33586Y35743D01*
X33843Y36007D01*
X34107Y36264D01*
X34377Y36514D01*
X34652Y36758D01*
X34934Y36995D01*
X35222Y37225D01*
X35515Y37448D01*
X35813Y37664D01*
X36116Y37872D01*
X36425Y38073D01*
X36738Y38266D01*
X37057Y38451D01*
X37379Y38629D01*
X37706Y38798D01*
X38037Y38960D01*
X38371Y39113D01*
X38710Y39258D01*
X39052Y39395D01*
X39397Y39523D01*
X39745Y39643D01*
X40096Y39754D01*
X40449Y39857D01*
X40805Y39950D01*
X41163Y40036D01*
X41524Y40112D01*
X41886Y40179D01*
X42249Y40238D01*
X42614Y40287D01*
X42980Y40328D01*
X43347Y40359D01*
X43714Y40382D01*
X44082Y40395D01*
X44450Y40400D01*
X44818Y40395D01*
X45186Y40382D01*
X45553Y40359D01*
X45920Y40328D01*
X46286Y40287D01*
X46651Y40238D01*
X47014Y40179D01*
X47376Y40112D01*
X47737Y40036D01*
X48095Y39950D01*
X48451Y39857D01*
X48804Y39754D01*
X49155Y39643D01*
X49503Y39523D01*
X49848Y39395D01*
X50190Y39258D01*
X50529Y39113D01*
X50863Y38960D01*
X51194Y38798D01*
X51521Y38629D01*
X51843Y38451D01*
X52162Y38266D01*
X52475Y38073D01*
X52784Y37872D01*
X53087Y37664D01*
X53385Y37448D01*
X53678Y37225D01*
X53966Y36995D01*
X54248Y36758D01*
X54523Y36514D01*
X54793Y36264D01*
X55057Y36007D01*
X55314Y35743D01*
X55564Y35473D01*
X55808Y35198D01*
X56045Y34916D01*
X56275Y34628D01*
X56498Y34335D01*
X56714Y34037D01*
X56922Y33734D01*
X57123Y33425D01*
X57316Y33112D01*
X57501Y32793D01*
X57679Y32471D01*
X57848Y32144D01*
X58010Y31813D01*
X58163Y31479D01*
X58308Y31140D01*
X58445Y30798D01*
X58573Y30453D01*
X58693Y30105D01*
X58804Y29754D01*
X58907Y29401D01*
X59000Y29045D01*
X59086Y28687D01*
X59162Y28326D01*
X59229Y27964D01*
X59288Y27601D01*
X59337Y27236D01*
X59378Y26870D01*
X59409Y26503D01*
X59432Y26136D01*
X59445Y25768D01*
X59450Y25400D01*
X59445Y25032D01*
X59432Y24664D01*
X59409Y24297D01*
X59378Y23930D01*
X59337Y23564D01*
X59288Y23199D01*
X59229Y22836D01*
X59162Y22474D01*
X59086Y22113D01*
X59000Y21755D01*
X58907Y21399D01*
X58804Y21046D01*
X58693Y20695D01*
X58573Y20347D01*
X58445Y20002D01*
X58308Y19660D01*
X58163Y19321D01*
X58010Y18987D01*
X57848Y18656D01*
X57679Y18329D01*
X57501Y18007D01*
X57316Y17688D01*
X57123Y17375D01*
X56922Y17066D01*
X56714Y16763D01*
X56498Y16465D01*
X56275Y16172D01*
X56045Y15884D01*
X55808Y15602D01*
X55564Y15327D01*
X55314Y15057D01*
X55057Y14793D01*
X54793Y14536D01*
X54523Y14286D01*
X54248Y14042D01*
X53966Y13805D01*
X53678Y13575D01*
X53385Y13352D01*
X53087Y13136D01*
X52784Y12928D01*
X52475Y12727D01*
X52162Y12534D01*
X51843Y12349D01*
X51521Y12171D01*
X51194Y12002D01*
X50863Y11840D01*
X50529Y11687D01*
X50190Y11542D01*
X49848Y11405D01*
X49503Y11277D01*
X49155Y11157D01*
X48804Y11046D01*
X48451Y10943D01*
X48095Y10850D01*
X47737Y10764D01*
X47376Y10688D01*
X47014Y10621D01*
X46651Y10562D01*
X46286Y10513D01*
X45920Y10472D01*
X45553Y10441D01*
X45186Y10418D01*
X44818Y10405D01*
X44450Y10400D01*
X44082Y10405D01*
X43714Y10418D01*
X43347Y10441D01*
X42980Y10472D01*
X42614Y10513D01*
X42249Y10562D01*
X41886Y10621D01*
X41524Y10688D01*
X41163Y10764D01*
X40805Y10850D01*
X40449Y10943D01*
X40096Y11046D01*
X39745Y11157D01*
X39397Y11277D01*
X39052Y11405D01*
X38710Y11542D01*
X38371Y11687D01*
X38037Y11840D01*
X37706Y12002D01*
X37379Y12171D01*
X37057Y12349D01*
X36738Y12534D01*
X36425Y12727D01*
X36116Y12928D01*
X35813Y13136D01*
X35515Y13352D01*
X35222Y13575D01*
X34934Y13805D01*
X34652Y14042D01*
X34377Y14286D01*
X34107Y14536D01*
X33843Y14793D01*
X33586Y15057D01*
X33336Y15327D01*
X33092Y15602D01*
X32855Y15884D01*
X32625Y16172D01*
X32402Y16465D01*
X32186Y16763D01*
X31978Y17066D01*
X31777Y17375D01*
X31584Y17688D01*
X31399Y18007D01*
X31221Y18329D01*
X31052Y18656D01*
X30890Y18987D01*
X30737Y19321D01*
X30592Y19660D01*
X30455Y20002D01*
X30327Y20347D01*
X30207Y20695D01*
X30096Y21046D01*
X29993Y21399D01*
X29900Y21755D01*
X29814Y22113D01*
X29738Y22474D01*
X29671Y22836D01*
X29612Y23199D01*
X29563Y23564D01*
X29522Y23930D01*
X29491Y24297D01*
X29468Y24664D01*
X29455Y25032D01*
X29450Y25400D01*
X54850Y-38100D02*
X54855Y-37732D01*
X54868Y-37364D01*
X54891Y-36997D01*
X54922Y-36630D01*
X54963Y-36264D01*
X55012Y-35899D01*
X55071Y-35536D01*
X55138Y-35174D01*
X55214Y-34813D01*
X55300Y-34455D01*
X55393Y-34099D01*
X55496Y-33746D01*
X55607Y-33395D01*
X55727Y-33047D01*
X55855Y-32702D01*
X55992Y-32360D01*
X56137Y-32021D01*
X56290Y-31687D01*
X56452Y-31356D01*
X56621Y-31029D01*
X56799Y-30707D01*
X56984Y-30388D01*
X57177Y-30075D01*
X57378Y-29766D01*
X57586Y-29463D01*
X57802Y-29165D01*
X58025Y-28872D01*
X58255Y-28584D01*
X58492Y-28302D01*
X58736Y-28027D01*
X58986Y-27757D01*
X59243Y-27493D01*
X59507Y-27236D01*
X59777Y-26986D01*
X60052Y-26742D01*
X60334Y-26505D01*
X60622Y-26275D01*
X60915Y-26052D01*
X61213Y-25836D01*
X61516Y-25628D01*
X61825Y-25427D01*
X62138Y-25234D01*
X62457Y-25049D01*
X62779Y-24871D01*
X63106Y-24702D01*
X63437Y-24540D01*
X63771Y-24387D01*
X64110Y-24242D01*
X64452Y-24105D01*
X64797Y-23977D01*
X65145Y-23857D01*
X65496Y-23746D01*
X65849Y-23643D01*
X66205Y-23550D01*
X66563Y-23464D01*
X66924Y-23388D01*
X67286Y-23321D01*
X67649Y-23262D01*
X68014Y-23213D01*
X68380Y-23172D01*
X68747Y-23141D01*
X69114Y-23118D01*
X69482Y-23105D01*
X69850Y-23100D01*
X70218Y-23105D01*
X70586Y-23118D01*
X70953Y-23141D01*
X71320Y-23172D01*
X71686Y-23213D01*
X72051Y-23262D01*
X72414Y-23321D01*
X72776Y-23388D01*
X73137Y-23464D01*
X73495Y-23550D01*
X73851Y-23643D01*
X74204Y-23746D01*
X74555Y-23857D01*
X74903Y-23977D01*
X75248Y-24105D01*
X75590Y-24242D01*
X75929Y-24387D01*
X76263Y-24540D01*
X76594Y-24702D01*
X76921Y-24871D01*
X77243Y-25049D01*
X77562Y-25234D01*
X77875Y-25427D01*
X78184Y-25628D01*
X78487Y-25836D01*
X78785Y-26052D01*
X79078Y-26275D01*
X79366Y-26505D01*
X79648Y-26742D01*
X79923Y-26986D01*
X80193Y-27236D01*
X80457Y-27493D01*
X80714Y-27757D01*
X80964Y-28027D01*
X81208Y-28302D01*
X81445Y-28584D01*
X81675Y-28872D01*
X81898Y-29165D01*
X82114Y-29463D01*
X82322Y-29766D01*
X82523Y-30075D01*
X82716Y-30388D01*
X82901Y-30707D01*
X83079Y-31029D01*
X83248Y-31356D01*
X83410Y-31687D01*
X83563Y-32021D01*
X83708Y-32360D01*
X83845Y-32702D01*
X83973Y-33047D01*
X84093Y-33395D01*
X84204Y-33746D01*
X84307Y-34099D01*
X84400Y-34455D01*
X84486Y-34813D01*
X84562Y-35174D01*
X84629Y-35536D01*
X84688Y-35899D01*
X84737Y-36264D01*
X84778Y-36630D01*
X84809Y-36997D01*
X84832Y-37364D01*
X84845Y-37732D01*
X84850Y-38100D01*
X84845Y-38468D01*
X84832Y-38836D01*
X84809Y-39203D01*
X84778Y-39570D01*
X84737Y-39936D01*
X84688Y-40301D01*
X84629Y-40664D01*
X84562Y-41026D01*
X84486Y-41387D01*
X84400Y-41745D01*
X84307Y-42101D01*
X84204Y-42454D01*
X84093Y-42805D01*
X83973Y-43153D01*
X83845Y-43498D01*
X83708Y-43840D01*
X83563Y-44179D01*
X83410Y-44513D01*
X83248Y-44844D01*
X83079Y-45171D01*
X82901Y-45493D01*
X82716Y-45812D01*
X82523Y-46125D01*
X82322Y-46434D01*
X82114Y-46737D01*
X81898Y-47035D01*
X81675Y-47328D01*
X81445Y-47616D01*
X81208Y-47898D01*
X80964Y-48173D01*
X80714Y-48443D01*
X80457Y-48707D01*
X80193Y-48964D01*
X79923Y-49214D01*
X79648Y-49458D01*
X79366Y-49695D01*
X79078Y-49925D01*
X78785Y-50148D01*
X78487Y-50364D01*
X78184Y-50572D01*
X77875Y-50773D01*
X77562Y-50966D01*
X77243Y-51151D01*
X76921Y-51329D01*
X76594Y-51498D01*
X76263Y-51660D01*
X75929Y-51813D01*
X75590Y-51958D01*
X75248Y-52095D01*
X74903Y-52223D01*
X74555Y-52343D01*
X74204Y-52454D01*
X73851Y-52557D01*
X73495Y-52650D01*
X73137Y-52736D01*
X72776Y-52812D01*
X72414Y-52879D01*
X72051Y-52938D01*
X71686Y-52987D01*
X71320Y-53028D01*
X70953Y-53059D01*
X70586Y-53082D01*
X70218Y-53095D01*
X69850Y-53100D01*
X69482Y-53095D01*
X69114Y-53082D01*
X68747Y-53059D01*
X68380Y-53028D01*
X68014Y-52987D01*
X67649Y-52938D01*
X67286Y-52879D01*
X66924Y-52812D01*
X66563Y-52736D01*
X66205Y-52650D01*
X65849Y-52557D01*
X65496Y-52454D01*
X65145Y-52343D01*
X64797Y-52223D01*
X64452Y-52095D01*
X64110Y-51958D01*
X63771Y-51813D01*
X63437Y-51660D01*
X63106Y-51498D01*
X62779Y-51329D01*
X62457Y-51151D01*
X62138Y-50966D01*
X61825Y-50773D01*
X61516Y-50572D01*
X61213Y-50364D01*
X60915Y-50148D01*
X60622Y-49925D01*
X60334Y-49695D01*
X60052Y-49458D01*
X59777Y-49214D01*
X59507Y-48964D01*
X59243Y-48707D01*
X58986Y-48443D01*
X58736Y-48173D01*
X58492Y-47898D01*
X58255Y-47616D01*
X58025Y-47328D01*
X57802Y-47035D01*
X57586Y-46737D01*
X57378Y-46434D01*
X57177Y-46125D01*
X56984Y-45812D01*
X56799Y-45493D01*
X56621Y-45171D01*
X56452Y-44844D01*
X56290Y-44513D01*
X56137Y-44179D01*
X55992Y-43840D01*
X55855Y-43498D01*
X55727Y-43153D01*
X55607Y-42805D01*
X55496Y-42454D01*
X55393Y-42101D01*
X55300Y-41745D01*
X55214Y-41387D01*
X55138Y-41026D01*
X55071Y-40664D01*
X55012Y-40301D01*
X54963Y-39936D01*
X54922Y-39570D01*
X54891Y-39203D01*
X54868Y-38836D01*
X54855Y-38468D01*
X54850Y-38100D01*
X75248Y0D02*
X75254Y491D01*
X75272Y981D01*
X75302Y1471D01*
X75344Y1961D01*
X75398Y2448D01*
X75464Y2935D01*
X75542Y3420D01*
X75632Y3902D01*
X75734Y4382D01*
X75847Y4860D01*
X75973Y5335D01*
X76109Y5806D01*
X76258Y6274D01*
X76417Y6738D01*
X76588Y7199D01*
X76771Y7654D01*
X76964Y8106D01*
X77168Y8552D01*
X77384Y8993D01*
X77610Y9429D01*
X77847Y9859D01*
X78094Y10283D01*
X78351Y10701D01*
X78619Y11113D01*
X78897Y11517D01*
X79184Y11915D01*
X79481Y12306D01*
X79788Y12689D01*
X80104Y13065D01*
X80429Y13433D01*
X80764Y13792D01*
X81106Y14144D01*
X81458Y14486D01*
X81817Y14821D01*
X82185Y15146D01*
X82561Y15462D01*
X82944Y15769D01*
X83335Y16066D01*
X83733Y16353D01*
X84137Y16631D01*
X84549Y16899D01*
X84967Y17156D01*
X85391Y17403D01*
X85821Y17640D01*
X86257Y17866D01*
X86698Y18082D01*
X87144Y18286D01*
X87596Y18479D01*
X88051Y18662D01*
X88512Y18833D01*
X88976Y18992D01*
X89444Y19141D01*
X89915Y19277D01*
X90390Y19403D01*
X90868Y19516D01*
X91348Y19618D01*
X91830Y19708D01*
X92315Y19786D01*
X92802Y19852D01*
X93289Y19906D01*
X93779Y19948D01*
X94269Y19978D01*
X94759Y19996D01*
X95250Y20002D01*
X95741Y19996D01*
X96231Y19978D01*
X96721Y19948D01*
X97211Y19906D01*
X97698Y19852D01*
X98185Y19786D01*
X98670Y19708D01*
X99152Y19618D01*
X99632Y19516D01*
X100110Y19403D01*
X100585Y19277D01*
X101056Y19141D01*
X101524Y18992D01*
X101988Y18833D01*
X102449Y18662D01*
X102904Y18479D01*
X103356Y18286D01*
X103802Y18082D01*
X104243Y17866D01*
X104679Y17640D01*
X105109Y17403D01*
X105533Y17156D01*
X105951Y16899D01*
X106363Y16631D01*
X106767Y16353D01*
X107165Y16066D01*
X107556Y15769D01*
X107939Y15462D01*
X108315Y15146D01*
X108683Y14821D01*
X109042Y14486D01*
X109394Y14144D01*
X109736Y13792D01*
X110071Y13433D01*
X110396Y13065D01*
X110712Y12689D01*
X111019Y12306D01*
X111316Y11915D01*
X111603Y11517D01*
X111881Y11113D01*
X112149Y10701D01*
X112406Y10283D01*
X112653Y9859D01*
X112890Y9429D01*
X113116Y8993D01*
X113332Y8552D01*
X113536Y8106D01*
X113729Y7654D01*
X113912Y7199D01*
X114083Y6738D01*
X114242Y6274D01*
X114391Y5806D01*
X114527Y5335D01*
X114653Y4860D01*
X114766Y4382D01*
X114868Y3902D01*
X114958Y3420D01*
X115036Y2935D01*
X115102Y2448D01*
X115156Y1961D01*
X115198Y1471D01*
X115228Y981D01*
X115246Y491D01*
X115252Y0D01*
X115246Y-491D01*
X115228Y-981D01*
X115198Y-1471D01*
X115156Y-1961D01*
X115102Y-2448D01*
X115036Y-2935D01*
X114958Y-3420D01*
X114868Y-3902D01*
X114766Y-4382D01*
X114653Y-4860D01*
X114527Y-5335D01*
X114391Y-5806D01*
X114242Y-6274D01*
X114083Y-6738D01*
X113912Y-7199D01*
X113729Y-7654D01*
X113536Y-8106D01*
X113332Y-8552D01*
X113116Y-8993D01*
X112890Y-9429D01*
X112653Y-9859D01*
X112406Y-10283D01*
X112149Y-10701D01*
X111881Y-11113D01*
X111603Y-11517D01*
X111316Y-11915D01*
X111019Y-12306D01*
X110712Y-12689D01*
X110396Y-13065D01*
X110071Y-13433D01*
X109736Y-13792D01*
X109394Y-14144D01*
X109042Y-14486D01*
X108683Y-14821D01*
X108315Y-15146D01*
X107939Y-15462D01*
X107556Y-15769D01*
X107165Y-16066D01*
X106767Y-16353D01*
X106363Y-16631D01*
X105951Y-16899D01*
X105533Y-17156D01*
X105109Y-17403D01*
X104679Y-17640D01*
X104243Y-17866D01*
X103802Y-18082D01*
X103356Y-18286D01*
X102904Y-18479D01*
X102449Y-18662D01*
X101988Y-18833D01*
X101524Y-18992D01*
X101056Y-19141D01*
X100585Y-19277D01*
X100110Y-19403D01*
X99632Y-19516D01*
X99152Y-19618D01*
X98670Y-19708D01*
X98185Y-19786D01*
X97698Y-19852D01*
X97211Y-19906D01*
X96721Y-19948D01*
X96231Y-19978D01*
X95741Y-19996D01*
X95250Y-20002D01*
X94759Y-19996D01*
X94269Y-19978D01*
X93779Y-19948D01*
X93289Y-19906D01*
X92802Y-19852D01*
X92315Y-19786D01*
X91830Y-19708D01*
X91348Y-19618D01*
X90868Y-19516D01*
X90390Y-19403D01*
X89915Y-19277D01*
X89444Y-19141D01*
X88976Y-18992D01*
X88512Y-18833D01*
X88051Y-18662D01*
X87596Y-18479D01*
X87144Y-18286D01*
X86698Y-18082D01*
X86257Y-17866D01*
X85821Y-17640D01*
X85391Y-17403D01*
X84967Y-17156D01*
X84549Y-16899D01*
X84137Y-16631D01*
X83733Y-16353D01*
X83335Y-16066D01*
X82944Y-15769D01*
X82561Y-15462D01*
X82185Y-15146D01*
X81817Y-14821D01*
X81458Y-14486D01*
X81106Y-14144D01*
X80764Y-13792D01*
X80429Y-13433D01*
X80104Y-13065D01*
X79788Y-12689D01*
X79481Y-12306D01*
X79184Y-11915D01*
X78897Y-11517D01*
X78619Y-11113D01*
X78351Y-10701D01*
X78094Y-10283D01*
X77847Y-9859D01*
X77610Y-9429D01*
X77384Y-8993D01*
X77168Y-8552D01*
X76964Y-8106D01*
X76771Y-7654D01*
X76588Y-7199D01*
X76417Y-6738D01*
X76258Y-6274D01*
X76109Y-5806D01*
X75973Y-5335D01*
X75847Y-4860D01*
X75734Y-4382D01*
X75632Y-3902D01*
X75542Y-3420D01*
X75464Y-2935D01*
X75398Y-2448D01*
X75344Y-1961D01*
X75302Y-1471D01*
X75272Y-981D01*
X75254Y-491D01*
X75248Y0D01*
X86750Y50800D02*
X86753Y51009D01*
X86760Y51217D01*
X86773Y51425D01*
X86791Y51633D01*
X86814Y51840D01*
X86842Y52047D01*
X86875Y52253D01*
X86913Y52458D01*
X86957Y52662D01*
X87005Y52865D01*
X87058Y53067D01*
X87116Y53267D01*
X87179Y53466D01*
X87247Y53664D01*
X87320Y53859D01*
X87397Y54053D01*
X87479Y54245D01*
X87566Y54434D01*
X87658Y54622D01*
X87754Y54807D01*
X87854Y54990D01*
X87959Y55170D01*
X88069Y55347D01*
X88183Y55522D01*
X88301Y55694D01*
X88423Y55863D01*
X88549Y56029D01*
X88679Y56192D01*
X88814Y56352D01*
X88952Y56508D01*
X89094Y56661D01*
X89240Y56810D01*
X89389Y56956D01*
X89542Y57098D01*
X89698Y57236D01*
X89858Y57371D01*
X90021Y57501D01*
X90187Y57627D01*
X90356Y57749D01*
X90528Y57867D01*
X90703Y57981D01*
X90880Y58091D01*
X91060Y58196D01*
X91243Y58296D01*
X91428Y58392D01*
X91616Y58484D01*
X91805Y58571D01*
X91997Y58653D01*
X92191Y58730D01*
X92386Y58803D01*
X92584Y58871D01*
X92783Y58934D01*
X92983Y58992D01*
X93185Y59045D01*
X93388Y59093D01*
X93592Y59137D01*
X93797Y59175D01*
X94003Y59208D01*
X94210Y59236D01*
X94417Y59259D01*
X94625Y59277D01*
X94833Y59290D01*
X95041Y59297D01*
X95250Y59300D01*
X95459Y59297D01*
X95667Y59290D01*
X95875Y59277D01*
X96083Y59259D01*
X96290Y59236D01*
X96497Y59208D01*
X96703Y59175D01*
X96908Y59137D01*
X97112Y59093D01*
X97315Y59045D01*
X97517Y58992D01*
X97717Y58934D01*
X97916Y58871D01*
X98114Y58803D01*
X98309Y58730D01*
X98503Y58653D01*
X98695Y58571D01*
X98884Y58484D01*
X99072Y58392D01*
X99257Y58296D01*
X99440Y58196D01*
X99620Y58091D01*
X99797Y57981D01*
X99972Y57867D01*
X100144Y57749D01*
X100313Y57627D01*
X100479Y57501D01*
X100642Y57371D01*
X100802Y57236D01*
X100958Y57098D01*
X101111Y56956D01*
X101260Y56810D01*
X101406Y56661D01*
X101548Y56508D01*
X101686Y56352D01*
X101821Y56192D01*
X101951Y56029D01*
X102077Y55863D01*
X102199Y55694D01*
X102317Y55522D01*
X102431Y55347D01*
X102541Y55170D01*
X102646Y54990D01*
X102746Y54807D01*
X102842Y54622D01*
X102934Y54434D01*
X103021Y54245D01*
X103103Y54053D01*
X103180Y53859D01*
X103253Y53664D01*
X103321Y53466D01*
X103384Y53267D01*
X103442Y53067D01*
X103495Y52865D01*
X103543Y52662D01*
X103587Y52458D01*
X103625Y52253D01*
X103658Y52047D01*
X103686Y51840D01*
X103709Y51633D01*
X103727Y51425D01*
X103740Y51217D01*
X103747Y51009D01*
X103750Y50800D01*
X103747Y50591D01*
X103740Y50383D01*
X103727Y50175D01*
X103709Y49967D01*
X103686Y49760D01*
X103658Y49553D01*
X103625Y49347D01*
X103587Y49142D01*
X103543Y48938D01*
X103495Y48735D01*
X103442Y48533D01*
X103384Y48333D01*
X103321Y48134D01*
X103253Y47936D01*
X103180Y47741D01*
X103103Y47547D01*
X103021Y47355D01*
X102934Y47166D01*
X102842Y46978D01*
X102746Y46793D01*
X102646Y46610D01*
X102541Y46430D01*
X102431Y46253D01*
X102317Y46078D01*
X102199Y45906D01*
X102077Y45737D01*
X101951Y45571D01*
X101821Y45408D01*
X101686Y45248D01*
X101548Y45092D01*
X101406Y44939D01*
X101260Y44790D01*
X101111Y44644D01*
X100958Y44502D01*
X100802Y44364D01*
X100642Y44229D01*
X100479Y44099D01*
X100313Y43973D01*
X100144Y43851D01*
X99972Y43733D01*
X99797Y43619D01*
X99620Y43509D01*
X99440Y43404D01*
X99257Y43304D01*
X99072Y43208D01*
X98884Y43116D01*
X98695Y43029D01*
X98503Y42947D01*
X98309Y42870D01*
X98114Y42797D01*
X97916Y42729D01*
X97717Y42666D01*
X97517Y42608D01*
X97315Y42555D01*
X97112Y42507D01*
X96908Y42463D01*
X96703Y42425D01*
X96497Y42392D01*
X96290Y42364D01*
X96083Y42341D01*
X95875Y42323D01*
X95667Y42310D01*
X95459Y42303D01*
X95250Y42300D01*
X95041Y42303D01*
X94833Y42310D01*
X94625Y42323D01*
X94417Y42341D01*
X94210Y42364D01*
X94003Y42392D01*
X93797Y42425D01*
X93592Y42463D01*
X93388Y42507D01*
X93185Y42555D01*
X92983Y42608D01*
X92783Y42666D01*
X92584Y42729D01*
X92386Y42797D01*
X92191Y42870D01*
X91997Y42947D01*
X91805Y43029D01*
X91616Y43116D01*
X91428Y43208D01*
X91243Y43304D01*
X91060Y43404D01*
X90880Y43509D01*
X90703Y43619D01*
X90528Y43733D01*
X90356Y43851D01*
X90187Y43973D01*
X90021Y44099D01*
X89858Y44229D01*
X89698Y44364D01*
X89542Y44502D01*
X89389Y44644D01*
X89240Y44790D01*
X89094Y44939D01*
X88952Y45092D01*
X88814Y45248D01*
X88679Y45408D01*
X88549Y45571D01*
X88423Y45737D01*
X88301Y45906D01*
X88183Y46078D01*
X88069Y46253D01*
X87959Y46430D01*
X87854Y46610D01*
X87754Y46793D01*
X87658Y46978D01*
X87566Y47166D01*
X87479Y47355D01*
X87397Y47547D01*
X87320Y47741D01*
X87247Y47936D01*
X87179Y48134D01*
X87116Y48333D01*
X87058Y48533D01*
X87005Y48735D01*
X86957Y48938D01*
X86913Y49142D01*
X86875Y49347D01*
X86842Y49553D01*
X86814Y49760D01*
X86791Y49967D01*
X86773Y50175D01*
X86760Y50383D01*
X86753Y50591D01*
X86750Y50800D01*
X86750Y-50800D02*
X86753Y-50591D01*
X86760Y-50383D01*
X86773Y-50175D01*
X86791Y-49967D01*
X86814Y-49760D01*
X86842Y-49553D01*
X86875Y-49347D01*
X86913Y-49142D01*
X86957Y-48938D01*
X87005Y-48735D01*
X87058Y-48533D01*
X87116Y-48333D01*
X87179Y-48134D01*
X87247Y-47936D01*
X87320Y-47741D01*
X87397Y-47547D01*
X87479Y-47355D01*
X87566Y-47166D01*
X87658Y-46978D01*
X87754Y-46793D01*
X87854Y-46610D01*
X87959Y-46430D01*
X88069Y-46253D01*
X88183Y-46078D01*
X88301Y-45906D01*
X88423Y-45737D01*
X88549Y-45571D01*
X88679Y-45408D01*
X88814Y-45248D01*
X88952Y-45092D01*
X89094Y-44939D01*
X89240Y-44790D01*
X89389Y-44644D01*
X89542Y-44502D01*
X89698Y-44364D01*
X89858Y-44229D01*
X90021Y-44099D01*
X90187Y-43973D01*
X90356Y-43851D01*
X90528Y-43733D01*
X90703Y-43619D01*
X90880Y-43509D01*
X91060Y-43404D01*
X91243Y-43304D01*
X91428Y-43208D01*
X91616Y-43116D01*
X91805Y-43029D01*
X91997Y-42947D01*
X92191Y-42870D01*
X92386Y-42797D01*
X92584Y-42729D01*
X92783Y-42666D01*
X92983Y-42608D01*
X93185Y-42555D01*
X93388Y-42507D01*
X93592Y-42463D01*
X93797Y-42425D01*
X94003Y-42392D01*
X94210Y-42364D01*
X94417Y-42341D01*
X94625Y-42323D01*
X94833Y-42310D01*
X95041Y-42303D01*
X95250Y-42300D01*
X95459Y-42303D01*
X95667Y-42310D01*
X95875Y-42323D01*
X96083Y-42341D01*
X96290Y-42364D01*
X96497Y-42392D01*
X96703Y-42425D01*
X96908Y-42463D01*
X97112Y-42507D01*
X97315Y-42555D01*
X97517Y-42608D01*
X97717Y-42666D01*
X97916Y-42729D01*
X98114Y-42797D01*
X98309Y-42870D01*
X98503Y-42947D01*
X98695Y-43029D01*
X98884Y-43116D01*
X99072Y-43208D01*
X99257Y-43304D01*
X99440Y-43404D01*
X99620Y-43509D01*
X99797Y-43619D01*
X99972Y-43733D01*
X100144Y-43851D01*
X100313Y-43973D01*
X100479Y-44099D01*
X100642Y-44229D01*
X100802Y-44364D01*
X100958Y-44502D01*
X101111Y-44644D01*
X101260Y-44790D01*
X101406Y-44939D01*
X101548Y-45092D01*
X101686Y-45248D01*
X101821Y-45408D01*
X101951Y-45571D01*
X102077Y-45737D01*
X102199Y-45906D01*
X102317Y-46078D01*
X102431Y-46253D01*
X102541Y-46430D01*
X102646Y-46610D01*
X102746Y-46793D01*
X102842Y-46978D01*
X102934Y-47166D01*
X103021Y-47355D01*
X103103Y-47547D01*
X103180Y-47741D01*
X103253Y-47936D01*
X103321Y-48134D01*
X103384Y-48333D01*
X103442Y-48533D01*
X103495Y-48735D01*
X103543Y-48938D01*
X103587Y-49142D01*
X103625Y-49347D01*
X103658Y-49553D01*
X103686Y-49760D01*
X103709Y-49967D01*
X103727Y-50175D01*
X103740Y-50383D01*
X103747Y-50591D01*
X103750Y-50800D01*
X103747Y-51009D01*
X103740Y-51217D01*
X103727Y-51425D01*
X103709Y-51633D01*
X103686Y-51840D01*
X103658Y-52047D01*
X103625Y-52253D01*
X103587Y-52458D01*
X103543Y-52662D01*
X103495Y-52865D01*
X103442Y-53067D01*
X103384Y-53267D01*
X103321Y-53466D01*
X103253Y-53664D01*
X103180Y-53859D01*
X103103Y-54053D01*
X103021Y-54245D01*
X102934Y-54434D01*
X102842Y-54622D01*
X102746Y-54807D01*
X102646Y-54990D01*
X102541Y-55170D01*
X102431Y-55347D01*
X102317Y-55522D01*
X102199Y-55694D01*
X102077Y-55863D01*
X101951Y-56029D01*
X101821Y-56192D01*
X101686Y-56352D01*
X101548Y-56508D01*
X101406Y-56661D01*
X101260Y-56810D01*
X101111Y-56956D01*
X100958Y-57098D01*
X100802Y-57236D01*
X100642Y-57371D01*
X100479Y-57501D01*
X100313Y-57627D01*
X100144Y-57749D01*
X99972Y-57867D01*
X99797Y-57981D01*
X99620Y-58091D01*
X99440Y-58196D01*
X99257Y-58296D01*
X99072Y-58392D01*
X98884Y-58484D01*
X98695Y-58571D01*
X98503Y-58653D01*
X98309Y-58730D01*
X98114Y-58803D01*
X97916Y-58871D01*
X97717Y-58934D01*
X97517Y-58992D01*
X97315Y-59045D01*
X97112Y-59093D01*
X96908Y-59137D01*
X96703Y-59175D01*
X96497Y-59208D01*
X96290Y-59236D01*
X96083Y-59259D01*
X95875Y-59277D01*
X95667Y-59290D01*
X95459Y-59297D01*
X95250Y-59300D01*
X95041Y-59297D01*
X94833Y-59290D01*
X94625Y-59277D01*
X94417Y-59259D01*
X94210Y-59236D01*
X94003Y-59208D01*
X93797Y-59175D01*
X93592Y-59137D01*
X93388Y-59093D01*
X93185Y-59045D01*
X92983Y-58992D01*
X92783Y-58934D01*
X92584Y-58871D01*
X92386Y-58803D01*
X92191Y-58730D01*
X91997Y-58653D01*
X91805Y-58571D01*
X91616Y-58484D01*
X91428Y-58392D01*
X91243Y-58296D01*
X91060Y-58196D01*
X90880Y-58091D01*
X90703Y-57981D01*
X90528Y-57867D01*
X90356Y-57749D01*
X90187Y-57627D01*
X90021Y-57501D01*
X89858Y-57371D01*
X89698Y-57236D01*
X89542Y-57098D01*
X89389Y-56956D01*
X89240Y-56810D01*
X89094Y-56661D01*
X88952Y-56508D01*
X88814Y-56352D01*
X88679Y-56192D01*
X88549Y-56029D01*
X88423Y-55863D01*
X88301Y-55694D01*
X88183Y-55522D01*
X88069Y-55347D01*
X87959Y-55170D01*
X87854Y-54990D01*
X87754Y-54807D01*
X87658Y-54622D01*
X87566Y-54434D01*
X87479Y-54245D01*
X87397Y-54053D01*
X87320Y-53859D01*
X87247Y-53664D01*
X87179Y-53466D01*
X87116Y-53267D01*
X87058Y-53067D01*
X87005Y-52865D01*
X86957Y-52662D01*
X86913Y-52458D01*
X86875Y-52253D01*
X86842Y-52047D01*
X86814Y-51840D01*
X86791Y-51633D01*
X86773Y-51425D01*
X86760Y-51217D01*
X86753Y-51009D01*
X86750Y-50800D01*
X29450Y-165100D02*
X29455Y-164732D01*
X29468Y-164364D01*
X29491Y-163997D01*
X29522Y-163630D01*
X29563Y-163264D01*
X29612Y-162899D01*
X29671Y-162536D01*
X29738Y-162174D01*
X29814Y-161813D01*
X29900Y-161455D01*
X29993Y-161099D01*
X30096Y-160746D01*
X30207Y-160395D01*
X30327Y-160047D01*
X30455Y-159702D01*
X30592Y-159360D01*
X30737Y-159021D01*
X30890Y-158687D01*
X31052Y-158356D01*
X31221Y-158029D01*
X31399Y-157707D01*
X31584Y-157388D01*
X31777Y-157075D01*
X31978Y-156766D01*
X32186Y-156463D01*
X32402Y-156165D01*
X32625Y-155872D01*
X32855Y-155584D01*
X33092Y-155302D01*
X33336Y-155027D01*
X33586Y-154757D01*
X33843Y-154493D01*
X34107Y-154236D01*
X34377Y-153986D01*
X34652Y-153742D01*
X34934Y-153505D01*
X35222Y-153275D01*
X35515Y-153052D01*
X35813Y-152836D01*
X36116Y-152628D01*
X36425Y-152427D01*
X36738Y-152234D01*
X37057Y-152049D01*
X37379Y-151871D01*
X37706Y-151702D01*
X38037Y-151540D01*
X38371Y-151387D01*
X38710Y-151242D01*
X39052Y-151105D01*
X39397Y-150977D01*
X39745Y-150857D01*
X40096Y-150746D01*
X40449Y-150643D01*
X40805Y-150550D01*
X41163Y-150464D01*
X41524Y-150388D01*
X41886Y-150321D01*
X42249Y-150262D01*
X42614Y-150213D01*
X42980Y-150172D01*
X43347Y-150141D01*
X43714Y-150118D01*
X44082Y-150105D01*
X44450Y-150100D01*
X44818Y-150105D01*
X45186Y-150118D01*
X45553Y-150141D01*
X45920Y-150172D01*
X46286Y-150213D01*
X46651Y-150262D01*
X47014Y-150321D01*
X47376Y-150388D01*
X47737Y-150464D01*
X48095Y-150550D01*
X48451Y-150643D01*
X48804Y-150746D01*
X49155Y-150857D01*
X49503Y-150977D01*
X49848Y-151105D01*
X50190Y-151242D01*
X50529Y-151387D01*
X50863Y-151540D01*
X51194Y-151702D01*
X51521Y-151871D01*
X51843Y-152049D01*
X52162Y-152234D01*
X52475Y-152427D01*
X52784Y-152628D01*
X53087Y-152836D01*
X53385Y-153052D01*
X53678Y-153275D01*
X53966Y-153505D01*
X54248Y-153742D01*
X54523Y-153986D01*
X54793Y-154236D01*
X55057Y-154493D01*
X55314Y-154757D01*
X55564Y-155027D01*
X55808Y-155302D01*
X56045Y-155584D01*
X56275Y-155872D01*
X56498Y-156165D01*
X56714Y-156463D01*
X56922Y-156766D01*
X57123Y-157075D01*
X57316Y-157388D01*
X57501Y-157707D01*
X57679Y-158029D01*
X57848Y-158356D01*
X58010Y-158687D01*
X58163Y-159021D01*
X58308Y-159360D01*
X58445Y-159702D01*
X58573Y-160047D01*
X58693Y-160395D01*
X58804Y-160746D01*
X58907Y-161099D01*
X59000Y-161455D01*
X59086Y-161813D01*
X59162Y-162174D01*
X59229Y-162536D01*
X59288Y-162899D01*
X59337Y-163264D01*
X59378Y-163630D01*
X59409Y-163997D01*
X59432Y-164364D01*
X59445Y-164732D01*
X59450Y-165100D01*
X59445Y-165468D01*
X59432Y-165836D01*
X59409Y-166203D01*
X59378Y-166570D01*
X59337Y-166936D01*
X59288Y-167301D01*
X59229Y-167664D01*
X59162Y-168026D01*
X59086Y-168387D01*
X59000Y-168745D01*
X58907Y-169101D01*
X58804Y-169454D01*
X58693Y-169805D01*
X58573Y-170153D01*
X58445Y-170498D01*
X58308Y-170840D01*
X58163Y-171179D01*
X58010Y-171513D01*
X57848Y-171844D01*
X57679Y-172171D01*
X57501Y-172493D01*
X57316Y-172812D01*
X57123Y-173125D01*
X56922Y-173434D01*
X56714Y-173737D01*
X56498Y-174035D01*
X56275Y-174328D01*
X56045Y-174616D01*
X55808Y-174898D01*
X55564Y-175173D01*
X55314Y-175443D01*
X55057Y-175707D01*
X54793Y-175964D01*
X54523Y-176214D01*
X54248Y-176458D01*
X53966Y-176695D01*
X53678Y-176925D01*
X53385Y-177148D01*
X53087Y-177364D01*
X52784Y-177572D01*
X52475Y-177773D01*
X52162Y-177966D01*
X51843Y-178151D01*
X51521Y-178329D01*
X51194Y-178498D01*
X50863Y-178660D01*
X50529Y-178813D01*
X50190Y-178958D01*
X49848Y-179095D01*
X49503Y-179223D01*
X49155Y-179343D01*
X48804Y-179454D01*
X48451Y-179557D01*
X48095Y-179650D01*
X47737Y-179736D01*
X47376Y-179812D01*
X47014Y-179879D01*
X46651Y-179938D01*
X46286Y-179987D01*
X45920Y-180028D01*
X45553Y-180059D01*
X45186Y-180082D01*
X44818Y-180095D01*
X44450Y-180100D01*
X44082Y-180095D01*
X43714Y-180082D01*
X43347Y-180059D01*
X42980Y-180028D01*
X42614Y-179987D01*
X42249Y-179938D01*
X41886Y-179879D01*
X41524Y-179812D01*
X41163Y-179736D01*
X40805Y-179650D01*
X40449Y-179557D01*
X40096Y-179454D01*
X39745Y-179343D01*
X39397Y-179223D01*
X39052Y-179095D01*
X38710Y-178958D01*
X38371Y-178813D01*
X38037Y-178660D01*
X37706Y-178498D01*
X37379Y-178329D01*
X37057Y-178151D01*
X36738Y-177966D01*
X36425Y-177773D01*
X36116Y-177572D01*
X35813Y-177364D01*
X35515Y-177148D01*
X35222Y-176925D01*
X34934Y-176695D01*
X34652Y-176458D01*
X34377Y-176214D01*
X34107Y-175964D01*
X33843Y-175707D01*
X33586Y-175443D01*
X33336Y-175173D01*
X33092Y-174898D01*
X32855Y-174616D01*
X32625Y-174328D01*
X32402Y-174035D01*
X32186Y-173737D01*
X31978Y-173434D01*
X31777Y-173125D01*
X31584Y-172812D01*
X31399Y-172493D01*
X31221Y-172171D01*
X31052Y-171844D01*
X30890Y-171513D01*
X30737Y-171179D01*
X30592Y-170840D01*
X30455Y-170498D01*
X30327Y-170153D01*
X30207Y-169805D01*
X30096Y-169454D01*
X29993Y-169101D01*
X29900Y-168745D01*
X29814Y-168387D01*
X29738Y-168026D01*
X29671Y-167664D01*
X29612Y-167301D01*
X29563Y-166936D01*
X29522Y-166570D01*
X29491Y-166203D01*
X29468Y-165836D01*
X29455Y-165468D01*
X29450Y-165100D01*
X54850Y-228600D02*
X54855Y-228232D01*
X54868Y-227864D01*
X54891Y-227497D01*
X54922Y-227130D01*
X54963Y-226764D01*
X55012Y-226399D01*
X55071Y-226036D01*
X55138Y-225674D01*
X55214Y-225313D01*
X55300Y-224955D01*
X55393Y-224599D01*
X55496Y-224246D01*
X55607Y-223895D01*
X55727Y-223547D01*
X55855Y-223202D01*
X55992Y-222860D01*
X56137Y-222521D01*
X56290Y-222187D01*
X56452Y-221856D01*
X56621Y-221529D01*
X56799Y-221207D01*
X56984Y-220888D01*
X57177Y-220575D01*
X57378Y-220266D01*
X57586Y-219963D01*
X57802Y-219665D01*
X58025Y-219372D01*
X58255Y-219084D01*
X58492Y-218802D01*
X58736Y-218527D01*
X58986Y-218257D01*
X59243Y-217993D01*
X59507Y-217736D01*
X59777Y-217486D01*
X60052Y-217242D01*
X60334Y-217005D01*
X60622Y-216775D01*
X60915Y-216552D01*
X61213Y-216336D01*
X61516Y-216128D01*
X61825Y-215927D01*
X62138Y-215734D01*
X62457Y-215549D01*
X62779Y-215371D01*
X63106Y-215202D01*
X63437Y-215040D01*
X63771Y-214887D01*
X64110Y-214742D01*
X64452Y-214605D01*
X64797Y-214477D01*
X65145Y-214357D01*
X65496Y-214246D01*
X65849Y-214143D01*
X66205Y-214050D01*
X66563Y-213964D01*
X66924Y-213888D01*
X67286Y-213821D01*
X67649Y-213762D01*
X68014Y-213713D01*
X68380Y-213672D01*
X68747Y-213641D01*
X69114Y-213618D01*
X69482Y-213605D01*
X69850Y-213600D01*
X70218Y-213605D01*
X70586Y-213618D01*
X70953Y-213641D01*
X71320Y-213672D01*
X71686Y-213713D01*
X72051Y-213762D01*
X72414Y-213821D01*
X72776Y-213888D01*
X73137Y-213964D01*
X73495Y-214050D01*
X73851Y-214143D01*
X74204Y-214246D01*
X74555Y-214357D01*
X74903Y-214477D01*
X75248Y-214605D01*
X75590Y-214742D01*
X75929Y-214887D01*
X76263Y-215040D01*
X76594Y-215202D01*
X76921Y-215371D01*
X77243Y-215549D01*
X77562Y-215734D01*
X77875Y-215927D01*
X78184Y-216128D01*
X78487Y-216336D01*
X78785Y-216552D01*
X79078Y-216775D01*
X79366Y-217005D01*
X79648Y-217242D01*
X79923Y-217486D01*
X80193Y-217736D01*
X80457Y-217993D01*
X80714Y-218257D01*
X80964Y-218527D01*
X81208Y-218802D01*
X81445Y-219084D01*
X81675Y-219372D01*
X81898Y-219665D01*
X82114Y-219963D01*
X82322Y-220266D01*
X82523Y-220575D01*
X82716Y-220888D01*
X82901Y-221207D01*
X83079Y-221529D01*
X83248Y-221856D01*
X83410Y-222187D01*
X83563Y-222521D01*
X83708Y-222860D01*
X83845Y-223202D01*
X83973Y-223547D01*
X84093Y-223895D01*
X84204Y-224246D01*
X84307Y-224599D01*
X84400Y-224955D01*
X84486Y-225313D01*
X84562Y-225674D01*
X84629Y-226036D01*
X84688Y-226399D01*
X84737Y-226764D01*
X84778Y-227130D01*
X84809Y-227497D01*
X84832Y-227864D01*
X84845Y-228232D01*
X84850Y-228600D01*
X84845Y-228968D01*
X84832Y-229336D01*
X84809Y-229703D01*
X84778Y-230070D01*
X84737Y-230436D01*
X84688Y-230801D01*
X84629Y-231164D01*
X84562Y-231526D01*
X84486Y-231887D01*
X84400Y-232245D01*
X84307Y-232601D01*
X84204Y-232954D01*
X84093Y-233305D01*
X83973Y-233653D01*
X83845Y-233998D01*
X83708Y-234340D01*
X83563Y-234679D01*
X83410Y-235013D01*
X83248Y-235344D01*
X83079Y-235671D01*
X82901Y-235993D01*
X82716Y-236312D01*
X82523Y-236625D01*
X82322Y-236934D01*
X82114Y-237237D01*
X81898Y-237535D01*
X81675Y-237828D01*
X81445Y-238116D01*
X81208Y-238398D01*
X80964Y-238673D01*
X80714Y-238943D01*
X80457Y-239207D01*
X80193Y-239464D01*
X79923Y-239714D01*
X79648Y-239958D01*
X79366Y-240195D01*
X79078Y-240425D01*
X78785Y-240648D01*
X78487Y-240864D01*
X78184Y-241072D01*
X77875Y-241273D01*
X77562Y-241466D01*
X77243Y-241651D01*
X76921Y-241829D01*
X76594Y-241998D01*
X76263Y-242160D01*
X75929Y-242313D01*
X75590Y-242458D01*
X75248Y-242595D01*
X74903Y-242723D01*
X74555Y-242843D01*
X74204Y-242954D01*
X73851Y-243057D01*
X73495Y-243150D01*
X73137Y-243236D01*
X72776Y-243312D01*
X72414Y-243379D01*
X72051Y-243438D01*
X71686Y-243487D01*
X71320Y-243528D01*
X70953Y-243559D01*
X70586Y-243582D01*
X70218Y-243595D01*
X69850Y-243600D01*
X69482Y-243595D01*
X69114Y-243582D01*
X68747Y-243559D01*
X68380Y-243528D01*
X68014Y-243487D01*
X67649Y-243438D01*
X67286Y-243379D01*
X66924Y-243312D01*
X66563Y-243236D01*
X66205Y-243150D01*
X65849Y-243057D01*
X65496Y-242954D01*
X65145Y-242843D01*
X64797Y-242723D01*
X64452Y-242595D01*
X64110Y-242458D01*
X63771Y-242313D01*
X63437Y-242160D01*
X63106Y-241998D01*
X62779Y-241829D01*
X62457Y-241651D01*
X62138Y-241466D01*
X61825Y-241273D01*
X61516Y-241072D01*
X61213Y-240864D01*
X60915Y-240648D01*
X60622Y-240425D01*
X60334Y-240195D01*
X60052Y-239958D01*
X59777Y-239714D01*
X59507Y-239464D01*
X59243Y-239207D01*
X58986Y-238943D01*
X58736Y-238673D01*
X58492Y-238398D01*
X58255Y-238116D01*
X58025Y-237828D01*
X57802Y-237535D01*
X57586Y-237237D01*
X57378Y-236934D01*
X57177Y-236625D01*
X56984Y-236312D01*
X56799Y-235993D01*
X56621Y-235671D01*
X56452Y-235344D01*
X56290Y-235013D01*
X56137Y-234679D01*
X55992Y-234340D01*
X55855Y-233998D01*
X55727Y-233653D01*
X55607Y-233305D01*
X55496Y-232954D01*
X55393Y-232601D01*
X55300Y-232245D01*
X55214Y-231887D01*
X55138Y-231526D01*
X55071Y-231164D01*
X55012Y-230801D01*
X54963Y-230436D01*
X54922Y-230070D01*
X54891Y-229703D01*
X54868Y-229336D01*
X54855Y-228968D01*
X54850Y-228600D01*
X75248Y-190500D02*
X75254Y-190009D01*
X75272Y-189519D01*
X75302Y-189029D01*
X75344Y-188539D01*
X75398Y-188052D01*
X75464Y-187565D01*
X75542Y-187080D01*
X75632Y-186598D01*
X75734Y-186118D01*
X75847Y-185640D01*
X75973Y-185165D01*
X76109Y-184694D01*
X76258Y-184226D01*
X76417Y-183762D01*
X76588Y-183301D01*
X76771Y-182846D01*
X76964Y-182394D01*
X77168Y-181948D01*
X77384Y-181507D01*
X77610Y-181071D01*
X77847Y-180641D01*
X78094Y-180217D01*
X78351Y-179799D01*
X78619Y-179387D01*
X78897Y-178983D01*
X79184Y-178585D01*
X79481Y-178194D01*
X79788Y-177811D01*
X80104Y-177435D01*
X80429Y-177067D01*
X80764Y-176708D01*
X81106Y-176356D01*
X81458Y-176014D01*
X81817Y-175679D01*
X82185Y-175354D01*
X82561Y-175038D01*
X82944Y-174731D01*
X83335Y-174434D01*
X83733Y-174147D01*
X84137Y-173869D01*
X84549Y-173601D01*
X84967Y-173344D01*
X85391Y-173097D01*
X85821Y-172860D01*
X86257Y-172634D01*
X86698Y-172418D01*
X87144Y-172214D01*
X87596Y-172021D01*
X88051Y-171838D01*
X88512Y-171667D01*
X88976Y-171508D01*
X89444Y-171359D01*
X89915Y-171223D01*
X90390Y-171097D01*
X90868Y-170984D01*
X91348Y-170882D01*
X91830Y-170792D01*
X92315Y-170714D01*
X92802Y-170648D01*
X93289Y-170594D01*
X93779Y-170552D01*
X94269Y-170522D01*
X94759Y-170504D01*
X95250Y-170498D01*
X95741Y-170504D01*
X96231Y-170522D01*
X96721Y-170552D01*
X97211Y-170594D01*
X97698Y-170648D01*
X98185Y-170714D01*
X98670Y-170792D01*
X99152Y-170882D01*
X99632Y-170984D01*
X100110Y-171097D01*
X100585Y-171223D01*
X101056Y-171359D01*
X101524Y-171508D01*
X101988Y-171667D01*
X102449Y-171838D01*
X102904Y-172021D01*
X103356Y-172214D01*
X103802Y-172418D01*
X104243Y-172634D01*
X104679Y-172860D01*
X105109Y-173097D01*
X105533Y-173344D01*
X105951Y-173601D01*
X106363Y-173869D01*
X106767Y-174147D01*
X107165Y-174434D01*
X107556Y-174731D01*
X107939Y-175038D01*
X108315Y-175354D01*
X108683Y-175679D01*
X109042Y-176014D01*
X109394Y-176356D01*
X109736Y-176708D01*
X110071Y-177067D01*
X110396Y-177435D01*
X110712Y-177811D01*
X111019Y-178194D01*
X111316Y-178585D01*
X111603Y-178983D01*
X111881Y-179387D01*
X112149Y-179799D01*
X112406Y-180217D01*
X112653Y-180641D01*
X112890Y-181071D01*
X113116Y-181507D01*
X113332Y-181948D01*
X113536Y-182394D01*
X113729Y-182846D01*
X113912Y-183301D01*
X114083Y-183762D01*
X114242Y-184226D01*
X114391Y-184694D01*
X114527Y-185165D01*
X114653Y-185640D01*
X114766Y-186118D01*
X114868Y-186598D01*
X114958Y-187080D01*
X115036Y-187565D01*
X115102Y-188052D01*
X115156Y-188539D01*
X115198Y-189029D01*
X115228Y-189519D01*
X115246Y-190009D01*
X115252Y-190500D01*
X115246Y-190991D01*
X115228Y-191481D01*
X115198Y-191971D01*
X115156Y-192461D01*
X115102Y-192948D01*
X115036Y-193435D01*
X114958Y-193920D01*
X114868Y-194402D01*
X114766Y-194882D01*
X114653Y-195360D01*
X114527Y-195835D01*
X114391Y-196306D01*
X114242Y-196774D01*
X114083Y-197238D01*
X113912Y-197699D01*
X113729Y-198154D01*
X113536Y-198606D01*
X113332Y-199052D01*
X113116Y-199493D01*
X112890Y-199929D01*
X112653Y-200359D01*
X112406Y-200783D01*
X112149Y-201201D01*
X111881Y-201613D01*
X111603Y-202017D01*
X111316Y-202415D01*
X111019Y-202806D01*
X110712Y-203189D01*
X110396Y-203565D01*
X110071Y-203933D01*
X109736Y-204292D01*
X109394Y-204644D01*
X109042Y-204986D01*
X108683Y-205321D01*
X108315Y-205646D01*
X107939Y-205962D01*
X107556Y-206269D01*
X107165Y-206566D01*
X106767Y-206853D01*
X106363Y-207131D01*
X105951Y-207399D01*
X105533Y-207656D01*
X105109Y-207903D01*
X104679Y-208140D01*
X104243Y-208366D01*
X103802Y-208582D01*
X103356Y-208786D01*
X102904Y-208979D01*
X102449Y-209162D01*
X101988Y-209333D01*
X101524Y-209492D01*
X101056Y-209641D01*
X100585Y-209777D01*
X100110Y-209903D01*
X99632Y-210016D01*
X99152Y-210118D01*
X98670Y-210208D01*
X98185Y-210286D01*
X97698Y-210352D01*
X97211Y-210406D01*
X96721Y-210448D01*
X96231Y-210478D01*
X95741Y-210496D01*
X95250Y-210502D01*
X94759Y-210496D01*
X94269Y-210478D01*
X93779Y-210448D01*
X93289Y-210406D01*
X92802Y-210352D01*
X92315Y-210286D01*
X91830Y-210208D01*
X91348Y-210118D01*
X90868Y-210016D01*
X90390Y-209903D01*
X89915Y-209777D01*
X89444Y-209641D01*
X88976Y-209492D01*
X88512Y-209333D01*
X88051Y-209162D01*
X87596Y-208979D01*
X87144Y-208786D01*
X86698Y-208582D01*
X86257Y-208366D01*
X85821Y-208140D01*
X85391Y-207903D01*
X84967Y-207656D01*
X84549Y-207399D01*
X84137Y-207131D01*
X83733Y-206853D01*
X83335Y-206566D01*
X82944Y-206269D01*
X82561Y-205962D01*
X82185Y-205646D01*
X81817Y-205321D01*
X81458Y-204986D01*
X81106Y-204644D01*
X80764Y-204292D01*
X80429Y-203933D01*
X80104Y-203565D01*
X79788Y-203189D01*
X79481Y-202806D01*
X79184Y-202415D01*
X78897Y-202017D01*
X78619Y-201613D01*
X78351Y-201201D01*
X78094Y-200783D01*
X77847Y-200359D01*
X77610Y-199929D01*
X77384Y-199493D01*
X77168Y-199052D01*
X76964Y-198606D01*
X76771Y-198154D01*
X76588Y-197699D01*
X76417Y-197238D01*
X76258Y-196774D01*
X76109Y-196306D01*
X75973Y-195835D01*
X75847Y-195360D01*
X75734Y-194882D01*
X75632Y-194402D01*
X75542Y-193920D01*
X75464Y-193435D01*
X75398Y-192948D01*
X75344Y-192461D01*
X75302Y-191971D01*
X75272Y-191481D01*
X75254Y-190991D01*
X75248Y-190500D01*
X86750Y-139700D02*
X86753Y-139491D01*
X86760Y-139283D01*
X86773Y-139075D01*
X86791Y-138867D01*
X86814Y-138660D01*
X86842Y-138453D01*
X86875Y-138247D01*
X86913Y-138042D01*
X86957Y-137838D01*
X87005Y-137635D01*
X87058Y-137433D01*
X87116Y-137233D01*
X87179Y-137034D01*
X87247Y-136836D01*
X87320Y-136641D01*
X87397Y-136447D01*
X87479Y-136255D01*
X87566Y-136066D01*
X87658Y-135878D01*
X87754Y-135693D01*
X87854Y-135510D01*
X87959Y-135330D01*
X88069Y-135153D01*
X88183Y-134978D01*
X88301Y-134806D01*
X88423Y-134637D01*
X88549Y-134471D01*
X88679Y-134308D01*
X88814Y-134148D01*
X88952Y-133992D01*
X89094Y-133839D01*
X89240Y-133690D01*
X89389Y-133544D01*
X89542Y-133402D01*
X89698Y-133264D01*
X89858Y-133129D01*
X90021Y-132999D01*
X90187Y-132873D01*
X90356Y-132751D01*
X90528Y-132633D01*
X90703Y-132519D01*
X90880Y-132409D01*
X91060Y-132304D01*
X91243Y-132204D01*
X91428Y-132108D01*
X91616Y-132016D01*
X91805Y-131929D01*
X91997Y-131847D01*
X92191Y-131770D01*
X92386Y-131697D01*
X92584Y-131629D01*
X92783Y-131566D01*
X92983Y-131508D01*
X93185Y-131455D01*
X93388Y-131407D01*
X93592Y-131363D01*
X93797Y-131325D01*
X94003Y-131292D01*
X94210Y-131264D01*
X94417Y-131241D01*
X94625Y-131223D01*
X94833Y-131210D01*
X95041Y-131203D01*
X95250Y-131200D01*
X95459Y-131203D01*
X95667Y-131210D01*
X95875Y-131223D01*
X96083Y-131241D01*
X96290Y-131264D01*
X96497Y-131292D01*
X96703Y-131325D01*
X96908Y-131363D01*
X97112Y-131407D01*
X97315Y-131455D01*
X97517Y-131508D01*
X97717Y-131566D01*
X97916Y-131629D01*
X98114Y-131697D01*
X98309Y-131770D01*
X98503Y-131847D01*
X98695Y-131929D01*
X98884Y-132016D01*
X99072Y-132108D01*
X99257Y-132204D01*
X99440Y-132304D01*
X99620Y-132409D01*
X99797Y-132519D01*
X99972Y-132633D01*
X100144Y-132751D01*
X100313Y-132873D01*
X100479Y-132999D01*
X100642Y-133129D01*
X100802Y-133264D01*
X100958Y-133402D01*
X101111Y-133544D01*
X101260Y-133690D01*
X101406Y-133839D01*
X101548Y-133992D01*
X101686Y-134148D01*
X101821Y-134308D01*
X101951Y-134471D01*
X102077Y-134637D01*
X102199Y-134806D01*
X102317Y-134978D01*
X102431Y-135153D01*
X102541Y-135330D01*
X102646Y-135510D01*
X102746Y-135693D01*
X102842Y-135878D01*
X102934Y-136066D01*
X103021Y-136255D01*
X103103Y-136447D01*
X103180Y-136641D01*
X103253Y-136836D01*
X103321Y-137034D01*
X103384Y-137233D01*
X103442Y-137433D01*
X103495Y-137635D01*
X103543Y-137838D01*
X103587Y-138042D01*
X103625Y-138247D01*
X103658Y-138453D01*
X103686Y-138660D01*
X103709Y-138867D01*
X103727Y-139075D01*
X103740Y-139283D01*
X103747Y-139491D01*
X103750Y-139700D01*
X103747Y-139909D01*
X103740Y-140117D01*
X103727Y-140325D01*
X103709Y-140533D01*
X103686Y-140740D01*
X103658Y-140947D01*
X103625Y-141153D01*
X103587Y-141358D01*
X103543Y-141562D01*
X103495Y-141765D01*
X103442Y-141967D01*
X103384Y-142167D01*
X103321Y-142366D01*
X103253Y-142564D01*
X103180Y-142759D01*
X103103Y-142953D01*
X103021Y-143145D01*
X102934Y-143334D01*
X102842Y-143522D01*
X102746Y-143707D01*
X102646Y-143890D01*
X102541Y-144070D01*
X102431Y-144247D01*
X102317Y-144422D01*
X102199Y-144594D01*
X102077Y-144763D01*
X101951Y-144929D01*
X101821Y-145092D01*
X101686Y-145252D01*
X101548Y-145408D01*
X101406Y-145561D01*
X101260Y-145710D01*
X101111Y-145856D01*
X100958Y-145998D01*
X100802Y-146136D01*
X100642Y-146271D01*
X100479Y-146401D01*
X100313Y-146527D01*
X100144Y-146649D01*
X99972Y-146767D01*
X99797Y-146881D01*
X99620Y-146991D01*
X99440Y-147096D01*
X99257Y-147196D01*
X99072Y-147292D01*
X98884Y-147384D01*
X98695Y-147471D01*
X98503Y-147553D01*
X98309Y-147630D01*
X98114Y-147703D01*
X97916Y-147771D01*
X97717Y-147834D01*
X97517Y-147892D01*
X97315Y-147945D01*
X97112Y-147993D01*
X96908Y-148037D01*
X96703Y-148075D01*
X96497Y-148108D01*
X96290Y-148136D01*
X96083Y-148159D01*
X95875Y-148177D01*
X95667Y-148190D01*
X95459Y-148197D01*
X95250Y-148200D01*
X95041Y-148197D01*
X94833Y-148190D01*
X94625Y-148177D01*
X94417Y-148159D01*
X94210Y-148136D01*
X94003Y-148108D01*
X93797Y-148075D01*
X93592Y-148037D01*
X93388Y-147993D01*
X93185Y-147945D01*
X92983Y-147892D01*
X92783Y-147834D01*
X92584Y-147771D01*
X92386Y-147703D01*
X92191Y-147630D01*
X91997Y-147553D01*
X91805Y-147471D01*
X91616Y-147384D01*
X91428Y-147292D01*
X91243Y-147196D01*
X91060Y-147096D01*
X90880Y-146991D01*
X90703Y-146881D01*
X90528Y-146767D01*
X90356Y-146649D01*
X90187Y-146527D01*
X90021Y-146401D01*
X89858Y-146271D01*
X89698Y-146136D01*
X89542Y-145998D01*
X89389Y-145856D01*
X89240Y-145710D01*
X89094Y-145561D01*
X88952Y-145408D01*
X88814Y-145252D01*
X88679Y-145092D01*
X88549Y-144929D01*
X88423Y-144763D01*
X88301Y-144594D01*
X88183Y-144422D01*
X88069Y-144247D01*
X87959Y-144070D01*
X87854Y-143890D01*
X87754Y-143707D01*
X87658Y-143522D01*
X87566Y-143334D01*
X87479Y-143145D01*
X87397Y-142953D01*
X87320Y-142759D01*
X87247Y-142564D01*
X87179Y-142366D01*
X87116Y-142167D01*
X87058Y-141967D01*
X87005Y-141765D01*
X86957Y-141562D01*
X86913Y-141358D01*
X86875Y-141153D01*
X86842Y-140947D01*
X86814Y-140740D01*
X86791Y-140533D01*
X86773Y-140325D01*
X86760Y-140117D01*
X86753Y-139909D01*
X86750Y-139700D01*
X86750Y-241300D02*
X86753Y-241091D01*
X86760Y-240883D01*
X86773Y-240675D01*
X86791Y-240467D01*
X86814Y-240260D01*
X86842Y-240053D01*
X86875Y-239847D01*
X86913Y-239642D01*
X86957Y-239438D01*
X87005Y-239235D01*
X87058Y-239033D01*
X87116Y-238833D01*
X87179Y-238634D01*
X87247Y-238436D01*
X87320Y-238241D01*
X87397Y-238047D01*
X87479Y-237855D01*
X87566Y-237666D01*
X87658Y-237478D01*
X87754Y-237293D01*
X87854Y-237110D01*
X87959Y-236930D01*
X88069Y-236753D01*
X88183Y-236578D01*
X88301Y-236406D01*
X88423Y-236237D01*
X88549Y-236071D01*
X88679Y-235908D01*
X88814Y-235748D01*
X88952Y-235592D01*
X89094Y-235439D01*
X89240Y-235290D01*
X89389Y-235144D01*
X89542Y-235002D01*
X89698Y-234864D01*
X89858Y-234729D01*
X90021Y-234599D01*
X90187Y-234473D01*
X90356Y-234351D01*
X90528Y-234233D01*
X90703Y-234119D01*
X90880Y-234009D01*
X91060Y-233904D01*
X91243Y-233804D01*
X91428Y-233708D01*
X91616Y-233616D01*
X91805Y-233529D01*
X91997Y-233447D01*
X92191Y-233370D01*
X92386Y-233297D01*
X92584Y-233229D01*
X92783Y-233166D01*
X92983Y-233108D01*
X93185Y-233055D01*
X93388Y-233007D01*
X93592Y-232963D01*
X93797Y-232925D01*
X94003Y-232892D01*
X94210Y-232864D01*
X94417Y-232841D01*
X94625Y-232823D01*
X94833Y-232810D01*
X95041Y-232803D01*
X95250Y-232800D01*
X95459Y-232803D01*
X95667Y-232810D01*
X95875Y-232823D01*
X96083Y-232841D01*
X96290Y-232864D01*
X96497Y-232892D01*
X96703Y-232925D01*
X96908Y-232963D01*
X97112Y-233007D01*
X97315Y-233055D01*
X97517Y-233108D01*
X97717Y-233166D01*
X97916Y-233229D01*
X98114Y-233297D01*
X98309Y-233370D01*
X98503Y-233447D01*
X98695Y-233529D01*
X98884Y-233616D01*
X99072Y-233708D01*
X99257Y-233804D01*
X99440Y-233904D01*
X99620Y-234009D01*
X99797Y-234119D01*
X99972Y-234233D01*
X100144Y-234351D01*
X100313Y-234473D01*
X100479Y-234599D01*
X100642Y-234729D01*
X100802Y-234864D01*
X100958Y-235002D01*
X101111Y-235144D01*
X101260Y-235290D01*
X101406Y-235439D01*
X101548Y-235592D01*
X101686Y-235748D01*
X101821Y-235908D01*
X101951Y-236071D01*
X102077Y-236237D01*
X102199Y-236406D01*
X102317Y-236578D01*
X102431Y-236753D01*
X102541Y-236930D01*
X102646Y-237110D01*
X102746Y-237293D01*
X102842Y-237478D01*
X102934Y-237666D01*
X103021Y-237855D01*
X103103Y-238047D01*
X103180Y-238241D01*
X103253Y-238436D01*
X103321Y-238634D01*
X103384Y-238833D01*
X103442Y-239033D01*
X103495Y-239235D01*
X103543Y-239438D01*
X103587Y-239642D01*
X103625Y-239847D01*
X103658Y-240053D01*
X103686Y-240260D01*
X103709Y-240467D01*
X103727Y-240675D01*
X103740Y-240883D01*
X103747Y-241091D01*
X103750Y-241300D01*
X103747Y-241509D01*
X103740Y-241717D01*
X103727Y-241925D01*
X103709Y-242133D01*
X103686Y-242340D01*
X103658Y-242547D01*
X103625Y-242753D01*
X103587Y-242958D01*
X103543Y-243162D01*
X103495Y-243365D01*
X103442Y-243567D01*
X103384Y-243767D01*
X103321Y-243966D01*
X103253Y-244164D01*
X103180Y-244359D01*
X103103Y-244553D01*
X103021Y-244745D01*
X102934Y-244934D01*
X102842Y-245122D01*
X102746Y-245307D01*
X102646Y-245490D01*
X102541Y-245670D01*
X102431Y-245847D01*
X102317Y-246022D01*
X102199Y-246194D01*
X102077Y-246363D01*
X101951Y-246529D01*
X101821Y-246692D01*
X101686Y-246852D01*
X101548Y-247008D01*
X101406Y-247161D01*
X101260Y-247310D01*
X101111Y-247456D01*
X100958Y-247598D01*
X100802Y-247736D01*
X100642Y-247871D01*
X100479Y-248001D01*
X100313Y-248127D01*
X100144Y-248249D01*
X99972Y-248367D01*
X99797Y-248481D01*
X99620Y-248591D01*
X99440Y-248696D01*
X99257Y-248796D01*
X99072Y-248892D01*
X98884Y-248984D01*
X98695Y-249071D01*
X98503Y-249153D01*
X98309Y-249230D01*
X98114Y-249303D01*
X97916Y-249371D01*
X97717Y-249434D01*
X97517Y-249492D01*
X97315Y-249545D01*
X97112Y-249593D01*
X96908Y-249637D01*
X96703Y-249675D01*
X96497Y-249708D01*
X96290Y-249736D01*
X96083Y-249759D01*
X95875Y-249777D01*
X95667Y-249790D01*
X95459Y-249797D01*
X95250Y-249800D01*
X95041Y-249797D01*
X94833Y-249790D01*
X94625Y-249777D01*
X94417Y-249759D01*
X94210Y-249736D01*
X94003Y-249708D01*
X93797Y-249675D01*
X93592Y-249637D01*
X93388Y-249593D01*
X93185Y-249545D01*
X92983Y-249492D01*
X92783Y-249434D01*
X92584Y-249371D01*
X92386Y-249303D01*
X92191Y-249230D01*
X91997Y-249153D01*
X91805Y-249071D01*
X91616Y-248984D01*
X91428Y-248892D01*
X91243Y-248796D01*
X91060Y-248696D01*
X90880Y-248591D01*
X90703Y-248481D01*
X90528Y-248367D01*
X90356Y-248249D01*
X90187Y-248127D01*
X90021Y-248001D01*
X89858Y-247871D01*
X89698Y-247736D01*
X89542Y-247598D01*
X89389Y-247456D01*
X89240Y-247310D01*
X89094Y-247161D01*
X88952Y-247008D01*
X88814Y-246852D01*
X88679Y-246692D01*
X88549Y-246529D01*
X88423Y-246363D01*
X88301Y-246194D01*
X88183Y-246022D01*
X88069Y-245847D01*
X87959Y-245670D01*
X87854Y-245490D01*
X87754Y-245307D01*
X87658Y-245122D01*
X87566Y-244934D01*
X87479Y-244745D01*
X87397Y-244553D01*
X87320Y-244359D01*
X87247Y-244164D01*
X87179Y-243966D01*
X87116Y-243767D01*
X87058Y-243567D01*
X87005Y-243365D01*
X86957Y-243162D01*
X86913Y-242958D01*
X86875Y-242753D01*
X86842Y-242547D01*
X86814Y-242340D01*
X86791Y-242133D01*
X86773Y-241925D01*
X86760Y-241717D01*
X86753Y-241509D01*
X86750Y-241300D01*
D11*
X-165250Y-265750D02*
X-165174Y-267493D01*
X-164946Y-269223D01*
X-164569Y-270926D01*
X-164044Y-272590D01*
X-163376Y-274202D01*
X-162571Y-275750D01*
X-161633Y-277222D01*
X-160571Y-278606D01*
X-159392Y-279892D01*
X-158106Y-281071D01*
X-156722Y-282133D01*
X-155250Y-283071D01*
X-153702Y-283876D01*
X-152090Y-284544D01*
X-150426Y-285069D01*
X-148723Y-285446D01*
X-146993Y-285674D01*
X-145250Y-285750D01*
X145250Y-285750D01*
X146993Y-285674D01*
X148723Y-285446D01*
X150426Y-285069D01*
X152090Y-284544D01*
X153702Y-283876D01*
X155250Y-283071D01*
X156722Y-282133D01*
X158106Y-281071D01*
X159392Y-279892D01*
X160571Y-278606D01*
X161633Y-277222D01*
X162571Y-275750D01*
X163376Y-274202D01*
X164044Y-272590D01*
X164569Y-270926D01*
X164946Y-269223D01*
X165174Y-267493D01*
X165250Y-265750D01*
X165250Y265750D01*
X165174Y267493D01*
X164946Y269223D01*
X164569Y270926D01*
X164044Y272590D01*
X163376Y274202D01*
X162571Y275750D01*
X161633Y277222D01*
X160571Y278606D01*
X159392Y279892D01*
X158106Y281071D01*
X156722Y282133D01*
X155250Y283071D01*
X153702Y283876D01*
X152090Y284544D01*
X150426Y285069D01*
X148723Y285446D01*
X146993Y285674D01*
X145250Y285750D01*
X-145250Y285750D01*
X-146993Y285674D01*
X-148723Y285446D01*
X-150426Y285069D01*
X-152090Y284544D01*
X-153702Y283876D01*
X-155250Y283071D01*
X-156722Y282133D01*
X-158106Y281071D01*
X-159392Y279892D01*
X-160571Y278606D01*
X-161633Y277222D01*
X-162571Y275750D01*
X-163376Y274202D01*
X-164044Y272590D01*
X-164569Y270926D01*
X-164946Y269223D01*
X-165174Y267493D01*
X-165250Y265750D01*
X-165250Y-265750D01*
M02*
