G04 EAGLE Gerber RS-274X export*
G75*
%MOMM*%
%FSLAX34Y34*%
%LPD*%
%INTop Copper*%
%IPPOS*%
%AMOC8*
5,1,8,0,0,1.08239X$1,22.5*%
G01*
G04 Define Apertures*
%ADD10R,1.440000X1.440000*%
%ADD11C,1.440000*%
%ADD12C,0.254000*%
%ADD13C,0.502400*%
G36*
X140599Y-173243D02*
X140500Y-173250D01*
X-140500Y-173250D01*
X-140599Y-173243D01*
X-152826Y-171634D01*
X-153018Y-171582D01*
X-164411Y-166863D01*
X-164583Y-166764D01*
X-174366Y-159257D01*
X-174507Y-159116D01*
X-182014Y-149333D01*
X-182113Y-149161D01*
X-186832Y-137768D01*
X-186884Y-137576D01*
X-188493Y-125349D01*
X-188500Y-125250D01*
X-188500Y45250D01*
X-188493Y45349D01*
X-186884Y57576D01*
X-186832Y57768D01*
X-182113Y69161D01*
X-182014Y69333D01*
X-174507Y79116D01*
X-174366Y79257D01*
X-164583Y86764D01*
X-164411Y86863D01*
X-153018Y91582D01*
X-152826Y91634D01*
X-140599Y93243D01*
X-140500Y93250D01*
X140500Y93250D01*
X140599Y93243D01*
X152826Y91634D01*
X153018Y91582D01*
X164411Y86863D01*
X164583Y86764D01*
X174366Y79257D01*
X174507Y79116D01*
X182014Y69333D01*
X182113Y69161D01*
X186832Y57768D01*
X186884Y57576D01*
X188493Y45349D01*
X188500Y45250D01*
X188500Y-125250D01*
X188493Y-125349D01*
X186884Y-137576D01*
X186832Y-137768D01*
X182113Y-149161D01*
X182014Y-149333D01*
X174507Y-159116D01*
X174366Y-159257D01*
X164583Y-166764D01*
X164411Y-166863D01*
X153018Y-171582D01*
X152826Y-171634D01*
X140599Y-173243D01*
G37*
%LPC*%
G36*
X-98632Y42000D02*
X-91868Y42000D01*
X-85620Y44588D01*
X-80838Y49370D01*
X-78250Y55618D01*
X-78250Y62382D01*
X-80838Y68630D01*
X-85620Y73412D01*
X-91868Y76000D01*
X-98632Y76000D01*
X-104880Y73412D01*
X-109662Y68630D01*
X-112250Y62382D01*
X-112250Y55618D01*
X-109662Y49370D01*
X-104880Y44588D01*
X-98632Y42000D01*
G37*
G36*
X-48632Y20000D02*
X-41868Y20000D01*
X-35620Y22588D01*
X-30838Y27370D01*
X-28250Y33618D01*
X-28250Y40382D01*
X-30838Y46630D01*
X-35620Y51412D01*
X-41868Y54000D01*
X-48632Y54000D01*
X-54880Y51412D01*
X-59662Y46630D01*
X-62250Y40382D01*
X-62250Y33618D01*
X-59662Y27370D01*
X-54880Y22588D01*
X-48632Y20000D01*
G37*
G36*
X91868Y12000D02*
X98632Y12000D01*
X104880Y14588D01*
X109662Y19370D01*
X112250Y25618D01*
X112250Y32382D01*
X109662Y38630D01*
X104880Y43412D01*
X98632Y46000D01*
X91868Y46000D01*
X85620Y43412D01*
X80838Y38630D01*
X78250Y32382D01*
X78250Y25618D01*
X80838Y19370D01*
X85620Y14588D01*
X91868Y12000D01*
G37*
G36*
X141868Y-10000D02*
X148632Y-10000D01*
X154880Y-7412D01*
X159662Y-2630D01*
X162250Y3618D01*
X162250Y10382D01*
X159662Y16630D01*
X154880Y21412D01*
X148632Y24000D01*
X141868Y24000D01*
X135620Y21412D01*
X130838Y16630D01*
X128250Y10382D01*
X128250Y3618D01*
X130838Y-2630D01*
X135620Y-7412D01*
X141868Y-10000D01*
G37*
G36*
X-99029Y-19000D02*
X-91471Y-19000D01*
X-84487Y-16107D01*
X-79143Y-10763D01*
X-76250Y-3779D01*
X-76250Y3779D01*
X-79143Y10763D01*
X-84487Y16107D01*
X-91471Y19000D01*
X-99029Y19000D01*
X-106013Y16107D01*
X-111357Y10763D01*
X-114250Y3779D01*
X-114250Y-3779D01*
X-111357Y-10763D01*
X-106013Y-16107D01*
X-99029Y-19000D01*
G37*
G36*
X-42339Y-10500D02*
X-38161Y-10500D01*
X-34302Y-8901D01*
X-31349Y-5948D01*
X-29750Y-2089D01*
X-29750Y2089D01*
X-31349Y5948D01*
X-34302Y8901D01*
X-38161Y10500D01*
X-42339Y10500D01*
X-46198Y8901D01*
X-49151Y5948D01*
X-50750Y2089D01*
X-50750Y-2089D01*
X-49151Y-5948D01*
X-46198Y-8901D01*
X-42339Y-10500D01*
G37*
G36*
X-152339Y-10500D02*
X-148161Y-10500D01*
X-144302Y-8901D01*
X-141349Y-5948D01*
X-139750Y-2089D01*
X-139750Y2089D01*
X-141349Y5948D01*
X-144302Y8901D01*
X-148161Y10500D01*
X-152339Y10500D01*
X-156198Y8901D01*
X-159151Y5948D01*
X-160750Y2089D01*
X-160750Y-2089D01*
X-159151Y-5948D01*
X-156198Y-8901D01*
X-152339Y-10500D01*
G37*
G36*
X-17885Y-119370D02*
X-14515Y-119370D01*
X-11402Y-118081D01*
X-9020Y-115698D01*
X-7730Y-112585D01*
X-7730Y-109215D01*
X-9020Y-106102D01*
X-11402Y-103720D01*
X-13190Y-102979D01*
X-13428Y-102822D01*
X-13600Y-102572D01*
X-13660Y-102275D01*
X-13660Y-41768D01*
X-13604Y-41482D01*
X-13437Y-41229D01*
X-2983Y-30775D01*
X-2763Y-30622D01*
X-2468Y-30552D01*
X-2169Y-30603D01*
X-1914Y-30766D01*
X-1742Y-31017D01*
X-1682Y-31314D01*
X-1682Y-34467D01*
X542Y-36690D01*
X773Y-36733D01*
X1028Y-36897D01*
X1200Y-37147D01*
X1260Y-37444D01*
X1260Y-102275D01*
X1207Y-102555D01*
X1041Y-102810D01*
X790Y-102979D01*
X-998Y-103720D01*
X-3381Y-106102D01*
X-4670Y-109215D01*
X-4670Y-112585D01*
X-3381Y-115698D01*
X-998Y-118081D01*
X2115Y-119370D01*
X5485Y-119370D01*
X8598Y-118081D01*
X10981Y-115698D01*
X12270Y-112585D01*
X12270Y-109215D01*
X10981Y-106102D01*
X8598Y-103720D01*
X6810Y-102979D01*
X6572Y-102822D01*
X6400Y-102572D01*
X6340Y-102275D01*
X6340Y-33548D01*
X6105Y-33313D01*
X5942Y-33072D01*
X5882Y-32774D01*
X5882Y-31333D01*
X3667Y-29118D01*
X514Y-29118D01*
X250Y-29071D01*
X-8Y-28912D01*
X-183Y-28664D01*
X-248Y-28368D01*
X-193Y-28070D01*
X-25Y-27817D01*
X18387Y-9405D01*
X18629Y-9242D01*
X18926Y-9182D01*
X20367Y-9182D01*
X22582Y-6967D01*
X22582Y-3833D01*
X20367Y-1618D01*
X17233Y-1618D01*
X15018Y-3833D01*
X15018Y-5274D01*
X14962Y-5560D01*
X14795Y-5813D01*
X-18740Y-39348D01*
X-18740Y-102275D01*
X-18793Y-102555D01*
X-18959Y-102810D01*
X-19210Y-102979D01*
X-20998Y-103720D01*
X-23381Y-106102D01*
X-24670Y-109215D01*
X-24670Y-112585D01*
X-23381Y-115698D01*
X-20998Y-118081D01*
X-17885Y-119370D01*
G37*
G36*
X91471Y-49000D02*
X99029Y-49000D01*
X106013Y-46107D01*
X111357Y-40763D01*
X114250Y-33779D01*
X114250Y-26221D01*
X111357Y-19237D01*
X106013Y-13893D01*
X99029Y-11000D01*
X91471Y-11000D01*
X84487Y-13893D01*
X79143Y-19237D01*
X76250Y-26221D01*
X76250Y-33779D01*
X79143Y-40763D01*
X84487Y-46107D01*
X91471Y-49000D01*
G37*
G36*
X148161Y-40500D02*
X152339Y-40500D01*
X156198Y-38901D01*
X159151Y-35948D01*
X160750Y-32089D01*
X160750Y-27911D01*
X159151Y-24052D01*
X156198Y-21099D01*
X152339Y-19500D01*
X148161Y-19500D01*
X144302Y-21099D01*
X141349Y-24052D01*
X139750Y-27911D01*
X139750Y-32089D01*
X141349Y-35948D01*
X144302Y-38901D01*
X148161Y-40500D01*
G37*
G36*
X38161Y-40500D02*
X42339Y-40500D01*
X46198Y-38901D01*
X49151Y-35948D01*
X50750Y-32089D01*
X50750Y-27911D01*
X49151Y-24052D01*
X46198Y-21099D01*
X42339Y-19500D01*
X38161Y-19500D01*
X34302Y-21099D01*
X31349Y-24052D01*
X29750Y-27911D01*
X29750Y-32089D01*
X31349Y-35948D01*
X34302Y-38901D01*
X38161Y-40500D01*
G37*
G36*
X22115Y-119370D02*
X25485Y-119370D01*
X28598Y-118081D01*
X30981Y-115698D01*
X32270Y-112585D01*
X32270Y-109215D01*
X30981Y-106102D01*
X28598Y-103720D01*
X26810Y-102979D01*
X26572Y-102822D01*
X26400Y-102572D01*
X26340Y-102275D01*
X26340Y-27948D01*
X23005Y-24613D01*
X22842Y-24372D01*
X22782Y-24074D01*
X22782Y-22633D01*
X20567Y-20418D01*
X17433Y-20418D01*
X15218Y-22633D01*
X15218Y-25767D01*
X17433Y-27982D01*
X18874Y-27982D01*
X19160Y-28038D01*
X19413Y-28205D01*
X21037Y-29829D01*
X21200Y-30071D01*
X21260Y-30368D01*
X21260Y-102275D01*
X21207Y-102555D01*
X21041Y-102810D01*
X20790Y-102979D01*
X19002Y-103720D01*
X16620Y-106102D01*
X15330Y-109215D01*
X15330Y-112585D01*
X16620Y-115698D01*
X19002Y-118081D01*
X22115Y-119370D01*
G37*
G36*
X-113250Y-65000D02*
X-77250Y-65000D01*
X-77250Y-29000D01*
X-113250Y-29000D01*
X-113250Y-65000D01*
G37*
G36*
X77250Y-95000D02*
X113250Y-95000D01*
X113250Y-59000D01*
X77250Y-59000D01*
X77250Y-95000D01*
G37*
G36*
X-85940Y-110138D02*
X-76962Y-110138D01*
X-76962Y-101160D01*
X-84452Y-101160D01*
X-85940Y-102648D01*
X-85940Y-110138D01*
G37*
G36*
X-75438Y-110138D02*
X-66460Y-110138D01*
X-66460Y-102648D01*
X-67948Y-101160D01*
X-75438Y-101160D01*
X-75438Y-110138D01*
G37*
G36*
X-37885Y-119370D02*
X-34515Y-119370D01*
X-31402Y-118081D01*
X-29020Y-115698D01*
X-27730Y-112585D01*
X-27730Y-109215D01*
X-29020Y-106102D01*
X-31402Y-103720D01*
X-34515Y-102430D01*
X-37885Y-102430D01*
X-40998Y-103720D01*
X-43381Y-106102D01*
X-44670Y-109215D01*
X-44670Y-112585D01*
X-43381Y-115698D01*
X-40998Y-118081D01*
X-37885Y-119370D01*
G37*
G36*
X-57885Y-119370D02*
X-54515Y-119370D01*
X-51402Y-118081D01*
X-49020Y-115698D01*
X-47730Y-112585D01*
X-47730Y-109215D01*
X-49020Y-106102D01*
X-51402Y-103720D01*
X-54515Y-102430D01*
X-57885Y-102430D01*
X-60998Y-103720D01*
X-63381Y-106102D01*
X-64670Y-109215D01*
X-64670Y-112585D01*
X-63381Y-115698D01*
X-60998Y-118081D01*
X-57885Y-119370D01*
G37*
G36*
X-75438Y-120640D02*
X-67948Y-120640D01*
X-66460Y-119152D01*
X-66460Y-111662D01*
X-75438Y-111662D01*
X-75438Y-120640D01*
G37*
G36*
X-84452Y-120640D02*
X-76962Y-120640D01*
X-76962Y-111662D01*
X-85940Y-111662D01*
X-85940Y-119152D01*
X-84452Y-120640D01*
G37*
G36*
X137914Y-138250D02*
X143086Y-138250D01*
X147864Y-136271D01*
X151521Y-132614D01*
X153500Y-127836D01*
X153500Y-122664D01*
X151521Y-117886D01*
X147864Y-114229D01*
X143086Y-112250D01*
X137914Y-112250D01*
X133136Y-114229D01*
X129479Y-117886D01*
X127500Y-122664D01*
X127500Y-127836D01*
X129479Y-132614D01*
X133136Y-136271D01*
X137914Y-138250D01*
G37*
G36*
X-143086Y-138250D02*
X-137914Y-138250D01*
X-133136Y-136271D01*
X-129479Y-132614D01*
X-127500Y-127836D01*
X-127500Y-122664D01*
X-129479Y-117886D01*
X-133136Y-114229D01*
X-137914Y-112250D01*
X-143086Y-112250D01*
X-147864Y-114229D01*
X-151521Y-117886D01*
X-153500Y-122664D01*
X-153500Y-127836D01*
X-151521Y-132614D01*
X-147864Y-136271D01*
X-143086Y-138250D01*
G37*
%LPD*%
D10*
X-76200Y-110900D03*
D11*
X-56200Y-110900D03*
X-36200Y-110900D03*
X-16200Y-110900D03*
X3800Y-110900D03*
X23800Y-110900D03*
D12*
X-16200Y-110900D02*
X-16200Y-40400D01*
X18800Y-5400D01*
D13*
X18800Y-5400D03*
D12*
X3800Y-34600D02*
X3800Y-110900D01*
X3800Y-34600D02*
X2100Y-32900D01*
D13*
X2100Y-32900D03*
X92400Y-100500D03*
X11900Y-51000D03*
X-52100Y-47400D03*
X-23900Y-47400D03*
X-117800Y-69200D03*
X67100Y-97700D03*
X32400Y-71400D03*
X158800Y-151900D03*
X-155500Y-151900D03*
X-171800Y32500D03*
X135100Y46000D03*
X19000Y-24200D03*
D12*
X23800Y-29000D01*
X23800Y-110900D01*
M02*
