G04 EAGLE Gerber RS-274X export*
G75*
%MOMM*%
%FSLAX34Y34*%
%LPD*%
%INBottom Copper*%
%IPPOS*%
%AMOC8*
5,1,8,0,0,1.08239X$1,22.5*%
G01*
G04 Define Apertures*
%ADD10R,1.220000X0.910000*%
%ADD11R,1.800000X0.820000*%
%ADD12C,0.166000*%
%ADD13R,1.440000X1.440000*%
%ADD14C,1.440000*%
%ADD15R,1.000000X4.000000*%
%ADD16C,0.254000*%
%ADD17C,0.502400*%
G36*
X140599Y-173243D02*
X140500Y-173250D01*
X-140500Y-173250D01*
X-140599Y-173243D01*
X-152826Y-171634D01*
X-153018Y-171582D01*
X-164411Y-166863D01*
X-164583Y-166764D01*
X-174366Y-159257D01*
X-174507Y-159116D01*
X-182014Y-149333D01*
X-182113Y-149161D01*
X-186832Y-137768D01*
X-186884Y-137576D01*
X-188493Y-125349D01*
X-188500Y-125250D01*
X-188500Y45250D01*
X-188493Y45349D01*
X-186884Y57576D01*
X-186832Y57768D01*
X-182113Y69161D01*
X-182014Y69333D01*
X-174507Y79116D01*
X-174366Y79257D01*
X-164583Y86764D01*
X-164411Y86863D01*
X-153018Y91582D01*
X-152826Y91634D01*
X-140599Y93243D01*
X-140500Y93250D01*
X140500Y93250D01*
X140599Y93243D01*
X152826Y91634D01*
X153018Y91582D01*
X164411Y86863D01*
X164583Y86764D01*
X174366Y79257D01*
X174507Y79116D01*
X182014Y69333D01*
X182113Y69161D01*
X186832Y57768D01*
X186884Y57576D01*
X188493Y45349D01*
X188500Y45250D01*
X188500Y27649D01*
X188453Y27386D01*
X188294Y27128D01*
X188046Y26953D01*
X187750Y26888D01*
X187452Y26943D01*
X187199Y27111D01*
X186040Y28270D01*
X178927Y28270D01*
X178652Y28321D01*
X178397Y28485D01*
X178225Y28735D01*
X178165Y29032D01*
X178165Y44427D01*
X150752Y71840D01*
X16373Y71840D01*
X-1929Y53538D01*
X-2149Y53385D01*
X-2444Y53315D01*
X-2743Y53366D01*
X-2998Y53529D01*
X-3170Y53780D01*
X-3230Y54077D01*
X-3230Y57040D01*
X-4460Y58270D01*
X-25290Y58270D01*
X-26520Y57040D01*
X-26520Y16960D01*
X-25290Y15730D01*
X-18177Y15730D01*
X-17902Y15679D01*
X-17647Y15515D01*
X-17475Y15265D01*
X-17415Y14968D01*
X-17415Y9423D01*
X14995Y-22987D01*
X15158Y-23229D01*
X15218Y-23526D01*
X15218Y-25767D01*
X17433Y-27982D01*
X20567Y-27982D01*
X22782Y-25767D01*
X22782Y-22633D01*
X20567Y-20418D01*
X19926Y-20418D01*
X19640Y-20362D01*
X19387Y-20195D01*
X-12112Y11304D01*
X-12275Y11546D01*
X-12335Y11843D01*
X-12335Y14968D01*
X-12284Y15243D01*
X-12120Y15498D01*
X-11870Y15670D01*
X-11573Y15730D01*
X-4460Y15730D01*
X-3230Y16960D01*
X-3230Y44737D01*
X-3174Y45023D01*
X-3007Y45276D01*
X18254Y66537D01*
X18496Y66700D01*
X18793Y66760D01*
X148332Y66760D01*
X148618Y66704D01*
X148871Y66537D01*
X172862Y42546D01*
X173025Y42305D01*
X173085Y42007D01*
X173085Y29032D01*
X173034Y28757D01*
X172870Y28502D01*
X172620Y28330D01*
X172323Y28270D01*
X165210Y28270D01*
X163980Y27040D01*
X163980Y-13040D01*
X165210Y-14270D01*
X186040Y-14270D01*
X187199Y-13111D01*
X187419Y-12958D01*
X187714Y-12888D01*
X188013Y-12939D01*
X188268Y-13102D01*
X188440Y-13352D01*
X188500Y-13649D01*
X188500Y-125250D01*
X188493Y-125349D01*
X186884Y-137576D01*
X186832Y-137768D01*
X182113Y-149161D01*
X182014Y-149333D01*
X174507Y-159116D01*
X174366Y-159257D01*
X164583Y-166764D01*
X164411Y-166863D01*
X153018Y-171582D01*
X152826Y-171634D01*
X140599Y-173243D01*
G37*
%LPC*%
G36*
X-136040Y37730D02*
X-115210Y37730D01*
X-113980Y38960D01*
X-113980Y79040D01*
X-115210Y80270D01*
X-136040Y80270D01*
X-137270Y79040D01*
X-137270Y70452D01*
X-137321Y70177D01*
X-137485Y69922D01*
X-137735Y69750D01*
X-138032Y69690D01*
X-144268Y69690D01*
X-144543Y69741D01*
X-144798Y69905D01*
X-144970Y70155D01*
X-145030Y70452D01*
X-145030Y72226D01*
X-145774Y72970D01*
X-159026Y72970D01*
X-159770Y72226D01*
X-159770Y62074D01*
X-159026Y61330D01*
X-145774Y61330D01*
X-145030Y62074D01*
X-145030Y63848D01*
X-144979Y64123D01*
X-144815Y64378D01*
X-144565Y64550D01*
X-144268Y64610D01*
X-138032Y64610D01*
X-137757Y64559D01*
X-137502Y64395D01*
X-137330Y64145D01*
X-137270Y63848D01*
X-137270Y38960D01*
X-136040Y37730D01*
G37*
G36*
X-98632Y42000D02*
X-91868Y42000D01*
X-85620Y44588D01*
X-80838Y49370D01*
X-78250Y55618D01*
X-78250Y62382D01*
X-80838Y68630D01*
X-85620Y73412D01*
X-91868Y76000D01*
X-98632Y76000D01*
X-104880Y73412D01*
X-109662Y68630D01*
X-112250Y62382D01*
X-112250Y55618D01*
X-109662Y49370D01*
X-104880Y44588D01*
X-98632Y42000D01*
G37*
G36*
X-48632Y20000D02*
X-41868Y20000D01*
X-35620Y22588D01*
X-30838Y27370D01*
X-28250Y33618D01*
X-28250Y40382D01*
X-30838Y46630D01*
X-35620Y51412D01*
X-41868Y54000D01*
X-48632Y54000D01*
X-54880Y51412D01*
X-59662Y46630D01*
X-62250Y40382D01*
X-62250Y33618D01*
X-59662Y27370D01*
X-54880Y22588D01*
X-48632Y20000D01*
G37*
G36*
X54460Y7730D02*
X75290Y7730D01*
X76520Y8960D01*
X76520Y49040D01*
X75290Y50270D01*
X54460Y50270D01*
X53230Y49040D01*
X53230Y32352D01*
X53179Y32077D01*
X53015Y31822D01*
X52765Y31650D01*
X52468Y31590D01*
X46232Y31590D01*
X45957Y31641D01*
X45702Y31805D01*
X45530Y32055D01*
X45470Y32352D01*
X45470Y34126D01*
X44726Y34870D01*
X31474Y34870D01*
X30730Y34126D01*
X30730Y23974D01*
X31474Y23230D01*
X44726Y23230D01*
X45470Y23974D01*
X45470Y25748D01*
X45521Y26023D01*
X45685Y26278D01*
X45935Y26450D01*
X46232Y26510D01*
X52468Y26510D01*
X52743Y26459D01*
X52998Y26295D01*
X53170Y26045D01*
X53230Y25748D01*
X53230Y8960D01*
X54460Y7730D01*
G37*
G36*
X91868Y12000D02*
X98632Y12000D01*
X104880Y14588D01*
X109662Y19370D01*
X112250Y25618D01*
X112250Y32382D01*
X109662Y38630D01*
X104880Y43412D01*
X98632Y46000D01*
X91868Y46000D01*
X85620Y43412D01*
X80838Y38630D01*
X78250Y32382D01*
X78250Y25618D01*
X80838Y19370D01*
X85620Y14588D01*
X91868Y12000D01*
G37*
G36*
X-61726Y-162170D02*
X-50674Y-162170D01*
X-49930Y-161426D01*
X-49930Y-120374D01*
X-50674Y-119630D01*
X-51312Y-119630D01*
X-51570Y-119585D01*
X-51829Y-119428D01*
X-52006Y-119182D01*
X-52074Y-118886D01*
X-52021Y-118588D01*
X-51855Y-118334D01*
X-51604Y-118164D01*
X-51402Y-118081D01*
X-49020Y-115698D01*
X-47730Y-112585D01*
X-47730Y-109215D01*
X-49020Y-106102D01*
X-51402Y-103720D01*
X-53190Y-102979D01*
X-53428Y-102822D01*
X-53600Y-102572D01*
X-53660Y-102275D01*
X-53660Y-94448D01*
X-61548Y-86560D01*
X-116132Y-86560D01*
X-116418Y-86504D01*
X-116671Y-86337D01*
X-123437Y-79571D01*
X-123600Y-79330D01*
X-123660Y-79032D01*
X-123660Y-60818D01*
X-123604Y-60532D01*
X-123437Y-60279D01*
X-123251Y-60093D01*
X-123010Y-59930D01*
X-122712Y-59870D01*
X-114012Y-59870D01*
X-113737Y-59921D01*
X-113482Y-60085D01*
X-113310Y-60335D01*
X-113250Y-60632D01*
X-113250Y-65000D01*
X-77250Y-65000D01*
X-77250Y-60632D01*
X-77199Y-60357D01*
X-77035Y-60102D01*
X-76785Y-59930D01*
X-76488Y-59870D01*
X-67788Y-59870D01*
X-67502Y-59926D01*
X-67249Y-60093D01*
X-38963Y-88379D01*
X-38800Y-88621D01*
X-38740Y-88918D01*
X-38740Y-102275D01*
X-38793Y-102555D01*
X-38959Y-102810D01*
X-39210Y-102979D01*
X-40998Y-103720D01*
X-43381Y-106102D01*
X-44670Y-109215D01*
X-44670Y-112585D01*
X-43381Y-115698D01*
X-40998Y-118081D01*
X-40796Y-118164D01*
X-40575Y-118304D01*
X-40396Y-118549D01*
X-40326Y-118844D01*
X-40377Y-119143D01*
X-40541Y-119398D01*
X-40791Y-119570D01*
X-41088Y-119630D01*
X-41726Y-119630D01*
X-42470Y-120374D01*
X-42470Y-161426D01*
X-41726Y-162170D01*
X-30674Y-162170D01*
X-29930Y-161426D01*
X-29930Y-120374D01*
X-30674Y-119630D01*
X-31312Y-119630D01*
X-31570Y-119585D01*
X-31829Y-119428D01*
X-32006Y-119182D01*
X-32074Y-118886D01*
X-32021Y-118588D01*
X-31855Y-118334D01*
X-31604Y-118164D01*
X-31402Y-118081D01*
X-29020Y-115698D01*
X-27730Y-112585D01*
X-27730Y-109215D01*
X-29020Y-106102D01*
X-31402Y-103720D01*
X-33190Y-102979D01*
X-33428Y-102822D01*
X-33600Y-102572D01*
X-33660Y-102275D01*
X-33660Y-86498D01*
X-35371Y-84787D01*
X-59467Y-60691D01*
X-59625Y-60460D01*
X-59690Y-60164D01*
X-59635Y-59866D01*
X-59467Y-59613D01*
X-58980Y-59126D01*
X-58980Y-57802D01*
X-58929Y-57527D01*
X-58765Y-57272D01*
X-58515Y-57100D01*
X-58218Y-57040D01*
X2332Y-57040D01*
X2618Y-57096D01*
X2871Y-57263D01*
X55848Y-110240D01*
X103552Y-110240D01*
X123699Y-90093D01*
X123941Y-89930D01*
X124238Y-89870D01*
X130776Y-89870D01*
X131520Y-89126D01*
X131520Y-79874D01*
X130776Y-79130D01*
X114012Y-79130D01*
X113737Y-79079D01*
X113482Y-78915D01*
X113310Y-78665D01*
X113250Y-78368D01*
X113250Y-75632D01*
X113301Y-75357D01*
X113465Y-75102D01*
X113715Y-74930D01*
X114012Y-74870D01*
X130776Y-74870D01*
X131520Y-74126D01*
X131520Y-64874D01*
X130776Y-64130D01*
X114012Y-64130D01*
X113737Y-64079D01*
X113482Y-63915D01*
X113310Y-63665D01*
X113250Y-63368D01*
X113250Y-59000D01*
X77250Y-59000D01*
X77250Y-62098D01*
X77199Y-62373D01*
X77035Y-62628D01*
X76785Y-62800D01*
X76488Y-62860D01*
X70012Y-62860D01*
X70012Y-76140D01*
X76488Y-76140D01*
X76763Y-76191D01*
X77018Y-76355D01*
X77190Y-76605D01*
X77250Y-76902D01*
X77250Y-78368D01*
X77199Y-78643D01*
X77035Y-78898D01*
X76785Y-79070D01*
X76488Y-79130D01*
X59724Y-79130D01*
X58980Y-79874D01*
X58980Y-81198D01*
X58929Y-81473D01*
X58765Y-81728D01*
X58515Y-81900D01*
X58218Y-81960D01*
X57868Y-81960D01*
X57582Y-81904D01*
X57329Y-81737D01*
X12552Y-36960D01*
X5228Y-36960D01*
X4965Y-36913D01*
X4707Y-36754D01*
X4531Y-36506D01*
X4466Y-36210D01*
X4522Y-35912D01*
X4689Y-35659D01*
X5882Y-34467D01*
X5882Y-31333D01*
X3667Y-29118D01*
X2226Y-29118D01*
X1940Y-29062D01*
X1687Y-28895D01*
X-9048Y-18160D01*
X-85612Y-18160D01*
X-85870Y-18115D01*
X-86129Y-17958D01*
X-86306Y-17712D01*
X-86374Y-17416D01*
X-86320Y-17118D01*
X-86155Y-16864D01*
X-85904Y-16694D01*
X-84487Y-16107D01*
X-79143Y-10763D01*
X-76250Y-3779D01*
X-76250Y3779D01*
X-79143Y10763D01*
X-84487Y16107D01*
X-91471Y19000D01*
X-99029Y19000D01*
X-106013Y16107D01*
X-111357Y10763D01*
X-114250Y3779D01*
X-114250Y-3779D01*
X-111357Y-10763D01*
X-106013Y-16107D01*
X-104597Y-16694D01*
X-104376Y-16834D01*
X-104196Y-17079D01*
X-104126Y-17374D01*
X-104177Y-17673D01*
X-104341Y-17928D01*
X-104591Y-18100D01*
X-104888Y-18160D01*
X-106832Y-18160D01*
X-107118Y-18104D01*
X-107371Y-17937D01*
X-129637Y4329D01*
X-129800Y4571D01*
X-129860Y4868D01*
X-129860Y20652D01*
X-144807Y35599D01*
X-144970Y35841D01*
X-145030Y36138D01*
X-145030Y39526D01*
X-145774Y40270D01*
X-159026Y40270D01*
X-159770Y39526D01*
X-159770Y29374D01*
X-159026Y28630D01*
X-145684Y28630D01*
X-145410Y28690D01*
X-145112Y28635D01*
X-144859Y28467D01*
X-135163Y18771D01*
X-135000Y18530D01*
X-134940Y18232D01*
X-134940Y2448D01*
X-109252Y-23240D01*
X-11468Y-23240D01*
X-11182Y-23296D01*
X-10929Y-23463D01*
X-1905Y-32487D01*
X-1742Y-32729D01*
X-1682Y-33026D01*
X-1682Y-34467D01*
X-489Y-35659D01*
X-336Y-35879D01*
X-267Y-36174D01*
X-317Y-36473D01*
X-481Y-36728D01*
X-731Y-36900D01*
X-1028Y-36960D01*
X-58218Y-36960D01*
X-58493Y-36909D01*
X-58748Y-36745D01*
X-58920Y-36495D01*
X-58980Y-36198D01*
X-58980Y-34874D01*
X-59724Y-34130D01*
X-76488Y-34130D01*
X-76763Y-34079D01*
X-77018Y-33915D01*
X-77190Y-33665D01*
X-77250Y-33368D01*
X-77250Y-29000D01*
X-113250Y-29000D01*
X-113250Y-32098D01*
X-113301Y-32373D01*
X-113465Y-32628D01*
X-113715Y-32800D01*
X-114012Y-32860D01*
X-120488Y-32860D01*
X-120488Y-46140D01*
X-114012Y-46140D01*
X-113737Y-46191D01*
X-113482Y-46355D01*
X-113310Y-46605D01*
X-113250Y-46902D01*
X-113250Y-48368D01*
X-113301Y-48643D01*
X-113465Y-48898D01*
X-113715Y-49070D01*
X-114012Y-49130D01*
X-130776Y-49130D01*
X-131520Y-49874D01*
X-131520Y-59126D01*
X-130776Y-59870D01*
X-129502Y-59870D01*
X-129227Y-59921D01*
X-128972Y-60085D01*
X-128800Y-60335D01*
X-128740Y-60632D01*
X-128740Y-81452D01*
X-118552Y-91640D01*
X-63968Y-91640D01*
X-63682Y-91696D01*
X-63429Y-91863D01*
X-58963Y-96329D01*
X-58800Y-96571D01*
X-58740Y-96868D01*
X-58740Y-102275D01*
X-58793Y-102555D01*
X-58959Y-102810D01*
X-59210Y-102979D01*
X-60998Y-103720D01*
X-63381Y-106102D01*
X-64670Y-109215D01*
X-64670Y-112585D01*
X-63381Y-115698D01*
X-60998Y-118081D01*
X-60796Y-118164D01*
X-60575Y-118304D01*
X-60396Y-118549D01*
X-60326Y-118844D01*
X-60377Y-119143D01*
X-60541Y-119398D01*
X-60791Y-119570D01*
X-61088Y-119630D01*
X-61726Y-119630D01*
X-62470Y-120374D01*
X-62470Y-161426D01*
X-61726Y-162170D01*
G37*
G36*
X141868Y-10000D02*
X148632Y-10000D01*
X154880Y-7412D01*
X159662Y-2630D01*
X162250Y3618D01*
X162250Y10382D01*
X159662Y16630D01*
X154880Y21412D01*
X148632Y24000D01*
X141868Y24000D01*
X135620Y21412D01*
X130838Y16630D01*
X128250Y10382D01*
X128250Y3618D01*
X130838Y-2630D01*
X135620Y-7412D01*
X141868Y-10000D01*
G37*
G36*
X-42339Y-10500D02*
X-38161Y-10500D01*
X-34302Y-8901D01*
X-31349Y-5948D01*
X-29750Y-2089D01*
X-29750Y2089D01*
X-31349Y5948D01*
X-34302Y8901D01*
X-38161Y10500D01*
X-42339Y10500D01*
X-46198Y8901D01*
X-49151Y5948D01*
X-50750Y2089D01*
X-50750Y-2089D01*
X-49151Y-5948D01*
X-46198Y-8901D01*
X-42339Y-10500D01*
G37*
G36*
X-152339Y-10500D02*
X-148161Y-10500D01*
X-144302Y-8901D01*
X-141349Y-5948D01*
X-139750Y-2089D01*
X-139750Y2089D01*
X-141349Y5948D01*
X-144302Y8901D01*
X-148161Y10500D01*
X-152339Y10500D01*
X-156198Y8901D01*
X-159151Y5948D01*
X-160750Y2089D01*
X-160750Y-2089D01*
X-159151Y-5948D01*
X-156198Y-8901D01*
X-152339Y-10500D01*
G37*
G36*
X31474Y-9470D02*
X44726Y-9470D01*
X45470Y-8726D01*
X45470Y1426D01*
X44726Y2170D01*
X31474Y2170D01*
X30730Y1426D01*
X30730Y-348D01*
X30679Y-623D01*
X30515Y-878D01*
X30265Y-1050D01*
X29968Y-1110D01*
X19498Y-1110D01*
X19213Y-1395D01*
X18972Y-1558D01*
X18674Y-1618D01*
X17233Y-1618D01*
X15018Y-3833D01*
X15018Y-6967D01*
X17233Y-9182D01*
X20367Y-9182D01*
X22582Y-6967D01*
X22582Y-6952D01*
X22633Y-6677D01*
X22797Y-6422D01*
X23047Y-6250D01*
X23344Y-6190D01*
X29968Y-6190D01*
X30243Y-6241D01*
X30498Y-6405D01*
X30670Y-6655D01*
X30730Y-6952D01*
X30730Y-8726D01*
X31474Y-9470D01*
G37*
G36*
X91471Y-49000D02*
X99029Y-49000D01*
X106013Y-46107D01*
X111357Y-40763D01*
X114250Y-33779D01*
X114250Y-26221D01*
X111357Y-19237D01*
X106013Y-13893D01*
X99029Y-11000D01*
X91471Y-11000D01*
X84487Y-13893D01*
X79143Y-19237D01*
X76250Y-26221D01*
X76250Y-33779D01*
X79143Y-40763D01*
X84487Y-46107D01*
X91471Y-49000D01*
G37*
G36*
X148161Y-40500D02*
X152339Y-40500D01*
X156198Y-38901D01*
X159151Y-35948D01*
X160750Y-32089D01*
X160750Y-27911D01*
X159151Y-24052D01*
X156198Y-21099D01*
X152339Y-19500D01*
X148161Y-19500D01*
X144302Y-21099D01*
X141349Y-24052D01*
X139750Y-27911D01*
X139750Y-32089D01*
X141349Y-35948D01*
X144302Y-38901D01*
X148161Y-40500D01*
G37*
G36*
X38161Y-40500D02*
X42339Y-40500D01*
X46198Y-38901D01*
X49151Y-35948D01*
X50750Y-32089D01*
X50750Y-27911D01*
X49151Y-24052D01*
X46198Y-21099D01*
X42339Y-19500D01*
X38161Y-19500D01*
X34302Y-21099D01*
X31349Y-24052D01*
X29750Y-27911D01*
X29750Y-32089D01*
X31349Y-35948D01*
X34302Y-38901D01*
X38161Y-40500D01*
G37*
G36*
X-132790Y-38738D02*
X-122012Y-38738D01*
X-122012Y-32860D01*
X-131302Y-32860D01*
X-132790Y-34348D01*
X-132790Y-38738D01*
G37*
G36*
X-131302Y-46140D02*
X-122012Y-46140D01*
X-122012Y-40262D01*
X-132790Y-40262D01*
X-132790Y-44652D01*
X-131302Y-46140D01*
G37*
G36*
X57710Y-68738D02*
X68488Y-68738D01*
X68488Y-62860D01*
X59198Y-62860D01*
X57710Y-64348D01*
X57710Y-68738D01*
G37*
G36*
X59198Y-76140D02*
X68488Y-76140D01*
X68488Y-70262D01*
X57710Y-70262D01*
X57710Y-74652D01*
X59198Y-76140D01*
G37*
G36*
X-85940Y-110138D02*
X-76962Y-110138D01*
X-76962Y-101160D01*
X-84452Y-101160D01*
X-85940Y-102648D01*
X-85940Y-110138D01*
G37*
G36*
X-75438Y-110138D02*
X-66460Y-110138D01*
X-66460Y-102648D01*
X-67948Y-101160D01*
X-75438Y-101160D01*
X-75438Y-110138D01*
G37*
G36*
X18274Y-162170D02*
X29326Y-162170D01*
X30070Y-161426D01*
X30070Y-120374D01*
X29326Y-119630D01*
X28688Y-119630D01*
X28430Y-119585D01*
X28171Y-119428D01*
X27994Y-119182D01*
X27926Y-118886D01*
X27979Y-118588D01*
X28145Y-118334D01*
X28396Y-118164D01*
X28598Y-118081D01*
X30981Y-115698D01*
X32270Y-112585D01*
X32270Y-109215D01*
X30981Y-106102D01*
X28598Y-103720D01*
X25485Y-102430D01*
X22115Y-102430D01*
X19002Y-103720D01*
X16620Y-106102D01*
X15330Y-109215D01*
X15330Y-112585D01*
X16620Y-115698D01*
X19002Y-118081D01*
X19204Y-118164D01*
X19425Y-118304D01*
X19604Y-118549D01*
X19674Y-118844D01*
X19623Y-119143D01*
X19459Y-119398D01*
X19209Y-119570D01*
X18912Y-119630D01*
X18274Y-119630D01*
X17530Y-120374D01*
X17530Y-161426D01*
X18274Y-162170D01*
G37*
G36*
X-1726Y-162170D02*
X9326Y-162170D01*
X10070Y-161426D01*
X10070Y-120374D01*
X9326Y-119630D01*
X8688Y-119630D01*
X8430Y-119585D01*
X8171Y-119428D01*
X7994Y-119182D01*
X7926Y-118886D01*
X7979Y-118588D01*
X8145Y-118334D01*
X8396Y-118164D01*
X8598Y-118081D01*
X10981Y-115698D01*
X12270Y-112585D01*
X12270Y-109215D01*
X10981Y-106102D01*
X8598Y-103720D01*
X5485Y-102430D01*
X2115Y-102430D01*
X-998Y-103720D01*
X-3381Y-106102D01*
X-4670Y-109215D01*
X-4670Y-112585D01*
X-3381Y-115698D01*
X-998Y-118081D01*
X-796Y-118164D01*
X-575Y-118304D01*
X-396Y-118549D01*
X-326Y-118844D01*
X-377Y-119143D01*
X-541Y-119398D01*
X-791Y-119570D01*
X-1088Y-119630D01*
X-1726Y-119630D01*
X-2470Y-120374D01*
X-2470Y-161426D01*
X-1726Y-162170D01*
G37*
G36*
X-21726Y-162170D02*
X-10674Y-162170D01*
X-9930Y-161426D01*
X-9930Y-120374D01*
X-10674Y-119630D01*
X-11312Y-119630D01*
X-11570Y-119585D01*
X-11829Y-119428D01*
X-12006Y-119182D01*
X-12074Y-118886D01*
X-12021Y-118588D01*
X-11855Y-118334D01*
X-11604Y-118164D01*
X-11402Y-118081D01*
X-9020Y-115698D01*
X-7730Y-112585D01*
X-7730Y-109215D01*
X-9020Y-106102D01*
X-11402Y-103720D01*
X-14515Y-102430D01*
X-17885Y-102430D01*
X-20998Y-103720D01*
X-23381Y-106102D01*
X-24670Y-109215D01*
X-24670Y-112585D01*
X-23381Y-115698D01*
X-20998Y-118081D01*
X-20796Y-118164D01*
X-20575Y-118304D01*
X-20396Y-118549D01*
X-20326Y-118844D01*
X-20377Y-119143D01*
X-20541Y-119398D01*
X-20791Y-119570D01*
X-21088Y-119630D01*
X-21726Y-119630D01*
X-22470Y-120374D01*
X-22470Y-161426D01*
X-21726Y-162170D01*
G37*
G36*
X-83740Y-140138D02*
X-68660Y-140138D01*
X-68660Y-121402D01*
X-68609Y-121127D01*
X-68445Y-120872D01*
X-68195Y-120700D01*
X-67961Y-120653D01*
X-66460Y-119152D01*
X-66460Y-111662D01*
X-85940Y-111662D01*
X-85940Y-119152D01*
X-84441Y-120651D01*
X-84227Y-120691D01*
X-83972Y-120855D01*
X-83800Y-121105D01*
X-83740Y-121402D01*
X-83740Y-140138D01*
G37*
G36*
X137914Y-138250D02*
X143086Y-138250D01*
X147864Y-136271D01*
X151521Y-132614D01*
X153500Y-127836D01*
X153500Y-122664D01*
X151521Y-117886D01*
X147864Y-114229D01*
X143086Y-112250D01*
X137914Y-112250D01*
X133136Y-114229D01*
X129479Y-117886D01*
X127500Y-122664D01*
X127500Y-127836D01*
X129479Y-132614D01*
X133136Y-136271D01*
X137914Y-138250D01*
G37*
G36*
X-143086Y-138250D02*
X-137914Y-138250D01*
X-133136Y-136271D01*
X-129479Y-132614D01*
X-127500Y-127836D01*
X-127500Y-122664D01*
X-129479Y-117886D01*
X-133136Y-114229D01*
X-137914Y-112250D01*
X-143086Y-112250D01*
X-147864Y-114229D01*
X-151521Y-117886D01*
X-153500Y-122664D01*
X-153500Y-127836D01*
X-151521Y-132614D01*
X-147864Y-136271D01*
X-143086Y-138250D01*
G37*
G36*
X-75438Y-163440D02*
X-70148Y-163440D01*
X-68660Y-161952D01*
X-68660Y-141662D01*
X-75438Y-141662D01*
X-75438Y-163440D01*
G37*
G36*
X-82252Y-163440D02*
X-76962Y-163440D01*
X-76962Y-141662D01*
X-83740Y-141662D01*
X-83740Y-161952D01*
X-82252Y-163440D01*
G37*
%LPD*%
G36*
X101430Y-105100D02*
X101132Y-105160D01*
X58268Y-105160D01*
X57982Y-105104D01*
X57729Y-104937D01*
X4752Y-51960D01*
X-58218Y-51960D01*
X-58493Y-51909D01*
X-58748Y-51745D01*
X-58920Y-51495D01*
X-58980Y-51198D01*
X-58980Y-49874D01*
X-59724Y-49130D01*
X-76488Y-49130D01*
X-76763Y-49079D01*
X-77018Y-48915D01*
X-77190Y-48665D01*
X-77250Y-48368D01*
X-77250Y-45632D01*
X-77199Y-45357D01*
X-77035Y-45102D01*
X-76785Y-44930D01*
X-76488Y-44870D01*
X-59724Y-44870D01*
X-58980Y-44126D01*
X-58980Y-42802D01*
X-58929Y-42527D01*
X-58765Y-42272D01*
X-58515Y-42100D01*
X-58218Y-42040D01*
X10132Y-42040D01*
X10418Y-42096D01*
X10671Y-42263D01*
X55448Y-87040D01*
X58218Y-87040D01*
X58493Y-87091D01*
X58748Y-87255D01*
X58920Y-87505D01*
X58980Y-87802D01*
X58980Y-89126D01*
X59724Y-89870D01*
X76488Y-89870D01*
X76763Y-89921D01*
X77018Y-90085D01*
X77190Y-90335D01*
X77250Y-90632D01*
X77250Y-95000D01*
X109768Y-95000D01*
X110032Y-95047D01*
X110290Y-95206D01*
X110465Y-95454D01*
X110530Y-95750D01*
X110475Y-96048D01*
X110307Y-96301D01*
X101671Y-104937D01*
X101430Y-105100D01*
G37*
D10*
X-152400Y34450D03*
X-152400Y67150D03*
X38100Y-3650D03*
X38100Y29050D03*
D11*
X-121250Y-54500D03*
X-121250Y-39500D03*
X-69250Y-39500D03*
X-69250Y-54500D03*
X69250Y-84500D03*
X69250Y-69500D03*
X121250Y-69500D03*
X121250Y-84500D03*
D12*
X-5330Y17830D02*
X-24420Y17830D01*
X-24420Y56170D01*
X-5330Y56170D01*
X-5330Y17830D01*
X-5330Y19407D02*
X-24420Y19407D01*
X-24420Y20984D02*
X-5330Y20984D01*
X-5330Y22561D02*
X-24420Y22561D01*
X-24420Y24138D02*
X-5330Y24138D01*
X-5330Y25715D02*
X-24420Y25715D01*
X-24420Y27292D02*
X-5330Y27292D01*
X-5330Y28869D02*
X-24420Y28869D01*
X-24420Y30446D02*
X-5330Y30446D01*
X-5330Y32023D02*
X-24420Y32023D01*
X-24420Y33600D02*
X-5330Y33600D01*
X-5330Y35177D02*
X-24420Y35177D01*
X-24420Y36754D02*
X-5330Y36754D01*
X-5330Y38331D02*
X-24420Y38331D01*
X-24420Y39908D02*
X-5330Y39908D01*
X-5330Y41485D02*
X-24420Y41485D01*
X-24420Y43062D02*
X-5330Y43062D01*
X-5330Y44639D02*
X-24420Y44639D01*
X-24420Y46216D02*
X-5330Y46216D01*
X-5330Y47793D02*
X-24420Y47793D01*
X-24420Y49370D02*
X-5330Y49370D01*
X-5330Y50947D02*
X-24420Y50947D01*
X-24420Y52524D02*
X-5330Y52524D01*
X-5330Y54101D02*
X-24420Y54101D01*
X-24420Y55678D02*
X-5330Y55678D01*
X-116080Y39830D02*
X-135170Y39830D01*
X-135170Y78170D01*
X-116080Y78170D01*
X-116080Y39830D01*
X-116080Y41407D02*
X-135170Y41407D01*
X-135170Y42984D02*
X-116080Y42984D01*
X-116080Y44561D02*
X-135170Y44561D01*
X-135170Y46138D02*
X-116080Y46138D01*
X-116080Y47715D02*
X-135170Y47715D01*
X-135170Y49292D02*
X-116080Y49292D01*
X-116080Y50869D02*
X-135170Y50869D01*
X-135170Y52446D02*
X-116080Y52446D01*
X-116080Y54023D02*
X-135170Y54023D01*
X-135170Y55600D02*
X-116080Y55600D01*
X-116080Y57177D02*
X-135170Y57177D01*
X-135170Y58754D02*
X-116080Y58754D01*
X-116080Y60331D02*
X-135170Y60331D01*
X-135170Y61908D02*
X-116080Y61908D01*
X-116080Y63485D02*
X-135170Y63485D01*
X-135170Y65062D02*
X-116080Y65062D01*
X-116080Y66639D02*
X-135170Y66639D01*
X-135170Y68216D02*
X-116080Y68216D01*
X-116080Y69793D02*
X-135170Y69793D01*
X-135170Y71370D02*
X-116080Y71370D01*
X-116080Y72947D02*
X-135170Y72947D01*
X-135170Y74524D02*
X-116080Y74524D01*
X-116080Y76101D02*
X-135170Y76101D01*
X-135170Y77678D02*
X-116080Y77678D01*
X166080Y-12170D02*
X185170Y-12170D01*
X166080Y-12170D02*
X166080Y26170D01*
X185170Y26170D01*
X185170Y-12170D01*
X185170Y-10593D02*
X166080Y-10593D01*
X166080Y-9016D02*
X185170Y-9016D01*
X185170Y-7439D02*
X166080Y-7439D01*
X166080Y-5862D02*
X185170Y-5862D01*
X185170Y-4285D02*
X166080Y-4285D01*
X166080Y-2708D02*
X185170Y-2708D01*
X185170Y-1131D02*
X166080Y-1131D01*
X166080Y446D02*
X185170Y446D01*
X185170Y2023D02*
X166080Y2023D01*
X166080Y3600D02*
X185170Y3600D01*
X185170Y5177D02*
X166080Y5177D01*
X166080Y6754D02*
X185170Y6754D01*
X185170Y8331D02*
X166080Y8331D01*
X166080Y9908D02*
X185170Y9908D01*
X185170Y11485D02*
X166080Y11485D01*
X166080Y13062D02*
X185170Y13062D01*
X185170Y14639D02*
X166080Y14639D01*
X166080Y16216D02*
X185170Y16216D01*
X185170Y17793D02*
X166080Y17793D01*
X166080Y19370D02*
X185170Y19370D01*
X185170Y20947D02*
X166080Y20947D01*
X166080Y22524D02*
X185170Y22524D01*
X185170Y24101D02*
X166080Y24101D01*
X166080Y25678D02*
X185170Y25678D01*
X74420Y9830D02*
X55330Y9830D01*
X55330Y48170D01*
X74420Y48170D01*
X74420Y9830D01*
X74420Y11407D02*
X55330Y11407D01*
X55330Y12984D02*
X74420Y12984D01*
X74420Y14561D02*
X55330Y14561D01*
X55330Y16138D02*
X74420Y16138D01*
X74420Y17715D02*
X55330Y17715D01*
X55330Y19292D02*
X74420Y19292D01*
X74420Y20869D02*
X55330Y20869D01*
X55330Y22446D02*
X74420Y22446D01*
X74420Y24023D02*
X55330Y24023D01*
X55330Y25600D02*
X74420Y25600D01*
X74420Y27177D02*
X55330Y27177D01*
X55330Y28754D02*
X74420Y28754D01*
X74420Y30331D02*
X55330Y30331D01*
X55330Y31908D02*
X74420Y31908D01*
X74420Y33485D02*
X55330Y33485D01*
X55330Y35062D02*
X74420Y35062D01*
X74420Y36639D02*
X55330Y36639D01*
X55330Y38216D02*
X74420Y38216D01*
X74420Y39793D02*
X55330Y39793D01*
X55330Y41370D02*
X74420Y41370D01*
X74420Y42947D02*
X55330Y42947D01*
X55330Y44524D02*
X74420Y44524D01*
X74420Y46101D02*
X55330Y46101D01*
X55330Y47678D02*
X74420Y47678D01*
D13*
X-76200Y-110900D03*
D14*
X-56200Y-110900D03*
X-36200Y-110900D03*
X-16200Y-110900D03*
X3800Y-110900D03*
X23800Y-110900D03*
D15*
X-76200Y-140900D03*
X-56200Y-140900D03*
X-36200Y-140900D03*
X-16200Y-140900D03*
X3800Y-140900D03*
X23800Y-140900D03*
D16*
X-133775Y67150D02*
X-152400Y67150D01*
X-133775Y67150D02*
X-125625Y59000D01*
X38100Y29050D02*
X64825Y29050D01*
X64875Y29000D01*
X69250Y-84500D02*
X56500Y-84500D01*
X17900Y-45900D01*
X11500Y-39500D01*
X-69250Y-39500D01*
X-56200Y-110900D02*
X-56200Y-140900D01*
X-126200Y-59450D02*
X-121250Y-54500D01*
X-126200Y-59450D02*
X-126200Y-80400D01*
X-117500Y-89100D01*
X-73800Y-89100D01*
X-62600Y-89100D01*
X-59500Y-92200D01*
X-56200Y-95500D01*
X-56200Y-110900D01*
X-16200Y-110900D02*
X-16200Y-140900D01*
D17*
X18800Y-5400D03*
D16*
X20550Y-3650D01*
X38100Y-3650D01*
X3800Y-110900D02*
X3800Y-140900D01*
D17*
X2100Y-32900D03*
D16*
X-10100Y-20700D01*
X-51000Y-20700D01*
X-108200Y-20700D01*
X-124900Y-4000D01*
X-132400Y3500D01*
X-132400Y19600D01*
X-147250Y34450D01*
X-152400Y34450D01*
X-76200Y-110900D02*
X-76200Y-140900D01*
D17*
X92400Y-100500D03*
X11900Y-51000D03*
X-52100Y-47400D03*
X-23900Y-47400D03*
X-117800Y-69200D03*
X67100Y-97700D03*
X32400Y-71400D03*
X158800Y-151900D03*
X-155500Y-151900D03*
X-171800Y32500D03*
X135100Y46000D03*
D16*
X23800Y-110900D02*
X23800Y-140900D01*
X-14875Y37000D02*
X17425Y69300D01*
X123800Y69300D01*
X149700Y69300D01*
X168700Y50300D01*
X175625Y43375D01*
X175625Y7000D01*
X-14875Y10475D02*
X-14875Y37000D01*
X-14875Y10475D02*
X12900Y-17300D01*
X19000Y-23400D01*
X19000Y-24200D01*
D17*
X19000Y-24200D03*
D16*
X-36200Y-110900D02*
X-36200Y-140900D01*
X-36200Y-110900D02*
X-36200Y-87550D01*
X-69250Y-54500D01*
X3700Y-54500D01*
X41200Y-92000D01*
X56900Y-107700D01*
X102500Y-107700D01*
X121250Y-88950D01*
X121250Y-84500D01*
M02*
