G04 EAGLE Gerber RS-274X export*
G75*
%MOMM*%
%FSLAX34Y34*%
%LPD*%
%INSoldermask Bottom*%
%IPPOS*%
%AMOC8*
5,1,8,0,0,1.08239X$1,22.5*%
G01*
G04 Define Apertures*
%ADD10R,0.832300X0.763200*%
%ADD11R,0.763200X0.832300*%
%ADD12R,0.847200X0.738300*%
%ADD13C,1.503200*%
%ADD14R,0.762000X1.625600*%
%ADD15R,2.003200X2.003200*%
%ADD16C,2.003200*%
%ADD17C,0.705600*%
D10*
X-80000Y-4846D03*
X-80000Y4846D03*
X-80000Y-25154D03*
X-80000Y-34846D03*
D11*
X66454Y-180100D03*
X76146Y-180100D03*
X73446Y-114400D03*
X63754Y-114400D03*
D12*
X80000Y-29925D03*
X80000Y-40075D03*
X80000Y42075D03*
X80000Y31925D03*
D13*
X-53500Y-56600D03*
X-53500Y-38800D03*
X-53500Y-21000D03*
X-53500Y-3200D03*
X-53500Y14600D03*
X-53500Y32400D03*
X-53500Y50200D03*
X-53500Y68000D03*
X53500Y76900D03*
X53500Y59100D03*
X53500Y41300D03*
X53500Y23500D03*
X53500Y5700D03*
X53500Y-12100D03*
X53500Y-29900D03*
X53500Y-47700D03*
D14*
X77600Y-154744D03*
X68100Y-154744D03*
X58600Y-154744D03*
X58600Y-131856D03*
X77600Y-131856D03*
D15*
X63500Y-246540D03*
D16*
X38100Y-246540D03*
X12700Y-246540D03*
X-12700Y-246540D03*
X-38100Y-246540D03*
X-63500Y-246540D03*
D17*
X82700Y23700D03*
X86100Y-86000D03*
X79300Y-57200D03*
X64100Y-103700D03*
X77200Y-211500D03*
X-80100Y-99900D03*
X-48000Y-197700D03*
X-47700Y-147500D03*
X-77800Y-166400D03*
X-30100Y-197100D03*
X33900Y-225500D03*
X-20100Y-219800D03*
X26400Y-195100D03*
X42500Y-136300D03*
X-28100Y-120200D03*
X-46800Y-113100D03*
X-50500Y-97300D03*
X-69500Y-35300D03*
X-41900Y-90400D03*
X37600Y-88900D03*
X53100Y-64600D03*
X85300Y-243000D03*
X87900Y-230400D03*
X15400Y-207400D03*
X64400Y-58400D03*
X11400Y-221800D03*
X40900Y-206000D03*
M02*
