G04 EAGLE Gerber RS-274X export*
G75*
%MOMM*%
%FSLAX34Y34*%
%LPD*%
%INTop Copper*%
%IPPOS*%
%AMOC8*
5,1,8,0,0,1.08239X$1,22.5*%
G01*
G04 Define Apertures*
%ADD10C,1.300000*%
%ADD11R,1.800000X1.800000*%
%ADD12C,1.800000*%
%ADD13C,0.502400*%
%ADD14C,0.200000*%
%ADD15C,0.152400*%
G36*
X-71902Y-255940D02*
X-72200Y-256000D01*
X-74250Y-256000D01*
X-74399Y-255985D01*
X-80995Y-254673D01*
X-81270Y-254559D01*
X-86862Y-250823D01*
X-87073Y-250612D01*
X-90809Y-245020D01*
X-90923Y-244745D01*
X-92235Y-238149D01*
X-92250Y-238000D01*
X-92250Y80000D01*
X-92235Y80149D01*
X-90923Y86745D01*
X-90809Y87020D01*
X-87073Y92612D01*
X-86862Y92823D01*
X-81270Y96559D01*
X-80995Y96673D01*
X-74399Y97985D01*
X-74250Y98000D01*
X74250Y98000D01*
X74399Y97985D01*
X80995Y96673D01*
X81270Y96559D01*
X86862Y92823D01*
X87073Y92612D01*
X90809Y87020D01*
X90923Y86745D01*
X92235Y80149D01*
X92250Y80000D01*
X92250Y-58337D01*
X92203Y-58601D01*
X92044Y-58859D01*
X91796Y-59034D01*
X91500Y-59099D01*
X91202Y-59044D01*
X90949Y-58876D01*
X85193Y-53120D01*
X85030Y-52879D01*
X84970Y-52581D01*
X84970Y20306D01*
X85026Y20592D01*
X85193Y20845D01*
X86482Y22133D01*
X86482Y25267D01*
X84267Y27482D01*
X81133Y27482D01*
X78918Y25267D01*
X78918Y22133D01*
X80207Y20845D01*
X80370Y20603D01*
X80430Y20306D01*
X80430Y-52656D01*
X80379Y-52931D01*
X80215Y-53186D01*
X79965Y-53358D01*
X79668Y-53418D01*
X77733Y-53418D01*
X75518Y-55633D01*
X75518Y-58767D01*
X77733Y-60982D01*
X79556Y-60982D01*
X79842Y-61038D01*
X80095Y-61205D01*
X83607Y-64717D01*
X83770Y-64959D01*
X83830Y-65256D01*
X83830Y-82606D01*
X83774Y-82892D01*
X83607Y-83145D01*
X82318Y-84433D01*
X82318Y-87567D01*
X84533Y-89782D01*
X87850Y-89782D01*
X88125Y-89833D01*
X88380Y-89997D01*
X88552Y-90247D01*
X88612Y-90544D01*
X88612Y-217902D01*
X88556Y-218188D01*
X88389Y-218441D01*
X70783Y-236047D01*
X70541Y-236210D01*
X70244Y-236270D01*
X56756Y-236270D01*
X56470Y-236214D01*
X56217Y-236047D01*
X17662Y-197492D01*
X14716Y-197492D01*
X14484Y-197456D01*
X14219Y-197308D01*
X14033Y-197068D01*
X13955Y-196775D01*
X13998Y-196475D01*
X14154Y-196215D01*
X14399Y-196037D01*
X21172Y-192944D01*
X29596Y-185645D01*
X35622Y-176268D01*
X38762Y-165573D01*
X38762Y-154427D01*
X35622Y-143732D01*
X29596Y-134355D01*
X21172Y-127056D01*
X11033Y-122426D01*
X0Y-120839D01*
X-11033Y-122426D01*
X-21172Y-127056D01*
X-29596Y-134355D01*
X-35622Y-143732D01*
X-35999Y-145017D01*
X-36166Y-145314D01*
X-36411Y-145494D01*
X-36706Y-145563D01*
X-37005Y-145513D01*
X-37260Y-145349D01*
X-37432Y-145099D01*
X-37492Y-144802D01*
X-37492Y-142338D01*
X-51007Y-128823D01*
X-51170Y-128581D01*
X-51230Y-128284D01*
X-51230Y-112984D01*
X-56943Y-107271D01*
X-57096Y-107051D01*
X-57166Y-106756D01*
X-57115Y-106457D01*
X-56952Y-106202D01*
X-56702Y-106030D01*
X-56405Y-105970D01*
X60706Y-105970D01*
X60992Y-106026D01*
X61245Y-106193D01*
X62533Y-107482D01*
X65667Y-107482D01*
X67729Y-105419D01*
X67949Y-105266D01*
X68244Y-105197D01*
X68543Y-105247D01*
X68798Y-105411D01*
X68970Y-105661D01*
X69030Y-105958D01*
X69030Y-174344D01*
X68974Y-174630D01*
X68807Y-174883D01*
X41695Y-201995D01*
X41453Y-202158D01*
X41156Y-202218D01*
X39333Y-202218D01*
X37118Y-204433D01*
X37118Y-207567D01*
X39333Y-209782D01*
X42467Y-209782D01*
X44682Y-207567D01*
X44682Y-205744D01*
X44738Y-205458D01*
X44905Y-205205D01*
X73570Y-176540D01*
X73570Y-51960D01*
X70163Y-48553D01*
X70000Y-48311D01*
X69940Y-48014D01*
X69940Y4873D01*
X58440Y16373D01*
X58282Y16604D01*
X58216Y16900D01*
X58272Y17198D01*
X58440Y17451D01*
X60087Y19099D01*
X61270Y21954D01*
X61270Y25046D01*
X60087Y27901D01*
X57901Y30087D01*
X55046Y31270D01*
X51954Y31270D01*
X49099Y30087D01*
X46913Y27901D01*
X46551Y27028D01*
X46411Y26807D01*
X46166Y26627D01*
X45871Y26558D01*
X45572Y26608D01*
X45317Y26772D01*
X45145Y27022D01*
X45085Y27319D01*
X45085Y37481D01*
X45130Y37738D01*
X45287Y37998D01*
X45533Y38175D01*
X45829Y38243D01*
X46127Y38189D01*
X46382Y38024D01*
X46551Y37772D01*
X46913Y36899D01*
X49099Y34713D01*
X51954Y33530D01*
X55046Y33530D01*
X57901Y34713D01*
X60087Y36899D01*
X61270Y39754D01*
X61270Y42846D01*
X60087Y45701D01*
X57901Y47887D01*
X55046Y49070D01*
X51954Y49070D01*
X49099Y47887D01*
X46913Y45701D01*
X46551Y44828D01*
X46411Y44607D01*
X46166Y44427D01*
X45871Y44358D01*
X45572Y44408D01*
X45317Y44572D01*
X45145Y44822D01*
X45085Y45119D01*
X45085Y55281D01*
X45130Y55538D01*
X45287Y55798D01*
X45533Y55975D01*
X45829Y56043D01*
X46127Y55989D01*
X46382Y55824D01*
X46551Y55572D01*
X46913Y54699D01*
X49099Y52513D01*
X51954Y51330D01*
X55046Y51330D01*
X57901Y52513D01*
X60087Y54699D01*
X60402Y55460D01*
X60559Y55698D01*
X60809Y55870D01*
X61106Y55930D01*
X81340Y55930D01*
X88070Y62660D01*
X88070Y79240D01*
X70940Y96370D01*
X-70640Y96370D01*
X-85770Y81240D01*
X-85770Y-14917D01*
X-85826Y-15203D01*
X-85993Y-15456D01*
X-89410Y-18873D01*
X-89410Y-173040D01*
X-89395Y-173055D01*
X-89232Y-173297D01*
X-89172Y-173594D01*
X-89172Y-198342D01*
X-47162Y-240352D01*
X-47002Y-240588D01*
X-46939Y-240884D01*
X-46997Y-241182D01*
X-48370Y-244497D01*
X-48370Y-248583D01*
X-46806Y-252358D01*
X-44465Y-254699D01*
X-44312Y-254919D01*
X-44242Y-255214D01*
X-44293Y-255513D01*
X-44456Y-255768D01*
X-44706Y-255940D01*
X-45004Y-256000D01*
X-54800Y-256000D01*
X-55064Y-255953D01*
X-55322Y-255794D01*
X-55497Y-255546D01*
X-55562Y-255250D01*
X-55507Y-254952D01*
X-55339Y-254699D01*
X-53717Y-253077D01*
X-51960Y-248835D01*
X-51960Y-247302D01*
X-75040Y-247302D01*
X-75040Y-248835D01*
X-73283Y-253077D01*
X-71661Y-254699D01*
X-71508Y-254919D01*
X-71438Y-255214D01*
X-71489Y-255513D01*
X-71652Y-255768D01*
X-71902Y-255940D01*
G37*
%LPC*%
G36*
X-75040Y-245778D02*
X-64262Y-245778D01*
X-64262Y-235000D01*
X-65795Y-235000D01*
X-70037Y-236757D01*
X-73283Y-240003D01*
X-75040Y-244245D01*
X-75040Y-245778D01*
G37*
G36*
X-62738Y-245778D02*
X-51960Y-245778D01*
X-51960Y-244245D01*
X-53717Y-240003D01*
X-56963Y-236757D01*
X-61205Y-235000D01*
X-62738Y-235000D01*
X-62738Y-245778D01*
G37*
%LPD*%
G36*
X-80149Y-14169D02*
X-80444Y-14239D01*
X-80743Y-14188D01*
X-80998Y-14025D01*
X-81170Y-13775D01*
X-81230Y-13477D01*
X-81230Y79044D01*
X-81174Y79330D01*
X-81007Y79583D01*
X-68983Y91607D01*
X-68741Y91770D01*
X-68444Y91830D01*
X68744Y91830D01*
X69030Y91774D01*
X69283Y91607D01*
X83307Y77583D01*
X83470Y77341D01*
X83530Y77044D01*
X83530Y64856D01*
X83474Y64570D01*
X83307Y64317D01*
X79683Y60693D01*
X79441Y60530D01*
X79144Y60470D01*
X61852Y60470D01*
X61572Y60523D01*
X61317Y60689D01*
X61148Y60940D01*
X60087Y63501D01*
X57901Y65687D01*
X55046Y66870D01*
X51954Y66870D01*
X49099Y65687D01*
X46913Y63501D01*
X46551Y62628D01*
X46411Y62407D01*
X46166Y62227D01*
X45871Y62158D01*
X45572Y62208D01*
X45317Y62372D01*
X45145Y62622D01*
X45085Y62919D01*
X45085Y73081D01*
X45130Y73338D01*
X45287Y73598D01*
X45533Y73775D01*
X45829Y73843D01*
X46127Y73789D01*
X46382Y73624D01*
X46551Y73372D01*
X46913Y72499D01*
X49099Y70313D01*
X51954Y69130D01*
X55046Y69130D01*
X57901Y70313D01*
X60087Y72499D01*
X61270Y75354D01*
X61270Y78446D01*
X60087Y81301D01*
X57901Y83487D01*
X55046Y84670D01*
X51954Y84670D01*
X49099Y83487D01*
X46913Y81301D01*
X46551Y80428D01*
X46411Y80207D01*
X46166Y80027D01*
X45871Y79958D01*
X45572Y80008D01*
X45317Y80172D01*
X45145Y80422D01*
X45085Y80719D01*
X45085Y90098D01*
X45076Y90153D01*
X45073Y90154D01*
X45033Y90160D01*
X-45023Y90160D01*
X-45078Y90151D01*
X-45079Y90148D01*
X-45085Y90108D01*
X-45085Y74209D01*
X-45132Y73946D01*
X-45291Y73688D01*
X-45539Y73512D01*
X-45835Y73447D01*
X-46133Y73503D01*
X-46386Y73670D01*
X-48379Y75664D01*
X-51702Y77040D01*
X-52738Y77040D01*
X-52738Y67238D01*
X-62540Y67238D01*
X-62540Y66202D01*
X-61164Y62879D01*
X-58621Y60336D01*
X-55676Y59117D01*
X-55451Y58973D01*
X-55274Y58727D01*
X-55206Y58431D01*
X-55259Y58132D01*
X-55425Y57878D01*
X-55676Y57709D01*
X-57901Y56787D01*
X-60087Y54601D01*
X-61270Y51746D01*
X-61270Y48654D01*
X-60087Y45799D01*
X-57901Y43613D01*
X-55046Y42430D01*
X-51954Y42430D01*
X-49099Y43613D01*
X-46913Y45799D01*
X-46551Y46672D01*
X-46411Y46893D01*
X-46166Y47073D01*
X-45871Y47142D01*
X-45572Y47092D01*
X-45317Y46928D01*
X-45145Y46678D01*
X-45085Y46381D01*
X-45085Y36219D01*
X-45130Y35962D01*
X-45287Y35702D01*
X-45533Y35525D01*
X-45829Y35457D01*
X-46127Y35511D01*
X-46382Y35676D01*
X-46551Y35928D01*
X-46913Y36801D01*
X-49099Y38987D01*
X-51954Y40170D01*
X-55046Y40170D01*
X-57901Y38987D01*
X-60087Y36801D01*
X-61270Y33946D01*
X-61270Y30854D01*
X-60087Y27999D01*
X-57901Y25813D01*
X-55046Y24630D01*
X-51954Y24630D01*
X-49099Y25813D01*
X-46913Y27999D01*
X-46551Y28872D01*
X-46411Y29093D01*
X-46166Y29273D01*
X-45871Y29342D01*
X-45572Y29292D01*
X-45317Y29128D01*
X-45145Y28878D01*
X-45085Y28581D01*
X-45085Y18419D01*
X-45130Y18162D01*
X-45287Y17902D01*
X-45533Y17725D01*
X-45829Y17657D01*
X-46127Y17711D01*
X-46382Y17876D01*
X-46551Y18128D01*
X-46913Y19001D01*
X-49099Y21187D01*
X-51954Y22370D01*
X-55046Y22370D01*
X-57901Y21187D01*
X-60087Y19001D01*
X-61270Y16146D01*
X-61270Y13054D01*
X-60087Y10199D01*
X-58440Y8551D01*
X-58282Y8321D01*
X-58216Y8024D01*
X-58272Y7726D01*
X-58440Y7473D01*
X-79929Y-14016D01*
X-80149Y-14169D01*
G37*
%LPC*%
G36*
X-62540Y68762D02*
X-54262Y68762D01*
X-54262Y77040D01*
X-55298Y77040D01*
X-58621Y75664D01*
X-61164Y73121D01*
X-62540Y69798D01*
X-62540Y68762D01*
G37*
%LPD*%
G36*
X68576Y-102139D02*
X68280Y-102204D01*
X67982Y-102148D01*
X67729Y-101981D01*
X65667Y-99918D01*
X62533Y-99918D01*
X61245Y-101207D01*
X61003Y-101370D01*
X60706Y-101430D01*
X-57844Y-101430D01*
X-58130Y-101374D01*
X-58383Y-101207D01*
X-78107Y-81483D01*
X-78270Y-81241D01*
X-78330Y-80944D01*
X-78330Y-31556D01*
X-78274Y-31270D01*
X-78107Y-31017D01*
X-57537Y-10447D01*
X-57301Y-10287D01*
X-57004Y-10224D01*
X-56707Y-10282D01*
X-55046Y-10970D01*
X-51954Y-10970D01*
X-49099Y-9787D01*
X-46913Y-7601D01*
X-46551Y-6728D01*
X-46411Y-6507D01*
X-46166Y-6327D01*
X-45871Y-6258D01*
X-45572Y-6308D01*
X-45317Y-6472D01*
X-45145Y-6722D01*
X-45085Y-7019D01*
X-45085Y-17181D01*
X-45130Y-17438D01*
X-45287Y-17698D01*
X-45533Y-17875D01*
X-45829Y-17943D01*
X-46127Y-17889D01*
X-46382Y-17724D01*
X-46551Y-17472D01*
X-46913Y-16599D01*
X-49099Y-14413D01*
X-51954Y-13230D01*
X-55046Y-13230D01*
X-57901Y-14413D01*
X-60087Y-16599D01*
X-61270Y-19454D01*
X-61270Y-22546D01*
X-60087Y-25401D01*
X-57901Y-27587D01*
X-55046Y-28770D01*
X-51954Y-28770D01*
X-49099Y-27587D01*
X-46913Y-25401D01*
X-46551Y-24528D01*
X-46411Y-24307D01*
X-46166Y-24127D01*
X-45871Y-24058D01*
X-45572Y-24108D01*
X-45317Y-24272D01*
X-45145Y-24522D01*
X-45085Y-24819D01*
X-45085Y-34981D01*
X-45130Y-35238D01*
X-45287Y-35498D01*
X-45533Y-35675D01*
X-45829Y-35743D01*
X-46127Y-35689D01*
X-46382Y-35524D01*
X-46551Y-35272D01*
X-46913Y-34399D01*
X-49099Y-32213D01*
X-51954Y-31030D01*
X-55046Y-31030D01*
X-57901Y-32213D01*
X-60087Y-34399D01*
X-61270Y-37254D01*
X-61270Y-40346D01*
X-60087Y-43201D01*
X-57901Y-45387D01*
X-55046Y-46570D01*
X-51954Y-46570D01*
X-49099Y-45387D01*
X-46913Y-43201D01*
X-46551Y-42328D01*
X-46411Y-42107D01*
X-46166Y-41927D01*
X-45871Y-41858D01*
X-45572Y-41908D01*
X-45317Y-42072D01*
X-45145Y-42322D01*
X-45085Y-42619D01*
X-45085Y-52781D01*
X-45130Y-53038D01*
X-45287Y-53298D01*
X-45533Y-53475D01*
X-45829Y-53543D01*
X-46127Y-53489D01*
X-46382Y-53324D01*
X-46551Y-53072D01*
X-46913Y-52199D01*
X-49099Y-50013D01*
X-51954Y-48830D01*
X-55046Y-48830D01*
X-57901Y-50013D01*
X-60087Y-52199D01*
X-61270Y-55054D01*
X-61270Y-58146D01*
X-60087Y-61001D01*
X-57901Y-63187D01*
X-55046Y-64370D01*
X-51954Y-64370D01*
X-49099Y-63187D01*
X-46913Y-61001D01*
X-46551Y-60128D01*
X-46411Y-59907D01*
X-46166Y-59727D01*
X-45871Y-59658D01*
X-45572Y-59708D01*
X-45317Y-59872D01*
X-45145Y-60122D01*
X-45085Y-60419D01*
X-45085Y-82498D01*
X-45076Y-82553D01*
X-45073Y-82554D01*
X-45033Y-82560D01*
X-44450Y-82560D01*
X-44175Y-82611D01*
X-44133Y-82638D01*
X44127Y-82638D01*
X44153Y-82620D01*
X44450Y-82560D01*
X45023Y-82560D01*
X45078Y-82551D01*
X45079Y-82548D01*
X45085Y-82508D01*
X45085Y-51519D01*
X45130Y-51262D01*
X45287Y-51002D01*
X45533Y-50825D01*
X45829Y-50757D01*
X46127Y-50811D01*
X46382Y-50976D01*
X46551Y-51228D01*
X46913Y-52101D01*
X49099Y-54287D01*
X51954Y-55470D01*
X55046Y-55470D01*
X57901Y-54287D01*
X60087Y-52101D01*
X60664Y-50709D01*
X60804Y-50488D01*
X61049Y-50308D01*
X61344Y-50239D01*
X61643Y-50289D01*
X61898Y-50453D01*
X62070Y-50703D01*
X62130Y-51000D01*
X62130Y-55006D01*
X62074Y-55292D01*
X61907Y-55545D01*
X60618Y-56833D01*
X60618Y-59967D01*
X62833Y-62182D01*
X65967Y-62182D01*
X67729Y-60419D01*
X67949Y-60266D01*
X68244Y-60197D01*
X68543Y-60247D01*
X68798Y-60411D01*
X68970Y-60661D01*
X69030Y-60958D01*
X69030Y-101442D01*
X68983Y-101705D01*
X68824Y-101963D01*
X68576Y-102139D01*
G37*
G36*
X-19306Y-255940D02*
X-19604Y-256000D01*
X-31196Y-256000D01*
X-31460Y-255953D01*
X-31718Y-255794D01*
X-31893Y-255546D01*
X-31958Y-255250D01*
X-31903Y-254952D01*
X-31735Y-254699D01*
X-29394Y-252358D01*
X-27830Y-248583D01*
X-27830Y-244497D01*
X-29394Y-240723D01*
X-32283Y-237834D01*
X-36057Y-236270D01*
X-40143Y-236270D01*
X-43458Y-237643D01*
X-43737Y-237701D01*
X-44036Y-237645D01*
X-44288Y-237478D01*
X-84885Y-196882D01*
X-85048Y-196640D01*
X-85108Y-196343D01*
X-85108Y-173594D01*
X-85052Y-173308D01*
X-84885Y-173055D01*
X-84870Y-173040D01*
X-84870Y-87604D01*
X-84823Y-87341D01*
X-84664Y-87083D01*
X-84416Y-86908D01*
X-84120Y-86843D01*
X-83822Y-86898D01*
X-83569Y-87066D01*
X-55993Y-114642D01*
X-55830Y-114883D01*
X-55770Y-115180D01*
X-55770Y-130480D01*
X-42255Y-143995D01*
X-42092Y-144237D01*
X-42032Y-144534D01*
X-42032Y-177410D01*
X-17410Y-202032D01*
X15466Y-202032D01*
X15752Y-202088D01*
X16005Y-202255D01*
X16067Y-202317D01*
X16220Y-202537D01*
X16290Y-202832D01*
X16239Y-203131D01*
X16075Y-203386D01*
X15825Y-203558D01*
X15528Y-203618D01*
X13833Y-203618D01*
X11618Y-205833D01*
X11618Y-208967D01*
X12737Y-210086D01*
X12895Y-210316D01*
X12960Y-210612D01*
X12904Y-210910D01*
X12737Y-211163D01*
X4824Y-219076D01*
X4824Y-225827D01*
X4768Y-226113D01*
X4601Y-226366D01*
X-6512Y-237478D01*
X-6748Y-237638D01*
X-7044Y-237701D01*
X-7342Y-237643D01*
X-10657Y-236270D01*
X-14743Y-236270D01*
X-18518Y-237834D01*
X-21406Y-240723D01*
X-22970Y-244497D01*
X-22970Y-248583D01*
X-21406Y-252358D01*
X-19065Y-254699D01*
X-18912Y-254919D01*
X-18842Y-255214D01*
X-18893Y-255513D01*
X-19056Y-255768D01*
X-19306Y-255940D01*
G37*
G36*
X52765Y-255940D02*
X52468Y-256000D01*
X45004Y-256000D01*
X44740Y-255953D01*
X44482Y-255794D01*
X44307Y-255546D01*
X44242Y-255250D01*
X44297Y-254952D01*
X44465Y-254699D01*
X46806Y-252358D01*
X48370Y-248583D01*
X48370Y-244497D01*
X46806Y-240723D01*
X43918Y-237834D01*
X40143Y-236270D01*
X36057Y-236270D01*
X32742Y-237643D01*
X32463Y-237701D01*
X32165Y-237645D01*
X31912Y-237478D01*
X15405Y-220972D01*
X15242Y-220730D01*
X15182Y-220433D01*
X15182Y-220233D01*
X12837Y-217888D01*
X12679Y-217658D01*
X12614Y-217362D01*
X12669Y-217064D01*
X12837Y-216811D01*
X17432Y-212216D01*
X17432Y-211032D01*
X17488Y-210746D01*
X17655Y-210493D01*
X19182Y-208967D01*
X19182Y-207272D01*
X19229Y-207009D01*
X19388Y-206751D01*
X19636Y-206575D01*
X19932Y-206510D01*
X20230Y-206566D01*
X20483Y-206733D01*
X53007Y-239257D01*
X53170Y-239499D01*
X53230Y-239796D01*
X53230Y-255238D01*
X53179Y-255513D01*
X53015Y-255768D01*
X52765Y-255940D01*
G37*
G36*
X80995Y-254673D02*
X74681Y-255929D01*
X74257Y-255893D01*
X74002Y-255729D01*
X73830Y-255479D01*
X73770Y-255182D01*
X73770Y-239796D01*
X73826Y-239510D01*
X73993Y-239257D01*
X90949Y-222301D01*
X91169Y-222148D01*
X91464Y-222078D01*
X91763Y-222129D01*
X92018Y-222293D01*
X92190Y-222543D01*
X92250Y-222840D01*
X92250Y-238000D01*
X92235Y-238149D01*
X90923Y-244745D01*
X90809Y-245020D01*
X87073Y-250612D01*
X86862Y-250823D01*
X81270Y-254559D01*
X80995Y-254673D01*
G37*
D10*
X-53500Y-56600D03*
X-53500Y-38800D03*
X-53500Y-21000D03*
X-53500Y-3200D03*
X-53500Y14600D03*
X-53500Y32400D03*
X-53500Y50200D03*
X-53500Y68000D03*
X53500Y76900D03*
X53500Y59100D03*
X53500Y41300D03*
X53500Y23500D03*
X53500Y5700D03*
X53500Y-12100D03*
X53500Y-29900D03*
X53500Y-47700D03*
D11*
X63500Y-246540D03*
D12*
X38100Y-246540D03*
X12700Y-246540D03*
X-12700Y-246540D03*
X-38100Y-246540D03*
X-63500Y-246540D03*
D13*
X82700Y23700D03*
D14*
X82700Y-53837D01*
X90882Y-219158D02*
X63500Y-246540D01*
X90882Y-219158D02*
X90882Y-62019D01*
X82700Y-53837D01*
X-39762Y-176470D02*
X-16470Y-199762D01*
X16722Y-199762D02*
X63500Y-246540D01*
X-39762Y-143278D02*
X-53500Y-129540D01*
X-53500Y-113925D01*
X-53500Y9203D02*
X-53500Y14600D01*
X-16470Y-199762D02*
X16722Y-199762D01*
X-39762Y-176470D02*
X-39762Y-143278D01*
X-53500Y-113925D02*
X-83870Y-83555D01*
X-83870Y-21167D01*
X-53500Y9203D01*
D13*
X86100Y-86000D03*
D14*
X86100Y-64000D01*
X79300Y-57200D01*
D13*
X79300Y-57200D03*
D14*
X-53500Y-3200D02*
X-80600Y-30300D01*
X-80600Y-82200D01*
X-59100Y-103700D01*
X64100Y-103700D01*
D13*
X64100Y-103700D03*
X77200Y-211500D03*
X-80100Y-99900D03*
X-48000Y-197700D03*
X-47700Y-147500D03*
X-77800Y-166400D03*
X-30100Y-197100D03*
X33900Y-225500D03*
X-20100Y-219800D03*
X26400Y-195100D03*
X42500Y-136300D03*
X-28100Y-120200D03*
X-46800Y-113100D03*
X-50500Y-97300D03*
X-69500Y-35300D03*
X-41900Y-90400D03*
X37600Y-88900D03*
X53100Y-64600D03*
X85300Y-243000D03*
X87900Y-230400D03*
X15400Y-207400D03*
D15*
X6856Y-226984D02*
X-12700Y-246540D01*
X6856Y-226984D02*
X6856Y-219918D01*
X15400Y-211374D02*
X15400Y-207400D01*
X15400Y-211374D02*
X6856Y-219918D01*
D13*
X64400Y-58400D03*
D14*
X64400Y-5200D01*
X53500Y5700D01*
D13*
X11400Y-221800D03*
D15*
X13360Y-221800D01*
X38100Y-246540D01*
D14*
X-87140Y-19813D02*
X-83500Y-16173D01*
X-83500Y80300D01*
X-87140Y-19813D02*
X-87140Y-172100D01*
X-83500Y80300D02*
X-69700Y94100D01*
X70000Y94100D01*
X85800Y78300D01*
X85800Y76600D01*
X85800Y63600D01*
X80400Y58200D01*
X54400Y58200D01*
X53500Y59100D01*
D15*
X-87140Y-172100D02*
X-87140Y-197500D01*
X-38100Y-246540D01*
D14*
X68400Y-50000D02*
X67670Y-49270D01*
X53500Y18103D02*
X53500Y23500D01*
X53500Y18103D02*
X67670Y3933D01*
X67670Y-49270D01*
X68400Y-50000D02*
X71300Y-52900D01*
X71300Y-122900D01*
X71300Y-175600D01*
X40900Y-206000D01*
D13*
X40900Y-206000D03*
M02*
