G04 EAGLE Gerber RS-274X export*
G75*
%MOMM*%
%FSLAX34Y34*%
%LPD*%
%INBottom Copper*%
%IPPOS*%
%AMOC8*
5,1,8,0,0,1.08239X$1,22.5*%
G01*
G04 Define Apertures*
%ADD10R,1.440000X1.440000*%
%ADD11C,1.440000*%
%ADD12R,1.000000X4.000000*%
%ADD13C,1.800000*%
%ADD14C,0.254000*%
%ADD15C,0.152400*%
G36*
X180149Y-197985D02*
X180000Y-198000D01*
X-180000Y-198000D01*
X-180149Y-197985D01*
X-186745Y-196673D01*
X-187020Y-196559D01*
X-192612Y-192823D01*
X-192823Y-192612D01*
X-196559Y-187020D01*
X-196673Y-186745D01*
X-197985Y-180149D01*
X-198000Y-180000D01*
X-198000Y-20000D01*
X-197985Y-19851D01*
X-196673Y-13255D01*
X-196559Y-12980D01*
X-192823Y-7388D01*
X-192612Y-7177D01*
X-187020Y-3441D01*
X-186745Y-3327D01*
X-180149Y-2015D01*
X-180000Y-2000D01*
X180000Y-2000D01*
X180149Y-2015D01*
X186745Y-3327D01*
X187020Y-3441D01*
X192612Y-7177D01*
X192823Y-7388D01*
X196559Y-12980D01*
X196673Y-13255D01*
X197985Y-19851D01*
X198000Y-20000D01*
X198000Y-180000D01*
X197985Y-180149D01*
X196673Y-186745D01*
X196559Y-187020D01*
X192823Y-192612D01*
X192612Y-192823D01*
X187020Y-196559D01*
X186745Y-196673D01*
X180149Y-197985D01*
G37*
%LPC*%
G36*
X163960Y-21638D02*
X174738Y-21638D01*
X174738Y-10860D01*
X173205Y-10860D01*
X168963Y-12617D01*
X165717Y-15863D01*
X163960Y-20105D01*
X163960Y-21638D01*
G37*
G36*
X176262Y-21638D02*
X187040Y-21638D01*
X187040Y-20105D01*
X185283Y-15863D01*
X182037Y-12617D01*
X177795Y-10860D01*
X176262Y-10860D01*
X176262Y-21638D01*
G37*
G36*
X176262Y-33940D02*
X177795Y-33940D01*
X182037Y-32183D01*
X185283Y-28937D01*
X187040Y-24695D01*
X187040Y-23162D01*
X176262Y-23162D01*
X176262Y-33940D01*
G37*
G36*
X173205Y-33940D02*
X174738Y-33940D01*
X174738Y-23162D01*
X163960Y-23162D01*
X163960Y-24695D01*
X165717Y-28937D01*
X168963Y-32183D01*
X173205Y-33940D01*
G37*
G36*
X-57726Y-141770D02*
X-42274Y-141770D01*
X-41530Y-141026D01*
X-41530Y-125574D01*
X-42274Y-124830D01*
X-42968Y-124830D01*
X-43243Y-124779D01*
X-43498Y-124615D01*
X-43670Y-124365D01*
X-43730Y-124068D01*
X-43730Y-82774D01*
X-44474Y-82030D01*
X-47206Y-82030D01*
X-47481Y-81979D01*
X-47736Y-81815D01*
X-47908Y-81565D01*
X-47968Y-81268D01*
X-47968Y-62157D01*
X-47912Y-61871D01*
X-47745Y-61619D01*
X-36690Y-50563D01*
X-36448Y-50400D01*
X-36151Y-50340D01*
X164927Y-50340D01*
X165207Y-50393D01*
X165461Y-50559D01*
X165631Y-50810D01*
X166794Y-53618D01*
X169683Y-56506D01*
X173457Y-58070D01*
X177543Y-58070D01*
X181318Y-56506D01*
X184206Y-53618D01*
X185770Y-49843D01*
X185770Y-45757D01*
X184206Y-41983D01*
X181318Y-39094D01*
X177543Y-37530D01*
X173457Y-37530D01*
X169683Y-39094D01*
X166794Y-41983D01*
X165631Y-44790D01*
X165474Y-45028D01*
X165224Y-45200D01*
X164927Y-45260D01*
X-37852Y-45260D01*
X-39340Y-46748D01*
X-39340Y-47151D01*
X-39396Y-47437D01*
X-39563Y-47690D01*
X-52032Y-60158D01*
X-52032Y-81268D01*
X-52083Y-81543D01*
X-52247Y-81798D01*
X-52497Y-81970D01*
X-52794Y-82030D01*
X-55526Y-82030D01*
X-56270Y-82774D01*
X-56270Y-124068D01*
X-56321Y-124343D01*
X-56485Y-124598D01*
X-56735Y-124770D01*
X-57032Y-124830D01*
X-57726Y-124830D01*
X-58470Y-125574D01*
X-58470Y-141026D01*
X-57726Y-141770D01*
G37*
G36*
X-31685Y-141770D02*
X-28315Y-141770D01*
X-25202Y-140481D01*
X-22820Y-138098D01*
X-21530Y-134985D01*
X-21530Y-131615D01*
X-22820Y-128502D01*
X-25202Y-126120D01*
X-25404Y-126036D01*
X-25625Y-125896D01*
X-25804Y-125651D01*
X-25874Y-125356D01*
X-25823Y-125057D01*
X-25659Y-124802D01*
X-25409Y-124630D01*
X-25112Y-124570D01*
X-24474Y-124570D01*
X-23730Y-123826D01*
X-23730Y-82774D01*
X-24474Y-82030D01*
X-27206Y-82030D01*
X-27481Y-81979D01*
X-27736Y-81815D01*
X-27908Y-81565D01*
X-27968Y-81268D01*
X-27968Y-79157D01*
X-27912Y-78871D01*
X-27745Y-78619D01*
X-24582Y-75455D01*
X-24340Y-75292D01*
X-24043Y-75232D01*
X-8945Y-75232D01*
X-8682Y-75279D01*
X-8424Y-75438D01*
X-8249Y-75686D01*
X-8183Y-75982D01*
X-8239Y-76280D01*
X-8407Y-76533D01*
X-12032Y-80158D01*
X-12032Y-81268D01*
X-12083Y-81543D01*
X-12247Y-81798D01*
X-12497Y-81970D01*
X-12794Y-82030D01*
X-15526Y-82030D01*
X-16270Y-82774D01*
X-16270Y-123826D01*
X-15526Y-124570D01*
X-14888Y-124570D01*
X-14630Y-124615D01*
X-14371Y-124772D01*
X-14194Y-125018D01*
X-14126Y-125314D01*
X-14179Y-125612D01*
X-14345Y-125867D01*
X-14596Y-126036D01*
X-14798Y-126120D01*
X-17181Y-128502D01*
X-18470Y-131615D01*
X-18470Y-134985D01*
X-17181Y-138098D01*
X-14798Y-140481D01*
X-11685Y-141770D01*
X-8315Y-141770D01*
X-5202Y-140481D01*
X-2820Y-138098D01*
X-1530Y-134985D01*
X-1530Y-131615D01*
X-2820Y-128502D01*
X-5202Y-126120D01*
X-5404Y-126036D01*
X-5625Y-125896D01*
X-5804Y-125651D01*
X-5874Y-125356D01*
X-5823Y-125057D01*
X-5659Y-124802D01*
X-5409Y-124630D01*
X-5112Y-124570D01*
X-4474Y-124570D01*
X-3730Y-123826D01*
X-3730Y-82774D01*
X-4474Y-82030D01*
X-6317Y-82030D01*
X-6580Y-81983D01*
X-6838Y-81824D01*
X-7014Y-81576D01*
X-7079Y-81280D01*
X-7023Y-80982D01*
X-6856Y-80729D01*
X-5382Y-79255D01*
X-5140Y-79092D01*
X-4843Y-79032D01*
X71843Y-79032D01*
X72129Y-79088D01*
X72382Y-79255D01*
X93758Y-100632D01*
X164716Y-100632D01*
X164997Y-100685D01*
X165251Y-100851D01*
X165420Y-101102D01*
X166794Y-104418D01*
X169683Y-107306D01*
X173457Y-108870D01*
X177543Y-108870D01*
X181318Y-107306D01*
X184206Y-104418D01*
X185770Y-100643D01*
X185770Y-96557D01*
X184206Y-92783D01*
X181318Y-89894D01*
X177543Y-88330D01*
X173457Y-88330D01*
X169683Y-89894D01*
X166794Y-92783D01*
X165420Y-96098D01*
X165264Y-96336D01*
X165014Y-96508D01*
X164716Y-96568D01*
X95757Y-96568D01*
X95471Y-96512D01*
X95219Y-96345D01*
X75407Y-76533D01*
X75254Y-76313D01*
X75184Y-76018D01*
X75235Y-75719D01*
X75398Y-75464D01*
X75648Y-75292D01*
X75945Y-75232D01*
X164716Y-75232D01*
X164997Y-75285D01*
X165251Y-75451D01*
X165420Y-75702D01*
X166794Y-79018D01*
X169683Y-81906D01*
X173457Y-83470D01*
X177543Y-83470D01*
X181318Y-81906D01*
X184206Y-79018D01*
X185770Y-75243D01*
X185770Y-71157D01*
X184206Y-67383D01*
X181318Y-64494D01*
X177543Y-62930D01*
X173457Y-62930D01*
X169683Y-64494D01*
X166794Y-67383D01*
X165420Y-70698D01*
X165264Y-70936D01*
X165014Y-71108D01*
X164716Y-71168D01*
X-26042Y-71168D01*
X-32032Y-77158D01*
X-32032Y-81268D01*
X-32083Y-81543D01*
X-32247Y-81798D01*
X-32497Y-81970D01*
X-32794Y-82030D01*
X-35526Y-82030D01*
X-36270Y-82774D01*
X-36270Y-123826D01*
X-35526Y-124570D01*
X-34888Y-124570D01*
X-34630Y-124615D01*
X-34371Y-124772D01*
X-34194Y-125018D01*
X-34126Y-125314D01*
X-34179Y-125612D01*
X-34345Y-125867D01*
X-34596Y-126036D01*
X-34798Y-126120D01*
X-37181Y-128502D01*
X-38470Y-131615D01*
X-38470Y-134985D01*
X-37181Y-138098D01*
X-34798Y-140481D01*
X-31685Y-141770D01*
G37*
G36*
X2460Y-102538D02*
X9238Y-102538D01*
X9238Y-80760D01*
X3948Y-80760D01*
X2460Y-82248D01*
X2460Y-102538D01*
G37*
G36*
X10762Y-102538D02*
X17540Y-102538D01*
X17540Y-82248D01*
X16052Y-80760D01*
X10762Y-80760D01*
X10762Y-102538D01*
G37*
G36*
X48315Y-141770D02*
X51685Y-141770D01*
X54798Y-140481D01*
X57181Y-138098D01*
X58470Y-134985D01*
X58470Y-131615D01*
X57181Y-128502D01*
X54798Y-126120D01*
X54596Y-126036D01*
X54375Y-125896D01*
X54196Y-125651D01*
X54126Y-125356D01*
X54177Y-125057D01*
X54341Y-124802D01*
X54591Y-124630D01*
X54888Y-124570D01*
X55526Y-124570D01*
X56270Y-123826D01*
X56270Y-82774D01*
X55526Y-82030D01*
X44474Y-82030D01*
X43730Y-82774D01*
X43730Y-123826D01*
X44474Y-124570D01*
X45112Y-124570D01*
X45370Y-124615D01*
X45629Y-124772D01*
X45806Y-125018D01*
X45874Y-125314D01*
X45821Y-125612D01*
X45655Y-125867D01*
X45404Y-126036D01*
X45202Y-126120D01*
X42820Y-128502D01*
X41530Y-131615D01*
X41530Y-134985D01*
X42820Y-138098D01*
X45202Y-140481D01*
X48315Y-141770D01*
G37*
G36*
X28315Y-141770D02*
X31685Y-141770D01*
X34798Y-140481D01*
X37181Y-138098D01*
X38470Y-134985D01*
X38470Y-131615D01*
X37181Y-128502D01*
X34798Y-126120D01*
X34596Y-126036D01*
X34375Y-125896D01*
X34196Y-125651D01*
X34126Y-125356D01*
X34177Y-125057D01*
X34341Y-124802D01*
X34591Y-124630D01*
X34888Y-124570D01*
X35526Y-124570D01*
X36270Y-123826D01*
X36270Y-82774D01*
X35526Y-82030D01*
X24474Y-82030D01*
X23730Y-82774D01*
X23730Y-123826D01*
X24474Y-124570D01*
X25112Y-124570D01*
X25370Y-124615D01*
X25629Y-124772D01*
X25806Y-125018D01*
X25874Y-125314D01*
X25821Y-125612D01*
X25655Y-125867D01*
X25404Y-126036D01*
X25202Y-126120D01*
X22820Y-128502D01*
X21530Y-131615D01*
X21530Y-134985D01*
X22820Y-138098D01*
X25202Y-140481D01*
X28315Y-141770D01*
G37*
G36*
X260Y-132538D02*
X19740Y-132538D01*
X19740Y-131363D01*
X18257Y-127783D01*
X16722Y-126248D01*
X16564Y-126017D01*
X16499Y-125721D01*
X16555Y-125423D01*
X16722Y-125170D01*
X17540Y-124352D01*
X17540Y-104062D01*
X2460Y-104062D01*
X2460Y-124352D01*
X3278Y-125170D01*
X3436Y-125401D01*
X3501Y-125697D01*
X3445Y-125995D01*
X3278Y-126248D01*
X1743Y-127783D01*
X260Y-131363D01*
X260Y-132538D01*
G37*
G36*
X10762Y-143040D02*
X11937Y-143040D01*
X15517Y-141557D01*
X18257Y-138817D01*
X19740Y-135237D01*
X19740Y-134062D01*
X10762Y-134062D01*
X10762Y-143040D01*
G37*
G36*
X8063Y-143040D02*
X9238Y-143040D01*
X9238Y-134062D01*
X260Y-134062D01*
X260Y-135237D01*
X1743Y-138817D01*
X4483Y-141557D01*
X8063Y-143040D01*
G37*
G36*
X172414Y-173000D02*
X177586Y-173000D01*
X182364Y-171021D01*
X186021Y-167364D01*
X188000Y-162586D01*
X188000Y-157414D01*
X186021Y-152636D01*
X182364Y-148979D01*
X177586Y-147000D01*
X172414Y-147000D01*
X167636Y-148979D01*
X163979Y-152636D01*
X162000Y-157414D01*
X162000Y-162586D01*
X163979Y-167364D01*
X167636Y-171021D01*
X172414Y-173000D01*
G37*
G36*
X-177586Y-173000D02*
X-172414Y-173000D01*
X-167636Y-171021D01*
X-163979Y-167364D01*
X-162000Y-162586D01*
X-162000Y-157414D01*
X-163979Y-152636D01*
X-167636Y-148979D01*
X-172414Y-147000D01*
X-177586Y-147000D01*
X-182364Y-148979D01*
X-186021Y-152636D01*
X-188000Y-157414D01*
X-188000Y-162586D01*
X-186021Y-167364D01*
X-182364Y-171021D01*
X-177586Y-173000D01*
G37*
%LPD*%
D10*
X-50000Y-133300D03*
D11*
X-30000Y-133300D03*
X-10000Y-133300D03*
X10000Y-133300D03*
X30000Y-133300D03*
X50000Y-133300D03*
D12*
X-50000Y-103300D03*
X-30000Y-103300D03*
X-10000Y-103300D03*
X10000Y-103300D03*
X30000Y-103300D03*
X50000Y-103300D03*
D13*
X175500Y-22400D03*
X175500Y-47800D03*
X175500Y-73200D03*
X175500Y-98600D03*
D14*
X50000Y-103300D02*
X50000Y-133300D01*
X30000Y-133300D02*
X30000Y-103300D01*
X-36800Y-47800D02*
X175500Y-47800D01*
D15*
X-36800Y-47800D02*
X-45000Y-56000D01*
X-50000Y-61000D01*
X-50000Y-70000D01*
X-50000Y-102000D01*
X-50000Y-103300D01*
D14*
X-50000Y-102000D02*
X-50000Y-133300D01*
X10000Y-133300D02*
X10000Y-103300D01*
D15*
X-25200Y-73200D02*
X175500Y-73200D01*
X-25200Y-73200D02*
X-30000Y-78000D01*
X-30000Y-103300D01*
D14*
X-30000Y-133300D01*
D15*
X94600Y-98600D02*
X175500Y-98600D01*
X94600Y-98600D02*
X75000Y-79000D01*
X73000Y-77000D01*
X6000Y-77000D01*
X-6000Y-77000D01*
X-10000Y-81000D01*
X-10000Y-103300D01*
D14*
X-10000Y-133300D01*
M02*
