G04 EAGLE Gerber RS-274X export*
G75*
%MOMM*%
%FSLAX34Y34*%
%LPD*%
%INBottom Copper*%
%IPPOS*%
%AMOC8*
5,1,8,0,0,1.08239X$1,22.5*%
G01*
G04 Define Apertures*
%ADD10R,1.220000X0.910000*%
%ADD11R,1.800000X0.820000*%
%ADD12C,0.166000*%
%ADD13R,1.440000X1.440000*%
%ADD14C,1.440000*%
%ADD15C,0.502400*%
%ADD16C,0.200000*%
%ADD17C,0.152400*%
G36*
X140631Y-173241D02*
X140500Y-173250D01*
X-140500Y-173250D01*
X-140631Y-173241D01*
X-152795Y-171640D01*
X-153047Y-171572D01*
X-164383Y-166877D01*
X-164609Y-166747D01*
X-174343Y-159277D01*
X-174527Y-159093D01*
X-181997Y-149359D01*
X-182127Y-149133D01*
X-186822Y-137797D01*
X-186890Y-137545D01*
X-188491Y-125381D01*
X-188500Y-125250D01*
X-188500Y45250D01*
X-188491Y45381D01*
X-186890Y57545D01*
X-186822Y57797D01*
X-182127Y69133D01*
X-181997Y69359D01*
X-174527Y79093D01*
X-174343Y79277D01*
X-164609Y86747D01*
X-164383Y86877D01*
X-153047Y91572D01*
X-152795Y91640D01*
X-140631Y93241D01*
X-140500Y93250D01*
X140500Y93250D01*
X140631Y93241D01*
X152795Y91640D01*
X153047Y91572D01*
X164383Y86877D01*
X164609Y86747D01*
X174343Y79277D01*
X174527Y79093D01*
X181997Y69359D01*
X182127Y69133D01*
X186822Y57797D01*
X186890Y57545D01*
X188491Y45381D01*
X188500Y45250D01*
X188500Y28224D01*
X188438Y27879D01*
X188229Y27540D01*
X187905Y27310D01*
X187516Y27224D01*
X187125Y27297D01*
X186793Y27517D01*
X186040Y28270D01*
X178895Y28270D01*
X178535Y28337D01*
X178199Y28552D01*
X177974Y28880D01*
X177895Y29270D01*
X177895Y43515D01*
X163140Y58270D01*
X69069Y58270D01*
X68723Y58332D01*
X68385Y58541D01*
X68155Y58865D01*
X68069Y59254D01*
X68142Y59645D01*
X68362Y59977D01*
X71021Y62636D01*
X73000Y67414D01*
X73000Y72586D01*
X71021Y77364D01*
X67364Y81021D01*
X62586Y83000D01*
X57414Y83000D01*
X52636Y81021D01*
X48979Y77364D01*
X47000Y72586D01*
X47000Y67414D01*
X48979Y62636D01*
X51638Y59977D01*
X51839Y59689D01*
X51931Y59302D01*
X51864Y58910D01*
X51649Y58574D01*
X51321Y58349D01*
X50931Y58270D01*
X31860Y58270D01*
X13153Y39563D01*
X12836Y39349D01*
X12446Y39270D01*
X-2230Y39270D01*
X-2591Y39337D01*
X-2926Y39552D01*
X-3151Y39880D01*
X-3230Y40270D01*
X-3230Y57040D01*
X-4460Y58270D01*
X-25290Y58270D01*
X-26520Y57040D01*
X-26520Y41232D01*
X-26579Y40894D01*
X-26785Y40554D01*
X-27108Y40321D01*
X-27496Y40233D01*
X-27888Y40302D01*
X-28221Y40520D01*
X-28444Y40850D01*
X-30838Y46630D01*
X-35620Y51412D01*
X-41868Y54000D01*
X-48632Y54000D01*
X-54880Y51412D01*
X-59662Y46630D01*
X-62250Y40382D01*
X-62250Y33618D01*
X-59662Y27370D01*
X-54880Y22588D01*
X-48632Y20000D01*
X-41868Y20000D01*
X-35620Y22588D01*
X-30838Y27370D01*
X-28444Y33150D01*
X-28260Y33440D01*
X-27939Y33676D01*
X-27552Y33767D01*
X-27160Y33700D01*
X-26824Y33486D01*
X-26599Y33158D01*
X-26520Y32768D01*
X-26520Y16960D01*
X-25290Y15730D01*
X-4460Y15730D01*
X-3230Y16960D01*
X-3230Y33730D01*
X-3163Y34091D01*
X-2948Y34426D01*
X-2620Y34651D01*
X-2230Y34730D01*
X14740Y34730D01*
X33447Y53437D01*
X33764Y53651D01*
X34154Y53730D01*
X160846Y53730D01*
X161221Y53657D01*
X161553Y53437D01*
X173062Y41928D01*
X173276Y41611D01*
X173355Y41221D01*
X173355Y29270D01*
X173288Y28910D01*
X173073Y28574D01*
X172745Y28349D01*
X172355Y28270D01*
X165210Y28270D01*
X163980Y27040D01*
X163980Y11232D01*
X163921Y10894D01*
X163715Y10554D01*
X163392Y10321D01*
X163004Y10233D01*
X162612Y10302D01*
X162279Y10520D01*
X162056Y10850D01*
X159662Y16630D01*
X154880Y21412D01*
X148632Y24000D01*
X141868Y24000D01*
X135620Y21412D01*
X130838Y16630D01*
X128250Y10382D01*
X128250Y3618D01*
X130838Y-2630D01*
X135620Y-7412D01*
X141868Y-10000D01*
X148632Y-10000D01*
X154880Y-7412D01*
X159662Y-2630D01*
X162056Y3150D01*
X162240Y3440D01*
X162561Y3676D01*
X162948Y3767D01*
X163341Y3700D01*
X163676Y3486D01*
X163901Y3158D01*
X163980Y2768D01*
X163980Y-13040D01*
X165210Y-14270D01*
X172355Y-14270D01*
X172716Y-14337D01*
X173051Y-14552D01*
X173276Y-14880D01*
X173355Y-15270D01*
X173355Y-95057D01*
X173282Y-95432D01*
X173062Y-95764D01*
X151938Y-116889D01*
X151635Y-117096D01*
X151247Y-117181D01*
X150855Y-117108D01*
X150523Y-116889D01*
X147864Y-114229D01*
X143086Y-112250D01*
X137914Y-112250D01*
X137516Y-112415D01*
X137181Y-112490D01*
X136788Y-112429D01*
X136449Y-112220D01*
X136219Y-111896D01*
X136134Y-111507D01*
X136207Y-111116D01*
X136426Y-110784D01*
X155170Y-92040D01*
X155170Y-57560D01*
X129363Y-31753D01*
X129149Y-31436D01*
X129070Y-31046D01*
X129070Y-8760D01*
X120330Y-20D01*
X36870Y-20D01*
X36510Y47D01*
X36174Y262D01*
X35949Y590D01*
X35870Y980D01*
X35870Y2786D01*
X35126Y3530D01*
X21874Y3530D01*
X21130Y2786D01*
X21130Y-7366D01*
X21874Y-8110D01*
X35126Y-8110D01*
X35870Y-7366D01*
X35870Y-5560D01*
X35937Y-5200D01*
X36152Y-4864D01*
X36480Y-4639D01*
X36870Y-4560D01*
X118036Y-4560D01*
X118411Y-4633D01*
X118743Y-4853D01*
X124237Y-10347D01*
X124451Y-10664D01*
X124530Y-11054D01*
X124530Y-33340D01*
X150337Y-59147D01*
X150551Y-59464D01*
X150630Y-59854D01*
X150630Y-89746D01*
X150557Y-90121D01*
X150337Y-90453D01*
X118653Y-122137D01*
X118336Y-122351D01*
X117946Y-122430D01*
X-2040Y-122430D01*
X-15315Y-135705D01*
X-15625Y-135915D01*
X-16014Y-135997D01*
X-16405Y-135921D01*
X-18315Y-135130D01*
X-21685Y-135130D01*
X-24798Y-136420D01*
X-27181Y-138802D01*
X-28470Y-141915D01*
X-28470Y-145285D01*
X-27181Y-148398D01*
X-24798Y-150781D01*
X-21685Y-152070D01*
X-18315Y-152070D01*
X-15202Y-150781D01*
X-12820Y-148398D01*
X-11530Y-145285D01*
X-11530Y-141915D01*
X-12321Y-140005D01*
X-12397Y-139638D01*
X-12324Y-139247D01*
X-12105Y-138915D01*
X-453Y-127263D01*
X-136Y-127049D01*
X254Y-126970D01*
X120240Y-126970D01*
X126034Y-121176D01*
X126315Y-120979D01*
X126701Y-120884D01*
X127094Y-120948D01*
X127431Y-121160D01*
X127659Y-121486D01*
X127741Y-121876D01*
X127665Y-122266D01*
X127500Y-122664D01*
X127500Y-127836D01*
X129479Y-132614D01*
X132139Y-135273D01*
X132346Y-135576D01*
X132431Y-135965D01*
X132358Y-136356D01*
X132139Y-136688D01*
X130363Y-138463D01*
X127789Y-141037D01*
X127472Y-141251D01*
X127082Y-141330D01*
X28896Y-141330D01*
X28528Y-141260D01*
X28194Y-141043D01*
X27972Y-140713D01*
X27181Y-138802D01*
X24798Y-136420D01*
X21685Y-135130D01*
X18315Y-135130D01*
X15202Y-136420D01*
X12820Y-138802D01*
X11530Y-141915D01*
X11530Y-145285D01*
X12820Y-148398D01*
X15202Y-150781D01*
X18315Y-152070D01*
X21685Y-152070D01*
X24798Y-150781D01*
X27181Y-148398D01*
X27972Y-146487D01*
X28178Y-146174D01*
X28506Y-145949D01*
X28896Y-145870D01*
X129040Y-145870D01*
X130389Y-144522D01*
X130443Y-144243D01*
X130663Y-143911D01*
X133237Y-141337D01*
X133554Y-141123D01*
X133944Y-141044D01*
X147042Y-141044D01*
X156294Y-131792D01*
X156294Y-118694D01*
X156367Y-118319D01*
X156587Y-117987D01*
X175936Y-98638D01*
X176253Y-98424D01*
X176546Y-98365D01*
X177895Y-97015D01*
X177895Y-15270D01*
X177962Y-14910D01*
X178177Y-14574D01*
X178505Y-14349D01*
X178895Y-14270D01*
X186040Y-14270D01*
X186793Y-13517D01*
X187081Y-13316D01*
X187468Y-13225D01*
X187861Y-13291D01*
X188196Y-13506D01*
X188421Y-13834D01*
X188500Y-14224D01*
X188500Y-125250D01*
X188491Y-125381D01*
X186890Y-137545D01*
X186822Y-137797D01*
X182127Y-149133D01*
X181997Y-149359D01*
X174527Y-159093D01*
X174343Y-159277D01*
X164609Y-166747D01*
X164383Y-166877D01*
X153047Y-171572D01*
X152795Y-171640D01*
X140631Y-173241D01*
G37*
%LPC*%
G36*
X-136040Y37730D02*
X-115210Y37730D01*
X-113980Y38960D01*
X-113980Y54768D01*
X-113921Y55106D01*
X-113715Y55446D01*
X-113392Y55679D01*
X-113004Y55767D01*
X-112612Y55698D01*
X-112279Y55480D01*
X-112056Y55150D01*
X-109662Y49370D01*
X-104880Y44588D01*
X-98632Y42000D01*
X-91868Y42000D01*
X-85620Y44588D01*
X-80838Y49370D01*
X-78250Y55618D01*
X-78250Y62382D01*
X-80838Y68630D01*
X-85620Y73412D01*
X-91868Y76000D01*
X-98632Y76000D01*
X-104880Y73412D01*
X-109662Y68630D01*
X-112056Y62850D01*
X-112240Y62560D01*
X-112561Y62324D01*
X-112948Y62233D01*
X-113341Y62300D01*
X-113676Y62514D01*
X-113901Y62842D01*
X-113980Y63232D01*
X-113980Y79040D01*
X-115210Y80270D01*
X-136040Y80270D01*
X-137270Y79040D01*
X-137270Y62270D01*
X-137337Y61910D01*
X-137552Y61574D01*
X-137880Y61349D01*
X-138270Y61270D01*
X-143330Y61270D01*
X-143691Y61337D01*
X-144026Y61552D01*
X-144251Y61880D01*
X-144330Y62270D01*
X-144330Y67266D01*
X-145074Y68010D01*
X-158326Y68010D01*
X-159070Y67266D01*
X-159070Y57114D01*
X-158326Y56370D01*
X-145074Y56370D01*
X-145007Y56437D01*
X-144690Y56651D01*
X-144300Y56730D01*
X-138270Y56730D01*
X-137910Y56663D01*
X-137574Y56448D01*
X-137349Y56120D01*
X-137270Y55730D01*
X-137270Y38960D01*
X-136040Y37730D01*
G37*
G36*
X54460Y7730D02*
X75290Y7730D01*
X76520Y8960D01*
X76520Y24768D01*
X76579Y25106D01*
X76785Y25446D01*
X77108Y25679D01*
X77496Y25767D01*
X77888Y25698D01*
X78221Y25480D01*
X78444Y25150D01*
X80838Y19370D01*
X85620Y14588D01*
X91868Y12000D01*
X98632Y12000D01*
X104880Y14588D01*
X109662Y19370D01*
X112250Y25618D01*
X112250Y32382D01*
X109662Y38630D01*
X104880Y43412D01*
X98632Y46000D01*
X91868Y46000D01*
X85620Y43412D01*
X80838Y38630D01*
X78444Y32850D01*
X78260Y32560D01*
X77939Y32324D01*
X77552Y32233D01*
X77160Y32300D01*
X76824Y32514D01*
X76599Y32842D01*
X76520Y33232D01*
X76520Y49040D01*
X75290Y50270D01*
X54460Y50270D01*
X53230Y49040D01*
X53230Y33680D01*
X53163Y33320D01*
X52948Y32984D01*
X52620Y32759D01*
X52230Y32680D01*
X36870Y32680D01*
X36510Y32747D01*
X36174Y32962D01*
X35949Y33290D01*
X35870Y33680D01*
X35870Y35486D01*
X35126Y36230D01*
X21874Y36230D01*
X21130Y35486D01*
X21130Y25334D01*
X21874Y24590D01*
X35126Y24590D01*
X35870Y25334D01*
X35870Y27140D01*
X35937Y27501D01*
X36152Y27836D01*
X36480Y28061D01*
X36870Y28140D01*
X52230Y28140D01*
X52591Y28073D01*
X52926Y27858D01*
X53151Y27530D01*
X53230Y27140D01*
X53230Y8960D01*
X54460Y7730D01*
G37*
G36*
X-105740Y-164570D02*
X-6160Y-164570D01*
X2270Y-156140D01*
X2270Y-152496D01*
X2340Y-152128D01*
X2557Y-151794D01*
X2887Y-151572D01*
X4798Y-150781D01*
X7181Y-148398D01*
X8470Y-145285D01*
X8470Y-141915D01*
X7181Y-138802D01*
X4798Y-136420D01*
X1685Y-135130D01*
X-1685Y-135130D01*
X-4798Y-136420D01*
X-7181Y-138802D01*
X-8470Y-141915D01*
X-8470Y-145285D01*
X-7181Y-148398D01*
X-4798Y-150781D01*
X-2887Y-151572D01*
X-2574Y-151778D01*
X-2349Y-152106D01*
X-2270Y-152496D01*
X-2270Y-153846D01*
X-2343Y-154221D01*
X-2563Y-154553D01*
X-7747Y-159737D01*
X-8064Y-159951D01*
X-8454Y-160030D01*
X-103446Y-160030D01*
X-103821Y-159957D01*
X-104153Y-159737D01*
X-123937Y-139953D01*
X-124151Y-139636D01*
X-124230Y-139246D01*
X-124230Y-99160D01*
X-128837Y-94553D01*
X-129051Y-94236D01*
X-129130Y-93846D01*
X-129130Y-60870D01*
X-129063Y-60510D01*
X-128848Y-60174D01*
X-128520Y-59949D01*
X-128130Y-59870D01*
X-119605Y-59870D01*
X-119230Y-59943D01*
X-118898Y-60163D01*
X-62563Y-116498D01*
X-62349Y-116815D01*
X-62270Y-117205D01*
X-62270Y-134704D01*
X-62340Y-135072D01*
X-62557Y-135406D01*
X-62887Y-135628D01*
X-64798Y-136420D01*
X-67181Y-138802D01*
X-68336Y-141592D01*
X-68520Y-141882D01*
X-68841Y-142117D01*
X-69228Y-142209D01*
X-69621Y-142142D01*
X-69956Y-141928D01*
X-70181Y-141599D01*
X-70260Y-141209D01*
X-70260Y-135348D01*
X-71748Y-133860D01*
X-79238Y-133860D01*
X-79238Y-153340D01*
X-71748Y-153340D01*
X-70260Y-151852D01*
X-70260Y-145991D01*
X-70201Y-145653D01*
X-69995Y-145312D01*
X-69672Y-145079D01*
X-69284Y-144991D01*
X-68892Y-145061D01*
X-68559Y-145278D01*
X-68336Y-145608D01*
X-67181Y-148398D01*
X-64798Y-150781D01*
X-61685Y-152070D01*
X-58315Y-152070D01*
X-55202Y-150781D01*
X-52820Y-148398D01*
X-51530Y-145285D01*
X-51530Y-141915D01*
X-52820Y-138802D01*
X-55202Y-136420D01*
X-57113Y-135628D01*
X-57426Y-135423D01*
X-57651Y-135094D01*
X-57730Y-134704D01*
X-57730Y-114911D01*
X-109934Y-62707D01*
X-110134Y-62419D01*
X-110226Y-62032D01*
X-110159Y-61640D01*
X-109945Y-61304D01*
X-109617Y-61079D01*
X-109227Y-61000D01*
X-79351Y-61000D01*
X-79351Y-60870D01*
X-79284Y-60510D01*
X-79069Y-60174D01*
X-78741Y-59949D01*
X-78351Y-59870D01*
X-67605Y-59870D01*
X-67230Y-59943D01*
X-66898Y-60163D01*
X-42563Y-84498D01*
X-42349Y-84815D01*
X-42270Y-85205D01*
X-42270Y-134704D01*
X-42340Y-135072D01*
X-42557Y-135406D01*
X-42887Y-135628D01*
X-44798Y-136420D01*
X-47181Y-138802D01*
X-48470Y-141915D01*
X-48470Y-145285D01*
X-47181Y-148398D01*
X-44798Y-150781D01*
X-41685Y-152070D01*
X-38315Y-152070D01*
X-35202Y-150781D01*
X-32820Y-148398D01*
X-31530Y-145285D01*
X-31530Y-141915D01*
X-32820Y-138802D01*
X-35202Y-136420D01*
X-37113Y-135628D01*
X-37426Y-135423D01*
X-37651Y-135094D01*
X-37730Y-134704D01*
X-37730Y-82911D01*
X-39353Y-81288D01*
X-59591Y-61050D01*
X-59798Y-60748D01*
X-59884Y-60359D01*
X-59811Y-59968D01*
X-59591Y-59636D01*
X-59081Y-59126D01*
X-59081Y-49874D01*
X-59825Y-49130D01*
X-78351Y-49130D01*
X-78712Y-49063D01*
X-79047Y-48848D01*
X-79272Y-48520D01*
X-79351Y-48130D01*
X-79351Y-45870D01*
X-79284Y-45510D01*
X-79069Y-45174D01*
X-78741Y-44949D01*
X-78351Y-44870D01*
X-59825Y-44870D01*
X-59081Y-44126D01*
X-59081Y-42770D01*
X-59014Y-42410D01*
X-58799Y-42074D01*
X-58471Y-41849D01*
X-58081Y-41770D01*
X-17654Y-41770D01*
X-17279Y-41843D01*
X-16947Y-42063D01*
X27760Y-86770D01*
X57879Y-86770D01*
X58240Y-86837D01*
X58575Y-87052D01*
X58800Y-87380D01*
X58879Y-87770D01*
X58879Y-89126D01*
X59623Y-89870D01*
X78149Y-89870D01*
X78510Y-89937D01*
X78845Y-90152D01*
X79070Y-90480D01*
X79149Y-90870D01*
X79149Y-91000D01*
X111149Y-91000D01*
X111149Y-90870D01*
X111216Y-90510D01*
X111431Y-90174D01*
X111759Y-89949D01*
X112149Y-89870D01*
X117879Y-89870D01*
X118240Y-89937D01*
X118575Y-90152D01*
X118800Y-90480D01*
X118879Y-90870D01*
X118879Y-96997D01*
X118806Y-97372D01*
X118586Y-97704D01*
X111265Y-105025D01*
X110948Y-105239D01*
X110558Y-105318D01*
X108833Y-105318D01*
X106618Y-107533D01*
X106618Y-110667D01*
X108833Y-112882D01*
X111967Y-112882D01*
X114182Y-110667D01*
X114182Y-108942D01*
X114255Y-108567D01*
X114475Y-108235D01*
X123419Y-99291D01*
X123419Y-90870D01*
X123486Y-90510D01*
X123701Y-90174D01*
X124029Y-89949D01*
X124419Y-89870D01*
X130675Y-89870D01*
X131419Y-89126D01*
X131419Y-79874D01*
X130675Y-79130D01*
X112149Y-79130D01*
X111789Y-79063D01*
X111453Y-78848D01*
X111228Y-78520D01*
X111149Y-78130D01*
X111149Y-75870D01*
X111216Y-75510D01*
X111431Y-75174D01*
X111759Y-74949D01*
X112149Y-74870D01*
X130675Y-74870D01*
X131419Y-74126D01*
X131419Y-64874D01*
X130675Y-64130D01*
X112149Y-64130D01*
X111789Y-64063D01*
X111453Y-63848D01*
X111228Y-63520D01*
X111149Y-63130D01*
X111149Y-63000D01*
X79755Y-63000D01*
X79380Y-62927D01*
X79279Y-62860D01*
X69911Y-62860D01*
X69911Y-76140D01*
X78149Y-76140D01*
X78510Y-76207D01*
X78845Y-76422D01*
X79070Y-76750D01*
X79149Y-77140D01*
X79149Y-78130D01*
X79082Y-78491D01*
X78867Y-78826D01*
X78539Y-79051D01*
X78149Y-79130D01*
X59623Y-79130D01*
X58879Y-79874D01*
X58879Y-81230D01*
X58812Y-81591D01*
X58597Y-81926D01*
X58269Y-82151D01*
X57879Y-82230D01*
X30054Y-82230D01*
X29679Y-82157D01*
X29347Y-81937D01*
X-15360Y-37230D01*
X-58081Y-37230D01*
X-58442Y-37163D01*
X-58777Y-36948D01*
X-59002Y-36620D01*
X-59081Y-36230D01*
X-59081Y-34874D01*
X-59825Y-34130D01*
X-78351Y-34130D01*
X-78712Y-34063D01*
X-79047Y-33848D01*
X-79272Y-33520D01*
X-79351Y-33130D01*
X-79351Y-33000D01*
X-110745Y-33000D01*
X-111120Y-32927D01*
X-111221Y-32860D01*
X-120589Y-32860D01*
X-120589Y-46140D01*
X-112351Y-46140D01*
X-111991Y-46207D01*
X-111655Y-46422D01*
X-111430Y-46750D01*
X-111351Y-47140D01*
X-111351Y-48130D01*
X-111418Y-48491D01*
X-111633Y-48826D01*
X-111961Y-49051D01*
X-112351Y-49130D01*
X-129351Y-49130D01*
X-129712Y-49063D01*
X-130047Y-48848D01*
X-130272Y-48520D01*
X-130351Y-48130D01*
X-130351Y-47140D01*
X-130284Y-46780D01*
X-130069Y-46444D01*
X-129741Y-46219D01*
X-129351Y-46140D01*
X-122113Y-46140D01*
X-122113Y-32860D01*
X-129351Y-32860D01*
X-129712Y-32793D01*
X-130047Y-32578D01*
X-130272Y-32250D01*
X-130351Y-31860D01*
X-130351Y11351D01*
X-144037Y25037D01*
X-144251Y25354D01*
X-144330Y25744D01*
X-144330Y34566D01*
X-145074Y35310D01*
X-158326Y35310D01*
X-159070Y34566D01*
X-159070Y24414D01*
X-158326Y23670D01*
X-149504Y23670D01*
X-149129Y23597D01*
X-148797Y23377D01*
X-135184Y9764D01*
X-134970Y9447D01*
X-134891Y9057D01*
X-134891Y-60481D01*
X-133963Y-61409D01*
X-133749Y-61726D01*
X-133670Y-62116D01*
X-133670Y-96140D01*
X-129063Y-100747D01*
X-128849Y-101064D01*
X-128770Y-101454D01*
X-128770Y-116181D01*
X-128832Y-116527D01*
X-129041Y-116865D01*
X-129365Y-117095D01*
X-129754Y-117181D01*
X-130145Y-117108D01*
X-130477Y-116888D01*
X-133136Y-114229D01*
X-137914Y-112250D01*
X-143086Y-112250D01*
X-147864Y-114229D01*
X-151521Y-117886D01*
X-153500Y-122664D01*
X-153500Y-127836D01*
X-151521Y-132614D01*
X-147864Y-136271D01*
X-143086Y-138250D01*
X-137914Y-138250D01*
X-133136Y-136271D01*
X-130477Y-133612D01*
X-130189Y-133411D01*
X-129802Y-133320D01*
X-129410Y-133386D01*
X-129074Y-133601D01*
X-128849Y-133929D01*
X-128770Y-134319D01*
X-128770Y-141540D01*
X-105740Y-164570D01*
G37*
G36*
X-99029Y-19000D02*
X-91471Y-19000D01*
X-84487Y-16107D01*
X-79143Y-10763D01*
X-76250Y-3779D01*
X-76250Y3779D01*
X-79143Y10763D01*
X-84487Y16107D01*
X-91471Y19000D01*
X-99029Y19000D01*
X-106013Y16107D01*
X-111357Y10763D01*
X-114250Y3779D01*
X-114250Y-3779D01*
X-111357Y-10763D01*
X-106013Y-16107D01*
X-99029Y-19000D01*
G37*
G36*
X-42339Y-10500D02*
X-38161Y-10500D01*
X-34302Y-8901D01*
X-31349Y-5948D01*
X-29750Y-2089D01*
X-29750Y2089D01*
X-31349Y5948D01*
X-34302Y8901D01*
X-38161Y10500D01*
X-42339Y10500D01*
X-46198Y8901D01*
X-49151Y5948D01*
X-50750Y2089D01*
X-50750Y-2089D01*
X-49151Y-5948D01*
X-46198Y-8901D01*
X-42339Y-10500D01*
G37*
G36*
X-152339Y-10500D02*
X-148161Y-10500D01*
X-144302Y-8901D01*
X-141349Y-5948D01*
X-139750Y-2089D01*
X-139750Y2089D01*
X-141349Y5948D01*
X-144302Y8901D01*
X-148161Y10500D01*
X-152339Y10500D01*
X-156198Y8901D01*
X-159151Y5948D01*
X-160750Y2089D01*
X-160750Y-2089D01*
X-159151Y-5948D01*
X-156198Y-8901D01*
X-152339Y-10500D01*
G37*
G36*
X91471Y-49000D02*
X99029Y-49000D01*
X106013Y-46107D01*
X111357Y-40763D01*
X114250Y-33779D01*
X114250Y-26221D01*
X111357Y-19237D01*
X106013Y-13893D01*
X99029Y-11000D01*
X91471Y-11000D01*
X84487Y-13893D01*
X79143Y-19237D01*
X76250Y-26221D01*
X76250Y-33779D01*
X79143Y-40763D01*
X84487Y-46107D01*
X91471Y-49000D01*
G37*
G36*
X148161Y-40500D02*
X152339Y-40500D01*
X156198Y-38901D01*
X159151Y-35948D01*
X160750Y-32089D01*
X160750Y-27911D01*
X159151Y-24052D01*
X156198Y-21099D01*
X152339Y-19500D01*
X148161Y-19500D01*
X144302Y-21099D01*
X141349Y-24052D01*
X139750Y-27911D01*
X139750Y-32089D01*
X141349Y-35948D01*
X144302Y-38901D01*
X148161Y-40500D01*
G37*
G36*
X38161Y-40500D02*
X42339Y-40500D01*
X46198Y-38901D01*
X49151Y-35948D01*
X50750Y-32089D01*
X50750Y-27911D01*
X49151Y-24052D01*
X46198Y-21099D01*
X42339Y-19500D01*
X38161Y-19500D01*
X34302Y-21099D01*
X31349Y-24052D01*
X29750Y-27911D01*
X29750Y-32089D01*
X31349Y-35948D01*
X34302Y-38901D01*
X38161Y-40500D01*
G37*
G36*
X57609Y-68738D02*
X68387Y-68738D01*
X68387Y-62860D01*
X59097Y-62860D01*
X57609Y-64348D01*
X57609Y-68738D01*
G37*
G36*
X59097Y-76140D02*
X68387Y-76140D01*
X68387Y-70262D01*
X57609Y-70262D01*
X57609Y-74652D01*
X59097Y-76140D01*
G37*
G36*
X-89740Y-142838D02*
X-80762Y-142838D01*
X-80762Y-133860D01*
X-88252Y-133860D01*
X-89740Y-135348D01*
X-89740Y-142838D01*
G37*
G36*
X-88252Y-153340D02*
X-80762Y-153340D01*
X-80762Y-144362D01*
X-89740Y-144362D01*
X-89740Y-151852D01*
X-88252Y-153340D01*
G37*
%LPD*%
D10*
X-151700Y29490D03*
X-151700Y62190D03*
X28500Y-2290D03*
X28500Y30410D03*
D11*
X-121351Y-54500D03*
X-121351Y-39500D03*
X-69351Y-39500D03*
X-69351Y-54500D03*
X69149Y-84500D03*
X69149Y-69500D03*
X121149Y-69500D03*
X121149Y-84500D03*
D12*
X-5330Y17830D02*
X-24420Y17830D01*
X-24420Y56170D01*
X-5330Y56170D01*
X-5330Y17830D01*
X-5330Y19407D02*
X-24420Y19407D01*
X-24420Y20984D02*
X-5330Y20984D01*
X-5330Y22561D02*
X-24420Y22561D01*
X-24420Y24138D02*
X-5330Y24138D01*
X-5330Y25715D02*
X-24420Y25715D01*
X-24420Y27292D02*
X-5330Y27292D01*
X-5330Y28869D02*
X-24420Y28869D01*
X-24420Y30446D02*
X-5330Y30446D01*
X-5330Y32023D02*
X-24420Y32023D01*
X-24420Y33600D02*
X-5330Y33600D01*
X-5330Y35177D02*
X-24420Y35177D01*
X-24420Y36754D02*
X-5330Y36754D01*
X-5330Y38331D02*
X-24420Y38331D01*
X-24420Y39908D02*
X-5330Y39908D01*
X-5330Y41485D02*
X-24420Y41485D01*
X-24420Y43062D02*
X-5330Y43062D01*
X-5330Y44639D02*
X-24420Y44639D01*
X-24420Y46216D02*
X-5330Y46216D01*
X-5330Y47793D02*
X-24420Y47793D01*
X-24420Y49370D02*
X-5330Y49370D01*
X-5330Y50947D02*
X-24420Y50947D01*
X-24420Y52524D02*
X-5330Y52524D01*
X-5330Y54101D02*
X-24420Y54101D01*
X-24420Y55678D02*
X-5330Y55678D01*
X-116080Y39830D02*
X-135170Y39830D01*
X-135170Y78170D01*
X-116080Y78170D01*
X-116080Y39830D01*
X-116080Y41407D02*
X-135170Y41407D01*
X-135170Y42984D02*
X-116080Y42984D01*
X-116080Y44561D02*
X-135170Y44561D01*
X-135170Y46138D02*
X-116080Y46138D01*
X-116080Y47715D02*
X-135170Y47715D01*
X-135170Y49292D02*
X-116080Y49292D01*
X-116080Y50869D02*
X-135170Y50869D01*
X-135170Y52446D02*
X-116080Y52446D01*
X-116080Y54023D02*
X-135170Y54023D01*
X-135170Y55600D02*
X-116080Y55600D01*
X-116080Y57177D02*
X-135170Y57177D01*
X-135170Y58754D02*
X-116080Y58754D01*
X-116080Y60331D02*
X-135170Y60331D01*
X-135170Y61908D02*
X-116080Y61908D01*
X-116080Y63485D02*
X-135170Y63485D01*
X-135170Y65062D02*
X-116080Y65062D01*
X-116080Y66639D02*
X-135170Y66639D01*
X-135170Y68216D02*
X-116080Y68216D01*
X-116080Y69793D02*
X-135170Y69793D01*
X-135170Y71370D02*
X-116080Y71370D01*
X-116080Y72947D02*
X-135170Y72947D01*
X-135170Y74524D02*
X-116080Y74524D01*
X-116080Y76101D02*
X-135170Y76101D01*
X-135170Y77678D02*
X-116080Y77678D01*
X166080Y-12170D02*
X185170Y-12170D01*
X166080Y-12170D02*
X166080Y26170D01*
X185170Y26170D01*
X185170Y-12170D01*
X185170Y-10593D02*
X166080Y-10593D01*
X166080Y-9016D02*
X185170Y-9016D01*
X185170Y-7439D02*
X166080Y-7439D01*
X166080Y-5862D02*
X185170Y-5862D01*
X185170Y-4285D02*
X166080Y-4285D01*
X166080Y-2708D02*
X185170Y-2708D01*
X185170Y-1131D02*
X166080Y-1131D01*
X166080Y446D02*
X185170Y446D01*
X185170Y2023D02*
X166080Y2023D01*
X166080Y3600D02*
X185170Y3600D01*
X185170Y5177D02*
X166080Y5177D01*
X166080Y6754D02*
X185170Y6754D01*
X185170Y8331D02*
X166080Y8331D01*
X166080Y9908D02*
X185170Y9908D01*
X185170Y11485D02*
X166080Y11485D01*
X166080Y13062D02*
X185170Y13062D01*
X185170Y14639D02*
X166080Y14639D01*
X166080Y16216D02*
X185170Y16216D01*
X185170Y17793D02*
X166080Y17793D01*
X166080Y19370D02*
X185170Y19370D01*
X185170Y20947D02*
X166080Y20947D01*
X166080Y22524D02*
X185170Y22524D01*
X185170Y24101D02*
X166080Y24101D01*
X166080Y25678D02*
X185170Y25678D01*
X74420Y9830D02*
X55330Y9830D01*
X55330Y48170D01*
X74420Y48170D01*
X74420Y9830D01*
X74420Y11407D02*
X55330Y11407D01*
X55330Y12984D02*
X74420Y12984D01*
X74420Y14561D02*
X55330Y14561D01*
X55330Y16138D02*
X74420Y16138D01*
X74420Y17715D02*
X55330Y17715D01*
X55330Y19292D02*
X74420Y19292D01*
X74420Y20869D02*
X55330Y20869D01*
X55330Y22446D02*
X74420Y22446D01*
X74420Y24023D02*
X55330Y24023D01*
X55330Y25600D02*
X74420Y25600D01*
X74420Y27177D02*
X55330Y27177D01*
X55330Y28754D02*
X74420Y28754D01*
X74420Y30331D02*
X55330Y30331D01*
X55330Y31908D02*
X74420Y31908D01*
X74420Y33485D02*
X55330Y33485D01*
X55330Y35062D02*
X74420Y35062D01*
X74420Y36639D02*
X55330Y36639D01*
X55330Y38216D02*
X74420Y38216D01*
X74420Y39793D02*
X55330Y39793D01*
X55330Y41370D02*
X74420Y41370D01*
X74420Y42947D02*
X55330Y42947D01*
X55330Y44524D02*
X74420Y44524D01*
X74420Y46101D02*
X55330Y46101D01*
X55330Y47678D02*
X74420Y47678D01*
D13*
X-80000Y-143600D03*
D14*
X-60000Y-143600D03*
X-40000Y-143600D03*
X-20000Y-143600D03*
X0Y-143600D03*
X20000Y-143600D03*
D15*
X-170700Y-123300D03*
X171300Y-149200D03*
X135200Y81200D03*
X-172200Y44100D03*
X-62100Y-17100D03*
X63400Y-15100D03*
X48600Y49300D03*
X5800Y55700D03*
X82100Y-113882D03*
X156500Y-143400D03*
X-109800Y-110200D03*
D16*
X-125625Y59000D02*
X-148510Y59000D01*
X-151700Y62190D01*
X28500Y30410D02*
X63465Y30410D01*
X64875Y29000D01*
X-16300Y-39500D02*
X-69351Y-39500D01*
X-16300Y-39500D02*
X3800Y-59600D01*
X28700Y-84500D01*
X69149Y-84500D01*
X-60000Y-115851D02*
X-121351Y-54500D01*
X-60000Y-115851D02*
X-60000Y-143600D01*
X-20000Y-143600D02*
X-1100Y-124700D01*
X119300Y-124700D01*
X152900Y-91100D01*
X152900Y-75900D01*
X152900Y-58500D01*
X132200Y-37800D01*
X126800Y-32400D01*
X126800Y-9700D01*
X119390Y-2290D01*
X28500Y-2290D01*
X-131400Y-60761D02*
X-132621Y-59540D01*
X-131400Y-60761D02*
X-131400Y-95200D01*
X-132621Y10411D02*
X-151700Y29490D01*
X-132621Y10411D02*
X-132621Y-59540D01*
X-104800Y-162300D02*
X-7100Y-162300D01*
X0Y-155200D01*
X0Y-143600D01*
X-126500Y-100100D02*
X-131400Y-95200D01*
X-126500Y-100100D02*
X-126500Y-140600D01*
X-104800Y-162300D01*
X-14875Y37000D02*
X13800Y37000D01*
X32800Y56000D01*
X162200Y56000D01*
X171500Y46700D01*
X175625Y42575D01*
X175625Y7000D01*
X175625Y-96075D01*
X128100Y-143600D02*
X20000Y-143600D01*
D17*
X146200Y-139012D02*
X154262Y-130950D01*
X132688Y-139012D02*
X128100Y-143600D01*
X154262Y-117438D02*
X175625Y-96075D01*
X146200Y-139012D02*
X132688Y-139012D01*
X154262Y-130950D02*
X154262Y-117438D01*
D15*
X110400Y-109100D03*
D16*
X121149Y-98351D01*
X121149Y-84500D01*
X-40000Y-83851D02*
X-40000Y-143600D01*
X-40000Y-83851D02*
X-69351Y-54500D01*
M02*
