G04 EAGLE Gerber RS-274X export*
G75*
%MOMM*%
%FSLAX34Y34*%
%LPD*%
%INTop Copper*%
%IPPOS*%
%AMOC8*
5,1,8,0,0,1.08239X$1,22.5*%
G01*
G04 Define Apertures*
%ADD10R,1.440000X1.440000*%
%ADD11C,1.440000*%
%ADD12C,0.502400*%
%ADD13C,0.200000*%
G36*
X140631Y-173241D02*
X140500Y-173250D01*
X-140500Y-173250D01*
X-140631Y-173241D01*
X-152795Y-171640D01*
X-153047Y-171572D01*
X-164383Y-166877D01*
X-164609Y-166747D01*
X-174343Y-159277D01*
X-174527Y-159093D01*
X-181997Y-149359D01*
X-182127Y-149133D01*
X-186822Y-137797D01*
X-186890Y-137545D01*
X-188491Y-125381D01*
X-188500Y-125250D01*
X-188500Y45250D01*
X-188491Y45381D01*
X-186890Y57545D01*
X-186822Y57797D01*
X-182127Y69133D01*
X-181997Y69359D01*
X-174527Y79093D01*
X-174343Y79277D01*
X-164609Y86747D01*
X-164383Y86877D01*
X-153047Y91572D01*
X-152795Y91640D01*
X-140631Y93241D01*
X-140500Y93250D01*
X140500Y93250D01*
X140631Y93241D01*
X152795Y91640D01*
X153047Y91572D01*
X164383Y86877D01*
X164609Y86747D01*
X174343Y79277D01*
X174527Y79093D01*
X181997Y69359D01*
X182127Y69133D01*
X186822Y57797D01*
X186890Y57545D01*
X188491Y45381D01*
X188500Y45250D01*
X188500Y-125250D01*
X188491Y-125381D01*
X186890Y-137545D01*
X186822Y-137797D01*
X182127Y-149133D01*
X181997Y-149359D01*
X174527Y-159093D01*
X174343Y-159277D01*
X164609Y-166747D01*
X164383Y-166877D01*
X153047Y-171572D01*
X152795Y-171640D01*
X140631Y-173241D01*
G37*
%LPC*%
G36*
X57414Y57000D02*
X62586Y57000D01*
X67364Y58979D01*
X71021Y62636D01*
X73000Y67414D01*
X73000Y72586D01*
X71021Y77364D01*
X67364Y81021D01*
X62586Y83000D01*
X57414Y83000D01*
X52636Y81021D01*
X48979Y77364D01*
X47000Y72586D01*
X47000Y67414D01*
X48979Y62636D01*
X52636Y58979D01*
X57414Y57000D01*
G37*
G36*
X-98632Y42000D02*
X-91868Y42000D01*
X-85620Y44588D01*
X-80838Y49370D01*
X-78250Y55618D01*
X-78250Y62382D01*
X-80838Y68630D01*
X-85620Y73412D01*
X-91868Y76000D01*
X-98632Y76000D01*
X-104880Y73412D01*
X-109662Y68630D01*
X-112250Y62382D01*
X-112250Y55618D01*
X-109662Y49370D01*
X-104880Y44588D01*
X-98632Y42000D01*
G37*
G36*
X-48632Y20000D02*
X-41868Y20000D01*
X-35620Y22588D01*
X-30838Y27370D01*
X-28250Y33618D01*
X-28250Y40382D01*
X-30838Y46630D01*
X-35620Y51412D01*
X-41868Y54000D01*
X-48632Y54000D01*
X-54880Y51412D01*
X-59662Y46630D01*
X-62250Y40382D01*
X-62250Y33618D01*
X-59662Y27370D01*
X-54880Y22588D01*
X-48632Y20000D01*
G37*
G36*
X91868Y12000D02*
X98632Y12000D01*
X104880Y14588D01*
X109662Y19370D01*
X112250Y25618D01*
X112250Y32382D01*
X109662Y38630D01*
X104880Y43412D01*
X98632Y46000D01*
X91868Y46000D01*
X85620Y43412D01*
X80838Y38630D01*
X78250Y32382D01*
X78250Y25618D01*
X80838Y19370D01*
X85620Y14588D01*
X91868Y12000D01*
G37*
G36*
X141868Y-10000D02*
X148632Y-10000D01*
X154880Y-7412D01*
X159662Y-2630D01*
X162250Y3618D01*
X162250Y10382D01*
X159662Y16630D01*
X154880Y21412D01*
X148632Y24000D01*
X141868Y24000D01*
X135620Y21412D01*
X130838Y16630D01*
X128250Y10382D01*
X128250Y3618D01*
X130838Y-2630D01*
X135620Y-7412D01*
X141868Y-10000D01*
G37*
G36*
X-99029Y-19000D02*
X-91471Y-19000D01*
X-84487Y-16107D01*
X-79143Y-10763D01*
X-76250Y-3779D01*
X-76250Y3779D01*
X-79143Y10763D01*
X-84487Y16107D01*
X-91471Y19000D01*
X-99029Y19000D01*
X-106013Y16107D01*
X-111357Y10763D01*
X-114250Y3779D01*
X-114250Y-3779D01*
X-111357Y-10763D01*
X-106013Y-16107D01*
X-99029Y-19000D01*
G37*
G36*
X-42339Y-10500D02*
X-38161Y-10500D01*
X-34302Y-8901D01*
X-31349Y-5948D01*
X-29750Y-2089D01*
X-29750Y2089D01*
X-31349Y5948D01*
X-34302Y8901D01*
X-38161Y10500D01*
X-42339Y10500D01*
X-46198Y8901D01*
X-49151Y5948D01*
X-50750Y2089D01*
X-50750Y-2089D01*
X-49151Y-5948D01*
X-46198Y-8901D01*
X-42339Y-10500D01*
G37*
G36*
X-152339Y-10500D02*
X-148161Y-10500D01*
X-144302Y-8901D01*
X-141349Y-5948D01*
X-139750Y-2089D01*
X-139750Y2089D01*
X-141349Y5948D01*
X-144302Y8901D01*
X-148161Y10500D01*
X-152339Y10500D01*
X-156198Y8901D01*
X-159151Y5948D01*
X-160750Y2089D01*
X-160750Y-2089D01*
X-159151Y-5948D01*
X-156198Y-8901D01*
X-152339Y-10500D01*
G37*
G36*
X91471Y-49000D02*
X99029Y-49000D01*
X106013Y-46107D01*
X111357Y-40763D01*
X114250Y-33779D01*
X114250Y-26221D01*
X111357Y-19237D01*
X106013Y-13893D01*
X99029Y-11000D01*
X91471Y-11000D01*
X84487Y-13893D01*
X79143Y-19237D01*
X76250Y-26221D01*
X76250Y-33779D01*
X79143Y-40763D01*
X84487Y-46107D01*
X91471Y-49000D01*
G37*
G36*
X148161Y-40500D02*
X152339Y-40500D01*
X156198Y-38901D01*
X159151Y-35948D01*
X160750Y-32089D01*
X160750Y-27911D01*
X159151Y-24052D01*
X156198Y-21099D01*
X152339Y-19500D01*
X148161Y-19500D01*
X144302Y-21099D01*
X141349Y-24052D01*
X139750Y-27911D01*
X139750Y-32089D01*
X141349Y-35948D01*
X144302Y-38901D01*
X148161Y-40500D01*
G37*
G36*
X38161Y-40500D02*
X42339Y-40500D01*
X46198Y-38901D01*
X49151Y-35948D01*
X50750Y-32089D01*
X50750Y-27911D01*
X49151Y-24052D01*
X46198Y-21099D01*
X42339Y-19500D01*
X38161Y-19500D01*
X34302Y-21099D01*
X31349Y-24052D01*
X29750Y-27911D01*
X29750Y-32089D01*
X31349Y-35948D01*
X34302Y-38901D01*
X38161Y-40500D01*
G37*
G36*
X-111351Y-61000D02*
X-79351Y-61000D01*
X-79351Y-33000D01*
X-111351Y-33000D01*
X-111351Y-61000D01*
G37*
G36*
X79149Y-91000D02*
X111149Y-91000D01*
X111149Y-63000D01*
X79149Y-63000D01*
X79149Y-91000D01*
G37*
G36*
X-41685Y-152070D02*
X-38315Y-152070D01*
X-35202Y-150781D01*
X-32820Y-148398D01*
X-31530Y-145285D01*
X-31530Y-141915D01*
X-32321Y-140005D01*
X-32397Y-139638D01*
X-32324Y-139247D01*
X-32105Y-138915D01*
X-4853Y-111663D01*
X-4536Y-111449D01*
X-4146Y-111370D01*
X106907Y-111370D01*
X107283Y-111443D01*
X107614Y-111663D01*
X108833Y-112882D01*
X111967Y-112882D01*
X114182Y-110667D01*
X114182Y-107533D01*
X111967Y-105318D01*
X108833Y-105318D01*
X107614Y-106537D01*
X107297Y-106751D01*
X106907Y-106830D01*
X-6440Y-106830D01*
X-35315Y-135705D01*
X-35625Y-135915D01*
X-36014Y-135997D01*
X-36405Y-135921D01*
X-38315Y-135130D01*
X-41685Y-135130D01*
X-44798Y-136420D01*
X-47181Y-138802D01*
X-48470Y-141915D01*
X-48470Y-145285D01*
X-47181Y-148398D01*
X-44798Y-150781D01*
X-41685Y-152070D01*
G37*
G36*
X137914Y-138250D02*
X143086Y-138250D01*
X147864Y-136271D01*
X151521Y-132614D01*
X153500Y-127836D01*
X153500Y-122664D01*
X151521Y-117886D01*
X147864Y-114229D01*
X143086Y-112250D01*
X137914Y-112250D01*
X133136Y-114229D01*
X129479Y-117886D01*
X127500Y-122664D01*
X127500Y-127836D01*
X129479Y-132614D01*
X133136Y-136271D01*
X137914Y-138250D01*
G37*
G36*
X-143086Y-138250D02*
X-137914Y-138250D01*
X-133136Y-136271D01*
X-129479Y-132614D01*
X-127500Y-127836D01*
X-127500Y-122664D01*
X-129479Y-117886D01*
X-133136Y-114229D01*
X-137914Y-112250D01*
X-143086Y-112250D01*
X-147864Y-114229D01*
X-151521Y-117886D01*
X-153500Y-122664D01*
X-153500Y-127836D01*
X-151521Y-132614D01*
X-147864Y-136271D01*
X-143086Y-138250D01*
G37*
G36*
X-89740Y-142838D02*
X-80762Y-142838D01*
X-80762Y-133860D01*
X-88252Y-133860D01*
X-89740Y-135348D01*
X-89740Y-142838D01*
G37*
G36*
X-79238Y-153340D02*
X-71748Y-153340D01*
X-70260Y-151852D01*
X-70260Y-145991D01*
X-70201Y-145653D01*
X-69995Y-145312D01*
X-69672Y-145079D01*
X-69284Y-144991D01*
X-68892Y-145061D01*
X-68559Y-145278D01*
X-68336Y-145608D01*
X-67181Y-148398D01*
X-64798Y-150781D01*
X-61685Y-152070D01*
X-58315Y-152070D01*
X-55202Y-150781D01*
X-52820Y-148398D01*
X-51530Y-145285D01*
X-51530Y-141915D01*
X-52820Y-138802D01*
X-55202Y-136420D01*
X-58315Y-135130D01*
X-61685Y-135130D01*
X-64798Y-136420D01*
X-67181Y-138802D01*
X-68336Y-141592D01*
X-68520Y-141882D01*
X-68841Y-142117D01*
X-69228Y-142209D01*
X-69621Y-142142D01*
X-69956Y-141928D01*
X-70181Y-141599D01*
X-70260Y-141209D01*
X-70260Y-135348D01*
X-71748Y-133860D01*
X-79238Y-133860D01*
X-79238Y-153340D01*
G37*
G36*
X18315Y-152070D02*
X21685Y-152070D01*
X24798Y-150781D01*
X27181Y-148398D01*
X28470Y-145285D01*
X28470Y-141915D01*
X27181Y-138802D01*
X24798Y-136420D01*
X21685Y-135130D01*
X18315Y-135130D01*
X15202Y-136420D01*
X12820Y-138802D01*
X11530Y-141915D01*
X11530Y-145285D01*
X12820Y-148398D01*
X15202Y-150781D01*
X18315Y-152070D01*
G37*
G36*
X-1685Y-152070D02*
X1685Y-152070D01*
X4798Y-150781D01*
X7181Y-148398D01*
X8470Y-145285D01*
X8470Y-141915D01*
X7181Y-138802D01*
X4798Y-136420D01*
X1685Y-135130D01*
X-1685Y-135130D01*
X-4798Y-136420D01*
X-7181Y-138802D01*
X-8470Y-141915D01*
X-8470Y-145285D01*
X-7181Y-148398D01*
X-4798Y-150781D01*
X-1685Y-152070D01*
G37*
G36*
X-21685Y-152070D02*
X-18315Y-152070D01*
X-15202Y-150781D01*
X-12820Y-148398D01*
X-11530Y-145285D01*
X-11530Y-141915D01*
X-12820Y-138802D01*
X-15202Y-136420D01*
X-18315Y-135130D01*
X-21685Y-135130D01*
X-24798Y-136420D01*
X-27181Y-138802D01*
X-28470Y-141915D01*
X-28470Y-145285D01*
X-27181Y-148398D01*
X-24798Y-150781D01*
X-21685Y-152070D01*
G37*
G36*
X-88252Y-153340D02*
X-80762Y-153340D01*
X-80762Y-144362D01*
X-89740Y-144362D01*
X-89740Y-151852D01*
X-88252Y-153340D01*
G37*
%LPD*%
D10*
X-80000Y-143600D03*
D11*
X-60000Y-143600D03*
X-40000Y-143600D03*
X-20000Y-143600D03*
X0Y-143600D03*
X20000Y-143600D03*
D12*
X-170700Y-123300D03*
X171300Y-149200D03*
X135200Y81200D03*
X-172200Y44100D03*
X-62100Y-17100D03*
X63400Y-15100D03*
X48600Y49300D03*
X5800Y55700D03*
X82100Y-113882D03*
X156500Y-143400D03*
X-109800Y-110200D03*
D13*
X-40000Y-143600D02*
X-5500Y-109100D01*
X110400Y-109100D01*
D12*
X110400Y-109100D03*
M02*
