G04 EAGLE Gerber RS-274X export*
G75*
%MOMM*%
%FSLAX34Y34*%
%LPD*%
%INBottom Copper*%
%IPPOS*%
%AMOC8*
5,1,8,0,0,1.08239X$1,22.5*%
G01*
G04 Define Apertures*
%ADD10R,0.629100X0.560000*%
%ADD11R,0.560000X0.629100*%
%ADD12R,0.644000X0.535100*%
%ADD13C,1.300000*%
%ADD14R,0.558800X1.422400*%
%ADD15R,1.800000X1.800000*%
%ADD16C,1.800000*%
%ADD17C,0.200000*%
%ADD18C,0.502400*%
%ADD19C,0.152400*%
G36*
X-71902Y-255940D02*
X-72200Y-256000D01*
X-74250Y-256000D01*
X-74399Y-255985D01*
X-80995Y-254673D01*
X-81270Y-254559D01*
X-86862Y-250823D01*
X-87073Y-250612D01*
X-90809Y-245020D01*
X-90923Y-244745D01*
X-92235Y-238149D01*
X-92250Y-238000D01*
X-92250Y80000D01*
X-92235Y80149D01*
X-90923Y86745D01*
X-90809Y87020D01*
X-87073Y92612D01*
X-86862Y92823D01*
X-81270Y96559D01*
X-80995Y96673D01*
X-74399Y97985D01*
X-74250Y98000D01*
X74250Y98000D01*
X74399Y97985D01*
X80995Y96673D01*
X81270Y96559D01*
X86862Y92823D01*
X87073Y92612D01*
X90809Y87020D01*
X90923Y86745D01*
X92235Y80149D01*
X92250Y80000D01*
X92250Y37800D01*
X92203Y37537D01*
X92044Y37279D01*
X91796Y37103D01*
X91500Y37038D01*
X91202Y37094D01*
X90949Y37261D01*
X84713Y43497D01*
X84550Y43739D01*
X84490Y44036D01*
X84490Y45277D01*
X83746Y46021D01*
X76254Y46021D01*
X75510Y45277D01*
X75510Y44332D01*
X75459Y44057D01*
X75295Y43802D01*
X75045Y43630D01*
X74748Y43570D01*
X61479Y43570D01*
X61199Y43623D01*
X60945Y43789D01*
X60775Y44040D01*
X60087Y45701D01*
X57901Y47887D01*
X55046Y49070D01*
X51954Y49070D01*
X49099Y47887D01*
X46913Y45701D01*
X46551Y44828D01*
X46411Y44607D01*
X46166Y44427D01*
X45871Y44358D01*
X45572Y44408D01*
X45317Y44572D01*
X45145Y44822D01*
X45085Y45119D01*
X45085Y55281D01*
X45130Y55538D01*
X45287Y55798D01*
X45533Y55975D01*
X45829Y56043D01*
X46127Y55989D01*
X46382Y55824D01*
X46551Y55572D01*
X46913Y54699D01*
X49099Y52513D01*
X51954Y51330D01*
X55046Y51330D01*
X57901Y52513D01*
X60087Y54699D01*
X61270Y57554D01*
X61270Y60646D01*
X60087Y63501D01*
X57901Y65687D01*
X55046Y66870D01*
X51954Y66870D01*
X49099Y65687D01*
X46913Y63501D01*
X46551Y62628D01*
X46411Y62407D01*
X46166Y62227D01*
X45871Y62158D01*
X45572Y62208D01*
X45317Y62372D01*
X45145Y62622D01*
X45085Y62919D01*
X45085Y73081D01*
X45130Y73338D01*
X45287Y73598D01*
X45533Y73775D01*
X45829Y73843D01*
X46127Y73789D01*
X46382Y73624D01*
X46551Y73372D01*
X46913Y72499D01*
X49099Y70313D01*
X51954Y69130D01*
X55046Y69130D01*
X57901Y70313D01*
X60087Y72499D01*
X61270Y75354D01*
X61270Y78446D01*
X60087Y81301D01*
X57901Y83487D01*
X55046Y84670D01*
X51954Y84670D01*
X49099Y83487D01*
X46913Y81301D01*
X46551Y80428D01*
X46411Y80207D01*
X46166Y80027D01*
X45871Y79958D01*
X45572Y80008D01*
X45317Y80172D01*
X45145Y80422D01*
X45085Y80719D01*
X45085Y90098D01*
X45076Y90153D01*
X45073Y90154D01*
X45033Y90160D01*
X-45023Y90160D01*
X-45078Y90151D01*
X-45079Y90148D01*
X-45085Y90108D01*
X-45085Y74209D01*
X-45132Y73946D01*
X-45291Y73688D01*
X-45539Y73512D01*
X-45835Y73447D01*
X-46133Y73503D01*
X-46386Y73670D01*
X-48379Y75664D01*
X-51702Y77040D01*
X-52738Y77040D01*
X-52738Y67238D01*
X-62540Y67238D01*
X-62540Y66202D01*
X-61164Y62879D01*
X-58621Y60336D01*
X-55676Y59117D01*
X-55451Y58973D01*
X-55274Y58727D01*
X-55206Y58431D01*
X-55259Y58132D01*
X-55425Y57878D01*
X-55676Y57709D01*
X-57901Y56787D01*
X-60087Y54601D01*
X-61270Y51746D01*
X-61270Y48654D01*
X-60087Y45799D01*
X-57901Y43613D01*
X-55046Y42430D01*
X-51954Y42430D01*
X-49099Y43613D01*
X-46913Y45799D01*
X-46551Y46672D01*
X-46411Y46893D01*
X-46166Y47073D01*
X-45871Y47142D01*
X-45572Y47092D01*
X-45317Y46928D01*
X-45145Y46678D01*
X-45085Y46381D01*
X-45085Y36219D01*
X-45130Y35962D01*
X-45287Y35702D01*
X-45533Y35525D01*
X-45829Y35457D01*
X-46127Y35511D01*
X-46382Y35676D01*
X-46551Y35928D01*
X-46913Y36801D01*
X-49099Y38987D01*
X-51954Y40170D01*
X-55046Y40170D01*
X-57901Y38987D01*
X-60087Y36801D01*
X-61270Y33946D01*
X-61270Y30854D01*
X-60087Y27999D01*
X-57901Y25813D01*
X-55046Y24630D01*
X-51954Y24630D01*
X-49099Y25813D01*
X-46913Y27999D01*
X-46551Y28872D01*
X-46411Y29093D01*
X-46166Y29273D01*
X-45871Y29342D01*
X-45572Y29292D01*
X-45317Y29128D01*
X-45145Y28878D01*
X-45085Y28581D01*
X-45085Y18419D01*
X-45130Y18162D01*
X-45287Y17902D01*
X-45533Y17725D01*
X-45829Y17657D01*
X-46127Y17711D01*
X-46382Y17876D01*
X-46551Y18128D01*
X-46913Y19001D01*
X-49099Y21187D01*
X-51954Y22370D01*
X-55046Y22370D01*
X-57901Y21187D01*
X-60087Y19001D01*
X-61270Y16146D01*
X-61270Y13054D01*
X-60087Y10199D01*
X-57901Y8013D01*
X-55046Y6830D01*
X-51954Y6830D01*
X-49099Y8013D01*
X-46913Y10199D01*
X-46551Y11072D01*
X-46411Y11293D01*
X-46166Y11473D01*
X-45871Y11542D01*
X-45572Y11492D01*
X-45317Y11328D01*
X-45145Y11078D01*
X-45085Y10781D01*
X-45085Y619D01*
X-45130Y362D01*
X-45287Y102D01*
X-45533Y-75D01*
X-45829Y-143D01*
X-46127Y-89D01*
X-46382Y76D01*
X-46551Y328D01*
X-46913Y1201D01*
X-49099Y3387D01*
X-51954Y4570D01*
X-55046Y4570D01*
X-57901Y3387D01*
X-60087Y1201D01*
X-61270Y-1654D01*
X-61270Y-4746D01*
X-60087Y-7601D01*
X-57901Y-9787D01*
X-55046Y-10970D01*
X-51954Y-10970D01*
X-49099Y-9787D01*
X-46913Y-7601D01*
X-46551Y-6728D01*
X-46411Y-6507D01*
X-46166Y-6327D01*
X-45871Y-6258D01*
X-45572Y-6308D01*
X-45317Y-6472D01*
X-45145Y-6722D01*
X-45085Y-7019D01*
X-45085Y-17181D01*
X-45130Y-17438D01*
X-45287Y-17698D01*
X-45533Y-17875D01*
X-45829Y-17943D01*
X-46127Y-17889D01*
X-46382Y-17724D01*
X-46551Y-17472D01*
X-46913Y-16599D01*
X-49099Y-14413D01*
X-51954Y-13230D01*
X-55046Y-13230D01*
X-57901Y-14413D01*
X-60087Y-16599D01*
X-61270Y-19454D01*
X-61270Y-22122D01*
X-61321Y-22397D01*
X-61485Y-22652D01*
X-61735Y-22824D01*
X-62032Y-22884D01*
X-74823Y-22884D01*
X-75097Y-22833D01*
X-75353Y-22669D01*
X-75524Y-22419D01*
X-75585Y-22122D01*
X-75585Y-21828D01*
X-76328Y-21084D01*
X-76968Y-21084D01*
X-77243Y-21033D01*
X-77498Y-20869D01*
X-77670Y-20619D01*
X-77730Y-20322D01*
X-77730Y-9678D01*
X-77679Y-9403D01*
X-77515Y-9148D01*
X-77265Y-8976D01*
X-76968Y-8916D01*
X-76328Y-8916D01*
X-75585Y-8172D01*
X-75585Y-1520D01*
X-75668Y-1437D01*
X-75826Y-1206D01*
X-75891Y-910D01*
X-75835Y-612D01*
X-75668Y-359D01*
X-74315Y994D01*
X-74315Y4084D01*
X-85686Y4084D01*
X-85686Y994D01*
X-84332Y-359D01*
X-84174Y-590D01*
X-84109Y-886D01*
X-84165Y-1184D01*
X-84332Y-1437D01*
X-84416Y-1520D01*
X-84416Y-8172D01*
X-83672Y-8916D01*
X-83032Y-8916D01*
X-82757Y-8967D01*
X-82502Y-9131D01*
X-82330Y-9381D01*
X-82270Y-9678D01*
X-82270Y-20322D01*
X-82321Y-20597D01*
X-82485Y-20852D01*
X-82735Y-21024D01*
X-83032Y-21084D01*
X-83672Y-21084D01*
X-84416Y-21828D01*
X-84416Y-28480D01*
X-84332Y-28563D01*
X-84174Y-28794D01*
X-84109Y-29090D01*
X-84165Y-29388D01*
X-84332Y-29641D01*
X-85686Y-30994D01*
X-85686Y-34084D01*
X-74315Y-34084D01*
X-74315Y-30994D01*
X-75668Y-29641D01*
X-75826Y-29410D01*
X-75891Y-29114D01*
X-75835Y-28816D01*
X-75668Y-28563D01*
X-75585Y-28480D01*
X-75585Y-28186D01*
X-75533Y-27911D01*
X-75370Y-27656D01*
X-75120Y-27484D01*
X-74823Y-27424D01*
X-58380Y-27424D01*
X-58094Y-27480D01*
X-57983Y-27553D01*
X-55046Y-28770D01*
X-51954Y-28770D01*
X-49099Y-27587D01*
X-46913Y-25401D01*
X-46551Y-24528D01*
X-46411Y-24307D01*
X-46166Y-24127D01*
X-45871Y-24058D01*
X-45572Y-24108D01*
X-45317Y-24272D01*
X-45145Y-24522D01*
X-45085Y-24819D01*
X-45085Y-34981D01*
X-45130Y-35238D01*
X-45287Y-35498D01*
X-45533Y-35675D01*
X-45829Y-35743D01*
X-46127Y-35689D01*
X-46382Y-35524D01*
X-46551Y-35272D01*
X-46913Y-34399D01*
X-49099Y-32213D01*
X-51954Y-31030D01*
X-55046Y-31030D01*
X-57901Y-32213D01*
X-60087Y-34399D01*
X-61270Y-37254D01*
X-61270Y-40346D01*
X-60087Y-43201D01*
X-57901Y-45387D01*
X-55046Y-46570D01*
X-51954Y-46570D01*
X-49099Y-45387D01*
X-46913Y-43201D01*
X-46551Y-42328D01*
X-46411Y-42107D01*
X-46166Y-41927D01*
X-45871Y-41858D01*
X-45572Y-41908D01*
X-45317Y-42072D01*
X-45145Y-42322D01*
X-45085Y-42619D01*
X-45085Y-52781D01*
X-45130Y-53038D01*
X-45287Y-53298D01*
X-45533Y-53475D01*
X-45829Y-53543D01*
X-46127Y-53489D01*
X-46382Y-53324D01*
X-46551Y-53072D01*
X-46913Y-52199D01*
X-49099Y-50013D01*
X-51954Y-48830D01*
X-55046Y-48830D01*
X-57901Y-50013D01*
X-60087Y-52199D01*
X-61270Y-55054D01*
X-61270Y-58146D01*
X-60087Y-61001D01*
X-57901Y-63187D01*
X-55046Y-64370D01*
X-51954Y-64370D01*
X-49099Y-63187D01*
X-46913Y-61001D01*
X-46551Y-60128D01*
X-46411Y-59907D01*
X-46166Y-59727D01*
X-45871Y-59658D01*
X-45572Y-59708D01*
X-45317Y-59872D01*
X-45145Y-60122D01*
X-45085Y-60419D01*
X-45085Y-82498D01*
X-45076Y-82553D01*
X-45073Y-82554D01*
X-45033Y-82560D01*
X-44450Y-82560D01*
X-44175Y-82611D01*
X-44133Y-82638D01*
X44127Y-82638D01*
X44153Y-82620D01*
X44450Y-82560D01*
X45023Y-82560D01*
X45078Y-82551D01*
X45079Y-82548D01*
X45085Y-82508D01*
X45085Y-51519D01*
X45130Y-51262D01*
X45287Y-51002D01*
X45533Y-50825D01*
X45829Y-50757D01*
X46127Y-50811D01*
X46382Y-50976D01*
X46551Y-51228D01*
X46913Y-52101D01*
X49099Y-54287D01*
X51954Y-55470D01*
X55046Y-55470D01*
X57901Y-54287D01*
X60087Y-52101D01*
X61270Y-49246D01*
X61270Y-46154D01*
X60087Y-43299D01*
X57901Y-41113D01*
X55046Y-39930D01*
X51954Y-39930D01*
X49099Y-41113D01*
X46913Y-43299D01*
X46551Y-44172D01*
X46411Y-44393D01*
X46166Y-44573D01*
X45871Y-44642D01*
X45572Y-44592D01*
X45317Y-44428D01*
X45145Y-44178D01*
X45085Y-43881D01*
X45085Y-33719D01*
X45130Y-33462D01*
X45287Y-33202D01*
X45533Y-33025D01*
X45829Y-32957D01*
X46127Y-33011D01*
X46382Y-33176D01*
X46551Y-33428D01*
X46913Y-34301D01*
X49099Y-36487D01*
X51954Y-37670D01*
X55046Y-37670D01*
X57901Y-36487D01*
X60087Y-34301D01*
X60775Y-32640D01*
X60932Y-32402D01*
X61182Y-32230D01*
X61479Y-32170D01*
X74748Y-32170D01*
X75023Y-32221D01*
X75278Y-32385D01*
X75450Y-32635D01*
X75510Y-32932D01*
X75510Y-33127D01*
X76254Y-33871D01*
X83746Y-33871D01*
X84490Y-33127D01*
X84490Y-26723D01*
X83746Y-25980D01*
X76254Y-25980D01*
X75510Y-26723D01*
X75510Y-26868D01*
X75459Y-27143D01*
X75295Y-27398D01*
X75045Y-27570D01*
X74748Y-27630D01*
X61479Y-27630D01*
X61199Y-27577D01*
X60945Y-27411D01*
X60775Y-27160D01*
X60087Y-25499D01*
X57901Y-23313D01*
X55046Y-22130D01*
X51954Y-22130D01*
X49099Y-23313D01*
X46913Y-25499D01*
X46551Y-26372D01*
X46411Y-26593D01*
X46166Y-26773D01*
X45871Y-26842D01*
X45572Y-26792D01*
X45317Y-26628D01*
X45145Y-26378D01*
X45085Y-26081D01*
X45085Y-15919D01*
X45130Y-15662D01*
X45287Y-15402D01*
X45533Y-15225D01*
X45829Y-15157D01*
X46127Y-15211D01*
X46382Y-15376D01*
X46551Y-15628D01*
X46913Y-16501D01*
X49099Y-18687D01*
X51954Y-19870D01*
X55046Y-19870D01*
X57901Y-18687D01*
X60087Y-16501D01*
X61270Y-13646D01*
X61270Y-10554D01*
X60087Y-7699D01*
X57901Y-5513D01*
X55046Y-4330D01*
X51954Y-4330D01*
X49099Y-5513D01*
X46913Y-7699D01*
X46551Y-8572D01*
X46411Y-8793D01*
X46166Y-8973D01*
X45871Y-9042D01*
X45572Y-8992D01*
X45317Y-8828D01*
X45145Y-8578D01*
X45085Y-8281D01*
X45085Y1881D01*
X45130Y2138D01*
X45287Y2398D01*
X45533Y2575D01*
X45829Y2643D01*
X46127Y2589D01*
X46382Y2424D01*
X46551Y2172D01*
X46913Y1299D01*
X49099Y-887D01*
X51954Y-2070D01*
X55046Y-2070D01*
X57901Y-887D01*
X60087Y1299D01*
X61270Y4154D01*
X61270Y7246D01*
X60087Y10101D01*
X57901Y12287D01*
X55046Y13470D01*
X51954Y13470D01*
X49099Y12287D01*
X46913Y10101D01*
X46551Y9228D01*
X46411Y9007D01*
X46166Y8827D01*
X45871Y8758D01*
X45572Y8808D01*
X45317Y8972D01*
X45145Y9222D01*
X45085Y9519D01*
X45085Y19681D01*
X45130Y19938D01*
X45287Y20198D01*
X45533Y20375D01*
X45829Y20443D01*
X46127Y20389D01*
X46382Y20224D01*
X46551Y19972D01*
X46913Y19099D01*
X49099Y16913D01*
X51954Y15730D01*
X55046Y15730D01*
X57901Y16913D01*
X60087Y19099D01*
X61270Y21954D01*
X61270Y25046D01*
X60087Y27901D01*
X57901Y30087D01*
X55046Y31270D01*
X51954Y31270D01*
X49099Y30087D01*
X46913Y27901D01*
X46551Y27028D01*
X46411Y26807D01*
X46166Y26627D01*
X45871Y26558D01*
X45572Y26608D01*
X45317Y26772D01*
X45145Y27022D01*
X45085Y27319D01*
X45085Y37481D01*
X45130Y37738D01*
X45287Y37998D01*
X45533Y38175D01*
X45829Y38243D01*
X46127Y38189D01*
X46382Y38024D01*
X46551Y37772D01*
X46913Y36899D01*
X49099Y34713D01*
X51954Y33530D01*
X55046Y33530D01*
X57901Y34713D01*
X60087Y36899D01*
X60775Y38560D01*
X60932Y38798D01*
X61182Y38970D01*
X61479Y39030D01*
X74991Y39030D01*
X75420Y38898D01*
X75565Y38799D01*
X75676Y38708D01*
X76254Y38130D01*
X83345Y38130D01*
X83631Y38074D01*
X83883Y37906D01*
X87007Y34783D01*
X87170Y34541D01*
X87230Y34244D01*
X87230Y26358D01*
X87183Y26095D01*
X87024Y25837D01*
X86776Y25661D01*
X86480Y25596D01*
X86182Y25652D01*
X85929Y25819D01*
X84296Y27452D01*
X84138Y27683D01*
X84073Y27979D01*
X84129Y28277D01*
X84296Y28530D01*
X84490Y28723D01*
X84490Y35127D01*
X83746Y35871D01*
X76254Y35871D01*
X75510Y35127D01*
X75510Y28723D01*
X76254Y27980D01*
X76968Y27980D01*
X77243Y27928D01*
X77498Y27765D01*
X77670Y27515D01*
X77730Y27218D01*
X77730Y25460D01*
X78695Y24495D01*
X78858Y24253D01*
X78918Y23956D01*
X78918Y22133D01*
X81133Y19918D01*
X84267Y19918D01*
X85929Y21581D01*
X86149Y21734D01*
X86444Y21803D01*
X86743Y21753D01*
X86998Y21589D01*
X87170Y21339D01*
X87230Y21042D01*
X87230Y-67244D01*
X87174Y-67530D01*
X87007Y-67783D01*
X51266Y-103524D01*
X51266Y-140240D01*
X51281Y-140255D01*
X51444Y-140497D01*
X51504Y-140794D01*
X51504Y-173233D01*
X51448Y-173519D01*
X51281Y-173772D01*
X27664Y-197389D01*
X27422Y-197552D01*
X27125Y-197612D01*
X22314Y-197612D01*
X16532Y-203395D01*
X16290Y-203558D01*
X15993Y-203618D01*
X13833Y-203618D01*
X11618Y-205833D01*
X11618Y-208967D01*
X13833Y-211182D01*
X16967Y-211182D01*
X19182Y-208967D01*
X19182Y-206807D01*
X19238Y-206521D01*
X19405Y-206269D01*
X23775Y-201899D01*
X24016Y-201736D01*
X24313Y-201676D01*
X29124Y-201676D01*
X55568Y-175232D01*
X55568Y-174264D01*
X55615Y-174001D01*
X55774Y-173743D01*
X56022Y-173567D01*
X56318Y-173502D01*
X56616Y-173558D01*
X56869Y-173725D01*
X62161Y-179017D01*
X62324Y-179259D01*
X62384Y-179556D01*
X62384Y-180644D01*
X62328Y-180930D01*
X62161Y-181183D01*
X61230Y-182114D01*
X61230Y-235508D01*
X61179Y-235783D01*
X61015Y-236038D01*
X60765Y-236210D01*
X60468Y-236270D01*
X53974Y-236270D01*
X53230Y-237014D01*
X53230Y-255238D01*
X53179Y-255513D01*
X53015Y-255768D01*
X52765Y-255940D01*
X52468Y-256000D01*
X45004Y-256000D01*
X44740Y-255953D01*
X44482Y-255794D01*
X44307Y-255546D01*
X44242Y-255250D01*
X44297Y-254952D01*
X44465Y-254699D01*
X46806Y-252358D01*
X48370Y-248583D01*
X48370Y-244497D01*
X46806Y-240723D01*
X43918Y-237834D01*
X40143Y-236270D01*
X36057Y-236270D01*
X32283Y-237834D01*
X29394Y-240723D01*
X27830Y-244497D01*
X27830Y-248583D01*
X29394Y-252358D01*
X31735Y-254699D01*
X31888Y-254919D01*
X31958Y-255214D01*
X31907Y-255513D01*
X31744Y-255768D01*
X31494Y-255940D01*
X31196Y-256000D01*
X19604Y-256000D01*
X19340Y-255953D01*
X19082Y-255794D01*
X18907Y-255546D01*
X18842Y-255250D01*
X18897Y-254952D01*
X19065Y-254699D01*
X21406Y-252358D01*
X22970Y-248583D01*
X22970Y-244497D01*
X21406Y-240723D01*
X18518Y-237834D01*
X15202Y-236460D01*
X14964Y-236304D01*
X14792Y-236054D01*
X14732Y-235756D01*
X14732Y-235694D01*
X14788Y-235408D01*
X14955Y-235155D01*
X40105Y-210005D01*
X40347Y-209842D01*
X40644Y-209782D01*
X42467Y-209782D01*
X44682Y-207567D01*
X44682Y-204433D01*
X42467Y-202218D01*
X39333Y-202218D01*
X37118Y-204433D01*
X37118Y-206256D01*
X37062Y-206542D01*
X36895Y-206795D01*
X10430Y-233260D01*
X10430Y-235140D01*
X10445Y-235155D01*
X10608Y-235397D01*
X10668Y-235694D01*
X10668Y-235756D01*
X10615Y-236037D01*
X10449Y-236291D01*
X10198Y-236460D01*
X6883Y-237834D01*
X3994Y-240723D01*
X2430Y-244497D01*
X2430Y-248583D01*
X3994Y-252358D01*
X6335Y-254699D01*
X6488Y-254919D01*
X6558Y-255214D01*
X6507Y-255513D01*
X6344Y-255768D01*
X6094Y-255940D01*
X5796Y-256000D01*
X-5796Y-256000D01*
X-6060Y-255953D01*
X-6318Y-255794D01*
X-6493Y-255546D01*
X-6558Y-255250D01*
X-6503Y-254952D01*
X-6335Y-254699D01*
X-3994Y-252358D01*
X-2430Y-248583D01*
X-2430Y-244497D01*
X-3994Y-240723D01*
X-6883Y-237834D01*
X-10657Y-236270D01*
X-14743Y-236270D01*
X-18518Y-237834D01*
X-21406Y-240723D01*
X-22970Y-244497D01*
X-22970Y-248583D01*
X-21406Y-252358D01*
X-19065Y-254699D01*
X-18912Y-254919D01*
X-18842Y-255214D01*
X-18893Y-255513D01*
X-19056Y-255768D01*
X-19306Y-255940D01*
X-19604Y-256000D01*
X-31196Y-256000D01*
X-31460Y-255953D01*
X-31718Y-255794D01*
X-31893Y-255546D01*
X-31958Y-255250D01*
X-31903Y-254952D01*
X-31735Y-254699D01*
X-29394Y-252358D01*
X-27830Y-248583D01*
X-27830Y-244497D01*
X-29394Y-240723D01*
X-32283Y-237834D01*
X-36057Y-236270D01*
X-40143Y-236270D01*
X-43918Y-237834D01*
X-46806Y-240723D01*
X-48370Y-244497D01*
X-48370Y-248583D01*
X-46806Y-252358D01*
X-44465Y-254699D01*
X-44312Y-254919D01*
X-44242Y-255214D01*
X-44293Y-255513D01*
X-44456Y-255768D01*
X-44706Y-255940D01*
X-45004Y-256000D01*
X-54800Y-256000D01*
X-55064Y-255953D01*
X-55322Y-255794D01*
X-55497Y-255546D01*
X-55562Y-255250D01*
X-55507Y-254952D01*
X-55339Y-254699D01*
X-53717Y-253077D01*
X-51960Y-248835D01*
X-51960Y-247302D01*
X-75040Y-247302D01*
X-75040Y-248835D01*
X-73283Y-253077D01*
X-71661Y-254699D01*
X-71508Y-254919D01*
X-71438Y-255214D01*
X-71489Y-255513D01*
X-71652Y-255768D01*
X-71902Y-255940D01*
G37*
%LPC*%
G36*
X-62540Y68762D02*
X-54262Y68762D01*
X-54262Y77040D01*
X-55298Y77040D01*
X-58621Y75664D01*
X-61164Y73121D01*
X-62540Y69798D01*
X-62540Y68762D01*
G37*
G36*
X-85686Y5608D02*
X-80762Y5608D01*
X-80762Y10186D01*
X-84198Y10186D01*
X-85686Y8698D01*
X-85686Y5608D01*
G37*
G36*
X-79238Y5608D02*
X-74315Y5608D01*
X-74315Y8698D01*
X-75802Y10186D01*
X-79238Y10186D01*
X-79238Y5608D01*
G37*
G36*
X-79238Y-40186D02*
X-75802Y-40186D01*
X-74315Y-38698D01*
X-74315Y-35608D01*
X-79238Y-35608D01*
X-79238Y-40186D01*
G37*
G36*
X-84198Y-40186D02*
X-80762Y-40186D01*
X-80762Y-35608D01*
X-85686Y-35608D01*
X-85686Y-38698D01*
X-84198Y-40186D01*
G37*
G36*
X77733Y-60982D02*
X80867Y-60982D01*
X83082Y-58767D01*
X83082Y-55633D01*
X81793Y-54345D01*
X81630Y-54103D01*
X81570Y-53806D01*
X81570Y-44783D01*
X81621Y-44508D01*
X81785Y-44252D01*
X82035Y-44081D01*
X82332Y-44021D01*
X83746Y-44021D01*
X84490Y-43277D01*
X84490Y-36873D01*
X83746Y-36130D01*
X76254Y-36130D01*
X75510Y-36873D01*
X75510Y-43277D01*
X76254Y-44021D01*
X76268Y-44021D01*
X76543Y-44072D01*
X76798Y-44235D01*
X76970Y-44485D01*
X77030Y-44783D01*
X77030Y-53806D01*
X76974Y-54092D01*
X76807Y-54345D01*
X75518Y-55633D01*
X75518Y-58767D01*
X77733Y-60982D01*
G37*
G36*
X9833Y-225582D02*
X12967Y-225582D01*
X15182Y-223367D01*
X15182Y-220233D01*
X12967Y-218018D01*
X9833Y-218018D01*
X8307Y-219545D01*
X8065Y-219708D01*
X7768Y-219768D01*
X6725Y-219768D01*
X6439Y-219712D01*
X6187Y-219545D01*
X-16791Y-196567D01*
X-16953Y-196328D01*
X-17014Y-196032D01*
X-16955Y-195734D01*
X-16785Y-195483D01*
X-16530Y-195319D01*
X-16231Y-195267D01*
X-15936Y-195335D01*
X-11033Y-197574D01*
X0Y-199161D01*
X11033Y-197574D01*
X21172Y-192944D01*
X29596Y-185645D01*
X35622Y-176268D01*
X38762Y-165573D01*
X38762Y-154427D01*
X35622Y-143732D01*
X29596Y-134355D01*
X21172Y-127056D01*
X11033Y-122426D01*
X0Y-120839D01*
X-11033Y-122426D01*
X-21172Y-127056D01*
X-29596Y-134355D01*
X-35622Y-143732D01*
X-35999Y-145017D01*
X-36166Y-145314D01*
X-36411Y-145494D01*
X-36706Y-145563D01*
X-37005Y-145513D01*
X-37260Y-145349D01*
X-37432Y-145099D01*
X-37492Y-144802D01*
X-37492Y-121318D01*
X-37436Y-121032D01*
X-37269Y-120779D01*
X-14783Y-98293D01*
X-14541Y-98130D01*
X-14244Y-98070D01*
X44040Y-98070D01*
X66670Y-75440D01*
X66670Y-61794D01*
X66726Y-61508D01*
X66893Y-61255D01*
X68182Y-59967D01*
X68182Y-56833D01*
X65967Y-54618D01*
X62833Y-54618D01*
X60618Y-56833D01*
X60618Y-59967D01*
X61907Y-61255D01*
X62070Y-61497D01*
X62130Y-61794D01*
X62130Y-73244D01*
X62074Y-73530D01*
X61907Y-73783D01*
X42383Y-93307D01*
X42141Y-93470D01*
X41844Y-93530D01*
X-16440Y-93530D01*
X-42032Y-119122D01*
X-42032Y-177410D01*
X-39040Y-180402D01*
X-39019Y-180402D01*
X-38733Y-180458D01*
X-38481Y-180625D01*
X4726Y-223832D01*
X7768Y-223832D01*
X8054Y-223888D01*
X8307Y-224055D01*
X9833Y-225582D01*
G37*
G36*
X-75040Y-245778D02*
X-64262Y-245778D01*
X-64262Y-235000D01*
X-65795Y-235000D01*
X-70037Y-236757D01*
X-73283Y-240003D01*
X-75040Y-244245D01*
X-75040Y-245778D01*
G37*
G36*
X-62738Y-245778D02*
X-51960Y-245778D01*
X-51960Y-244245D01*
X-53717Y-240003D01*
X-56963Y-236757D01*
X-61205Y-235000D01*
X-62738Y-235000D01*
X-62738Y-245778D01*
G37*
%LPD*%
G36*
X80995Y-254673D02*
X74681Y-255929D01*
X74257Y-255893D01*
X74002Y-255729D01*
X73830Y-255479D01*
X73770Y-255182D01*
X73770Y-237014D01*
X73026Y-236270D01*
X66532Y-236270D01*
X66257Y-236219D01*
X66002Y-236055D01*
X65830Y-235805D01*
X65770Y-235508D01*
X65770Y-185278D01*
X65821Y-185003D01*
X65985Y-184747D01*
X66235Y-184576D01*
X66532Y-184516D01*
X69780Y-184516D01*
X69863Y-184432D01*
X70094Y-184274D01*
X70390Y-184209D01*
X70688Y-184265D01*
X70941Y-184432D01*
X72294Y-185786D01*
X75384Y-185786D01*
X75384Y-179338D01*
X81486Y-179338D01*
X81486Y-175902D01*
X79998Y-174415D01*
X77189Y-174415D01*
X76926Y-174368D01*
X76668Y-174208D01*
X76493Y-173961D01*
X76428Y-173665D01*
X76483Y-173367D01*
X76651Y-173114D01*
X79870Y-169894D01*
X79870Y-163888D01*
X79921Y-163613D01*
X80085Y-163358D01*
X80335Y-163186D01*
X80632Y-163126D01*
X80920Y-163126D01*
X81664Y-162382D01*
X81664Y-147106D01*
X80920Y-146362D01*
X74277Y-146362D01*
X74056Y-146513D01*
X73760Y-146578D01*
X73462Y-146523D01*
X73209Y-146355D01*
X71946Y-145092D01*
X68862Y-145092D01*
X68862Y-164396D01*
X71946Y-164396D01*
X73209Y-163133D01*
X73440Y-162975D01*
X73736Y-162910D01*
X74034Y-162965D01*
X74276Y-163126D01*
X74568Y-163126D01*
X74843Y-163177D01*
X75098Y-163341D01*
X75270Y-163591D01*
X75330Y-163888D01*
X75330Y-167698D01*
X75274Y-167984D01*
X75107Y-168237D01*
X67882Y-175461D01*
X67641Y-175624D01*
X67344Y-175685D01*
X65564Y-175685D01*
X65278Y-175629D01*
X65026Y-175461D01*
X61093Y-171529D01*
X60930Y-171287D01*
X60870Y-170990D01*
X60870Y-163888D01*
X60921Y-163613D01*
X61085Y-163358D01*
X61335Y-163186D01*
X61632Y-163126D01*
X61923Y-163126D01*
X62144Y-162975D01*
X62440Y-162910D01*
X62738Y-162965D01*
X62991Y-163133D01*
X64254Y-164396D01*
X67338Y-164396D01*
X67338Y-145092D01*
X64254Y-145092D01*
X62991Y-146355D01*
X62760Y-146513D01*
X62464Y-146578D01*
X62166Y-146523D01*
X61924Y-146362D01*
X56330Y-146362D01*
X56055Y-146311D01*
X55800Y-146147D01*
X55628Y-145897D01*
X55568Y-145600D01*
X55568Y-141000D01*
X55619Y-140725D01*
X55783Y-140470D01*
X56033Y-140298D01*
X56330Y-140238D01*
X61920Y-140238D01*
X62664Y-139494D01*
X62664Y-124218D01*
X61920Y-123474D01*
X56568Y-123474D01*
X56293Y-123423D01*
X56038Y-123259D01*
X55866Y-123009D01*
X55806Y-122712D01*
X55806Y-105720D01*
X55862Y-105434D01*
X56029Y-105181D01*
X59017Y-102193D01*
X59237Y-102040D01*
X59532Y-101970D01*
X59831Y-102021D01*
X60086Y-102185D01*
X60258Y-102435D01*
X60318Y-102732D01*
X60318Y-105267D01*
X62465Y-107414D01*
X62618Y-107633D01*
X62688Y-107928D01*
X62637Y-108227D01*
X62474Y-108483D01*
X62224Y-108654D01*
X61926Y-108715D01*
X59902Y-108715D01*
X58414Y-110202D01*
X58414Y-113638D01*
X64516Y-113638D01*
X64516Y-120086D01*
X67606Y-120086D01*
X68959Y-118732D01*
X69190Y-118574D01*
X69486Y-118509D01*
X69784Y-118565D01*
X70037Y-118732D01*
X70120Y-118816D01*
X74336Y-118816D01*
X74622Y-118871D01*
X74874Y-119039D01*
X75107Y-119271D01*
X75270Y-119513D01*
X75330Y-119810D01*
X75330Y-122712D01*
X75279Y-122987D01*
X75115Y-123242D01*
X74865Y-123414D01*
X74568Y-123474D01*
X74280Y-123474D01*
X73536Y-124218D01*
X73536Y-139494D01*
X74280Y-140238D01*
X80920Y-140238D01*
X81664Y-139494D01*
X81664Y-124218D01*
X80920Y-123474D01*
X80632Y-123474D01*
X80357Y-123423D01*
X80102Y-123259D01*
X79930Y-123009D01*
X79870Y-122712D01*
X79870Y-117614D01*
X77739Y-115483D01*
X77576Y-115241D01*
X77516Y-114944D01*
X77516Y-113856D01*
X77572Y-113570D01*
X77739Y-113317D01*
X88370Y-102686D01*
X88370Y-89394D01*
X88426Y-89108D01*
X88593Y-88855D01*
X89882Y-87567D01*
X89882Y-84433D01*
X87667Y-82218D01*
X84533Y-82218D01*
X82318Y-84433D01*
X82318Y-87567D01*
X83607Y-88855D01*
X83770Y-89097D01*
X83830Y-89394D01*
X83830Y-100490D01*
X83774Y-100776D01*
X83607Y-101029D01*
X74874Y-109761D01*
X74633Y-109924D01*
X74336Y-109985D01*
X73910Y-109985D01*
X73624Y-109929D01*
X73372Y-109761D01*
X68105Y-104495D01*
X67942Y-104253D01*
X67882Y-103956D01*
X67882Y-102133D01*
X65667Y-99918D01*
X63132Y-99918D01*
X62869Y-99871D01*
X62611Y-99712D01*
X62435Y-99464D01*
X62370Y-99168D01*
X62426Y-98870D01*
X62593Y-98617D01*
X90949Y-70261D01*
X91169Y-70108D01*
X91464Y-70038D01*
X91763Y-70089D01*
X92018Y-70253D01*
X92190Y-70503D01*
X92250Y-70800D01*
X92250Y-238000D01*
X92235Y-238149D01*
X90923Y-244745D01*
X90809Y-245020D01*
X87073Y-250612D01*
X86862Y-250823D01*
X81270Y-254559D01*
X80995Y-254673D01*
G37*
%LPC*%
G36*
X59902Y-120086D02*
X62992Y-120086D01*
X62992Y-115162D01*
X58414Y-115162D01*
X58414Y-118598D01*
X59902Y-120086D01*
G37*
G36*
X76908Y-185786D02*
X79998Y-185786D01*
X81486Y-184298D01*
X81486Y-180862D01*
X76908Y-180862D01*
X76908Y-185786D01*
G37*
%LPD*%
D10*
X-80000Y-4846D03*
X-80000Y4846D03*
X-80000Y-25154D03*
X-80000Y-34846D03*
D11*
X66454Y-180100D03*
X76146Y-180100D03*
X73446Y-114400D03*
X63754Y-114400D03*
D12*
X80000Y-29925D03*
X80000Y-40075D03*
X80000Y42075D03*
X80000Y31925D03*
D13*
X-53500Y-56600D03*
X-53500Y-38800D03*
X-53500Y-21000D03*
X-53500Y-3200D03*
X-53500Y14600D03*
X-53500Y32400D03*
X-53500Y50200D03*
X-53500Y68000D03*
X53500Y76900D03*
X53500Y59100D03*
X53500Y41300D03*
X53500Y23500D03*
X53500Y5700D03*
X53500Y-12100D03*
X53500Y-29900D03*
X53500Y-47700D03*
D14*
X77600Y-154744D03*
X68100Y-154744D03*
X58600Y-154744D03*
X58600Y-131856D03*
X77600Y-131856D03*
D15*
X63500Y-246540D03*
D16*
X38100Y-246540D03*
X12700Y-246540D03*
X-12700Y-246540D03*
X-38100Y-246540D03*
X-63500Y-246540D03*
D17*
X63500Y-246540D02*
X63500Y-183054D01*
X66454Y-180100D01*
X58600Y-172246D01*
X58600Y-154744D01*
X77600Y-168954D02*
X66454Y-180100D01*
X77600Y-168954D02*
X77600Y-154744D01*
D18*
X82700Y23700D03*
D17*
X80000Y26400D01*
X80000Y31925D01*
X77600Y-118554D02*
X77600Y-131856D01*
X77600Y-118554D02*
X73573Y-114527D01*
X73446Y-114400D01*
X86100Y-101746D01*
X86100Y-86000D01*
D18*
X86100Y-86000D03*
X79300Y-57200D03*
D17*
X79300Y-40775D01*
X80000Y-40075D01*
D18*
X64100Y-103700D03*
D17*
X73573Y-113173D01*
X73573Y-114527D01*
D18*
X77200Y-211500D03*
X-80100Y-99900D03*
X-48000Y-197700D03*
X-47700Y-147500D03*
X-77800Y-166400D03*
X-30100Y-197100D03*
X33900Y-225500D03*
X-20100Y-219800D03*
X26400Y-195100D03*
X42500Y-136300D03*
X-28100Y-120200D03*
X-46800Y-113100D03*
X-50500Y-97300D03*
X-69500Y-35300D03*
X-41900Y-90400D03*
X37600Y-88900D03*
X53100Y-64600D03*
X85300Y-243000D03*
X87900Y-230400D03*
D17*
X-80000Y-25154D02*
X-80000Y-4846D01*
X-57654Y-25154D02*
X-53500Y-21000D01*
X-57654Y-25154D02*
X-80000Y-25154D01*
X53500Y-29900D02*
X79975Y-29900D01*
X80000Y-29925D01*
X75925Y41300D02*
X53500Y41300D01*
X75925Y41300D02*
X80000Y42075D01*
X53536Y-104464D02*
X53536Y-139300D01*
X89500Y-68500D02*
X89500Y35500D01*
X82925Y42075D01*
X80000Y42075D01*
X89500Y-68500D02*
X53536Y-104464D01*
D18*
X15400Y-207400D03*
D19*
X23156Y-199644D01*
X28282Y-199644D01*
X53536Y-174390D01*
X53536Y-139300D01*
D17*
X-38100Y-178132D02*
X-39762Y-176470D01*
X-39762Y-120062D01*
X-22200Y-102500D01*
X-15500Y-95800D01*
X43100Y-95800D01*
X64400Y-74500D01*
X64400Y-58400D01*
D18*
X64400Y-58400D03*
D19*
X-38100Y-178132D02*
X5568Y-221800D01*
X11400Y-221800D01*
D18*
X11400Y-221800D03*
X40900Y-206000D03*
D17*
X12700Y-234200D01*
D19*
X12700Y-246540D01*
M02*
