M48
;GenerationSoftware,Autodesk,EAGLE,9.7.0*%
;CreationDate,2025-09-15T23:14:31Z*%
FMAT,2
ICI,OFF
METRIC,TZ,000.000
T3C0.350
T2C0.700
T1C1.000
%
G90
M71
T1
X-6350Y-24654
X6350Y-24654
X3810Y-24654
X1270Y-24654
X-1270Y-24654
X-3810Y-24654
T2
X5350Y5910
X-5350Y-320
X-5350Y-5660
X-5350Y-3880
X-5350Y-2100
X-5350Y1460
X-5350Y3240
X-5350Y5020
X-5350Y6800
X5350Y7690
X5350Y4130
X5350Y2350
X5350Y570
X5350Y-1210
X5350Y-2990
X5350Y-4770
T3
X8790Y-23040
X1540Y-20740
X-4800Y-19770
X1140Y-22180
X4090Y-20600
X8270Y2370
X8610Y-8600
X7930Y-5720
X6440Y-5840
X6410Y-10370
X7720Y-21150
X-8010Y-9990
X-4770Y-14750
X-7780Y-16640
X-3010Y-19710
X3390Y-22550
X-2010Y-21980
X2640Y-19510
X4250Y-13630
X-2810Y-12020
X-4190Y-9040
X-4680Y-11310
X-5050Y-9730
X-6950Y-3530
X3760Y-8890
X5310Y-6460
X8530Y-24300
M30