G04 EAGLE Gerber RS-274X export*
G75*
%MOMM*%
%FSLAX34Y34*%
%LPD*%
%INSoldermask Top*%
%IPPOS*%
%AMOC8*
5,1,8,0,0,1.08239X$1,22.5*%
G01*
G04 Define Apertures*
%ADD10C,1.503200*%
%ADD11R,2.003200X2.003200*%
%ADD12C,2.003200*%
%ADD13C,0.705600*%
D10*
X-53500Y-56600D03*
X-53500Y-38800D03*
X-53500Y-21000D03*
X-53500Y-3200D03*
X-53500Y14600D03*
X-53500Y32400D03*
X-53500Y50200D03*
X-53500Y68000D03*
X53500Y76900D03*
X53500Y59100D03*
X53500Y41300D03*
X53500Y23500D03*
X53500Y5700D03*
X53500Y-12100D03*
X53500Y-29900D03*
X53500Y-47700D03*
D11*
X63500Y-246540D03*
D12*
X38100Y-246540D03*
X12700Y-246540D03*
X-12700Y-246540D03*
X-38100Y-246540D03*
X-63500Y-246540D03*
D13*
X82700Y23700D03*
X86100Y-86000D03*
X79300Y-57200D03*
X64100Y-103700D03*
X77200Y-211500D03*
X-80100Y-99900D03*
X-48000Y-197700D03*
X-47700Y-147500D03*
X-77800Y-166400D03*
X-30100Y-197100D03*
X33900Y-225500D03*
X-20100Y-219800D03*
X26400Y-195100D03*
X42500Y-136300D03*
X-28100Y-120200D03*
X-46800Y-113100D03*
X-50500Y-97300D03*
X-69500Y-35300D03*
X-41900Y-90400D03*
X37600Y-88900D03*
X53100Y-64600D03*
X85300Y-243000D03*
X87900Y-230400D03*
X15400Y-207400D03*
X64400Y-58400D03*
X11400Y-221800D03*
X40900Y-206000D03*
M02*
