M48
;GenerationSoftware,Autodesk,EAGLE,9.7.0*%
;CreationDate,2025-02-19T19:37:40Z*%
FMAT,2
ICI,OFF
METRIC,TZ,000.000
T6C0.350
T5C0.800
T4C1.700
T3C2.200
T2C3.000
T1C4.000
%
G90
M71
T1
X0Y19050
X0Y0
X0Y-19050
T2
X2540Y24130
X-3810Y21590
X2540Y5080
X-3810Y2540
X2540Y-13970
X-3810Y-16510
T3
X0Y-28575
X0Y29029
T4
X-5080Y19050
X5080Y19050
X5080Y0
X-5080Y0
X5080Y-19050
X-5080Y-19050
T5
X8500Y16000
X8500Y14000
X8500Y12000
X8500Y18000
X8500Y20000
X8500Y22000
X8500Y24000
T6
X1570Y-16430
X8210Y-27520
X-1930Y16720
X6020Y21350
X4530Y22390
X-6220Y17420
X-7920Y27150
X5030Y20760
X8410Y27780
X-7790Y-27350
X7470Y-22160
X-6250Y-22610
X-5030Y-10750
X4570Y-7920
X-4780Y-2510
X3910Y1920
X-5303Y15807
X2500Y21580
X2750Y17340
X4860Y17030
X-1890Y-2560
X2750Y19880
X-480Y-14090
X-490Y4020
X-970Y9330
X1510Y-21700
X-1770Y-21540
M30