G04 EAGLE Gerber RS-274X export*
G75*
%MOMM*%
%FSLAX34Y34*%
%LPD*%
%INBoard Outline*%
%IPPOS*%
%AMOC8*
5,1,8,0,0,1.08239X$1,22.5*%
G01*
G04 Define Apertures*
%ADD10C,0.000000*%
%ADD11C,0.254000*%
D10*
X-186000Y-160000D02*
X-185997Y-159730D01*
X-185987Y-159460D01*
X-185970Y-159191D01*
X-185947Y-158922D01*
X-185917Y-158653D01*
X-185881Y-158386D01*
X-185838Y-158119D01*
X-185789Y-157854D01*
X-185733Y-157590D01*
X-185670Y-157327D01*
X-185602Y-157066D01*
X-185526Y-156807D01*
X-185445Y-156550D01*
X-185357Y-156294D01*
X-185263Y-156041D01*
X-185163Y-155790D01*
X-185056Y-155542D01*
X-184944Y-155297D01*
X-184825Y-155054D01*
X-184701Y-154815D01*
X-184571Y-154578D01*
X-184435Y-154345D01*
X-184293Y-154115D01*
X-184146Y-153889D01*
X-183993Y-153666D01*
X-183835Y-153447D01*
X-183672Y-153232D01*
X-183503Y-153022D01*
X-183329Y-152815D01*
X-183150Y-152613D01*
X-182967Y-152415D01*
X-182778Y-152222D01*
X-182585Y-152033D01*
X-182387Y-151850D01*
X-182185Y-151671D01*
X-181978Y-151497D01*
X-181768Y-151328D01*
X-181553Y-151165D01*
X-181334Y-151007D01*
X-181111Y-150854D01*
X-180885Y-150707D01*
X-180655Y-150565D01*
X-180422Y-150429D01*
X-180185Y-150299D01*
X-179946Y-150175D01*
X-179703Y-150056D01*
X-179458Y-149944D01*
X-179210Y-149837D01*
X-178959Y-149737D01*
X-178706Y-149643D01*
X-178450Y-149555D01*
X-178193Y-149474D01*
X-177934Y-149398D01*
X-177673Y-149330D01*
X-177410Y-149267D01*
X-177146Y-149211D01*
X-176881Y-149162D01*
X-176614Y-149119D01*
X-176347Y-149083D01*
X-176078Y-149053D01*
X-175809Y-149030D01*
X-175540Y-149013D01*
X-175270Y-149003D01*
X-175000Y-149000D01*
X-174730Y-149003D01*
X-174460Y-149013D01*
X-174191Y-149030D01*
X-173922Y-149053D01*
X-173653Y-149083D01*
X-173386Y-149119D01*
X-173119Y-149162D01*
X-172854Y-149211D01*
X-172590Y-149267D01*
X-172327Y-149330D01*
X-172066Y-149398D01*
X-171807Y-149474D01*
X-171550Y-149555D01*
X-171294Y-149643D01*
X-171041Y-149737D01*
X-170790Y-149837D01*
X-170542Y-149944D01*
X-170297Y-150056D01*
X-170054Y-150175D01*
X-169815Y-150299D01*
X-169578Y-150429D01*
X-169345Y-150565D01*
X-169115Y-150707D01*
X-168889Y-150854D01*
X-168666Y-151007D01*
X-168447Y-151165D01*
X-168232Y-151328D01*
X-168022Y-151497D01*
X-167815Y-151671D01*
X-167613Y-151850D01*
X-167415Y-152033D01*
X-167222Y-152222D01*
X-167033Y-152415D01*
X-166850Y-152613D01*
X-166671Y-152815D01*
X-166497Y-153022D01*
X-166328Y-153232D01*
X-166165Y-153447D01*
X-166007Y-153666D01*
X-165854Y-153889D01*
X-165707Y-154115D01*
X-165565Y-154345D01*
X-165429Y-154578D01*
X-165299Y-154815D01*
X-165175Y-155054D01*
X-165056Y-155297D01*
X-164944Y-155542D01*
X-164837Y-155790D01*
X-164737Y-156041D01*
X-164643Y-156294D01*
X-164555Y-156550D01*
X-164474Y-156807D01*
X-164398Y-157066D01*
X-164330Y-157327D01*
X-164267Y-157590D01*
X-164211Y-157854D01*
X-164162Y-158119D01*
X-164119Y-158386D01*
X-164083Y-158653D01*
X-164053Y-158922D01*
X-164030Y-159191D01*
X-164013Y-159460D01*
X-164003Y-159730D01*
X-164000Y-160000D01*
X-164003Y-160270D01*
X-164013Y-160540D01*
X-164030Y-160809D01*
X-164053Y-161078D01*
X-164083Y-161347D01*
X-164119Y-161614D01*
X-164162Y-161881D01*
X-164211Y-162146D01*
X-164267Y-162410D01*
X-164330Y-162673D01*
X-164398Y-162934D01*
X-164474Y-163193D01*
X-164555Y-163450D01*
X-164643Y-163706D01*
X-164737Y-163959D01*
X-164837Y-164210D01*
X-164944Y-164458D01*
X-165056Y-164703D01*
X-165175Y-164946D01*
X-165299Y-165185D01*
X-165429Y-165422D01*
X-165565Y-165655D01*
X-165707Y-165885D01*
X-165854Y-166111D01*
X-166007Y-166334D01*
X-166165Y-166553D01*
X-166328Y-166768D01*
X-166497Y-166978D01*
X-166671Y-167185D01*
X-166850Y-167387D01*
X-167033Y-167585D01*
X-167222Y-167778D01*
X-167415Y-167967D01*
X-167613Y-168150D01*
X-167815Y-168329D01*
X-168022Y-168503D01*
X-168232Y-168672D01*
X-168447Y-168835D01*
X-168666Y-168993D01*
X-168889Y-169146D01*
X-169115Y-169293D01*
X-169345Y-169435D01*
X-169578Y-169571D01*
X-169815Y-169701D01*
X-170054Y-169825D01*
X-170297Y-169944D01*
X-170542Y-170056D01*
X-170790Y-170163D01*
X-171041Y-170263D01*
X-171294Y-170357D01*
X-171550Y-170445D01*
X-171807Y-170526D01*
X-172066Y-170602D01*
X-172327Y-170670D01*
X-172590Y-170733D01*
X-172854Y-170789D01*
X-173119Y-170838D01*
X-173386Y-170881D01*
X-173653Y-170917D01*
X-173922Y-170947D01*
X-174191Y-170970D01*
X-174460Y-170987D01*
X-174730Y-170997D01*
X-175000Y-171000D01*
X-175270Y-170997D01*
X-175540Y-170987D01*
X-175809Y-170970D01*
X-176078Y-170947D01*
X-176347Y-170917D01*
X-176614Y-170881D01*
X-176881Y-170838D01*
X-177146Y-170789D01*
X-177410Y-170733D01*
X-177673Y-170670D01*
X-177934Y-170602D01*
X-178193Y-170526D01*
X-178450Y-170445D01*
X-178706Y-170357D01*
X-178959Y-170263D01*
X-179210Y-170163D01*
X-179458Y-170056D01*
X-179703Y-169944D01*
X-179946Y-169825D01*
X-180185Y-169701D01*
X-180422Y-169571D01*
X-180655Y-169435D01*
X-180885Y-169293D01*
X-181111Y-169146D01*
X-181334Y-168993D01*
X-181553Y-168835D01*
X-181768Y-168672D01*
X-181978Y-168503D01*
X-182185Y-168329D01*
X-182387Y-168150D01*
X-182585Y-167967D01*
X-182778Y-167778D01*
X-182967Y-167585D01*
X-183150Y-167387D01*
X-183329Y-167185D01*
X-183503Y-166978D01*
X-183672Y-166768D01*
X-183835Y-166553D01*
X-183993Y-166334D01*
X-184146Y-166111D01*
X-184293Y-165885D01*
X-184435Y-165655D01*
X-184571Y-165422D01*
X-184701Y-165185D01*
X-184825Y-164946D01*
X-184944Y-164703D01*
X-185056Y-164458D01*
X-185163Y-164210D01*
X-185263Y-163959D01*
X-185357Y-163706D01*
X-185445Y-163450D01*
X-185526Y-163193D01*
X-185602Y-162934D01*
X-185670Y-162673D01*
X-185733Y-162410D01*
X-185789Y-162146D01*
X-185838Y-161881D01*
X-185881Y-161614D01*
X-185917Y-161347D01*
X-185947Y-161078D01*
X-185970Y-160809D01*
X-185987Y-160540D01*
X-185997Y-160270D01*
X-186000Y-160000D01*
X164000Y-160000D02*
X164003Y-159730D01*
X164013Y-159460D01*
X164030Y-159191D01*
X164053Y-158922D01*
X164083Y-158653D01*
X164119Y-158386D01*
X164162Y-158119D01*
X164211Y-157854D01*
X164267Y-157590D01*
X164330Y-157327D01*
X164398Y-157066D01*
X164474Y-156807D01*
X164555Y-156550D01*
X164643Y-156294D01*
X164737Y-156041D01*
X164837Y-155790D01*
X164944Y-155542D01*
X165056Y-155297D01*
X165175Y-155054D01*
X165299Y-154815D01*
X165429Y-154578D01*
X165565Y-154345D01*
X165707Y-154115D01*
X165854Y-153889D01*
X166007Y-153666D01*
X166165Y-153447D01*
X166328Y-153232D01*
X166497Y-153022D01*
X166671Y-152815D01*
X166850Y-152613D01*
X167033Y-152415D01*
X167222Y-152222D01*
X167415Y-152033D01*
X167613Y-151850D01*
X167815Y-151671D01*
X168022Y-151497D01*
X168232Y-151328D01*
X168447Y-151165D01*
X168666Y-151007D01*
X168889Y-150854D01*
X169115Y-150707D01*
X169345Y-150565D01*
X169578Y-150429D01*
X169815Y-150299D01*
X170054Y-150175D01*
X170297Y-150056D01*
X170542Y-149944D01*
X170790Y-149837D01*
X171041Y-149737D01*
X171294Y-149643D01*
X171550Y-149555D01*
X171807Y-149474D01*
X172066Y-149398D01*
X172327Y-149330D01*
X172590Y-149267D01*
X172854Y-149211D01*
X173119Y-149162D01*
X173386Y-149119D01*
X173653Y-149083D01*
X173922Y-149053D01*
X174191Y-149030D01*
X174460Y-149013D01*
X174730Y-149003D01*
X175000Y-149000D01*
X175270Y-149003D01*
X175540Y-149013D01*
X175809Y-149030D01*
X176078Y-149053D01*
X176347Y-149083D01*
X176614Y-149119D01*
X176881Y-149162D01*
X177146Y-149211D01*
X177410Y-149267D01*
X177673Y-149330D01*
X177934Y-149398D01*
X178193Y-149474D01*
X178450Y-149555D01*
X178706Y-149643D01*
X178959Y-149737D01*
X179210Y-149837D01*
X179458Y-149944D01*
X179703Y-150056D01*
X179946Y-150175D01*
X180185Y-150299D01*
X180422Y-150429D01*
X180655Y-150565D01*
X180885Y-150707D01*
X181111Y-150854D01*
X181334Y-151007D01*
X181553Y-151165D01*
X181768Y-151328D01*
X181978Y-151497D01*
X182185Y-151671D01*
X182387Y-151850D01*
X182585Y-152033D01*
X182778Y-152222D01*
X182967Y-152415D01*
X183150Y-152613D01*
X183329Y-152815D01*
X183503Y-153022D01*
X183672Y-153232D01*
X183835Y-153447D01*
X183993Y-153666D01*
X184146Y-153889D01*
X184293Y-154115D01*
X184435Y-154345D01*
X184571Y-154578D01*
X184701Y-154815D01*
X184825Y-155054D01*
X184944Y-155297D01*
X185056Y-155542D01*
X185163Y-155790D01*
X185263Y-156041D01*
X185357Y-156294D01*
X185445Y-156550D01*
X185526Y-156807D01*
X185602Y-157066D01*
X185670Y-157327D01*
X185733Y-157590D01*
X185789Y-157854D01*
X185838Y-158119D01*
X185881Y-158386D01*
X185917Y-158653D01*
X185947Y-158922D01*
X185970Y-159191D01*
X185987Y-159460D01*
X185997Y-159730D01*
X186000Y-160000D01*
X185997Y-160270D01*
X185987Y-160540D01*
X185970Y-160809D01*
X185947Y-161078D01*
X185917Y-161347D01*
X185881Y-161614D01*
X185838Y-161881D01*
X185789Y-162146D01*
X185733Y-162410D01*
X185670Y-162673D01*
X185602Y-162934D01*
X185526Y-163193D01*
X185445Y-163450D01*
X185357Y-163706D01*
X185263Y-163959D01*
X185163Y-164210D01*
X185056Y-164458D01*
X184944Y-164703D01*
X184825Y-164946D01*
X184701Y-165185D01*
X184571Y-165422D01*
X184435Y-165655D01*
X184293Y-165885D01*
X184146Y-166111D01*
X183993Y-166334D01*
X183835Y-166553D01*
X183672Y-166768D01*
X183503Y-166978D01*
X183329Y-167185D01*
X183150Y-167387D01*
X182967Y-167585D01*
X182778Y-167778D01*
X182585Y-167967D01*
X182387Y-168150D01*
X182185Y-168329D01*
X181978Y-168503D01*
X181768Y-168672D01*
X181553Y-168835D01*
X181334Y-168993D01*
X181111Y-169146D01*
X180885Y-169293D01*
X180655Y-169435D01*
X180422Y-169571D01*
X180185Y-169701D01*
X179946Y-169825D01*
X179703Y-169944D01*
X179458Y-170056D01*
X179210Y-170163D01*
X178959Y-170263D01*
X178706Y-170357D01*
X178450Y-170445D01*
X178193Y-170526D01*
X177934Y-170602D01*
X177673Y-170670D01*
X177410Y-170733D01*
X177146Y-170789D01*
X176881Y-170838D01*
X176614Y-170881D01*
X176347Y-170917D01*
X176078Y-170947D01*
X175809Y-170970D01*
X175540Y-170987D01*
X175270Y-170997D01*
X175000Y-171000D01*
X174730Y-170997D01*
X174460Y-170987D01*
X174191Y-170970D01*
X173922Y-170947D01*
X173653Y-170917D01*
X173386Y-170881D01*
X173119Y-170838D01*
X172854Y-170789D01*
X172590Y-170733D01*
X172327Y-170670D01*
X172066Y-170602D01*
X171807Y-170526D01*
X171550Y-170445D01*
X171294Y-170357D01*
X171041Y-170263D01*
X170790Y-170163D01*
X170542Y-170056D01*
X170297Y-169944D01*
X170054Y-169825D01*
X169815Y-169701D01*
X169578Y-169571D01*
X169345Y-169435D01*
X169115Y-169293D01*
X168889Y-169146D01*
X168666Y-168993D01*
X168447Y-168835D01*
X168232Y-168672D01*
X168022Y-168503D01*
X167815Y-168329D01*
X167613Y-168150D01*
X167415Y-167967D01*
X167222Y-167778D01*
X167033Y-167585D01*
X166850Y-167387D01*
X166671Y-167185D01*
X166497Y-166978D01*
X166328Y-166768D01*
X166165Y-166553D01*
X166007Y-166334D01*
X165854Y-166111D01*
X165707Y-165885D01*
X165565Y-165655D01*
X165429Y-165422D01*
X165299Y-165185D01*
X165175Y-164946D01*
X165056Y-164703D01*
X164944Y-164458D01*
X164837Y-164210D01*
X164737Y-163959D01*
X164643Y-163706D01*
X164555Y-163450D01*
X164474Y-163193D01*
X164398Y-162934D01*
X164330Y-162673D01*
X164267Y-162410D01*
X164211Y-162146D01*
X164162Y-161881D01*
X164119Y-161614D01*
X164083Y-161347D01*
X164053Y-161078D01*
X164030Y-160809D01*
X164013Y-160540D01*
X164003Y-160270D01*
X164000Y-160000D01*
X200000Y-180000D02*
X199994Y-180483D01*
X199977Y-180966D01*
X199947Y-181449D01*
X199907Y-181930D01*
X199854Y-182411D01*
X199790Y-182890D01*
X199715Y-183367D01*
X199627Y-183843D01*
X199529Y-184316D01*
X199419Y-184786D01*
X199298Y-185254D01*
X199165Y-185719D01*
X199021Y-186180D01*
X198866Y-186638D01*
X198700Y-187092D01*
X198523Y-187542D01*
X198336Y-187987D01*
X198137Y-188428D01*
X197929Y-188864D01*
X197709Y-189294D01*
X197479Y-189720D01*
X197239Y-190139D01*
X196989Y-190553D01*
X196729Y-190960D01*
X196460Y-191361D01*
X196180Y-191756D01*
X195892Y-192143D01*
X195593Y-192524D01*
X195286Y-192897D01*
X194970Y-193262D01*
X194645Y-193620D01*
X194312Y-193970D01*
X193970Y-194312D01*
X193620Y-194645D01*
X193262Y-194970D01*
X192897Y-195286D01*
X192524Y-195593D01*
X192143Y-195892D01*
X191756Y-196180D01*
X191361Y-196460D01*
X190960Y-196729D01*
X190553Y-196989D01*
X190139Y-197239D01*
X189720Y-197479D01*
X189294Y-197709D01*
X188864Y-197929D01*
X188428Y-198137D01*
X187987Y-198336D01*
X187542Y-198523D01*
X187092Y-198700D01*
X186638Y-198866D01*
X186180Y-199021D01*
X185719Y-199165D01*
X185254Y-199298D01*
X184786Y-199419D01*
X184316Y-199529D01*
X183843Y-199627D01*
X183367Y-199715D01*
X182890Y-199790D01*
X182411Y-199854D01*
X181930Y-199907D01*
X181449Y-199947D01*
X180966Y-199977D01*
X180483Y-199994D01*
X180000Y-200000D01*
X200000Y-180000D02*
X200000Y-20000D01*
X199994Y-19517D01*
X199977Y-19034D01*
X199947Y-18551D01*
X199907Y-18070D01*
X199854Y-17589D01*
X199790Y-17110D01*
X199715Y-16633D01*
X199627Y-16157D01*
X199529Y-15684D01*
X199419Y-15214D01*
X199298Y-14746D01*
X199165Y-14281D01*
X199021Y-13820D01*
X198866Y-13362D01*
X198700Y-12908D01*
X198523Y-12458D01*
X198336Y-12013D01*
X198137Y-11572D01*
X197929Y-11136D01*
X197709Y-10706D01*
X197479Y-10280D01*
X197239Y-9861D01*
X196989Y-9447D01*
X196729Y-9040D01*
X196460Y-8639D01*
X196180Y-8244D01*
X195892Y-7857D01*
X195593Y-7476D01*
X195286Y-7103D01*
X194970Y-6738D01*
X194645Y-6380D01*
X194312Y-6030D01*
X193970Y-5688D01*
X193620Y-5355D01*
X193262Y-5030D01*
X192897Y-4714D01*
X192524Y-4407D01*
X192143Y-4108D01*
X191756Y-3820D01*
X191361Y-3540D01*
X190960Y-3271D01*
X190553Y-3011D01*
X190139Y-2761D01*
X189720Y-2521D01*
X189294Y-2291D01*
X188864Y-2071D01*
X188428Y-1863D01*
X187987Y-1664D01*
X187542Y-1477D01*
X187092Y-1300D01*
X186638Y-1134D01*
X186180Y-979D01*
X185719Y-835D01*
X185254Y-702D01*
X184786Y-581D01*
X184316Y-471D01*
X183843Y-373D01*
X183367Y-285D01*
X182890Y-210D01*
X182411Y-146D01*
X181930Y-93D01*
X181449Y-53D01*
X180966Y-23D01*
X180483Y-6D01*
X180000Y0D01*
X-180000Y0D01*
X-180483Y-6D01*
X-180966Y-23D01*
X-181449Y-53D01*
X-181930Y-93D01*
X-182411Y-146D01*
X-182890Y-210D01*
X-183367Y-285D01*
X-183843Y-373D01*
X-184316Y-471D01*
X-184786Y-581D01*
X-185254Y-702D01*
X-185719Y-835D01*
X-186180Y-979D01*
X-186638Y-1134D01*
X-187092Y-1300D01*
X-187542Y-1477D01*
X-187987Y-1664D01*
X-188428Y-1863D01*
X-188864Y-2071D01*
X-189294Y-2291D01*
X-189720Y-2521D01*
X-190139Y-2761D01*
X-190553Y-3011D01*
X-190960Y-3271D01*
X-191361Y-3540D01*
X-191756Y-3820D01*
X-192143Y-4108D01*
X-192524Y-4407D01*
X-192897Y-4714D01*
X-193262Y-5030D01*
X-193620Y-5355D01*
X-193970Y-5688D01*
X-194312Y-6030D01*
X-194645Y-6380D01*
X-194970Y-6738D01*
X-195286Y-7103D01*
X-195593Y-7476D01*
X-195892Y-7857D01*
X-196180Y-8244D01*
X-196460Y-8639D01*
X-196729Y-9040D01*
X-196989Y-9447D01*
X-197239Y-9861D01*
X-197479Y-10280D01*
X-197709Y-10706D01*
X-197929Y-11136D01*
X-198137Y-11572D01*
X-198336Y-12013D01*
X-198523Y-12458D01*
X-198700Y-12908D01*
X-198866Y-13362D01*
X-199021Y-13820D01*
X-199165Y-14281D01*
X-199298Y-14746D01*
X-199419Y-15214D01*
X-199529Y-15684D01*
X-199627Y-16157D01*
X-199715Y-16633D01*
X-199790Y-17110D01*
X-199854Y-17589D01*
X-199907Y-18070D01*
X-199947Y-18551D01*
X-199977Y-19034D01*
X-199994Y-19517D01*
X-200000Y-20000D01*
X-200000Y-180000D01*
X-199994Y-180483D01*
X-199977Y-180966D01*
X-199947Y-181449D01*
X-199907Y-181930D01*
X-199854Y-182411D01*
X-199790Y-182890D01*
X-199715Y-183367D01*
X-199627Y-183843D01*
X-199529Y-184316D01*
X-199419Y-184786D01*
X-199298Y-185254D01*
X-199165Y-185719D01*
X-199021Y-186180D01*
X-198866Y-186638D01*
X-198700Y-187092D01*
X-198523Y-187542D01*
X-198336Y-187987D01*
X-198137Y-188428D01*
X-197929Y-188864D01*
X-197709Y-189294D01*
X-197479Y-189720D01*
X-197239Y-190139D01*
X-196989Y-190553D01*
X-196729Y-190960D01*
X-196460Y-191361D01*
X-196180Y-191756D01*
X-195892Y-192143D01*
X-195593Y-192524D01*
X-195286Y-192897D01*
X-194970Y-193262D01*
X-194645Y-193620D01*
X-194312Y-193970D01*
X-193970Y-194312D01*
X-193620Y-194645D01*
X-193262Y-194970D01*
X-192897Y-195286D01*
X-192524Y-195593D01*
X-192143Y-195892D01*
X-191756Y-196180D01*
X-191361Y-196460D01*
X-190960Y-196729D01*
X-190553Y-196989D01*
X-190139Y-197239D01*
X-189720Y-197479D01*
X-189294Y-197709D01*
X-188864Y-197929D01*
X-188428Y-198137D01*
X-187987Y-198336D01*
X-187542Y-198523D01*
X-187092Y-198700D01*
X-186638Y-198866D01*
X-186180Y-199021D01*
X-185719Y-199165D01*
X-185254Y-199298D01*
X-184786Y-199419D01*
X-184316Y-199529D01*
X-183843Y-199627D01*
X-183367Y-199715D01*
X-182890Y-199790D01*
X-182411Y-199854D01*
X-181930Y-199907D01*
X-181449Y-199947D01*
X-180966Y-199977D01*
X-180483Y-199994D01*
X-180000Y-200000D01*
X180000Y-200000D01*
D11*
X-200000Y-180000D02*
X-199924Y-181743D01*
X-199696Y-183473D01*
X-199319Y-185176D01*
X-198794Y-186840D01*
X-198126Y-188452D01*
X-197321Y-190000D01*
X-196383Y-191472D01*
X-195321Y-192856D01*
X-194142Y-194142D01*
X-192856Y-195321D01*
X-191472Y-196383D01*
X-190000Y-197321D01*
X-188452Y-198126D01*
X-186840Y-198794D01*
X-185176Y-199319D01*
X-183473Y-199696D01*
X-181743Y-199924D01*
X-180000Y-200000D01*
X180000Y-200000D01*
X181743Y-199924D01*
X183473Y-199696D01*
X185176Y-199319D01*
X186840Y-198794D01*
X188452Y-198126D01*
X190000Y-197321D01*
X191472Y-196383D01*
X192856Y-195321D01*
X194142Y-194142D01*
X195321Y-192856D01*
X196383Y-191472D01*
X197321Y-190000D01*
X198126Y-188452D01*
X198794Y-186840D01*
X199319Y-185176D01*
X199696Y-183473D01*
X199924Y-181743D01*
X200000Y-180000D01*
X200000Y-20000D01*
X199924Y-18257D01*
X199696Y-16527D01*
X199319Y-14824D01*
X198794Y-13160D01*
X198126Y-11548D01*
X197321Y-10000D01*
X196383Y-8528D01*
X195321Y-7144D01*
X194142Y-5858D01*
X192856Y-4679D01*
X191472Y-3617D01*
X190000Y-2680D01*
X188452Y-1874D01*
X186840Y-1206D01*
X185176Y-681D01*
X183473Y-304D01*
X181743Y-76D01*
X180000Y0D01*
X-180000Y0D01*
X-181743Y-76D01*
X-183473Y-304D01*
X-185176Y-681D01*
X-186840Y-1206D01*
X-188452Y-1874D01*
X-190000Y-2680D01*
X-191472Y-3617D01*
X-192856Y-4679D01*
X-194142Y-5858D01*
X-195321Y-7144D01*
X-196383Y-8528D01*
X-197321Y-10000D01*
X-198126Y-11548D01*
X-198794Y-13160D01*
X-199319Y-14824D01*
X-199696Y-16527D01*
X-199924Y-18257D01*
X-200000Y-20000D01*
X-200000Y-180000D01*
M02*
