G04 EAGLE Gerber RS-274X export*
G75*
%MOMM*%
%FSLAX34Y34*%
%LPD*%
%INSilkscreen Bottom*%
%IPPOS*%
%AMOC8*
5,1,8,0,0,1.08239X$1,22.5*%
G01*
G04 Define Apertures*
%ADD10C,0.152400*%
G36*
X-53179Y-69317D02*
X-53581Y-69250D01*
X-53956Y-69155D01*
X-54307Y-69032D01*
X-54632Y-68880D01*
X-54932Y-68700D01*
X-55207Y-68492D01*
X-55456Y-68255D01*
X-55680Y-67990D01*
X-55878Y-67699D01*
X-56050Y-67384D01*
X-56195Y-67046D01*
X-56314Y-66684D01*
X-56406Y-66298D01*
X-56472Y-65889D01*
X-56512Y-65456D01*
X-56525Y-64999D01*
X-56511Y-64510D01*
X-56467Y-64050D01*
X-56393Y-63619D01*
X-56291Y-63217D01*
X-56159Y-62843D01*
X-55998Y-62499D01*
X-55808Y-62184D01*
X-55588Y-61898D01*
X-55342Y-61644D01*
X-55071Y-61423D01*
X-54777Y-61237D01*
X-54458Y-61084D01*
X-54116Y-60965D01*
X-53749Y-60880D01*
X-53358Y-60829D01*
X-52943Y-60812D01*
X-52654Y-60824D01*
X-52377Y-60860D01*
X-52113Y-60921D01*
X-51861Y-61005D01*
X-51622Y-61113D01*
X-51396Y-61246D01*
X-51182Y-61402D01*
X-50981Y-61583D01*
X-50796Y-61785D01*
X-50631Y-62007D01*
X-50485Y-62247D01*
X-50359Y-62507D01*
X-50253Y-62786D01*
X-50166Y-63084D01*
X-50100Y-63401D01*
X-50053Y-63738D01*
X-50018Y-63738D01*
X-49944Y-63432D01*
X-49856Y-63145D01*
X-49753Y-62876D01*
X-49636Y-62626D01*
X-49503Y-62395D01*
X-49355Y-62183D01*
X-49192Y-61990D01*
X-49015Y-61815D01*
X-48823Y-61660D01*
X-48617Y-61526D01*
X-48397Y-61412D01*
X-48164Y-61319D01*
X-47917Y-61247D01*
X-47656Y-61195D01*
X-47381Y-61164D01*
X-47092Y-61154D01*
X-46717Y-61170D01*
X-46364Y-61218D01*
X-46032Y-61299D01*
X-45720Y-61411D01*
X-45431Y-61556D01*
X-45162Y-61733D01*
X-44914Y-61942D01*
X-44688Y-62183D01*
X-44486Y-62453D01*
X-44311Y-62749D01*
X-44162Y-63071D01*
X-44041Y-63419D01*
X-43947Y-63793D01*
X-43879Y-64192D01*
X-43839Y-64618D01*
X-43825Y-65069D01*
X-43839Y-65484D01*
X-43878Y-65880D01*
X-43945Y-66257D01*
X-44038Y-66614D01*
X-44157Y-66952D01*
X-44303Y-67270D01*
X-44476Y-67570D01*
X-44675Y-67850D01*
X-44898Y-68106D01*
X-45141Y-68334D01*
X-45406Y-68534D01*
X-45691Y-68705D01*
X-45997Y-68848D01*
X-46324Y-68962D01*
X-46671Y-69049D01*
X-47040Y-69107D01*
X-47162Y-67521D01*
X-46926Y-67487D01*
X-46704Y-67435D01*
X-46495Y-67367D01*
X-46300Y-67282D01*
X-46118Y-67180D01*
X-45950Y-67061D01*
X-45796Y-66925D01*
X-45656Y-66773D01*
X-45531Y-66605D01*
X-45422Y-66426D01*
X-45330Y-66234D01*
X-45255Y-66029D01*
X-45197Y-65812D01*
X-45155Y-65583D01*
X-45130Y-65341D01*
X-45122Y-65086D01*
X-45131Y-64808D01*
X-45157Y-64548D01*
X-45202Y-64305D01*
X-45265Y-64080D01*
X-45346Y-63873D01*
X-45444Y-63683D01*
X-45561Y-63511D01*
X-45695Y-63357D01*
X-45845Y-63220D01*
X-46008Y-63102D01*
X-46184Y-63002D01*
X-46373Y-62920D01*
X-46575Y-62856D01*
X-46790Y-62811D01*
X-47018Y-62783D01*
X-47259Y-62774D01*
X-47502Y-62785D01*
X-47731Y-62819D01*
X-47947Y-62875D01*
X-48149Y-62953D01*
X-48337Y-63053D01*
X-48513Y-63176D01*
X-48674Y-63321D01*
X-48822Y-63488D01*
X-48954Y-63676D01*
X-49069Y-63881D01*
X-49166Y-64105D01*
X-49246Y-64347D01*
X-49308Y-64608D01*
X-49352Y-64886D01*
X-49378Y-65183D01*
X-49387Y-65498D01*
X-49387Y-66356D01*
X-50753Y-66356D01*
X-50753Y-65463D01*
X-50762Y-65108D01*
X-50789Y-64775D01*
X-50833Y-64463D01*
X-50895Y-64172D01*
X-50974Y-63903D01*
X-51071Y-63656D01*
X-51186Y-63430D01*
X-51318Y-63225D01*
X-51466Y-63044D01*
X-51628Y-62886D01*
X-51804Y-62753D01*
X-51994Y-62644D01*
X-52197Y-62559D01*
X-52414Y-62499D01*
X-52646Y-62462D01*
X-52890Y-62450D01*
X-53171Y-62461D01*
X-53433Y-62493D01*
X-53677Y-62546D01*
X-53904Y-62620D01*
X-54113Y-62715D01*
X-54304Y-62832D01*
X-54478Y-62970D01*
X-54633Y-63129D01*
X-54771Y-63307D01*
X-54890Y-63500D01*
X-54991Y-63710D01*
X-55073Y-63936D01*
X-55138Y-64178D01*
X-55184Y-64435D01*
X-55211Y-64709D01*
X-55220Y-64999D01*
X-55212Y-65288D01*
X-55186Y-65560D01*
X-55143Y-65817D01*
X-55083Y-66057D01*
X-55006Y-66281D01*
X-54912Y-66490D01*
X-54801Y-66682D01*
X-54673Y-66858D01*
X-54527Y-67018D01*
X-54365Y-67162D01*
X-54185Y-67290D01*
X-53989Y-67401D01*
X-53775Y-67497D01*
X-53544Y-67577D01*
X-53296Y-67640D01*
X-53031Y-67688D01*
X-53179Y-69317D01*
G37*
G36*
X-53179Y-50379D02*
X-53581Y-50313D01*
X-53956Y-50218D01*
X-54307Y-50094D01*
X-54632Y-49943D01*
X-54932Y-49763D01*
X-55207Y-49554D01*
X-55456Y-49317D01*
X-55680Y-49052D01*
X-55878Y-48761D01*
X-56050Y-48447D01*
X-56195Y-48108D01*
X-56314Y-47746D01*
X-56406Y-47361D01*
X-56472Y-46951D01*
X-56512Y-46518D01*
X-56525Y-46061D01*
X-56511Y-45572D01*
X-56467Y-45112D01*
X-56393Y-44681D01*
X-56291Y-44279D01*
X-56159Y-43906D01*
X-55998Y-43562D01*
X-55808Y-43247D01*
X-55588Y-42961D01*
X-55342Y-42706D01*
X-55071Y-42486D01*
X-54777Y-42299D01*
X-54458Y-42146D01*
X-54116Y-42028D01*
X-53749Y-41943D01*
X-53358Y-41892D01*
X-52943Y-41875D01*
X-52654Y-41887D01*
X-52377Y-41923D01*
X-52113Y-41983D01*
X-51861Y-42068D01*
X-51622Y-42176D01*
X-51396Y-42308D01*
X-51182Y-42465D01*
X-50981Y-42646D01*
X-50796Y-42848D01*
X-50631Y-43069D01*
X-50485Y-43310D01*
X-50359Y-43570D01*
X-50253Y-43849D01*
X-50166Y-44147D01*
X-50100Y-44464D01*
X-50053Y-44800D01*
X-50018Y-44800D01*
X-49944Y-44494D01*
X-49856Y-44207D01*
X-49753Y-43939D01*
X-49636Y-43689D01*
X-49503Y-43458D01*
X-49355Y-43246D01*
X-49192Y-43052D01*
X-49015Y-42878D01*
X-48823Y-42723D01*
X-48617Y-42588D01*
X-48397Y-42475D01*
X-48164Y-42382D01*
X-47917Y-42309D01*
X-47656Y-42258D01*
X-47381Y-42227D01*
X-47092Y-42216D01*
X-46717Y-42232D01*
X-46364Y-42281D01*
X-46032Y-42361D01*
X-45720Y-42474D01*
X-45431Y-42618D01*
X-45162Y-42795D01*
X-44914Y-43004D01*
X-44688Y-43246D01*
X-44486Y-43516D01*
X-44311Y-43812D01*
X-44162Y-44134D01*
X-44041Y-44482D01*
X-43947Y-44855D01*
X-43879Y-45255D01*
X-43839Y-45680D01*
X-43825Y-46131D01*
X-43839Y-46547D01*
X-43878Y-46942D01*
X-43945Y-47319D01*
X-44038Y-47676D01*
X-44157Y-48014D01*
X-44303Y-48333D01*
X-44476Y-48632D01*
X-44675Y-48912D01*
X-44898Y-49169D01*
X-45141Y-49396D01*
X-45406Y-49596D01*
X-45691Y-49767D01*
X-45997Y-49910D01*
X-46324Y-50025D01*
X-46671Y-50111D01*
X-47040Y-50169D01*
X-47162Y-48584D01*
X-46926Y-48549D01*
X-46704Y-48498D01*
X-46495Y-48429D01*
X-46300Y-48344D01*
X-46118Y-48242D01*
X-45950Y-48123D01*
X-45796Y-47988D01*
X-45656Y-47835D01*
X-45531Y-47668D01*
X-45422Y-47488D01*
X-45330Y-47296D01*
X-45255Y-47092D01*
X-45197Y-46875D01*
X-45155Y-46645D01*
X-45130Y-46403D01*
X-45122Y-46149D01*
X-45131Y-45871D01*
X-45157Y-45611D01*
X-45202Y-45368D01*
X-45265Y-45143D01*
X-45346Y-44935D01*
X-45444Y-44746D01*
X-45561Y-44574D01*
X-45695Y-44419D01*
X-45845Y-44283D01*
X-46008Y-44164D01*
X-46184Y-44064D01*
X-46373Y-43982D01*
X-46575Y-43919D01*
X-46790Y-43873D01*
X-47018Y-43846D01*
X-47259Y-43837D01*
X-47502Y-43848D01*
X-47731Y-43881D01*
X-47947Y-43937D01*
X-48149Y-44015D01*
X-48337Y-44116D01*
X-48513Y-44238D01*
X-48674Y-44383D01*
X-48822Y-44551D01*
X-48954Y-44738D01*
X-49069Y-44944D01*
X-49166Y-45168D01*
X-49246Y-45410D01*
X-49308Y-45670D01*
X-49352Y-45949D01*
X-49378Y-46246D01*
X-49387Y-46561D01*
X-49387Y-47419D01*
X-50753Y-47419D01*
X-50753Y-46526D01*
X-50762Y-46171D01*
X-50789Y-45837D01*
X-50833Y-45525D01*
X-50895Y-45235D01*
X-50974Y-44966D01*
X-51071Y-44718D01*
X-51186Y-44492D01*
X-51318Y-44288D01*
X-51466Y-44106D01*
X-51628Y-43949D01*
X-51804Y-43815D01*
X-51994Y-43706D01*
X-52197Y-43622D01*
X-52414Y-43561D01*
X-52646Y-43525D01*
X-52890Y-43513D01*
X-53171Y-43523D01*
X-53433Y-43555D01*
X-53677Y-43608D01*
X-53904Y-43682D01*
X-54113Y-43778D01*
X-54304Y-43894D01*
X-54478Y-44032D01*
X-54633Y-44191D01*
X-54771Y-44369D01*
X-54890Y-44563D01*
X-54991Y-44773D01*
X-55073Y-44998D01*
X-55138Y-45240D01*
X-55184Y-45498D01*
X-55211Y-45772D01*
X-55220Y-46061D01*
X-55212Y-46350D01*
X-55186Y-46623D01*
X-55143Y-46879D01*
X-55083Y-47120D01*
X-55006Y-47344D01*
X-54912Y-47552D01*
X-54801Y-47744D01*
X-54673Y-47920D01*
X-54527Y-48080D01*
X-54365Y-48224D01*
X-54185Y-48352D01*
X-53989Y-48464D01*
X-53775Y-48560D01*
X-53544Y-48639D01*
X-53296Y-48703D01*
X-53031Y-48750D01*
X-53179Y-50379D01*
G37*
G36*
X-46873Y-59970D02*
X-56350Y-56528D01*
X-56350Y-54662D01*
X-46873Y-51124D01*
X-46873Y-52797D01*
X-53057Y-54951D01*
X-54090Y-55293D01*
X-55115Y-55599D01*
X-53039Y-56204D01*
X-46873Y-58288D01*
X-46873Y-59970D01*
G37*
G36*
X-33390Y-69185D02*
X-33769Y-69081D01*
X-34125Y-68947D01*
X-34455Y-68783D01*
X-34761Y-68589D01*
X-35043Y-68366D01*
X-35300Y-68114D01*
X-35533Y-67831D01*
X-35741Y-67519D01*
X-35925Y-67178D01*
X-36084Y-66806D01*
X-36219Y-66405D01*
X-36329Y-65975D01*
X-36415Y-65515D01*
X-36476Y-65025D01*
X-36513Y-64506D01*
X-36525Y-63957D01*
X-36511Y-63367D01*
X-36467Y-62812D01*
X-36393Y-62290D01*
X-36291Y-61803D01*
X-36159Y-61350D01*
X-35998Y-60931D01*
X-35808Y-60546D01*
X-35588Y-60195D01*
X-35342Y-59882D01*
X-35071Y-59610D01*
X-34777Y-59381D01*
X-34458Y-59193D01*
X-34116Y-59047D01*
X-33749Y-58943D01*
X-33358Y-58880D01*
X-32943Y-58859D01*
X-32617Y-58871D01*
X-32312Y-58906D01*
X-32030Y-58965D01*
X-31769Y-59047D01*
X-31528Y-59151D01*
X-31303Y-59272D01*
X-31094Y-59411D01*
X-30902Y-59569D01*
X-30725Y-59742D01*
X-30563Y-59931D01*
X-30414Y-60134D01*
X-30280Y-60352D01*
X-30043Y-60820D01*
X-29838Y-61320D01*
X-29663Y-61849D01*
X-29514Y-62402D01*
X-29247Y-63536D01*
X-29066Y-64315D01*
X-28900Y-64953D01*
X-28748Y-65449D01*
X-28612Y-65805D01*
X-28476Y-66073D01*
X-28325Y-66307D01*
X-28160Y-66508D01*
X-27981Y-66676D01*
X-27783Y-66808D01*
X-27560Y-66903D01*
X-27312Y-66959D01*
X-27040Y-66978D01*
X-26804Y-66966D01*
X-26584Y-66930D01*
X-26378Y-66869D01*
X-26188Y-66783D01*
X-26013Y-66674D01*
X-25852Y-66540D01*
X-25707Y-66382D01*
X-25577Y-66199D01*
X-25462Y-65993D01*
X-25362Y-65765D01*
X-25278Y-65516D01*
X-25209Y-65244D01*
X-25156Y-64951D01*
X-25117Y-64635D01*
X-25094Y-64298D01*
X-25087Y-63939D01*
X-25093Y-63611D01*
X-25114Y-63301D01*
X-25149Y-63010D01*
X-25197Y-62737D01*
X-25259Y-62482D01*
X-25335Y-62246D01*
X-25425Y-62028D01*
X-25529Y-61828D01*
X-25648Y-61645D01*
X-25784Y-61478D01*
X-25936Y-61326D01*
X-26106Y-61189D01*
X-26292Y-61067D01*
X-26495Y-60961D01*
X-26715Y-60870D01*
X-26952Y-60795D01*
X-26663Y-59148D01*
X-26290Y-59270D01*
X-25945Y-59413D01*
X-25628Y-59577D01*
X-25339Y-59761D01*
X-25079Y-59967D01*
X-24848Y-60193D01*
X-24644Y-60440D01*
X-24469Y-60707D01*
X-24318Y-61001D01*
X-24187Y-61325D01*
X-24077Y-61681D01*
X-23986Y-62067D01*
X-23916Y-62484D01*
X-23866Y-62932D01*
X-23835Y-63412D01*
X-23825Y-63922D01*
X-23839Y-64470D01*
X-23879Y-64986D01*
X-23946Y-65469D01*
X-24040Y-65920D01*
X-24161Y-66337D01*
X-24308Y-66722D01*
X-24482Y-67075D01*
X-24684Y-67394D01*
X-24910Y-67679D01*
X-25158Y-67925D01*
X-25430Y-68134D01*
X-25724Y-68304D01*
X-26041Y-68437D01*
X-26380Y-68532D01*
X-26742Y-68588D01*
X-27127Y-68607D01*
X-27463Y-68593D01*
X-27780Y-68549D01*
X-28076Y-68477D01*
X-28353Y-68375D01*
X-28612Y-68246D01*
X-28854Y-68092D01*
X-29079Y-67911D01*
X-29286Y-67705D01*
X-29481Y-67466D01*
X-29666Y-67187D01*
X-29842Y-66869D01*
X-30009Y-66510D01*
X-30171Y-66087D01*
X-30333Y-65576D01*
X-30495Y-64977D01*
X-30657Y-64289D01*
X-31016Y-62757D01*
X-31104Y-62423D01*
X-31202Y-62113D01*
X-31310Y-61827D01*
X-31428Y-61566D01*
X-31559Y-61330D01*
X-31706Y-61122D01*
X-31869Y-60942D01*
X-32050Y-60790D01*
X-32252Y-60670D01*
X-32483Y-60584D01*
X-32743Y-60532D01*
X-33031Y-60515D01*
X-33292Y-60528D01*
X-33537Y-60570D01*
X-33765Y-60638D01*
X-33978Y-60735D01*
X-34174Y-60858D01*
X-34353Y-61010D01*
X-34517Y-61188D01*
X-34664Y-61395D01*
X-34794Y-61626D01*
X-34907Y-61881D01*
X-35003Y-62159D01*
X-35081Y-62460D01*
X-35142Y-62784D01*
X-35185Y-63131D01*
X-35211Y-63502D01*
X-35220Y-63895D01*
X-35212Y-64277D01*
X-35188Y-64638D01*
X-35147Y-64979D01*
X-35090Y-65299D01*
X-35017Y-65598D01*
X-34927Y-65877D01*
X-34821Y-66136D01*
X-34699Y-66374D01*
X-34560Y-66592D01*
X-34402Y-66790D01*
X-34225Y-66968D01*
X-34030Y-67127D01*
X-33817Y-67266D01*
X-33585Y-67386D01*
X-33334Y-67485D01*
X-33066Y-67565D01*
X-33390Y-69185D01*
G37*
G36*
X-30123Y-57120D02*
X-30607Y-57109D01*
X-31075Y-57076D01*
X-31526Y-57020D01*
X-31961Y-56942D01*
X-32379Y-56842D01*
X-32781Y-56719D01*
X-33166Y-56574D01*
X-33534Y-56407D01*
X-33884Y-56218D01*
X-34213Y-56009D01*
X-34521Y-55780D01*
X-34809Y-55531D01*
X-35075Y-55261D01*
X-35321Y-54971D01*
X-35546Y-54661D01*
X-35750Y-54331D01*
X-35932Y-53982D01*
X-36089Y-53618D01*
X-36222Y-53239D01*
X-36331Y-52843D01*
X-36416Y-52432D01*
X-36477Y-52005D01*
X-36513Y-51562D01*
X-36525Y-51103D01*
X-36512Y-50655D01*
X-36473Y-50220D01*
X-36408Y-49799D01*
X-36317Y-49392D01*
X-36200Y-48999D01*
X-36057Y-48619D01*
X-35888Y-48254D01*
X-35693Y-47902D01*
X-35473Y-47567D01*
X-35229Y-47251D01*
X-34962Y-46954D01*
X-34671Y-46677D01*
X-34355Y-46419D01*
X-34016Y-46180D01*
X-33654Y-45961D01*
X-33267Y-45761D01*
X-32584Y-47127D01*
X-32895Y-47295D01*
X-33185Y-47473D01*
X-33456Y-47662D01*
X-33707Y-47860D01*
X-33937Y-48068D01*
X-34148Y-48287D01*
X-34338Y-48515D01*
X-34509Y-48754D01*
X-34659Y-49002D01*
X-34789Y-49261D01*
X-34899Y-49530D01*
X-34990Y-49809D01*
X-35060Y-50098D01*
X-35110Y-50396D01*
X-35140Y-50705D01*
X-35150Y-51024D01*
X-35129Y-51517D01*
X-35064Y-51984D01*
X-34956Y-52424D01*
X-34805Y-52839D01*
X-34611Y-53227D01*
X-34374Y-53589D01*
X-34094Y-53925D01*
X-33771Y-54234D01*
X-33412Y-54513D01*
X-33025Y-54754D01*
X-32611Y-54958D01*
X-32169Y-55125D01*
X-31699Y-55254D01*
X-31201Y-55347D01*
X-30676Y-55403D01*
X-30123Y-55421D01*
X-29564Y-55403D01*
X-29036Y-55350D01*
X-28539Y-55261D01*
X-28072Y-55137D01*
X-27636Y-54976D01*
X-27230Y-54781D01*
X-26855Y-54549D01*
X-26510Y-54283D01*
X-26201Y-53984D01*
X-25933Y-53656D01*
X-25707Y-53301D01*
X-25521Y-52916D01*
X-25377Y-52504D01*
X-25274Y-52062D01*
X-25212Y-51593D01*
X-25192Y-51095D01*
X-25201Y-50774D01*
X-25227Y-50464D01*
X-25272Y-50166D01*
X-25334Y-49878D01*
X-25414Y-49602D01*
X-25512Y-49337D01*
X-25628Y-49082D01*
X-25761Y-48839D01*
X-25911Y-48610D01*
X-26077Y-48397D01*
X-26259Y-48200D01*
X-26457Y-48019D01*
X-26671Y-47855D01*
X-26901Y-47707D01*
X-27146Y-47575D01*
X-27408Y-47460D01*
X-26882Y-45874D01*
X-26515Y-46041D01*
X-26171Y-46229D01*
X-25850Y-46439D01*
X-25553Y-46671D01*
X-25279Y-46925D01*
X-25028Y-47201D01*
X-24800Y-47499D01*
X-24596Y-47819D01*
X-24415Y-48160D01*
X-24259Y-48521D01*
X-24126Y-48902D01*
X-24018Y-49303D01*
X-23934Y-49725D01*
X-23873Y-50167D01*
X-23837Y-50629D01*
X-23825Y-51112D01*
X-23832Y-51460D01*
X-23851Y-51798D01*
X-23884Y-52127D01*
X-23930Y-52446D01*
X-23989Y-52755D01*
X-24061Y-53055D01*
X-24146Y-53345D01*
X-24244Y-53626D01*
X-24355Y-53897D01*
X-24479Y-54158D01*
X-24616Y-54410D01*
X-24766Y-54653D01*
X-25106Y-55109D01*
X-25498Y-55526D01*
X-25936Y-55900D01*
X-26415Y-56224D01*
X-26933Y-56498D01*
X-27207Y-56616D01*
X-27491Y-56722D01*
X-27785Y-56815D01*
X-28089Y-56896D01*
X-28403Y-56965D01*
X-28727Y-57021D01*
X-29061Y-57064D01*
X-29405Y-57095D01*
X-29759Y-57114D01*
X-30123Y-57120D01*
G37*
G36*
X-24009Y-43591D02*
X-36350Y-43591D01*
X-36350Y-35682D01*
X-34984Y-35682D01*
X-34984Y-41918D01*
X-24009Y-41918D01*
X-24009Y-43591D01*
G37*
G36*
X-4009Y-56560D02*
X-16350Y-56560D01*
X-16350Y-51944D01*
X-16338Y-51504D01*
X-16302Y-51077D01*
X-16243Y-50663D01*
X-16160Y-50262D01*
X-16052Y-49875D01*
X-15921Y-49500D01*
X-15767Y-49139D01*
X-15588Y-48791D01*
X-15387Y-48459D01*
X-15165Y-48147D01*
X-14922Y-47854D01*
X-14659Y-47580D01*
X-14374Y-47326D01*
X-14068Y-47091D01*
X-13742Y-46876D01*
X-13394Y-46680D01*
X-13029Y-46506D01*
X-12648Y-46354D01*
X-12253Y-46227D01*
X-11843Y-46122D01*
X-11418Y-46040D01*
X-10977Y-45982D01*
X-10523Y-45947D01*
X-10053Y-45936D01*
X-9695Y-45942D01*
X-9349Y-45962D01*
X-9012Y-45996D01*
X-8686Y-46042D01*
X-8370Y-46102D01*
X-8065Y-46175D01*
X-7770Y-46262D01*
X-7485Y-46362D01*
X-7211Y-46475D01*
X-6947Y-46601D01*
X-6694Y-46741D01*
X-6450Y-46894D01*
X-6218Y-47060D01*
X-5995Y-47240D01*
X-5783Y-47433D01*
X-5581Y-47639D01*
X-5391Y-47858D01*
X-5213Y-48088D01*
X-5047Y-48328D01*
X-4894Y-48581D01*
X-4752Y-48844D01*
X-4623Y-49118D01*
X-4507Y-49404D01*
X-4402Y-49701D01*
X-4310Y-50009D01*
X-4230Y-50328D01*
X-4163Y-50658D01*
X-4108Y-51000D01*
X-4065Y-51353D01*
X-4034Y-51717D01*
X-4015Y-52092D01*
X-4009Y-52478D01*
X-4009Y-56560D01*
G37*
%LPC*%
G36*
X-5349Y-54887D02*
X-5349Y-52513D01*
X-5368Y-51935D01*
X-5425Y-51393D01*
X-5519Y-50885D01*
X-5650Y-50412D01*
X-5820Y-49975D01*
X-6027Y-49573D01*
X-6271Y-49206D01*
X-6554Y-48874D01*
X-6872Y-48580D01*
X-7224Y-48324D01*
X-7610Y-48108D01*
X-8031Y-47932D01*
X-8485Y-47794D01*
X-8973Y-47696D01*
X-9496Y-47637D01*
X-10053Y-47617D01*
X-10427Y-47626D01*
X-10789Y-47652D01*
X-11139Y-47695D01*
X-11476Y-47755D01*
X-11800Y-47833D01*
X-12112Y-47928D01*
X-12411Y-48040D01*
X-12698Y-48169D01*
X-12970Y-48315D01*
X-13225Y-48475D01*
X-13465Y-48650D01*
X-13687Y-48840D01*
X-13894Y-49045D01*
X-14084Y-49265D01*
X-14257Y-49500D01*
X-14414Y-49750D01*
X-14554Y-50012D01*
X-14675Y-50285D01*
X-14777Y-50568D01*
X-14861Y-50861D01*
X-14926Y-51165D01*
X-14973Y-51479D01*
X-15001Y-51803D01*
X-15010Y-52137D01*
X-15010Y-54887D01*
X-5349Y-54887D01*
G37*
%LPD*%
G36*
X-16350Y-45027D02*
X-16350Y-43293D01*
X-12742Y-41874D01*
X-12742Y-36251D01*
X-16350Y-34841D01*
X-16350Y-33133D01*
X-4009Y-38091D01*
X-4009Y-39991D01*
X-16350Y-45027D01*
G37*
%LPC*%
G36*
X-11436Y-41366D02*
X-7381Y-39790D01*
X-6346Y-39413D01*
X-5516Y-39142D01*
X-5270Y-39063D01*
X-5997Y-38826D01*
X-6720Y-38581D01*
X-7364Y-38336D01*
X-11436Y-36751D01*
X-11436Y-41366D01*
G37*
%LPD*%
G36*
X-13390Y-69185D02*
X-13769Y-69081D01*
X-14125Y-68947D01*
X-14455Y-68783D01*
X-14761Y-68589D01*
X-15043Y-68366D01*
X-15300Y-68114D01*
X-15533Y-67831D01*
X-15741Y-67519D01*
X-15925Y-67178D01*
X-16084Y-66806D01*
X-16219Y-66405D01*
X-16329Y-65975D01*
X-16415Y-65515D01*
X-16476Y-65025D01*
X-16513Y-64506D01*
X-16525Y-63957D01*
X-16511Y-63367D01*
X-16467Y-62812D01*
X-16393Y-62290D01*
X-16291Y-61803D01*
X-16159Y-61350D01*
X-15998Y-60931D01*
X-15808Y-60546D01*
X-15588Y-60195D01*
X-15342Y-59882D01*
X-15071Y-59610D01*
X-14777Y-59381D01*
X-14458Y-59193D01*
X-14116Y-59047D01*
X-13749Y-58943D01*
X-13358Y-58880D01*
X-12943Y-58859D01*
X-12617Y-58871D01*
X-12312Y-58906D01*
X-12030Y-58965D01*
X-11769Y-59047D01*
X-11528Y-59151D01*
X-11303Y-59272D01*
X-11094Y-59411D01*
X-10902Y-59569D01*
X-10725Y-59742D01*
X-10563Y-59931D01*
X-10414Y-60134D01*
X-10280Y-60352D01*
X-10043Y-60820D01*
X-9838Y-61320D01*
X-9663Y-61849D01*
X-9514Y-62402D01*
X-9247Y-63536D01*
X-9066Y-64315D01*
X-8900Y-64953D01*
X-8748Y-65449D01*
X-8612Y-65805D01*
X-8476Y-66073D01*
X-8325Y-66307D01*
X-8160Y-66508D01*
X-7981Y-66676D01*
X-7783Y-66808D01*
X-7560Y-66903D01*
X-7312Y-66959D01*
X-7040Y-66978D01*
X-6804Y-66966D01*
X-6584Y-66930D01*
X-6378Y-66869D01*
X-6188Y-66783D01*
X-6013Y-66674D01*
X-5852Y-66540D01*
X-5707Y-66382D01*
X-5577Y-66199D01*
X-5462Y-65993D01*
X-5362Y-65765D01*
X-5278Y-65516D01*
X-5209Y-65244D01*
X-5156Y-64951D01*
X-5117Y-64635D01*
X-5094Y-64298D01*
X-5087Y-63939D01*
X-5093Y-63611D01*
X-5114Y-63301D01*
X-5149Y-63010D01*
X-5197Y-62737D01*
X-5259Y-62482D01*
X-5335Y-62246D01*
X-5425Y-62028D01*
X-5529Y-61828D01*
X-5648Y-61645D01*
X-5784Y-61478D01*
X-5936Y-61326D01*
X-6106Y-61189D01*
X-6292Y-61067D01*
X-6495Y-60961D01*
X-6715Y-60870D01*
X-6952Y-60795D01*
X-6663Y-59148D01*
X-6290Y-59270D01*
X-5945Y-59413D01*
X-5628Y-59577D01*
X-5339Y-59761D01*
X-5079Y-59967D01*
X-4848Y-60193D01*
X-4644Y-60440D01*
X-4469Y-60707D01*
X-4318Y-61001D01*
X-4187Y-61325D01*
X-4077Y-61681D01*
X-3986Y-62067D01*
X-3916Y-62484D01*
X-3866Y-62932D01*
X-3835Y-63412D01*
X-3825Y-63922D01*
X-3839Y-64470D01*
X-3879Y-64986D01*
X-3946Y-65469D01*
X-4040Y-65920D01*
X-4161Y-66337D01*
X-4308Y-66722D01*
X-4482Y-67075D01*
X-4684Y-67394D01*
X-4910Y-67679D01*
X-5158Y-67925D01*
X-5430Y-68134D01*
X-5724Y-68304D01*
X-6041Y-68437D01*
X-6380Y-68532D01*
X-6742Y-68588D01*
X-7127Y-68607D01*
X-7463Y-68593D01*
X-7780Y-68549D01*
X-8076Y-68477D01*
X-8353Y-68375D01*
X-8612Y-68246D01*
X-8854Y-68092D01*
X-9079Y-67911D01*
X-9286Y-67705D01*
X-9481Y-67466D01*
X-9666Y-67187D01*
X-9842Y-66869D01*
X-10009Y-66510D01*
X-10171Y-66087D01*
X-10333Y-65576D01*
X-10495Y-64977D01*
X-10657Y-64289D01*
X-11016Y-62757D01*
X-11104Y-62423D01*
X-11202Y-62113D01*
X-11310Y-61827D01*
X-11428Y-61566D01*
X-11559Y-61330D01*
X-11706Y-61122D01*
X-11869Y-60942D01*
X-12050Y-60790D01*
X-12252Y-60670D01*
X-12483Y-60584D01*
X-12743Y-60532D01*
X-13031Y-60515D01*
X-13292Y-60528D01*
X-13537Y-60570D01*
X-13765Y-60638D01*
X-13978Y-60735D01*
X-14174Y-60858D01*
X-14353Y-61010D01*
X-14517Y-61188D01*
X-14664Y-61395D01*
X-14794Y-61626D01*
X-14907Y-61881D01*
X-15003Y-62159D01*
X-15081Y-62460D01*
X-15142Y-62784D01*
X-15185Y-63131D01*
X-15211Y-63502D01*
X-15220Y-63895D01*
X-15212Y-64277D01*
X-15188Y-64638D01*
X-15147Y-64979D01*
X-15090Y-65299D01*
X-15017Y-65598D01*
X-14927Y-65877D01*
X-14821Y-66136D01*
X-14699Y-66374D01*
X-14560Y-66592D01*
X-14402Y-66790D01*
X-14225Y-66968D01*
X-14030Y-67127D01*
X-13817Y-67266D01*
X-13585Y-67386D01*
X-13334Y-67485D01*
X-13066Y-67565D01*
X-13390Y-69185D01*
G37*
G36*
X15991Y-41622D02*
X3650Y-41622D01*
X3650Y-37007D01*
X3662Y-36566D01*
X3698Y-36139D01*
X3757Y-35726D01*
X3840Y-35325D01*
X3948Y-34937D01*
X4079Y-34563D01*
X4233Y-34202D01*
X4412Y-33854D01*
X4613Y-33522D01*
X4835Y-33209D01*
X5078Y-32916D01*
X5341Y-32643D01*
X5626Y-32389D01*
X5932Y-32154D01*
X6258Y-31939D01*
X6606Y-31743D01*
X6971Y-31568D01*
X7352Y-31417D01*
X7747Y-31289D01*
X8157Y-31184D01*
X8582Y-31103D01*
X9023Y-31045D01*
X9478Y-31010D01*
X9947Y-30998D01*
X10305Y-31005D01*
X10651Y-31025D01*
X10988Y-31058D01*
X11314Y-31105D01*
X11630Y-31165D01*
X11935Y-31238D01*
X12230Y-31324D01*
X12515Y-31424D01*
X12789Y-31537D01*
X13053Y-31664D01*
X13306Y-31803D01*
X13550Y-31956D01*
X13782Y-32123D01*
X14005Y-32303D01*
X14217Y-32495D01*
X14419Y-32702D01*
X14609Y-32920D01*
X14787Y-33150D01*
X14953Y-33391D01*
X15106Y-33643D01*
X15248Y-33906D01*
X15377Y-34181D01*
X15493Y-34466D01*
X15598Y-34763D01*
X15690Y-35071D01*
X15770Y-35391D01*
X15837Y-35721D01*
X15893Y-36063D01*
X15936Y-36415D01*
X15966Y-36779D01*
X15985Y-37155D01*
X15991Y-37541D01*
X15991Y-41622D01*
G37*
%LPC*%
G36*
X14651Y-39949D02*
X14651Y-37576D01*
X14632Y-36998D01*
X14575Y-36455D01*
X14481Y-35947D01*
X14350Y-35475D01*
X14180Y-35038D01*
X13973Y-34635D01*
X13729Y-34269D01*
X13446Y-33937D01*
X13128Y-33642D01*
X12776Y-33387D01*
X12390Y-33171D01*
X11970Y-32994D01*
X11515Y-32857D01*
X11027Y-32758D01*
X10504Y-32700D01*
X9947Y-32680D01*
X9573Y-32688D01*
X9211Y-32714D01*
X8861Y-32757D01*
X8524Y-32818D01*
X8200Y-32895D01*
X7888Y-32990D01*
X7589Y-33102D01*
X7302Y-33232D01*
X7030Y-33377D01*
X6775Y-33537D01*
X6535Y-33713D01*
X6313Y-33903D01*
X6106Y-34108D01*
X5916Y-34328D01*
X5743Y-34563D01*
X5586Y-34813D01*
X5446Y-35075D01*
X5325Y-35348D01*
X5223Y-35631D01*
X5139Y-35924D01*
X5074Y-36227D01*
X5027Y-36541D01*
X4999Y-36865D01*
X4990Y-37199D01*
X4990Y-39949D01*
X14651Y-39949D01*
G37*
%LPD*%
G36*
X15991Y-54591D02*
X3650Y-54591D01*
X3650Y-53102D01*
X11848Y-53102D01*
X13311Y-53146D01*
X14160Y-53190D01*
X3650Y-46586D01*
X3650Y-44571D01*
X15991Y-44571D01*
X15991Y-46078D01*
X7898Y-46078D01*
X6891Y-46052D01*
X5410Y-45973D01*
X15991Y-52647D01*
X15991Y-54591D01*
G37*
G36*
X9877Y-69098D02*
X9395Y-69086D01*
X8928Y-69052D01*
X8478Y-68994D01*
X8044Y-68913D01*
X7625Y-68809D01*
X7223Y-68682D01*
X6836Y-68531D01*
X6466Y-68358D01*
X6114Y-68162D01*
X5784Y-67946D01*
X5474Y-67710D01*
X5186Y-67452D01*
X4919Y-67174D01*
X4673Y-66876D01*
X4449Y-66556D01*
X4246Y-66216D01*
X4065Y-65858D01*
X3908Y-65482D01*
X3776Y-65090D01*
X3668Y-64681D01*
X3583Y-64256D01*
X3523Y-63814D01*
X3487Y-63355D01*
X3475Y-62879D01*
X3483Y-62467D01*
X3509Y-62062D01*
X3552Y-61665D01*
X3612Y-61275D01*
X3689Y-60893D01*
X3783Y-60519D01*
X3894Y-60152D01*
X4022Y-59792D01*
X4166Y-59443D01*
X4324Y-59108D01*
X4496Y-58787D01*
X4682Y-58479D01*
X4883Y-58186D01*
X5097Y-57906D01*
X5326Y-57640D01*
X5568Y-57388D01*
X9825Y-57388D01*
X9825Y-62617D01*
X8423Y-62617D01*
X8423Y-58929D01*
X6199Y-58929D01*
X5900Y-59278D01*
X5634Y-59677D01*
X5401Y-60126D01*
X5200Y-60624D01*
X5039Y-61157D01*
X4924Y-61711D01*
X4855Y-62285D01*
X4832Y-62879D01*
X4854Y-63395D01*
X4917Y-63882D01*
X5023Y-64340D01*
X5171Y-64769D01*
X5361Y-65170D01*
X5594Y-65541D01*
X5868Y-65884D01*
X6186Y-66199D01*
X6539Y-66480D01*
X6924Y-66724D01*
X7339Y-66930D01*
X7785Y-67099D01*
X8262Y-67230D01*
X8770Y-67324D01*
X9308Y-67380D01*
X9877Y-67399D01*
X10448Y-67381D01*
X10985Y-67328D01*
X11489Y-67240D01*
X11961Y-67116D01*
X12399Y-66957D01*
X12805Y-66763D01*
X13177Y-66534D01*
X13517Y-66269D01*
X13819Y-65971D01*
X14082Y-65641D01*
X14304Y-65280D01*
X14485Y-64887D01*
X14627Y-64463D01*
X14728Y-64008D01*
X14788Y-63520D01*
X14808Y-63002D01*
X14801Y-62665D01*
X14778Y-62343D01*
X14741Y-62034D01*
X14688Y-61740D01*
X14620Y-61459D01*
X14537Y-61193D01*
X14440Y-60941D01*
X14327Y-60703D01*
X14197Y-60478D01*
X14050Y-60266D01*
X13885Y-60066D01*
X13703Y-59878D01*
X13502Y-59703D01*
X13284Y-59541D01*
X13048Y-59391D01*
X12794Y-59253D01*
X13267Y-57659D01*
X13635Y-57841D01*
X13977Y-58042D01*
X14293Y-58261D01*
X14583Y-58498D01*
X14847Y-58753D01*
X15085Y-59027D01*
X15297Y-59319D01*
X15483Y-59630D01*
X15645Y-59962D01*
X15786Y-60317D01*
X15904Y-60697D01*
X16002Y-61101D01*
X16077Y-61529D01*
X16131Y-61982D01*
X16164Y-62458D01*
X16175Y-62958D01*
X16168Y-63318D01*
X16149Y-63667D01*
X16117Y-64006D01*
X16072Y-64335D01*
X16014Y-64654D01*
X15943Y-64962D01*
X15860Y-65260D01*
X15763Y-65549D01*
X15654Y-65826D01*
X15532Y-66094D01*
X15396Y-66352D01*
X15249Y-66599D01*
X15088Y-66836D01*
X14914Y-67063D01*
X14528Y-67486D01*
X14095Y-67864D01*
X13863Y-68034D01*
X13620Y-68191D01*
X13366Y-68336D01*
X13102Y-68468D01*
X12827Y-68588D01*
X12542Y-68695D01*
X12246Y-68789D01*
X11940Y-68871D01*
X11622Y-68941D01*
X11295Y-68997D01*
X10956Y-69041D01*
X10607Y-69073D01*
X10248Y-69092D01*
X9877Y-69098D01*
G37*
G36*
X29877Y-56182D02*
X29399Y-56170D01*
X28936Y-56136D01*
X28487Y-56079D01*
X28054Y-56000D01*
X27637Y-55898D01*
X27234Y-55773D01*
X26847Y-55625D01*
X26475Y-55455D01*
X26121Y-55263D01*
X25788Y-55050D01*
X25478Y-54818D01*
X25188Y-54565D01*
X24920Y-54291D01*
X24674Y-53997D01*
X24449Y-53683D01*
X24246Y-53348D01*
X24065Y-52995D01*
X23908Y-52626D01*
X23776Y-52240D01*
X23668Y-51839D01*
X23583Y-51420D01*
X23523Y-50986D01*
X23487Y-50535D01*
X23475Y-50068D01*
X23487Y-49605D01*
X23524Y-49158D01*
X23584Y-48726D01*
X23670Y-48310D01*
X23779Y-47909D01*
X23913Y-47524D01*
X24072Y-47155D01*
X24254Y-46801D01*
X24460Y-46465D01*
X24686Y-46150D01*
X24934Y-45854D01*
X25202Y-45578D01*
X25492Y-45323D01*
X25803Y-45088D01*
X26135Y-44872D01*
X26488Y-44677D01*
X26859Y-44504D01*
X27245Y-44354D01*
X27646Y-44226D01*
X28062Y-44122D01*
X28493Y-44041D01*
X28940Y-43984D01*
X29401Y-43949D01*
X29877Y-43937D01*
X30355Y-43949D01*
X30817Y-43983D01*
X31263Y-44040D01*
X31693Y-44120D01*
X32106Y-44223D01*
X32503Y-44349D01*
X32884Y-44497D01*
X33249Y-44669D01*
X33596Y-44862D01*
X33921Y-45075D01*
X34225Y-45309D01*
X34507Y-45563D01*
X34769Y-45838D01*
X35009Y-46133D01*
X35228Y-46448D01*
X35426Y-46784D01*
X35601Y-47138D01*
X35753Y-47507D01*
X35882Y-47892D01*
X35988Y-48292D01*
X36069Y-48709D01*
X36128Y-49140D01*
X36163Y-49588D01*
X36175Y-50051D01*
X36168Y-50407D01*
X36149Y-50753D01*
X36116Y-51090D01*
X36070Y-51417D01*
X36012Y-51733D01*
X35940Y-52040D01*
X35855Y-52337D01*
X35758Y-52624D01*
X35647Y-52900D01*
X35523Y-53168D01*
X35386Y-53425D01*
X35236Y-53672D01*
X35073Y-53909D01*
X34897Y-54136D01*
X34506Y-54561D01*
X34069Y-54941D01*
X33591Y-55270D01*
X33337Y-55416D01*
X33073Y-55549D01*
X32799Y-55669D01*
X32515Y-55777D01*
X32220Y-55872D01*
X31916Y-55954D01*
X31601Y-56023D01*
X31277Y-56080D01*
X30942Y-56125D01*
X30597Y-56156D01*
X30242Y-56175D01*
X29877Y-56182D01*
G37*
%LPC*%
G36*
X29877Y-54483D02*
X30446Y-54464D01*
X30981Y-54410D01*
X31485Y-54320D01*
X31955Y-54194D01*
X32393Y-54031D01*
X32799Y-53832D01*
X33172Y-53597D01*
X33512Y-53326D01*
X33816Y-53022D01*
X34079Y-52688D01*
X34302Y-52324D01*
X34484Y-51929D01*
X34626Y-51505D01*
X34727Y-51050D01*
X34788Y-50566D01*
X34808Y-50051D01*
X34788Y-49540D01*
X34726Y-49059D01*
X34624Y-48608D01*
X34480Y-48186D01*
X34295Y-47794D01*
X34069Y-47432D01*
X33803Y-47100D01*
X33495Y-46797D01*
X33151Y-46527D01*
X32776Y-46293D01*
X32370Y-46095D01*
X31933Y-45933D01*
X31466Y-45807D01*
X30967Y-45717D01*
X30438Y-45663D01*
X29877Y-45645D01*
X29292Y-45663D01*
X28741Y-45717D01*
X28224Y-45806D01*
X27741Y-45931D01*
X27293Y-46092D01*
X26878Y-46288D01*
X26497Y-46520D01*
X26151Y-46788D01*
X25842Y-47089D01*
X25574Y-47422D01*
X25347Y-47785D01*
X25162Y-48180D01*
X25018Y-48605D01*
X24915Y-49062D01*
X24853Y-49549D01*
X24832Y-50068D01*
X24854Y-50573D01*
X24918Y-51049D01*
X25024Y-51498D01*
X25173Y-51917D01*
X25364Y-52309D01*
X25599Y-52672D01*
X25875Y-53007D01*
X26194Y-53313D01*
X26550Y-53587D01*
X26935Y-53825D01*
X27351Y-54026D01*
X27796Y-54190D01*
X28271Y-54318D01*
X28777Y-54409D01*
X29312Y-54464D01*
X29877Y-54483D01*
G37*
%LPD*%
G36*
X29877Y-69089D02*
X29393Y-69078D01*
X28925Y-69045D01*
X28474Y-68989D01*
X28039Y-68911D01*
X27621Y-68810D01*
X27219Y-68688D01*
X26834Y-68543D01*
X26466Y-68375D01*
X26116Y-68187D01*
X25787Y-67978D01*
X25479Y-67749D01*
X25192Y-67499D01*
X24925Y-67230D01*
X24679Y-66940D01*
X24454Y-66630D01*
X24250Y-66300D01*
X24068Y-65951D01*
X23911Y-65587D01*
X23778Y-65207D01*
X23669Y-64812D01*
X23584Y-64400D01*
X23523Y-63973D01*
X23487Y-63531D01*
X23475Y-63072D01*
X23488Y-62623D01*
X23527Y-62189D01*
X23592Y-61768D01*
X23683Y-61361D01*
X23800Y-60968D01*
X23943Y-60588D01*
X24112Y-60223D01*
X24307Y-59871D01*
X24527Y-59536D01*
X24771Y-59220D01*
X25038Y-58923D01*
X25329Y-58646D01*
X25645Y-58388D01*
X25984Y-58149D01*
X26346Y-57929D01*
X26733Y-57729D01*
X27416Y-59096D01*
X27105Y-59264D01*
X26815Y-59442D01*
X26544Y-59630D01*
X26293Y-59829D01*
X26063Y-60037D01*
X25852Y-60255D01*
X25662Y-60484D01*
X25491Y-60723D01*
X25341Y-60971D01*
X25211Y-61230D01*
X25101Y-61499D01*
X25010Y-61777D01*
X24940Y-62066D01*
X24890Y-62365D01*
X24860Y-62674D01*
X24850Y-62993D01*
X24871Y-63486D01*
X24936Y-63953D01*
X25044Y-64393D01*
X25195Y-64807D01*
X25389Y-65195D01*
X25626Y-65558D01*
X25906Y-65893D01*
X26229Y-66203D01*
X26588Y-66481D01*
X26975Y-66722D01*
X27389Y-66926D01*
X27831Y-67093D01*
X28301Y-67223D01*
X28799Y-67316D01*
X29324Y-67371D01*
X29877Y-67390D01*
X30436Y-67372D01*
X30964Y-67319D01*
X31461Y-67230D01*
X31928Y-67105D01*
X32364Y-66945D01*
X32770Y-66750D01*
X33145Y-66518D01*
X33490Y-66251D01*
X33799Y-65952D01*
X34067Y-65625D01*
X34293Y-65269D01*
X34479Y-64885D01*
X34623Y-64472D01*
X34726Y-64031D01*
X34788Y-63561D01*
X34808Y-63063D01*
X34799Y-62743D01*
X34773Y-62433D01*
X34728Y-62134D01*
X34666Y-61847D01*
X34586Y-61571D01*
X34488Y-61305D01*
X34373Y-61051D01*
X34239Y-60808D01*
X34089Y-60579D01*
X33923Y-60365D01*
X33741Y-60168D01*
X33543Y-59988D01*
X33329Y-59824D01*
X33099Y-59676D01*
X32854Y-59544D01*
X32592Y-59428D01*
X33118Y-57843D01*
X33485Y-58010D01*
X33829Y-58198D01*
X34150Y-58408D01*
X34447Y-58640D01*
X34721Y-58894D01*
X34972Y-59170D01*
X35200Y-59468D01*
X35404Y-59788D01*
X35585Y-60128D01*
X35741Y-60489D01*
X35874Y-60871D01*
X35982Y-61272D01*
X36066Y-61694D01*
X36127Y-62136D01*
X36163Y-62598D01*
X36175Y-63081D01*
X36168Y-63429D01*
X36149Y-63767D01*
X36116Y-64095D01*
X36070Y-64414D01*
X36011Y-64724D01*
X35939Y-65024D01*
X35855Y-65314D01*
X35756Y-65594D01*
X35645Y-65866D01*
X35521Y-66127D01*
X35384Y-66379D01*
X35234Y-66621D01*
X34894Y-67077D01*
X34502Y-67495D01*
X34064Y-67869D01*
X33585Y-68192D01*
X33067Y-68466D01*
X32793Y-68585D01*
X32509Y-68691D01*
X32215Y-68784D01*
X31911Y-68865D01*
X31597Y-68933D01*
X31273Y-68990D01*
X30939Y-69033D01*
X30595Y-69064D01*
X30241Y-69083D01*
X29877Y-69089D01*
G37*
G36*
X35991Y-41622D02*
X23650Y-41622D01*
X23650Y-33713D01*
X25016Y-33713D01*
X25016Y-39949D01*
X35991Y-39949D01*
X35991Y-41622D01*
G37*
G36*
X49877Y-56182D02*
X49399Y-56170D01*
X48936Y-56136D01*
X48487Y-56079D01*
X48054Y-56000D01*
X47637Y-55898D01*
X47234Y-55773D01*
X46847Y-55625D01*
X46475Y-55455D01*
X46121Y-55263D01*
X45788Y-55050D01*
X45478Y-54818D01*
X45188Y-54565D01*
X44920Y-54291D01*
X44674Y-53997D01*
X44449Y-53683D01*
X44246Y-53348D01*
X44065Y-52995D01*
X43908Y-52626D01*
X43776Y-52240D01*
X43668Y-51839D01*
X43583Y-51420D01*
X43523Y-50986D01*
X43487Y-50535D01*
X43475Y-50068D01*
X43487Y-49605D01*
X43524Y-49158D01*
X43584Y-48726D01*
X43670Y-48310D01*
X43779Y-47909D01*
X43913Y-47524D01*
X44072Y-47155D01*
X44254Y-46801D01*
X44460Y-46465D01*
X44686Y-46150D01*
X44934Y-45854D01*
X45202Y-45578D01*
X45492Y-45323D01*
X45803Y-45088D01*
X46135Y-44872D01*
X46488Y-44677D01*
X46859Y-44504D01*
X47245Y-44354D01*
X47646Y-44226D01*
X48062Y-44122D01*
X48493Y-44041D01*
X48940Y-43984D01*
X49401Y-43949D01*
X49877Y-43937D01*
X50355Y-43949D01*
X50817Y-43983D01*
X51263Y-44040D01*
X51693Y-44120D01*
X52106Y-44223D01*
X52503Y-44349D01*
X52884Y-44497D01*
X53249Y-44669D01*
X53596Y-44862D01*
X53921Y-45075D01*
X54225Y-45309D01*
X54507Y-45563D01*
X54769Y-45838D01*
X55009Y-46133D01*
X55228Y-46448D01*
X55426Y-46784D01*
X55601Y-47138D01*
X55753Y-47507D01*
X55882Y-47892D01*
X55988Y-48292D01*
X56069Y-48709D01*
X56128Y-49140D01*
X56163Y-49588D01*
X56175Y-50051D01*
X56168Y-50407D01*
X56149Y-50753D01*
X56116Y-51090D01*
X56070Y-51417D01*
X56012Y-51733D01*
X55940Y-52040D01*
X55855Y-52337D01*
X55758Y-52624D01*
X55647Y-52900D01*
X55523Y-53168D01*
X55386Y-53425D01*
X55236Y-53672D01*
X55073Y-53909D01*
X54897Y-54136D01*
X54506Y-54561D01*
X54069Y-54941D01*
X53591Y-55270D01*
X53337Y-55416D01*
X53073Y-55549D01*
X52799Y-55669D01*
X52515Y-55777D01*
X52220Y-55872D01*
X51916Y-55954D01*
X51601Y-56023D01*
X51277Y-56080D01*
X50942Y-56125D01*
X50597Y-56156D01*
X50242Y-56175D01*
X49877Y-56182D01*
G37*
%LPC*%
G36*
X49877Y-54483D02*
X50446Y-54464D01*
X50981Y-54410D01*
X51485Y-54320D01*
X51955Y-54194D01*
X52393Y-54031D01*
X52799Y-53832D01*
X53172Y-53597D01*
X53512Y-53326D01*
X53816Y-53022D01*
X54079Y-52688D01*
X54302Y-52324D01*
X54484Y-51929D01*
X54626Y-51505D01*
X54727Y-51050D01*
X54788Y-50566D01*
X54808Y-50051D01*
X54788Y-49540D01*
X54726Y-49059D01*
X54624Y-48608D01*
X54480Y-48186D01*
X54295Y-47794D01*
X54069Y-47432D01*
X53803Y-47100D01*
X53495Y-46797D01*
X53151Y-46527D01*
X52776Y-46293D01*
X52370Y-46095D01*
X51933Y-45933D01*
X51466Y-45807D01*
X50967Y-45717D01*
X50438Y-45663D01*
X49877Y-45645D01*
X49292Y-45663D01*
X48741Y-45717D01*
X48224Y-45806D01*
X47741Y-45931D01*
X47293Y-46092D01*
X46878Y-46288D01*
X46497Y-46520D01*
X46151Y-46788D01*
X45842Y-47089D01*
X45574Y-47422D01*
X45347Y-47785D01*
X45162Y-48180D01*
X45018Y-48605D01*
X44915Y-49062D01*
X44853Y-49549D01*
X44832Y-50068D01*
X44854Y-50573D01*
X44918Y-51049D01*
X45024Y-51498D01*
X45173Y-51917D01*
X45364Y-52309D01*
X45599Y-52672D01*
X45875Y-53007D01*
X46194Y-53313D01*
X46550Y-53587D01*
X46935Y-53825D01*
X47351Y-54026D01*
X47796Y-54190D01*
X48271Y-54318D01*
X48777Y-54409D01*
X49312Y-54464D01*
X49877Y-54483D01*
G37*
%LPD*%
G36*
X55991Y-68529D02*
X43650Y-68529D01*
X43650Y-66856D01*
X48774Y-66856D01*
X48774Y-63011D01*
X43650Y-59805D01*
X43650Y-57878D01*
X46703Y-59890D01*
X48966Y-61382D01*
X49039Y-61039D01*
X49132Y-60715D01*
X49248Y-60410D01*
X49385Y-60124D01*
X49477Y-59968D01*
X49543Y-59857D01*
X49724Y-59609D01*
X49925Y-59380D01*
X50149Y-59170D01*
X50390Y-58982D01*
X50645Y-58819D01*
X50913Y-58682D01*
X51195Y-58569D01*
X51491Y-58481D01*
X51801Y-58419D01*
X52124Y-58381D01*
X52461Y-58369D01*
X52866Y-58386D01*
X53247Y-58440D01*
X53606Y-58528D01*
X53942Y-58652D01*
X54256Y-58812D01*
X54546Y-59007D01*
X54813Y-59237D01*
X55058Y-59503D01*
X55277Y-59801D01*
X55466Y-60129D01*
X55626Y-60487D01*
X55758Y-60875D01*
X55860Y-61292D01*
X55932Y-61739D01*
X55976Y-62215D01*
X55991Y-62722D01*
X55991Y-68529D01*
G37*
%LPC*%
G36*
X54651Y-66856D02*
X54651Y-62888D01*
X54642Y-62554D01*
X54615Y-62241D01*
X54571Y-61947D01*
X54510Y-61674D01*
X54430Y-61421D01*
X54333Y-61188D01*
X54218Y-60975D01*
X54086Y-60782D01*
X53937Y-60610D01*
X53771Y-60462D01*
X53590Y-60336D01*
X53393Y-60233D01*
X53180Y-60153D01*
X52950Y-60096D01*
X52705Y-60062D01*
X52444Y-60050D01*
X52173Y-60062D01*
X51918Y-60095D01*
X51679Y-60152D01*
X51455Y-60231D01*
X51246Y-60333D01*
X51053Y-60457D01*
X50876Y-60604D01*
X50714Y-60773D01*
X50569Y-60963D01*
X50444Y-61172D01*
X50337Y-61399D01*
X50251Y-61645D01*
X50183Y-61910D01*
X50135Y-62194D01*
X50106Y-62497D01*
X50096Y-62818D01*
X50096Y-66856D01*
X54651Y-66856D01*
G37*
%LPD*%
G36*
X55991Y-43015D02*
X43650Y-39380D01*
X43650Y-37383D01*
X49890Y-35669D01*
X52426Y-34992D01*
X54125Y-34607D01*
X52516Y-34252D01*
X51489Y-33994D01*
X43650Y-31857D01*
X43650Y-29860D01*
X55991Y-26225D01*
X55991Y-27968D01*
X49618Y-29739D01*
X47070Y-30429D01*
X45428Y-30814D01*
X45121Y-30893D01*
X46571Y-31226D01*
X48310Y-31664D01*
X55991Y-33810D01*
X55991Y-35413D01*
X49985Y-37097D01*
X48198Y-37588D01*
X47223Y-37843D01*
X45121Y-38329D01*
X46659Y-38677D01*
X48152Y-39056D01*
X55991Y-41272D01*
X55991Y-43015D01*
G37*
D10*
X69500Y-70800D02*
X69500Y-156300D01*
X69500Y-70800D02*
X-69500Y-70800D01*
X-69500Y-156300D01*
X61500Y-156300D02*
X69500Y-156300D01*
X61500Y-156300D02*
X61500Y-123300D01*
X-61500Y-123300D01*
X-61500Y-156300D01*
X-69500Y-156300D01*
M02*
