G04 EAGLE Gerber RS-274X export*
G75*
%MOMM*%
%FSLAX34Y34*%
%LPD*%
%INTop Copper*%
%IPPOS*%
%AMOC8*
5,1,8,0,0,1.08239X$1,22.5*%
G01*
G04 Define Apertures*
%ADD10C,1.440000*%
%ADD11C,0.502400*%
%ADD12C,0.200000*%
G36*
X55381Y-313741D02*
X55250Y-313750D01*
X-55250Y-313750D01*
X-55381Y-313741D01*
X-64957Y-312481D01*
X-65209Y-312413D01*
X-74133Y-308717D01*
X-74359Y-308586D01*
X-82022Y-302706D01*
X-82206Y-302522D01*
X-88086Y-294859D01*
X-88217Y-294633D01*
X-91913Y-285709D01*
X-91981Y-285457D01*
X-93241Y-275881D01*
X-93250Y-275750D01*
X-93250Y275750D01*
X-93241Y275881D01*
X-91981Y285457D01*
X-91913Y285709D01*
X-88217Y294633D01*
X-88086Y294859D01*
X-82206Y302522D01*
X-82022Y302706D01*
X-74359Y308586D01*
X-74133Y308717D01*
X-65209Y312413D01*
X-64957Y312481D01*
X-55381Y313741D01*
X-55250Y313750D01*
X55250Y313750D01*
X55381Y313741D01*
X64957Y312481D01*
X65209Y312413D01*
X74133Y308717D01*
X74359Y308586D01*
X82022Y302706D01*
X82206Y302522D01*
X88086Y294859D01*
X88217Y294633D01*
X91913Y285709D01*
X91981Y285457D01*
X93241Y275881D01*
X93250Y275750D01*
X93250Y246143D01*
X93188Y245797D01*
X92979Y245458D01*
X92655Y245228D01*
X92266Y245143D01*
X91875Y245216D01*
X91543Y245436D01*
X89798Y247181D01*
X86685Y248470D01*
X83315Y248470D01*
X80202Y247181D01*
X77820Y244798D01*
X77028Y242887D01*
X76823Y242574D01*
X76494Y242349D01*
X76104Y242270D01*
X75760Y242270D01*
X65830Y232340D01*
X65830Y215633D01*
X65768Y215287D01*
X65559Y214949D01*
X65235Y214718D01*
X64846Y214633D01*
X64455Y214706D01*
X64123Y214926D01*
X61767Y217282D01*
X60042Y217282D01*
X59667Y217355D01*
X59335Y217575D01*
X50740Y226170D01*
X48793Y226170D01*
X48417Y226243D01*
X48086Y226463D01*
X46867Y227682D01*
X43733Y227682D01*
X41518Y225467D01*
X41518Y222333D01*
X43733Y220118D01*
X46867Y220118D01*
X47912Y221163D01*
X48215Y221371D01*
X48603Y221456D01*
X48994Y221383D01*
X49326Y221163D01*
X56125Y214365D01*
X56339Y214048D01*
X56418Y213658D01*
X56418Y211933D01*
X58633Y209718D01*
X61767Y209718D01*
X64123Y212074D01*
X64411Y212275D01*
X64798Y212367D01*
X65191Y212300D01*
X65526Y212086D01*
X65751Y211757D01*
X65830Y211367D01*
X65830Y184354D01*
X65757Y183979D01*
X65537Y183647D01*
X49971Y168081D01*
X49654Y167867D01*
X49264Y167788D01*
X47974Y167788D01*
X47598Y167861D01*
X47267Y168081D01*
X45877Y169470D01*
X11750Y169470D01*
X11412Y169529D01*
X11072Y169735D01*
X10839Y170058D01*
X10751Y170446D01*
X10821Y170838D01*
X11038Y171171D01*
X11368Y171394D01*
X12463Y171848D01*
X18652Y178037D01*
X22002Y186124D01*
X22002Y194876D01*
X18652Y202963D01*
X12463Y209152D01*
X4376Y212502D01*
X-4376Y212502D01*
X-12463Y209152D01*
X-18652Y202963D01*
X-22002Y194876D01*
X-22002Y186124D01*
X-18652Y178037D01*
X-12463Y171848D01*
X-11368Y171394D01*
X-11078Y171210D01*
X-10843Y170889D01*
X-10751Y170502D01*
X-10818Y170110D01*
X-11032Y169774D01*
X-11360Y169549D01*
X-11750Y169470D01*
X-15807Y169470D01*
X-16183Y169543D01*
X-16514Y169763D01*
X-17733Y170982D01*
X-20867Y170982D01*
X-23082Y168767D01*
X-23082Y165633D01*
X-21726Y164277D01*
X-21525Y163989D01*
X-21433Y163602D01*
X-21500Y163210D01*
X-21715Y162874D01*
X-22043Y162649D01*
X-22433Y162570D01*
X-47146Y162570D01*
X-47521Y162643D01*
X-47853Y162863D01*
X-58125Y173135D01*
X-58339Y173452D01*
X-58418Y173842D01*
X-58418Y175767D01*
X-60633Y177982D01*
X-63767Y177982D01*
X-65982Y175767D01*
X-65982Y172633D01*
X-63767Y170418D01*
X-62242Y170418D01*
X-61867Y170345D01*
X-61535Y170125D01*
X-49440Y158030D01*
X66240Y158030D01*
X80315Y172105D01*
X80625Y172315D01*
X81014Y172397D01*
X81405Y172321D01*
X83315Y171530D01*
X86685Y171530D01*
X89798Y172820D01*
X91543Y174565D01*
X91831Y174765D01*
X92218Y174857D01*
X92611Y174790D01*
X92946Y174576D01*
X93171Y174247D01*
X93250Y173857D01*
X93250Y166143D01*
X93188Y165797D01*
X92979Y165458D01*
X92655Y165228D01*
X92266Y165143D01*
X91875Y165216D01*
X91543Y165436D01*
X89798Y167181D01*
X86685Y168470D01*
X83315Y168470D01*
X80202Y167181D01*
X77820Y164798D01*
X76530Y161685D01*
X76530Y158315D01*
X77820Y155202D01*
X80202Y152820D01*
X83315Y151530D01*
X86685Y151530D01*
X89798Y152820D01*
X91543Y154565D01*
X91831Y154765D01*
X92218Y154857D01*
X92611Y154790D01*
X92946Y154576D01*
X93171Y154247D01*
X93250Y153857D01*
X93250Y146143D01*
X93188Y145797D01*
X92979Y145458D01*
X92655Y145228D01*
X92266Y145143D01*
X91875Y145216D01*
X91543Y145436D01*
X89798Y147181D01*
X86685Y148470D01*
X83315Y148470D01*
X80202Y147181D01*
X77820Y144798D01*
X76530Y141685D01*
X76530Y138315D01*
X77820Y135202D01*
X80202Y132820D01*
X83315Y131530D01*
X86685Y131530D01*
X89798Y132820D01*
X91543Y134565D01*
X91831Y134765D01*
X92218Y134857D01*
X92611Y134790D01*
X92946Y134576D01*
X93171Y134247D01*
X93250Y133857D01*
X93250Y126143D01*
X93188Y125797D01*
X92979Y125458D01*
X92655Y125228D01*
X92266Y125143D01*
X91875Y125216D01*
X91543Y125436D01*
X89798Y127181D01*
X86685Y128470D01*
X83315Y128470D01*
X80202Y127181D01*
X77820Y124798D01*
X76530Y121685D01*
X76530Y118315D01*
X77820Y115202D01*
X80202Y112820D01*
X83315Y111530D01*
X86685Y111530D01*
X89798Y112820D01*
X91543Y114565D01*
X91831Y114765D01*
X92218Y114857D01*
X92611Y114790D01*
X92946Y114576D01*
X93171Y114247D01*
X93250Y113857D01*
X93250Y-275750D01*
X93241Y-275881D01*
X91981Y-285457D01*
X91913Y-285709D01*
X88217Y-294633D01*
X88086Y-294859D01*
X82206Y-302522D01*
X82022Y-302706D01*
X74359Y-308586D01*
X74133Y-308717D01*
X65209Y-312413D01*
X64957Y-312481D01*
X55381Y-313741D01*
G37*
%LPC*%
G36*
X-2586Y277287D02*
X2586Y277287D01*
X7364Y279266D01*
X11021Y282923D01*
X13000Y287701D01*
X13000Y292873D01*
X11021Y297651D01*
X7364Y301308D01*
X2586Y303287D01*
X-2586Y303287D01*
X-7364Y301308D01*
X-11021Y297651D01*
X-13000Y292873D01*
X-13000Y287701D01*
X-11021Y282923D01*
X-7364Y279266D01*
X-2586Y277287D01*
G37*
G36*
X22018Y224300D02*
X28782Y224300D01*
X35030Y226888D01*
X39812Y231670D01*
X42400Y237918D01*
X42400Y244682D01*
X39812Y250930D01*
X35030Y255712D01*
X28782Y258300D01*
X22018Y258300D01*
X15770Y255712D01*
X10988Y250930D01*
X8400Y244682D01*
X8400Y237918D01*
X10988Y231670D01*
X15770Y226888D01*
X22018Y224300D01*
G37*
G36*
X-52889Y180000D02*
X-48711Y180000D01*
X-44852Y181599D01*
X-41899Y184552D01*
X-40300Y188411D01*
X-40300Y192589D01*
X-41899Y196448D01*
X-42825Y197374D01*
X-43022Y197655D01*
X-43117Y198041D01*
X-43053Y198434D01*
X-42841Y198771D01*
X-42515Y198999D01*
X-42126Y199081D01*
X-41735Y199005D01*
X-41482Y198900D01*
X-34718Y198900D01*
X-28470Y201488D01*
X-23688Y206270D01*
X-21100Y212518D01*
X-21100Y219282D01*
X-23688Y225530D01*
X-28470Y230312D01*
X-34718Y232900D01*
X-41482Y232900D01*
X-47730Y230312D01*
X-52512Y225530D01*
X-55100Y219282D01*
X-55100Y212518D01*
X-52512Y206270D01*
X-48949Y202707D01*
X-48748Y202419D01*
X-48656Y202032D01*
X-48723Y201640D01*
X-48938Y201304D01*
X-49266Y201079D01*
X-49656Y201000D01*
X-52889Y201000D01*
X-56748Y199401D01*
X-59701Y196448D01*
X-61300Y192589D01*
X-61300Y188411D01*
X-59701Y184552D01*
X-56748Y181599D01*
X-52889Y180000D01*
G37*
G36*
X48711Y180000D02*
X52889Y180000D01*
X56748Y181599D01*
X59701Y184552D01*
X61300Y188411D01*
X61300Y192589D01*
X59701Y196448D01*
X56748Y199401D01*
X52889Y201000D01*
X48711Y201000D01*
X44852Y199401D01*
X41899Y196448D01*
X40300Y192589D01*
X40300Y188411D01*
X41899Y184552D01*
X44852Y181599D01*
X48711Y180000D01*
G37*
G36*
X-16101Y127500D02*
X15899Y127500D01*
X15899Y155500D01*
X-16101Y155500D01*
X-16101Y127500D01*
G37*
G36*
X22018Y33800D02*
X28782Y33800D01*
X35030Y36388D01*
X39812Y41170D01*
X42400Y47418D01*
X42400Y54182D01*
X39812Y60430D01*
X35030Y65212D01*
X28782Y67800D01*
X22018Y67800D01*
X15770Y65212D01*
X10988Y60430D01*
X8400Y54182D01*
X8400Y47418D01*
X10988Y41170D01*
X15770Y36388D01*
X22018Y33800D01*
G37*
G36*
X-52889Y-10500D02*
X-48711Y-10500D01*
X-44852Y-8901D01*
X-41899Y-5948D01*
X-40300Y-2089D01*
X-40300Y2089D01*
X-41899Y5948D01*
X-42825Y6874D01*
X-43022Y7155D01*
X-43117Y7541D01*
X-43053Y7934D01*
X-42841Y8271D01*
X-42515Y8499D01*
X-42126Y8581D01*
X-41735Y8505D01*
X-41482Y8400D01*
X-34718Y8400D01*
X-28470Y10988D01*
X-23688Y15770D01*
X-21100Y22018D01*
X-21100Y28782D01*
X-23688Y35030D01*
X-28470Y39812D01*
X-34718Y42400D01*
X-41482Y42400D01*
X-47730Y39812D01*
X-52512Y35030D01*
X-55100Y28782D01*
X-55100Y22018D01*
X-52512Y15770D01*
X-48949Y12207D01*
X-48748Y11919D01*
X-48656Y11532D01*
X-48723Y11140D01*
X-48938Y10804D01*
X-49266Y10579D01*
X-49656Y10500D01*
X-52889Y10500D01*
X-56748Y8901D01*
X-59701Y5948D01*
X-61300Y2089D01*
X-61300Y-2089D01*
X-59701Y-5948D01*
X-56748Y-8901D01*
X-52889Y-10500D01*
G37*
G36*
X-4376Y-22002D02*
X4376Y-22002D01*
X12463Y-18652D01*
X18652Y-12463D01*
X22002Y-4376D01*
X22002Y4376D01*
X18652Y12463D01*
X12463Y18652D01*
X4376Y22002D01*
X-4376Y22002D01*
X-12463Y18652D01*
X-18652Y12463D01*
X-22002Y4376D01*
X-22002Y-4376D01*
X-18652Y-12463D01*
X-12463Y-18652D01*
X-4376Y-22002D01*
G37*
G36*
X48711Y-10500D02*
X52889Y-10500D01*
X56748Y-8901D01*
X59701Y-5948D01*
X61300Y-2089D01*
X61300Y2089D01*
X59701Y5948D01*
X56748Y8901D01*
X52889Y10500D01*
X48711Y10500D01*
X44852Y8901D01*
X41899Y5948D01*
X40300Y2089D01*
X40300Y-2089D01*
X41899Y-5948D01*
X44852Y-8901D01*
X48711Y-10500D01*
G37*
G36*
X-16101Y-63000D02*
X15899Y-63000D01*
X15899Y-35000D01*
X-16101Y-35000D01*
X-16101Y-63000D01*
G37*
G36*
X22018Y-156700D02*
X28782Y-156700D01*
X35030Y-154112D01*
X39812Y-149330D01*
X42400Y-143082D01*
X42400Y-136318D01*
X39812Y-130070D01*
X35030Y-125288D01*
X28782Y-122700D01*
X22018Y-122700D01*
X15770Y-125288D01*
X10988Y-130070D01*
X8400Y-136318D01*
X8400Y-143082D01*
X10988Y-149330D01*
X15770Y-154112D01*
X22018Y-156700D01*
G37*
G36*
X-52889Y-201000D02*
X-48711Y-201000D01*
X-44852Y-199401D01*
X-41899Y-196448D01*
X-40300Y-192589D01*
X-40300Y-188411D01*
X-41899Y-184552D01*
X-42825Y-183626D01*
X-43022Y-183345D01*
X-43117Y-182959D01*
X-43053Y-182566D01*
X-42841Y-182229D01*
X-42515Y-182001D01*
X-42126Y-181919D01*
X-41735Y-181995D01*
X-41482Y-182100D01*
X-34718Y-182100D01*
X-28470Y-179512D01*
X-23688Y-174730D01*
X-21100Y-168482D01*
X-21100Y-161718D01*
X-23688Y-155470D01*
X-28470Y-150688D01*
X-34718Y-148100D01*
X-41482Y-148100D01*
X-47730Y-150688D01*
X-52512Y-155470D01*
X-55100Y-161718D01*
X-55100Y-168482D01*
X-52512Y-174730D01*
X-48949Y-178293D01*
X-48748Y-178581D01*
X-48656Y-178968D01*
X-48723Y-179361D01*
X-48938Y-179696D01*
X-49266Y-179921D01*
X-49656Y-180000D01*
X-52889Y-180000D01*
X-56748Y-181599D01*
X-59701Y-184552D01*
X-61300Y-188411D01*
X-61300Y-192589D01*
X-59701Y-196448D01*
X-56748Y-199401D01*
X-52889Y-201000D01*
G37*
G36*
X-4376Y-212502D02*
X4376Y-212502D01*
X12463Y-209152D01*
X18652Y-202963D01*
X22002Y-194876D01*
X22002Y-186124D01*
X18652Y-178037D01*
X12463Y-171848D01*
X4376Y-168498D01*
X-4376Y-168498D01*
X-12463Y-171848D01*
X-18652Y-178037D01*
X-22002Y-186124D01*
X-22002Y-194876D01*
X-18652Y-202963D01*
X-12463Y-209152D01*
X-4376Y-212502D01*
G37*
G36*
X48711Y-201000D02*
X52889Y-201000D01*
X56748Y-199401D01*
X59701Y-196448D01*
X61300Y-192589D01*
X61300Y-188411D01*
X59701Y-184552D01*
X56748Y-181599D01*
X52889Y-180000D01*
X48711Y-180000D01*
X44852Y-181599D01*
X41899Y-184552D01*
X40300Y-188411D01*
X40300Y-192589D01*
X41899Y-196448D01*
X44852Y-199401D01*
X48711Y-201000D01*
G37*
G36*
X-16101Y-253500D02*
X15899Y-253500D01*
X15899Y-225500D01*
X-16101Y-225500D01*
X-16101Y-253500D01*
G37*
G36*
X-2586Y-298750D02*
X2586Y-298750D01*
X7364Y-296771D01*
X11021Y-293114D01*
X13000Y-288336D01*
X13000Y-283164D01*
X11021Y-278386D01*
X7364Y-274729D01*
X2586Y-272750D01*
X-2586Y-272750D01*
X-7364Y-274729D01*
X-11021Y-278386D01*
X-13000Y-283164D01*
X-13000Y-288336D01*
X-11021Y-293114D01*
X-7364Y-296771D01*
X-2586Y-298750D01*
G37*
%LPD*%
G36*
X64336Y162649D02*
X63946Y162570D01*
X53294Y162570D01*
X52949Y162632D01*
X52610Y162841D01*
X52380Y163165D01*
X52295Y163554D01*
X52368Y163945D01*
X52587Y164277D01*
X70370Y182060D01*
X70370Y230046D01*
X70443Y230421D01*
X70663Y230753D01*
X75968Y236058D01*
X76264Y236262D01*
X76652Y236351D01*
X77043Y236281D01*
X77377Y236064D01*
X77599Y235734D01*
X77820Y235202D01*
X80202Y232820D01*
X83315Y231530D01*
X86685Y231530D01*
X89798Y232820D01*
X91543Y234565D01*
X91831Y234765D01*
X92218Y234857D01*
X92611Y234790D01*
X92946Y234576D01*
X93171Y234247D01*
X93250Y233857D01*
X93250Y226143D01*
X93188Y225797D01*
X92979Y225458D01*
X92655Y225228D01*
X92266Y225143D01*
X91875Y225216D01*
X91543Y225436D01*
X89798Y227181D01*
X86685Y228470D01*
X83315Y228470D01*
X80202Y227181D01*
X77820Y224798D01*
X76530Y221685D01*
X76530Y218315D01*
X77820Y215202D01*
X80202Y212820D01*
X83119Y211611D01*
X83415Y211422D01*
X83648Y211099D01*
X83736Y210711D01*
X83666Y210319D01*
X83449Y209986D01*
X83119Y209763D01*
X79483Y208257D01*
X76743Y205517D01*
X75260Y201937D01*
X75260Y200762D01*
X85762Y200762D01*
X85762Y199238D01*
X75260Y199238D01*
X75260Y198063D01*
X76743Y194483D01*
X79483Y191743D01*
X83119Y190237D01*
X83415Y190047D01*
X83648Y189725D01*
X83736Y189337D01*
X83666Y188945D01*
X83449Y188611D01*
X83119Y188389D01*
X80202Y187181D01*
X77820Y184798D01*
X76530Y181685D01*
X76530Y178315D01*
X77321Y176405D01*
X77397Y176038D01*
X77324Y175647D01*
X77105Y175315D01*
X64653Y162863D01*
X64336Y162649D01*
G37*
D10*
X85000Y160000D03*
X85000Y140000D03*
X85000Y120000D03*
X85000Y180000D03*
X85000Y200000D03*
X85000Y220000D03*
X85000Y240000D03*
D11*
X60200Y213500D03*
D12*
X49800Y223900D01*
X45300Y223900D01*
D11*
X45300Y223900D03*
D12*
X85000Y180000D02*
X65300Y160300D01*
X-48500Y160300D01*
X-62200Y174000D01*
X-62200Y174200D01*
D11*
X-62200Y174200D03*
X-79200Y271500D03*
X84100Y277800D03*
X-77900Y-273500D03*
X82100Y-275200D03*
X74700Y-221600D03*
X-62500Y-226100D03*
X-50300Y-107500D03*
X45700Y-79200D03*
X-47800Y-25100D03*
X39100Y19200D03*
X-53031Y158069D03*
X25000Y215800D03*
X27500Y173400D03*
X48600Y170300D03*
X27500Y198800D03*
X-4800Y-140900D03*
X-18900Y-25600D03*
X-4900Y40200D03*
X-9700Y93300D03*
X15100Y-217000D03*
X-17700Y-215400D03*
X15700Y-164300D03*
X50300Y207600D03*
X-19300Y167200D03*
D12*
X11237Y167200D01*
X44937Y167200D01*
X46619Y165518D01*
X50618Y165518D01*
X68100Y183000D01*
X68100Y231400D01*
X76700Y240000D01*
X85000Y240000D01*
M02*
