G04 EAGLE Gerber RS-274X export*
G75*
%MOMM*%
%FSLAX34Y34*%
%LPD*%
%INBoard Outline*%
%IPPOS*%
%AMOC8*
5,1,8,0,0,1.08239X$1,22.5*%
G01*
G04 Define Apertures*
%ADD10C,0.000000*%
%ADD11C,0.254000*%
D10*
X-11000Y-285750D02*
X-10997Y-285480D01*
X-10987Y-285210D01*
X-10970Y-284941D01*
X-10947Y-284672D01*
X-10917Y-284403D01*
X-10881Y-284136D01*
X-10838Y-283869D01*
X-10789Y-283604D01*
X-10733Y-283340D01*
X-10670Y-283077D01*
X-10602Y-282816D01*
X-10526Y-282557D01*
X-10445Y-282300D01*
X-10357Y-282044D01*
X-10263Y-281791D01*
X-10163Y-281540D01*
X-10056Y-281292D01*
X-9944Y-281047D01*
X-9825Y-280804D01*
X-9701Y-280565D01*
X-9571Y-280328D01*
X-9435Y-280095D01*
X-9293Y-279865D01*
X-9146Y-279639D01*
X-8993Y-279416D01*
X-8835Y-279197D01*
X-8672Y-278982D01*
X-8503Y-278772D01*
X-8329Y-278565D01*
X-8150Y-278363D01*
X-7967Y-278165D01*
X-7778Y-277972D01*
X-7585Y-277783D01*
X-7387Y-277600D01*
X-7185Y-277421D01*
X-6978Y-277247D01*
X-6768Y-277078D01*
X-6553Y-276915D01*
X-6334Y-276757D01*
X-6111Y-276604D01*
X-5885Y-276457D01*
X-5655Y-276315D01*
X-5422Y-276179D01*
X-5185Y-276049D01*
X-4946Y-275925D01*
X-4703Y-275806D01*
X-4458Y-275694D01*
X-4210Y-275587D01*
X-3959Y-275487D01*
X-3706Y-275393D01*
X-3450Y-275305D01*
X-3193Y-275224D01*
X-2934Y-275148D01*
X-2673Y-275080D01*
X-2410Y-275017D01*
X-2146Y-274961D01*
X-1881Y-274912D01*
X-1614Y-274869D01*
X-1347Y-274833D01*
X-1078Y-274803D01*
X-809Y-274780D01*
X-540Y-274763D01*
X-270Y-274753D01*
X0Y-274750D01*
X270Y-274753D01*
X540Y-274763D01*
X809Y-274780D01*
X1078Y-274803D01*
X1347Y-274833D01*
X1614Y-274869D01*
X1881Y-274912D01*
X2146Y-274961D01*
X2410Y-275017D01*
X2673Y-275080D01*
X2934Y-275148D01*
X3193Y-275224D01*
X3450Y-275305D01*
X3706Y-275393D01*
X3959Y-275487D01*
X4210Y-275587D01*
X4458Y-275694D01*
X4703Y-275806D01*
X4946Y-275925D01*
X5185Y-276049D01*
X5422Y-276179D01*
X5655Y-276315D01*
X5885Y-276457D01*
X6111Y-276604D01*
X6334Y-276757D01*
X6553Y-276915D01*
X6768Y-277078D01*
X6978Y-277247D01*
X7185Y-277421D01*
X7387Y-277600D01*
X7585Y-277783D01*
X7778Y-277972D01*
X7967Y-278165D01*
X8150Y-278363D01*
X8329Y-278565D01*
X8503Y-278772D01*
X8672Y-278982D01*
X8835Y-279197D01*
X8993Y-279416D01*
X9146Y-279639D01*
X9293Y-279865D01*
X9435Y-280095D01*
X9571Y-280328D01*
X9701Y-280565D01*
X9825Y-280804D01*
X9944Y-281047D01*
X10056Y-281292D01*
X10163Y-281540D01*
X10263Y-281791D01*
X10357Y-282044D01*
X10445Y-282300D01*
X10526Y-282557D01*
X10602Y-282816D01*
X10670Y-283077D01*
X10733Y-283340D01*
X10789Y-283604D01*
X10838Y-283869D01*
X10881Y-284136D01*
X10917Y-284403D01*
X10947Y-284672D01*
X10970Y-284941D01*
X10987Y-285210D01*
X10997Y-285480D01*
X11000Y-285750D01*
X10997Y-286020D01*
X10987Y-286290D01*
X10970Y-286559D01*
X10947Y-286828D01*
X10917Y-287097D01*
X10881Y-287364D01*
X10838Y-287631D01*
X10789Y-287896D01*
X10733Y-288160D01*
X10670Y-288423D01*
X10602Y-288684D01*
X10526Y-288943D01*
X10445Y-289200D01*
X10357Y-289456D01*
X10263Y-289709D01*
X10163Y-289960D01*
X10056Y-290208D01*
X9944Y-290453D01*
X9825Y-290696D01*
X9701Y-290935D01*
X9571Y-291172D01*
X9435Y-291405D01*
X9293Y-291635D01*
X9146Y-291861D01*
X8993Y-292084D01*
X8835Y-292303D01*
X8672Y-292518D01*
X8503Y-292728D01*
X8329Y-292935D01*
X8150Y-293137D01*
X7967Y-293335D01*
X7778Y-293528D01*
X7585Y-293717D01*
X7387Y-293900D01*
X7185Y-294079D01*
X6978Y-294253D01*
X6768Y-294422D01*
X6553Y-294585D01*
X6334Y-294743D01*
X6111Y-294896D01*
X5885Y-295043D01*
X5655Y-295185D01*
X5422Y-295321D01*
X5185Y-295451D01*
X4946Y-295575D01*
X4703Y-295694D01*
X4458Y-295806D01*
X4210Y-295913D01*
X3959Y-296013D01*
X3706Y-296107D01*
X3450Y-296195D01*
X3193Y-296276D01*
X2934Y-296352D01*
X2673Y-296420D01*
X2410Y-296483D01*
X2146Y-296539D01*
X1881Y-296588D01*
X1614Y-296631D01*
X1347Y-296667D01*
X1078Y-296697D01*
X809Y-296720D01*
X540Y-296737D01*
X270Y-296747D01*
X0Y-296750D01*
X-270Y-296747D01*
X-540Y-296737D01*
X-809Y-296720D01*
X-1078Y-296697D01*
X-1347Y-296667D01*
X-1614Y-296631D01*
X-1881Y-296588D01*
X-2146Y-296539D01*
X-2410Y-296483D01*
X-2673Y-296420D01*
X-2934Y-296352D01*
X-3193Y-296276D01*
X-3450Y-296195D01*
X-3706Y-296107D01*
X-3959Y-296013D01*
X-4210Y-295913D01*
X-4458Y-295806D01*
X-4703Y-295694D01*
X-4946Y-295575D01*
X-5185Y-295451D01*
X-5422Y-295321D01*
X-5655Y-295185D01*
X-5885Y-295043D01*
X-6111Y-294896D01*
X-6334Y-294743D01*
X-6553Y-294585D01*
X-6768Y-294422D01*
X-6978Y-294253D01*
X-7185Y-294079D01*
X-7387Y-293900D01*
X-7585Y-293717D01*
X-7778Y-293528D01*
X-7967Y-293335D01*
X-8150Y-293137D01*
X-8329Y-292935D01*
X-8503Y-292728D01*
X-8672Y-292518D01*
X-8835Y-292303D01*
X-8993Y-292084D01*
X-9146Y-291861D01*
X-9293Y-291635D01*
X-9435Y-291405D01*
X-9571Y-291172D01*
X-9701Y-290935D01*
X-9825Y-290696D01*
X-9944Y-290453D01*
X-10056Y-290208D01*
X-10163Y-289960D01*
X-10263Y-289709D01*
X-10357Y-289456D01*
X-10445Y-289200D01*
X-10526Y-288943D01*
X-10602Y-288684D01*
X-10670Y-288423D01*
X-10733Y-288160D01*
X-10789Y-287896D01*
X-10838Y-287631D01*
X-10881Y-287364D01*
X-10917Y-287097D01*
X-10947Y-286828D01*
X-10970Y-286559D01*
X-10987Y-286290D01*
X-10997Y-286020D01*
X-11000Y-285750D01*
X-11000Y290287D02*
X-10997Y290557D01*
X-10987Y290827D01*
X-10970Y291096D01*
X-10947Y291365D01*
X-10917Y291634D01*
X-10881Y291901D01*
X-10838Y292168D01*
X-10789Y292433D01*
X-10733Y292697D01*
X-10670Y292960D01*
X-10602Y293221D01*
X-10526Y293480D01*
X-10445Y293737D01*
X-10357Y293993D01*
X-10263Y294246D01*
X-10163Y294497D01*
X-10056Y294745D01*
X-9944Y294990D01*
X-9825Y295233D01*
X-9701Y295472D01*
X-9571Y295709D01*
X-9435Y295942D01*
X-9293Y296172D01*
X-9146Y296398D01*
X-8993Y296621D01*
X-8835Y296840D01*
X-8672Y297055D01*
X-8503Y297265D01*
X-8329Y297472D01*
X-8150Y297674D01*
X-7967Y297872D01*
X-7778Y298065D01*
X-7585Y298254D01*
X-7387Y298437D01*
X-7185Y298616D01*
X-6978Y298790D01*
X-6768Y298959D01*
X-6553Y299122D01*
X-6334Y299280D01*
X-6111Y299433D01*
X-5885Y299580D01*
X-5655Y299722D01*
X-5422Y299858D01*
X-5185Y299988D01*
X-4946Y300112D01*
X-4703Y300231D01*
X-4458Y300343D01*
X-4210Y300450D01*
X-3959Y300550D01*
X-3706Y300644D01*
X-3450Y300732D01*
X-3193Y300813D01*
X-2934Y300889D01*
X-2673Y300957D01*
X-2410Y301020D01*
X-2146Y301076D01*
X-1881Y301125D01*
X-1614Y301168D01*
X-1347Y301204D01*
X-1078Y301234D01*
X-809Y301257D01*
X-540Y301274D01*
X-270Y301284D01*
X0Y301287D01*
X270Y301284D01*
X540Y301274D01*
X809Y301257D01*
X1078Y301234D01*
X1347Y301204D01*
X1614Y301168D01*
X1881Y301125D01*
X2146Y301076D01*
X2410Y301020D01*
X2673Y300957D01*
X2934Y300889D01*
X3193Y300813D01*
X3450Y300732D01*
X3706Y300644D01*
X3959Y300550D01*
X4210Y300450D01*
X4458Y300343D01*
X4703Y300231D01*
X4946Y300112D01*
X5185Y299988D01*
X5422Y299858D01*
X5655Y299722D01*
X5885Y299580D01*
X6111Y299433D01*
X6334Y299280D01*
X6553Y299122D01*
X6768Y298959D01*
X6978Y298790D01*
X7185Y298616D01*
X7387Y298437D01*
X7585Y298254D01*
X7778Y298065D01*
X7967Y297872D01*
X8150Y297674D01*
X8329Y297472D01*
X8503Y297265D01*
X8672Y297055D01*
X8835Y296840D01*
X8993Y296621D01*
X9146Y296398D01*
X9293Y296172D01*
X9435Y295942D01*
X9571Y295709D01*
X9701Y295472D01*
X9825Y295233D01*
X9944Y294990D01*
X10056Y294745D01*
X10163Y294497D01*
X10263Y294246D01*
X10357Y293993D01*
X10445Y293737D01*
X10526Y293480D01*
X10602Y293221D01*
X10670Y292960D01*
X10733Y292697D01*
X10789Y292433D01*
X10838Y292168D01*
X10881Y291901D01*
X10917Y291634D01*
X10947Y291365D01*
X10970Y291096D01*
X10987Y290827D01*
X10997Y290557D01*
X11000Y290287D01*
X10997Y290017D01*
X10987Y289747D01*
X10970Y289478D01*
X10947Y289209D01*
X10917Y288940D01*
X10881Y288673D01*
X10838Y288406D01*
X10789Y288141D01*
X10733Y287877D01*
X10670Y287614D01*
X10602Y287353D01*
X10526Y287094D01*
X10445Y286837D01*
X10357Y286581D01*
X10263Y286328D01*
X10163Y286077D01*
X10056Y285829D01*
X9944Y285584D01*
X9825Y285341D01*
X9701Y285102D01*
X9571Y284865D01*
X9435Y284632D01*
X9293Y284402D01*
X9146Y284176D01*
X8993Y283953D01*
X8835Y283734D01*
X8672Y283519D01*
X8503Y283309D01*
X8329Y283102D01*
X8150Y282900D01*
X7967Y282702D01*
X7778Y282509D01*
X7585Y282320D01*
X7387Y282137D01*
X7185Y281958D01*
X6978Y281784D01*
X6768Y281615D01*
X6553Y281452D01*
X6334Y281294D01*
X6111Y281141D01*
X5885Y280994D01*
X5655Y280852D01*
X5422Y280716D01*
X5185Y280586D01*
X4946Y280462D01*
X4703Y280343D01*
X4458Y280231D01*
X4210Y280124D01*
X3959Y280024D01*
X3706Y279930D01*
X3450Y279842D01*
X3193Y279761D01*
X2934Y279685D01*
X2673Y279617D01*
X2410Y279554D01*
X2146Y279498D01*
X1881Y279449D01*
X1614Y279406D01*
X1347Y279370D01*
X1078Y279340D01*
X809Y279317D01*
X540Y279300D01*
X270Y279290D01*
X0Y279287D01*
X-270Y279290D01*
X-540Y279300D01*
X-809Y279317D01*
X-1078Y279340D01*
X-1347Y279370D01*
X-1614Y279406D01*
X-1881Y279449D01*
X-2146Y279498D01*
X-2410Y279554D01*
X-2673Y279617D01*
X-2934Y279685D01*
X-3193Y279761D01*
X-3450Y279842D01*
X-3706Y279930D01*
X-3959Y280024D01*
X-4210Y280124D01*
X-4458Y280231D01*
X-4703Y280343D01*
X-4946Y280462D01*
X-5185Y280586D01*
X-5422Y280716D01*
X-5655Y280852D01*
X-5885Y280994D01*
X-6111Y281141D01*
X-6334Y281294D01*
X-6553Y281452D01*
X-6768Y281615D01*
X-6978Y281784D01*
X-7185Y281958D01*
X-7387Y282137D01*
X-7585Y282320D01*
X-7778Y282509D01*
X-7967Y282702D01*
X-8150Y282900D01*
X-8329Y283102D01*
X-8503Y283309D01*
X-8672Y283519D01*
X-8835Y283734D01*
X-8993Y283953D01*
X-9146Y284176D01*
X-9293Y284402D01*
X-9435Y284632D01*
X-9571Y284865D01*
X-9701Y285102D01*
X-9825Y285341D01*
X-9944Y285584D01*
X-10056Y285829D01*
X-10163Y286077D01*
X-10263Y286328D01*
X-10357Y286581D01*
X-10445Y286837D01*
X-10526Y287094D01*
X-10602Y287353D01*
X-10670Y287614D01*
X-10733Y287877D01*
X-10789Y288141D01*
X-10838Y288406D01*
X-10881Y288673D01*
X-10917Y288940D01*
X-10947Y289209D01*
X-10970Y289478D01*
X-10987Y289747D01*
X-10997Y290017D01*
X-11000Y290287D01*
X-95250Y-275750D02*
X-95238Y-276717D01*
X-95203Y-277683D01*
X-95145Y-278647D01*
X-95063Y-279611D01*
X-94958Y-280571D01*
X-94830Y-281530D01*
X-94679Y-282484D01*
X-94505Y-283435D01*
X-94308Y-284381D01*
X-94088Y-285323D01*
X-93845Y-286258D01*
X-93580Y-287188D01*
X-93292Y-288111D01*
X-92982Y-289026D01*
X-92651Y-289934D01*
X-92297Y-290834D01*
X-91922Y-291725D01*
X-91525Y-292606D01*
X-91107Y-293478D01*
X-90668Y-294339D01*
X-90209Y-295189D01*
X-89729Y-296028D01*
X-89229Y-296856D01*
X-88709Y-297671D01*
X-88169Y-298473D01*
X-87611Y-299261D01*
X-87033Y-300037D01*
X-86437Y-300797D01*
X-85823Y-301544D01*
X-85190Y-302275D01*
X-84541Y-302991D01*
X-83874Y-303690D01*
X-83190Y-304374D01*
X-82491Y-305041D01*
X-81775Y-305690D01*
X-81044Y-306323D01*
X-80297Y-306937D01*
X-79537Y-307533D01*
X-78761Y-308111D01*
X-77973Y-308669D01*
X-77171Y-309209D01*
X-76356Y-309729D01*
X-75528Y-310229D01*
X-74689Y-310709D01*
X-73839Y-311168D01*
X-72978Y-311607D01*
X-72106Y-312025D01*
X-71225Y-312422D01*
X-70334Y-312797D01*
X-69434Y-313151D01*
X-68526Y-313482D01*
X-67611Y-313792D01*
X-66688Y-314080D01*
X-65758Y-314345D01*
X-64823Y-314588D01*
X-63881Y-314808D01*
X-62935Y-315005D01*
X-61984Y-315179D01*
X-61030Y-315330D01*
X-60071Y-315458D01*
X-59111Y-315563D01*
X-58147Y-315645D01*
X-57183Y-315703D01*
X-56217Y-315738D01*
X-55250Y-315750D01*
X55250Y-315750D01*
X56217Y-315738D01*
X57183Y-315703D01*
X58147Y-315645D01*
X59111Y-315563D01*
X60071Y-315458D01*
X61030Y-315330D01*
X61984Y-315179D01*
X62935Y-315005D01*
X63881Y-314808D01*
X64823Y-314588D01*
X65758Y-314345D01*
X66688Y-314080D01*
X67611Y-313792D01*
X68526Y-313482D01*
X69434Y-313151D01*
X70334Y-312797D01*
X71225Y-312422D01*
X72106Y-312025D01*
X72978Y-311607D01*
X73839Y-311168D01*
X74689Y-310709D01*
X75528Y-310229D01*
X76356Y-309729D01*
X77171Y-309209D01*
X77973Y-308669D01*
X78761Y-308111D01*
X79537Y-307533D01*
X80297Y-306937D01*
X81044Y-306323D01*
X81775Y-305690D01*
X82491Y-305041D01*
X83190Y-304374D01*
X83874Y-303690D01*
X84541Y-302991D01*
X85190Y-302275D01*
X85823Y-301544D01*
X86437Y-300797D01*
X87033Y-300037D01*
X87611Y-299261D01*
X88169Y-298473D01*
X88709Y-297671D01*
X89229Y-296856D01*
X89729Y-296028D01*
X90209Y-295189D01*
X90668Y-294339D01*
X91107Y-293478D01*
X91525Y-292606D01*
X91922Y-291725D01*
X92297Y-290834D01*
X92651Y-289934D01*
X92982Y-289026D01*
X93292Y-288111D01*
X93580Y-287188D01*
X93845Y-286258D01*
X94088Y-285323D01*
X94308Y-284381D01*
X94505Y-283435D01*
X94679Y-282484D01*
X94830Y-281530D01*
X94958Y-280571D01*
X95063Y-279611D01*
X95145Y-278647D01*
X95203Y-277683D01*
X95238Y-276717D01*
X95250Y-275750D01*
X95250Y275750D01*
X95238Y276717D01*
X95203Y277683D01*
X95145Y278647D01*
X95063Y279611D01*
X94958Y280571D01*
X94830Y281530D01*
X94679Y282484D01*
X94505Y283435D01*
X94308Y284381D01*
X94088Y285323D01*
X93845Y286258D01*
X93580Y287188D01*
X93292Y288111D01*
X92982Y289026D01*
X92651Y289934D01*
X92297Y290834D01*
X91922Y291725D01*
X91525Y292606D01*
X91107Y293478D01*
X90668Y294339D01*
X90209Y295189D01*
X89729Y296028D01*
X89229Y296856D01*
X88709Y297671D01*
X88169Y298473D01*
X87611Y299261D01*
X87033Y300037D01*
X86437Y300797D01*
X85823Y301544D01*
X85190Y302275D01*
X84541Y302991D01*
X83874Y303690D01*
X83190Y304374D01*
X82491Y305041D01*
X81775Y305690D01*
X81044Y306323D01*
X80297Y306937D01*
X79537Y307533D01*
X78761Y308111D01*
X77973Y308669D01*
X77171Y309209D01*
X76356Y309729D01*
X75528Y310229D01*
X74689Y310709D01*
X73839Y311168D01*
X72978Y311607D01*
X72106Y312025D01*
X71225Y312422D01*
X70334Y312797D01*
X69434Y313151D01*
X68526Y313482D01*
X67611Y313792D01*
X66688Y314080D01*
X65758Y314345D01*
X64823Y314588D01*
X63881Y314808D01*
X62935Y315005D01*
X61984Y315179D01*
X61030Y315330D01*
X60071Y315458D01*
X59111Y315563D01*
X58147Y315645D01*
X57183Y315703D01*
X56217Y315738D01*
X55250Y315750D01*
X-55250Y315750D01*
X-56217Y315738D01*
X-57183Y315703D01*
X-58147Y315645D01*
X-59111Y315563D01*
X-60071Y315458D01*
X-61030Y315330D01*
X-61984Y315179D01*
X-62935Y315005D01*
X-63881Y314808D01*
X-64823Y314588D01*
X-65758Y314345D01*
X-66688Y314080D01*
X-67611Y313792D01*
X-68526Y313482D01*
X-69434Y313151D01*
X-70334Y312797D01*
X-71225Y312422D01*
X-72106Y312025D01*
X-72978Y311607D01*
X-73839Y311168D01*
X-74689Y310709D01*
X-75528Y310229D01*
X-76356Y309729D01*
X-77171Y309209D01*
X-77973Y308669D01*
X-78761Y308111D01*
X-79537Y307533D01*
X-80297Y306937D01*
X-81044Y306323D01*
X-81775Y305690D01*
X-82491Y305041D01*
X-83190Y304374D01*
X-83874Y303690D01*
X-84541Y302991D01*
X-85190Y302275D01*
X-85823Y301544D01*
X-86437Y300797D01*
X-87033Y300037D01*
X-87611Y299261D01*
X-88169Y298473D01*
X-88709Y297671D01*
X-89229Y296856D01*
X-89729Y296028D01*
X-90209Y295189D01*
X-90668Y294339D01*
X-91107Y293478D01*
X-91525Y292606D01*
X-91922Y291725D01*
X-92297Y290834D01*
X-92651Y289934D01*
X-92982Y289026D01*
X-93292Y288111D01*
X-93580Y287188D01*
X-93845Y286258D01*
X-94088Y285323D01*
X-94308Y284381D01*
X-94505Y283435D01*
X-94679Y282484D01*
X-94830Y281530D01*
X-94958Y280571D01*
X-95063Y279611D01*
X-95145Y278647D01*
X-95203Y277683D01*
X-95238Y276717D01*
X-95250Y275750D01*
X-95250Y-275750D01*
X10400Y241300D02*
X10405Y241668D01*
X10418Y242036D01*
X10441Y242403D01*
X10472Y242770D01*
X10513Y243136D01*
X10562Y243501D01*
X10621Y243864D01*
X10688Y244226D01*
X10764Y244587D01*
X10850Y244945D01*
X10943Y245301D01*
X11046Y245654D01*
X11157Y246005D01*
X11277Y246353D01*
X11405Y246698D01*
X11542Y247040D01*
X11687Y247379D01*
X11840Y247713D01*
X12002Y248044D01*
X12171Y248371D01*
X12349Y248693D01*
X12534Y249012D01*
X12727Y249325D01*
X12928Y249634D01*
X13136Y249937D01*
X13352Y250235D01*
X13575Y250528D01*
X13805Y250816D01*
X14042Y251098D01*
X14286Y251373D01*
X14536Y251643D01*
X14793Y251907D01*
X15057Y252164D01*
X15327Y252414D01*
X15602Y252658D01*
X15884Y252895D01*
X16172Y253125D01*
X16465Y253348D01*
X16763Y253564D01*
X17066Y253772D01*
X17375Y253973D01*
X17688Y254166D01*
X18007Y254351D01*
X18329Y254529D01*
X18656Y254698D01*
X18987Y254860D01*
X19321Y255013D01*
X19660Y255158D01*
X20002Y255295D01*
X20347Y255423D01*
X20695Y255543D01*
X21046Y255654D01*
X21399Y255757D01*
X21755Y255850D01*
X22113Y255936D01*
X22474Y256012D01*
X22836Y256079D01*
X23199Y256138D01*
X23564Y256187D01*
X23930Y256228D01*
X24297Y256259D01*
X24664Y256282D01*
X25032Y256295D01*
X25400Y256300D01*
X25768Y256295D01*
X26136Y256282D01*
X26503Y256259D01*
X26870Y256228D01*
X27236Y256187D01*
X27601Y256138D01*
X27964Y256079D01*
X28326Y256012D01*
X28687Y255936D01*
X29045Y255850D01*
X29401Y255757D01*
X29754Y255654D01*
X30105Y255543D01*
X30453Y255423D01*
X30798Y255295D01*
X31140Y255158D01*
X31479Y255013D01*
X31813Y254860D01*
X32144Y254698D01*
X32471Y254529D01*
X32793Y254351D01*
X33112Y254166D01*
X33425Y253973D01*
X33734Y253772D01*
X34037Y253564D01*
X34335Y253348D01*
X34628Y253125D01*
X34916Y252895D01*
X35198Y252658D01*
X35473Y252414D01*
X35743Y252164D01*
X36007Y251907D01*
X36264Y251643D01*
X36514Y251373D01*
X36758Y251098D01*
X36995Y250816D01*
X37225Y250528D01*
X37448Y250235D01*
X37664Y249937D01*
X37872Y249634D01*
X38073Y249325D01*
X38266Y249012D01*
X38451Y248693D01*
X38629Y248371D01*
X38798Y248044D01*
X38960Y247713D01*
X39113Y247379D01*
X39258Y247040D01*
X39395Y246698D01*
X39523Y246353D01*
X39643Y246005D01*
X39754Y245654D01*
X39857Y245301D01*
X39950Y244945D01*
X40036Y244587D01*
X40112Y244226D01*
X40179Y243864D01*
X40238Y243501D01*
X40287Y243136D01*
X40328Y242770D01*
X40359Y242403D01*
X40382Y242036D01*
X40395Y241668D01*
X40400Y241300D01*
X40395Y240932D01*
X40382Y240564D01*
X40359Y240197D01*
X40328Y239830D01*
X40287Y239464D01*
X40238Y239099D01*
X40179Y238736D01*
X40112Y238374D01*
X40036Y238013D01*
X39950Y237655D01*
X39857Y237299D01*
X39754Y236946D01*
X39643Y236595D01*
X39523Y236247D01*
X39395Y235902D01*
X39258Y235560D01*
X39113Y235221D01*
X38960Y234887D01*
X38798Y234556D01*
X38629Y234229D01*
X38451Y233907D01*
X38266Y233588D01*
X38073Y233275D01*
X37872Y232966D01*
X37664Y232663D01*
X37448Y232365D01*
X37225Y232072D01*
X36995Y231784D01*
X36758Y231502D01*
X36514Y231227D01*
X36264Y230957D01*
X36007Y230693D01*
X35743Y230436D01*
X35473Y230186D01*
X35198Y229942D01*
X34916Y229705D01*
X34628Y229475D01*
X34335Y229252D01*
X34037Y229036D01*
X33734Y228828D01*
X33425Y228627D01*
X33112Y228434D01*
X32793Y228249D01*
X32471Y228071D01*
X32144Y227902D01*
X31813Y227740D01*
X31479Y227587D01*
X31140Y227442D01*
X30798Y227305D01*
X30453Y227177D01*
X30105Y227057D01*
X29754Y226946D01*
X29401Y226843D01*
X29045Y226750D01*
X28687Y226664D01*
X28326Y226588D01*
X27964Y226521D01*
X27601Y226462D01*
X27236Y226413D01*
X26870Y226372D01*
X26503Y226341D01*
X26136Y226318D01*
X25768Y226305D01*
X25400Y226300D01*
X25032Y226305D01*
X24664Y226318D01*
X24297Y226341D01*
X23930Y226372D01*
X23564Y226413D01*
X23199Y226462D01*
X22836Y226521D01*
X22474Y226588D01*
X22113Y226664D01*
X21755Y226750D01*
X21399Y226843D01*
X21046Y226946D01*
X20695Y227057D01*
X20347Y227177D01*
X20002Y227305D01*
X19660Y227442D01*
X19321Y227587D01*
X18987Y227740D01*
X18656Y227902D01*
X18329Y228071D01*
X18007Y228249D01*
X17688Y228434D01*
X17375Y228627D01*
X17066Y228828D01*
X16763Y229036D01*
X16465Y229252D01*
X16172Y229475D01*
X15884Y229705D01*
X15602Y229942D01*
X15327Y230186D01*
X15057Y230436D01*
X14793Y230693D01*
X14536Y230957D01*
X14286Y231227D01*
X14042Y231502D01*
X13805Y231784D01*
X13575Y232072D01*
X13352Y232365D01*
X13136Y232663D01*
X12928Y232966D01*
X12727Y233275D01*
X12534Y233588D01*
X12349Y233907D01*
X12171Y234229D01*
X12002Y234556D01*
X11840Y234887D01*
X11687Y235221D01*
X11542Y235560D01*
X11405Y235902D01*
X11277Y236247D01*
X11157Y236595D01*
X11046Y236946D01*
X10943Y237299D01*
X10850Y237655D01*
X10764Y238013D01*
X10688Y238374D01*
X10621Y238736D01*
X10562Y239099D01*
X10513Y239464D01*
X10472Y239830D01*
X10441Y240197D01*
X10418Y240564D01*
X10405Y240932D01*
X10400Y241300D01*
X-53100Y215900D02*
X-53095Y216268D01*
X-53082Y216636D01*
X-53059Y217003D01*
X-53028Y217370D01*
X-52987Y217736D01*
X-52938Y218101D01*
X-52879Y218464D01*
X-52812Y218826D01*
X-52736Y219187D01*
X-52650Y219545D01*
X-52557Y219901D01*
X-52454Y220254D01*
X-52343Y220605D01*
X-52223Y220953D01*
X-52095Y221298D01*
X-51958Y221640D01*
X-51813Y221979D01*
X-51660Y222313D01*
X-51498Y222644D01*
X-51329Y222971D01*
X-51151Y223293D01*
X-50966Y223612D01*
X-50773Y223925D01*
X-50572Y224234D01*
X-50364Y224537D01*
X-50148Y224835D01*
X-49925Y225128D01*
X-49695Y225416D01*
X-49458Y225698D01*
X-49214Y225973D01*
X-48964Y226243D01*
X-48707Y226507D01*
X-48443Y226764D01*
X-48173Y227014D01*
X-47898Y227258D01*
X-47616Y227495D01*
X-47328Y227725D01*
X-47035Y227948D01*
X-46737Y228164D01*
X-46434Y228372D01*
X-46125Y228573D01*
X-45812Y228766D01*
X-45493Y228951D01*
X-45171Y229129D01*
X-44844Y229298D01*
X-44513Y229460D01*
X-44179Y229613D01*
X-43840Y229758D01*
X-43498Y229895D01*
X-43153Y230023D01*
X-42805Y230143D01*
X-42454Y230254D01*
X-42101Y230357D01*
X-41745Y230450D01*
X-41387Y230536D01*
X-41026Y230612D01*
X-40664Y230679D01*
X-40301Y230738D01*
X-39936Y230787D01*
X-39570Y230828D01*
X-39203Y230859D01*
X-38836Y230882D01*
X-38468Y230895D01*
X-38100Y230900D01*
X-37732Y230895D01*
X-37364Y230882D01*
X-36997Y230859D01*
X-36630Y230828D01*
X-36264Y230787D01*
X-35899Y230738D01*
X-35536Y230679D01*
X-35174Y230612D01*
X-34813Y230536D01*
X-34455Y230450D01*
X-34099Y230357D01*
X-33746Y230254D01*
X-33395Y230143D01*
X-33047Y230023D01*
X-32702Y229895D01*
X-32360Y229758D01*
X-32021Y229613D01*
X-31687Y229460D01*
X-31356Y229298D01*
X-31029Y229129D01*
X-30707Y228951D01*
X-30388Y228766D01*
X-30075Y228573D01*
X-29766Y228372D01*
X-29463Y228164D01*
X-29165Y227948D01*
X-28872Y227725D01*
X-28584Y227495D01*
X-28302Y227258D01*
X-28027Y227014D01*
X-27757Y226764D01*
X-27493Y226507D01*
X-27236Y226243D01*
X-26986Y225973D01*
X-26742Y225698D01*
X-26505Y225416D01*
X-26275Y225128D01*
X-26052Y224835D01*
X-25836Y224537D01*
X-25628Y224234D01*
X-25427Y223925D01*
X-25234Y223612D01*
X-25049Y223293D01*
X-24871Y222971D01*
X-24702Y222644D01*
X-24540Y222313D01*
X-24387Y221979D01*
X-24242Y221640D01*
X-24105Y221298D01*
X-23977Y220953D01*
X-23857Y220605D01*
X-23746Y220254D01*
X-23643Y219901D01*
X-23550Y219545D01*
X-23464Y219187D01*
X-23388Y218826D01*
X-23321Y218464D01*
X-23262Y218101D01*
X-23213Y217736D01*
X-23172Y217370D01*
X-23141Y217003D01*
X-23118Y216636D01*
X-23105Y216268D01*
X-23100Y215900D01*
X-23105Y215532D01*
X-23118Y215164D01*
X-23141Y214797D01*
X-23172Y214430D01*
X-23213Y214064D01*
X-23262Y213699D01*
X-23321Y213336D01*
X-23388Y212974D01*
X-23464Y212613D01*
X-23550Y212255D01*
X-23643Y211899D01*
X-23746Y211546D01*
X-23857Y211195D01*
X-23977Y210847D01*
X-24105Y210502D01*
X-24242Y210160D01*
X-24387Y209821D01*
X-24540Y209487D01*
X-24702Y209156D01*
X-24871Y208829D01*
X-25049Y208507D01*
X-25234Y208188D01*
X-25427Y207875D01*
X-25628Y207566D01*
X-25836Y207263D01*
X-26052Y206965D01*
X-26275Y206672D01*
X-26505Y206384D01*
X-26742Y206102D01*
X-26986Y205827D01*
X-27236Y205557D01*
X-27493Y205293D01*
X-27757Y205036D01*
X-28027Y204786D01*
X-28302Y204542D01*
X-28584Y204305D01*
X-28872Y204075D01*
X-29165Y203852D01*
X-29463Y203636D01*
X-29766Y203428D01*
X-30075Y203227D01*
X-30388Y203034D01*
X-30707Y202849D01*
X-31029Y202671D01*
X-31356Y202502D01*
X-31687Y202340D01*
X-32021Y202187D01*
X-32360Y202042D01*
X-32702Y201905D01*
X-33047Y201777D01*
X-33395Y201657D01*
X-33746Y201546D01*
X-34099Y201443D01*
X-34455Y201350D01*
X-34813Y201264D01*
X-35174Y201188D01*
X-35536Y201121D01*
X-35899Y201062D01*
X-36264Y201013D01*
X-36630Y200972D01*
X-36997Y200941D01*
X-37364Y200918D01*
X-37732Y200905D01*
X-38100Y200900D01*
X-38468Y200905D01*
X-38836Y200918D01*
X-39203Y200941D01*
X-39570Y200972D01*
X-39936Y201013D01*
X-40301Y201062D01*
X-40664Y201121D01*
X-41026Y201188D01*
X-41387Y201264D01*
X-41745Y201350D01*
X-42101Y201443D01*
X-42454Y201546D01*
X-42805Y201657D01*
X-43153Y201777D01*
X-43498Y201905D01*
X-43840Y202042D01*
X-44179Y202187D01*
X-44513Y202340D01*
X-44844Y202502D01*
X-45171Y202671D01*
X-45493Y202849D01*
X-45812Y203034D01*
X-46125Y203227D01*
X-46434Y203428D01*
X-46737Y203636D01*
X-47035Y203852D01*
X-47328Y204075D01*
X-47616Y204305D01*
X-47898Y204542D01*
X-48173Y204786D01*
X-48443Y205036D01*
X-48707Y205293D01*
X-48964Y205557D01*
X-49214Y205827D01*
X-49458Y206102D01*
X-49695Y206384D01*
X-49925Y206672D01*
X-50148Y206965D01*
X-50364Y207263D01*
X-50572Y207566D01*
X-50773Y207875D01*
X-50966Y208188D01*
X-51151Y208507D01*
X-51329Y208829D01*
X-51498Y209156D01*
X-51660Y209487D01*
X-51813Y209821D01*
X-51958Y210160D01*
X-52095Y210502D01*
X-52223Y210847D01*
X-52343Y211195D01*
X-52454Y211546D01*
X-52557Y211899D01*
X-52650Y212255D01*
X-52736Y212613D01*
X-52812Y212974D01*
X-52879Y213336D01*
X-52938Y213699D01*
X-52987Y214064D01*
X-53028Y214430D01*
X-53059Y214797D01*
X-53082Y215164D01*
X-53095Y215532D01*
X-53100Y215900D01*
X-20002Y190500D02*
X-19996Y190991D01*
X-19978Y191481D01*
X-19948Y191971D01*
X-19906Y192461D01*
X-19852Y192948D01*
X-19786Y193435D01*
X-19708Y193920D01*
X-19618Y194402D01*
X-19516Y194882D01*
X-19403Y195360D01*
X-19277Y195835D01*
X-19141Y196306D01*
X-18992Y196774D01*
X-18833Y197238D01*
X-18662Y197699D01*
X-18479Y198154D01*
X-18286Y198606D01*
X-18082Y199052D01*
X-17866Y199493D01*
X-17640Y199929D01*
X-17403Y200359D01*
X-17156Y200783D01*
X-16899Y201201D01*
X-16631Y201613D01*
X-16353Y202017D01*
X-16066Y202415D01*
X-15769Y202806D01*
X-15462Y203189D01*
X-15146Y203565D01*
X-14821Y203933D01*
X-14486Y204292D01*
X-14144Y204644D01*
X-13792Y204986D01*
X-13433Y205321D01*
X-13065Y205646D01*
X-12689Y205962D01*
X-12306Y206269D01*
X-11915Y206566D01*
X-11517Y206853D01*
X-11113Y207131D01*
X-10701Y207399D01*
X-10283Y207656D01*
X-9859Y207903D01*
X-9429Y208140D01*
X-8993Y208366D01*
X-8552Y208582D01*
X-8106Y208786D01*
X-7654Y208979D01*
X-7199Y209162D01*
X-6738Y209333D01*
X-6274Y209492D01*
X-5806Y209641D01*
X-5335Y209777D01*
X-4860Y209903D01*
X-4382Y210016D01*
X-3902Y210118D01*
X-3420Y210208D01*
X-2935Y210286D01*
X-2448Y210352D01*
X-1961Y210406D01*
X-1471Y210448D01*
X-981Y210478D01*
X-491Y210496D01*
X0Y210502D01*
X491Y210496D01*
X981Y210478D01*
X1471Y210448D01*
X1961Y210406D01*
X2448Y210352D01*
X2935Y210286D01*
X3420Y210208D01*
X3902Y210118D01*
X4382Y210016D01*
X4860Y209903D01*
X5335Y209777D01*
X5806Y209641D01*
X6274Y209492D01*
X6738Y209333D01*
X7199Y209162D01*
X7654Y208979D01*
X8106Y208786D01*
X8552Y208582D01*
X8993Y208366D01*
X9429Y208140D01*
X9859Y207903D01*
X10283Y207656D01*
X10701Y207399D01*
X11113Y207131D01*
X11517Y206853D01*
X11915Y206566D01*
X12306Y206269D01*
X12689Y205962D01*
X13065Y205646D01*
X13433Y205321D01*
X13792Y204986D01*
X14144Y204644D01*
X14486Y204292D01*
X14821Y203933D01*
X15146Y203565D01*
X15462Y203189D01*
X15769Y202806D01*
X16066Y202415D01*
X16353Y202017D01*
X16631Y201613D01*
X16899Y201201D01*
X17156Y200783D01*
X17403Y200359D01*
X17640Y199929D01*
X17866Y199493D01*
X18082Y199052D01*
X18286Y198606D01*
X18479Y198154D01*
X18662Y197699D01*
X18833Y197238D01*
X18992Y196774D01*
X19141Y196306D01*
X19277Y195835D01*
X19403Y195360D01*
X19516Y194882D01*
X19618Y194402D01*
X19708Y193920D01*
X19786Y193435D01*
X19852Y192948D01*
X19906Y192461D01*
X19948Y191971D01*
X19978Y191481D01*
X19996Y190991D01*
X20002Y190500D01*
X19996Y190009D01*
X19978Y189519D01*
X19948Y189029D01*
X19906Y188539D01*
X19852Y188052D01*
X19786Y187565D01*
X19708Y187080D01*
X19618Y186598D01*
X19516Y186118D01*
X19403Y185640D01*
X19277Y185165D01*
X19141Y184694D01*
X18992Y184226D01*
X18833Y183762D01*
X18662Y183301D01*
X18479Y182846D01*
X18286Y182394D01*
X18082Y181948D01*
X17866Y181507D01*
X17640Y181071D01*
X17403Y180641D01*
X17156Y180217D01*
X16899Y179799D01*
X16631Y179387D01*
X16353Y178983D01*
X16066Y178585D01*
X15769Y178194D01*
X15462Y177811D01*
X15146Y177435D01*
X14821Y177067D01*
X14486Y176708D01*
X14144Y176356D01*
X13792Y176014D01*
X13433Y175679D01*
X13065Y175354D01*
X12689Y175038D01*
X12306Y174731D01*
X11915Y174434D01*
X11517Y174147D01*
X11113Y173869D01*
X10701Y173601D01*
X10283Y173344D01*
X9859Y173097D01*
X9429Y172860D01*
X8993Y172634D01*
X8552Y172418D01*
X8106Y172214D01*
X7654Y172021D01*
X7199Y171838D01*
X6738Y171667D01*
X6274Y171508D01*
X5806Y171359D01*
X5335Y171223D01*
X4860Y171097D01*
X4382Y170984D01*
X3902Y170882D01*
X3420Y170792D01*
X2935Y170714D01*
X2448Y170648D01*
X1961Y170594D01*
X1471Y170552D01*
X981Y170522D01*
X491Y170504D01*
X0Y170498D01*
X-491Y170504D01*
X-981Y170522D01*
X-1471Y170552D01*
X-1961Y170594D01*
X-2448Y170648D01*
X-2935Y170714D01*
X-3420Y170792D01*
X-3902Y170882D01*
X-4382Y170984D01*
X-4860Y171097D01*
X-5335Y171223D01*
X-5806Y171359D01*
X-6274Y171508D01*
X-6738Y171667D01*
X-7199Y171838D01*
X-7654Y172021D01*
X-8106Y172214D01*
X-8552Y172418D01*
X-8993Y172634D01*
X-9429Y172860D01*
X-9859Y173097D01*
X-10283Y173344D01*
X-10701Y173601D01*
X-11113Y173869D01*
X-11517Y174147D01*
X-11915Y174434D01*
X-12306Y174731D01*
X-12689Y175038D01*
X-13065Y175354D01*
X-13433Y175679D01*
X-13792Y176014D01*
X-14144Y176356D01*
X-14486Y176708D01*
X-14821Y177067D01*
X-15146Y177435D01*
X-15462Y177811D01*
X-15769Y178194D01*
X-16066Y178585D01*
X-16353Y178983D01*
X-16631Y179387D01*
X-16899Y179799D01*
X-17156Y180217D01*
X-17403Y180641D01*
X-17640Y181071D01*
X-17866Y181507D01*
X-18082Y181948D01*
X-18286Y182394D01*
X-18479Y182846D01*
X-18662Y183301D01*
X-18833Y183762D01*
X-18992Y184226D01*
X-19141Y184694D01*
X-19277Y185165D01*
X-19403Y185640D01*
X-19516Y186118D01*
X-19618Y186598D01*
X-19708Y187080D01*
X-19786Y187565D01*
X-19852Y188052D01*
X-19906Y188539D01*
X-19948Y189029D01*
X-19978Y189519D01*
X-19996Y190009D01*
X-20002Y190500D01*
X42300Y190500D02*
X42303Y190709D01*
X42310Y190917D01*
X42323Y191125D01*
X42341Y191333D01*
X42364Y191540D01*
X42392Y191747D01*
X42425Y191953D01*
X42463Y192158D01*
X42507Y192362D01*
X42555Y192565D01*
X42608Y192767D01*
X42666Y192967D01*
X42729Y193166D01*
X42797Y193364D01*
X42870Y193559D01*
X42947Y193753D01*
X43029Y193945D01*
X43116Y194134D01*
X43208Y194322D01*
X43304Y194507D01*
X43404Y194690D01*
X43509Y194870D01*
X43619Y195047D01*
X43733Y195222D01*
X43851Y195394D01*
X43973Y195563D01*
X44099Y195729D01*
X44229Y195892D01*
X44364Y196052D01*
X44502Y196208D01*
X44644Y196361D01*
X44790Y196510D01*
X44939Y196656D01*
X45092Y196798D01*
X45248Y196936D01*
X45408Y197071D01*
X45571Y197201D01*
X45737Y197327D01*
X45906Y197449D01*
X46078Y197567D01*
X46253Y197681D01*
X46430Y197791D01*
X46610Y197896D01*
X46793Y197996D01*
X46978Y198092D01*
X47166Y198184D01*
X47355Y198271D01*
X47547Y198353D01*
X47741Y198430D01*
X47936Y198503D01*
X48134Y198571D01*
X48333Y198634D01*
X48533Y198692D01*
X48735Y198745D01*
X48938Y198793D01*
X49142Y198837D01*
X49347Y198875D01*
X49553Y198908D01*
X49760Y198936D01*
X49967Y198959D01*
X50175Y198977D01*
X50383Y198990D01*
X50591Y198997D01*
X50800Y199000D01*
X51009Y198997D01*
X51217Y198990D01*
X51425Y198977D01*
X51633Y198959D01*
X51840Y198936D01*
X52047Y198908D01*
X52253Y198875D01*
X52458Y198837D01*
X52662Y198793D01*
X52865Y198745D01*
X53067Y198692D01*
X53267Y198634D01*
X53466Y198571D01*
X53664Y198503D01*
X53859Y198430D01*
X54053Y198353D01*
X54245Y198271D01*
X54434Y198184D01*
X54622Y198092D01*
X54807Y197996D01*
X54990Y197896D01*
X55170Y197791D01*
X55347Y197681D01*
X55522Y197567D01*
X55694Y197449D01*
X55863Y197327D01*
X56029Y197201D01*
X56192Y197071D01*
X56352Y196936D01*
X56508Y196798D01*
X56661Y196656D01*
X56810Y196510D01*
X56956Y196361D01*
X57098Y196208D01*
X57236Y196052D01*
X57371Y195892D01*
X57501Y195729D01*
X57627Y195563D01*
X57749Y195394D01*
X57867Y195222D01*
X57981Y195047D01*
X58091Y194870D01*
X58196Y194690D01*
X58296Y194507D01*
X58392Y194322D01*
X58484Y194134D01*
X58571Y193945D01*
X58653Y193753D01*
X58730Y193559D01*
X58803Y193364D01*
X58871Y193166D01*
X58934Y192967D01*
X58992Y192767D01*
X59045Y192565D01*
X59093Y192362D01*
X59137Y192158D01*
X59175Y191953D01*
X59208Y191747D01*
X59236Y191540D01*
X59259Y191333D01*
X59277Y191125D01*
X59290Y190917D01*
X59297Y190709D01*
X59300Y190500D01*
X59297Y190291D01*
X59290Y190083D01*
X59277Y189875D01*
X59259Y189667D01*
X59236Y189460D01*
X59208Y189253D01*
X59175Y189047D01*
X59137Y188842D01*
X59093Y188638D01*
X59045Y188435D01*
X58992Y188233D01*
X58934Y188033D01*
X58871Y187834D01*
X58803Y187636D01*
X58730Y187441D01*
X58653Y187247D01*
X58571Y187055D01*
X58484Y186866D01*
X58392Y186678D01*
X58296Y186493D01*
X58196Y186310D01*
X58091Y186130D01*
X57981Y185953D01*
X57867Y185778D01*
X57749Y185606D01*
X57627Y185437D01*
X57501Y185271D01*
X57371Y185108D01*
X57236Y184948D01*
X57098Y184792D01*
X56956Y184639D01*
X56810Y184490D01*
X56661Y184344D01*
X56508Y184202D01*
X56352Y184064D01*
X56192Y183929D01*
X56029Y183799D01*
X55863Y183673D01*
X55694Y183551D01*
X55522Y183433D01*
X55347Y183319D01*
X55170Y183209D01*
X54990Y183104D01*
X54807Y183004D01*
X54622Y182908D01*
X54434Y182816D01*
X54245Y182729D01*
X54053Y182647D01*
X53859Y182570D01*
X53664Y182497D01*
X53466Y182429D01*
X53267Y182366D01*
X53067Y182308D01*
X52865Y182255D01*
X52662Y182207D01*
X52458Y182163D01*
X52253Y182125D01*
X52047Y182092D01*
X51840Y182064D01*
X51633Y182041D01*
X51425Y182023D01*
X51217Y182010D01*
X51009Y182003D01*
X50800Y182000D01*
X50591Y182003D01*
X50383Y182010D01*
X50175Y182023D01*
X49967Y182041D01*
X49760Y182064D01*
X49553Y182092D01*
X49347Y182125D01*
X49142Y182163D01*
X48938Y182207D01*
X48735Y182255D01*
X48533Y182308D01*
X48333Y182366D01*
X48134Y182429D01*
X47936Y182497D01*
X47741Y182570D01*
X47547Y182647D01*
X47355Y182729D01*
X47166Y182816D01*
X46978Y182908D01*
X46793Y183004D01*
X46610Y183104D01*
X46430Y183209D01*
X46253Y183319D01*
X46078Y183433D01*
X45906Y183551D01*
X45737Y183673D01*
X45571Y183799D01*
X45408Y183929D01*
X45248Y184064D01*
X45092Y184202D01*
X44939Y184344D01*
X44790Y184490D01*
X44644Y184639D01*
X44502Y184792D01*
X44364Y184948D01*
X44229Y185108D01*
X44099Y185271D01*
X43973Y185437D01*
X43851Y185606D01*
X43733Y185778D01*
X43619Y185953D01*
X43509Y186130D01*
X43404Y186310D01*
X43304Y186493D01*
X43208Y186678D01*
X43116Y186866D01*
X43029Y187055D01*
X42947Y187247D01*
X42870Y187441D01*
X42797Y187636D01*
X42729Y187834D01*
X42666Y188033D01*
X42608Y188233D01*
X42555Y188435D01*
X42507Y188638D01*
X42463Y188842D01*
X42425Y189047D01*
X42392Y189253D01*
X42364Y189460D01*
X42341Y189667D01*
X42323Y189875D01*
X42310Y190083D01*
X42303Y190291D01*
X42300Y190500D01*
X-59300Y190500D02*
X-59297Y190709D01*
X-59290Y190917D01*
X-59277Y191125D01*
X-59259Y191333D01*
X-59236Y191540D01*
X-59208Y191747D01*
X-59175Y191953D01*
X-59137Y192158D01*
X-59093Y192362D01*
X-59045Y192565D01*
X-58992Y192767D01*
X-58934Y192967D01*
X-58871Y193166D01*
X-58803Y193364D01*
X-58730Y193559D01*
X-58653Y193753D01*
X-58571Y193945D01*
X-58484Y194134D01*
X-58392Y194322D01*
X-58296Y194507D01*
X-58196Y194690D01*
X-58091Y194870D01*
X-57981Y195047D01*
X-57867Y195222D01*
X-57749Y195394D01*
X-57627Y195563D01*
X-57501Y195729D01*
X-57371Y195892D01*
X-57236Y196052D01*
X-57098Y196208D01*
X-56956Y196361D01*
X-56810Y196510D01*
X-56661Y196656D01*
X-56508Y196798D01*
X-56352Y196936D01*
X-56192Y197071D01*
X-56029Y197201D01*
X-55863Y197327D01*
X-55694Y197449D01*
X-55522Y197567D01*
X-55347Y197681D01*
X-55170Y197791D01*
X-54990Y197896D01*
X-54807Y197996D01*
X-54622Y198092D01*
X-54434Y198184D01*
X-54245Y198271D01*
X-54053Y198353D01*
X-53859Y198430D01*
X-53664Y198503D01*
X-53466Y198571D01*
X-53267Y198634D01*
X-53067Y198692D01*
X-52865Y198745D01*
X-52662Y198793D01*
X-52458Y198837D01*
X-52253Y198875D01*
X-52047Y198908D01*
X-51840Y198936D01*
X-51633Y198959D01*
X-51425Y198977D01*
X-51217Y198990D01*
X-51009Y198997D01*
X-50800Y199000D01*
X-50591Y198997D01*
X-50383Y198990D01*
X-50175Y198977D01*
X-49967Y198959D01*
X-49760Y198936D01*
X-49553Y198908D01*
X-49347Y198875D01*
X-49142Y198837D01*
X-48938Y198793D01*
X-48735Y198745D01*
X-48533Y198692D01*
X-48333Y198634D01*
X-48134Y198571D01*
X-47936Y198503D01*
X-47741Y198430D01*
X-47547Y198353D01*
X-47355Y198271D01*
X-47166Y198184D01*
X-46978Y198092D01*
X-46793Y197996D01*
X-46610Y197896D01*
X-46430Y197791D01*
X-46253Y197681D01*
X-46078Y197567D01*
X-45906Y197449D01*
X-45737Y197327D01*
X-45571Y197201D01*
X-45408Y197071D01*
X-45248Y196936D01*
X-45092Y196798D01*
X-44939Y196656D01*
X-44790Y196510D01*
X-44644Y196361D01*
X-44502Y196208D01*
X-44364Y196052D01*
X-44229Y195892D01*
X-44099Y195729D01*
X-43973Y195563D01*
X-43851Y195394D01*
X-43733Y195222D01*
X-43619Y195047D01*
X-43509Y194870D01*
X-43404Y194690D01*
X-43304Y194507D01*
X-43208Y194322D01*
X-43116Y194134D01*
X-43029Y193945D01*
X-42947Y193753D01*
X-42870Y193559D01*
X-42797Y193364D01*
X-42729Y193166D01*
X-42666Y192967D01*
X-42608Y192767D01*
X-42555Y192565D01*
X-42507Y192362D01*
X-42463Y192158D01*
X-42425Y191953D01*
X-42392Y191747D01*
X-42364Y191540D01*
X-42341Y191333D01*
X-42323Y191125D01*
X-42310Y190917D01*
X-42303Y190709D01*
X-42300Y190500D01*
X-42303Y190291D01*
X-42310Y190083D01*
X-42323Y189875D01*
X-42341Y189667D01*
X-42364Y189460D01*
X-42392Y189253D01*
X-42425Y189047D01*
X-42463Y188842D01*
X-42507Y188638D01*
X-42555Y188435D01*
X-42608Y188233D01*
X-42666Y188033D01*
X-42729Y187834D01*
X-42797Y187636D01*
X-42870Y187441D01*
X-42947Y187247D01*
X-43029Y187055D01*
X-43116Y186866D01*
X-43208Y186678D01*
X-43304Y186493D01*
X-43404Y186310D01*
X-43509Y186130D01*
X-43619Y185953D01*
X-43733Y185778D01*
X-43851Y185606D01*
X-43973Y185437D01*
X-44099Y185271D01*
X-44229Y185108D01*
X-44364Y184948D01*
X-44502Y184792D01*
X-44644Y184639D01*
X-44790Y184490D01*
X-44939Y184344D01*
X-45092Y184202D01*
X-45248Y184064D01*
X-45408Y183929D01*
X-45571Y183799D01*
X-45737Y183673D01*
X-45906Y183551D01*
X-46078Y183433D01*
X-46253Y183319D01*
X-46430Y183209D01*
X-46610Y183104D01*
X-46793Y183004D01*
X-46978Y182908D01*
X-47166Y182816D01*
X-47355Y182729D01*
X-47547Y182647D01*
X-47741Y182570D01*
X-47936Y182497D01*
X-48134Y182429D01*
X-48333Y182366D01*
X-48533Y182308D01*
X-48735Y182255D01*
X-48938Y182207D01*
X-49142Y182163D01*
X-49347Y182125D01*
X-49553Y182092D01*
X-49760Y182064D01*
X-49967Y182041D01*
X-50175Y182023D01*
X-50383Y182010D01*
X-50591Y182003D01*
X-50800Y182000D01*
X-51009Y182003D01*
X-51217Y182010D01*
X-51425Y182023D01*
X-51633Y182041D01*
X-51840Y182064D01*
X-52047Y182092D01*
X-52253Y182125D01*
X-52458Y182163D01*
X-52662Y182207D01*
X-52865Y182255D01*
X-53067Y182308D01*
X-53267Y182366D01*
X-53466Y182429D01*
X-53664Y182497D01*
X-53859Y182570D01*
X-54053Y182647D01*
X-54245Y182729D01*
X-54434Y182816D01*
X-54622Y182908D01*
X-54807Y183004D01*
X-54990Y183104D01*
X-55170Y183209D01*
X-55347Y183319D01*
X-55522Y183433D01*
X-55694Y183551D01*
X-55863Y183673D01*
X-56029Y183799D01*
X-56192Y183929D01*
X-56352Y184064D01*
X-56508Y184202D01*
X-56661Y184344D01*
X-56810Y184490D01*
X-56956Y184639D01*
X-57098Y184792D01*
X-57236Y184948D01*
X-57371Y185108D01*
X-57501Y185271D01*
X-57627Y185437D01*
X-57749Y185606D01*
X-57867Y185778D01*
X-57981Y185953D01*
X-58091Y186130D01*
X-58196Y186310D01*
X-58296Y186493D01*
X-58392Y186678D01*
X-58484Y186866D01*
X-58571Y187055D01*
X-58653Y187247D01*
X-58730Y187441D01*
X-58803Y187636D01*
X-58871Y187834D01*
X-58934Y188033D01*
X-58992Y188233D01*
X-59045Y188435D01*
X-59093Y188638D01*
X-59137Y188842D01*
X-59175Y189047D01*
X-59208Y189253D01*
X-59236Y189460D01*
X-59259Y189667D01*
X-59277Y189875D01*
X-59290Y190083D01*
X-59297Y190291D01*
X-59300Y190500D01*
X10400Y50800D02*
X10405Y51168D01*
X10418Y51536D01*
X10441Y51903D01*
X10472Y52270D01*
X10513Y52636D01*
X10562Y53001D01*
X10621Y53364D01*
X10688Y53726D01*
X10764Y54087D01*
X10850Y54445D01*
X10943Y54801D01*
X11046Y55154D01*
X11157Y55505D01*
X11277Y55853D01*
X11405Y56198D01*
X11542Y56540D01*
X11687Y56879D01*
X11840Y57213D01*
X12002Y57544D01*
X12171Y57871D01*
X12349Y58193D01*
X12534Y58512D01*
X12727Y58825D01*
X12928Y59134D01*
X13136Y59437D01*
X13352Y59735D01*
X13575Y60028D01*
X13805Y60316D01*
X14042Y60598D01*
X14286Y60873D01*
X14536Y61143D01*
X14793Y61407D01*
X15057Y61664D01*
X15327Y61914D01*
X15602Y62158D01*
X15884Y62395D01*
X16172Y62625D01*
X16465Y62848D01*
X16763Y63064D01*
X17066Y63272D01*
X17375Y63473D01*
X17688Y63666D01*
X18007Y63851D01*
X18329Y64029D01*
X18656Y64198D01*
X18987Y64360D01*
X19321Y64513D01*
X19660Y64658D01*
X20002Y64795D01*
X20347Y64923D01*
X20695Y65043D01*
X21046Y65154D01*
X21399Y65257D01*
X21755Y65350D01*
X22113Y65436D01*
X22474Y65512D01*
X22836Y65579D01*
X23199Y65638D01*
X23564Y65687D01*
X23930Y65728D01*
X24297Y65759D01*
X24664Y65782D01*
X25032Y65795D01*
X25400Y65800D01*
X25768Y65795D01*
X26136Y65782D01*
X26503Y65759D01*
X26870Y65728D01*
X27236Y65687D01*
X27601Y65638D01*
X27964Y65579D01*
X28326Y65512D01*
X28687Y65436D01*
X29045Y65350D01*
X29401Y65257D01*
X29754Y65154D01*
X30105Y65043D01*
X30453Y64923D01*
X30798Y64795D01*
X31140Y64658D01*
X31479Y64513D01*
X31813Y64360D01*
X32144Y64198D01*
X32471Y64029D01*
X32793Y63851D01*
X33112Y63666D01*
X33425Y63473D01*
X33734Y63272D01*
X34037Y63064D01*
X34335Y62848D01*
X34628Y62625D01*
X34916Y62395D01*
X35198Y62158D01*
X35473Y61914D01*
X35743Y61664D01*
X36007Y61407D01*
X36264Y61143D01*
X36514Y60873D01*
X36758Y60598D01*
X36995Y60316D01*
X37225Y60028D01*
X37448Y59735D01*
X37664Y59437D01*
X37872Y59134D01*
X38073Y58825D01*
X38266Y58512D01*
X38451Y58193D01*
X38629Y57871D01*
X38798Y57544D01*
X38960Y57213D01*
X39113Y56879D01*
X39258Y56540D01*
X39395Y56198D01*
X39523Y55853D01*
X39643Y55505D01*
X39754Y55154D01*
X39857Y54801D01*
X39950Y54445D01*
X40036Y54087D01*
X40112Y53726D01*
X40179Y53364D01*
X40238Y53001D01*
X40287Y52636D01*
X40328Y52270D01*
X40359Y51903D01*
X40382Y51536D01*
X40395Y51168D01*
X40400Y50800D01*
X40395Y50432D01*
X40382Y50064D01*
X40359Y49697D01*
X40328Y49330D01*
X40287Y48964D01*
X40238Y48599D01*
X40179Y48236D01*
X40112Y47874D01*
X40036Y47513D01*
X39950Y47155D01*
X39857Y46799D01*
X39754Y46446D01*
X39643Y46095D01*
X39523Y45747D01*
X39395Y45402D01*
X39258Y45060D01*
X39113Y44721D01*
X38960Y44387D01*
X38798Y44056D01*
X38629Y43729D01*
X38451Y43407D01*
X38266Y43088D01*
X38073Y42775D01*
X37872Y42466D01*
X37664Y42163D01*
X37448Y41865D01*
X37225Y41572D01*
X36995Y41284D01*
X36758Y41002D01*
X36514Y40727D01*
X36264Y40457D01*
X36007Y40193D01*
X35743Y39936D01*
X35473Y39686D01*
X35198Y39442D01*
X34916Y39205D01*
X34628Y38975D01*
X34335Y38752D01*
X34037Y38536D01*
X33734Y38328D01*
X33425Y38127D01*
X33112Y37934D01*
X32793Y37749D01*
X32471Y37571D01*
X32144Y37402D01*
X31813Y37240D01*
X31479Y37087D01*
X31140Y36942D01*
X30798Y36805D01*
X30453Y36677D01*
X30105Y36557D01*
X29754Y36446D01*
X29401Y36343D01*
X29045Y36250D01*
X28687Y36164D01*
X28326Y36088D01*
X27964Y36021D01*
X27601Y35962D01*
X27236Y35913D01*
X26870Y35872D01*
X26503Y35841D01*
X26136Y35818D01*
X25768Y35805D01*
X25400Y35800D01*
X25032Y35805D01*
X24664Y35818D01*
X24297Y35841D01*
X23930Y35872D01*
X23564Y35913D01*
X23199Y35962D01*
X22836Y36021D01*
X22474Y36088D01*
X22113Y36164D01*
X21755Y36250D01*
X21399Y36343D01*
X21046Y36446D01*
X20695Y36557D01*
X20347Y36677D01*
X20002Y36805D01*
X19660Y36942D01*
X19321Y37087D01*
X18987Y37240D01*
X18656Y37402D01*
X18329Y37571D01*
X18007Y37749D01*
X17688Y37934D01*
X17375Y38127D01*
X17066Y38328D01*
X16763Y38536D01*
X16465Y38752D01*
X16172Y38975D01*
X15884Y39205D01*
X15602Y39442D01*
X15327Y39686D01*
X15057Y39936D01*
X14793Y40193D01*
X14536Y40457D01*
X14286Y40727D01*
X14042Y41002D01*
X13805Y41284D01*
X13575Y41572D01*
X13352Y41865D01*
X13136Y42163D01*
X12928Y42466D01*
X12727Y42775D01*
X12534Y43088D01*
X12349Y43407D01*
X12171Y43729D01*
X12002Y44056D01*
X11840Y44387D01*
X11687Y44721D01*
X11542Y45060D01*
X11405Y45402D01*
X11277Y45747D01*
X11157Y46095D01*
X11046Y46446D01*
X10943Y46799D01*
X10850Y47155D01*
X10764Y47513D01*
X10688Y47874D01*
X10621Y48236D01*
X10562Y48599D01*
X10513Y48964D01*
X10472Y49330D01*
X10441Y49697D01*
X10418Y50064D01*
X10405Y50432D01*
X10400Y50800D01*
X-53100Y25400D02*
X-53095Y25768D01*
X-53082Y26136D01*
X-53059Y26503D01*
X-53028Y26870D01*
X-52987Y27236D01*
X-52938Y27601D01*
X-52879Y27964D01*
X-52812Y28326D01*
X-52736Y28687D01*
X-52650Y29045D01*
X-52557Y29401D01*
X-52454Y29754D01*
X-52343Y30105D01*
X-52223Y30453D01*
X-52095Y30798D01*
X-51958Y31140D01*
X-51813Y31479D01*
X-51660Y31813D01*
X-51498Y32144D01*
X-51329Y32471D01*
X-51151Y32793D01*
X-50966Y33112D01*
X-50773Y33425D01*
X-50572Y33734D01*
X-50364Y34037D01*
X-50148Y34335D01*
X-49925Y34628D01*
X-49695Y34916D01*
X-49458Y35198D01*
X-49214Y35473D01*
X-48964Y35743D01*
X-48707Y36007D01*
X-48443Y36264D01*
X-48173Y36514D01*
X-47898Y36758D01*
X-47616Y36995D01*
X-47328Y37225D01*
X-47035Y37448D01*
X-46737Y37664D01*
X-46434Y37872D01*
X-46125Y38073D01*
X-45812Y38266D01*
X-45493Y38451D01*
X-45171Y38629D01*
X-44844Y38798D01*
X-44513Y38960D01*
X-44179Y39113D01*
X-43840Y39258D01*
X-43498Y39395D01*
X-43153Y39523D01*
X-42805Y39643D01*
X-42454Y39754D01*
X-42101Y39857D01*
X-41745Y39950D01*
X-41387Y40036D01*
X-41026Y40112D01*
X-40664Y40179D01*
X-40301Y40238D01*
X-39936Y40287D01*
X-39570Y40328D01*
X-39203Y40359D01*
X-38836Y40382D01*
X-38468Y40395D01*
X-38100Y40400D01*
X-37732Y40395D01*
X-37364Y40382D01*
X-36997Y40359D01*
X-36630Y40328D01*
X-36264Y40287D01*
X-35899Y40238D01*
X-35536Y40179D01*
X-35174Y40112D01*
X-34813Y40036D01*
X-34455Y39950D01*
X-34099Y39857D01*
X-33746Y39754D01*
X-33395Y39643D01*
X-33047Y39523D01*
X-32702Y39395D01*
X-32360Y39258D01*
X-32021Y39113D01*
X-31687Y38960D01*
X-31356Y38798D01*
X-31029Y38629D01*
X-30707Y38451D01*
X-30388Y38266D01*
X-30075Y38073D01*
X-29766Y37872D01*
X-29463Y37664D01*
X-29165Y37448D01*
X-28872Y37225D01*
X-28584Y36995D01*
X-28302Y36758D01*
X-28027Y36514D01*
X-27757Y36264D01*
X-27493Y36007D01*
X-27236Y35743D01*
X-26986Y35473D01*
X-26742Y35198D01*
X-26505Y34916D01*
X-26275Y34628D01*
X-26052Y34335D01*
X-25836Y34037D01*
X-25628Y33734D01*
X-25427Y33425D01*
X-25234Y33112D01*
X-25049Y32793D01*
X-24871Y32471D01*
X-24702Y32144D01*
X-24540Y31813D01*
X-24387Y31479D01*
X-24242Y31140D01*
X-24105Y30798D01*
X-23977Y30453D01*
X-23857Y30105D01*
X-23746Y29754D01*
X-23643Y29401D01*
X-23550Y29045D01*
X-23464Y28687D01*
X-23388Y28326D01*
X-23321Y27964D01*
X-23262Y27601D01*
X-23213Y27236D01*
X-23172Y26870D01*
X-23141Y26503D01*
X-23118Y26136D01*
X-23105Y25768D01*
X-23100Y25400D01*
X-23105Y25032D01*
X-23118Y24664D01*
X-23141Y24297D01*
X-23172Y23930D01*
X-23213Y23564D01*
X-23262Y23199D01*
X-23321Y22836D01*
X-23388Y22474D01*
X-23464Y22113D01*
X-23550Y21755D01*
X-23643Y21399D01*
X-23746Y21046D01*
X-23857Y20695D01*
X-23977Y20347D01*
X-24105Y20002D01*
X-24242Y19660D01*
X-24387Y19321D01*
X-24540Y18987D01*
X-24702Y18656D01*
X-24871Y18329D01*
X-25049Y18007D01*
X-25234Y17688D01*
X-25427Y17375D01*
X-25628Y17066D01*
X-25836Y16763D01*
X-26052Y16465D01*
X-26275Y16172D01*
X-26505Y15884D01*
X-26742Y15602D01*
X-26986Y15327D01*
X-27236Y15057D01*
X-27493Y14793D01*
X-27757Y14536D01*
X-28027Y14286D01*
X-28302Y14042D01*
X-28584Y13805D01*
X-28872Y13575D01*
X-29165Y13352D01*
X-29463Y13136D01*
X-29766Y12928D01*
X-30075Y12727D01*
X-30388Y12534D01*
X-30707Y12349D01*
X-31029Y12171D01*
X-31356Y12002D01*
X-31687Y11840D01*
X-32021Y11687D01*
X-32360Y11542D01*
X-32702Y11405D01*
X-33047Y11277D01*
X-33395Y11157D01*
X-33746Y11046D01*
X-34099Y10943D01*
X-34455Y10850D01*
X-34813Y10764D01*
X-35174Y10688D01*
X-35536Y10621D01*
X-35899Y10562D01*
X-36264Y10513D01*
X-36630Y10472D01*
X-36997Y10441D01*
X-37364Y10418D01*
X-37732Y10405D01*
X-38100Y10400D01*
X-38468Y10405D01*
X-38836Y10418D01*
X-39203Y10441D01*
X-39570Y10472D01*
X-39936Y10513D01*
X-40301Y10562D01*
X-40664Y10621D01*
X-41026Y10688D01*
X-41387Y10764D01*
X-41745Y10850D01*
X-42101Y10943D01*
X-42454Y11046D01*
X-42805Y11157D01*
X-43153Y11277D01*
X-43498Y11405D01*
X-43840Y11542D01*
X-44179Y11687D01*
X-44513Y11840D01*
X-44844Y12002D01*
X-45171Y12171D01*
X-45493Y12349D01*
X-45812Y12534D01*
X-46125Y12727D01*
X-46434Y12928D01*
X-46737Y13136D01*
X-47035Y13352D01*
X-47328Y13575D01*
X-47616Y13805D01*
X-47898Y14042D01*
X-48173Y14286D01*
X-48443Y14536D01*
X-48707Y14793D01*
X-48964Y15057D01*
X-49214Y15327D01*
X-49458Y15602D01*
X-49695Y15884D01*
X-49925Y16172D01*
X-50148Y16465D01*
X-50364Y16763D01*
X-50572Y17066D01*
X-50773Y17375D01*
X-50966Y17688D01*
X-51151Y18007D01*
X-51329Y18329D01*
X-51498Y18656D01*
X-51660Y18987D01*
X-51813Y19321D01*
X-51958Y19660D01*
X-52095Y20002D01*
X-52223Y20347D01*
X-52343Y20695D01*
X-52454Y21046D01*
X-52557Y21399D01*
X-52650Y21755D01*
X-52736Y22113D01*
X-52812Y22474D01*
X-52879Y22836D01*
X-52938Y23199D01*
X-52987Y23564D01*
X-53028Y23930D01*
X-53059Y24297D01*
X-53082Y24664D01*
X-53095Y25032D01*
X-53100Y25400D01*
X-20002Y0D02*
X-19996Y491D01*
X-19978Y981D01*
X-19948Y1471D01*
X-19906Y1961D01*
X-19852Y2448D01*
X-19786Y2935D01*
X-19708Y3420D01*
X-19618Y3902D01*
X-19516Y4382D01*
X-19403Y4860D01*
X-19277Y5335D01*
X-19141Y5806D01*
X-18992Y6274D01*
X-18833Y6738D01*
X-18662Y7199D01*
X-18479Y7654D01*
X-18286Y8106D01*
X-18082Y8552D01*
X-17866Y8993D01*
X-17640Y9429D01*
X-17403Y9859D01*
X-17156Y10283D01*
X-16899Y10701D01*
X-16631Y11113D01*
X-16353Y11517D01*
X-16066Y11915D01*
X-15769Y12306D01*
X-15462Y12689D01*
X-15146Y13065D01*
X-14821Y13433D01*
X-14486Y13792D01*
X-14144Y14144D01*
X-13792Y14486D01*
X-13433Y14821D01*
X-13065Y15146D01*
X-12689Y15462D01*
X-12306Y15769D01*
X-11915Y16066D01*
X-11517Y16353D01*
X-11113Y16631D01*
X-10701Y16899D01*
X-10283Y17156D01*
X-9859Y17403D01*
X-9429Y17640D01*
X-8993Y17866D01*
X-8552Y18082D01*
X-8106Y18286D01*
X-7654Y18479D01*
X-7199Y18662D01*
X-6738Y18833D01*
X-6274Y18992D01*
X-5806Y19141D01*
X-5335Y19277D01*
X-4860Y19403D01*
X-4382Y19516D01*
X-3902Y19618D01*
X-3420Y19708D01*
X-2935Y19786D01*
X-2448Y19852D01*
X-1961Y19906D01*
X-1471Y19948D01*
X-981Y19978D01*
X-491Y19996D01*
X0Y20002D01*
X491Y19996D01*
X981Y19978D01*
X1471Y19948D01*
X1961Y19906D01*
X2448Y19852D01*
X2935Y19786D01*
X3420Y19708D01*
X3902Y19618D01*
X4382Y19516D01*
X4860Y19403D01*
X5335Y19277D01*
X5806Y19141D01*
X6274Y18992D01*
X6738Y18833D01*
X7199Y18662D01*
X7654Y18479D01*
X8106Y18286D01*
X8552Y18082D01*
X8993Y17866D01*
X9429Y17640D01*
X9859Y17403D01*
X10283Y17156D01*
X10701Y16899D01*
X11113Y16631D01*
X11517Y16353D01*
X11915Y16066D01*
X12306Y15769D01*
X12689Y15462D01*
X13065Y15146D01*
X13433Y14821D01*
X13792Y14486D01*
X14144Y14144D01*
X14486Y13792D01*
X14821Y13433D01*
X15146Y13065D01*
X15462Y12689D01*
X15769Y12306D01*
X16066Y11915D01*
X16353Y11517D01*
X16631Y11113D01*
X16899Y10701D01*
X17156Y10283D01*
X17403Y9859D01*
X17640Y9429D01*
X17866Y8993D01*
X18082Y8552D01*
X18286Y8106D01*
X18479Y7654D01*
X18662Y7199D01*
X18833Y6738D01*
X18992Y6274D01*
X19141Y5806D01*
X19277Y5335D01*
X19403Y4860D01*
X19516Y4382D01*
X19618Y3902D01*
X19708Y3420D01*
X19786Y2935D01*
X19852Y2448D01*
X19906Y1961D01*
X19948Y1471D01*
X19978Y981D01*
X19996Y491D01*
X20002Y0D01*
X19996Y-491D01*
X19978Y-981D01*
X19948Y-1471D01*
X19906Y-1961D01*
X19852Y-2448D01*
X19786Y-2935D01*
X19708Y-3420D01*
X19618Y-3902D01*
X19516Y-4382D01*
X19403Y-4860D01*
X19277Y-5335D01*
X19141Y-5806D01*
X18992Y-6274D01*
X18833Y-6738D01*
X18662Y-7199D01*
X18479Y-7654D01*
X18286Y-8106D01*
X18082Y-8552D01*
X17866Y-8993D01*
X17640Y-9429D01*
X17403Y-9859D01*
X17156Y-10283D01*
X16899Y-10701D01*
X16631Y-11113D01*
X16353Y-11517D01*
X16066Y-11915D01*
X15769Y-12306D01*
X15462Y-12689D01*
X15146Y-13065D01*
X14821Y-13433D01*
X14486Y-13792D01*
X14144Y-14144D01*
X13792Y-14486D01*
X13433Y-14821D01*
X13065Y-15146D01*
X12689Y-15462D01*
X12306Y-15769D01*
X11915Y-16066D01*
X11517Y-16353D01*
X11113Y-16631D01*
X10701Y-16899D01*
X10283Y-17156D01*
X9859Y-17403D01*
X9429Y-17640D01*
X8993Y-17866D01*
X8552Y-18082D01*
X8106Y-18286D01*
X7654Y-18479D01*
X7199Y-18662D01*
X6738Y-18833D01*
X6274Y-18992D01*
X5806Y-19141D01*
X5335Y-19277D01*
X4860Y-19403D01*
X4382Y-19516D01*
X3902Y-19618D01*
X3420Y-19708D01*
X2935Y-19786D01*
X2448Y-19852D01*
X1961Y-19906D01*
X1471Y-19948D01*
X981Y-19978D01*
X491Y-19996D01*
X0Y-20002D01*
X-491Y-19996D01*
X-981Y-19978D01*
X-1471Y-19948D01*
X-1961Y-19906D01*
X-2448Y-19852D01*
X-2935Y-19786D01*
X-3420Y-19708D01*
X-3902Y-19618D01*
X-4382Y-19516D01*
X-4860Y-19403D01*
X-5335Y-19277D01*
X-5806Y-19141D01*
X-6274Y-18992D01*
X-6738Y-18833D01*
X-7199Y-18662D01*
X-7654Y-18479D01*
X-8106Y-18286D01*
X-8552Y-18082D01*
X-8993Y-17866D01*
X-9429Y-17640D01*
X-9859Y-17403D01*
X-10283Y-17156D01*
X-10701Y-16899D01*
X-11113Y-16631D01*
X-11517Y-16353D01*
X-11915Y-16066D01*
X-12306Y-15769D01*
X-12689Y-15462D01*
X-13065Y-15146D01*
X-13433Y-14821D01*
X-13792Y-14486D01*
X-14144Y-14144D01*
X-14486Y-13792D01*
X-14821Y-13433D01*
X-15146Y-13065D01*
X-15462Y-12689D01*
X-15769Y-12306D01*
X-16066Y-11915D01*
X-16353Y-11517D01*
X-16631Y-11113D01*
X-16899Y-10701D01*
X-17156Y-10283D01*
X-17403Y-9859D01*
X-17640Y-9429D01*
X-17866Y-8993D01*
X-18082Y-8552D01*
X-18286Y-8106D01*
X-18479Y-7654D01*
X-18662Y-7199D01*
X-18833Y-6738D01*
X-18992Y-6274D01*
X-19141Y-5806D01*
X-19277Y-5335D01*
X-19403Y-4860D01*
X-19516Y-4382D01*
X-19618Y-3902D01*
X-19708Y-3420D01*
X-19786Y-2935D01*
X-19852Y-2448D01*
X-19906Y-1961D01*
X-19948Y-1471D01*
X-19978Y-981D01*
X-19996Y-491D01*
X-20002Y0D01*
X42300Y0D02*
X42303Y209D01*
X42310Y417D01*
X42323Y625D01*
X42341Y833D01*
X42364Y1040D01*
X42392Y1247D01*
X42425Y1453D01*
X42463Y1658D01*
X42507Y1862D01*
X42555Y2065D01*
X42608Y2267D01*
X42666Y2467D01*
X42729Y2666D01*
X42797Y2864D01*
X42870Y3059D01*
X42947Y3253D01*
X43029Y3445D01*
X43116Y3634D01*
X43208Y3822D01*
X43304Y4007D01*
X43404Y4190D01*
X43509Y4370D01*
X43619Y4547D01*
X43733Y4722D01*
X43851Y4894D01*
X43973Y5063D01*
X44099Y5229D01*
X44229Y5392D01*
X44364Y5552D01*
X44502Y5708D01*
X44644Y5861D01*
X44790Y6010D01*
X44939Y6156D01*
X45092Y6298D01*
X45248Y6436D01*
X45408Y6571D01*
X45571Y6701D01*
X45737Y6827D01*
X45906Y6949D01*
X46078Y7067D01*
X46253Y7181D01*
X46430Y7291D01*
X46610Y7396D01*
X46793Y7496D01*
X46978Y7592D01*
X47166Y7684D01*
X47355Y7771D01*
X47547Y7853D01*
X47741Y7930D01*
X47936Y8003D01*
X48134Y8071D01*
X48333Y8134D01*
X48533Y8192D01*
X48735Y8245D01*
X48938Y8293D01*
X49142Y8337D01*
X49347Y8375D01*
X49553Y8408D01*
X49760Y8436D01*
X49967Y8459D01*
X50175Y8477D01*
X50383Y8490D01*
X50591Y8497D01*
X50800Y8500D01*
X51009Y8497D01*
X51217Y8490D01*
X51425Y8477D01*
X51633Y8459D01*
X51840Y8436D01*
X52047Y8408D01*
X52253Y8375D01*
X52458Y8337D01*
X52662Y8293D01*
X52865Y8245D01*
X53067Y8192D01*
X53267Y8134D01*
X53466Y8071D01*
X53664Y8003D01*
X53859Y7930D01*
X54053Y7853D01*
X54245Y7771D01*
X54434Y7684D01*
X54622Y7592D01*
X54807Y7496D01*
X54990Y7396D01*
X55170Y7291D01*
X55347Y7181D01*
X55522Y7067D01*
X55694Y6949D01*
X55863Y6827D01*
X56029Y6701D01*
X56192Y6571D01*
X56352Y6436D01*
X56508Y6298D01*
X56661Y6156D01*
X56810Y6010D01*
X56956Y5861D01*
X57098Y5708D01*
X57236Y5552D01*
X57371Y5392D01*
X57501Y5229D01*
X57627Y5063D01*
X57749Y4894D01*
X57867Y4722D01*
X57981Y4547D01*
X58091Y4370D01*
X58196Y4190D01*
X58296Y4007D01*
X58392Y3822D01*
X58484Y3634D01*
X58571Y3445D01*
X58653Y3253D01*
X58730Y3059D01*
X58803Y2864D01*
X58871Y2666D01*
X58934Y2467D01*
X58992Y2267D01*
X59045Y2065D01*
X59093Y1862D01*
X59137Y1658D01*
X59175Y1453D01*
X59208Y1247D01*
X59236Y1040D01*
X59259Y833D01*
X59277Y625D01*
X59290Y417D01*
X59297Y209D01*
X59300Y0D01*
X59297Y-209D01*
X59290Y-417D01*
X59277Y-625D01*
X59259Y-833D01*
X59236Y-1040D01*
X59208Y-1247D01*
X59175Y-1453D01*
X59137Y-1658D01*
X59093Y-1862D01*
X59045Y-2065D01*
X58992Y-2267D01*
X58934Y-2467D01*
X58871Y-2666D01*
X58803Y-2864D01*
X58730Y-3059D01*
X58653Y-3253D01*
X58571Y-3445D01*
X58484Y-3634D01*
X58392Y-3822D01*
X58296Y-4007D01*
X58196Y-4190D01*
X58091Y-4370D01*
X57981Y-4547D01*
X57867Y-4722D01*
X57749Y-4894D01*
X57627Y-5063D01*
X57501Y-5229D01*
X57371Y-5392D01*
X57236Y-5552D01*
X57098Y-5708D01*
X56956Y-5861D01*
X56810Y-6010D01*
X56661Y-6156D01*
X56508Y-6298D01*
X56352Y-6436D01*
X56192Y-6571D01*
X56029Y-6701D01*
X55863Y-6827D01*
X55694Y-6949D01*
X55522Y-7067D01*
X55347Y-7181D01*
X55170Y-7291D01*
X54990Y-7396D01*
X54807Y-7496D01*
X54622Y-7592D01*
X54434Y-7684D01*
X54245Y-7771D01*
X54053Y-7853D01*
X53859Y-7930D01*
X53664Y-8003D01*
X53466Y-8071D01*
X53267Y-8134D01*
X53067Y-8192D01*
X52865Y-8245D01*
X52662Y-8293D01*
X52458Y-8337D01*
X52253Y-8375D01*
X52047Y-8408D01*
X51840Y-8436D01*
X51633Y-8459D01*
X51425Y-8477D01*
X51217Y-8490D01*
X51009Y-8497D01*
X50800Y-8500D01*
X50591Y-8497D01*
X50383Y-8490D01*
X50175Y-8477D01*
X49967Y-8459D01*
X49760Y-8436D01*
X49553Y-8408D01*
X49347Y-8375D01*
X49142Y-8337D01*
X48938Y-8293D01*
X48735Y-8245D01*
X48533Y-8192D01*
X48333Y-8134D01*
X48134Y-8071D01*
X47936Y-8003D01*
X47741Y-7930D01*
X47547Y-7853D01*
X47355Y-7771D01*
X47166Y-7684D01*
X46978Y-7592D01*
X46793Y-7496D01*
X46610Y-7396D01*
X46430Y-7291D01*
X46253Y-7181D01*
X46078Y-7067D01*
X45906Y-6949D01*
X45737Y-6827D01*
X45571Y-6701D01*
X45408Y-6571D01*
X45248Y-6436D01*
X45092Y-6298D01*
X44939Y-6156D01*
X44790Y-6010D01*
X44644Y-5861D01*
X44502Y-5708D01*
X44364Y-5552D01*
X44229Y-5392D01*
X44099Y-5229D01*
X43973Y-5063D01*
X43851Y-4894D01*
X43733Y-4722D01*
X43619Y-4547D01*
X43509Y-4370D01*
X43404Y-4190D01*
X43304Y-4007D01*
X43208Y-3822D01*
X43116Y-3634D01*
X43029Y-3445D01*
X42947Y-3253D01*
X42870Y-3059D01*
X42797Y-2864D01*
X42729Y-2666D01*
X42666Y-2467D01*
X42608Y-2267D01*
X42555Y-2065D01*
X42507Y-1862D01*
X42463Y-1658D01*
X42425Y-1453D01*
X42392Y-1247D01*
X42364Y-1040D01*
X42341Y-833D01*
X42323Y-625D01*
X42310Y-417D01*
X42303Y-209D01*
X42300Y0D01*
X-59300Y0D02*
X-59297Y209D01*
X-59290Y417D01*
X-59277Y625D01*
X-59259Y833D01*
X-59236Y1040D01*
X-59208Y1247D01*
X-59175Y1453D01*
X-59137Y1658D01*
X-59093Y1862D01*
X-59045Y2065D01*
X-58992Y2267D01*
X-58934Y2467D01*
X-58871Y2666D01*
X-58803Y2864D01*
X-58730Y3059D01*
X-58653Y3253D01*
X-58571Y3445D01*
X-58484Y3634D01*
X-58392Y3822D01*
X-58296Y4007D01*
X-58196Y4190D01*
X-58091Y4370D01*
X-57981Y4547D01*
X-57867Y4722D01*
X-57749Y4894D01*
X-57627Y5063D01*
X-57501Y5229D01*
X-57371Y5392D01*
X-57236Y5552D01*
X-57098Y5708D01*
X-56956Y5861D01*
X-56810Y6010D01*
X-56661Y6156D01*
X-56508Y6298D01*
X-56352Y6436D01*
X-56192Y6571D01*
X-56029Y6701D01*
X-55863Y6827D01*
X-55694Y6949D01*
X-55522Y7067D01*
X-55347Y7181D01*
X-55170Y7291D01*
X-54990Y7396D01*
X-54807Y7496D01*
X-54622Y7592D01*
X-54434Y7684D01*
X-54245Y7771D01*
X-54053Y7853D01*
X-53859Y7930D01*
X-53664Y8003D01*
X-53466Y8071D01*
X-53267Y8134D01*
X-53067Y8192D01*
X-52865Y8245D01*
X-52662Y8293D01*
X-52458Y8337D01*
X-52253Y8375D01*
X-52047Y8408D01*
X-51840Y8436D01*
X-51633Y8459D01*
X-51425Y8477D01*
X-51217Y8490D01*
X-51009Y8497D01*
X-50800Y8500D01*
X-50591Y8497D01*
X-50383Y8490D01*
X-50175Y8477D01*
X-49967Y8459D01*
X-49760Y8436D01*
X-49553Y8408D01*
X-49347Y8375D01*
X-49142Y8337D01*
X-48938Y8293D01*
X-48735Y8245D01*
X-48533Y8192D01*
X-48333Y8134D01*
X-48134Y8071D01*
X-47936Y8003D01*
X-47741Y7930D01*
X-47547Y7853D01*
X-47355Y7771D01*
X-47166Y7684D01*
X-46978Y7592D01*
X-46793Y7496D01*
X-46610Y7396D01*
X-46430Y7291D01*
X-46253Y7181D01*
X-46078Y7067D01*
X-45906Y6949D01*
X-45737Y6827D01*
X-45571Y6701D01*
X-45408Y6571D01*
X-45248Y6436D01*
X-45092Y6298D01*
X-44939Y6156D01*
X-44790Y6010D01*
X-44644Y5861D01*
X-44502Y5708D01*
X-44364Y5552D01*
X-44229Y5392D01*
X-44099Y5229D01*
X-43973Y5063D01*
X-43851Y4894D01*
X-43733Y4722D01*
X-43619Y4547D01*
X-43509Y4370D01*
X-43404Y4190D01*
X-43304Y4007D01*
X-43208Y3822D01*
X-43116Y3634D01*
X-43029Y3445D01*
X-42947Y3253D01*
X-42870Y3059D01*
X-42797Y2864D01*
X-42729Y2666D01*
X-42666Y2467D01*
X-42608Y2267D01*
X-42555Y2065D01*
X-42507Y1862D01*
X-42463Y1658D01*
X-42425Y1453D01*
X-42392Y1247D01*
X-42364Y1040D01*
X-42341Y833D01*
X-42323Y625D01*
X-42310Y417D01*
X-42303Y209D01*
X-42300Y0D01*
X-42303Y-209D01*
X-42310Y-417D01*
X-42323Y-625D01*
X-42341Y-833D01*
X-42364Y-1040D01*
X-42392Y-1247D01*
X-42425Y-1453D01*
X-42463Y-1658D01*
X-42507Y-1862D01*
X-42555Y-2065D01*
X-42608Y-2267D01*
X-42666Y-2467D01*
X-42729Y-2666D01*
X-42797Y-2864D01*
X-42870Y-3059D01*
X-42947Y-3253D01*
X-43029Y-3445D01*
X-43116Y-3634D01*
X-43208Y-3822D01*
X-43304Y-4007D01*
X-43404Y-4190D01*
X-43509Y-4370D01*
X-43619Y-4547D01*
X-43733Y-4722D01*
X-43851Y-4894D01*
X-43973Y-5063D01*
X-44099Y-5229D01*
X-44229Y-5392D01*
X-44364Y-5552D01*
X-44502Y-5708D01*
X-44644Y-5861D01*
X-44790Y-6010D01*
X-44939Y-6156D01*
X-45092Y-6298D01*
X-45248Y-6436D01*
X-45408Y-6571D01*
X-45571Y-6701D01*
X-45737Y-6827D01*
X-45906Y-6949D01*
X-46078Y-7067D01*
X-46253Y-7181D01*
X-46430Y-7291D01*
X-46610Y-7396D01*
X-46793Y-7496D01*
X-46978Y-7592D01*
X-47166Y-7684D01*
X-47355Y-7771D01*
X-47547Y-7853D01*
X-47741Y-7930D01*
X-47936Y-8003D01*
X-48134Y-8071D01*
X-48333Y-8134D01*
X-48533Y-8192D01*
X-48735Y-8245D01*
X-48938Y-8293D01*
X-49142Y-8337D01*
X-49347Y-8375D01*
X-49553Y-8408D01*
X-49760Y-8436D01*
X-49967Y-8459D01*
X-50175Y-8477D01*
X-50383Y-8490D01*
X-50591Y-8497D01*
X-50800Y-8500D01*
X-51009Y-8497D01*
X-51217Y-8490D01*
X-51425Y-8477D01*
X-51633Y-8459D01*
X-51840Y-8436D01*
X-52047Y-8408D01*
X-52253Y-8375D01*
X-52458Y-8337D01*
X-52662Y-8293D01*
X-52865Y-8245D01*
X-53067Y-8192D01*
X-53267Y-8134D01*
X-53466Y-8071D01*
X-53664Y-8003D01*
X-53859Y-7930D01*
X-54053Y-7853D01*
X-54245Y-7771D01*
X-54434Y-7684D01*
X-54622Y-7592D01*
X-54807Y-7496D01*
X-54990Y-7396D01*
X-55170Y-7291D01*
X-55347Y-7181D01*
X-55522Y-7067D01*
X-55694Y-6949D01*
X-55863Y-6827D01*
X-56029Y-6701D01*
X-56192Y-6571D01*
X-56352Y-6436D01*
X-56508Y-6298D01*
X-56661Y-6156D01*
X-56810Y-6010D01*
X-56956Y-5861D01*
X-57098Y-5708D01*
X-57236Y-5552D01*
X-57371Y-5392D01*
X-57501Y-5229D01*
X-57627Y-5063D01*
X-57749Y-4894D01*
X-57867Y-4722D01*
X-57981Y-4547D01*
X-58091Y-4370D01*
X-58196Y-4190D01*
X-58296Y-4007D01*
X-58392Y-3822D01*
X-58484Y-3634D01*
X-58571Y-3445D01*
X-58653Y-3253D01*
X-58730Y-3059D01*
X-58803Y-2864D01*
X-58871Y-2666D01*
X-58934Y-2467D01*
X-58992Y-2267D01*
X-59045Y-2065D01*
X-59093Y-1862D01*
X-59137Y-1658D01*
X-59175Y-1453D01*
X-59208Y-1247D01*
X-59236Y-1040D01*
X-59259Y-833D01*
X-59277Y-625D01*
X-59290Y-417D01*
X-59297Y-209D01*
X-59300Y0D01*
X10400Y-139700D02*
X10405Y-139332D01*
X10418Y-138964D01*
X10441Y-138597D01*
X10472Y-138230D01*
X10513Y-137864D01*
X10562Y-137499D01*
X10621Y-137136D01*
X10688Y-136774D01*
X10764Y-136413D01*
X10850Y-136055D01*
X10943Y-135699D01*
X11046Y-135346D01*
X11157Y-134995D01*
X11277Y-134647D01*
X11405Y-134302D01*
X11542Y-133960D01*
X11687Y-133621D01*
X11840Y-133287D01*
X12002Y-132956D01*
X12171Y-132629D01*
X12349Y-132307D01*
X12534Y-131988D01*
X12727Y-131675D01*
X12928Y-131366D01*
X13136Y-131063D01*
X13352Y-130765D01*
X13575Y-130472D01*
X13805Y-130184D01*
X14042Y-129902D01*
X14286Y-129627D01*
X14536Y-129357D01*
X14793Y-129093D01*
X15057Y-128836D01*
X15327Y-128586D01*
X15602Y-128342D01*
X15884Y-128105D01*
X16172Y-127875D01*
X16465Y-127652D01*
X16763Y-127436D01*
X17066Y-127228D01*
X17375Y-127027D01*
X17688Y-126834D01*
X18007Y-126649D01*
X18329Y-126471D01*
X18656Y-126302D01*
X18987Y-126140D01*
X19321Y-125987D01*
X19660Y-125842D01*
X20002Y-125705D01*
X20347Y-125577D01*
X20695Y-125457D01*
X21046Y-125346D01*
X21399Y-125243D01*
X21755Y-125150D01*
X22113Y-125064D01*
X22474Y-124988D01*
X22836Y-124921D01*
X23199Y-124862D01*
X23564Y-124813D01*
X23930Y-124772D01*
X24297Y-124741D01*
X24664Y-124718D01*
X25032Y-124705D01*
X25400Y-124700D01*
X25768Y-124705D01*
X26136Y-124718D01*
X26503Y-124741D01*
X26870Y-124772D01*
X27236Y-124813D01*
X27601Y-124862D01*
X27964Y-124921D01*
X28326Y-124988D01*
X28687Y-125064D01*
X29045Y-125150D01*
X29401Y-125243D01*
X29754Y-125346D01*
X30105Y-125457D01*
X30453Y-125577D01*
X30798Y-125705D01*
X31140Y-125842D01*
X31479Y-125987D01*
X31813Y-126140D01*
X32144Y-126302D01*
X32471Y-126471D01*
X32793Y-126649D01*
X33112Y-126834D01*
X33425Y-127027D01*
X33734Y-127228D01*
X34037Y-127436D01*
X34335Y-127652D01*
X34628Y-127875D01*
X34916Y-128105D01*
X35198Y-128342D01*
X35473Y-128586D01*
X35743Y-128836D01*
X36007Y-129093D01*
X36264Y-129357D01*
X36514Y-129627D01*
X36758Y-129902D01*
X36995Y-130184D01*
X37225Y-130472D01*
X37448Y-130765D01*
X37664Y-131063D01*
X37872Y-131366D01*
X38073Y-131675D01*
X38266Y-131988D01*
X38451Y-132307D01*
X38629Y-132629D01*
X38798Y-132956D01*
X38960Y-133287D01*
X39113Y-133621D01*
X39258Y-133960D01*
X39395Y-134302D01*
X39523Y-134647D01*
X39643Y-134995D01*
X39754Y-135346D01*
X39857Y-135699D01*
X39950Y-136055D01*
X40036Y-136413D01*
X40112Y-136774D01*
X40179Y-137136D01*
X40238Y-137499D01*
X40287Y-137864D01*
X40328Y-138230D01*
X40359Y-138597D01*
X40382Y-138964D01*
X40395Y-139332D01*
X40400Y-139700D01*
X40395Y-140068D01*
X40382Y-140436D01*
X40359Y-140803D01*
X40328Y-141170D01*
X40287Y-141536D01*
X40238Y-141901D01*
X40179Y-142264D01*
X40112Y-142626D01*
X40036Y-142987D01*
X39950Y-143345D01*
X39857Y-143701D01*
X39754Y-144054D01*
X39643Y-144405D01*
X39523Y-144753D01*
X39395Y-145098D01*
X39258Y-145440D01*
X39113Y-145779D01*
X38960Y-146113D01*
X38798Y-146444D01*
X38629Y-146771D01*
X38451Y-147093D01*
X38266Y-147412D01*
X38073Y-147725D01*
X37872Y-148034D01*
X37664Y-148337D01*
X37448Y-148635D01*
X37225Y-148928D01*
X36995Y-149216D01*
X36758Y-149498D01*
X36514Y-149773D01*
X36264Y-150043D01*
X36007Y-150307D01*
X35743Y-150564D01*
X35473Y-150814D01*
X35198Y-151058D01*
X34916Y-151295D01*
X34628Y-151525D01*
X34335Y-151748D01*
X34037Y-151964D01*
X33734Y-152172D01*
X33425Y-152373D01*
X33112Y-152566D01*
X32793Y-152751D01*
X32471Y-152929D01*
X32144Y-153098D01*
X31813Y-153260D01*
X31479Y-153413D01*
X31140Y-153558D01*
X30798Y-153695D01*
X30453Y-153823D01*
X30105Y-153943D01*
X29754Y-154054D01*
X29401Y-154157D01*
X29045Y-154250D01*
X28687Y-154336D01*
X28326Y-154412D01*
X27964Y-154479D01*
X27601Y-154538D01*
X27236Y-154587D01*
X26870Y-154628D01*
X26503Y-154659D01*
X26136Y-154682D01*
X25768Y-154695D01*
X25400Y-154700D01*
X25032Y-154695D01*
X24664Y-154682D01*
X24297Y-154659D01*
X23930Y-154628D01*
X23564Y-154587D01*
X23199Y-154538D01*
X22836Y-154479D01*
X22474Y-154412D01*
X22113Y-154336D01*
X21755Y-154250D01*
X21399Y-154157D01*
X21046Y-154054D01*
X20695Y-153943D01*
X20347Y-153823D01*
X20002Y-153695D01*
X19660Y-153558D01*
X19321Y-153413D01*
X18987Y-153260D01*
X18656Y-153098D01*
X18329Y-152929D01*
X18007Y-152751D01*
X17688Y-152566D01*
X17375Y-152373D01*
X17066Y-152172D01*
X16763Y-151964D01*
X16465Y-151748D01*
X16172Y-151525D01*
X15884Y-151295D01*
X15602Y-151058D01*
X15327Y-150814D01*
X15057Y-150564D01*
X14793Y-150307D01*
X14536Y-150043D01*
X14286Y-149773D01*
X14042Y-149498D01*
X13805Y-149216D01*
X13575Y-148928D01*
X13352Y-148635D01*
X13136Y-148337D01*
X12928Y-148034D01*
X12727Y-147725D01*
X12534Y-147412D01*
X12349Y-147093D01*
X12171Y-146771D01*
X12002Y-146444D01*
X11840Y-146113D01*
X11687Y-145779D01*
X11542Y-145440D01*
X11405Y-145098D01*
X11277Y-144753D01*
X11157Y-144405D01*
X11046Y-144054D01*
X10943Y-143701D01*
X10850Y-143345D01*
X10764Y-142987D01*
X10688Y-142626D01*
X10621Y-142264D01*
X10562Y-141901D01*
X10513Y-141536D01*
X10472Y-141170D01*
X10441Y-140803D01*
X10418Y-140436D01*
X10405Y-140068D01*
X10400Y-139700D01*
X-53100Y-165100D02*
X-53095Y-164732D01*
X-53082Y-164364D01*
X-53059Y-163997D01*
X-53028Y-163630D01*
X-52987Y-163264D01*
X-52938Y-162899D01*
X-52879Y-162536D01*
X-52812Y-162174D01*
X-52736Y-161813D01*
X-52650Y-161455D01*
X-52557Y-161099D01*
X-52454Y-160746D01*
X-52343Y-160395D01*
X-52223Y-160047D01*
X-52095Y-159702D01*
X-51958Y-159360D01*
X-51813Y-159021D01*
X-51660Y-158687D01*
X-51498Y-158356D01*
X-51329Y-158029D01*
X-51151Y-157707D01*
X-50966Y-157388D01*
X-50773Y-157075D01*
X-50572Y-156766D01*
X-50364Y-156463D01*
X-50148Y-156165D01*
X-49925Y-155872D01*
X-49695Y-155584D01*
X-49458Y-155302D01*
X-49214Y-155027D01*
X-48964Y-154757D01*
X-48707Y-154493D01*
X-48443Y-154236D01*
X-48173Y-153986D01*
X-47898Y-153742D01*
X-47616Y-153505D01*
X-47328Y-153275D01*
X-47035Y-153052D01*
X-46737Y-152836D01*
X-46434Y-152628D01*
X-46125Y-152427D01*
X-45812Y-152234D01*
X-45493Y-152049D01*
X-45171Y-151871D01*
X-44844Y-151702D01*
X-44513Y-151540D01*
X-44179Y-151387D01*
X-43840Y-151242D01*
X-43498Y-151105D01*
X-43153Y-150977D01*
X-42805Y-150857D01*
X-42454Y-150746D01*
X-42101Y-150643D01*
X-41745Y-150550D01*
X-41387Y-150464D01*
X-41026Y-150388D01*
X-40664Y-150321D01*
X-40301Y-150262D01*
X-39936Y-150213D01*
X-39570Y-150172D01*
X-39203Y-150141D01*
X-38836Y-150118D01*
X-38468Y-150105D01*
X-38100Y-150100D01*
X-37732Y-150105D01*
X-37364Y-150118D01*
X-36997Y-150141D01*
X-36630Y-150172D01*
X-36264Y-150213D01*
X-35899Y-150262D01*
X-35536Y-150321D01*
X-35174Y-150388D01*
X-34813Y-150464D01*
X-34455Y-150550D01*
X-34099Y-150643D01*
X-33746Y-150746D01*
X-33395Y-150857D01*
X-33047Y-150977D01*
X-32702Y-151105D01*
X-32360Y-151242D01*
X-32021Y-151387D01*
X-31687Y-151540D01*
X-31356Y-151702D01*
X-31029Y-151871D01*
X-30707Y-152049D01*
X-30388Y-152234D01*
X-30075Y-152427D01*
X-29766Y-152628D01*
X-29463Y-152836D01*
X-29165Y-153052D01*
X-28872Y-153275D01*
X-28584Y-153505D01*
X-28302Y-153742D01*
X-28027Y-153986D01*
X-27757Y-154236D01*
X-27493Y-154493D01*
X-27236Y-154757D01*
X-26986Y-155027D01*
X-26742Y-155302D01*
X-26505Y-155584D01*
X-26275Y-155872D01*
X-26052Y-156165D01*
X-25836Y-156463D01*
X-25628Y-156766D01*
X-25427Y-157075D01*
X-25234Y-157388D01*
X-25049Y-157707D01*
X-24871Y-158029D01*
X-24702Y-158356D01*
X-24540Y-158687D01*
X-24387Y-159021D01*
X-24242Y-159360D01*
X-24105Y-159702D01*
X-23977Y-160047D01*
X-23857Y-160395D01*
X-23746Y-160746D01*
X-23643Y-161099D01*
X-23550Y-161455D01*
X-23464Y-161813D01*
X-23388Y-162174D01*
X-23321Y-162536D01*
X-23262Y-162899D01*
X-23213Y-163264D01*
X-23172Y-163630D01*
X-23141Y-163997D01*
X-23118Y-164364D01*
X-23105Y-164732D01*
X-23100Y-165100D01*
X-23105Y-165468D01*
X-23118Y-165836D01*
X-23141Y-166203D01*
X-23172Y-166570D01*
X-23213Y-166936D01*
X-23262Y-167301D01*
X-23321Y-167664D01*
X-23388Y-168026D01*
X-23464Y-168387D01*
X-23550Y-168745D01*
X-23643Y-169101D01*
X-23746Y-169454D01*
X-23857Y-169805D01*
X-23977Y-170153D01*
X-24105Y-170498D01*
X-24242Y-170840D01*
X-24387Y-171179D01*
X-24540Y-171513D01*
X-24702Y-171844D01*
X-24871Y-172171D01*
X-25049Y-172493D01*
X-25234Y-172812D01*
X-25427Y-173125D01*
X-25628Y-173434D01*
X-25836Y-173737D01*
X-26052Y-174035D01*
X-26275Y-174328D01*
X-26505Y-174616D01*
X-26742Y-174898D01*
X-26986Y-175173D01*
X-27236Y-175443D01*
X-27493Y-175707D01*
X-27757Y-175964D01*
X-28027Y-176214D01*
X-28302Y-176458D01*
X-28584Y-176695D01*
X-28872Y-176925D01*
X-29165Y-177148D01*
X-29463Y-177364D01*
X-29766Y-177572D01*
X-30075Y-177773D01*
X-30388Y-177966D01*
X-30707Y-178151D01*
X-31029Y-178329D01*
X-31356Y-178498D01*
X-31687Y-178660D01*
X-32021Y-178813D01*
X-32360Y-178958D01*
X-32702Y-179095D01*
X-33047Y-179223D01*
X-33395Y-179343D01*
X-33746Y-179454D01*
X-34099Y-179557D01*
X-34455Y-179650D01*
X-34813Y-179736D01*
X-35174Y-179812D01*
X-35536Y-179879D01*
X-35899Y-179938D01*
X-36264Y-179987D01*
X-36630Y-180028D01*
X-36997Y-180059D01*
X-37364Y-180082D01*
X-37732Y-180095D01*
X-38100Y-180100D01*
X-38468Y-180095D01*
X-38836Y-180082D01*
X-39203Y-180059D01*
X-39570Y-180028D01*
X-39936Y-179987D01*
X-40301Y-179938D01*
X-40664Y-179879D01*
X-41026Y-179812D01*
X-41387Y-179736D01*
X-41745Y-179650D01*
X-42101Y-179557D01*
X-42454Y-179454D01*
X-42805Y-179343D01*
X-43153Y-179223D01*
X-43498Y-179095D01*
X-43840Y-178958D01*
X-44179Y-178813D01*
X-44513Y-178660D01*
X-44844Y-178498D01*
X-45171Y-178329D01*
X-45493Y-178151D01*
X-45812Y-177966D01*
X-46125Y-177773D01*
X-46434Y-177572D01*
X-46737Y-177364D01*
X-47035Y-177148D01*
X-47328Y-176925D01*
X-47616Y-176695D01*
X-47898Y-176458D01*
X-48173Y-176214D01*
X-48443Y-175964D01*
X-48707Y-175707D01*
X-48964Y-175443D01*
X-49214Y-175173D01*
X-49458Y-174898D01*
X-49695Y-174616D01*
X-49925Y-174328D01*
X-50148Y-174035D01*
X-50364Y-173737D01*
X-50572Y-173434D01*
X-50773Y-173125D01*
X-50966Y-172812D01*
X-51151Y-172493D01*
X-51329Y-172171D01*
X-51498Y-171844D01*
X-51660Y-171513D01*
X-51813Y-171179D01*
X-51958Y-170840D01*
X-52095Y-170498D01*
X-52223Y-170153D01*
X-52343Y-169805D01*
X-52454Y-169454D01*
X-52557Y-169101D01*
X-52650Y-168745D01*
X-52736Y-168387D01*
X-52812Y-168026D01*
X-52879Y-167664D01*
X-52938Y-167301D01*
X-52987Y-166936D01*
X-53028Y-166570D01*
X-53059Y-166203D01*
X-53082Y-165836D01*
X-53095Y-165468D01*
X-53100Y-165100D01*
X-20002Y-190500D02*
X-19996Y-190009D01*
X-19978Y-189519D01*
X-19948Y-189029D01*
X-19906Y-188539D01*
X-19852Y-188052D01*
X-19786Y-187565D01*
X-19708Y-187080D01*
X-19618Y-186598D01*
X-19516Y-186118D01*
X-19403Y-185640D01*
X-19277Y-185165D01*
X-19141Y-184694D01*
X-18992Y-184226D01*
X-18833Y-183762D01*
X-18662Y-183301D01*
X-18479Y-182846D01*
X-18286Y-182394D01*
X-18082Y-181948D01*
X-17866Y-181507D01*
X-17640Y-181071D01*
X-17403Y-180641D01*
X-17156Y-180217D01*
X-16899Y-179799D01*
X-16631Y-179387D01*
X-16353Y-178983D01*
X-16066Y-178585D01*
X-15769Y-178194D01*
X-15462Y-177811D01*
X-15146Y-177435D01*
X-14821Y-177067D01*
X-14486Y-176708D01*
X-14144Y-176356D01*
X-13792Y-176014D01*
X-13433Y-175679D01*
X-13065Y-175354D01*
X-12689Y-175038D01*
X-12306Y-174731D01*
X-11915Y-174434D01*
X-11517Y-174147D01*
X-11113Y-173869D01*
X-10701Y-173601D01*
X-10283Y-173344D01*
X-9859Y-173097D01*
X-9429Y-172860D01*
X-8993Y-172634D01*
X-8552Y-172418D01*
X-8106Y-172214D01*
X-7654Y-172021D01*
X-7199Y-171838D01*
X-6738Y-171667D01*
X-6274Y-171508D01*
X-5806Y-171359D01*
X-5335Y-171223D01*
X-4860Y-171097D01*
X-4382Y-170984D01*
X-3902Y-170882D01*
X-3420Y-170792D01*
X-2935Y-170714D01*
X-2448Y-170648D01*
X-1961Y-170594D01*
X-1471Y-170552D01*
X-981Y-170522D01*
X-491Y-170504D01*
X0Y-170498D01*
X491Y-170504D01*
X981Y-170522D01*
X1471Y-170552D01*
X1961Y-170594D01*
X2448Y-170648D01*
X2935Y-170714D01*
X3420Y-170792D01*
X3902Y-170882D01*
X4382Y-170984D01*
X4860Y-171097D01*
X5335Y-171223D01*
X5806Y-171359D01*
X6274Y-171508D01*
X6738Y-171667D01*
X7199Y-171838D01*
X7654Y-172021D01*
X8106Y-172214D01*
X8552Y-172418D01*
X8993Y-172634D01*
X9429Y-172860D01*
X9859Y-173097D01*
X10283Y-173344D01*
X10701Y-173601D01*
X11113Y-173869D01*
X11517Y-174147D01*
X11915Y-174434D01*
X12306Y-174731D01*
X12689Y-175038D01*
X13065Y-175354D01*
X13433Y-175679D01*
X13792Y-176014D01*
X14144Y-176356D01*
X14486Y-176708D01*
X14821Y-177067D01*
X15146Y-177435D01*
X15462Y-177811D01*
X15769Y-178194D01*
X16066Y-178585D01*
X16353Y-178983D01*
X16631Y-179387D01*
X16899Y-179799D01*
X17156Y-180217D01*
X17403Y-180641D01*
X17640Y-181071D01*
X17866Y-181507D01*
X18082Y-181948D01*
X18286Y-182394D01*
X18479Y-182846D01*
X18662Y-183301D01*
X18833Y-183762D01*
X18992Y-184226D01*
X19141Y-184694D01*
X19277Y-185165D01*
X19403Y-185640D01*
X19516Y-186118D01*
X19618Y-186598D01*
X19708Y-187080D01*
X19786Y-187565D01*
X19852Y-188052D01*
X19906Y-188539D01*
X19948Y-189029D01*
X19978Y-189519D01*
X19996Y-190009D01*
X20002Y-190500D01*
X19996Y-190991D01*
X19978Y-191481D01*
X19948Y-191971D01*
X19906Y-192461D01*
X19852Y-192948D01*
X19786Y-193435D01*
X19708Y-193920D01*
X19618Y-194402D01*
X19516Y-194882D01*
X19403Y-195360D01*
X19277Y-195835D01*
X19141Y-196306D01*
X18992Y-196774D01*
X18833Y-197238D01*
X18662Y-197699D01*
X18479Y-198154D01*
X18286Y-198606D01*
X18082Y-199052D01*
X17866Y-199493D01*
X17640Y-199929D01*
X17403Y-200359D01*
X17156Y-200783D01*
X16899Y-201201D01*
X16631Y-201613D01*
X16353Y-202017D01*
X16066Y-202415D01*
X15769Y-202806D01*
X15462Y-203189D01*
X15146Y-203565D01*
X14821Y-203933D01*
X14486Y-204292D01*
X14144Y-204644D01*
X13792Y-204986D01*
X13433Y-205321D01*
X13065Y-205646D01*
X12689Y-205962D01*
X12306Y-206269D01*
X11915Y-206566D01*
X11517Y-206853D01*
X11113Y-207131D01*
X10701Y-207399D01*
X10283Y-207656D01*
X9859Y-207903D01*
X9429Y-208140D01*
X8993Y-208366D01*
X8552Y-208582D01*
X8106Y-208786D01*
X7654Y-208979D01*
X7199Y-209162D01*
X6738Y-209333D01*
X6274Y-209492D01*
X5806Y-209641D01*
X5335Y-209777D01*
X4860Y-209903D01*
X4382Y-210016D01*
X3902Y-210118D01*
X3420Y-210208D01*
X2935Y-210286D01*
X2448Y-210352D01*
X1961Y-210406D01*
X1471Y-210448D01*
X981Y-210478D01*
X491Y-210496D01*
X0Y-210502D01*
X-491Y-210496D01*
X-981Y-210478D01*
X-1471Y-210448D01*
X-1961Y-210406D01*
X-2448Y-210352D01*
X-2935Y-210286D01*
X-3420Y-210208D01*
X-3902Y-210118D01*
X-4382Y-210016D01*
X-4860Y-209903D01*
X-5335Y-209777D01*
X-5806Y-209641D01*
X-6274Y-209492D01*
X-6738Y-209333D01*
X-7199Y-209162D01*
X-7654Y-208979D01*
X-8106Y-208786D01*
X-8552Y-208582D01*
X-8993Y-208366D01*
X-9429Y-208140D01*
X-9859Y-207903D01*
X-10283Y-207656D01*
X-10701Y-207399D01*
X-11113Y-207131D01*
X-11517Y-206853D01*
X-11915Y-206566D01*
X-12306Y-206269D01*
X-12689Y-205962D01*
X-13065Y-205646D01*
X-13433Y-205321D01*
X-13792Y-204986D01*
X-14144Y-204644D01*
X-14486Y-204292D01*
X-14821Y-203933D01*
X-15146Y-203565D01*
X-15462Y-203189D01*
X-15769Y-202806D01*
X-16066Y-202415D01*
X-16353Y-202017D01*
X-16631Y-201613D01*
X-16899Y-201201D01*
X-17156Y-200783D01*
X-17403Y-200359D01*
X-17640Y-199929D01*
X-17866Y-199493D01*
X-18082Y-199052D01*
X-18286Y-198606D01*
X-18479Y-198154D01*
X-18662Y-197699D01*
X-18833Y-197238D01*
X-18992Y-196774D01*
X-19141Y-196306D01*
X-19277Y-195835D01*
X-19403Y-195360D01*
X-19516Y-194882D01*
X-19618Y-194402D01*
X-19708Y-193920D01*
X-19786Y-193435D01*
X-19852Y-192948D01*
X-19906Y-192461D01*
X-19948Y-191971D01*
X-19978Y-191481D01*
X-19996Y-190991D01*
X-20002Y-190500D01*
X42300Y-190500D02*
X42303Y-190291D01*
X42310Y-190083D01*
X42323Y-189875D01*
X42341Y-189667D01*
X42364Y-189460D01*
X42392Y-189253D01*
X42425Y-189047D01*
X42463Y-188842D01*
X42507Y-188638D01*
X42555Y-188435D01*
X42608Y-188233D01*
X42666Y-188033D01*
X42729Y-187834D01*
X42797Y-187636D01*
X42870Y-187441D01*
X42947Y-187247D01*
X43029Y-187055D01*
X43116Y-186866D01*
X43208Y-186678D01*
X43304Y-186493D01*
X43404Y-186310D01*
X43509Y-186130D01*
X43619Y-185953D01*
X43733Y-185778D01*
X43851Y-185606D01*
X43973Y-185437D01*
X44099Y-185271D01*
X44229Y-185108D01*
X44364Y-184948D01*
X44502Y-184792D01*
X44644Y-184639D01*
X44790Y-184490D01*
X44939Y-184344D01*
X45092Y-184202D01*
X45248Y-184064D01*
X45408Y-183929D01*
X45571Y-183799D01*
X45737Y-183673D01*
X45906Y-183551D01*
X46078Y-183433D01*
X46253Y-183319D01*
X46430Y-183209D01*
X46610Y-183104D01*
X46793Y-183004D01*
X46978Y-182908D01*
X47166Y-182816D01*
X47355Y-182729D01*
X47547Y-182647D01*
X47741Y-182570D01*
X47936Y-182497D01*
X48134Y-182429D01*
X48333Y-182366D01*
X48533Y-182308D01*
X48735Y-182255D01*
X48938Y-182207D01*
X49142Y-182163D01*
X49347Y-182125D01*
X49553Y-182092D01*
X49760Y-182064D01*
X49967Y-182041D01*
X50175Y-182023D01*
X50383Y-182010D01*
X50591Y-182003D01*
X50800Y-182000D01*
X51009Y-182003D01*
X51217Y-182010D01*
X51425Y-182023D01*
X51633Y-182041D01*
X51840Y-182064D01*
X52047Y-182092D01*
X52253Y-182125D01*
X52458Y-182163D01*
X52662Y-182207D01*
X52865Y-182255D01*
X53067Y-182308D01*
X53267Y-182366D01*
X53466Y-182429D01*
X53664Y-182497D01*
X53859Y-182570D01*
X54053Y-182647D01*
X54245Y-182729D01*
X54434Y-182816D01*
X54622Y-182908D01*
X54807Y-183004D01*
X54990Y-183104D01*
X55170Y-183209D01*
X55347Y-183319D01*
X55522Y-183433D01*
X55694Y-183551D01*
X55863Y-183673D01*
X56029Y-183799D01*
X56192Y-183929D01*
X56352Y-184064D01*
X56508Y-184202D01*
X56661Y-184344D01*
X56810Y-184490D01*
X56956Y-184639D01*
X57098Y-184792D01*
X57236Y-184948D01*
X57371Y-185108D01*
X57501Y-185271D01*
X57627Y-185437D01*
X57749Y-185606D01*
X57867Y-185778D01*
X57981Y-185953D01*
X58091Y-186130D01*
X58196Y-186310D01*
X58296Y-186493D01*
X58392Y-186678D01*
X58484Y-186866D01*
X58571Y-187055D01*
X58653Y-187247D01*
X58730Y-187441D01*
X58803Y-187636D01*
X58871Y-187834D01*
X58934Y-188033D01*
X58992Y-188233D01*
X59045Y-188435D01*
X59093Y-188638D01*
X59137Y-188842D01*
X59175Y-189047D01*
X59208Y-189253D01*
X59236Y-189460D01*
X59259Y-189667D01*
X59277Y-189875D01*
X59290Y-190083D01*
X59297Y-190291D01*
X59300Y-190500D01*
X59297Y-190709D01*
X59290Y-190917D01*
X59277Y-191125D01*
X59259Y-191333D01*
X59236Y-191540D01*
X59208Y-191747D01*
X59175Y-191953D01*
X59137Y-192158D01*
X59093Y-192362D01*
X59045Y-192565D01*
X58992Y-192767D01*
X58934Y-192967D01*
X58871Y-193166D01*
X58803Y-193364D01*
X58730Y-193559D01*
X58653Y-193753D01*
X58571Y-193945D01*
X58484Y-194134D01*
X58392Y-194322D01*
X58296Y-194507D01*
X58196Y-194690D01*
X58091Y-194870D01*
X57981Y-195047D01*
X57867Y-195222D01*
X57749Y-195394D01*
X57627Y-195563D01*
X57501Y-195729D01*
X57371Y-195892D01*
X57236Y-196052D01*
X57098Y-196208D01*
X56956Y-196361D01*
X56810Y-196510D01*
X56661Y-196656D01*
X56508Y-196798D01*
X56352Y-196936D01*
X56192Y-197071D01*
X56029Y-197201D01*
X55863Y-197327D01*
X55694Y-197449D01*
X55522Y-197567D01*
X55347Y-197681D01*
X55170Y-197791D01*
X54990Y-197896D01*
X54807Y-197996D01*
X54622Y-198092D01*
X54434Y-198184D01*
X54245Y-198271D01*
X54053Y-198353D01*
X53859Y-198430D01*
X53664Y-198503D01*
X53466Y-198571D01*
X53267Y-198634D01*
X53067Y-198692D01*
X52865Y-198745D01*
X52662Y-198793D01*
X52458Y-198837D01*
X52253Y-198875D01*
X52047Y-198908D01*
X51840Y-198936D01*
X51633Y-198959D01*
X51425Y-198977D01*
X51217Y-198990D01*
X51009Y-198997D01*
X50800Y-199000D01*
X50591Y-198997D01*
X50383Y-198990D01*
X50175Y-198977D01*
X49967Y-198959D01*
X49760Y-198936D01*
X49553Y-198908D01*
X49347Y-198875D01*
X49142Y-198837D01*
X48938Y-198793D01*
X48735Y-198745D01*
X48533Y-198692D01*
X48333Y-198634D01*
X48134Y-198571D01*
X47936Y-198503D01*
X47741Y-198430D01*
X47547Y-198353D01*
X47355Y-198271D01*
X47166Y-198184D01*
X46978Y-198092D01*
X46793Y-197996D01*
X46610Y-197896D01*
X46430Y-197791D01*
X46253Y-197681D01*
X46078Y-197567D01*
X45906Y-197449D01*
X45737Y-197327D01*
X45571Y-197201D01*
X45408Y-197071D01*
X45248Y-196936D01*
X45092Y-196798D01*
X44939Y-196656D01*
X44790Y-196510D01*
X44644Y-196361D01*
X44502Y-196208D01*
X44364Y-196052D01*
X44229Y-195892D01*
X44099Y-195729D01*
X43973Y-195563D01*
X43851Y-195394D01*
X43733Y-195222D01*
X43619Y-195047D01*
X43509Y-194870D01*
X43404Y-194690D01*
X43304Y-194507D01*
X43208Y-194322D01*
X43116Y-194134D01*
X43029Y-193945D01*
X42947Y-193753D01*
X42870Y-193559D01*
X42797Y-193364D01*
X42729Y-193166D01*
X42666Y-192967D01*
X42608Y-192767D01*
X42555Y-192565D01*
X42507Y-192362D01*
X42463Y-192158D01*
X42425Y-191953D01*
X42392Y-191747D01*
X42364Y-191540D01*
X42341Y-191333D01*
X42323Y-191125D01*
X42310Y-190917D01*
X42303Y-190709D01*
X42300Y-190500D01*
X-59300Y-190500D02*
X-59297Y-190291D01*
X-59290Y-190083D01*
X-59277Y-189875D01*
X-59259Y-189667D01*
X-59236Y-189460D01*
X-59208Y-189253D01*
X-59175Y-189047D01*
X-59137Y-188842D01*
X-59093Y-188638D01*
X-59045Y-188435D01*
X-58992Y-188233D01*
X-58934Y-188033D01*
X-58871Y-187834D01*
X-58803Y-187636D01*
X-58730Y-187441D01*
X-58653Y-187247D01*
X-58571Y-187055D01*
X-58484Y-186866D01*
X-58392Y-186678D01*
X-58296Y-186493D01*
X-58196Y-186310D01*
X-58091Y-186130D01*
X-57981Y-185953D01*
X-57867Y-185778D01*
X-57749Y-185606D01*
X-57627Y-185437D01*
X-57501Y-185271D01*
X-57371Y-185108D01*
X-57236Y-184948D01*
X-57098Y-184792D01*
X-56956Y-184639D01*
X-56810Y-184490D01*
X-56661Y-184344D01*
X-56508Y-184202D01*
X-56352Y-184064D01*
X-56192Y-183929D01*
X-56029Y-183799D01*
X-55863Y-183673D01*
X-55694Y-183551D01*
X-55522Y-183433D01*
X-55347Y-183319D01*
X-55170Y-183209D01*
X-54990Y-183104D01*
X-54807Y-183004D01*
X-54622Y-182908D01*
X-54434Y-182816D01*
X-54245Y-182729D01*
X-54053Y-182647D01*
X-53859Y-182570D01*
X-53664Y-182497D01*
X-53466Y-182429D01*
X-53267Y-182366D01*
X-53067Y-182308D01*
X-52865Y-182255D01*
X-52662Y-182207D01*
X-52458Y-182163D01*
X-52253Y-182125D01*
X-52047Y-182092D01*
X-51840Y-182064D01*
X-51633Y-182041D01*
X-51425Y-182023D01*
X-51217Y-182010D01*
X-51009Y-182003D01*
X-50800Y-182000D01*
X-50591Y-182003D01*
X-50383Y-182010D01*
X-50175Y-182023D01*
X-49967Y-182041D01*
X-49760Y-182064D01*
X-49553Y-182092D01*
X-49347Y-182125D01*
X-49142Y-182163D01*
X-48938Y-182207D01*
X-48735Y-182255D01*
X-48533Y-182308D01*
X-48333Y-182366D01*
X-48134Y-182429D01*
X-47936Y-182497D01*
X-47741Y-182570D01*
X-47547Y-182647D01*
X-47355Y-182729D01*
X-47166Y-182816D01*
X-46978Y-182908D01*
X-46793Y-183004D01*
X-46610Y-183104D01*
X-46430Y-183209D01*
X-46253Y-183319D01*
X-46078Y-183433D01*
X-45906Y-183551D01*
X-45737Y-183673D01*
X-45571Y-183799D01*
X-45408Y-183929D01*
X-45248Y-184064D01*
X-45092Y-184202D01*
X-44939Y-184344D01*
X-44790Y-184490D01*
X-44644Y-184639D01*
X-44502Y-184792D01*
X-44364Y-184948D01*
X-44229Y-185108D01*
X-44099Y-185271D01*
X-43973Y-185437D01*
X-43851Y-185606D01*
X-43733Y-185778D01*
X-43619Y-185953D01*
X-43509Y-186130D01*
X-43404Y-186310D01*
X-43304Y-186493D01*
X-43208Y-186678D01*
X-43116Y-186866D01*
X-43029Y-187055D01*
X-42947Y-187247D01*
X-42870Y-187441D01*
X-42797Y-187636D01*
X-42729Y-187834D01*
X-42666Y-188033D01*
X-42608Y-188233D01*
X-42555Y-188435D01*
X-42507Y-188638D01*
X-42463Y-188842D01*
X-42425Y-189047D01*
X-42392Y-189253D01*
X-42364Y-189460D01*
X-42341Y-189667D01*
X-42323Y-189875D01*
X-42310Y-190083D01*
X-42303Y-190291D01*
X-42300Y-190500D01*
X-42303Y-190709D01*
X-42310Y-190917D01*
X-42323Y-191125D01*
X-42341Y-191333D01*
X-42364Y-191540D01*
X-42392Y-191747D01*
X-42425Y-191953D01*
X-42463Y-192158D01*
X-42507Y-192362D01*
X-42555Y-192565D01*
X-42608Y-192767D01*
X-42666Y-192967D01*
X-42729Y-193166D01*
X-42797Y-193364D01*
X-42870Y-193559D01*
X-42947Y-193753D01*
X-43029Y-193945D01*
X-43116Y-194134D01*
X-43208Y-194322D01*
X-43304Y-194507D01*
X-43404Y-194690D01*
X-43509Y-194870D01*
X-43619Y-195047D01*
X-43733Y-195222D01*
X-43851Y-195394D01*
X-43973Y-195563D01*
X-44099Y-195729D01*
X-44229Y-195892D01*
X-44364Y-196052D01*
X-44502Y-196208D01*
X-44644Y-196361D01*
X-44790Y-196510D01*
X-44939Y-196656D01*
X-45092Y-196798D01*
X-45248Y-196936D01*
X-45408Y-197071D01*
X-45571Y-197201D01*
X-45737Y-197327D01*
X-45906Y-197449D01*
X-46078Y-197567D01*
X-46253Y-197681D01*
X-46430Y-197791D01*
X-46610Y-197896D01*
X-46793Y-197996D01*
X-46978Y-198092D01*
X-47166Y-198184D01*
X-47355Y-198271D01*
X-47547Y-198353D01*
X-47741Y-198430D01*
X-47936Y-198503D01*
X-48134Y-198571D01*
X-48333Y-198634D01*
X-48533Y-198692D01*
X-48735Y-198745D01*
X-48938Y-198793D01*
X-49142Y-198837D01*
X-49347Y-198875D01*
X-49553Y-198908D01*
X-49760Y-198936D01*
X-49967Y-198959D01*
X-50175Y-198977D01*
X-50383Y-198990D01*
X-50591Y-198997D01*
X-50800Y-199000D01*
X-51009Y-198997D01*
X-51217Y-198990D01*
X-51425Y-198977D01*
X-51633Y-198959D01*
X-51840Y-198936D01*
X-52047Y-198908D01*
X-52253Y-198875D01*
X-52458Y-198837D01*
X-52662Y-198793D01*
X-52865Y-198745D01*
X-53067Y-198692D01*
X-53267Y-198634D01*
X-53466Y-198571D01*
X-53664Y-198503D01*
X-53859Y-198430D01*
X-54053Y-198353D01*
X-54245Y-198271D01*
X-54434Y-198184D01*
X-54622Y-198092D01*
X-54807Y-197996D01*
X-54990Y-197896D01*
X-55170Y-197791D01*
X-55347Y-197681D01*
X-55522Y-197567D01*
X-55694Y-197449D01*
X-55863Y-197327D01*
X-56029Y-197201D01*
X-56192Y-197071D01*
X-56352Y-196936D01*
X-56508Y-196798D01*
X-56661Y-196656D01*
X-56810Y-196510D01*
X-56956Y-196361D01*
X-57098Y-196208D01*
X-57236Y-196052D01*
X-57371Y-195892D01*
X-57501Y-195729D01*
X-57627Y-195563D01*
X-57749Y-195394D01*
X-57867Y-195222D01*
X-57981Y-195047D01*
X-58091Y-194870D01*
X-58196Y-194690D01*
X-58296Y-194507D01*
X-58392Y-194322D01*
X-58484Y-194134D01*
X-58571Y-193945D01*
X-58653Y-193753D01*
X-58730Y-193559D01*
X-58803Y-193364D01*
X-58871Y-193166D01*
X-58934Y-192967D01*
X-58992Y-192767D01*
X-59045Y-192565D01*
X-59093Y-192362D01*
X-59137Y-192158D01*
X-59175Y-191953D01*
X-59208Y-191747D01*
X-59236Y-191540D01*
X-59259Y-191333D01*
X-59277Y-191125D01*
X-59290Y-190917D01*
X-59297Y-190709D01*
X-59300Y-190500D01*
X-17101Y126500D02*
X16899Y126500D01*
X16899Y156500D01*
X-17101Y156500D01*
X-17101Y126500D01*
X-17101Y-64000D02*
X16899Y-64000D01*
X16899Y-34000D01*
X-17101Y-34000D01*
X-17101Y-64000D01*
X-17101Y-254500D02*
X16899Y-254500D01*
X16899Y-224500D01*
X-17101Y-224500D01*
X-17101Y-254500D01*
D11*
X-95250Y-275750D02*
X-95098Y-279236D01*
X-94642Y-282696D01*
X-93887Y-286103D01*
X-92838Y-289431D01*
X-91502Y-292655D01*
X-89891Y-295750D01*
X-88016Y-298693D01*
X-85892Y-301462D01*
X-83534Y-304034D01*
X-80962Y-306392D01*
X-78193Y-308516D01*
X-75250Y-310391D01*
X-72155Y-312002D01*
X-68931Y-313338D01*
X-65603Y-314387D01*
X-62196Y-315142D01*
X-58736Y-315598D01*
X-55250Y-315750D01*
X55250Y-315750D01*
X58736Y-315598D01*
X62196Y-315142D01*
X65603Y-314387D01*
X68931Y-313338D01*
X72155Y-312002D01*
X75250Y-310391D01*
X78193Y-308516D01*
X80962Y-306392D01*
X83534Y-304034D01*
X85892Y-301462D01*
X88016Y-298693D01*
X89891Y-295750D01*
X91502Y-292655D01*
X92838Y-289431D01*
X93887Y-286103D01*
X94642Y-282696D01*
X95098Y-279236D01*
X95250Y-275750D01*
X95250Y275750D01*
X95098Y279236D01*
X94642Y282696D01*
X93887Y286103D01*
X92838Y289431D01*
X91502Y292655D01*
X89891Y295750D01*
X88016Y298693D01*
X85892Y301462D01*
X83534Y304034D01*
X80962Y306392D01*
X78193Y308516D01*
X75250Y310391D01*
X72155Y312002D01*
X68931Y313338D01*
X65603Y314387D01*
X62196Y315142D01*
X58736Y315598D01*
X55250Y315750D01*
X-55250Y315750D01*
X-58736Y315598D01*
X-62196Y315142D01*
X-65603Y314387D01*
X-68931Y313338D01*
X-72155Y312002D01*
X-75250Y310391D01*
X-78193Y308516D01*
X-80962Y306392D01*
X-83534Y304034D01*
X-85892Y301462D01*
X-88016Y298693D01*
X-89891Y295750D01*
X-91502Y292655D01*
X-92838Y289431D01*
X-93887Y286103D01*
X-94642Y282696D01*
X-95098Y279236D01*
X-95250Y275750D01*
X-95250Y-275750D01*
X-17101Y-254500D02*
X16899Y-254500D01*
X16899Y-224500D01*
X-17101Y-224500D01*
X-17101Y-254500D01*
X-17101Y126500D02*
X16899Y126500D01*
X16899Y156500D01*
X-17101Y156500D01*
X-17101Y126500D01*
X-17101Y-64000D02*
X16899Y-64000D01*
X16899Y-34000D01*
X-17101Y-34000D01*
X-17101Y-64000D01*
M02*
