G04 EAGLE Gerber RS-274X export*
G75*
%MOMM*%
%FSLAX34Y34*%
%LPD*%
%INSoldermask Bottom*%
%IPPOS*%
%AMOC8*
5,1,8,0,0,1.08239X$1,22.5*%
G01*
G04 Define Apertures*
%ADD10C,2.403200*%
%ADD11C,1.643200*%
%ADD12R,1.423200X1.113200*%
%ADD13C,3.203200*%
%ADD14R,2.703200X2.753200*%
%ADD15C,4.203600*%
%ADD16C,1.903200*%
%ADD17R,2.003200X1.023200*%
%ADD18C,0.705600*%
D10*
X0Y-285750D03*
X0Y290287D03*
D11*
X85000Y160000D03*
X85000Y140000D03*
X85000Y120000D03*
D12*
X60000Y123650D03*
X60000Y156350D03*
X60000Y-66850D03*
X60000Y-34150D03*
X60000Y-257350D03*
X60000Y-224650D03*
D11*
X85000Y180000D03*
D13*
X25400Y241300D03*
X-38100Y215900D03*
D14*
X-73600Y215900D03*
D15*
X0Y190500D03*
D14*
X58400Y241300D03*
D16*
X50800Y190500D03*
X-50800Y190500D03*
D13*
X25400Y50800D03*
X-38100Y25400D03*
D14*
X-73600Y25400D03*
D15*
X0Y0D03*
D14*
X58400Y50800D03*
D16*
X50800Y0D03*
X-50800Y0D03*
D13*
X25400Y-139700D03*
X-38100Y-165100D03*
D14*
X-73600Y-165100D03*
D15*
X0Y-190500D03*
D14*
X58400Y-139700D03*
D16*
X50800Y-190500D03*
X-50800Y-190500D03*
D17*
X25899Y149000D03*
X25899Y134000D03*
X-26101Y134000D03*
X-26101Y149000D03*
X25899Y-41500D03*
X25899Y-56500D03*
X-26101Y-56500D03*
X-26101Y-41500D03*
X25899Y-232000D03*
X25899Y-247000D03*
X-26101Y-247000D03*
X-26101Y-232000D03*
D11*
X85000Y200000D03*
X85000Y220000D03*
X85000Y240000D03*
D18*
X60200Y213500D03*
X45300Y223900D03*
X-62200Y174200D03*
X-79200Y271500D03*
X84100Y277800D03*
X-77900Y-273500D03*
X82100Y-275200D03*
X74700Y-221600D03*
X-62500Y-226100D03*
X-50300Y-107500D03*
X45700Y-79200D03*
X-47800Y-25100D03*
X39100Y19200D03*
X-53031Y158069D03*
X25000Y215800D03*
X27500Y173400D03*
X48600Y170300D03*
X27500Y198800D03*
X-4800Y-140900D03*
X-18900Y-25600D03*
X-4900Y40200D03*
X-9700Y93300D03*
X15100Y-217000D03*
X-17700Y-215400D03*
X15700Y-164300D03*
X50300Y207600D03*
X-19300Y167200D03*
M02*
