G04 EAGLE Gerber RS-274X export*
G75*
%MOMM*%
%FSLAX34Y34*%
%LPD*%
%INSilkscreen Bottom*%
%IPPOS*%
%AMOC8*
5,1,8,0,0,1.08239X$1,22.5*%
G01*
G04 Define Apertures*
%ADD10C,0.127000*%
%ADD11C,0.200000*%
%ADD12C,0.120000*%
%ADD13C,0.152400*%
G36*
X133366Y184475D02*
X131053Y186788D01*
X125632Y187900D01*
X126464Y188732D01*
X130811Y187766D01*
X129853Y192122D01*
X130685Y192953D01*
X131805Y187540D01*
X134118Y185228D01*
X133366Y184475D01*
G37*
G36*
X126914Y178024D02*
X126308Y178630D01*
X127667Y179988D01*
X122693Y184962D01*
X123351Y185619D01*
X125576Y186031D01*
X126249Y185358D01*
X124091Y184997D01*
X128383Y180705D01*
X129805Y182126D01*
X130411Y181521D01*
X126914Y178024D01*
G37*
G36*
X124285Y101305D02*
X124056Y101314D01*
X123833Y101350D01*
X123617Y101413D01*
X123408Y101504D01*
X123205Y101622D01*
X123009Y101767D01*
X122820Y101939D01*
X122689Y102082D01*
X122575Y102229D01*
X122479Y102382D01*
X122400Y102540D01*
X122338Y102703D01*
X122293Y102872D01*
X122266Y103045D01*
X122256Y103224D01*
X122260Y103322D01*
X122263Y103406D01*
X122290Y103589D01*
X122334Y103772D01*
X122398Y103955D01*
X122479Y104140D01*
X122580Y104324D01*
X122698Y104510D01*
X122836Y104695D01*
X122525Y104528D01*
X122216Y104416D01*
X121908Y104361D01*
X121839Y104362D01*
X121600Y104363D01*
X121301Y104420D01*
X121016Y104531D01*
X120746Y104697D01*
X120617Y104800D01*
X120492Y104917D01*
X120335Y105089D01*
X120205Y105265D01*
X120100Y105446D01*
X120022Y105632D01*
X119969Y105823D01*
X119943Y106019D01*
X119942Y106219D01*
X119967Y106424D01*
X120018Y106634D01*
X120095Y106848D01*
X120198Y107067D01*
X120327Y107292D01*
X120482Y107520D01*
X120662Y107754D01*
X120869Y107992D01*
X121101Y108235D01*
X123129Y110263D01*
X128708Y104684D01*
X126443Y102419D01*
X126202Y102190D01*
X125961Y101988D01*
X125720Y101812D01*
X125479Y101662D01*
X125239Y101538D01*
X124999Y101440D01*
X124760Y101369D01*
X124521Y101324D01*
X124285Y101305D01*
G37*
%LPC*%
G36*
X124467Y102306D02*
X124610Y102312D01*
X124755Y102336D01*
X124904Y102381D01*
X125057Y102445D01*
X125214Y102529D01*
X125374Y102633D01*
X125538Y102757D01*
X125877Y103064D01*
X127346Y104533D01*
X125334Y106545D01*
X123925Y105135D01*
X123615Y104795D01*
X123380Y104467D01*
X123290Y104308D01*
X123219Y104152D01*
X123166Y103999D01*
X123132Y103849D01*
X123116Y103702D01*
X123119Y103559D01*
X123140Y103418D01*
X123180Y103281D01*
X123238Y103147D01*
X123315Y103016D01*
X123411Y102888D01*
X123525Y102763D01*
X123653Y102644D01*
X123784Y102543D01*
X123917Y102460D01*
X124051Y102395D01*
X124188Y102347D01*
X124327Y102318D01*
X124467Y102306D01*
G37*
G36*
X122210Y105177D02*
X122341Y105186D01*
X122609Y105255D01*
X122887Y105391D01*
X123175Y105594D01*
X123473Y105864D01*
X124744Y107135D01*
X122978Y108901D01*
X121707Y107630D01*
X121444Y107342D01*
X121239Y107064D01*
X121093Y106797D01*
X121006Y106541D01*
X120986Y106416D01*
X120984Y106292D01*
X121000Y106171D01*
X121033Y106051D01*
X121084Y105932D01*
X121153Y105815D01*
X121239Y105700D01*
X121343Y105586D01*
X121462Y105477D01*
X121582Y105385D01*
X121704Y105309D01*
X121828Y105251D01*
X121954Y105209D01*
X122081Y105185D01*
X122210Y105177D01*
G37*
%LPD*%
G36*
X135459Y111434D02*
X129879Y117013D01*
X130850Y117984D01*
X136175Y115572D01*
X136718Y115303D01*
X137083Y115105D01*
X137332Y114954D01*
X137043Y115437D01*
X136694Y116091D01*
X134310Y121444D01*
X135304Y122438D01*
X140884Y116859D01*
X140210Y116186D01*
X136488Y119908D01*
X135756Y120672D01*
X135328Y121124D01*
X135633Y120557D01*
X136084Y119663D01*
X138425Y114400D01*
X137894Y113869D01*
X132651Y116229D01*
X132010Y116542D01*
X131194Y116990D01*
X131803Y116434D01*
X132418Y115837D01*
X136140Y112115D01*
X135459Y111434D01*
G37*
G36*
X120471Y96446D02*
X119208Y97710D01*
X118424Y96926D01*
X117862Y97488D01*
X118646Y98272D01*
X114892Y102026D01*
X115640Y102774D01*
X121956Y101566D01*
X122510Y101012D01*
X119881Y98383D01*
X121144Y97120D01*
X120471Y96446D01*
G37*
%LPC*%
G36*
X119319Y98945D02*
X121291Y100917D01*
X121148Y100933D01*
X120641Y101012D01*
X117105Y101689D01*
X116689Y101796D01*
X116369Y101895D01*
X119319Y98945D01*
G37*
%LPD*%
G36*
X129512Y106643D02*
X129275Y106673D01*
X129046Y106732D01*
X128825Y106821D01*
X128612Y106939D01*
X128407Y107088D01*
X128210Y107266D01*
X128068Y107419D01*
X127946Y107572D01*
X127845Y107727D01*
X127764Y107882D01*
X127655Y108194D01*
X127608Y108509D01*
X127618Y108827D01*
X127681Y109145D01*
X127785Y109464D01*
X127919Y109782D01*
X128079Y110101D01*
X128261Y110418D01*
X128653Y111052D01*
X129137Y111849D01*
X129293Y112142D01*
X129392Y112364D01*
X129451Y112547D01*
X129489Y112721D01*
X129506Y112887D01*
X129501Y113043D01*
X129471Y113193D01*
X129413Y113336D01*
X129326Y113474D01*
X129212Y113606D01*
X129100Y113707D01*
X128984Y113790D01*
X128863Y113855D01*
X128739Y113903D01*
X128610Y113932D01*
X128477Y113944D01*
X128340Y113938D01*
X128198Y113915D01*
X127905Y113816D01*
X127600Y113649D01*
X127283Y113416D01*
X126955Y113115D01*
X126679Y112814D01*
X126461Y112521D01*
X126302Y112237D01*
X126200Y111960D01*
X126157Y111687D01*
X126172Y111410D01*
X126245Y111131D01*
X126377Y110850D01*
X125501Y110236D01*
X125388Y110460D01*
X125296Y110680D01*
X125227Y110898D01*
X125180Y111111D01*
X125155Y111322D01*
X125153Y111529D01*
X125173Y111732D01*
X125214Y111933D01*
X125279Y112134D01*
X125366Y112339D01*
X125477Y112550D01*
X125611Y112766D01*
X125768Y112986D01*
X125948Y113212D01*
X126151Y113442D01*
X126377Y113677D01*
X126631Y113919D01*
X126882Y114134D01*
X127131Y114322D01*
X127377Y114483D01*
X127620Y114618D01*
X127861Y114725D01*
X128099Y114805D01*
X128335Y114859D01*
X128565Y114885D01*
X128789Y114884D01*
X129006Y114856D01*
X129216Y114800D01*
X129419Y114717D01*
X129616Y114606D01*
X129805Y114468D01*
X129988Y114303D01*
X130133Y114144D01*
X130257Y113981D01*
X130358Y113814D01*
X130437Y113643D01*
X130496Y113468D01*
X130535Y113289D01*
X130555Y113106D01*
X130556Y112919D01*
X130536Y112723D01*
X130494Y112513D01*
X130429Y112289D01*
X130342Y112051D01*
X130224Y111787D01*
X130067Y111483D01*
X129632Y110755D01*
X129101Y109899D01*
X128894Y109524D01*
X128749Y109175D01*
X128701Y109009D01*
X128674Y108848D01*
X128666Y108693D01*
X128679Y108543D01*
X128716Y108397D01*
X128782Y108254D01*
X128876Y108113D01*
X128998Y107975D01*
X129122Y107863D01*
X129252Y107771D01*
X129386Y107699D01*
X129526Y107646D01*
X129670Y107614D01*
X129820Y107601D01*
X129975Y107608D01*
X130134Y107634D01*
X130298Y107680D01*
X130464Y107744D01*
X130633Y107827D01*
X130805Y107927D01*
X131155Y108184D01*
X131516Y108513D01*
X131837Y108864D01*
X132092Y109207D01*
X132280Y109542D01*
X132401Y109870D01*
X132437Y110031D01*
X132455Y110192D01*
X132456Y110353D01*
X132439Y110513D01*
X132406Y110672D01*
X132355Y110831D01*
X132287Y110989D01*
X132201Y111147D01*
X133080Y111733D01*
X133205Y111514D01*
X133305Y111292D01*
X133380Y111069D01*
X133431Y110843D01*
X133458Y110615D01*
X133460Y110384D01*
X133437Y110151D01*
X133390Y109916D01*
X133319Y109679D01*
X133223Y109439D01*
X133103Y109197D01*
X132958Y108952D01*
X132789Y108705D01*
X132595Y108456D01*
X132377Y108205D01*
X132134Y107951D01*
X131861Y107691D01*
X131590Y107460D01*
X131321Y107257D01*
X131055Y107083D01*
X130790Y106938D01*
X130528Y106821D01*
X130268Y106733D01*
X130010Y106674D01*
X129757Y106644D01*
X129512Y106643D01*
G37*
G36*
X114176Y91308D02*
X113940Y91337D01*
X113711Y91397D01*
X113490Y91485D01*
X113277Y91604D01*
X113072Y91752D01*
X112875Y91931D01*
X112732Y92083D01*
X112611Y92237D01*
X112510Y92391D01*
X112429Y92546D01*
X112320Y92859D01*
X112273Y93174D01*
X112283Y93491D01*
X112346Y93810D01*
X112450Y94128D01*
X112584Y94447D01*
X112743Y94765D01*
X112926Y95083D01*
X113318Y95716D01*
X113802Y96514D01*
X113958Y96807D01*
X114057Y97029D01*
X114116Y97212D01*
X114154Y97386D01*
X114171Y97551D01*
X114165Y97708D01*
X114136Y97857D01*
X114077Y98001D01*
X113991Y98139D01*
X113876Y98270D01*
X113764Y98371D01*
X113648Y98454D01*
X113528Y98520D01*
X113403Y98567D01*
X113274Y98597D01*
X113141Y98609D01*
X113004Y98603D01*
X112863Y98579D01*
X112570Y98480D01*
X112265Y98314D01*
X111948Y98080D01*
X111619Y97779D01*
X111344Y97478D01*
X111126Y97186D01*
X110966Y96901D01*
X110865Y96625D01*
X110822Y96351D01*
X110837Y96075D01*
X110910Y95796D01*
X111041Y95514D01*
X110166Y94901D01*
X110052Y95125D01*
X109961Y95345D01*
X109892Y95562D01*
X109845Y95776D01*
X109820Y95987D01*
X109818Y96193D01*
X109837Y96397D01*
X109879Y96597D01*
X109944Y96798D01*
X110031Y97004D01*
X110142Y97215D01*
X110275Y97430D01*
X110432Y97651D01*
X110612Y97876D01*
X110815Y98106D01*
X111041Y98342D01*
X111295Y98583D01*
X111547Y98799D01*
X111795Y98987D01*
X112042Y99148D01*
X112285Y99282D01*
X112526Y99390D01*
X112764Y99470D01*
X112999Y99524D01*
X113230Y99550D01*
X113454Y99549D01*
X113671Y99520D01*
X113881Y99465D01*
X114084Y99381D01*
X114280Y99271D01*
X114470Y99133D01*
X114653Y98967D01*
X114798Y98809D01*
X114921Y98646D01*
X115023Y98479D01*
X115102Y98308D01*
X115161Y98133D01*
X115200Y97953D01*
X115220Y97770D01*
X115221Y97583D01*
X115201Y97387D01*
X115158Y97177D01*
X115094Y96954D01*
X115007Y96716D01*
X114889Y96452D01*
X114731Y96147D01*
X114296Y95419D01*
X113766Y94564D01*
X113559Y94189D01*
X113413Y93839D01*
X113366Y93674D01*
X113338Y93513D01*
X113331Y93358D01*
X113344Y93208D01*
X113381Y93062D01*
X113446Y92918D01*
X113540Y92777D01*
X113663Y92639D01*
X113787Y92528D01*
X113916Y92436D01*
X114051Y92363D01*
X114190Y92311D01*
X114335Y92278D01*
X114484Y92265D01*
X114639Y92272D01*
X114799Y92299D01*
X114963Y92345D01*
X115129Y92409D01*
X115298Y92491D01*
X115469Y92592D01*
X115820Y92848D01*
X116181Y93178D01*
X116502Y93529D01*
X116757Y93871D01*
X116945Y94207D01*
X117066Y94534D01*
X117101Y94696D01*
X117120Y94857D01*
X117120Y95017D01*
X117104Y95177D01*
X117071Y95337D01*
X117020Y95495D01*
X116951Y95654D01*
X116866Y95811D01*
X117745Y96397D01*
X117869Y96178D01*
X117969Y95957D01*
X118045Y95734D01*
X118096Y95508D01*
X118122Y95279D01*
X118124Y95049D01*
X118102Y94816D01*
X118055Y94581D01*
X117984Y94343D01*
X117888Y94103D01*
X117767Y93861D01*
X117623Y93617D01*
X117453Y93370D01*
X117260Y93121D01*
X117041Y92869D01*
X116799Y92616D01*
X116526Y92356D01*
X116255Y92125D01*
X115986Y91922D01*
X115719Y91748D01*
X115455Y91603D01*
X115192Y91486D01*
X114932Y91398D01*
X114674Y91339D01*
X114421Y91309D01*
X114176Y91308D01*
G37*
G36*
X151000Y127830D02*
X150744Y127840D01*
X150493Y127878D01*
X150247Y127944D01*
X150005Y128038D01*
X149768Y128160D01*
X149536Y128310D01*
X149308Y128489D01*
X149085Y128696D01*
X148903Y128893D01*
X148746Y129096D01*
X148613Y129305D01*
X148504Y129521D01*
X148420Y129742D01*
X148361Y129970D01*
X148326Y130204D01*
X148315Y130444D01*
X148329Y130684D01*
X148369Y130921D01*
X148434Y131152D01*
X148525Y131379D01*
X148642Y131601D01*
X148784Y131818D01*
X148951Y132031D01*
X149144Y132240D01*
X149319Y132403D01*
X149497Y132548D01*
X149680Y132674D01*
X149866Y132783D01*
X150057Y132873D01*
X150251Y132946D01*
X150450Y133000D01*
X150653Y133035D01*
X148776Y134699D01*
X146254Y132176D01*
X145648Y132782D01*
X148820Y135954D01*
X152007Y133138D01*
X151310Y132441D01*
X151085Y132418D01*
X150875Y132378D01*
X150681Y132323D01*
X150503Y132251D01*
X150336Y132164D01*
X150175Y132060D01*
X150021Y131940D01*
X149873Y131804D01*
X149743Y131664D01*
X149630Y131521D01*
X149535Y131375D01*
X149457Y131225D01*
X149396Y131073D01*
X149352Y130918D01*
X149326Y130760D01*
X149317Y130598D01*
X149324Y130437D01*
X149349Y130280D01*
X149390Y130127D01*
X149447Y129978D01*
X149521Y129833D01*
X149611Y129691D01*
X149718Y129554D01*
X149841Y129420D01*
X149994Y129278D01*
X150148Y129154D01*
X150305Y129048D01*
X150464Y128960D01*
X150624Y128891D01*
X150787Y128840D01*
X150952Y128807D01*
X151118Y128793D01*
X151285Y128796D01*
X151448Y128819D01*
X151608Y128860D01*
X151765Y128920D01*
X151920Y128998D01*
X152071Y129095D01*
X152219Y129211D01*
X152364Y129345D01*
X152573Y129580D01*
X152735Y129820D01*
X152849Y130063D01*
X152914Y130309D01*
X152932Y130559D01*
X152901Y130814D01*
X152823Y131071D01*
X152696Y131333D01*
X153500Y131970D01*
X153620Y131776D01*
X153719Y131581D01*
X153797Y131384D01*
X153855Y131186D01*
X153892Y130987D01*
X153909Y130785D01*
X153905Y130583D01*
X153880Y130378D01*
X153836Y130174D01*
X153771Y129971D01*
X153686Y129769D01*
X153581Y129569D01*
X153457Y129369D01*
X153312Y129171D01*
X153147Y128974D01*
X152962Y128779D01*
X152727Y128560D01*
X152490Y128370D01*
X152250Y128209D01*
X152006Y128076D01*
X151759Y127972D01*
X151509Y127896D01*
X151256Y127849D01*
X151000Y127830D01*
G37*
G36*
X168771Y144746D02*
X167915Y149743D01*
X163354Y150488D01*
X164189Y151323D01*
X167888Y150642D01*
X167250Y154384D01*
X168086Y155220D01*
X168806Y150579D01*
X173827Y149803D01*
X172992Y148967D01*
X168842Y149696D01*
X169606Y145582D01*
X168771Y144746D01*
G37*
G36*
X164362Y141249D02*
X164140Y141272D01*
X163922Y141320D01*
X163709Y141395D01*
X163501Y141497D01*
X163297Y141624D01*
X163097Y141778D01*
X162902Y141958D01*
X162776Y142094D01*
X162667Y142235D01*
X162575Y142382D01*
X162500Y142534D01*
X162441Y142691D01*
X162398Y142853D01*
X162372Y143020D01*
X162363Y143193D01*
X162371Y143368D01*
X162396Y143543D01*
X162439Y143718D01*
X162500Y143892D01*
X162578Y144066D01*
X162673Y144240D01*
X162787Y144414D01*
X162917Y144587D01*
X162902Y144603D01*
X162560Y144407D01*
X162226Y144273D01*
X161899Y144200D01*
X161579Y144187D01*
X161268Y144236D01*
X161118Y144284D01*
X160970Y144347D01*
X160826Y144426D01*
X160684Y144521D01*
X160546Y144631D01*
X160411Y144757D01*
X160249Y144934D01*
X160111Y145116D01*
X159997Y145302D01*
X159907Y145494D01*
X159841Y145690D01*
X159800Y145892D01*
X159782Y146098D01*
X159789Y146309D01*
X159820Y146523D01*
X159875Y146736D01*
X159953Y146949D01*
X160055Y147161D01*
X160182Y147372D01*
X160332Y147583D01*
X160506Y147794D01*
X160704Y148004D01*
X160898Y148186D01*
X161095Y148347D01*
X161295Y148487D01*
X161498Y148607D01*
X161705Y148705D01*
X161915Y148783D01*
X162129Y148841D01*
X162345Y148877D01*
X162562Y148892D01*
X162775Y148885D01*
X162985Y148856D01*
X163191Y148805D01*
X163394Y148731D01*
X163594Y148635D01*
X163790Y148517D01*
X163983Y148376D01*
X163321Y147604D01*
X163075Y147773D01*
X162823Y147886D01*
X162565Y147944D01*
X162302Y147947D01*
X162039Y147896D01*
X161784Y147792D01*
X161537Y147635D01*
X161298Y147426D01*
X161071Y147166D01*
X160908Y146906D01*
X160809Y146646D01*
X160775Y146385D01*
X160801Y146128D01*
X160884Y145881D01*
X161023Y145643D01*
X161219Y145414D01*
X161333Y145310D01*
X161452Y145221D01*
X161575Y145149D01*
X161702Y145093D01*
X161832Y145053D01*
X161967Y145029D01*
X162248Y145030D01*
X162538Y145096D01*
X162828Y145227D01*
X163120Y145423D01*
X163412Y145684D01*
X163800Y146072D01*
X164418Y145454D01*
X164014Y145050D01*
X163719Y144723D01*
X163495Y144403D01*
X163409Y144245D01*
X163341Y144089D01*
X163291Y143935D01*
X163258Y143783D01*
X163243Y143634D01*
X163245Y143490D01*
X163264Y143350D01*
X163300Y143215D01*
X163354Y143085D01*
X163425Y142959D01*
X163513Y142838D01*
X163618Y142722D01*
X163750Y142600D01*
X163883Y142496D01*
X164017Y142409D01*
X164153Y142340D01*
X164291Y142289D01*
X164430Y142255D01*
X164571Y142239D01*
X164713Y142241D01*
X164997Y142293D01*
X165277Y142407D01*
X165552Y142583D01*
X165824Y142821D01*
X166062Y143090D01*
X166240Y143361D01*
X166359Y143634D01*
X166417Y143909D01*
X166415Y144185D01*
X166353Y144464D01*
X166231Y144744D01*
X166050Y145026D01*
X166853Y145696D01*
X167005Y145484D01*
X167132Y145271D01*
X167234Y145057D01*
X167313Y144841D01*
X167367Y144624D01*
X167397Y144406D01*
X167403Y144186D01*
X167384Y143965D01*
X167342Y143744D01*
X167277Y143524D01*
X167190Y143306D01*
X167080Y143088D01*
X166947Y142872D01*
X166792Y142657D01*
X166614Y142443D01*
X166414Y142231D01*
X166186Y142016D01*
X165958Y141828D01*
X165730Y141666D01*
X165502Y141531D01*
X165274Y141422D01*
X165046Y141339D01*
X164817Y141283D01*
X164588Y141253D01*
X164362Y141249D01*
G37*
G36*
X141954Y117930D02*
X141348Y118536D01*
X144259Y121446D01*
X144050Y121517D01*
X143820Y121572D01*
X143568Y121611D01*
X143295Y121634D01*
X142662Y121636D01*
X141899Y121581D01*
X140620Y121472D01*
X140147Y121451D01*
X139784Y121454D01*
X139487Y121477D01*
X139207Y121518D01*
X138945Y121577D01*
X138701Y121654D01*
X138476Y121750D01*
X138268Y121864D01*
X138079Y121998D01*
X137907Y122151D01*
X137737Y122336D01*
X137590Y122525D01*
X137469Y122717D01*
X137372Y122913D01*
X137300Y123113D01*
X137252Y123316D01*
X137229Y123524D01*
X137230Y123735D01*
X137256Y123947D01*
X137307Y124160D01*
X137383Y124372D01*
X137483Y124584D01*
X137607Y124796D01*
X137757Y125007D01*
X137931Y125219D01*
X138129Y125430D01*
X138323Y125611D01*
X138521Y125771D01*
X138722Y125911D01*
X138927Y126029D01*
X139135Y126126D01*
X139347Y126202D01*
X139563Y126257D01*
X139782Y126291D01*
X140002Y126303D01*
X140216Y126295D01*
X140427Y126265D01*
X140633Y126213D01*
X140835Y126140D01*
X141033Y126046D01*
X141227Y125931D01*
X141416Y125794D01*
X140755Y124998D01*
X140502Y125168D01*
X140245Y125283D01*
X139982Y125342D01*
X139713Y125346D01*
X139447Y125297D01*
X139192Y125197D01*
X138948Y125046D01*
X138715Y124843D01*
X138505Y124601D01*
X138352Y124353D01*
X138257Y124100D01*
X138220Y123842D01*
X138242Y123584D01*
X138323Y123335D01*
X138464Y123093D01*
X138664Y122860D01*
X138839Y122704D01*
X139026Y122576D01*
X139222Y122477D01*
X139430Y122406D01*
X139647Y122357D01*
X139874Y122324D01*
X140355Y122301D01*
X140869Y122325D01*
X141414Y122379D01*
X141986Y122439D01*
X142582Y122481D01*
X143199Y122491D01*
X143835Y122452D01*
X144159Y122408D01*
X144486Y122339D01*
X144815Y122245D01*
X145146Y122127D01*
X145649Y121624D01*
X141954Y117930D01*
G37*
G36*
X155478Y131453D02*
X154872Y132059D01*
X157782Y134969D01*
X157574Y135041D01*
X157343Y135096D01*
X157091Y135135D01*
X156818Y135157D01*
X156185Y135159D01*
X155422Y135104D01*
X154143Y134995D01*
X153670Y134975D01*
X153308Y134977D01*
X153010Y135000D01*
X152730Y135041D01*
X152468Y135100D01*
X152225Y135177D01*
X151999Y135273D01*
X151792Y135388D01*
X151602Y135521D01*
X151431Y135674D01*
X151260Y135859D01*
X151114Y136048D01*
X150992Y136240D01*
X150895Y136437D01*
X150823Y136636D01*
X150775Y136840D01*
X150752Y137047D01*
X150754Y137258D01*
X150780Y137471D01*
X150831Y137683D01*
X150906Y137896D01*
X151006Y138108D01*
X151131Y138319D01*
X151280Y138531D01*
X151454Y138742D01*
X151653Y138953D01*
X151846Y139134D01*
X152044Y139295D01*
X152245Y139434D01*
X152450Y139552D01*
X152658Y139649D01*
X152871Y139725D01*
X153086Y139780D01*
X153306Y139814D01*
X153525Y139827D01*
X153740Y139818D01*
X153950Y139788D01*
X154157Y139736D01*
X154359Y139664D01*
X154556Y139570D01*
X154750Y139454D01*
X154939Y139317D01*
X154278Y138521D01*
X154026Y138692D01*
X153768Y138806D01*
X153505Y138866D01*
X153237Y138870D01*
X152971Y138821D01*
X152716Y138720D01*
X152472Y138569D01*
X152239Y138367D01*
X152028Y138125D01*
X151875Y137877D01*
X151781Y137624D01*
X151744Y137365D01*
X151765Y137108D01*
X151847Y136858D01*
X151987Y136617D01*
X152187Y136383D01*
X152363Y136227D01*
X152549Y136099D01*
X152746Y136000D01*
X152953Y135930D01*
X153171Y135881D01*
X153397Y135847D01*
X153878Y135825D01*
X154392Y135848D01*
X154937Y135902D01*
X155509Y135962D01*
X156105Y136005D01*
X156723Y136014D01*
X157359Y135975D01*
X157683Y135931D01*
X158009Y135862D01*
X158338Y135769D01*
X158669Y135650D01*
X159172Y135148D01*
X155478Y131453D01*
G37*
G36*
X159986Y135961D02*
X159380Y136567D01*
X162290Y139477D01*
X162081Y139548D01*
X161851Y139603D01*
X161599Y139642D01*
X161326Y139665D01*
X160693Y139667D01*
X159930Y139612D01*
X158651Y139503D01*
X158178Y139483D01*
X157816Y139485D01*
X157518Y139508D01*
X157238Y139549D01*
X156976Y139608D01*
X156733Y139685D01*
X156507Y139781D01*
X156299Y139895D01*
X156110Y140029D01*
X155939Y140182D01*
X155768Y140367D01*
X155622Y140556D01*
X155500Y140748D01*
X155403Y140944D01*
X155331Y141144D01*
X155283Y141348D01*
X155260Y141555D01*
X155262Y141766D01*
X155288Y141979D01*
X155339Y142191D01*
X155414Y142403D01*
X155514Y142615D01*
X155639Y142827D01*
X155788Y143039D01*
X155962Y143250D01*
X156160Y143461D01*
X156354Y143642D01*
X156552Y143803D01*
X156753Y143942D01*
X156958Y144060D01*
X157166Y144157D01*
X157378Y144233D01*
X157594Y144288D01*
X157814Y144322D01*
X158033Y144335D01*
X158248Y144326D01*
X158458Y144296D01*
X158664Y144244D01*
X158867Y144172D01*
X159064Y144077D01*
X159258Y143962D01*
X159447Y143825D01*
X158786Y143029D01*
X158534Y143199D01*
X158276Y143314D01*
X158013Y143374D01*
X157744Y143378D01*
X157479Y143328D01*
X157224Y143228D01*
X156980Y143077D01*
X156746Y142875D01*
X156536Y142632D01*
X156383Y142385D01*
X156288Y142132D01*
X156251Y141873D01*
X156273Y141615D01*
X156354Y141366D01*
X156495Y141124D01*
X156695Y140891D01*
X156871Y140735D01*
X157057Y140607D01*
X157254Y140508D01*
X157461Y140437D01*
X157679Y140389D01*
X157905Y140355D01*
X158386Y140333D01*
X158900Y140356D01*
X159445Y140410D01*
X160017Y140470D01*
X160613Y140513D01*
X161230Y140522D01*
X161866Y140483D01*
X162190Y140439D01*
X162517Y140370D01*
X162846Y140277D01*
X163177Y140158D01*
X163680Y139655D01*
X159986Y135961D01*
G37*
G36*
X146450Y122426D02*
X145844Y123031D01*
X147203Y124390D01*
X142229Y129363D01*
X142886Y130020D01*
X145112Y130432D01*
X145785Y129759D01*
X143627Y129399D01*
X147919Y125106D01*
X149341Y126528D01*
X149947Y125922D01*
X146450Y122426D01*
G37*
G36*
X112533Y88509D02*
X106954Y94088D01*
X107710Y94844D01*
X113290Y89265D01*
X112533Y88509D01*
G37*
G36*
X-63262Y-181894D02*
X-70550Y-181894D01*
X-70550Y-180906D01*
X-67757Y-180906D01*
X-67033Y-179954D01*
X-70550Y-177041D01*
X-70550Y-175816D01*
X-66427Y-179333D01*
X-63262Y-176229D01*
X-63262Y-177393D01*
X-66914Y-180906D01*
X-63262Y-180906D01*
X-63262Y-181894D01*
G37*
D10*
X92100Y14814D02*
X81100Y14814D01*
X81100Y27386D02*
X92100Y27386D01*
X36541Y244076D02*
X28763Y251854D01*
X19873Y242964D02*
X27651Y235186D01*
X95672Y139265D02*
X103450Y131487D01*
X112340Y140377D02*
X104562Y148155D01*
X31195Y238730D02*
X23417Y246508D01*
X14527Y237618D02*
X22305Y229840D01*
X21921Y170420D02*
X10921Y170420D01*
X10921Y157848D02*
X21921Y157848D01*
X108056Y221966D02*
X115834Y229744D01*
X106944Y238634D02*
X99166Y230856D01*
X75827Y250915D02*
X83605Y258693D01*
X74715Y267583D02*
X66937Y259805D01*
X101018Y144611D02*
X108796Y136833D01*
X117686Y145723D02*
X109908Y153501D01*
X500Y200786D02*
X-10500Y200786D01*
X-10500Y188214D02*
X500Y188214D01*
X200Y208786D02*
X-10800Y208786D01*
X-10800Y196214D02*
X200Y196214D01*
X128836Y145514D02*
X136614Y137736D01*
X127724Y128846D02*
X119946Y136624D01*
X92300Y29314D02*
X81300Y29314D01*
X81300Y41886D02*
X92300Y41886D01*
X118166Y179556D02*
X125944Y187334D01*
X134834Y178444D02*
X127056Y170666D01*
X14945Y222480D02*
X7167Y230258D01*
X-1723Y221368D02*
X6055Y213590D01*
X-99579Y82344D02*
X-110579Y82344D01*
X-110579Y69772D02*
X-99579Y69772D01*
X-104722Y30604D02*
X-93722Y30604D01*
X-93722Y18032D02*
X-104722Y18032D01*
X-104300Y193514D02*
X-93300Y193514D01*
X-93300Y206086D02*
X-104300Y206086D01*
X-70414Y238400D02*
X-70414Y249400D01*
X-82986Y249400D02*
X-82986Y238400D01*
X1820Y224911D02*
X9598Y217133D01*
X708Y208243D02*
X-7070Y216021D01*
X44700Y300400D02*
X44700Y317200D01*
X44700Y340600D02*
X44700Y354900D01*
X-44700Y317200D02*
X-44700Y300400D01*
X-44700Y340600D02*
X-44700Y354900D01*
X44700Y354900D01*
D11*
X-33000Y268900D02*
X-32998Y268963D01*
X-32992Y269025D01*
X-32982Y269087D01*
X-32969Y269149D01*
X-32951Y269209D01*
X-32930Y269268D01*
X-32905Y269326D01*
X-32876Y269382D01*
X-32844Y269436D01*
X-32809Y269488D01*
X-32771Y269537D01*
X-32729Y269585D01*
X-32685Y269629D01*
X-32637Y269671D01*
X-32588Y269709D01*
X-32536Y269744D01*
X-32482Y269776D01*
X-32426Y269805D01*
X-32368Y269830D01*
X-32309Y269851D01*
X-32249Y269869D01*
X-32187Y269882D01*
X-32125Y269892D01*
X-32063Y269898D01*
X-32000Y269900D01*
X-31937Y269898D01*
X-31875Y269892D01*
X-31813Y269882D01*
X-31751Y269869D01*
X-31691Y269851D01*
X-31632Y269830D01*
X-31574Y269805D01*
X-31518Y269776D01*
X-31464Y269744D01*
X-31412Y269709D01*
X-31363Y269671D01*
X-31315Y269629D01*
X-31271Y269585D01*
X-31229Y269537D01*
X-31191Y269488D01*
X-31156Y269436D01*
X-31124Y269382D01*
X-31095Y269326D01*
X-31070Y269268D01*
X-31049Y269209D01*
X-31031Y269149D01*
X-31018Y269087D01*
X-31008Y269025D01*
X-31002Y268963D01*
X-31000Y268900D01*
X-31002Y268837D01*
X-31008Y268775D01*
X-31018Y268713D01*
X-31031Y268651D01*
X-31049Y268591D01*
X-31070Y268532D01*
X-31095Y268474D01*
X-31124Y268418D01*
X-31156Y268364D01*
X-31191Y268312D01*
X-31229Y268263D01*
X-31271Y268215D01*
X-31315Y268171D01*
X-31363Y268129D01*
X-31412Y268091D01*
X-31464Y268056D01*
X-31518Y268024D01*
X-31574Y267995D01*
X-31632Y267970D01*
X-31691Y267949D01*
X-31751Y267931D01*
X-31813Y267918D01*
X-31875Y267908D01*
X-31937Y267902D01*
X-32000Y267900D01*
X-32063Y267902D01*
X-32125Y267908D01*
X-32187Y267918D01*
X-32249Y267931D01*
X-32309Y267949D01*
X-32368Y267970D01*
X-32426Y267995D01*
X-32482Y268024D01*
X-32536Y268056D01*
X-32588Y268091D01*
X-32637Y268129D01*
X-32685Y268171D01*
X-32729Y268215D01*
X-32771Y268263D01*
X-32809Y268312D01*
X-32844Y268364D01*
X-32876Y268418D01*
X-32905Y268474D01*
X-32930Y268532D01*
X-32951Y268591D01*
X-32969Y268651D01*
X-32982Y268713D01*
X-32992Y268775D01*
X-32998Y268837D01*
X-33000Y268900D01*
D12*
X-61300Y332101D02*
X-82399Y332101D01*
X-82399Y347499D01*
X-61300Y347499D01*
D10*
X-74700Y20560D02*
X-85700Y20560D01*
X-85700Y7840D02*
X-74700Y7840D01*
X106805Y151028D02*
X114583Y143250D01*
X123577Y152244D02*
X115799Y160022D01*
X-76100Y5760D02*
X-87100Y5760D01*
X-87100Y-6960D02*
X-76100Y-6960D01*
X-34600Y263760D02*
X-23600Y263760D01*
X-23600Y251040D02*
X-34600Y251040D01*
X19500Y257240D02*
X30500Y257240D01*
X30500Y269960D02*
X19500Y269960D01*
X179700Y320040D02*
X190700Y320040D01*
X190700Y307320D02*
X179700Y307320D01*
X179700Y315930D02*
X190700Y315930D01*
X190700Y328650D02*
X179700Y328650D01*
X25921Y233309D02*
X18143Y241087D01*
X9149Y232093D02*
X16927Y224315D01*
X20470Y227857D02*
X12692Y235635D01*
X3698Y226641D02*
X11476Y218863D01*
X-64100Y327460D02*
X-75100Y327460D01*
X-75100Y314740D02*
X-64100Y314740D01*
X-80520Y284980D02*
X-116080Y284980D01*
X-80520Y284980D02*
X-80520Y300220D01*
X-116080Y300220D01*
X-116080Y284980D01*
D11*
X58943Y68890D02*
X58945Y69019D01*
X58951Y69148D01*
X58961Y69276D01*
X58975Y69405D01*
X58993Y69532D01*
X59014Y69659D01*
X59040Y69786D01*
X59069Y69911D01*
X59103Y70036D01*
X59140Y70159D01*
X59181Y70282D01*
X59226Y70403D01*
X59274Y70522D01*
X59326Y70640D01*
X59382Y70756D01*
X59441Y70871D01*
X59504Y70983D01*
X59570Y71094D01*
X59640Y71203D01*
X59713Y71309D01*
X59789Y71413D01*
X59868Y71515D01*
X59950Y71614D01*
X60036Y71711D01*
X60124Y71805D01*
X60215Y71896D01*
X60309Y71984D01*
X60406Y72070D01*
X60505Y72152D01*
X60607Y72231D01*
X60711Y72307D01*
X60817Y72380D01*
X60926Y72450D01*
X61036Y72516D01*
X61149Y72579D01*
X61264Y72638D01*
X61380Y72694D01*
X61498Y72746D01*
X61617Y72794D01*
X61738Y72839D01*
X61861Y72880D01*
X61984Y72917D01*
X62109Y72951D01*
X62234Y72980D01*
X62361Y73006D01*
X62488Y73027D01*
X62615Y73045D01*
X62744Y73059D01*
X62872Y73069D01*
X63001Y73075D01*
X63130Y73077D01*
X63259Y73075D01*
X63388Y73069D01*
X63516Y73059D01*
X63645Y73045D01*
X63772Y73027D01*
X63899Y73006D01*
X64026Y72980D01*
X64151Y72951D01*
X64276Y72917D01*
X64399Y72880D01*
X64522Y72839D01*
X64643Y72794D01*
X64762Y72746D01*
X64880Y72694D01*
X64996Y72638D01*
X65111Y72579D01*
X65223Y72516D01*
X65334Y72450D01*
X65443Y72380D01*
X65549Y72307D01*
X65653Y72231D01*
X65755Y72152D01*
X65854Y72070D01*
X65951Y71984D01*
X66045Y71896D01*
X66136Y71805D01*
X66224Y71711D01*
X66310Y71614D01*
X66392Y71515D01*
X66471Y71413D01*
X66547Y71309D01*
X66620Y71203D01*
X66690Y71094D01*
X66756Y70983D01*
X66819Y70871D01*
X66878Y70756D01*
X66934Y70640D01*
X66986Y70522D01*
X67034Y70403D01*
X67079Y70282D01*
X67120Y70159D01*
X67157Y70036D01*
X67191Y69911D01*
X67220Y69786D01*
X67246Y69659D01*
X67267Y69532D01*
X67285Y69405D01*
X67299Y69276D01*
X67309Y69148D01*
X67315Y69019D01*
X67317Y68890D01*
X67315Y68761D01*
X67309Y68632D01*
X67299Y68504D01*
X67285Y68375D01*
X67267Y68248D01*
X67246Y68121D01*
X67220Y67994D01*
X67191Y67869D01*
X67157Y67744D01*
X67120Y67621D01*
X67079Y67498D01*
X67034Y67377D01*
X66986Y67258D01*
X66934Y67140D01*
X66878Y67024D01*
X66819Y66909D01*
X66756Y66797D01*
X66690Y66686D01*
X66620Y66577D01*
X66547Y66471D01*
X66471Y66367D01*
X66392Y66265D01*
X66310Y66166D01*
X66224Y66069D01*
X66136Y65975D01*
X66045Y65884D01*
X65951Y65796D01*
X65854Y65710D01*
X65755Y65628D01*
X65653Y65549D01*
X65549Y65473D01*
X65443Y65400D01*
X65334Y65330D01*
X65224Y65264D01*
X65111Y65201D01*
X64996Y65142D01*
X64880Y65086D01*
X64762Y65034D01*
X64643Y64986D01*
X64522Y64941D01*
X64399Y64900D01*
X64276Y64863D01*
X64151Y64829D01*
X64026Y64800D01*
X63899Y64774D01*
X63772Y64753D01*
X63645Y64735D01*
X63516Y64721D01*
X63388Y64711D01*
X63259Y64705D01*
X63130Y64703D01*
X63001Y64705D01*
X62872Y64711D01*
X62744Y64721D01*
X62615Y64735D01*
X62488Y64753D01*
X62361Y64774D01*
X62234Y64800D01*
X62109Y64829D01*
X61984Y64863D01*
X61861Y64900D01*
X61738Y64941D01*
X61617Y64986D01*
X61498Y65034D01*
X61380Y65086D01*
X61264Y65142D01*
X61149Y65201D01*
X61036Y65264D01*
X60926Y65330D01*
X60817Y65400D01*
X60711Y65473D01*
X60607Y65549D01*
X60505Y65628D01*
X60406Y65710D01*
X60309Y65796D01*
X60215Y65884D01*
X60124Y65975D01*
X60036Y66069D01*
X59950Y66166D01*
X59868Y66265D01*
X59789Y66367D01*
X59713Y66471D01*
X59640Y66577D01*
X59570Y66686D01*
X59504Y66796D01*
X59441Y66909D01*
X59382Y67024D01*
X59326Y67140D01*
X59274Y67258D01*
X59226Y67377D01*
X59181Y67498D01*
X59140Y67621D01*
X59103Y67744D01*
X59069Y67869D01*
X59040Y67994D01*
X59014Y68121D01*
X58993Y68248D01*
X58975Y68375D01*
X58961Y68504D01*
X58951Y68632D01*
X58945Y68761D01*
X58943Y68890D01*
D10*
X-45000Y85000D02*
X-60000Y85000D01*
X-60000Y75000D01*
X-45000Y75000D01*
X-45000Y85000D01*
X45000Y75000D02*
X60000Y75000D01*
X60000Y85000D01*
X45000Y85000D01*
X45000Y75000D01*
X60000Y-95000D02*
X60000Y-105000D01*
X35000Y-105000D01*
X35000Y-90000D01*
X-35000Y-90000D02*
X-35000Y-105000D01*
X-60000Y-105000D01*
X35000Y-90000D02*
X45085Y-90000D01*
X45085Y-90160D01*
X45085Y-95000D01*
X60000Y-95000D01*
X-35000Y-90000D02*
X-45085Y-90000D01*
X-45085Y-90160D01*
X-45085Y-95000D01*
X-60000Y-95000D01*
X-60000Y-105000D01*
D13*
X-75802Y41003D02*
X-75802Y59545D01*
X-107298Y59545D02*
X-107298Y41003D01*
D11*
X75482Y250394D02*
X75484Y250457D01*
X75490Y250519D01*
X75500Y250581D01*
X75513Y250643D01*
X75531Y250703D01*
X75552Y250762D01*
X75577Y250820D01*
X75606Y250876D01*
X75638Y250930D01*
X75673Y250982D01*
X75711Y251031D01*
X75753Y251079D01*
X75797Y251123D01*
X75845Y251165D01*
X75894Y251203D01*
X75946Y251238D01*
X76000Y251270D01*
X76056Y251299D01*
X76114Y251324D01*
X76173Y251345D01*
X76233Y251363D01*
X76295Y251376D01*
X76357Y251386D01*
X76419Y251392D01*
X76482Y251394D01*
X76545Y251392D01*
X76607Y251386D01*
X76669Y251376D01*
X76731Y251363D01*
X76791Y251345D01*
X76850Y251324D01*
X76908Y251299D01*
X76964Y251270D01*
X77018Y251238D01*
X77070Y251203D01*
X77119Y251165D01*
X77167Y251123D01*
X77211Y251079D01*
X77253Y251031D01*
X77291Y250982D01*
X77326Y250930D01*
X77358Y250876D01*
X77387Y250820D01*
X77412Y250762D01*
X77433Y250703D01*
X77451Y250643D01*
X77464Y250581D01*
X77474Y250519D01*
X77480Y250457D01*
X77482Y250394D01*
X77480Y250331D01*
X77474Y250269D01*
X77464Y250207D01*
X77451Y250145D01*
X77433Y250085D01*
X77412Y250026D01*
X77387Y249968D01*
X77358Y249912D01*
X77326Y249858D01*
X77291Y249806D01*
X77253Y249757D01*
X77211Y249709D01*
X77167Y249665D01*
X77119Y249623D01*
X77070Y249585D01*
X77018Y249550D01*
X76964Y249518D01*
X76908Y249489D01*
X76850Y249464D01*
X76791Y249443D01*
X76731Y249425D01*
X76669Y249412D01*
X76607Y249402D01*
X76545Y249396D01*
X76482Y249394D01*
X76419Y249396D01*
X76357Y249402D01*
X76295Y249412D01*
X76233Y249425D01*
X76173Y249443D01*
X76114Y249464D01*
X76056Y249489D01*
X76000Y249518D01*
X75946Y249550D01*
X75894Y249585D01*
X75845Y249623D01*
X75797Y249665D01*
X75753Y249709D01*
X75711Y249757D01*
X75673Y249806D01*
X75638Y249858D01*
X75606Y249912D01*
X75577Y249968D01*
X75552Y250026D01*
X75531Y250085D01*
X75513Y250145D01*
X75500Y250207D01*
X75490Y250269D01*
X75484Y250331D01*
X75482Y250394D01*
D10*
X66618Y154263D02*
X63224Y150869D01*
X13727Y200366D02*
X17121Y203760D01*
X109327Y196972D02*
X112722Y200366D01*
X63224Y249863D02*
X59830Y246469D01*
X59830Y154263D02*
X63224Y150869D01*
X17121Y196972D02*
X13727Y200366D01*
X109327Y203760D02*
X112722Y200366D01*
X66618Y246469D02*
X63224Y249863D01*
X-114375Y271525D02*
X-149425Y271525D01*
X-149425Y206475D01*
X-114375Y206475D01*
X-114375Y271525D01*
D11*
X-82900Y261900D02*
X-82898Y261963D01*
X-82892Y262025D01*
X-82882Y262087D01*
X-82869Y262149D01*
X-82851Y262209D01*
X-82830Y262268D01*
X-82805Y262326D01*
X-82776Y262382D01*
X-82744Y262436D01*
X-82709Y262488D01*
X-82671Y262537D01*
X-82629Y262585D01*
X-82585Y262629D01*
X-82537Y262671D01*
X-82488Y262709D01*
X-82436Y262744D01*
X-82382Y262776D01*
X-82326Y262805D01*
X-82268Y262830D01*
X-82209Y262851D01*
X-82149Y262869D01*
X-82087Y262882D01*
X-82025Y262892D01*
X-81963Y262898D01*
X-81900Y262900D01*
X-81837Y262898D01*
X-81775Y262892D01*
X-81713Y262882D01*
X-81651Y262869D01*
X-81591Y262851D01*
X-81532Y262830D01*
X-81474Y262805D01*
X-81418Y262776D01*
X-81364Y262744D01*
X-81312Y262709D01*
X-81263Y262671D01*
X-81215Y262629D01*
X-81171Y262585D01*
X-81129Y262537D01*
X-81091Y262488D01*
X-81056Y262436D01*
X-81024Y262382D01*
X-80995Y262326D01*
X-80970Y262268D01*
X-80949Y262209D01*
X-80931Y262149D01*
X-80918Y262087D01*
X-80908Y262025D01*
X-80902Y261963D01*
X-80900Y261900D01*
X-80902Y261837D01*
X-80908Y261775D01*
X-80918Y261713D01*
X-80931Y261651D01*
X-80949Y261591D01*
X-80970Y261532D01*
X-80995Y261474D01*
X-81024Y261418D01*
X-81056Y261364D01*
X-81091Y261312D01*
X-81129Y261263D01*
X-81171Y261215D01*
X-81215Y261171D01*
X-81263Y261129D01*
X-81312Y261091D01*
X-81364Y261056D01*
X-81418Y261024D01*
X-81474Y260995D01*
X-81532Y260970D01*
X-81591Y260949D01*
X-81651Y260931D01*
X-81713Y260918D01*
X-81775Y260908D01*
X-81837Y260902D01*
X-81900Y260900D01*
X-81963Y260902D01*
X-82025Y260908D01*
X-82087Y260918D01*
X-82149Y260931D01*
X-82209Y260949D01*
X-82268Y260970D01*
X-82326Y260995D01*
X-82382Y261024D01*
X-82436Y261056D01*
X-82488Y261091D01*
X-82537Y261129D01*
X-82585Y261171D01*
X-82629Y261215D01*
X-82671Y261263D01*
X-82709Y261312D01*
X-82744Y261364D01*
X-82776Y261418D01*
X-82805Y261474D01*
X-82830Y261532D01*
X-82851Y261591D01*
X-82869Y261651D01*
X-82882Y261713D01*
X-82892Y261775D01*
X-82898Y261837D01*
X-82900Y261900D01*
X174532Y321550D02*
X174534Y321613D01*
X174540Y321675D01*
X174550Y321737D01*
X174563Y321799D01*
X174581Y321859D01*
X174602Y321918D01*
X174627Y321976D01*
X174656Y322032D01*
X174688Y322086D01*
X174723Y322138D01*
X174761Y322187D01*
X174803Y322235D01*
X174847Y322279D01*
X174895Y322321D01*
X174944Y322359D01*
X174996Y322394D01*
X175050Y322426D01*
X175106Y322455D01*
X175164Y322480D01*
X175223Y322501D01*
X175283Y322519D01*
X175345Y322532D01*
X175407Y322542D01*
X175469Y322548D01*
X175532Y322550D01*
X175595Y322548D01*
X175657Y322542D01*
X175719Y322532D01*
X175781Y322519D01*
X175841Y322501D01*
X175900Y322480D01*
X175958Y322455D01*
X176014Y322426D01*
X176068Y322394D01*
X176120Y322359D01*
X176169Y322321D01*
X176217Y322279D01*
X176261Y322235D01*
X176303Y322187D01*
X176341Y322138D01*
X176376Y322086D01*
X176408Y322032D01*
X176437Y321976D01*
X176462Y321918D01*
X176483Y321859D01*
X176501Y321799D01*
X176514Y321737D01*
X176524Y321675D01*
X176530Y321613D01*
X176532Y321550D01*
X176530Y321487D01*
X176524Y321425D01*
X176514Y321363D01*
X176501Y321301D01*
X176483Y321241D01*
X176462Y321182D01*
X176437Y321124D01*
X176408Y321068D01*
X176376Y321014D01*
X176341Y320962D01*
X176303Y320913D01*
X176261Y320865D01*
X176217Y320821D01*
X176169Y320779D01*
X176120Y320741D01*
X176068Y320706D01*
X176014Y320674D01*
X175958Y320645D01*
X175900Y320620D01*
X175841Y320599D01*
X175781Y320581D01*
X175719Y320568D01*
X175657Y320558D01*
X175595Y320552D01*
X175532Y320550D01*
X175469Y320552D01*
X175407Y320558D01*
X175345Y320568D01*
X175283Y320581D01*
X175223Y320599D01*
X175164Y320620D01*
X175106Y320645D01*
X175050Y320674D01*
X174996Y320706D01*
X174944Y320741D01*
X174895Y320779D01*
X174847Y320821D01*
X174803Y320865D01*
X174761Y320913D01*
X174723Y320962D01*
X174688Y321014D01*
X174656Y321068D01*
X174627Y321124D01*
X174602Y321182D01*
X174581Y321241D01*
X174563Y321301D01*
X174550Y321363D01*
X174540Y321425D01*
X174534Y321487D01*
X174532Y321550D01*
D10*
X149782Y328900D02*
X96982Y328900D01*
X96982Y276100D02*
X149782Y276100D01*
D11*
X143928Y179774D02*
X143930Y179837D01*
X143936Y179899D01*
X143946Y179961D01*
X143959Y180023D01*
X143977Y180083D01*
X143998Y180142D01*
X144023Y180200D01*
X144052Y180256D01*
X144084Y180310D01*
X144119Y180362D01*
X144157Y180411D01*
X144199Y180459D01*
X144243Y180503D01*
X144291Y180545D01*
X144340Y180583D01*
X144392Y180618D01*
X144446Y180650D01*
X144502Y180679D01*
X144560Y180704D01*
X144619Y180725D01*
X144679Y180743D01*
X144741Y180756D01*
X144803Y180766D01*
X144865Y180772D01*
X144928Y180774D01*
X144991Y180772D01*
X145053Y180766D01*
X145115Y180756D01*
X145177Y180743D01*
X145237Y180725D01*
X145296Y180704D01*
X145354Y180679D01*
X145410Y180650D01*
X145464Y180618D01*
X145516Y180583D01*
X145565Y180545D01*
X145613Y180503D01*
X145657Y180459D01*
X145699Y180411D01*
X145737Y180362D01*
X145772Y180310D01*
X145804Y180256D01*
X145833Y180200D01*
X145858Y180142D01*
X145879Y180083D01*
X145897Y180023D01*
X145910Y179961D01*
X145920Y179899D01*
X145926Y179837D01*
X145928Y179774D01*
X145926Y179711D01*
X145920Y179649D01*
X145910Y179587D01*
X145897Y179525D01*
X145879Y179465D01*
X145858Y179406D01*
X145833Y179348D01*
X145804Y179292D01*
X145772Y179238D01*
X145737Y179186D01*
X145699Y179137D01*
X145657Y179089D01*
X145613Y179045D01*
X145565Y179003D01*
X145516Y178965D01*
X145464Y178930D01*
X145410Y178898D01*
X145354Y178869D01*
X145296Y178844D01*
X145237Y178823D01*
X145177Y178805D01*
X145115Y178792D01*
X145053Y178782D01*
X144991Y178776D01*
X144928Y178774D01*
X144865Y178776D01*
X144803Y178782D01*
X144741Y178792D01*
X144679Y178805D01*
X144619Y178823D01*
X144560Y178844D01*
X144502Y178869D01*
X144446Y178898D01*
X144392Y178930D01*
X144340Y178965D01*
X144291Y179003D01*
X144243Y179045D01*
X144199Y179089D01*
X144157Y179137D01*
X144119Y179186D01*
X144084Y179238D01*
X144052Y179292D01*
X144023Y179348D01*
X143998Y179406D01*
X143977Y179465D01*
X143959Y179525D01*
X143946Y179587D01*
X143936Y179649D01*
X143930Y179711D01*
X143928Y179774D01*
D13*
X-134500Y89500D02*
X-220000Y89500D01*
X-220000Y-89500D01*
X-134500Y-89500D01*
X-134500Y81500D02*
X-134500Y89500D01*
X-134500Y81500D02*
X-167500Y81500D01*
X-167500Y-81500D01*
X-134500Y-81500D01*
X-134500Y-89500D01*
D10*
X-74800Y-136700D02*
X-74800Y-164700D01*
X-58800Y-164700D02*
X-58800Y-136700D01*
X-60450Y-146890D02*
X-66800Y-154510D01*
X-61720Y-146890D02*
X-60450Y-146890D01*
X-61720Y-146890D02*
X-62990Y-146890D01*
X-73150Y-146890D01*
X-66800Y-154510D01*
X-61720Y-146890D01*
X-71880Y-148160D01*
X-66800Y-153240D01*
X-62990Y-146890D01*
X-70610Y-148160D01*
X-66800Y-151970D01*
X-64260Y-148160D01*
X-65530Y-148160D01*
X-69340Y-148160D01*
X-68070Y-149430D01*
X-66800Y-150700D01*
X-65530Y-148160D01*
X-68070Y-149430D01*
X-66800Y-149430D01*
X-60450Y-159590D02*
X-73150Y-159590D01*
D13*
X-220000Y-200000D02*
X-220000Y-114500D01*
X-220000Y-200000D02*
X-81000Y-200000D01*
X-81000Y-114500D01*
X-212000Y-114500D02*
X-220000Y-114500D01*
X-212000Y-114500D02*
X-212000Y-147500D01*
X-89000Y-147500D01*
X-89000Y-114500D01*
X-81000Y-114500D01*
D10*
X116730Y-24800D02*
X116730Y-11800D01*
X148130Y-11800D02*
X148130Y-24800D01*
D11*
X118430Y4200D02*
X118432Y4263D01*
X118438Y4325D01*
X118448Y4387D01*
X118461Y4449D01*
X118479Y4509D01*
X118500Y4568D01*
X118525Y4626D01*
X118554Y4682D01*
X118586Y4736D01*
X118621Y4788D01*
X118659Y4837D01*
X118701Y4885D01*
X118745Y4929D01*
X118793Y4971D01*
X118842Y5009D01*
X118894Y5044D01*
X118948Y5076D01*
X119004Y5105D01*
X119062Y5130D01*
X119121Y5151D01*
X119181Y5169D01*
X119243Y5182D01*
X119305Y5192D01*
X119367Y5198D01*
X119430Y5200D01*
X119493Y5198D01*
X119555Y5192D01*
X119617Y5182D01*
X119679Y5169D01*
X119739Y5151D01*
X119798Y5130D01*
X119856Y5105D01*
X119912Y5076D01*
X119966Y5044D01*
X120018Y5009D01*
X120067Y4971D01*
X120115Y4929D01*
X120159Y4885D01*
X120201Y4837D01*
X120239Y4788D01*
X120274Y4736D01*
X120306Y4682D01*
X120335Y4626D01*
X120360Y4568D01*
X120381Y4509D01*
X120399Y4449D01*
X120412Y4387D01*
X120422Y4325D01*
X120428Y4263D01*
X120430Y4200D01*
X120428Y4137D01*
X120422Y4075D01*
X120412Y4013D01*
X120399Y3951D01*
X120381Y3891D01*
X120360Y3832D01*
X120335Y3774D01*
X120306Y3718D01*
X120274Y3664D01*
X120239Y3612D01*
X120201Y3563D01*
X120159Y3515D01*
X120115Y3471D01*
X120067Y3429D01*
X120018Y3391D01*
X119966Y3356D01*
X119912Y3324D01*
X119856Y3295D01*
X119798Y3270D01*
X119739Y3249D01*
X119679Y3231D01*
X119617Y3218D01*
X119555Y3208D01*
X119493Y3202D01*
X119430Y3200D01*
X119367Y3202D01*
X119305Y3208D01*
X119243Y3218D01*
X119181Y3231D01*
X119121Y3249D01*
X119062Y3270D01*
X119004Y3295D01*
X118948Y3324D01*
X118894Y3356D01*
X118842Y3391D01*
X118793Y3429D01*
X118745Y3471D01*
X118701Y3515D01*
X118659Y3563D01*
X118621Y3612D01*
X118586Y3664D01*
X118554Y3718D01*
X118525Y3774D01*
X118500Y3832D01*
X118479Y3891D01*
X118461Y3951D01*
X118448Y4013D01*
X118438Y4075D01*
X118432Y4137D01*
X118430Y4200D01*
D10*
X116730Y-24800D02*
X126230Y-24800D01*
X138630Y-24800D02*
X148130Y-24800D01*
X138200Y12419D02*
X127200Y12419D01*
X127200Y-301D02*
X138200Y-301D01*
X160160Y-19000D02*
X160160Y-30000D01*
X147440Y-30000D02*
X147440Y-19000D01*
D13*
X129856Y-185048D02*
X134789Y-186844D01*
X129856Y-185048D02*
X121164Y-181885D01*
X92503Y-171453D01*
X134789Y-186844D02*
X143169Y-163822D01*
X173951Y-79249D01*
X182330Y-56227D01*
X140044Y-40836D02*
X92503Y-171453D01*
X177397Y-54431D02*
X182330Y-56227D01*
X177397Y-54431D02*
X168705Y-51267D01*
X140044Y-40836D01*
X122959Y-176951D02*
X121164Y-181885D01*
X122959Y-176951D02*
X99232Y-168315D01*
X143182Y-47565D01*
X166909Y-56201D01*
X168705Y-51267D01*
X138236Y-162026D02*
X129856Y-185048D01*
X138236Y-162026D02*
X143169Y-163822D01*
X173951Y-79249D02*
X169017Y-77454D01*
X177397Y-54431D01*
D10*
X-159836Y308160D02*
X-172836Y308160D01*
X-172836Y276760D02*
X-159836Y276760D01*
D11*
X-144836Y305460D02*
X-144834Y305523D01*
X-144828Y305585D01*
X-144818Y305647D01*
X-144805Y305709D01*
X-144787Y305769D01*
X-144766Y305828D01*
X-144741Y305886D01*
X-144712Y305942D01*
X-144680Y305996D01*
X-144645Y306048D01*
X-144607Y306097D01*
X-144565Y306145D01*
X-144521Y306189D01*
X-144473Y306231D01*
X-144424Y306269D01*
X-144372Y306304D01*
X-144318Y306336D01*
X-144262Y306365D01*
X-144204Y306390D01*
X-144145Y306411D01*
X-144085Y306429D01*
X-144023Y306442D01*
X-143961Y306452D01*
X-143899Y306458D01*
X-143836Y306460D01*
X-143773Y306458D01*
X-143711Y306452D01*
X-143649Y306442D01*
X-143587Y306429D01*
X-143527Y306411D01*
X-143468Y306390D01*
X-143410Y306365D01*
X-143354Y306336D01*
X-143300Y306304D01*
X-143248Y306269D01*
X-143199Y306231D01*
X-143151Y306189D01*
X-143107Y306145D01*
X-143065Y306097D01*
X-143027Y306048D01*
X-142992Y305996D01*
X-142960Y305942D01*
X-142931Y305886D01*
X-142906Y305828D01*
X-142885Y305769D01*
X-142867Y305709D01*
X-142854Y305647D01*
X-142844Y305585D01*
X-142838Y305523D01*
X-142836Y305460D01*
X-142838Y305397D01*
X-142844Y305335D01*
X-142854Y305273D01*
X-142867Y305211D01*
X-142885Y305151D01*
X-142906Y305092D01*
X-142931Y305034D01*
X-142960Y304978D01*
X-142992Y304924D01*
X-143027Y304872D01*
X-143065Y304823D01*
X-143107Y304775D01*
X-143151Y304731D01*
X-143199Y304689D01*
X-143248Y304651D01*
X-143300Y304616D01*
X-143354Y304584D01*
X-143410Y304555D01*
X-143468Y304530D01*
X-143527Y304509D01*
X-143587Y304491D01*
X-143649Y304478D01*
X-143711Y304468D01*
X-143773Y304462D01*
X-143836Y304460D01*
X-143899Y304462D01*
X-143961Y304468D01*
X-144023Y304478D01*
X-144085Y304491D01*
X-144145Y304509D01*
X-144204Y304530D01*
X-144262Y304555D01*
X-144318Y304584D01*
X-144372Y304616D01*
X-144424Y304651D01*
X-144473Y304689D01*
X-144521Y304731D01*
X-144565Y304775D01*
X-144607Y304823D01*
X-144645Y304872D01*
X-144680Y304924D01*
X-144712Y304978D01*
X-144741Y305034D01*
X-144766Y305092D01*
X-144787Y305151D01*
X-144805Y305211D01*
X-144818Y305273D01*
X-144828Y305335D01*
X-144834Y305397D01*
X-144836Y305460D01*
D10*
X-172836Y308160D02*
X-172836Y298660D01*
X-172836Y286260D02*
X-172836Y276760D01*
X-127540Y278100D02*
X-127540Y289100D01*
X-140260Y289100D02*
X-140260Y278100D01*
X-186540Y284100D02*
X-186540Y295100D01*
X-199260Y295100D02*
X-199260Y284100D01*
X97968Y-102527D02*
X108304Y-106289D01*
X104004Y-118103D02*
X93668Y-114341D01*
X-198400Y252314D02*
X-209400Y252314D01*
X-209400Y264886D02*
X-198400Y264886D01*
X202960Y294900D02*
X202960Y305900D01*
X190240Y305900D02*
X190240Y294900D01*
X61014Y319200D02*
X61014Y330200D01*
X73586Y330200D02*
X73586Y319200D01*
M02*
