G04 EAGLE Gerber RS-274X export*
G75*
%MOMM*%
%FSLAX34Y34*%
%LPD*%
%INSoldermask Bottom*%
%IPPOS*%
%AMOC8*
5,1,8,0,0,1.08239X$1,22.5*%
G01*
G04 Define Apertures*
%ADD10C,2.403200*%
%ADD11R,0.763200X0.832300*%
%ADD12R,0.832300X0.763200*%
%ADD13R,1.643200X1.643200*%
%ADD14C,1.643200*%
%ADD15R,0.400000X1.240000*%
%ADD16R,0.700000X1.240000*%
%ADD17C,0.803200*%
%ADD18R,0.815000X1.115000*%
%ADD19R,0.738300X0.847200*%
%ADD20R,1.403200X0.903200*%
%ADD21C,1.503200*%
%ADD22R,0.762000X1.625600*%
%ADD23C,0.254016*%
%ADD24R,3.303200X3.303200*%
%ADD25C,0.339959*%
%ADD26C,0.393431*%
%ADD27C,0.344606*%
%ADD28R,1.403200X1.603200*%
%ADD29R,1.423200X1.113200*%
%ADD30C,0.353406*%
%ADD31R,0.847200X0.738300*%
%ADD32R,1.643200X1.643200*%
%ADD33C,0.705600*%
G36*
X-42126Y337824D02*
X-41059Y337450D01*
X-40101Y336849D01*
X-39302Y336049D01*
X-38700Y335091D01*
X-38326Y334024D01*
X-38200Y332903D01*
X-38200Y324897D01*
X-38326Y323776D01*
X-38700Y322709D01*
X-39302Y321751D01*
X-40101Y320952D01*
X-41059Y320350D01*
X-42126Y319976D01*
X-43250Y319850D01*
X-44374Y319976D01*
X-45441Y320350D01*
X-46399Y320952D01*
X-47199Y321751D01*
X-47800Y322709D01*
X-48174Y323776D01*
X-48300Y324897D01*
X-48300Y332903D01*
X-48174Y334024D01*
X-47800Y335091D01*
X-47199Y336049D01*
X-46399Y336849D01*
X-45441Y337450D01*
X-44374Y337824D01*
X-43250Y337950D01*
X-42126Y337824D01*
G37*
G36*
X44374Y337824D02*
X45441Y337450D01*
X46399Y336849D01*
X47199Y336049D01*
X47800Y335091D01*
X48174Y334024D01*
X48300Y332903D01*
X48300Y324897D01*
X48174Y323776D01*
X47800Y322709D01*
X47199Y321751D01*
X46399Y320952D01*
X45441Y320350D01*
X44374Y319976D01*
X43250Y319850D01*
X42126Y319976D01*
X41059Y320350D01*
X40101Y320952D01*
X39302Y321751D01*
X38700Y322709D01*
X38326Y323776D01*
X38200Y324897D01*
X38200Y332903D01*
X38326Y334024D01*
X38700Y335091D01*
X39302Y336049D01*
X40101Y336849D01*
X41059Y337450D01*
X42126Y337824D01*
X43250Y337950D01*
X44374Y337824D01*
G37*
G36*
X-42126Y297624D02*
X-41059Y297250D01*
X-40101Y296649D01*
X-39302Y295849D01*
X-38700Y294891D01*
X-38326Y293824D01*
X-38200Y292703D01*
X-38200Y281697D01*
X-38326Y280576D01*
X-38700Y279509D01*
X-39302Y278551D01*
X-40101Y277752D01*
X-41059Y277150D01*
X-42126Y276776D01*
X-43250Y276650D01*
X-44374Y276776D01*
X-45441Y277150D01*
X-46399Y277752D01*
X-47199Y278551D01*
X-47800Y279509D01*
X-48174Y280576D01*
X-48300Y281697D01*
X-48300Y292703D01*
X-48174Y293824D01*
X-47800Y294891D01*
X-47199Y295849D01*
X-46399Y296649D01*
X-45441Y297250D01*
X-44374Y297624D01*
X-43250Y297750D01*
X-42126Y297624D01*
G37*
G36*
X44374Y297624D02*
X45441Y297250D01*
X46399Y296649D01*
X47199Y295849D01*
X47800Y294891D01*
X48174Y293824D01*
X48300Y292703D01*
X48300Y281697D01*
X48174Y280576D01*
X47800Y279509D01*
X47199Y278551D01*
X46399Y277752D01*
X45441Y277150D01*
X44374Y276776D01*
X43250Y276650D01*
X42137Y276764D01*
X41076Y277123D01*
X40122Y277709D01*
X39322Y278493D01*
X38717Y279435D01*
X38336Y280488D01*
X38200Y281597D01*
X38200Y292603D01*
X38316Y293736D01*
X38683Y294817D01*
X39281Y295791D01*
X40081Y296606D01*
X41042Y297223D01*
X42116Y297611D01*
X43250Y297750D01*
X44374Y297624D01*
G37*
D10*
X0Y-140000D03*
X-105000Y158500D03*
X-160000Y150000D03*
X-190000Y320000D03*
X-115800Y-106600D03*
X60000Y-160000D03*
X120000Y75000D03*
X-52400Y239500D03*
X120000Y27000D03*
X-45000Y-170000D03*
D11*
X81754Y21100D03*
X91446Y21100D03*
G36*
X31877Y245733D02*
X37274Y240336D01*
X31391Y234453D01*
X25994Y239850D01*
X31877Y245733D01*
G37*
G36*
X25023Y252587D02*
X30420Y247190D01*
X24537Y241307D01*
X19140Y246704D01*
X25023Y252587D01*
G37*
G36*
X100336Y137608D02*
X94939Y143005D01*
X100822Y148888D01*
X106219Y143491D01*
X100336Y137608D01*
G37*
G36*
X107190Y130754D02*
X101793Y136151D01*
X107676Y142034D01*
X113073Y136637D01*
X107190Y130754D01*
G37*
G36*
X26531Y240387D02*
X31928Y234990D01*
X26045Y229107D01*
X20648Y234504D01*
X26531Y240387D01*
G37*
G36*
X19677Y247241D02*
X25074Y241844D01*
X19191Y235961D01*
X13794Y241358D01*
X19677Y247241D01*
G37*
X21267Y164134D03*
X11575Y164134D03*
G36*
X109713Y226630D02*
X104316Y221233D01*
X98433Y227116D01*
X103830Y232513D01*
X109713Y226630D01*
G37*
G36*
X116567Y233484D02*
X111170Y228087D01*
X105287Y233970D01*
X110684Y239367D01*
X116567Y233484D01*
G37*
G36*
X77484Y255579D02*
X72087Y250182D01*
X66204Y256065D01*
X71601Y261462D01*
X77484Y255579D01*
G37*
G36*
X84338Y262433D02*
X78941Y257036D01*
X73058Y262919D01*
X78455Y268316D01*
X84338Y262433D01*
G37*
G36*
X105682Y142954D02*
X100285Y148351D01*
X106168Y154234D01*
X111565Y148837D01*
X105682Y142954D01*
G37*
G36*
X112536Y136100D02*
X107139Y141497D01*
X113022Y147380D01*
X118419Y141983D01*
X112536Y136100D01*
G37*
X-154Y194500D03*
X-9846Y194500D03*
X-454Y202500D03*
X-10146Y202500D03*
G36*
X131950Y139393D02*
X137347Y133996D01*
X131464Y128113D01*
X126067Y133510D01*
X131950Y139393D01*
G37*
G36*
X125096Y146247D02*
X130493Y140850D01*
X124610Y134967D01*
X119213Y140364D01*
X125096Y146247D01*
G37*
X81954Y35600D03*
X91646Y35600D03*
G36*
X124287Y182670D02*
X129684Y188067D01*
X135567Y182184D01*
X130170Y176787D01*
X124287Y182670D01*
G37*
G36*
X117433Y175816D02*
X122830Y181213D01*
X128713Y175330D01*
X123316Y169933D01*
X117433Y175816D01*
G37*
G36*
X10281Y224137D02*
X15678Y218740D01*
X9795Y212857D01*
X4398Y218254D01*
X10281Y224137D01*
G37*
G36*
X3427Y230991D02*
X8824Y225594D01*
X2941Y219711D01*
X-2456Y225108D01*
X3427Y230991D01*
G37*
X-100233Y76058D03*
X-109925Y76058D03*
X-94376Y24318D03*
X-104068Y24318D03*
X-103646Y199800D03*
X-93954Y199800D03*
D12*
X-76700Y239054D03*
X-76700Y248746D03*
D11*
G36*
X4934Y218790D02*
X10331Y213393D01*
X4448Y207510D01*
X-949Y212907D01*
X4934Y218790D01*
G37*
G36*
X-1920Y225644D02*
X3477Y220247D01*
X-2406Y214364D01*
X-7803Y219761D01*
X-1920Y225644D01*
G37*
D13*
X50000Y120000D03*
D14*
X30000Y120000D03*
X10000Y120000D03*
X-10000Y120000D03*
X-30000Y120000D03*
X-50000Y120000D03*
D15*
X-17500Y281400D03*
X-12500Y281400D03*
X-7500Y281400D03*
X17500Y281400D03*
X12500Y281400D03*
X7500Y281400D03*
X-2500Y281400D03*
X2500Y281400D03*
D16*
X-32000Y281400D03*
X32000Y281400D03*
X-24000Y281400D03*
X24000Y281400D03*
D17*
X-28900Y292100D03*
X28900Y292100D03*
D18*
X-76800Y339800D03*
X-61800Y339800D03*
D19*
X-75125Y14200D03*
X-85275Y14200D03*
G36*
X111217Y149620D02*
X105997Y154840D01*
X111987Y160830D01*
X117207Y155610D01*
X111217Y149620D01*
G37*
G36*
X118395Y142442D02*
X113175Y147662D01*
X119165Y153652D01*
X124385Y148432D01*
X118395Y142442D01*
G37*
X-76525Y-600D03*
X-86675Y-600D03*
X-24025Y257400D03*
X-34175Y257400D03*
X19925Y263600D03*
X30075Y263600D03*
X190275Y313680D03*
X180125Y313680D03*
X180125Y322290D03*
X190275Y322290D03*
G36*
X21509Y234717D02*
X26729Y229497D01*
X20739Y223507D01*
X15519Y228727D01*
X21509Y234717D01*
G37*
G36*
X14331Y241895D02*
X19551Y236675D01*
X13561Y230685D01*
X8341Y235905D01*
X14331Y241895D01*
G37*
G36*
X16058Y229265D02*
X21278Y224045D01*
X15288Y218055D01*
X10068Y223275D01*
X16058Y229265D01*
G37*
G36*
X8880Y236443D02*
X14100Y231223D01*
X8110Y225233D01*
X2890Y230453D01*
X8880Y236443D01*
G37*
X-64525Y321100D03*
X-74675Y321100D03*
D20*
X-116800Y292600D03*
X-79800Y292600D03*
D21*
X53500Y56600D03*
X53500Y38800D03*
X53500Y21000D03*
X53500Y3200D03*
X53500Y-14600D03*
X53500Y-32400D03*
X53500Y-50200D03*
X53500Y-68000D03*
X-53500Y-76900D03*
X-53500Y-59100D03*
X-53500Y-41300D03*
X-53500Y-23500D03*
X-53500Y-5700D03*
X-53500Y12100D03*
X-53500Y29900D03*
X-53500Y47700D03*
D22*
X-101050Y61718D03*
X-91550Y61718D03*
X-82050Y61718D03*
X-82050Y38830D03*
X-101050Y38830D03*
D23*
X102581Y196724D02*
X103636Y197779D01*
X109215Y192200D01*
X108160Y191145D01*
X102581Y196724D01*
X105747Y193558D02*
X107857Y193558D01*
X105444Y195971D02*
X103334Y195971D01*
X100807Y194950D02*
X99752Y193895D01*
X100807Y194950D02*
X106386Y189371D01*
X105331Y188316D01*
X99752Y193895D01*
X102918Y190729D02*
X105028Y190729D01*
X102615Y193142D02*
X100505Y193142D01*
X97979Y192122D02*
X96924Y191067D01*
X97979Y192122D02*
X103558Y186543D01*
X102503Y185488D01*
X96924Y191067D01*
X100090Y187901D02*
X102200Y187901D01*
X99787Y190314D02*
X97677Y190314D01*
X95151Y189293D02*
X94096Y188238D01*
X95151Y189293D02*
X100730Y183714D01*
X99675Y182659D01*
X94096Y188238D01*
X97262Y185072D02*
X99372Y185072D01*
X96959Y187485D02*
X94849Y187485D01*
X92322Y186465D02*
X91267Y185410D01*
X92322Y186465D02*
X97901Y180886D01*
X96846Y179831D01*
X91267Y185410D01*
X94433Y182244D02*
X96543Y182244D01*
X94130Y184657D02*
X92020Y184657D01*
X89494Y183637D02*
X88439Y182582D01*
X89494Y183637D02*
X95073Y178058D01*
X94018Y177003D01*
X88439Y182582D01*
X91605Y179416D02*
X93715Y179416D01*
X91302Y181829D02*
X89192Y181829D01*
X86665Y180808D02*
X85610Y179753D01*
X86665Y180808D02*
X92244Y175229D01*
X91189Y174174D01*
X85610Y179753D01*
X88776Y176587D02*
X90886Y176587D01*
X88473Y179000D02*
X86363Y179000D01*
X83837Y177980D02*
X82782Y176925D01*
X83837Y177980D02*
X89416Y172401D01*
X88361Y171346D01*
X82782Y176925D01*
X85948Y173759D02*
X88058Y173759D01*
X85645Y176172D02*
X83535Y176172D01*
X81009Y175151D02*
X79954Y174096D01*
X81009Y175151D02*
X86588Y169572D01*
X85533Y168517D01*
X79954Y174096D01*
X83120Y170930D02*
X85230Y170930D01*
X82817Y173343D02*
X80707Y173343D01*
X78180Y172323D02*
X77125Y171268D01*
X78180Y172323D02*
X83759Y166744D01*
X82704Y165689D01*
X77125Y171268D01*
X80291Y168102D02*
X82401Y168102D01*
X79988Y170515D02*
X77878Y170515D01*
X75352Y169494D02*
X74297Y168439D01*
X75352Y169494D02*
X80931Y163915D01*
X79876Y162860D01*
X74297Y168439D01*
X77463Y165273D02*
X79573Y165273D01*
X77160Y167686D02*
X75050Y167686D01*
X72523Y166666D02*
X71468Y165611D01*
X72523Y166666D02*
X78102Y161087D01*
X77047Y160032D01*
X71468Y165611D01*
X74634Y162445D02*
X76744Y162445D01*
X74331Y164858D02*
X72221Y164858D01*
X69695Y163838D02*
X68640Y162783D01*
X69695Y163838D02*
X75274Y158259D01*
X74219Y157204D01*
X68640Y162783D01*
X71806Y159617D02*
X73916Y159617D01*
X71503Y162030D02*
X69393Y162030D01*
X66866Y161009D02*
X65811Y159954D01*
X66866Y161009D02*
X72445Y155430D01*
X71390Y154375D01*
X65811Y159954D01*
X68977Y156788D02*
X71087Y156788D01*
X68674Y159201D02*
X66564Y159201D01*
X17233Y208532D02*
X18288Y209587D01*
X23867Y204008D01*
X22812Y202953D01*
X17233Y208532D01*
X20399Y205366D02*
X22509Y205366D01*
X20096Y207779D02*
X17986Y207779D01*
X20062Y211361D02*
X21117Y212416D01*
X26696Y206837D01*
X25641Y205782D01*
X20062Y211361D01*
X23228Y208195D02*
X25338Y208195D01*
X22925Y210608D02*
X20815Y210608D01*
X22890Y214189D02*
X23945Y215244D01*
X29524Y209665D01*
X28469Y208610D01*
X22890Y214189D01*
X26056Y211023D02*
X28166Y211023D01*
X25753Y213436D02*
X23643Y213436D01*
X25718Y217018D02*
X26773Y218073D01*
X32352Y212494D01*
X31297Y211439D01*
X25718Y217018D01*
X28884Y213852D02*
X30994Y213852D01*
X28581Y216265D02*
X26471Y216265D01*
X28547Y219846D02*
X29602Y220901D01*
X35181Y215322D01*
X34126Y214267D01*
X28547Y219846D01*
X31713Y216680D02*
X33823Y216680D01*
X31410Y219093D02*
X29300Y219093D01*
X31375Y222674D02*
X32430Y223729D01*
X38009Y218150D01*
X36954Y217095D01*
X31375Y222674D01*
X34541Y219508D02*
X36651Y219508D01*
X34238Y221921D02*
X32128Y221921D01*
X34204Y225503D02*
X35259Y226558D01*
X40838Y220979D01*
X39783Y219924D01*
X34204Y225503D01*
X37370Y222337D02*
X39480Y222337D01*
X37067Y224750D02*
X34957Y224750D01*
X37032Y228331D02*
X38087Y229386D01*
X43666Y223807D01*
X42611Y222752D01*
X37032Y228331D01*
X40198Y225165D02*
X42308Y225165D01*
X39895Y227578D02*
X37785Y227578D01*
X39861Y231160D02*
X40916Y232215D01*
X46495Y226636D01*
X45440Y225581D01*
X39861Y231160D01*
X43027Y227994D02*
X45137Y227994D01*
X42724Y230407D02*
X40614Y230407D01*
X42689Y233988D02*
X43744Y235043D01*
X49323Y229464D01*
X48268Y228409D01*
X42689Y233988D01*
X45855Y230822D02*
X47965Y230822D01*
X45552Y233235D02*
X43442Y233235D01*
X45517Y236817D02*
X46572Y237872D01*
X52151Y232293D01*
X51096Y231238D01*
X45517Y236817D01*
X48683Y233651D02*
X50793Y233651D01*
X48380Y236064D02*
X46270Y236064D01*
X48346Y239645D02*
X49401Y240700D01*
X54980Y235121D01*
X53925Y234066D01*
X48346Y239645D01*
X51512Y236479D02*
X53622Y236479D01*
X51209Y238892D02*
X49099Y238892D01*
X51174Y242473D02*
X52229Y243528D01*
X57808Y237949D01*
X56753Y236894D01*
X51174Y242473D01*
X54340Y239307D02*
X56450Y239307D01*
X54037Y241720D02*
X51927Y241720D01*
X54003Y245302D02*
X55058Y246357D01*
X60637Y240778D01*
X59582Y239723D01*
X54003Y245302D01*
X57169Y242136D02*
X59279Y242136D01*
X56866Y244549D02*
X54756Y244549D01*
X65811Y240778D02*
X71390Y246357D01*
X72445Y245302D01*
X66866Y239723D01*
X65811Y240778D01*
X67169Y242136D02*
X69279Y242136D01*
X69582Y244549D02*
X71692Y244549D01*
X74219Y243528D02*
X68640Y237949D01*
X74219Y243528D02*
X75274Y242473D01*
X69695Y236894D01*
X68640Y237949D01*
X69998Y239307D02*
X72108Y239307D01*
X72411Y241720D02*
X74521Y241720D01*
X77047Y240700D02*
X71468Y235121D01*
X77047Y240700D02*
X78102Y239645D01*
X72523Y234066D01*
X71468Y235121D01*
X72826Y236479D02*
X74936Y236479D01*
X75239Y238892D02*
X77349Y238892D01*
X79876Y237872D02*
X74297Y232293D01*
X79876Y237872D02*
X80931Y236817D01*
X75352Y231238D01*
X74297Y232293D01*
X75655Y233651D02*
X77765Y233651D01*
X78068Y236064D02*
X80178Y236064D01*
X82704Y235043D02*
X77125Y229464D01*
X82704Y235043D02*
X83759Y233988D01*
X78180Y228409D01*
X77125Y229464D01*
X78483Y230822D02*
X80593Y230822D01*
X80896Y233235D02*
X83006Y233235D01*
X85533Y232215D02*
X79954Y226636D01*
X85533Y232215D02*
X86588Y231160D01*
X81009Y225581D01*
X79954Y226636D01*
X81312Y227994D02*
X83422Y227994D01*
X83725Y230407D02*
X85835Y230407D01*
X88361Y229386D02*
X82782Y223807D01*
X88361Y229386D02*
X89416Y228331D01*
X83837Y222752D01*
X82782Y223807D01*
X84140Y225165D02*
X86250Y225165D01*
X86553Y227578D02*
X88663Y227578D01*
X91189Y226558D02*
X85610Y220979D01*
X91189Y226558D02*
X92244Y225503D01*
X86665Y219924D01*
X85610Y220979D01*
X86968Y222337D02*
X89078Y222337D01*
X89381Y224750D02*
X91491Y224750D01*
X94018Y223729D02*
X88439Y218150D01*
X94018Y223729D02*
X95073Y222674D01*
X89494Y217095D01*
X88439Y218150D01*
X89797Y219508D02*
X91907Y219508D01*
X92210Y221921D02*
X94320Y221921D01*
X96846Y220901D02*
X91267Y215322D01*
X96846Y220901D02*
X97901Y219846D01*
X92322Y214267D01*
X91267Y215322D01*
X92625Y216680D02*
X94735Y216680D01*
X95038Y219093D02*
X97148Y219093D01*
X99675Y218073D02*
X94096Y212494D01*
X99675Y218073D02*
X100730Y217018D01*
X95151Y211439D01*
X94096Y212494D01*
X95454Y213852D02*
X97564Y213852D01*
X97867Y216265D02*
X99977Y216265D01*
X102503Y215244D02*
X96924Y209665D01*
X102503Y215244D02*
X103558Y214189D01*
X97979Y208610D01*
X96924Y209665D01*
X98282Y211023D02*
X100392Y211023D01*
X100695Y213436D02*
X102805Y213436D01*
X105331Y212416D02*
X99752Y206837D01*
X105331Y212416D02*
X106386Y211361D01*
X100807Y205782D01*
X99752Y206837D01*
X101110Y208195D02*
X103220Y208195D01*
X103523Y210608D02*
X105633Y210608D01*
X108160Y209587D02*
X102581Y204008D01*
X108160Y209587D02*
X109215Y208532D01*
X103636Y202953D01*
X102581Y204008D01*
X103939Y205366D02*
X106049Y205366D01*
X106352Y207779D02*
X108462Y207779D01*
X59582Y161009D02*
X54003Y155430D01*
X59582Y161009D02*
X60637Y159954D01*
X55058Y154375D01*
X54003Y155430D01*
X55361Y156788D02*
X57471Y156788D01*
X57774Y159201D02*
X59884Y159201D01*
X56753Y163838D02*
X51174Y158259D01*
X56753Y163838D02*
X57808Y162783D01*
X52229Y157204D01*
X51174Y158259D01*
X52532Y159617D02*
X54642Y159617D01*
X54945Y162030D02*
X57055Y162030D01*
X53925Y166666D02*
X48346Y161087D01*
X53925Y166666D02*
X54980Y165611D01*
X49401Y160032D01*
X48346Y161087D01*
X49704Y162445D02*
X51814Y162445D01*
X52117Y164858D02*
X54227Y164858D01*
X51096Y169494D02*
X45517Y163915D01*
X51096Y169494D02*
X52151Y168439D01*
X46572Y162860D01*
X45517Y163915D01*
X46875Y165273D02*
X48985Y165273D01*
X49288Y167686D02*
X51398Y167686D01*
X48268Y172323D02*
X42689Y166744D01*
X48268Y172323D02*
X49323Y171268D01*
X43744Y165689D01*
X42689Y166744D01*
X44047Y168102D02*
X46157Y168102D01*
X46460Y170515D02*
X48570Y170515D01*
X45440Y175151D02*
X39861Y169572D01*
X45440Y175151D02*
X46495Y174096D01*
X40916Y168517D01*
X39861Y169572D01*
X41219Y170930D02*
X43329Y170930D01*
X43632Y173343D02*
X45742Y173343D01*
X42611Y177980D02*
X37032Y172401D01*
X42611Y177980D02*
X43666Y176925D01*
X38087Y171346D01*
X37032Y172401D01*
X38390Y173759D02*
X40500Y173759D01*
X40803Y176172D02*
X42913Y176172D01*
X39783Y180808D02*
X34204Y175229D01*
X39783Y180808D02*
X40838Y179753D01*
X35259Y174174D01*
X34204Y175229D01*
X35562Y176587D02*
X37672Y176587D01*
X37975Y179000D02*
X40085Y179000D01*
X36954Y183637D02*
X31375Y178058D01*
X36954Y183637D02*
X38009Y182582D01*
X32430Y177003D01*
X31375Y178058D01*
X32733Y179416D02*
X34843Y179416D01*
X35146Y181829D02*
X37256Y181829D01*
X34126Y186465D02*
X28547Y180886D01*
X34126Y186465D02*
X35181Y185410D01*
X29602Y179831D01*
X28547Y180886D01*
X29905Y182244D02*
X32015Y182244D01*
X32318Y184657D02*
X34428Y184657D01*
X31297Y189293D02*
X25718Y183714D01*
X31297Y189293D02*
X32352Y188238D01*
X26773Y182659D01*
X25718Y183714D01*
X27076Y185072D02*
X29186Y185072D01*
X29489Y187485D02*
X31599Y187485D01*
X28469Y192122D02*
X22890Y186543D01*
X28469Y192122D02*
X29524Y191067D01*
X23945Y185488D01*
X22890Y186543D01*
X24248Y187901D02*
X26358Y187901D01*
X26661Y190314D02*
X28771Y190314D01*
X25641Y194950D02*
X20062Y189371D01*
X25641Y194950D02*
X26696Y193895D01*
X21117Y188316D01*
X20062Y189371D01*
X21420Y190729D02*
X23530Y190729D01*
X23833Y193142D02*
X25943Y193142D01*
X22812Y197779D02*
X17233Y192200D01*
X22812Y197779D02*
X23867Y196724D01*
X18288Y191145D01*
X17233Y192200D01*
X18591Y193558D02*
X20701Y193558D01*
X21004Y195971D02*
X23114Y195971D01*
D24*
G36*
X39867Y200366D02*
X63224Y223723D01*
X86581Y200366D01*
X63224Y177009D01*
X39867Y200366D01*
G37*
D25*
X-92584Y265866D02*
X-104316Y265866D01*
X-92584Y265866D02*
X-92584Y257934D01*
X-104316Y257934D01*
X-104316Y265866D01*
X-104316Y261164D02*
X-92584Y261164D01*
X-92584Y264394D02*
X-104316Y264394D01*
X-104316Y242966D02*
X-92584Y242966D01*
X-92584Y235034D01*
X-104316Y235034D01*
X-104316Y242966D01*
X-104316Y238264D02*
X-92584Y238264D01*
X-92584Y241494D02*
X-104316Y241494D01*
X-104316Y220066D02*
X-92584Y220066D01*
X-92584Y212134D01*
X-104316Y212134D01*
X-104316Y220066D01*
X-104316Y215364D02*
X-92584Y215364D01*
X-92584Y218594D02*
X-104316Y218594D01*
D26*
X-159751Y254249D02*
X-170949Y254249D01*
X-159751Y254249D02*
X-159751Y223751D01*
X-170949Y223751D01*
X-170949Y254249D01*
X-170949Y227488D02*
X-159751Y227488D01*
X-159751Y231225D02*
X-170949Y231225D01*
X-170949Y234962D02*
X-159751Y234962D01*
X-159751Y238699D02*
X-170949Y238699D01*
X-170949Y242436D02*
X-159751Y242436D01*
X-159751Y246173D02*
X-170949Y246173D01*
X-170949Y249910D02*
X-159751Y249910D01*
X-159751Y253647D02*
X-170949Y253647D01*
D27*
X152089Y323743D02*
X166775Y323743D01*
X166775Y319357D01*
X152089Y319357D01*
X152089Y323743D01*
X152089Y322631D02*
X166775Y322631D01*
X166775Y311043D02*
X152089Y311043D01*
X166775Y311043D02*
X166775Y306657D01*
X152089Y306657D01*
X152089Y311043D01*
X152089Y309931D02*
X166775Y309931D01*
X166775Y298343D02*
X152089Y298343D01*
X166775Y298343D02*
X166775Y293957D01*
X152089Y293957D01*
X152089Y298343D01*
X152089Y297231D02*
X166775Y297231D01*
X166775Y285643D02*
X152089Y285643D01*
X166775Y285643D02*
X166775Y281257D01*
X152089Y281257D01*
X152089Y285643D01*
X152089Y284531D02*
X166775Y284531D01*
X94675Y285643D02*
X79989Y285643D01*
X94675Y285643D02*
X94675Y281257D01*
X79989Y281257D01*
X79989Y285643D01*
X79989Y284531D02*
X94675Y284531D01*
X94675Y298343D02*
X79989Y298343D01*
X94675Y298343D02*
X94675Y293957D01*
X79989Y293957D01*
X79989Y298343D01*
X79989Y297231D02*
X94675Y297231D01*
X94675Y311043D02*
X79989Y311043D01*
X94675Y311043D02*
X94675Y306657D01*
X79989Y306657D01*
X79989Y311043D01*
X79989Y309931D02*
X94675Y309931D01*
X94675Y323743D02*
X79989Y323743D01*
X94675Y323743D02*
X94675Y319357D01*
X79989Y319357D01*
X79989Y323743D01*
X79989Y322631D02*
X94675Y322631D01*
D28*
G36*
X125813Y171996D02*
X135735Y181918D01*
X147071Y170582D01*
X137149Y160660D01*
X125813Y171996D01*
G37*
G36*
X141370Y156439D02*
X151292Y166361D01*
X162628Y155025D01*
X152706Y145103D01*
X141370Y156439D01*
G37*
G36*
X129349Y144418D02*
X139271Y154340D01*
X150607Y143004D01*
X140685Y133082D01*
X129349Y144418D01*
G37*
G36*
X113792Y159975D02*
X123714Y169897D01*
X135050Y158561D01*
X125128Y148639D01*
X113792Y159975D01*
G37*
D14*
X-209000Y180000D03*
X-209000Y160000D03*
X-209000Y140000D03*
X-209000Y120000D03*
D13*
X-157500Y-70000D03*
D14*
X-157500Y-50000D03*
X-157500Y-30000D03*
X-157500Y-10000D03*
X-157500Y10000D03*
X-157500Y30000D03*
X-157500Y50000D03*
X-157500Y70000D03*
D29*
X-66800Y-167050D03*
X-66800Y-134350D03*
D13*
X-100500Y-137500D03*
D14*
X-120500Y-137500D03*
X-140500Y-137500D03*
X-160500Y-137500D03*
X-180500Y-137500D03*
X-200500Y-137500D03*
D13*
X193329Y88498D03*
D14*
X193329Y68498D03*
X193329Y48498D03*
X193329Y28498D03*
X193329Y8498D03*
X193329Y-11502D03*
D30*
X120681Y-13099D02*
X120681Y-2301D01*
X125179Y-2301D01*
X125179Y-13099D01*
X120681Y-13099D01*
X120681Y-9742D02*
X125179Y-9742D01*
X125179Y-6385D02*
X120681Y-6385D01*
X120681Y-3028D02*
X125179Y-3028D01*
X130181Y-23501D02*
X130181Y-34299D01*
X130181Y-23501D02*
X134679Y-23501D01*
X134679Y-34299D01*
X130181Y-34299D01*
X130181Y-30942D02*
X134679Y-30942D01*
X134679Y-27585D02*
X130181Y-27585D01*
X130181Y-24228D02*
X134679Y-24228D01*
X139681Y-13099D02*
X139681Y-2301D01*
X144179Y-2301D01*
X144179Y-13099D01*
X139681Y-13099D01*
X139681Y-9742D02*
X144179Y-9742D01*
X144179Y-6385D02*
X139681Y-6385D01*
X139681Y-3028D02*
X144179Y-3028D01*
D19*
X137775Y6059D03*
X127625Y6059D03*
D31*
X153800Y-29575D03*
X153800Y-19425D03*
D32*
G36*
X130394Y-173236D02*
X114954Y-167616D01*
X120574Y-152176D01*
X136014Y-157796D01*
X130394Y-173236D01*
G37*
D14*
X132324Y-143912D03*
X139165Y-125118D03*
X146005Y-106324D03*
X152846Y-87530D03*
X159686Y-68736D03*
D30*
X-150337Y304209D02*
X-161135Y304209D01*
X-150337Y304209D02*
X-150337Y299711D01*
X-161135Y299711D01*
X-161135Y304209D01*
X-161135Y303068D02*
X-150337Y303068D01*
X-171537Y294709D02*
X-182335Y294709D01*
X-171537Y294709D02*
X-171537Y290211D01*
X-182335Y290211D01*
X-182335Y294709D01*
X-182335Y293568D02*
X-171537Y293568D01*
X-161135Y285209D02*
X-150337Y285209D01*
X-150337Y280711D01*
X-161135Y280711D01*
X-161135Y285209D01*
X-161135Y284068D02*
X-150337Y284068D01*
D31*
X-133900Y278525D03*
X-133900Y288675D03*
X-192900Y284525D03*
X-192900Y294675D03*
D14*
X-209000Y220000D03*
X-209000Y200000D03*
X-209000Y240000D03*
D11*
G36*
X103378Y-106757D02*
X110549Y-109368D01*
X107702Y-117187D01*
X100531Y-114576D01*
X103378Y-106757D01*
G37*
G36*
X94270Y-103443D02*
X101441Y-106054D01*
X98594Y-113873D01*
X91423Y-111262D01*
X94270Y-103443D01*
G37*
X-208746Y258600D03*
X-199054Y258600D03*
D31*
X196600Y295325D03*
X196600Y305475D03*
D12*
X67300Y329546D03*
X67300Y319854D03*
D33*
X-81200Y226600D03*
X-95600Y1000D03*
X-96700Y-87200D03*
X90158Y-28500D03*
X51700Y102688D03*
X70700Y31600D03*
X-104000Y276400D03*
X-134100Y299700D03*
X63500Y199300D03*
X73200Y207200D03*
X55100Y192500D03*
X70700Y192300D03*
X55500Y208100D03*
X63000Y216200D03*
X48700Y201000D03*
X79800Y200200D03*
X63300Y183100D03*
X123100Y233100D03*
X152700Y132800D03*
X117200Y128600D03*
X159500Y172500D03*
X137500Y193900D03*
X105800Y178000D03*
X11300Y261000D03*
X30500Y254200D03*
X40100Y267400D03*
X56000Y287500D03*
X182452Y337258D03*
X109100Y-27900D03*
X95100Y-7200D03*
X97700Y-41500D03*
X67100Y-79800D03*
X-91000Y43200D03*
X-92000Y-21000D03*
X-129172Y136228D03*
X-119700Y141600D03*
X-76300Y115700D03*
X-92300Y94700D03*
X9600Y200394D03*
X-23200Y203600D03*
X-24400Y192417D03*
X-82700Y193900D03*
X-81100Y218300D03*
X-112800Y211700D03*
X-116200Y275600D03*
X113300Y204600D03*
X128387Y208513D03*
X131080Y231443D03*
X97600Y-63600D03*
X90100Y333100D03*
X166000Y330800D03*
X173600Y312200D03*
X104600Y282800D03*
X141000Y281700D03*
X140800Y262000D03*
X174700Y-48100D03*
X-195700Y-175100D03*
X71000Y2700D03*
X-89372Y311372D03*
X-181100Y154100D03*
X139500Y49700D03*
X167400Y45800D03*
X172500Y30100D03*
X161300Y-2000D03*
X-28200Y243500D03*
X184632Y303300D03*
X143519Y85919D03*
X97580Y70780D03*
X143400Y68600D03*
X184931Y280494D03*
X-197952Y266500D03*
X-197952Y246800D03*
X-9600Y165300D03*
X-74600Y165900D03*
X-117800Y234300D03*
X117200Y-45600D03*
X114300Y-101000D03*
X78700Y148000D03*
X82900Y133200D03*
X197752Y323158D03*
X-70620Y5780D03*
X172276Y106950D03*
X76700Y86200D03*
X168324Y91144D03*
X186468Y291355D03*
X91392Y134736D03*
X159500Y142400D03*
X182700Y244700D03*
X-76700Y306700D03*
X17000Y320100D03*
X17258Y292434D03*
X-99100Y-51600D03*
X-99500Y-67900D03*
X36300Y207300D03*
X34234Y232693D03*
X74000Y181400D03*
X96067Y156293D03*
X-127200Y194400D03*
X-99400Y89100D03*
X-82050Y74066D03*
X-75600Y329400D03*
X19300Y341000D03*
X106244Y127000D03*
X98432Y129149D03*
X89037Y108614D03*
X58200Y93100D03*
X-70700Y92700D03*
X-110600Y46300D03*
X-108000Y-54400D03*
X-121600Y-76300D03*
X-114388Y-49200D03*
X-66937Y97838D03*
X66026Y131626D03*
X-113600Y35000D03*
X-128400Y-76300D03*
X64448Y97644D03*
X-170500Y-104800D03*
X-79000Y-184030D03*
X151400Y75300D03*
X172722Y133200D03*
X-146600Y172153D03*
X-148400Y256100D03*
M02*
