G04 EAGLE Gerber RS-274X export*
G75*
%MOMM*%
%FSLAX34Y34*%
%LPD*%
%INSilkscreen Bottom*%
%IPPOS*%
%AMOC8*
5,1,8,0,0,1.08239X$1,22.5*%
G01*
G04 Define Apertures*
%ADD10C,0.127000*%
%ADD11C,0.200000*%
%ADD12C,0.120000*%
%ADD13C,0.152400*%
G36*
X-63262Y-181894D02*
X-70550Y-181894D01*
X-70550Y-180906D01*
X-67757Y-180906D01*
X-67033Y-179954D01*
X-70550Y-177041D01*
X-70550Y-175816D01*
X-66427Y-179333D01*
X-63262Y-176229D01*
X-63262Y-177393D01*
X-66914Y-180906D01*
X-63262Y-180906D01*
X-63262Y-181894D01*
G37*
D10*
X92100Y14814D02*
X81100Y14814D01*
X81100Y27386D02*
X92100Y27386D01*
X36541Y244076D02*
X28763Y251854D01*
X19873Y242964D02*
X27651Y235186D01*
X95672Y139265D02*
X103450Y131487D01*
X112340Y140377D02*
X104562Y148155D01*
X31195Y238730D02*
X23417Y246508D01*
X14527Y237618D02*
X22305Y229840D01*
X21921Y170420D02*
X10921Y170420D01*
X10921Y157848D02*
X21921Y157848D01*
X108056Y221966D02*
X115834Y229744D01*
X106944Y238634D02*
X99166Y230856D01*
X75827Y250915D02*
X83605Y258693D01*
X74715Y267583D02*
X66937Y259805D01*
X101018Y144611D02*
X108796Y136833D01*
X117686Y145723D02*
X109908Y153501D01*
X500Y200786D02*
X-10500Y200786D01*
X-10500Y188214D02*
X500Y188214D01*
X200Y208786D02*
X-10800Y208786D01*
X-10800Y196214D02*
X200Y196214D01*
X128836Y145514D02*
X136614Y137736D01*
X127724Y128846D02*
X119946Y136624D01*
X92300Y29314D02*
X81300Y29314D01*
X81300Y41886D02*
X92300Y41886D01*
X118166Y179556D02*
X125944Y187334D01*
X134834Y178444D02*
X127056Y170666D01*
X14945Y222480D02*
X7167Y230258D01*
X-1723Y221368D02*
X6055Y213590D01*
X-99579Y82344D02*
X-110579Y82344D01*
X-110579Y69772D02*
X-99579Y69772D01*
X-104722Y30604D02*
X-93722Y30604D01*
X-93722Y18032D02*
X-104722Y18032D01*
X-104300Y193514D02*
X-93300Y193514D01*
X-93300Y206086D02*
X-104300Y206086D01*
X-70414Y238400D02*
X-70414Y249400D01*
X-82986Y249400D02*
X-82986Y238400D01*
X1820Y224911D02*
X9598Y217133D01*
X708Y208243D02*
X-7070Y216021D01*
X44700Y300400D02*
X44700Y317200D01*
X44700Y340600D02*
X44700Y354900D01*
X-44700Y317200D02*
X-44700Y300400D01*
X-44700Y340600D02*
X-44700Y354900D01*
X44700Y354900D01*
D11*
X-33000Y268900D02*
X-32998Y268963D01*
X-32992Y269025D01*
X-32982Y269087D01*
X-32969Y269149D01*
X-32951Y269209D01*
X-32930Y269268D01*
X-32905Y269326D01*
X-32876Y269382D01*
X-32844Y269436D01*
X-32809Y269488D01*
X-32771Y269537D01*
X-32729Y269585D01*
X-32685Y269629D01*
X-32637Y269671D01*
X-32588Y269709D01*
X-32536Y269744D01*
X-32482Y269776D01*
X-32426Y269805D01*
X-32368Y269830D01*
X-32309Y269851D01*
X-32249Y269869D01*
X-32187Y269882D01*
X-32125Y269892D01*
X-32063Y269898D01*
X-32000Y269900D01*
X-31937Y269898D01*
X-31875Y269892D01*
X-31813Y269882D01*
X-31751Y269869D01*
X-31691Y269851D01*
X-31632Y269830D01*
X-31574Y269805D01*
X-31518Y269776D01*
X-31464Y269744D01*
X-31412Y269709D01*
X-31363Y269671D01*
X-31315Y269629D01*
X-31271Y269585D01*
X-31229Y269537D01*
X-31191Y269488D01*
X-31156Y269436D01*
X-31124Y269382D01*
X-31095Y269326D01*
X-31070Y269268D01*
X-31049Y269209D01*
X-31031Y269149D01*
X-31018Y269087D01*
X-31008Y269025D01*
X-31002Y268963D01*
X-31000Y268900D01*
X-31002Y268837D01*
X-31008Y268775D01*
X-31018Y268713D01*
X-31031Y268651D01*
X-31049Y268591D01*
X-31070Y268532D01*
X-31095Y268474D01*
X-31124Y268418D01*
X-31156Y268364D01*
X-31191Y268312D01*
X-31229Y268263D01*
X-31271Y268215D01*
X-31315Y268171D01*
X-31363Y268129D01*
X-31412Y268091D01*
X-31464Y268056D01*
X-31518Y268024D01*
X-31574Y267995D01*
X-31632Y267970D01*
X-31691Y267949D01*
X-31751Y267931D01*
X-31813Y267918D01*
X-31875Y267908D01*
X-31937Y267902D01*
X-32000Y267900D01*
X-32063Y267902D01*
X-32125Y267908D01*
X-32187Y267918D01*
X-32249Y267931D01*
X-32309Y267949D01*
X-32368Y267970D01*
X-32426Y267995D01*
X-32482Y268024D01*
X-32536Y268056D01*
X-32588Y268091D01*
X-32637Y268129D01*
X-32685Y268171D01*
X-32729Y268215D01*
X-32771Y268263D01*
X-32809Y268312D01*
X-32844Y268364D01*
X-32876Y268418D01*
X-32905Y268474D01*
X-32930Y268532D01*
X-32951Y268591D01*
X-32969Y268651D01*
X-32982Y268713D01*
X-32992Y268775D01*
X-32998Y268837D01*
X-33000Y268900D01*
D12*
X-61300Y332101D02*
X-82399Y332101D01*
X-82399Y347499D01*
X-61300Y347499D01*
D10*
X-74700Y20560D02*
X-85700Y20560D01*
X-85700Y7840D02*
X-74700Y7840D01*
X106805Y151028D02*
X114583Y143250D01*
X123577Y152244D02*
X115799Y160022D01*
X-76100Y5760D02*
X-87100Y5760D01*
X-87100Y-6960D02*
X-76100Y-6960D01*
X-34600Y263760D02*
X-23600Y263760D01*
X-23600Y251040D02*
X-34600Y251040D01*
X19500Y257240D02*
X30500Y257240D01*
X30500Y269960D02*
X19500Y269960D01*
X179700Y320040D02*
X190700Y320040D01*
X190700Y307320D02*
X179700Y307320D01*
X179700Y315930D02*
X190700Y315930D01*
X190700Y328650D02*
X179700Y328650D01*
X25921Y233309D02*
X18143Y241087D01*
X9149Y232093D02*
X16927Y224315D01*
X20470Y227857D02*
X12692Y235635D01*
X3698Y226641D02*
X11476Y218863D01*
X-64100Y327460D02*
X-75100Y327460D01*
X-75100Y314740D02*
X-64100Y314740D01*
X-80520Y284980D02*
X-116080Y284980D01*
X-80520Y284980D02*
X-80520Y300220D01*
X-116080Y300220D01*
X-116080Y284980D01*
D13*
X-75802Y59545D02*
X-75802Y41003D01*
X-107298Y41003D02*
X-107298Y59545D01*
D11*
X75482Y250394D02*
X75484Y250457D01*
X75490Y250519D01*
X75500Y250581D01*
X75513Y250643D01*
X75531Y250703D01*
X75552Y250762D01*
X75577Y250820D01*
X75606Y250876D01*
X75638Y250930D01*
X75673Y250982D01*
X75711Y251031D01*
X75753Y251079D01*
X75797Y251123D01*
X75845Y251165D01*
X75894Y251203D01*
X75946Y251238D01*
X76000Y251270D01*
X76056Y251299D01*
X76114Y251324D01*
X76173Y251345D01*
X76233Y251363D01*
X76295Y251376D01*
X76357Y251386D01*
X76419Y251392D01*
X76482Y251394D01*
X76545Y251392D01*
X76607Y251386D01*
X76669Y251376D01*
X76731Y251363D01*
X76791Y251345D01*
X76850Y251324D01*
X76908Y251299D01*
X76964Y251270D01*
X77018Y251238D01*
X77070Y251203D01*
X77119Y251165D01*
X77167Y251123D01*
X77211Y251079D01*
X77253Y251031D01*
X77291Y250982D01*
X77326Y250930D01*
X77358Y250876D01*
X77387Y250820D01*
X77412Y250762D01*
X77433Y250703D01*
X77451Y250643D01*
X77464Y250581D01*
X77474Y250519D01*
X77480Y250457D01*
X77482Y250394D01*
X77480Y250331D01*
X77474Y250269D01*
X77464Y250207D01*
X77451Y250145D01*
X77433Y250085D01*
X77412Y250026D01*
X77387Y249968D01*
X77358Y249912D01*
X77326Y249858D01*
X77291Y249806D01*
X77253Y249757D01*
X77211Y249709D01*
X77167Y249665D01*
X77119Y249623D01*
X77070Y249585D01*
X77018Y249550D01*
X76964Y249518D01*
X76908Y249489D01*
X76850Y249464D01*
X76791Y249443D01*
X76731Y249425D01*
X76669Y249412D01*
X76607Y249402D01*
X76545Y249396D01*
X76482Y249394D01*
X76419Y249396D01*
X76357Y249402D01*
X76295Y249412D01*
X76233Y249425D01*
X76173Y249443D01*
X76114Y249464D01*
X76056Y249489D01*
X76000Y249518D01*
X75946Y249550D01*
X75894Y249585D01*
X75845Y249623D01*
X75797Y249665D01*
X75753Y249709D01*
X75711Y249757D01*
X75673Y249806D01*
X75638Y249858D01*
X75606Y249912D01*
X75577Y249968D01*
X75552Y250026D01*
X75531Y250085D01*
X75513Y250145D01*
X75500Y250207D01*
X75490Y250269D01*
X75484Y250331D01*
X75482Y250394D01*
D10*
X66618Y154263D02*
X63224Y150869D01*
X13727Y200366D02*
X17121Y203760D01*
X109327Y196972D02*
X112722Y200366D01*
X63224Y249863D02*
X59830Y246469D01*
X59830Y154263D02*
X63224Y150869D01*
X17121Y196972D02*
X13727Y200366D01*
X109327Y203760D02*
X112722Y200366D01*
X66618Y246469D02*
X63224Y249863D01*
X-114375Y271525D02*
X-149425Y271525D01*
X-149425Y206475D01*
X-114375Y206475D01*
X-114375Y271525D01*
D11*
X-82900Y261900D02*
X-82898Y261963D01*
X-82892Y262025D01*
X-82882Y262087D01*
X-82869Y262149D01*
X-82851Y262209D01*
X-82830Y262268D01*
X-82805Y262326D01*
X-82776Y262382D01*
X-82744Y262436D01*
X-82709Y262488D01*
X-82671Y262537D01*
X-82629Y262585D01*
X-82585Y262629D01*
X-82537Y262671D01*
X-82488Y262709D01*
X-82436Y262744D01*
X-82382Y262776D01*
X-82326Y262805D01*
X-82268Y262830D01*
X-82209Y262851D01*
X-82149Y262869D01*
X-82087Y262882D01*
X-82025Y262892D01*
X-81963Y262898D01*
X-81900Y262900D01*
X-81837Y262898D01*
X-81775Y262892D01*
X-81713Y262882D01*
X-81651Y262869D01*
X-81591Y262851D01*
X-81532Y262830D01*
X-81474Y262805D01*
X-81418Y262776D01*
X-81364Y262744D01*
X-81312Y262709D01*
X-81263Y262671D01*
X-81215Y262629D01*
X-81171Y262585D01*
X-81129Y262537D01*
X-81091Y262488D01*
X-81056Y262436D01*
X-81024Y262382D01*
X-80995Y262326D01*
X-80970Y262268D01*
X-80949Y262209D01*
X-80931Y262149D01*
X-80918Y262087D01*
X-80908Y262025D01*
X-80902Y261963D01*
X-80900Y261900D01*
X-80902Y261837D01*
X-80908Y261775D01*
X-80918Y261713D01*
X-80931Y261651D01*
X-80949Y261591D01*
X-80970Y261532D01*
X-80995Y261474D01*
X-81024Y261418D01*
X-81056Y261364D01*
X-81091Y261312D01*
X-81129Y261263D01*
X-81171Y261215D01*
X-81215Y261171D01*
X-81263Y261129D01*
X-81312Y261091D01*
X-81364Y261056D01*
X-81418Y261024D01*
X-81474Y260995D01*
X-81532Y260970D01*
X-81591Y260949D01*
X-81651Y260931D01*
X-81713Y260918D01*
X-81775Y260908D01*
X-81837Y260902D01*
X-81900Y260900D01*
X-81963Y260902D01*
X-82025Y260908D01*
X-82087Y260918D01*
X-82149Y260931D01*
X-82209Y260949D01*
X-82268Y260970D01*
X-82326Y260995D01*
X-82382Y261024D01*
X-82436Y261056D01*
X-82488Y261091D01*
X-82537Y261129D01*
X-82585Y261171D01*
X-82629Y261215D01*
X-82671Y261263D01*
X-82709Y261312D01*
X-82744Y261364D01*
X-82776Y261418D01*
X-82805Y261474D01*
X-82830Y261532D01*
X-82851Y261591D01*
X-82869Y261651D01*
X-82882Y261713D01*
X-82892Y261775D01*
X-82898Y261837D01*
X-82900Y261900D01*
X174532Y321550D02*
X174534Y321613D01*
X174540Y321675D01*
X174550Y321737D01*
X174563Y321799D01*
X174581Y321859D01*
X174602Y321918D01*
X174627Y321976D01*
X174656Y322032D01*
X174688Y322086D01*
X174723Y322138D01*
X174761Y322187D01*
X174803Y322235D01*
X174847Y322279D01*
X174895Y322321D01*
X174944Y322359D01*
X174996Y322394D01*
X175050Y322426D01*
X175106Y322455D01*
X175164Y322480D01*
X175223Y322501D01*
X175283Y322519D01*
X175345Y322532D01*
X175407Y322542D01*
X175469Y322548D01*
X175532Y322550D01*
X175595Y322548D01*
X175657Y322542D01*
X175719Y322532D01*
X175781Y322519D01*
X175841Y322501D01*
X175900Y322480D01*
X175958Y322455D01*
X176014Y322426D01*
X176068Y322394D01*
X176120Y322359D01*
X176169Y322321D01*
X176217Y322279D01*
X176261Y322235D01*
X176303Y322187D01*
X176341Y322138D01*
X176376Y322086D01*
X176408Y322032D01*
X176437Y321976D01*
X176462Y321918D01*
X176483Y321859D01*
X176501Y321799D01*
X176514Y321737D01*
X176524Y321675D01*
X176530Y321613D01*
X176532Y321550D01*
X176530Y321487D01*
X176524Y321425D01*
X176514Y321363D01*
X176501Y321301D01*
X176483Y321241D01*
X176462Y321182D01*
X176437Y321124D01*
X176408Y321068D01*
X176376Y321014D01*
X176341Y320962D01*
X176303Y320913D01*
X176261Y320865D01*
X176217Y320821D01*
X176169Y320779D01*
X176120Y320741D01*
X176068Y320706D01*
X176014Y320674D01*
X175958Y320645D01*
X175900Y320620D01*
X175841Y320599D01*
X175781Y320581D01*
X175719Y320568D01*
X175657Y320558D01*
X175595Y320552D01*
X175532Y320550D01*
X175469Y320552D01*
X175407Y320558D01*
X175345Y320568D01*
X175283Y320581D01*
X175223Y320599D01*
X175164Y320620D01*
X175106Y320645D01*
X175050Y320674D01*
X174996Y320706D01*
X174944Y320741D01*
X174895Y320779D01*
X174847Y320821D01*
X174803Y320865D01*
X174761Y320913D01*
X174723Y320962D01*
X174688Y321014D01*
X174656Y321068D01*
X174627Y321124D01*
X174602Y321182D01*
X174581Y321241D01*
X174563Y321301D01*
X174550Y321363D01*
X174540Y321425D01*
X174534Y321487D01*
X174532Y321550D01*
D10*
X149782Y328900D02*
X96982Y328900D01*
X96982Y276100D02*
X149782Y276100D01*
D11*
X143928Y179774D02*
X143930Y179837D01*
X143936Y179899D01*
X143946Y179961D01*
X143959Y180023D01*
X143977Y180083D01*
X143998Y180142D01*
X144023Y180200D01*
X144052Y180256D01*
X144084Y180310D01*
X144119Y180362D01*
X144157Y180411D01*
X144199Y180459D01*
X144243Y180503D01*
X144291Y180545D01*
X144340Y180583D01*
X144392Y180618D01*
X144446Y180650D01*
X144502Y180679D01*
X144560Y180704D01*
X144619Y180725D01*
X144679Y180743D01*
X144741Y180756D01*
X144803Y180766D01*
X144865Y180772D01*
X144928Y180774D01*
X144991Y180772D01*
X145053Y180766D01*
X145115Y180756D01*
X145177Y180743D01*
X145237Y180725D01*
X145296Y180704D01*
X145354Y180679D01*
X145410Y180650D01*
X145464Y180618D01*
X145516Y180583D01*
X145565Y180545D01*
X145613Y180503D01*
X145657Y180459D01*
X145699Y180411D01*
X145737Y180362D01*
X145772Y180310D01*
X145804Y180256D01*
X145833Y180200D01*
X145858Y180142D01*
X145879Y180083D01*
X145897Y180023D01*
X145910Y179961D01*
X145920Y179899D01*
X145926Y179837D01*
X145928Y179774D01*
X145926Y179711D01*
X145920Y179649D01*
X145910Y179587D01*
X145897Y179525D01*
X145879Y179465D01*
X145858Y179406D01*
X145833Y179348D01*
X145804Y179292D01*
X145772Y179238D01*
X145737Y179186D01*
X145699Y179137D01*
X145657Y179089D01*
X145613Y179045D01*
X145565Y179003D01*
X145516Y178965D01*
X145464Y178930D01*
X145410Y178898D01*
X145354Y178869D01*
X145296Y178844D01*
X145237Y178823D01*
X145177Y178805D01*
X145115Y178792D01*
X145053Y178782D01*
X144991Y178776D01*
X144928Y178774D01*
X144865Y178776D01*
X144803Y178782D01*
X144741Y178792D01*
X144679Y178805D01*
X144619Y178823D01*
X144560Y178844D01*
X144502Y178869D01*
X144446Y178898D01*
X144392Y178930D01*
X144340Y178965D01*
X144291Y179003D01*
X144243Y179045D01*
X144199Y179089D01*
X144157Y179137D01*
X144119Y179186D01*
X144084Y179238D01*
X144052Y179292D01*
X144023Y179348D01*
X143998Y179406D01*
X143977Y179465D01*
X143959Y179525D01*
X143946Y179587D01*
X143936Y179649D01*
X143930Y179711D01*
X143928Y179774D01*
D13*
X-134500Y89500D02*
X-220000Y89500D01*
X-220000Y-89500D01*
X-134500Y-89500D01*
X-134500Y81500D02*
X-134500Y89500D01*
X-134500Y81500D02*
X-167500Y81500D01*
X-167500Y-81500D01*
X-134500Y-81500D01*
X-134500Y-89500D01*
D10*
X-74800Y-136700D02*
X-74800Y-164700D01*
X-58800Y-164700D02*
X-58800Y-136700D01*
X-60450Y-146890D02*
X-66800Y-154510D01*
X-61720Y-146890D02*
X-60450Y-146890D01*
X-61720Y-146890D02*
X-62990Y-146890D01*
X-73150Y-146890D01*
X-66800Y-154510D01*
X-61720Y-146890D01*
X-71880Y-148160D01*
X-66800Y-153240D01*
X-62990Y-146890D01*
X-70610Y-148160D01*
X-66800Y-151970D01*
X-64260Y-148160D01*
X-65530Y-148160D01*
X-69340Y-148160D01*
X-68070Y-149430D01*
X-66800Y-150700D01*
X-65530Y-148160D01*
X-68070Y-149430D01*
X-66800Y-149430D01*
X-60450Y-159590D02*
X-73150Y-159590D01*
D13*
X-220000Y-200000D02*
X-220000Y-114500D01*
X-220000Y-200000D02*
X-81000Y-200000D01*
X-81000Y-114500D01*
X-212000Y-114500D02*
X-220000Y-114500D01*
X-212000Y-114500D02*
X-212000Y-147500D01*
X-89000Y-147500D01*
X-89000Y-114500D01*
X-81000Y-114500D01*
D10*
X116730Y-24800D02*
X116730Y-11800D01*
X148130Y-11800D02*
X148130Y-24800D01*
D11*
X118430Y4200D02*
X118432Y4263D01*
X118438Y4325D01*
X118448Y4387D01*
X118461Y4449D01*
X118479Y4509D01*
X118500Y4568D01*
X118525Y4626D01*
X118554Y4682D01*
X118586Y4736D01*
X118621Y4788D01*
X118659Y4837D01*
X118701Y4885D01*
X118745Y4929D01*
X118793Y4971D01*
X118842Y5009D01*
X118894Y5044D01*
X118948Y5076D01*
X119004Y5105D01*
X119062Y5130D01*
X119121Y5151D01*
X119181Y5169D01*
X119243Y5182D01*
X119305Y5192D01*
X119367Y5198D01*
X119430Y5200D01*
X119493Y5198D01*
X119555Y5192D01*
X119617Y5182D01*
X119679Y5169D01*
X119739Y5151D01*
X119798Y5130D01*
X119856Y5105D01*
X119912Y5076D01*
X119966Y5044D01*
X120018Y5009D01*
X120067Y4971D01*
X120115Y4929D01*
X120159Y4885D01*
X120201Y4837D01*
X120239Y4788D01*
X120274Y4736D01*
X120306Y4682D01*
X120335Y4626D01*
X120360Y4568D01*
X120381Y4509D01*
X120399Y4449D01*
X120412Y4387D01*
X120422Y4325D01*
X120428Y4263D01*
X120430Y4200D01*
X120428Y4137D01*
X120422Y4075D01*
X120412Y4013D01*
X120399Y3951D01*
X120381Y3891D01*
X120360Y3832D01*
X120335Y3774D01*
X120306Y3718D01*
X120274Y3664D01*
X120239Y3612D01*
X120201Y3563D01*
X120159Y3515D01*
X120115Y3471D01*
X120067Y3429D01*
X120018Y3391D01*
X119966Y3356D01*
X119912Y3324D01*
X119856Y3295D01*
X119798Y3270D01*
X119739Y3249D01*
X119679Y3231D01*
X119617Y3218D01*
X119555Y3208D01*
X119493Y3202D01*
X119430Y3200D01*
X119367Y3202D01*
X119305Y3208D01*
X119243Y3218D01*
X119181Y3231D01*
X119121Y3249D01*
X119062Y3270D01*
X119004Y3295D01*
X118948Y3324D01*
X118894Y3356D01*
X118842Y3391D01*
X118793Y3429D01*
X118745Y3471D01*
X118701Y3515D01*
X118659Y3563D01*
X118621Y3612D01*
X118586Y3664D01*
X118554Y3718D01*
X118525Y3774D01*
X118500Y3832D01*
X118479Y3891D01*
X118461Y3951D01*
X118448Y4013D01*
X118438Y4075D01*
X118432Y4137D01*
X118430Y4200D01*
D10*
X116730Y-24800D02*
X126230Y-24800D01*
X138630Y-24800D02*
X148130Y-24800D01*
X138200Y12419D02*
X127200Y12419D01*
X127200Y-301D02*
X138200Y-301D01*
X160160Y-19000D02*
X160160Y-30000D01*
X147440Y-30000D02*
X147440Y-19000D01*
D13*
X129856Y-185048D02*
X134789Y-186844D01*
X129856Y-185048D02*
X121164Y-181885D01*
X92503Y-171453D01*
X134789Y-186844D02*
X143169Y-163822D01*
X173951Y-79249D01*
X182330Y-56227D01*
X140044Y-40836D02*
X92503Y-171453D01*
X177397Y-54431D02*
X182330Y-56227D01*
X177397Y-54431D02*
X168705Y-51267D01*
X140044Y-40836D01*
X122959Y-176951D02*
X121164Y-181885D01*
X122959Y-176951D02*
X99232Y-168315D01*
X143182Y-47565D01*
X166909Y-56201D01*
X168705Y-51267D01*
X138236Y-162026D02*
X129856Y-185048D01*
X138236Y-162026D02*
X143169Y-163822D01*
X173951Y-79249D02*
X169017Y-77454D01*
X177397Y-54431D01*
D10*
X-159836Y308160D02*
X-172836Y308160D01*
X-172836Y276760D02*
X-159836Y276760D01*
D11*
X-144836Y305460D02*
X-144834Y305523D01*
X-144828Y305585D01*
X-144818Y305647D01*
X-144805Y305709D01*
X-144787Y305769D01*
X-144766Y305828D01*
X-144741Y305886D01*
X-144712Y305942D01*
X-144680Y305996D01*
X-144645Y306048D01*
X-144607Y306097D01*
X-144565Y306145D01*
X-144521Y306189D01*
X-144473Y306231D01*
X-144424Y306269D01*
X-144372Y306304D01*
X-144318Y306336D01*
X-144262Y306365D01*
X-144204Y306390D01*
X-144145Y306411D01*
X-144085Y306429D01*
X-144023Y306442D01*
X-143961Y306452D01*
X-143899Y306458D01*
X-143836Y306460D01*
X-143773Y306458D01*
X-143711Y306452D01*
X-143649Y306442D01*
X-143587Y306429D01*
X-143527Y306411D01*
X-143468Y306390D01*
X-143410Y306365D01*
X-143354Y306336D01*
X-143300Y306304D01*
X-143248Y306269D01*
X-143199Y306231D01*
X-143151Y306189D01*
X-143107Y306145D01*
X-143065Y306097D01*
X-143027Y306048D01*
X-142992Y305996D01*
X-142960Y305942D01*
X-142931Y305886D01*
X-142906Y305828D01*
X-142885Y305769D01*
X-142867Y305709D01*
X-142854Y305647D01*
X-142844Y305585D01*
X-142838Y305523D01*
X-142836Y305460D01*
X-142838Y305397D01*
X-142844Y305335D01*
X-142854Y305273D01*
X-142867Y305211D01*
X-142885Y305151D01*
X-142906Y305092D01*
X-142931Y305034D01*
X-142960Y304978D01*
X-142992Y304924D01*
X-143027Y304872D01*
X-143065Y304823D01*
X-143107Y304775D01*
X-143151Y304731D01*
X-143199Y304689D01*
X-143248Y304651D01*
X-143300Y304616D01*
X-143354Y304584D01*
X-143410Y304555D01*
X-143468Y304530D01*
X-143527Y304509D01*
X-143587Y304491D01*
X-143649Y304478D01*
X-143711Y304468D01*
X-143773Y304462D01*
X-143836Y304460D01*
X-143899Y304462D01*
X-143961Y304468D01*
X-144023Y304478D01*
X-144085Y304491D01*
X-144145Y304509D01*
X-144204Y304530D01*
X-144262Y304555D01*
X-144318Y304584D01*
X-144372Y304616D01*
X-144424Y304651D01*
X-144473Y304689D01*
X-144521Y304731D01*
X-144565Y304775D01*
X-144607Y304823D01*
X-144645Y304872D01*
X-144680Y304924D01*
X-144712Y304978D01*
X-144741Y305034D01*
X-144766Y305092D01*
X-144787Y305151D01*
X-144805Y305211D01*
X-144818Y305273D01*
X-144828Y305335D01*
X-144834Y305397D01*
X-144836Y305460D01*
D10*
X-172836Y308160D02*
X-172836Y298660D01*
X-172836Y286260D02*
X-172836Y276760D01*
X-127540Y278100D02*
X-127540Y289100D01*
X-140260Y289100D02*
X-140260Y278100D01*
X-186540Y284100D02*
X-186540Y295100D01*
X-199260Y295100D02*
X-199260Y284100D01*
X97968Y-102527D02*
X108304Y-106289D01*
X104004Y-118103D02*
X93668Y-114341D01*
X-198400Y252314D02*
X-209400Y252314D01*
X-209400Y264886D02*
X-198400Y264886D01*
X202960Y294900D02*
X202960Y305900D01*
X190240Y305900D02*
X190240Y294900D01*
X61014Y319200D02*
X61014Y330200D01*
X73586Y330200D02*
X73586Y319200D01*
M02*
